<?xml version="1.0" encoding="UTF-8" standalone="no"?>
<!-- Created with Inkscape (http://www.inkscape.org/) -->

<svg
   width="100.32647mm"
   height="100.00001mm"
   viewBox="0 0 100.32647 100.00001"
   version="1.1"
   id="svg1"
   xml:space="preserve"
   xmlns="http://www.w3.org/2000/svg"
   xmlns:svg="http://www.w3.org/2000/svg"><defs
     id="defs1" /><g
     id="layer1"
     transform="translate(-234.34893,-98.787709)"><g
       id="g3701"
       transform="matrix(0.4969088,0,0,0.4969088,106.11689,71.325259)"><path
         id="rect3704"
         style="fill:#ffffff;fill-opacity:1;stroke-width:4.10001;stroke-linecap:round;stroke-linejoin:round;stroke-dashoffset:994.847"
         transform="rotate(-45,-460.97316,132.79265)"
         d="m 15.110111,693.03881 177.590279,-3.31227 c -32.39426,27.3549 -39.1161,53.65477 0,78.07089 L 9.2216353,767.4294 C 28.929176,742.5639 35.148922,723.75474 15.110111,693.03881 Z" /><path
         style="fill:#4b889e"
         d="m 314.84324,256.15888 c -16.04491,-2.0552 -24.94202,-23.14551 -14.95806,-35.88709 3.54665,-2.75278 10.62948,-11.93902 1.92826,-11.40953 -5.94957,6.00862 -13.60204,11.91635 -22.54454,10.7444 -14.23133,-0.15776 -24.99353,-16.19414 -19.94453,-29.52528 3.86052,-10.20228 12.80556,-17.5206 20.90192,-24.39214 2.5774,-4.98946 15.88355,-1.96422 14.68278,-5.303 -7.02342,-3.41198 6.24911,10.09964 13.82865,2.80453 8.04252,-1.8267 16.46334,-0.38582 24.65055,-0.77068 8.4384,-0.58463 19.25704,1.92443 19.68726,12.20115 -0.42088,10.8886 1.22728,22.0786 -1.60434,32.69279 -5.13236,11.63978 -16.00162,19.1371 -24.61917,28.09192 -6.52821,4.7114 -16.15227,-1.13273 -14.65463,-9.17959 2.72475,-6.58382 9.4317,-10.32172 13.72048,-15.80692 4.74571,-2.79967 4.55964,-7.75515 4.32999,-12.48513 0.0325,-4.08542 0.0649,-8.17084 0.0974,-12.25626 -7.24716,-0.30381 -14.69925,-0.63663 -21.84411,0.0728 -6.81666,4.25432 -10.75292,12.06316 -17.34038,16.51798 -6.66973,3.97029 -15.72382,-4.22541 -12.64088,-11.50551 6.49839,-10.31058 -8.12781,3.52212 -5.61975,8.5818 4.2528,13.13963 18.63811,3.48087 27.71675,3.69055 4.92126,1.85926 7.91535,-2.00034 11.75016,-4.07823 6.64595,0.8557 3.09114,13.31875 0.63293,15.54871 -1.73919,8.76391 -11.94367,21.61172 0.60962,27.07783 12.60829,3.34329 19.32942,-11.1097 27.4301,-17.93133 4.31404,-6.90358 9.70461,-12.44787 15.08792,-3.04021 2.45323,7.58218 8.21858,-3.34827 8.45239,0.11833 -3.41806,9.25366 -6.85106,12.57296 -15.22229,14.41832 -7.73703,6.89425 -13.86997,16.45424 -23.87261,20.19792 -3.40518,1.14188 -7.10414,1.50553 -10.64187,0.81191 z m 10.36779,-20.52563 c 5.23585,-3.14464 8.86604,-8.54214 13.4677,-12.57303 7.4554,-6.84073 15.13868,-15.76477 13.98114,-26.55385 -0.21079,-7.72336 0.45173,-15.57716 -0.31473,-23.21753 -2.77853,-12.2264 -16.54494,-10.77791 -26.12476,-10.54069 -8.07943,0.32611 -16.8289,-1.56649 -23.78882,3.86724 -8.06264,6.37299 -15.19107,13.96962 -22.06571,21.60314 -5.20256,6.2526 0.88167,16.13708 8.54828,14.46931 8.13728,-3.72528 12.11504,-12.78249 19.57916,-17.4625 7.35925,0.0626 14.76857,-0.41269 22.09271,0.14241 -0.16767,6.72143 0.3114,13.58297 -0.24725,20.21971 -4.73537,7.86183 -14.21333,12.49837 -17.59033,21.15613 -1.56825,6.96619 6.65049,12.30552 12.46261,8.88966 z m 95.63222,-85.3558 c -4.93085,-7.55603 11.11432,-12.58181 14.36492,-19.56727 3.654,-3.24438 4.8984,-9.36724 0.0226,-3.27631 -9.82282,9.11307 -19.02275,22.32386 -33.94283,22.00424 -8.30381,-0.076 -16.82735,0.66485 -25.0398,-0.42837 -11.37635,-1.84103 -10.37759,-15.24912 -10.41876,-23.98881 0.35463,-8.26474 -1.29053,-17.0237 3.41239,-24.46791 1.94598,-4.361059 9.446,-12.667364 2.27262,-5.125639 -3.25947,5.162959 -7.75839,-4.722821 -11.33013,-6.71475 -2.96137,-1.029986 -8.65313,7.551612 -2.25398,-0.05107 3.6176,-2.432061 7.26956,6.328239 5.99362,-2.564727 0.76117,-8.414275 8.89351,-12.450379 13.88543,-18.249234 6.13724,-6.572891 14.17151,-13.751655 23.84302,-11.975755 14.19546,0.554038 24.01677,16.038921 20.01075,29.311023 -2.82521,8.707283 -10.99861,13.915802 -16.24594,21.047162 3.80591,10.99929 11.19311,-4.97312 16.49627,-7.167732 11.07776,-10.935669 32.13088,-5.428712 36.67407,9.416942 3.71916,9.48369 -0.50992,19.92266 -7.95671,26.26019 -7.78841,6.65291 -14.66405,18.33107 -26.31624,16.80078 -2.82761,0.79876 3.16866,3.10574 -3.4713,-1.26276 z m -14.80818,-1.54743 c 13.5184,-3.02426 21.59383,-15.41427 31.18778,-24.32089 8.05783,-6.20967 -0.73646,-18.89797 -9.12114,-14.08481 -6.974,5.06631 -11.17957,16.07865 -20.72007,16.75299 -6.32796,0.079 -12.65621,-0.0322 -18.98423,-0.0604 0.11347,-6.82862 -0.41266,-13.79085 0.0929,-20.53757 4.33386,-7.284777 11.77501,-12.259209 16.70061,-19.014339 5.80436,-8.888283 -7.89609,-17.743471 -14.43999,-10.063193 -7.92574,8.039076 -16.96702,15.615327 -22.33151,25.691732 -4.04338,11.23361 -1.78668,23.46118 -2.11832,35.17595 2.14704,10.38263 13.5494,11.64361 22.2745,10.84276 5.81835,-0.0236 11.65822,0.12194 17.45949,-0.38222 z m 5.19804,-22.45546 c 4.23357,-3.65408 19.48538,-14.94194 5.53615,-12.60136 -5.71068,-1.04558 -19.84858,3.61605 -14.21665,-5.94067 -0.2448,-5.76297 0.3003,-13.522898 1.49171,-17.324512 -5.06571,6.009596 -15.07112,10.794192 -15.36922,19.346682 0.0496,5.61321 -0.0861,11.2347 0.23586,16.84008 7.23859,0.29306 14.78528,0.50188 21.9465,-0.11518 z"
         id="path3704" /><path
         style="fill:#e7212c"
         d="m 396.4672,255.98531 c -11.85875,-1.38484 -18.99346,-12.48565 -27.23231,-19.87824 -5.11862,-4.15493 -6.57327,-11.71274 -3.50769,-17.42337 5.75764,-6.79517 8.90258,9.29911 14.61028,11.41864 4.15153,4.7044 9.9461,11.18868 16.87707,8.33463 9.23662,-2.75636 -6.78564,0.047 -7.55522,-5.50769 -9.24085,-9.93314 -22.86987,-18.93625 -23.34728,-33.9078 0.10554,-10.35484 -1.90803,-21.63687 2.70218,-31.2723 5.02365,-6.92104 13.83026,-4.65411 21.08389,-5.08311 9.04659,-0.0187 18.55332,-0.87362 26.78495,3.4677 4.1075,-4.42731 11.01879,-5.4178 16.56579,-3.13527 8.73388,5.38715 15.65861,13.34417 22.50963,20.88394 9.6601,12.83939 0.20081,32.80641 -15.26564,35.09036 -13.27978,2.87918 -23.94937,-8.01254 -31.29913,-17.54269 2.27597,-7.6983 12.58167,0.87695 17.17984,2.73398 4.14446,2.27875 14.17699,-2.57077 3.76001,-0.96242 -9.19325,-3.5286 -12.62732,-16.36415 -22.64102,-17.88558 -6.30431,-0.16334 -12.61191,-0.0634 -18.91776,-0.0908 -0.99907,6.35966 -0.22373,13.06981 -0.37677,19.57917 3.30004,4.37718 11.71649,15.86408 14.08714,13.12141 -0.064,-5.33063 -0.94679,-17.49327 5.72902,-7.7468 5.05338,6.02025 12.76133,10.65297 13.52244,19.249 2.40517,14.20934 -10.84867,28.45476 -25.26942,26.5572 z M 286.66512,150.80928 c -7.24298,-1.77906 -11.0473,-8.76436 -16.42613,-13.3354 -5.55281,-5.15208 -11.26123,-10.91514 -11.62756,-19.0724 -2.28095,-16.09274 16.17526,-30.456109 31.07509,-23.25986 8.18331,4.264716 13.97328,11.9755 20.52652,18.31563 -5.52707,0.98352 -21.21102,-2.51529 -10.32911,5.35485 4.0742,4.18312 8.09801,9.6402 14.61272,8.12292 5.08579,0.0715 10.17158,0.14305 15.25737,0.21457 1.99672,-2.42285 0.25651,-6.37504 0.79391,-9.39512 -0.64029,-5.31818 1.84603,-11.82082 -3.31325,-15.59851 -4.30134,-5.46689 -10.47662,-9.521453 -14.21239,-15.315539 -3.27801,-8.211186 -2.34731,7.073382 2.67995,7.574603 0.8241,4.345959 3.13672,19.551876 -3.11333,10.919716 -7.30758,-7.644146 -18.26069,-15.552347 -17.0428,-27.437476 -0.58738,-15.126462 16.93979,-26.830586 30.89272,-21.186976 10.3248,4.270642 16.91418,14.05457 24.91945,21.437443 4.08477,3.912216 5.50136,12.463063 0.97168,16.480346 -4.4247,2.628033 -3.26495,6.055923 -0.79783,9.954103 2.66312,8.60711 0.91224,17.74804 1.41121,26.61224 0.61376,5.90156 -0.47552,12.47744 -6.17655,15.76018 -7.52935,4.24204 -16.39062,1.76842 -24.60134,2.32696 -6.30967,0.17122 -12.83552,0.23131 -18.25364,-3.67327 -9.21743,-6.01785 -16.88072,-14.29221 -24.21845,-22.43845 -5.27647,-7.70051 -0.74317,9.26158 3.78961,10.21736 3.11651,6.17508 14.87906,9.72541 14.40244,16.05193 -3.21853,2.11321 -7.5708,2.14916 -11.22029,1.37015 z"
         id="path3703" /><path
         style="fill:#323b46"
         d="m 316.56304,242.33174 c -9.42056,-0.59122 -11.87421,-12.50786 -6.48031,-18.99949 1.94566,-6.99262 7.24981,-13.99534 5.59042,-21.39697 -4.78349,-7.53634 -10.27974,5.53781 -16.98467,0.88971 -7.9725,1.14645 -18.70077,7.84399 -24.87095,-0.82737 -3.51132,-5.28429 2.64298,-13.25788 6.32945,-14.65133 -4.33255,5.95736 -1.96405,14.74061 5.85455,15.76564 8.56186,0.90142 12.00799,-9.0732 17.82438,-13.52351 5.83572,-7.12087 15.86741,-3.29394 23.85477,-4.05904 5.60326,1.31725 1.31386,12.34096 2.45773,17.73244 -2.1873,8.907 -12.73217,13.31255 -17.23191,21.26077 -3.89607,8.00266 6.97443,16.70225 13.84578,10.73487 6.21032,-5.57503 12.24221,-11.42726 18.01966,-17.48137 6.00322,-6.08908 9.00692,-14.57045 8.17925,-23.08487 -0.9392,-9.37772 3.25533,-21.21404 -4.04373,-28.65994 -7.98894,-5.61939 -18.26603,-2.87915 -27.35908,-3.73633 -8.13356,-2.74227 -16.26134,5.55796 -23.18528,1.88192 -5.65219,-4.26524 -5.86935,-10.62858 -0.47803,-15.27664 -1.82181,-7.67323 -11.79864,-9.88063 -15.62813,-16.73044 -5.56513,-3.10892 -6.45631,-17.0241 -0.56813,-6.82526 6.70594,7.70606 14.1921,14.97787 22.73266,20.60027 8.60083,5.31904 18.91792,2.64455 28.40995,3.47013 8.39031,1.11652 18.72749,-2.30613 20.07331,-11.82085 -0.25263,-10.44965 0.82636,-21.13692 -0.74783,-31.49357 -6.55785,-6.704673 1.51318,-15.216682 7.8753,-17.267228 4.63586,2.931956 9.56906,13.102528 13.61799,4.342354 2.77599,-2.2836 -4.66423,5.965182 -4.89885,8.297784 -4.77634,9.46674 -2.31595,20.31301 -2.89295,30.4642 -0.98992,9.28856 5.13049,18.87429 15.30732,17.61277 12.58309,-0.49014 27.14601,2.51196 37.61499,-6.35322 7.08908,-5.91001 13.06516,-13.00845 20.0867,-18.99093 -3.18709,9.49009 -12.9519,14.18714 -19.05975,21.36518 -2.11072,6.57228 12.14085,10.53816 2.22487,16.48138 -5.08624,7.10948 -11.45451,0.33075 -18.12951,0.65014 -8.76672,-0.23151 -17.56359,-0.0155 -26.32482,0.16681 -9.22322,0.62823 -12.06616,11.33106 -11.44129,19.06476 -0.18005,11.88035 -1.53684,25.90386 7.8565,34.98873 7.90936,6.84241 13.87159,18.87868 25.00905,20.0803 0.55127,2.6861 -11.54905,2.97206 -13.93927,-1.96327 -6.31045,-4.97358 -10.11897,-12.1765 -15.79942,-17.65637 -5.30783,0.0226 -10.15017,11.1519 -14.92937,1.40418 -5.41084,-8.70679 -10.18052,2.06402 -14.22818,5.93445 -5.56665,5.83747 -10.91719,12.31011 -17.86892,16.48113 -1.76861,0.7903 -3.71534,1.39417 -5.67425,1.12808 z m 79.45253,-28.47578 c -4.57726,-4.05299 -9.33179,-9.05439 -7.63747,-15.72061 -0.10719,-6.23978 -2.17946,-16.03283 7.40813,-12.90777 9.44687,-1.12404 19.09396,0.25512 24.25858,9.23685 2.31077,5.38123 12.61075,9.40717 14.14803,9.32621 -6.80038,3.7756 -12.41289,-3.51286 -18.38453,-4.79235 -6.82123,-0.59984 -16.27405,-1.65816 -13.22002,8.26113 -0.33719,4.60518 1.86342,17.5502 -4.23598,8.94065 -0.77719,-0.78309 -1.55112,-1.56944 -2.33674,-2.34411 z m -82.62753,-86.96758 c -7.07091,1.07696 -17.06167,-9.70333 -15.94868,-13.34961 6.0956,-0.70206 17.43066,2.00257 20.14802,-1.45053 -1.50936,-8.68274 -0.20368,-17.617999 -6.46139,-24.439095 0.35671,-7.359909 4.07901,4.702501 7.2645,5.353463 6.29657,6.058737 14.38871,12.487172 12.13574,22.233572 0.11628,5.54547 1.96448,14.74356 -6.76724,11.69013 -3.45043,0.15296 -6.91175,0.0434 -10.37095,-0.0379 z m 75.52292,-0.2936 c 0.78471,-7.69751 -2.8133,-17.03373 2.43256,-23.41905 3.21422,-3.545984 10.71544,-12.446559 12.39695,-11.370702 -0.94828,7.190193 -2.27838,15.454132 -1.3622,22.042112 6.01727,0.77915 17.5425,-2.35944 20.08599,1.61484 -4.87192,5.42817 -10.09397,13.03165 -18.5067,11.32777 -5.015,0.0721 -10.04142,0.21415 -15.0466,-0.19497 z"
         id="path3702" /></g></g></svg>
