<?xml version="1.0" encoding="UTF-8" standalone="no"?>
<!-- Created with Inkscape (http://www.inkscape.org/) -->

<svg
   width="88.751106mm"
   height="100.00001mm"
   viewBox="0 0 88.751106 100.00001"
   version="1.1"
   id="svg1"
   xml:space="preserve"
   xmlns="http://www.w3.org/2000/svg"
   xmlns:svg="http://www.w3.org/2000/svg"><defs
     id="defs1" /><g
     id="layer1"
     transform="translate(-546.88837,-98.787709)"><g
       id="g3707"
       transform="matrix(0.44012745,0,0,0.44012745,287.39811,81.735169)"><path
         style="fill:#03afd1"
         d="m 662.4859,249.65467 c -24.02598,-14.11604 -48.05294,-28.23041 -72.08401,-42.33779 -0.53587,-35.92027 -0.51684,-71.846 -0.72921,-107.769141 6.10584,4.789261 17.86897,6.432421 14.79877,16.547121 0.26317,27.48254 -0.22555,54.98865 0.41847,82.45703 21.2649,12.3482 42.44012,24.85141 63.56405,37.43953 0.0843,5.7523 0.18834,11.50436 0.24964,17.25695 -2.09676,-1.15564 -4.15161,-2.38474 -6.21771,-3.5937 z m 4.38057,-34.42422 c -15.30995,-9.21293 -30.74703,-18.21319 -46.1132,-27.33198 -0.53961,-23.15535 -0.35034,-46.33428 0.0757,-69.48794 0.49273,23.1091 0.17696,46.23303 0.26459,69.3487 15.91027,9.44868 31.97839,18.64001 47.74574,28.32229 l -0.36402,0.0912 z"
         id="path3713" /><path
         style="fill:#0290ad"
         d="m 668.71098,252.72631 c -0.24944,-5.57363 -0.1822,-11.15669 -0.25703,-16.73489 -21.12394,-12.58809 -42.29913,-25.09137 -63.56405,-37.43953 -0.7125,-30.03742 -0.0236,-60.11643 -0.57108,-90.16549 -2.68303,-1.98857 -18.94794,-11.040252 -11.20053,-7.21512 9.39327,5.53147 19.41047,11.15805 28.10401,17.07838 -1.26431,23.17376 -1.08575,46.45851 -0.44476,69.6635 16.02703,9.38837 31.91728,19.03434 48.02738,28.26419 0.15684,12.10865 0.7194,24.81938 -0.0939,36.54896 z"
         id="path3712" /><path
         style="fill:#e42832"
         d="m 690.49376,265.70413 c 0.5987,-5.84849 0.21036,-11.74959 0.3175,-17.622 28.47897,-17.12313 57.1722,-33.9289 85.52683,-51.23667 -0.0779,-29.7138 -0.15584,-59.42759 -0.23376,-89.14139 -28.49144,-16.839508 -56.95371,-33.728687 -85.42536,-50.601577 0.0662,-6.117947 -0.20921,-12.255895 0.22561,-18.357939 33.60315,19.359947 67.01267,39.136234 100.3209,59.009985 0.0367,36.377631 -0.26462,72.755241 -0.41254,109.132711 -33.38209,19.83029 -66.87539,39.53428 -100.43691,59.06422 l 0.11769,-0.24734 z m -0.0661,-38.27174 c 23.09771,-13.88833 46.42472,-27.39418 69.57219,-41.20033 0.6648,-22.1489 0.0381,-44.33195 0.13224,-66.49485 -23.11674,-14.00083 -46.64316,-27.349981 -69.65633,-41.502007 23.63188,13.305189 46.77404,27.563027 70.18752,41.285967 -0.0448,22.31459 -0.0896,44.62919 -0.1344,66.94378 -23.45487,13.68167 -46.6648,27.81522 -70.24706,41.25828 l 0.14571,-0.29084 z m -2.65906,-24.15711 c -15.51906,-8.94951 -31.35583,-17.4183 -46.51613,-26.94577 16.61624,8.94677 32.69227,18.97443 49.38492,27.77962 -0.99376,-6.3515 4.84642,-17.64491 -3.20489,-20.4981 -9.34588,-5.19708 -18.94766,-10.01923 -28.14584,-15.42748 5.66473,-4.91219 14.24732,-12.0602 21.25678,-4.22902 9.21134,8.86953 18.08969,-0.0705 26.79383,-5.0506 3.00986,-1.72919 2.82095,-8.91995 -1.57889,-9.54921 -3.51237,-2.61054 -14.77562,-7.98625 -14.33538,-9.12328 5.44382,4.43275 14.60214,6.62387 18.17373,12.15151 1.21649,10.22906 -12.55266,11.55547 -18.74406,17.05399 0.8167,4.40911 -2.25234,18.67156 4.98572,12.88088 9.70096,-5.17816 18.87918,-11.33557 28.70729,-16.26131 0.0835,-8.64515 0.79952,-17.33585 0.0358,-25.94685 -7.13371,-5.10175 -17.91793,-9.54168 -23.04099,-14.98303 7.74402,-5.07475 15.81798,-12.94226 23.79432,-3.28824 8.61792,4.44381 18.51374,8.92059 14.75434,20.6162 -0.0629,11.32831 -0.13246,22.65659 -0.19762,33.98489 -16.46189,9.32143 -32.64649,19.1412 -49.25821,28.19107 l -1.04093,-0.40121 z"
         id="path3711" /><path
         style="fill:#435f72"
         d="m 640.80501,153.09512 c 1.65678,-9.51488 -4.94548,-24.03767 7.1162,-27.8335 13.94947,-8.18004 27.95954,-16.25615 41.93732,-24.38764 8.72591,4.83653 17.23094,10.08722 25.76205,15.26297 -8.33484,5.34009 -16.87538,12.94903 -25.30202,3.39211 -11.38062,5.69729 -21.85962,13.11193 -33.18304,18.89562 -5.33108,2.77202 -14.6845,-11.22915 -15.5372,-5.16044 -0.2379,14.34251 0.57659,28.8447 -0.55997,43.06364 -0.30481,-7.73757 -0.18568,-15.49084 -0.23334,-23.23276 z m -19.49987,-35.07973 c -10.43211,-6.49507 -21.43216,-12.71971 -31.72531,-19.09977 13.21827,-9.06348 27.99792,-16.694397 41.82669,-25.181691 19.70021,-11.478028 39.21902,-23.326415 58.94815,-34.714776 0.56439,10.094962 1.81484,21.391722 -10.55324,24.081482 -24.84372,15.003577 -50.01345,29.483853 -74.71517,44.710835 5.42854,3.67511 11.30031,6.68776 16.92719,10.06541 22.779,-13.15913 45.23074,-26.886527 68.05055,-39.973995 -7.24178,5.359203 -16.7623,10.019157 -24.88786,15.130361 -14.62571,8.290454 -28.76822,17.712354 -43.74051,25.236474 z"
         id="path3710" /><path
         style="fill:#c51d25"
         d="m 690.28209,246.72266 c -0.68901,-10.83923 -1.78584,-22.12693 10.96272,-25.2791 19.77172,-11.64187 39.51057,-23.33974 59.28415,-34.97861 0.0448,-22.31459 0.0896,-44.62919 0.1344,-66.94378 -23.46019,-13.81856 -46.74194,-27.955949 -70.36665,-41.485993 0.0414,-10.002743 0.0269,-20.005884 0.12631,-30.008261 1.02976,3.586538 -1.83008,9.256973 2.87399,10.61981 27.59098,16.371699 55.19123,32.728222 82.80744,49.057344 0.0779,29.7138 0.15584,59.42759 0.23376,89.14139 -28.35422,17.30844 -57.04846,34.11257 -85.52683,51.23667 -0.0749,5.84694 0.20216,11.70916 -0.26458,17.54262 -0.40322,-6.28337 -0.18551,-12.60731 -0.26471,-18.90209 z m -1.5875,-43.47014 c -15.78084,-9.02652 -31.58808,-18.01198 -47.36041,-27.0504 10.28538,-5.40048 20.38651,-11.21527 30.88657,-16.1717 -4.63005,3.83819 -20.99668,7.52912 -7.29848,11.38784 8.78774,4.84563 17.73116,9.41853 26.41816,14.44126 0.033,6.08521 -0.18211,12.1676 -0.3491,18.24961 l -0.42077,-0.0149 -1.87597,-0.84172 z m 3.05516,-19.04603 c 0.51852,-6.10386 -4.85692,-15.94619 4.15582,-17.69562 5.85552,-3.6285 15.54357,-6.65463 13.69111,-15.28237 -5.48195,-5.91929 -18.58981,-6.62486 -19.58863,-15.39136 1.78077,-10.10124 16.82354,-12.18385 24.07021,-18.76931 4.1983,-0.17466 -19.68563,7.69161 -9.66972,10.75123 6.41515,6.39082 21.86193,7.44703 20.50437,18.44314 -0.0167,6.59966 -0.21563,13.19683 -0.36728,19.79431 -11.19481,5.44877 -21.54326,13.11604 -32.79588,18.14998 z"
         id="path3709" /><path
         style="fill:#263442"
         d="m 681.55084,260.57136 c -4.19266,-3.98859 -14.08426,-4.64938 -12.15073,-12.13198 0.12707,-10.67839 -1.03502,-21.60722 0.31913,-32.08746 7.12925,3.26287 13.73989,7.71421 20.56285,11.63642 -0.13647,12.4939 0.33301,25.0284 -0.33073,37.49225 -2.86978,-1.50962 -5.61328,-3.25443 -8.40052,-4.90923 z m -40.12163,-84.90324 c 0.29085,-14.94216 0.12662,-29.88985 0.16955,-44.83454 6.60985,4.18165 14.42875,11.74786 21.72594,4.24192 8.91182,-4.97211 17.39859,-10.8727 26.58877,-15.24498 6.30383,1.24049 14.14946,7.17013 3.46666,9.83906 -7.08939,2.60303 0.86181,12.62432 -9.03926,13.39955 -4.15255,3.98808 -14.63605,4.89636 -12.52455,12.44394 2.18677,7.03958 -7.59163,6.99438 -11.46052,10.54524 -6.26894,3.0539 -12.70545,7.28979 -18.92659,9.60981 z M 614.87585,113.7355 c -4.98359,-2.74986 -14.72073,-6.51063 -3.77939,-9.71554 26.44168,-15.467359 52.55287,-31.787579 79.18563,-46.754574 -0.0554,6.878627 0.15592,13.768372 -0.21809,20.637499 -22.7458,13.028497 -45.09631,26.742625 -67.82167,39.808195 -2.56468,-1.09322 -4.93577,-2.61888 -7.36648,-3.97558 z"
         id="path3708" /><path
         style="fill:none;fill-opacity:1;fill-rule:nonzero;stroke:#ffffff;stroke-width:20;stroke-linecap:round;stroke-linejoin:round;stroke-dasharray:none;stroke-dashoffset:994.847;stroke-opacity:1"
         d="m 1137.9479,103.04832 -69.1895,103.04833 m -33.1227,-51.52416 134.6989,-0.73606 m -30.9145,50.7881 -70.6617,-105.256502"
         id="path3714"
         transform="translate(-412.1933)" /></g></g></svg>
