<?xml version="1.0" encoding="UTF-8" standalone="no"?>
<!-- Created with Inkscape (http://www.inkscape.org/) -->

<svg
   width="110.02782mm"
   height="100.00001mm"
   viewBox="0 0 110.02782 100.00001"
   version="1.1"
   id="svg1"
   xml:space="preserve"
   xmlns="http://www.w3.org/2000/svg"
   xmlns:svg="http://www.w3.org/2000/svg"><defs
     id="defs1" /><g
     id="layer1"
     transform="translate(-85.735055,-98.787709)"><g
       id="g3700"
       transform="matrix(0.53981806,0,0,0.53981806,39.453724,77.019389)"><path
         style="fill:#d92732"
         d="m 107.25444,223.35757 c -7.23739,-10.76538 -14.588281,-21.47225 -21.519395,-32.43191 5.397636,-8.22504 10.491515,-16.66837 16.247555,-24.64338 5.91971,9.49117 9.45801,-10.11904 13.59795,-14.17402 5.00404,-3.88325 9.6696,12.38515 14.13923,15.86161 9.41476,3.51668 -2.59235,11.31039 -5.08695,17.69083 -7.63374,4.32796 1.52272,19.09933 4.66891,7.31319 10.43581,-16.04974 21.26078,-31.88211 31.35696,-48.13142 -4.51571,0.97907 -10.52333,-0.99009 -4.75396,-5.8004 5.45638,-4.61732 7.14311,-17.72958 14.92273,-16.98592 4.81086,1.33893 7.424,-3.11638 12.13772,-2.09155 8.92463,-0.0418 17.84927,-0.0836 26.77391,-0.12536 7.07579,11.01121 14.35893,21.92628 21.03533,33.16939 7.34985,3.16168 10.29412,-12.77411 15.36295,-17.57827 7.47243,-6.10007 -13.63039,-18.85162 2.55004,-15.96286 9.7524,-0.0399 19.50491,-0.0129 29.25737,-0.0176 7.36066,6.03457 2.11563,12.45545 -2.58862,18.57444 -9.45038,14.3326 -18.98464,28.62501 -28.25203,43.06639 -11.6802,-0.007 -23.3604,-0.0133 -35.0406,-0.02 -3.11611,-3.4338 6.39998,-9.54963 4.04988,-6.26202 3.4376,-6.70998 14.28023,-14.45085 7.18435,-20.30002 4.94091,-3.00386 -0.16475,-11.15989 -5.06542,-9.46153 -9.83232,1.43119 -24.107,-5.04499 -28.08058,7.74667 -15.99179,24.22667 -31.57101,48.72854 -47.87634,72.74598 -11.16254,0 -22.32509,0 -33.48763,0 -0.51112,-0.72742 -1.02224,-1.45483 -1.53336,-2.18225 z"
         id="path3701" /><path
         style="fill:#3b505e"
         d="m 154.79802,223.556 c -2.9197,-4.43571 -13.93074,0.79214 -6.46558,-6.9655 3.58419,-5.45291 7.2083,-10.87943 10.81444,-16.31783 3.09389,-0.82591 7.83382,1.35302 9.68886,-1.7344 10.07673,-15.04308 19.68344,-30.41233 29.93234,-45.33123 5.32526,-0.90614 11.63214,0.17914 17.39967,-0.16297 2.75501,3.5902 8.56888,0.88039 10.04508,6.467 -3.10897,5.4714 -10.84273,18.03813 -11.01319,14.45207 -6.86548,8.1846 -12.69726,17.18457 -18.26771,26.29062 17.68585,0.5728 35.39677,0.27846 53.09395,0.41817 5.37502,-4.82143 3.21917,-9.36482 0.51305,-14.51526 2.55704,-5.30248 -3.77477,-10.54661 3.146,-15.23513 4.68787,-5.25978 9.90081,-22.65539 14.83003,-8.99071 6.86343,11.27352 14.97989,22.00906 21.04399,33.6274 -6.55822,9.87019 -12.76953,19.9797 -19.6216,29.65126 -37.68595,0.64951 -75.40135,0.20357 -113.1002,0.33073 -0.67971,-0.66141 -1.35942,-1.32281 -2.03913,-1.98422 z m -20.4781,-53.22556 c -8.46603,-1.71148 -9.84983,-13.72737 -16.19581,-18.87809 -0.15483,-7.76673 9.46787,-15.70299 13.19733,-23.46741 19.35727,-29.144568 38.33683,-58.542976 57.7315,-87.659646 6.76239,8.008301 12.01185,18.328013 18.18978,27.204582 13.18967,20.758272 26.87815,41.218734 40.06023,61.966754 0.22426,8.52968 -8.90857,16.82636 -13.30114,24.7906 -7.47693,-3.4143 -10.71041,-15.92906 -16.64437,-22.67393 -9.33138,-14.30272 -18.18683,-28.95693 -27.91577,-42.975891 -18.3926,27.180631 -36.04924,54.889911 -54.75581,81.869641 z"
         id="path3700" /></g></g></svg>
