<?xml version="1.0" encoding="UTF-8" standalone="no"?>
<!-- Created with Inkscape (http://www.inkscape.org/) -->

<svg
   width="938.69891mm"
   height="298.47211mm"
   viewBox="0 0 938.69891 298.47211"
   version="1.1"
   id="svg1"
   xml:space="preserve"
   inkscape:version="1.4.3 (0d15f75, 2025-12-25)"
   sodipodi:docname="IconPack.svg"
   xmlns:inkscape="http://www.inkscape.org/namespaces/inkscape"
   xmlns:sodipodi="http://sodipodi.sourceforge.net/DTD/sodipodi-0.dtd"
   xmlns="http://www.w3.org/2000/svg"
   xmlns:svg="http://www.w3.org/2000/svg"><sodipodi:namedview
     id="namedview1"
     pagecolor="#ffffff"
     bordercolor="#000000"
     borderopacity="0.25"
     inkscape:showpageshadow="2"
     inkscape:pageopacity="0.0"
     inkscape:pagecheckerboard="0"
     inkscape:deskcolor="#d1d1d1"
     inkscape:document-units="mm"
     inkscape:zoom="0.17972959"
     inkscape:cx="1332.5574"
     inkscape:cy="331.05289"
     inkscape:window-width="1904"
     inkscape:window-height="993"
     inkscape:window-x="0"
     inkscape:window-y="0"
     inkscape:window-maximized="0"
     inkscape:current-layer="layer1" /><defs
     id="defs1" /><g
     inkscape:label="Layer 1"
     inkscape:groupmode="layer"
     id="layer1"
     transform="translate(0,1.472119)"><g
       id="g3700"
       transform="matrix(0.53981806,0,0,0.53981806,39.453724,77.019389)"><path
         style="fill:#d92732"
         d="m 107.25444,223.35757 c -7.23739,-10.76538 -14.588281,-21.47225 -21.519395,-32.43191 5.397636,-8.22504 10.491515,-16.66837 16.247555,-24.64338 5.91971,9.49117 9.45801,-10.11904 13.59795,-14.17402 5.00404,-3.88325 9.6696,12.38515 14.13923,15.86161 9.41476,3.51668 -2.59235,11.31039 -5.08695,17.69083 -7.63374,4.32796 1.52272,19.09933 4.66891,7.31319 10.43581,-16.04974 21.26078,-31.88211 31.35696,-48.13142 -4.51571,0.97907 -10.52333,-0.99009 -4.75396,-5.8004 5.45638,-4.61732 7.14311,-17.72958 14.92273,-16.98592 4.81086,1.33893 7.424,-3.11638 12.13772,-2.09155 8.92463,-0.0418 17.84927,-0.0836 26.77391,-0.12536 7.07579,11.01121 14.35893,21.92628 21.03533,33.16939 7.34985,3.16168 10.29412,-12.77411 15.36295,-17.57827 7.47243,-6.10007 -13.63039,-18.85162 2.55004,-15.96286 9.7524,-0.0399 19.50491,-0.0129 29.25737,-0.0176 7.36066,6.03457 2.11563,12.45545 -2.58862,18.57444 -9.45038,14.3326 -18.98464,28.62501 -28.25203,43.06639 -11.6802,-0.007 -23.3604,-0.0133 -35.0406,-0.02 -3.11611,-3.4338 6.39998,-9.54963 4.04988,-6.26202 3.4376,-6.70998 14.28023,-14.45085 7.18435,-20.30002 4.94091,-3.00386 -0.16475,-11.15989 -5.06542,-9.46153 -9.83232,1.43119 -24.107,-5.04499 -28.08058,7.74667 -15.99179,24.22667 -31.57101,48.72854 -47.87634,72.74598 -11.16254,0 -22.32509,0 -33.48763,0 -0.51112,-0.72742 -1.02224,-1.45483 -1.53336,-2.18225 z"
         id="path3701" /><path
         style="fill:#3b505e"
         d="m 154.79802,223.556 c -2.9197,-4.43571 -13.93074,0.79214 -6.46558,-6.9655 3.58419,-5.45291 7.2083,-10.87943 10.81444,-16.31783 3.09389,-0.82591 7.83382,1.35302 9.68886,-1.7344 10.07673,-15.04308 19.68344,-30.41233 29.93234,-45.33123 5.32526,-0.90614 11.63214,0.17914 17.39967,-0.16297 2.75501,3.5902 8.56888,0.88039 10.04508,6.467 -3.10897,5.4714 -10.84273,18.03813 -11.01319,14.45207 -6.86548,8.1846 -12.69726,17.18457 -18.26771,26.29062 17.68585,0.5728 35.39677,0.27846 53.09395,0.41817 5.37502,-4.82143 3.21917,-9.36482 0.51305,-14.51526 2.55704,-5.30248 -3.77477,-10.54661 3.146,-15.23513 4.68787,-5.25978 9.90081,-22.65539 14.83003,-8.99071 6.86343,11.27352 14.97989,22.00906 21.04399,33.6274 -6.55822,9.87019 -12.76953,19.9797 -19.6216,29.65126 -37.68595,0.64951 -75.40135,0.20357 -113.1002,0.33073 -0.67971,-0.66141 -1.35942,-1.32281 -2.03913,-1.98422 z m -20.4781,-53.22556 c -8.46603,-1.71148 -9.84983,-13.72737 -16.19581,-18.87809 -0.15483,-7.76673 9.46787,-15.70299 13.19733,-23.46741 19.35727,-29.144568 38.33683,-58.542976 57.7315,-87.659646 6.76239,8.008301 12.01185,18.328013 18.18978,27.204582 13.18967,20.758272 26.87815,41.218734 40.06023,61.966754 0.22426,8.52968 -8.90857,16.82636 -13.30114,24.7906 -7.47693,-3.4143 -10.71041,-15.92906 -16.64437,-22.67393 -9.33138,-14.30272 -18.18683,-28.95693 -27.91577,-42.975891 -18.3926,27.180631 -36.04924,54.889911 -54.75581,81.869641 z"
         id="path3700"
         sodipodi:nodetypes="cccccccccccccccccccccccccccc" /></g><g
       id="g3701"
       transform="matrix(0.4969088,0,0,0.4969088,106.11689,71.325259)"><path
         id="rect3704"
         style="fill:#ffffff;fill-opacity:1;stroke-width:4.10001;stroke-linecap:round;stroke-linejoin:round;stroke-dashoffset:994.847"
         transform="rotate(-45,-460.97316,132.79265)"
         d="m 15.110111,693.03881 177.590279,-3.31227 c -32.39426,27.3549 -39.1161,53.65477 0,78.07089 L 9.2216353,767.4294 C 28.929176,742.5639 35.148922,723.75474 15.110111,693.03881 Z"
         sodipodi:nodetypes="ccccc" /><path
         style="fill:#4b889e"
         d="m 314.84324,256.15888 c -16.04491,-2.0552 -24.94202,-23.14551 -14.95806,-35.88709 3.54665,-2.75278 10.62948,-11.93902 1.92826,-11.40953 -5.94957,6.00862 -13.60204,11.91635 -22.54454,10.7444 -14.23133,-0.15776 -24.99353,-16.19414 -19.94453,-29.52528 3.86052,-10.20228 12.80556,-17.5206 20.90192,-24.39214 2.5774,-4.98946 15.88355,-1.96422 14.68278,-5.303 -7.02342,-3.41198 6.24911,10.09964 13.82865,2.80453 8.04252,-1.8267 16.46334,-0.38582 24.65055,-0.77068 8.4384,-0.58463 19.25704,1.92443 19.68726,12.20115 -0.42088,10.8886 1.22728,22.0786 -1.60434,32.69279 -5.13236,11.63978 -16.00162,19.1371 -24.61917,28.09192 -6.52821,4.7114 -16.15227,-1.13273 -14.65463,-9.17959 2.72475,-6.58382 9.4317,-10.32172 13.72048,-15.80692 4.74571,-2.79967 4.55964,-7.75515 4.32999,-12.48513 0.0325,-4.08542 0.0649,-8.17084 0.0974,-12.25626 -7.24716,-0.30381 -14.69925,-0.63663 -21.84411,0.0728 -6.81666,4.25432 -10.75292,12.06316 -17.34038,16.51798 -6.66973,3.97029 -15.72382,-4.22541 -12.64088,-11.50551 6.49839,-10.31058 -8.12781,3.52212 -5.61975,8.5818 4.2528,13.13963 18.63811,3.48087 27.71675,3.69055 4.92126,1.85926 7.91535,-2.00034 11.75016,-4.07823 6.64595,0.8557 3.09114,13.31875 0.63293,15.54871 -1.73919,8.76391 -11.94367,21.61172 0.60962,27.07783 12.60829,3.34329 19.32942,-11.1097 27.4301,-17.93133 4.31404,-6.90358 9.70461,-12.44787 15.08792,-3.04021 2.45323,7.58218 8.21858,-3.34827 8.45239,0.11833 -3.41806,9.25366 -6.85106,12.57296 -15.22229,14.41832 -7.73703,6.89425 -13.86997,16.45424 -23.87261,20.19792 -3.40518,1.14188 -7.10414,1.50553 -10.64187,0.81191 z m 10.36779,-20.52563 c 5.23585,-3.14464 8.86604,-8.54214 13.4677,-12.57303 7.4554,-6.84073 15.13868,-15.76477 13.98114,-26.55385 -0.21079,-7.72336 0.45173,-15.57716 -0.31473,-23.21753 -2.77853,-12.2264 -16.54494,-10.77791 -26.12476,-10.54069 -8.07943,0.32611 -16.8289,-1.56649 -23.78882,3.86724 -8.06264,6.37299 -15.19107,13.96962 -22.06571,21.60314 -5.20256,6.2526 0.88167,16.13708 8.54828,14.46931 8.13728,-3.72528 12.11504,-12.78249 19.57916,-17.4625 7.35925,0.0626 14.76857,-0.41269 22.09271,0.14241 -0.16767,6.72143 0.3114,13.58297 -0.24725,20.21971 -4.73537,7.86183 -14.21333,12.49837 -17.59033,21.15613 -1.56825,6.96619 6.65049,12.30552 12.46261,8.88966 z m 95.63222,-85.3558 c -4.93085,-7.55603 11.11432,-12.58181 14.36492,-19.56727 3.654,-3.24438 4.8984,-9.36724 0.0226,-3.27631 -9.82282,9.11307 -19.02275,22.32386 -33.94283,22.00424 -8.30381,-0.076 -16.82735,0.66485 -25.0398,-0.42837 -11.37635,-1.84103 -10.37759,-15.24912 -10.41876,-23.98881 0.35463,-8.26474 -1.29053,-17.0237 3.41239,-24.46791 1.94598,-4.361059 9.446,-12.667364 2.27262,-5.125639 -3.25947,5.162959 -7.75839,-4.722821 -11.33013,-6.71475 -2.96137,-1.029986 -8.65313,7.551612 -2.25398,-0.05107 3.6176,-2.432061 7.26956,6.328239 5.99362,-2.564727 0.76117,-8.414275 8.89351,-12.450379 13.88543,-18.249234 6.13724,-6.572891 14.17151,-13.751655 23.84302,-11.975755 14.19546,0.554038 24.01677,16.038921 20.01075,29.311023 -2.82521,8.707283 -10.99861,13.915802 -16.24594,21.047162 3.80591,10.99929 11.19311,-4.97312 16.49627,-7.167732 11.07776,-10.935669 32.13088,-5.428712 36.67407,9.416942 3.71916,9.48369 -0.50992,19.92266 -7.95671,26.26019 -7.78841,6.65291 -14.66405,18.33107 -26.31624,16.80078 -2.82761,0.79876 3.16866,3.10574 -3.4713,-1.26276 z m -14.80818,-1.54743 c 13.5184,-3.02426 21.59383,-15.41427 31.18778,-24.32089 8.05783,-6.20967 -0.73646,-18.89797 -9.12114,-14.08481 -6.974,5.06631 -11.17957,16.07865 -20.72007,16.75299 -6.32796,0.079 -12.65621,-0.0322 -18.98423,-0.0604 0.11347,-6.82862 -0.41266,-13.79085 0.0929,-20.53757 4.33386,-7.284777 11.77501,-12.259209 16.70061,-19.014339 5.80436,-8.888283 -7.89609,-17.743471 -14.43999,-10.063193 -7.92574,8.039076 -16.96702,15.615327 -22.33151,25.691732 -4.04338,11.23361 -1.78668,23.46118 -2.11832,35.17595 2.14704,10.38263 13.5494,11.64361 22.2745,10.84276 5.81835,-0.0236 11.65822,0.12194 17.45949,-0.38222 z m 5.19804,-22.45546 c 4.23357,-3.65408 19.48538,-14.94194 5.53615,-12.60136 -5.71068,-1.04558 -19.84858,3.61605 -14.21665,-5.94067 -0.2448,-5.76297 0.3003,-13.522898 1.49171,-17.324512 -5.06571,6.009596 -15.07112,10.794192 -15.36922,19.346682 0.0496,5.61321 -0.0861,11.2347 0.23586,16.84008 7.23859,0.29306 14.78528,0.50188 21.9465,-0.11518 z"
         id="path3704"
         sodipodi:nodetypes="sccccccccccccccccccccccccccccsscccccccccccccccccccccccccccccccccsccccccccccsscccccccc" /><path
         style="fill:#e7212c"
         d="m 396.4672,255.98531 c -11.85875,-1.38484 -18.99346,-12.48565 -27.23231,-19.87824 -5.11862,-4.15493 -6.57327,-11.71274 -3.50769,-17.42337 5.75764,-6.79517 8.90258,9.29911 14.61028,11.41864 4.15153,4.7044 9.9461,11.18868 16.87707,8.33463 9.23662,-2.75636 -6.78564,0.047 -7.55522,-5.50769 -9.24085,-9.93314 -22.86987,-18.93625 -23.34728,-33.9078 0.10554,-10.35484 -1.90803,-21.63687 2.70218,-31.2723 5.02365,-6.92104 13.83026,-4.65411 21.08389,-5.08311 9.04659,-0.0187 18.55332,-0.87362 26.78495,3.4677 4.1075,-4.42731 11.01879,-5.4178 16.56579,-3.13527 8.73388,5.38715 15.65861,13.34417 22.50963,20.88394 9.6601,12.83939 0.20081,32.80641 -15.26564,35.09036 -13.27978,2.87918 -23.94937,-8.01254 -31.29913,-17.54269 2.27597,-7.6983 12.58167,0.87695 17.17984,2.73398 4.14446,2.27875 14.17699,-2.57077 3.76001,-0.96242 -9.19325,-3.5286 -12.62732,-16.36415 -22.64102,-17.88558 -6.30431,-0.16334 -12.61191,-0.0634 -18.91776,-0.0908 -0.99907,6.35966 -0.22373,13.06981 -0.37677,19.57917 3.30004,4.37718 11.71649,15.86408 14.08714,13.12141 -0.064,-5.33063 -0.94679,-17.49327 5.72902,-7.7468 5.05338,6.02025 12.76133,10.65297 13.52244,19.249 2.40517,14.20934 -10.84867,28.45476 -25.26942,26.5572 z M 286.66512,150.80928 c -7.24298,-1.77906 -11.0473,-8.76436 -16.42613,-13.3354 -5.55281,-5.15208 -11.26123,-10.91514 -11.62756,-19.0724 -2.28095,-16.09274 16.17526,-30.456109 31.07509,-23.25986 8.18331,4.264716 13.97328,11.9755 20.52652,18.31563 -5.52707,0.98352 -21.21102,-2.51529 -10.32911,5.35485 4.0742,4.18312 8.09801,9.6402 14.61272,8.12292 5.08579,0.0715 10.17158,0.14305 15.25737,0.21457 1.99672,-2.42285 0.25651,-6.37504 0.79391,-9.39512 -0.64029,-5.31818 1.84603,-11.82082 -3.31325,-15.59851 -4.30134,-5.46689 -10.47662,-9.521453 -14.21239,-15.315539 -3.27801,-8.211186 -2.34731,7.073382 2.67995,7.574603 0.8241,4.345959 3.13672,19.551876 -3.11333,10.919716 -7.30758,-7.644146 -18.26069,-15.552347 -17.0428,-27.437476 -0.58738,-15.126462 16.93979,-26.830586 30.89272,-21.186976 10.3248,4.270642 16.91418,14.05457 24.91945,21.437443 4.08477,3.912216 5.50136,12.463063 0.97168,16.480346 -4.4247,2.628033 -3.26495,6.055923 -0.79783,9.954103 2.66312,8.60711 0.91224,17.74804 1.41121,26.61224 0.61376,5.90156 -0.47552,12.47744 -6.17655,15.76018 -7.52935,4.24204 -16.39062,1.76842 -24.60134,2.32696 -6.30967,0.17122 -12.83552,0.23131 -18.25364,-3.67327 -9.21743,-6.01785 -16.88072,-14.29221 -24.21845,-22.43845 -5.27647,-7.70051 -0.74317,9.26158 3.78961,10.21736 3.11651,6.17508 14.87906,9.72541 14.40244,16.05193 -3.21853,2.11321 -7.5708,2.14916 -11.22029,1.37015 z"
         id="path3703" /><path
         style="fill:#323b46"
         d="m 316.56304,242.33174 c -9.42056,-0.59122 -11.87421,-12.50786 -6.48031,-18.99949 1.94566,-6.99262 7.24981,-13.99534 5.59042,-21.39697 -4.78349,-7.53634 -10.27974,5.53781 -16.98467,0.88971 -7.9725,1.14645 -18.70077,7.84399 -24.87095,-0.82737 -3.51132,-5.28429 2.64298,-13.25788 6.32945,-14.65133 -4.33255,5.95736 -1.96405,14.74061 5.85455,15.76564 8.56186,0.90142 12.00799,-9.0732 17.82438,-13.52351 5.83572,-7.12087 15.86741,-3.29394 23.85477,-4.05904 5.60326,1.31725 1.31386,12.34096 2.45773,17.73244 -2.1873,8.907 -12.73217,13.31255 -17.23191,21.26077 -3.89607,8.00266 6.97443,16.70225 13.84578,10.73487 6.21032,-5.57503 12.24221,-11.42726 18.01966,-17.48137 6.00322,-6.08908 9.00692,-14.57045 8.17925,-23.08487 -0.9392,-9.37772 3.25533,-21.21404 -4.04373,-28.65994 -7.98894,-5.61939 -18.26603,-2.87915 -27.35908,-3.73633 -8.13356,-2.74227 -16.26134,5.55796 -23.18528,1.88192 -5.65219,-4.26524 -5.86935,-10.62858 -0.47803,-15.27664 -1.82181,-7.67323 -11.79864,-9.88063 -15.62813,-16.73044 -5.56513,-3.10892 -6.45631,-17.0241 -0.56813,-6.82526 6.70594,7.70606 14.1921,14.97787 22.73266,20.60027 8.60083,5.31904 18.91792,2.64455 28.40995,3.47013 8.39031,1.11652 18.72749,-2.30613 20.07331,-11.82085 -0.25263,-10.44965 0.82636,-21.13692 -0.74783,-31.49357 -6.55785,-6.704673 1.51318,-15.216682 7.8753,-17.267228 4.63586,2.931956 9.56906,13.102528 13.61799,4.342354 2.77599,-2.2836 -4.66423,5.965182 -4.89885,8.297784 -4.77634,9.46674 -2.31595,20.31301 -2.89295,30.4642 -0.98992,9.28856 5.13049,18.87429 15.30732,17.61277 12.58309,-0.49014 27.14601,2.51196 37.61499,-6.35322 7.08908,-5.91001 13.06516,-13.00845 20.0867,-18.99093 -3.18709,9.49009 -12.9519,14.18714 -19.05975,21.36518 -2.11072,6.57228 12.14085,10.53816 2.22487,16.48138 -5.08624,7.10948 -11.45451,0.33075 -18.12951,0.65014 -8.76672,-0.23151 -17.56359,-0.0155 -26.32482,0.16681 -9.22322,0.62823 -12.06616,11.33106 -11.44129,19.06476 -0.18005,11.88035 -1.53684,25.90386 7.8565,34.98873 7.90936,6.84241 13.87159,18.87868 25.00905,20.0803 0.55127,2.6861 -11.54905,2.97206 -13.93927,-1.96327 -6.31045,-4.97358 -10.11897,-12.1765 -15.79942,-17.65637 -5.30783,0.0226 -10.15017,11.1519 -14.92937,1.40418 -5.41084,-8.70679 -10.18052,2.06402 -14.22818,5.93445 -5.56665,5.83747 -10.91719,12.31011 -17.86892,16.48113 -1.76861,0.7903 -3.71534,1.39417 -5.67425,1.12808 z m 79.45253,-28.47578 c -4.57726,-4.05299 -9.33179,-9.05439 -7.63747,-15.72061 -0.10719,-6.23978 -2.17946,-16.03283 7.40813,-12.90777 9.44687,-1.12404 19.09396,0.25512 24.25858,9.23685 2.31077,5.38123 12.61075,9.40717 14.14803,9.32621 -6.80038,3.7756 -12.41289,-3.51286 -18.38453,-4.79235 -6.82123,-0.59984 -16.27405,-1.65816 -13.22002,8.26113 -0.33719,4.60518 1.86342,17.5502 -4.23598,8.94065 -0.77719,-0.78309 -1.55112,-1.56944 -2.33674,-2.34411 z m -82.62753,-86.96758 c -7.07091,1.07696 -17.06167,-9.70333 -15.94868,-13.34961 6.0956,-0.70206 17.43066,2.00257 20.14802,-1.45053 -1.50936,-8.68274 -0.20368,-17.617999 -6.46139,-24.439095 0.35671,-7.359909 4.07901,4.702501 7.2645,5.353463 6.29657,6.058737 14.38871,12.487172 12.13574,22.233572 0.11628,5.54547 1.96448,14.74356 -6.76724,11.69013 -3.45043,0.15296 -6.91175,0.0434 -10.37095,-0.0379 z m 75.52292,-0.2936 c 0.78471,-7.69751 -2.8133,-17.03373 2.43256,-23.41905 3.21422,-3.545984 10.71544,-12.446559 12.39695,-11.370702 -0.94828,7.190193 -2.27838,15.454132 -1.3622,22.042112 6.01727,0.77915 17.5425,-2.35944 20.08599,1.61484 -4.87192,5.42817 -10.09397,13.03165 -18.5067,11.32777 -5.015,0.0721 -10.04142,0.21415 -15.0466,-0.19497 z"
         id="path3702" /></g><g
       id="g3704"
       transform="matrix(0.57812802,0,0,0.57812802,129.55682,65.298525)"><path
         style="fill:#0ca3c0"
         d="m 495.20389,140.83475 c -0.82605,-5.55947 -3.8051,-19.95905 2.97954,-26.68399 h 31.24781 c -2.113,7.06576 -15.97708,12.74782 -10.93463,19.99602 6.73864,8.2368 13.696,16.30573 20.19505,24.73165 -4.49129,5.03048 -6.72885,14.62137 -13.08866,16.78795 h -28.69241 c -4.75752,-6.14286 7.32851,-11.07413 4.73921,-16.79131 5.28783,-8.8135 -4.01098,-10.76045 -6.44591,-18.04032 z"
         id="path3707"
         sodipodi:nodetypes="ccccccccc" /><path
         style="fill:#d81724"
         d="m 553.56718,213.32257 c -0.29809,-5.91363 -0.68766,-12.22084 -0.0116,-18.00755 2.27731,-1.79444 6.29007,-0.20395 9.24479,-0.67712 8.15716,-0.13126 16.47537,0.85766 24.49993,-0.41942 9.77945,-10.07325 18.779,-20.91406 28.09435,-31.42234 3.80101,-5.91031 -1.07607,-7.41774 -5.83466,-6.4443 -8.66477,0 -17.32953,0 -25.99429,0 -1.49528,5.35281 -1.34339,11.12689 -2.67138,16.38514 -2.08647,4.76295 -7.84086,2.11641 -11.83335,2.79715 -7.74175,-0.0327 -15.49031,0.10816 -23.22554,-0.22496 3.55304,-7.00573 15.96953,-13.04499 14.07314,-20.60418 -6.96206,-8.20484 -13.97978,-16.37047 -20.68773,-24.78438 4.87721,-4.7132 7.94813,-13.47026 14.09234,-15.76969 8.43815,0.19382 17.092,-0.38034 25.39776,0.28482 5.66894,5.04442 1.24174,15.4391 5.67237,20.7517 10.69651,-0.0634 21.41755,0.36145 32.09586,-0.15806 -9.00724,-12.38747 -19.59147,-23.58431 -29.60134,-35.16605 -2.61339,-3.03999 -7.06433,-0.996519 -10.57568,-1.5875 -7.48814,0 -14.97629,0 -22.46443,0 -1.13985,-7.320845 -0.27564,-15.099778 -0.46168,-22.621874 14.88996,0.04598 29.82547,-0.273816 44.68712,-4.71e-4 7.75214,2.69479 11.58723,11.099325 17.39934,16.4865 11.59748,13.347385 23.75075,26.343625 35.0869,39.846555 1.75556,6.03083 7.55397,12.95231 2.64506,18.7342 -18.71853,20.69664 -36.68375,42.13483 -55.74374,62.48267 -9.4644,0.74846 -19.37222,0.12908 -28.99133,0.38821 -4.95955,-0.0784 -9.95202,0.19522 -14.89219,-0.26905 z"
         id="path3706" /><path
         style="fill:#273d4b"
         d="m 478.93886,213.17979 c -9.87683,-9.24742 -18.03412,-20.37837 -27.26323,-30.3372 -9.72658,-11.29416 -20.01987,-22.14891 -29.47933,-33.6407 -2.7734,-7.09817 3.89518,-12.86098 8.05972,-17.76699 16.23513,-18.34348 32.15787,-36.979961 48.67656,-55.061765 4.01755,-2.110135 8.95792,-0.490962 13.3616,-1.023651 10.24657,0.180112 20.74513,-0.656529 30.78706,0.501529 -0.12652,7.291022 0.31402,14.661018 -0.3212,21.895622 -11.88199,0 -23.76397,0 -35.64596,0 -10.67032,12.066485 -21.39786,24.095435 -31.83868,36.355455 5.31344,3.88471 15.7782,0.75119 23.00884,1.69746 5.53962,-0.0284 11.07925,-0.0568 16.61888,-0.0852 -0.9106,5.5015 3.21193,9.16532 6.82493,12.72088 5.80454,3.2335 1.82559,8.8283 -3.38562,6.99058 -12.53835,0.11118 -25.10459,-0.29422 -37.61998,0.33073 -3.77952,9.88488 9.08315,15.60619 13.54627,23.0522 6.65384,5.6188 10.534,17.28379 20.76157,16.19961 9.30612,0.0812 18.61253,0.14723 27.91866,0.23725 -0.0489,6.03768 0.36862,12.11833 -0.14235,18.12395 -14.6224,-0.0527 -29.24699,0.032 -43.86774,-0.18979 z"
         id="path3705" /></g><g
       id="g3707"
       transform="matrix(0.44012745,0,0,0.44012745,287.39811,81.735169)"><path
         style="fill:#03afd1"
         d="m 662.4859,249.65467 c -24.02598,-14.11604 -48.05294,-28.23041 -72.08401,-42.33779 -0.53587,-35.92027 -0.51684,-71.846 -0.72921,-107.769141 6.10584,4.789261 17.86897,6.432421 14.79877,16.547121 0.26317,27.48254 -0.22555,54.98865 0.41847,82.45703 21.2649,12.3482 42.44012,24.85141 63.56405,37.43953 0.0843,5.7523 0.18834,11.50436 0.24964,17.25695 -2.09676,-1.15564 -4.15161,-2.38474 -6.21771,-3.5937 z m 4.38057,-34.42422 c -15.30995,-9.21293 -30.74703,-18.21319 -46.1132,-27.33198 -0.53961,-23.15535 -0.35034,-46.33428 0.0757,-69.48794 0.49273,23.1091 0.17696,46.23303 0.26459,69.3487 15.91027,9.44868 31.97839,18.64001 47.74574,28.32229 l -0.36402,0.0912 z"
         id="path3713" /><path
         style="fill:#0290ad"
         d="m 668.71098,252.72631 c -0.24944,-5.57363 -0.1822,-11.15669 -0.25703,-16.73489 -21.12394,-12.58809 -42.29913,-25.09137 -63.56405,-37.43953 -0.7125,-30.03742 -0.0236,-60.11643 -0.57108,-90.16549 -2.68303,-1.98857 -18.94794,-11.040252 -11.20053,-7.21512 9.39327,5.53147 19.41047,11.15805 28.10401,17.07838 -1.26431,23.17376 -1.08575,46.45851 -0.44476,69.6635 16.02703,9.38837 31.91728,19.03434 48.02738,28.26419 0.15684,12.10865 0.7194,24.81938 -0.0939,36.54896 z"
         id="path3712" /><path
         style="fill:#e42832"
         d="m 690.49376,265.70413 c 0.5987,-5.84849 0.21036,-11.74959 0.3175,-17.622 28.47897,-17.12313 57.1722,-33.9289 85.52683,-51.23667 -0.0779,-29.7138 -0.15584,-59.42759 -0.23376,-89.14139 -28.49144,-16.839508 -56.95371,-33.728687 -85.42536,-50.601577 0.0662,-6.117947 -0.20921,-12.255895 0.22561,-18.357939 33.60315,19.359947 67.01267,39.136234 100.3209,59.009985 0.0367,36.377631 -0.26462,72.755241 -0.41254,109.132711 -33.38209,19.83029 -66.87539,39.53428 -100.43691,59.06422 l 0.11769,-0.24734 z m -0.0661,-38.27174 c 23.09771,-13.88833 46.42472,-27.39418 69.57219,-41.20033 0.6648,-22.1489 0.0381,-44.33195 0.13224,-66.49485 -23.11674,-14.00083 -46.64316,-27.349981 -69.65633,-41.502007 23.63188,13.305189 46.77404,27.563027 70.18752,41.285967 -0.0448,22.31459 -0.0896,44.62919 -0.1344,66.94378 -23.45487,13.68167 -46.6648,27.81522 -70.24706,41.25828 l 0.14571,-0.29084 z m -2.65906,-24.15711 c -15.51906,-8.94951 -31.35583,-17.4183 -46.51613,-26.94577 16.61624,8.94677 32.69227,18.97443 49.38492,27.77962 -0.99376,-6.3515 4.84642,-17.64491 -3.20489,-20.4981 -9.34588,-5.19708 -18.94766,-10.01923 -28.14584,-15.42748 5.66473,-4.91219 14.24732,-12.0602 21.25678,-4.22902 9.21134,8.86953 18.08969,-0.0705 26.79383,-5.0506 3.00986,-1.72919 2.82095,-8.91995 -1.57889,-9.54921 -3.51237,-2.61054 -14.77562,-7.98625 -14.33538,-9.12328 5.44382,4.43275 14.60214,6.62387 18.17373,12.15151 1.21649,10.22906 -12.55266,11.55547 -18.74406,17.05399 0.8167,4.40911 -2.25234,18.67156 4.98572,12.88088 9.70096,-5.17816 18.87918,-11.33557 28.70729,-16.26131 0.0835,-8.64515 0.79952,-17.33585 0.0358,-25.94685 -7.13371,-5.10175 -17.91793,-9.54168 -23.04099,-14.98303 7.74402,-5.07475 15.81798,-12.94226 23.79432,-3.28824 8.61792,4.44381 18.51374,8.92059 14.75434,20.6162 -0.0629,11.32831 -0.13246,22.65659 -0.19762,33.98489 -16.46189,9.32143 -32.64649,19.1412 -49.25821,28.19107 l -1.04093,-0.40121 z"
         id="path3711" /><path
         style="fill:#435f72"
         d="m 640.80501,153.09512 c 1.65678,-9.51488 -4.94548,-24.03767 7.1162,-27.8335 13.94947,-8.18004 27.95954,-16.25615 41.93732,-24.38764 8.72591,4.83653 17.23094,10.08722 25.76205,15.26297 -8.33484,5.34009 -16.87538,12.94903 -25.30202,3.39211 -11.38062,5.69729 -21.85962,13.11193 -33.18304,18.89562 -5.33108,2.77202 -14.6845,-11.22915 -15.5372,-5.16044 -0.2379,14.34251 0.57659,28.8447 -0.55997,43.06364 -0.30481,-7.73757 -0.18568,-15.49084 -0.23334,-23.23276 z m -19.49987,-35.07973 c -10.43211,-6.49507 -21.43216,-12.71971 -31.72531,-19.09977 13.21827,-9.06348 27.99792,-16.694397 41.82669,-25.181691 19.70021,-11.478028 39.21902,-23.326415 58.94815,-34.714776 0.56439,10.094962 1.81484,21.391722 -10.55324,24.081482 -24.84372,15.003577 -50.01345,29.483853 -74.71517,44.710835 5.42854,3.67511 11.30031,6.68776 16.92719,10.06541 22.779,-13.15913 45.23074,-26.886527 68.05055,-39.973995 -7.24178,5.359203 -16.7623,10.019157 -24.88786,15.130361 -14.62571,8.290454 -28.76822,17.712354 -43.74051,25.236474 z"
         id="path3710" /><path
         style="fill:#c51d25"
         d="m 690.28209,246.72266 c -0.68901,-10.83923 -1.78584,-22.12693 10.96272,-25.2791 19.77172,-11.64187 39.51057,-23.33974 59.28415,-34.97861 0.0448,-22.31459 0.0896,-44.62919 0.1344,-66.94378 -23.46019,-13.81856 -46.74194,-27.955949 -70.36665,-41.485993 0.0414,-10.002743 0.0269,-20.005884 0.12631,-30.008261 1.02976,3.586538 -1.83008,9.256973 2.87399,10.61981 27.59098,16.371699 55.19123,32.728222 82.80744,49.057344 0.0779,29.7138 0.15584,59.42759 0.23376,89.14139 -28.35422,17.30844 -57.04846,34.11257 -85.52683,51.23667 -0.0749,5.84694 0.20216,11.70916 -0.26458,17.54262 -0.40322,-6.28337 -0.18551,-12.60731 -0.26471,-18.90209 z m -1.5875,-43.47014 c -15.78084,-9.02652 -31.58808,-18.01198 -47.36041,-27.0504 10.28538,-5.40048 20.38651,-11.21527 30.88657,-16.1717 -4.63005,3.83819 -20.99668,7.52912 -7.29848,11.38784 8.78774,4.84563 17.73116,9.41853 26.41816,14.44126 0.033,6.08521 -0.18211,12.1676 -0.3491,18.24961 l -0.42077,-0.0149 -1.87597,-0.84172 z m 3.05516,-19.04603 c 0.51852,-6.10386 -4.85692,-15.94619 4.15582,-17.69562 5.85552,-3.6285 15.54357,-6.65463 13.69111,-15.28237 -5.48195,-5.91929 -18.58981,-6.62486 -19.58863,-15.39136 1.78077,-10.10124 16.82354,-12.18385 24.07021,-18.76931 4.1983,-0.17466 -19.68563,7.69161 -9.66972,10.75123 6.41515,6.39082 21.86193,7.44703 20.50437,18.44314 -0.0167,6.59966 -0.21563,13.19683 -0.36728,19.79431 -11.19481,5.44877 -21.54326,13.11604 -32.79588,18.14998 z"
         id="path3709" /><path
         style="fill:#263442"
         d="m 681.55084,260.57136 c -4.19266,-3.98859 -14.08426,-4.64938 -12.15073,-12.13198 0.12707,-10.67839 -1.03502,-21.60722 0.31913,-32.08746 7.12925,3.26287 13.73989,7.71421 20.56285,11.63642 -0.13647,12.4939 0.33301,25.0284 -0.33073,37.49225 -2.86978,-1.50962 -5.61328,-3.25443 -8.40052,-4.90923 z m -40.12163,-84.90324 c 0.29085,-14.94216 0.12662,-29.88985 0.16955,-44.83454 6.60985,4.18165 14.42875,11.74786 21.72594,4.24192 8.91182,-4.97211 17.39859,-10.8727 26.58877,-15.24498 6.30383,1.24049 14.14946,7.17013 3.46666,9.83906 -7.08939,2.60303 0.86181,12.62432 -9.03926,13.39955 -4.15255,3.98808 -14.63605,4.89636 -12.52455,12.44394 2.18677,7.03958 -7.59163,6.99438 -11.46052,10.54524 -6.26894,3.0539 -12.70545,7.28979 -18.92659,9.60981 z M 614.87585,113.7355 c -4.98359,-2.74986 -14.72073,-6.51063 -3.77939,-9.71554 26.44168,-15.467359 52.55287,-31.787579 79.18563,-46.754574 -0.0554,6.878627 0.15592,13.768372 -0.21809,20.637499 -22.7458,13.028497 -45.09631,26.742625 -67.82167,39.808195 -2.56468,-1.09322 -4.93577,-2.61888 -7.36648,-3.97558 z"
         id="path3708" /><path
         style="fill:none;fill-opacity:1;fill-rule:nonzero;stroke:#ffffff;stroke-width:20;stroke-linecap:round;stroke-linejoin:round;stroke-dasharray:none;stroke-dashoffset:994.847;stroke-opacity:1"
         d="m 1137.9479,103.04832 -69.1895,103.04833 m -33.1227,-51.52416 134.6989,-0.73606 m -30.9145,50.7881 -70.6617,-105.256502"
         id="path3714"
         sodipodi:nodetypes="cccccc"
         transform="translate(-412.1933)" /></g></g></svg>
