<?xml version="1.0" encoding="UTF-8" standalone="no"?>
<!-- Created with Inkscape (http://www.inkscape.org/) -->

<svg
   width="135.04085mm"
   height="80.000008mm"
   viewBox="0 0 135.04085 80.000009"
   version="1.1"
   id="svg1"
   xml:space="preserve"
   xmlns="http://www.w3.org/2000/svg"
   xmlns:svg="http://www.w3.org/2000/svg"><defs
     id="defs1" /><g
     id="layer1"
     transform="translate(-373.26146,-108.78773)"><g
       id="g3704"
       transform="matrix(0.57812802,0,0,0.57812802,129.55682,65.298525)"><path
         style="fill:#0ca3c0"
         d="m 495.20389,140.83475 c -0.82605,-5.55947 -3.8051,-19.95905 2.97954,-26.68399 h 31.24781 c -2.113,7.06576 -15.97708,12.74782 -10.93463,19.99602 6.73864,8.2368 13.696,16.30573 20.19505,24.73165 -4.49129,5.03048 -6.72885,14.62137 -13.08866,16.78795 h -28.69241 c -4.75752,-6.14286 7.32851,-11.07413 4.73921,-16.79131 5.28783,-8.8135 -4.01098,-10.76045 -6.44591,-18.04032 z"
         id="path3707" /><path
         style="fill:#d81724"
         d="m 553.56718,213.32257 c -0.29809,-5.91363 -0.68766,-12.22084 -0.0116,-18.00755 2.27731,-1.79444 6.29007,-0.20395 9.24479,-0.67712 8.15716,-0.13126 16.47537,0.85766 24.49993,-0.41942 9.77945,-10.07325 18.779,-20.91406 28.09435,-31.42234 3.80101,-5.91031 -1.07607,-7.41774 -5.83466,-6.4443 -8.66477,0 -17.32953,0 -25.99429,0 -1.49528,5.35281 -1.34339,11.12689 -2.67138,16.38514 -2.08647,4.76295 -7.84086,2.11641 -11.83335,2.79715 -7.74175,-0.0327 -15.49031,0.10816 -23.22554,-0.22496 3.55304,-7.00573 15.96953,-13.04499 14.07314,-20.60418 -6.96206,-8.20484 -13.97978,-16.37047 -20.68773,-24.78438 4.87721,-4.7132 7.94813,-13.47026 14.09234,-15.76969 8.43815,0.19382 17.092,-0.38034 25.39776,0.28482 5.66894,5.04442 1.24174,15.4391 5.67237,20.7517 10.69651,-0.0634 21.41755,0.36145 32.09586,-0.15806 -9.00724,-12.38747 -19.59147,-23.58431 -29.60134,-35.16605 -2.61339,-3.03999 -7.06433,-0.996519 -10.57568,-1.5875 -7.48814,0 -14.97629,0 -22.46443,0 -1.13985,-7.320845 -0.27564,-15.099778 -0.46168,-22.621874 14.88996,0.04598 29.82547,-0.273816 44.68712,-4.71e-4 7.75214,2.69479 11.58723,11.099325 17.39934,16.4865 11.59748,13.347385 23.75075,26.343625 35.0869,39.846555 1.75556,6.03083 7.55397,12.95231 2.64506,18.7342 -18.71853,20.69664 -36.68375,42.13483 -55.74374,62.48267 -9.4644,0.74846 -19.37222,0.12908 -28.99133,0.38821 -4.95955,-0.0784 -9.95202,0.19522 -14.89219,-0.26905 z"
         id="path3706" /><path
         style="fill:#273d4b"
         d="m 478.93886,213.17979 c -9.87683,-9.24742 -18.03412,-20.37837 -27.26323,-30.3372 -9.72658,-11.29416 -20.01987,-22.14891 -29.47933,-33.6407 -2.7734,-7.09817 3.89518,-12.86098 8.05972,-17.76699 16.23513,-18.34348 32.15787,-36.979961 48.67656,-55.061765 4.01755,-2.110135 8.95792,-0.490962 13.3616,-1.023651 10.24657,0.180112 20.74513,-0.656529 30.78706,0.501529 -0.12652,7.291022 0.31402,14.661018 -0.3212,21.895622 -11.88199,0 -23.76397,0 -35.64596,0 -10.67032,12.066485 -21.39786,24.095435 -31.83868,36.355455 5.31344,3.88471 15.7782,0.75119 23.00884,1.69746 5.53962,-0.0284 11.07925,-0.0568 16.61888,-0.0852 -0.9106,5.5015 3.21193,9.16532 6.82493,12.72088 5.80454,3.2335 1.82559,8.8283 -3.38562,6.99058 -12.53835,0.11118 -25.10459,-0.29422 -37.61998,0.33073 -3.77952,9.88488 9.08315,15.60619 13.54627,23.0522 6.65384,5.6188 10.534,17.28379 20.76157,16.19961 9.30612,0.0812 18.61253,0.14723 27.91866,0.23725 -0.0489,6.03768 0.36862,12.11833 -0.14235,18.12395 -14.6224,-0.0527 -29.24699,0.032 -43.86774,-0.18979 z"
         id="path3705" /></g></g></svg>
