<?xml version="1.0" encoding="UTF-8" standalone="no"?>
<!-- Created with Inkscape (http://www.inkscape.org/) -->

<svg
   width="95.316597mm"
   height="100.00001mm"
   viewBox="0 0 95.316597 100.00001"
   version="1.1"
   id="svg1"
   xml:space="preserve"
   xmlns="http://www.w3.org/2000/svg"
   xmlns:svg="http://www.w3.org/2000/svg"><defs
     id="defs1" /><g
     id="layer1"
     transform="translate(-368.71946,-123.71894)"><g
       id="g12"
       transform="matrix(0.48521275,0,0,0.48521275,373.01631,113.50133)"><path
         style="fill:#daa85b"
         d="m 172.49258,143.22709 c -0.60192,-3.14464 -10.01254,-3.40357 -4.54064,-7.19356 3.52476,1.60402 13.98401,3.27738 12.67012,2.79293 -2.70069,1.5399 -4.42186,5.31038 -8.12948,4.40063 z m -61.94282,-5.43062 C 106.36388,126.01878 88.754469,123.68105 88.499484,109.70449 84.737015,98.109153 86.268279,85.340059 90.819636,74.198286 c -0.234208,-5.319188 -0.47291,-14.558526 5.828829,-6.868291 9.603275,4.994755 20.307265,10.415609 24.286395,21.265465 3.54331,9.504771 3.58812,20.04561 3.43272,29.98064 -2.58426,5.30063 -5.65577,14.01372 -12.04281,14.56756 4.84878,-5.97656 0.94877,-1.15775 -1.31449,-2.35406 -3.99544,-6.84553 13.34199,-12.09372 6.5152,-11.52712 2.05041,-4.86474 7.71656,-15.27068 2.45959,-4.93102 -2.47451,4.91106 -10.72749,15.29008 -11.72623,3.99268 -2.76073,-4.61021 5.75811,-10.60172 -0.50161,-6.71615 -2.93382,-6.39541 -3.50944,-14.359052 -8.354374,-19.702965 3.147544,6.14082 6.045204,18.366145 6.762724,24.979455 -4.63319,-0.0205 -17.586787,-12.26765 -7.212272,-3.2869 4.823682,0.80302 14.629442,12.55333 4.326132,7.65841 -3.723111,-2.42993 -14.517194,-9.79758 -4.193914,-2.78858 8.780304,2.0807 14.615774,16.82453 11.254474,20.83751 z M 149.6774,123.1492 c -9.70096,0.14192 4.01495,-6.9979 2.24644,-10.02665 2.17284,-5.76102 8.16541,-12.01283 13.02073,-12.69649 -5.68073,-6.207969 -8.55196,7.86018 -10.40818,4.20368 -1.22847,5.73781 -10.30047,22.54982 -14.73909,11.70933 -4.72669,-13.64818 4.61942,-26.741418 13.01888,-36.562352 7.91212,-10.593568 24.00065,-6.11261 31.24724,-15.650237 0.71186,13.26035 7.05086,27.305503 0.77839,40.229629 -4.7524,12.11781 -17.75448,21.01239 -30.92645,18.59395 -1.4145,-0.012 -2.83283,0.0234 -4.23796,0.19914 z m 10.40423,-82.557445 c 2.03179,-3.137379 5.90281,-13.157046 1.38975,-4.520662 -7.82255,6.816691 -1.43046,-10.32963 2.80873,-11.735186 11.68068,-12.05626 9.51558,12.843664 0.93864,15.294973 -1.59167,0.761152 -3.38353,1.046371 -5.13712,0.960875 z"
         id="path15" /><path
         style="fill:#a5612c"
         d="m 130.14852,221.04157 c -1.28892,-5.26725 -7.12036,-7.6424 -11.39525,-3.80544 -2.65638,3.24297 2.85106,-7.62943 -3.6559,-3.79282 -2.32175,-3.82163 7.31834,1.48614 8.97737,-0.67292 5.19372,5.14067 -3.07746,-8.44284 -6.93531,-1.99147 0.73872,-6.4409 -15.30688,-5.1984 -11.61145,-10.49342 -3.167,1.57921 -13.389901,-3.165 -7.123065,2.92832 0.370467,5.42789 -4.735259,-3.02293 -2.496804,4.3917 -0.718646,8.88654 -8.563219,0.22703 -9.970458,-0.38614 -1.473665,-4.49083 -1.035662,-11.21878 -8.635339,-8.76302 -10.887193,-1.13813 9.25864,-5.82026 7.089746,-1.53104 3.273116,-3.9136 21.00154,-1.71515 8.334401,-3.63694 -1.684773,-3.65892 4.268486,-2.94373 -2.04721,-3.19068 -3.849951,-2.85123 -0.540396,4.28155 -6.438166,2.12123 -12.787012,-0.8108 0.02381,-10.10766 6.64632,-7.95204 8.516261,-4.17379 -15.52839,1.985 -6.424393,-3.79404 3.374043,-1.06374 21.456528,1.64646 9.932431,-0.20717 -6.281286,2.19158 -11.610444,-6.02783 -3.084427,-6.08887 3.802438,-3.54964 17.437474,0.32476 8.444869,-4.43893 -2.72491,-2.8142 -10.638243,5.11831 -6.696834,-1.03354 -5.777291,8.13843 -2.865973,-10.72413 -6.259905,0.36277 -2.939717,7.60558 -2.640051,-7.31157 -4.765552,-2.02203 4.574458,0.5932 -3.768503,6.67695 -2.96479,-0.15312 0.827861,-10.46446 -3.557028,12.69739 -4.552437,2.10151 2.460327,-4.64597 -3.277952,11.81191 -5.017077,3.39791 -0.09869,-12.45933 12.288485,-21.04027 23.15139,-24.06641 8.50878,-0.1427 20.72039,-3.03539 26.35497,-3.3612 -4.72622,8.36823 3.3268,19.91265 -4.21523,27.98736 -0.91719,6.03237 -6.77309,16.02141 -6.11405,18.61368 6.90748,0.84841 18.85458,8.28183 22.44971,7.09226 -3.37363,-4.48406 -13.02383,-8.64445 -6.67909,-14.70393 0.43239,6.30085 0.18503,4.65156 1.81,-0.55077 3.40011,1.39539 3.02698,7.00355 4.09736,0.76676 3.61968,0.84177 15.39903,5.59081 13.59942,4.58585 -2.8833,-6.77383 -21.33558,-1.82514 -14.55797,-10.82063 9.30894,-0.33047 9.62784,-7.62934 1.66663,-10.43464 1.06513,-7.55247 13.4886,2.74582 6.99836,-4.32595 3.69595,-4.51319 13.27993,3.70709 5.76914,-1.84289 3.53099,-3.90049 11.20557,1.06381 5.4125,-3.86879 5.42352,-1.04084 8.35446,-4.75838 11.28462,-6.8159 -6.21938,3.74524 -17.65405,8.49963 -18.67981,7.38175 -3.62231,5.55324 -7.1909,2.80802 -3.81726,-2.29627 3.63169,-5.63341 -6.62946,16.3873 -7.64948,4.86385 3.23931,-13.45705 17.14719,-19.74576 28.94808,-24.09368 6.4231,-3.65267 -0.85986,7.95657 4.3482,3.06678 1.39139,-0.56103 10.14936,4.10212 14.99403,3.8188 -0.52352,12.01201 -5.48983,26.74483 -18.77053,29.5121 -5.28223,0.54331 -8.22584,3.01934 -2.09722,4.97807 3.44718,5.40197 12.60038,11.64809 13.93814,14.47343 -6.56573,-1.28261 -12.45986,6.78464 -19.20656,11.13331 -4.13904,7.03313 -13.50459,-7.04943 -10.81405,0.0588 -3.03412,-2.73389 -10.98588,-3.04699 -5.81797,1.82536 -6.2598,-1.22655 0.81656,3.00077 -0.12313,7.18315 1.24056,5.61814 14.86327,10.16025 3.33472,6.63037 -2.02899,0.47553 -9.83985,-1.66885 -8.96569,1.85958 z m 2.19867,-74.73395 c -3.98161,0.22395 -12.35782,-5.88495 -3.51483,-4.30185 6.49091,-6.40267 -10.88992,2.49249 -3.38006,-5.98446 4.90641,-8.55285 15.7695,-5.82538 23.88279,-5.49239 -0.014,3.18256 -4.98656,3.72642 -2.42357,6.53001 -7.23618,1.9451 2.38005,1.40991 -3.66981,4.81934 -3.11371,2.44822 -6.88319,4.25936 -10.89452,4.42935 z m -59.551111,-1.94767 c -0.817045,-5.58337 -5.582312,-14.25736 1.35714,-17.63401 -12.453568,-0.70129 2.591567,18.37879 -5.591805,15.82264 3.981421,-1.79913 -3.529284,-2.40688 -2.257985,-1.28223 -4.877137,2.83164 0.59956,-7.2245 -5.713411,-5.33309 -2.003701,-5.78339 -1.875768,-21.82316 5.864994,-20.17918 2.479053,2.99208 3.590434,-3.96272 -1.037961,-1.58848 -1.085823,-10.41883 8.769828,3.55911 8.215032,0.99385 6.983133,8.03688 5.984867,19.31514 0.61518,27.07656 0.761528,0.11514 -0.375277,3.87454 -1.451184,2.12394 z M 139.7654,64.027902 c -9.68269,-0.761837 -22.95452,-14.813003 -13.35346,-21.499733 8.87361,1.396284 14.89694,5.974116 11.69034,14.822937 2.67032,-2.22132 0.4223,-11.008694 2.4066,-2.440317 0.1498,2.934355 1.07962,6.537543 -0.74348,9.117113 z"
         id="path14" /><path
         style="fill:#3e2c1d"
         d="m 66.237472,227.15317 c -7.187553,-3.00262 -17.476307,-0.28826 -22.835812,-1.25914 -10.23428,-1.89834 -20.806864,2.6146 -31.030385,-1.10992 -4.7218626,-1.21088 -14.7125327,0.55846 -16.4639163,-2.96493 3.95760404,-1.28001 16.7601593,-2.09338 15.5467233,-3.35336 -11.32210807,-0.56675 -16.8982036,-10.60074 -20.3097254,-19.75527 8.07002976,-5.10932 22.8310304,-9.3661 31.5853524,-1.57076 4.97467,7.89598 8.108466,21.45987 16.540362,22.842 7.652091,0.18238 13.746287,-10.8988 22.865452,-13.82582 9.90969,-1.2442 22.020747,-2.57728 29.712667,5.42434 4.747011,2.7438 3.153084,-9.63381 6.411275,-7.44028 -5.137708,-8.32926 3.874605,-1.52366 7.685765,-3.76423 -5.7979,4.19215 12.14184,6.93547 13.12842,9.33763 4.01537,-3.74456 9.16963,8.55251 3.49481,2.66295 -0.49781,2.8472 -12.78143,-2.27006 -5.98332,0.56287 5.26911,0.0172 -1.82509,8.38976 3.34772,3.32729 9.4075,-4.28967 11.33702,7.16437 0.60168,6.52337 -3.78895,1.50744 -9.02232,0.4825 -3.87105,-2.20183 -4.13447,-4.40801 -3.93995,-4.85196 -4.84612,1.35221 -6.1842,1.3718 -15.213714,-3.33972 -19.905091,3.02814 -3.123396,0.13927 -10.67889,-5.63405 -10.531688,0.97398 5.638447,0.71026 -8.339143,-0.64293 -10.867569,0.44428 l -2.157006,0.33452 z M 47.408346,215.83849 C 47.305639,204.20338 30.708283,206.25155 26.976495,196.19691 16.838206,182.69554 15.696257,163.79339 22.654079,148.61933 c 0.112774,-4.23927 0.424495,-15.29047 5.708525,-6.70891 8.339038,4.4426 18.207502,6.87679 23.916894,15.11006 7.250825,8.8587 9.070362,21.64027 6.236329,32.38562 -3.872044,8.08102 -15.664505,15.82807 -9.33024,25.54905 0.263821,1.07113 -1.079093,1.32535 -1.777241,0.88334 z m 8.853313,-10.6609 c 5.922447,-6.09259 18.791578,-10.55066 10.645111,-21.19357 -2.461825,-4.3827 1.200522,-19.90565 4.025653,-8.77382 5.526205,-1.32805 2.586052,-12.42352 4.515524,-3.18085 3.169947,-3.47599 2.983087,-12.58403 4.009814,-3.69664 4.569758,4.3642 1.874269,-4.21883 3.257442,-2.05756 2.598965,0.15963 1.650072,9.59354 4.294833,2.36739 1.478077,-4.57139 3.549113,-3.61612 1.193022,-0.0549 2.474757,5.54215 5.964889,-2.28637 3.465936,2.60742 5.080266,-2.26875 11.379626,-1.16273 11.705206,1.37353 -5.354393,-0.0704 -17.086242,-0.25413 -16.862974,6.22208 3.74975,1.43544 18.069644,2.68679 7.067314,1.79817 -5.112515,-5.1072 -18.414631,6.2421 -5.617107,1.63734 7.91162,-1.33896 5.019165,4.50004 -0.993943,1.79874 -7.224181,-1.08055 -12.564494,9.91344 -2.180394,7.81621 6.59905,2.63434 1.789384,-5.7918 6.419569,-1.56148 6.485297,-1.61393 -2.886209,4.66161 3.813443,3.28571 9.486362,1.9229 -9.188412,-0.61547 -9.551142,3.30813 -2.852484,2.40452 -0.407928,-6.06396 -4.543756,-1.02392 -5.064079,-3.24655 -10.953651,5.5656 -2.145612,2.46231 3.899927,2.87899 -10.178679,2.8906 -12.652431,0.74579 -3.812376,1.2231 -5.159313,7.01426 -9.865508,6.11994 z m 65.246251,-33.16976 c 2.22775,-8.80654 19.10601,-8.46918 17.3757,-18.01979 -5.2451,7.87171 0.84568,9.00411 3.73772,3.38863 2.26025,5.15887 15.68719,-8.51519 17.65035,-6.1573 -2.40822,4.44474 -16.69729,5.65927 -7.66326,9.0478 -6.32048,-3.61004 -10.25234,2.09134 -6.65743,2.92905 -6.42405,-6.76326 -9.27188,5.71851 -6.0486,3.16433 -6.27334,-4.25843 -14.1355,0.86416 -18.39448,5.64728 z"
         id="path13" /></g></g></svg>
