<?xml version="1.0" encoding="UTF-8" standalone="no"?>
<!-- Created with Inkscape (http://www.inkscape.org/) -->

<svg
   width="66.255959mm"
   height="100mm"
   viewBox="0 0 66.255959 100"
   version="1.1"
   id="svg1"
   xml:space="preserve"
   xmlns="http://www.w3.org/2000/svg"
   xmlns:svg="http://www.w3.org/2000/svg"><defs
     id="defs1" /><g
     id="layer1"
     transform="translate(-167.54182,-405.67986)"><g
       id="g23"
       transform="matrix(0.57215444,0,0,0.57215444,103.46985,77.811061)"><path
         style="fill:#e65c1d"
         d="m 145.38854,730.84573 c -16.88859,-8.28681 -28.27726,-26.50817 -27.6212,-45.40838 -0.1433,-4.26175 1.44819,-13.77739 2.47888,-14.42451 0.002,5.60885 5.47336,-10.06952 5.70495,-1.14744 -6.61505,-3.22422 0.98071,15.26185 2.44693,4.34677 -1.01432,-8.84188 3.89167,-17.56978 11.91333,-21.37601 3.44039,-1.10245 9.33038,-8.09994 9.99528,-6.30347 0.006,7.15333 -8.00272,13.27155 -9.99732,17.89937 4.29702,-6.12999 11.80912,-7.17668 17.13691,-11.49716 4.83524,-3.45034 0.0611,-6.94152 -3.0421,-9.83778 -7.61791,-2.38678 0.88292,-14.02722 7.02011,-15.10959 3.89939,-1.8046 1.38928,-15.90052 4.25154,-5.51772 0.40318,5.53437 3.18214,-3.87389 6.51065,1.11609 6.52916,-0.52187 -1.99411,-9.2472 -1.23121,-13.30475 -4.54599,-5.64012 5.88954,2.7808 6.7387,5.28416 6.13813,7.45788 6.29335,20.30668 -1.88312,26.30637 -5.65271,6.95017 7.32298,15.41786 8.48961,5.14726 1.40377,-4.18194 6.84188,-11.99241 10.27643,-11.21904 -0.41759,2.91239 -0.29654,10.90132 3.39423,4.74076 1.58798,-5.27736 1.49709,-19.0462 6.79339,-18.40692 0.33525,5.73976 4.6944,-11.35242 5.87445,-1.77178 3.08857,6.53211 -4.29193,8.79297 -5.09616,13.6078 1.95492,2.22763 9.17033,-2.80445 4.81195,2.32432 -3.51968,7.32219 -1.73815,16.69062 -8.17807,22.60035 -0.96304,5.48215 -14.72157,7.74386 -9.15437,12.7126 9.12831,3.44437 9.69475,-6.74564 12.7636,-12.29285 1.2619,-5.59736 13.58874,-4.30028 6.40183,0.65954 -4.68107,6.17239 2.16908,15.98201 -5.08184,20.8761 -5.65402,-3.15744 -4.50619,8.33091 -4.70194,12.42285 4.13729,-4.57741 9.23422,-8.52109 11.83163,-13.76633 2.80015,-1.94771 11.60486,-10.66147 5.8383,-2.98256 -4.49674,9.36287 -2.23215,20.43993 -7.0126,29.77398 -3.79495,9.0242 -10.2617,17.00495 -18.63238,22.15293 -4.80485,-7.06761 -11.39989,7.15777 -17.92422,0.91764 -8.54358,3.61454 -9.379,-11.62408 -17.27722,-8.22787 -4.85167,2.85139 -7.50107,9.79446 -13.83895,9.70527 z m -25.26561,-67.00798 c -1.15324,-5.51817 3.46459,-16.92143 3.18974,-18.25161 5.9426,5.63359 0.53297,15.53703 -2.51791,19.98557 l -0.30517,-0.65478 -0.36664,-1.07918 z m 23.769,-18.45468 c -4.34059,-7.03374 -0.13529,-13.38648 0.22096,-20.80144 0.66693,-3.48932 4.46649,-9.77188 2.30635,-2.67269 1.84396,6.58714 3.53289,13.14066 -0.81896,19.02988 -0.38661,0.93686 -0.007,8.23296 -1.70835,4.44425 z m 43.52617,-12.83229 c -0.94035,-5.08506 5.78848,-13.39198 8.44275,-13.07283 3.74071,5.76671 -5.20238,15.62513 -8.50114,14.86871 l 0.0536,-1.2156 z m 2.17401,-13.80624 c 0.64985,-5.76958 -5.6431,-13.19755 0.31444,-17.53976 5.02588,-2.94444 -2.29185,-14.94378 3.79776,-7.53366 5.53071,5.4876 3.60444,12.86382 0.3256,18.75637 -0.82104,2.40732 -1.56555,5.60003 -4.4378,6.31705 z m -35.04236,-1.29796 c -5.182,-4.84211 2.88427,-16.29925 6.71698,-15.33091 -0.5459,4.43937 -3.25808,14.50681 -6.71698,15.33091 z m 25.49602,-12.20519 c -5.91825,-3.68787 -7.83176,-10.90402 -5.35146,-16.38928 0.25561,-3.13599 2.44749,-7.3024 3.00701,-1.47871 5.23543,-3.32723 -1.3725,-12.7276 5.25721,-14.33089 0.59047,6.69669 5.8032,14.46833 0.92649,21.87016 -3.36668,1.40592 0.11255,13.09382 -3.83925,10.32872 z m -14.84694,102.39099 c -0.85639,-5.88683 3.69445,-10.05815 6.20433,-14.74624 1.96926,-2.989 -4.85643,-11.27803 1.37002,-5.97001 6.06317,3.56127 2.89078,14.2035 3.32345,16.73657 4.94539,-3.75867 10.44333,-10.69356 6.33051,-16.92326 -3.77692,-5.50865 -11.50063,-7.69798 -13.29484,-14.69932 -1.68871,-4.98261 -0.47311,-10.33775 0.82456,-15.20981 -5.81656,7.18509 -8.99099,17.31819 -5.09911,26.15969 2.5131,5.92368 -5.98632,7.16514 -5.73424,0.86435 0.91993,-8.47685 -5.72074,4.47579 -1.27357,6.7652 4.21526,0.96577 2.1089,5.19568 2.96056,8.35124 -0.34615,1.31201 5.24602,15.13121 4.38833,8.67159 z"
         id="path25" /><path
         style="fill:#40322a"
         d="m 170.75755,747.69978 c -7.15488,-0.77365 8.28698,-10.34358 -1.30658,-4.92457 -3.10241,4.94956 -9.4234,2.94665 -7.60914,-0.60952 -3.35715,2.01715 -9.62921,5.15139 -12.18823,3.70622 3.22799,-0.69324 -7.32781,-2.00348 -1.13005,-4.57575 2.36849,-1.37755 7.20573,-3.61628 1.30626,-1.59727 -3.39417,1.53173 -11.47013,5.668 -12.35679,2.92487 3.41062,-2.28653 3.74226,-5.38875 0.16778,-1.68826 -0.40459,6.68919 -14.38065,1.60221 -8.1682,-2.30532 -4.72938,3.7536 -12.95039,1.19472 -17.48889,2.46307 6.13461,-0.55871 10.43556,-10.89792 16.02427,-8.35143 1.19022,2.71502 5.28727,-1.31031 0.90371,2.87408 -3.26428,2.0508 -5.6812,4.17342 -0.45496,1.32769 5.57757,-4.37266 11.78661,-9.56891 18.65662,-5.45232 2.4849,0.10956 -0.67759,7.06534 3.37963,3.2817 1.80276,-2.28082 4.17829,-5.17461 0.16452,-2.23092 -4.22088,4.69343 -0.15033,-5.75764 3.70889,-4.75561 1.41759,-3.49521 8.49301,-10.83947 10.2487,-4.25674 2.18364,2.99484 6.07746,6.90389 7.79538,8.20875 -2.199,8.06335 18.83699,2.32439 6.13108,3.54522 -6.04598,2.5522 -7.36261,-7.51157 -1.13768,-4.45563 2.01345,0.80693 6.53382,1.0273 6.45665,1.4358 -0.32487,-5.35153 13.43533,-6.87767 8.5898,-2.18477 -4.80127,-0.30521 -4.64187,3.3376 0.0248,1.08348 5.35024,-1.43585 11.7177,2.1847 13.70077,4.98127 3.38267,-5.38967 5.73481,6.86542 11.28469,3.13264 4.27948,0.17911 7.71284,6.013 10.32395,6.76562 -5.90888,0.91908 -11.93578,-0.0984 -17.91366,0.40196 5.84194,-5.75977 -3.14413,1.17007 -6.62811,-1.59664 -2.89091,-0.97398 -9.43337,-0.16442 -2.79108,0.6949 -6.60887,2.76259 -13.74824,-1.75746 -20.18812,1.74277 -3.11787,0.70367 -6.33877,0.56259 -9.50603,0.41471 z"
         id="path24" /></g></g></svg>
