<?xml version="1.0" encoding="UTF-8" standalone="no"?>
<!-- Created with Inkscape (http://www.inkscape.org/) -->

<svg
   width="100.88123mm"
   height="99.999962mm"
   viewBox="0 0 100.88123 99.999961"
   version="1.1"
   id="svg1"
   xml:space="preserve"
   xmlns="http://www.w3.org/2000/svg"
   xmlns:svg="http://www.w3.org/2000/svg"><defs
     id="defs1" /><g
     id="layer1"
     transform="translate(-21.620123,-510.01832)"><path
       style="fill:#4f9820;fill-opacity:1;stroke-width:0.593369"
       d="m 50.921976,609.76778 c -1.58706,-3.88424 1.905325,-9.72634 -2.755557,-11.85033 -3.92844,-1.17961 2.267107,3.95983 0.142177,6.12125 1.448816,2.07427 -1.51369,8.45739 -1.513251,3.23327 1.11605,-2.637 -2.162746,-7.52383 -1.925191,-2.26065 0.741064,2.93113 -2.234758,6.70354 -1.562696,1.5178 -0.721234,-3.99961 -3.059481,0.64798 -2.808676,2.47583 -2.406651,1.18513 -0.452557,-4.28017 -3.005929,-0.93414 -5.77342,2.80963 -0.140878,-3.50214 2.407415,-3.86049 3.16093,-0.17802 7.553242,-7.96698 2.221573,-4.16758 -3.860445,3.22734 -3.22166,-0.94838 -0.08602,-2.03086 4.842567,-2.47345 2.283723,-8.47951 3.02932,-12.80712 1.141043,-3.9619 -3.154746,-2.95408 -1.87104,0.47191 -0.08669,1.66453 0.803457,9.31283 -1.640154,6.4241 -0.927655,-2.67266 1.839568,-11.06337 -2.25323,-9.02305 -0.464886,4.86297 0.509609,9.86246 -0.369022,14.73158 -2.849202,0.88863 -0.359367,-7.46308 -2.656072,-2.6332 -0.248171,1.92776 0.776737,9.34274 -1.631581,7.55826 -0.369135,-2.25777 0.606156,-8.15515 -2.235363,-3.70327 -0.377602,1.68075 -0.228844,9.69605 -2.096277,4.80176 0.762159,-3.02076 -2.348411,-0.92581 -2.163429,-3.16572 -2.075752,0.21391 -8.096986,2.35605 -3.852079,-1.22238 4.109655,-0.33151 7.931805,-1.18856 10.034075,-5.17501 2.150713,-1.18515 4.542042,-7.43575 0.387422,-3.86978 -2.971057,1.11363 -4.388152,7.29965 -6.812396,6.57086 0.992012,-2.23086 2.415171,-5.8193 -1.743241,-4.09519 -2.932767,0.68215 -6.551207,-2.1308 -1.410776,-1.73498 4.403948,1.05061 12.443722,-2.25953 12.232346,-5.92581 -4.696478,0.91308 -9.763261,0.48574 -14.587955,0.22561 -0.695511,-2.65173 6.001748,-1.13845 8.570833,-1.48952 1.737616,0.80554 8.496757,-0.9679 3.888157,-1.44448 -4.396585,-0.10434 -8.874057,0.45229 -13.235235,-0.36239 4.284218,-3.34318 10.239992,-0.0353 15.13656,-1.57449 1.883531,-2.86672 -5.734043,-0.71352 -7.688208,-1.29957 -2.266539,0.26368 -10.70044,-0.0912 -4.933673,-1.83246 5.72706,0.10961 11.456553,0.22149 17.187724,-0.15606 1.387427,-2.99045 -7.559727,-0.47853 -10.063108,-1.48101 -2.482626,0.27051 -9.442872,0.92173 -8.974129,-1.21411 5.475395,-0.82475 11.051472,-0.16764 16.577717,-0.36916 1.749418,0 3.498841,0 5.248264,0 -0.08049,-4.29632 1.616076,-10.63454 -0.415708,-13.67316 -1.431128,3.16258 -5.197644,0.0103 -4.36704,1.43236 -2.015472,1.65406 -2.382578,-3.34728 -1.623962,-3.43664 -1.947169,-0.0729 -2.86625,4.98765 -4.778826,1.90322 -0.967921,1.92949 -4.385797,-1.11872 -4.637759,-0.57991 3.091114,-3.39057 -5.566755,-0.89926 -1.491664,-4.26032 3.558979,-1.93921 0.587643,-1.72498 -1.4604,-0.42185 -4.415583,-0.9834 -1.136046,-7.01328 2.385557,-5.14096 -2.684698,0.97127 -9.008544,-3.09879 -3.638775,-3.23949 -4.367023,-0.95223 -1.137494,-3.3919 -1.083302,-5.23582 -2.493757,-0.69993 1.896247,-2.43971 1.964769,-4.49114 3.680904,-0.17707 -2.688881,-2.19515 0.719549,-4.92382 0.647371,-3.57441 4.981302,-0.63944 3.43913,-4.28079 1.28602,-1.75841 3.729946,-1.86462 4.226192,-3.73064 2.926846,-1.87185 5.762181,-2.82834 8.427737,-2.35959 1.773876,2.51767 0.313862,1.9933 1.49574,-0.42483 2.28374,-0.5829 3.505599,0.31045 5.519066,-0.54929 2.97543,2.42591 -3.449259,4.29732 -1.750521,7.8055 -4.863388,3.24292 -1.794882,9.84703 -1.930069,13.79503 2.172709,1.44272 1.411126,5.17534 3.675072,4.37344 1.793481,1.92384 -4.005768,5.34958 0.955317,3.05458 1.554556,0.23312 4.77049,0.76319 4.343472,2.69502 0.766858,-0.0815 5.886753,0.72776 7.361559,-0.1544 1.466701,1.96492 6.855505,-1.59474 7.55012,2.23968 -0.996331,1.62643 -4.236499,-0.12195 -1.888604,2.75646 -0.973166,1.80265 -5.074935,-0.86856 -2.414791,2.01827 1.091057,3.5484 -4.212017,-1.6099 -3.245229,2.18453 -2.32444,-1.63756 -4.149523,1.13097 -5.11624,-2.48451 -2.839875,-3.04985 1.67908,5.89945 -2.888063,2.32632 -0.292726,0.2423 -2.267416,2.31837 -3.542696,-0.33221 -3.153346,-0.76848 -0.496288,7.43443 -1.252673,9.91047 -1.07843,5.55645 5.96344,2.46201 9.296992,3.19554 3.003176,0.26205 8.489007,-0.58165 9.902483,0.85382 -4.237603,2.37609 -9.555606,0.0399 -14.227881,0.86079 -2.250464,-0.39796 -4.571652,0.88481 -0.977071,1.55133 2.566528,-1.07843 8.713254,1.69438 2.639441,1.78215 -4.227806,0.74044 -13.071102,-1.60086 -14.643227,1.46939 5.322821,0.15979 10.68789,0.0311 16.04283,0.10536 5.224447,1.1273 9.310289,-1.28929 12.557684,-5.22541 1.749946,-4.18397 0.667985,-9.02461 1.068575,-13.4794 -0.503972,-4.02403 1.103772,-9.70886 -0.760343,-12.66313 -3.051833,2.52727 -8.360294,2.75635 -7.157553,-1.80665 0.112585,1.96963 -3.216872,5.16401 -3.883362,2.02237 -2.074691,3.75712 -4.136291,-1.1399 -3.624149,-1.11592 -2.756495,3.22871 -3.193849,-1.96609 -3.440702,-2.34985 -3.642739,0.66543 0.877124,-4.26056 -2.684959,-2.27637 -2.730624,-1.23247 0.359089,-3.63732 -2.680098,-4.64335 -0.102006,-2.27877 2.689634,-2.17699 -0.345044,-3.4496 -0.626687,-2.38144 2.799015,-2.92021 0.847158,-4.94589 3.671862,-1.23835 1.070236,-4.32751 3.504959,-6.8266 2.210073,-0.21057 0.976679,-5.99682 4.942086,-3.92092 -2.568913,-3.36378 3.544322,-5.49023 5.670345,-7.25749 2.262901,-1.81886 4.262133,-0.76695 7.115798,-1.31127 0.721726,5.46877 1.13178,-4.67489 4.210551,-0.51093 2.139196,-1.79575 4.064683,0.68109 4.279833,0.71189 1.61315,-2.02589 4.396127,2.73036 5.319688,-0.61636 2.997077,3.06512 9.479073,4.32421 7.729098,9.2998 4.007779,-2.77908 2.404354,5.16655 4.934159,3.84313 1.027572,2.1251 1.49917,2.69229 1.370771,5.434 2.582115,0.71689 1.575507,1.7534 1.287201,3.59454 5.193458,0.4376 -3.574347,4.58372 1.389574,4.7832 -0.121243,2.09842 -3.265646,2.58685 -1.316643,4.55792 -0.96556,2.30981 -5.777686,-1.35278 -2.497371,2.06048 0.165603,2.30874 -5.138913,0.40522 -1.923785,3.14657 0.644054,4.31915 -5.281238,-2.52934 -3.69152,2.06198 -1.99503,2.78117 -3.411247,-1.92317 -4.411679,1.28704 -1.461841,-0.58776 -3.94582,-7.55271 -2.867443,-2.49159 1.582099,4.11623 -2.217046,2.57729 -2.624239,0.87239 1.57092,5.76313 -6.990817,-2.68071 -4.974383,3.76955 0.08994,7.14005 -0.569967,14.34328 0.647911,21.42441 2.759569,4.20785 7.714875,6.7505 12.749503,5.96793 5.822746,0.0729 11.651811,0.24631 17.470563,-0.0725 -5.133387,-3.2621 -11.546867,-0.4027 -17.122262,-1.48974 -4.518397,-2.72274 7.271148,-0.52541 5.626733,-3.32761 -5.422299,-0.272 -12.650517,1.03147 -16.956725,-0.79429 3.188651,-2.23454 7.546269,-0.0674 11.238074,-0.85602 2.587823,0 5.175653,0 7.763477,0 -0.317945,-4.25504 1.689849,-10.81167 -0.565735,-13.61996 -1.51264,1.10968 -4.705985,2.82816 -4.691697,-0.43113 -0.810803,4.8717 -2.441707,-0.65779 -1.676813,-1.72919 -1.56908,2.20965 -3.594669,3.89644 -4.724752,2.26408 -0.93998,1.56175 -3.957539,-1.12137 -4.376968,-0.77793 3.15213,-3.89032 -4.963085,-0.31662 -1.762388,-3.85988 2.212886,-1.66295 -4.065022,0.58157 -2.042477,-2.50599 2.455034,-0.77448 5.685216,0.29483 8.546992,-0.8457 2.939128,-0.30017 2.781588,2.59271 4.446119,-0.47623 1.89465,-3.72995 10.783701,0.28461 6.575309,-5.0576 3.063433,0.11525 2.912249,-6.99068 5.601053,-9.83958 -0.45212,-1.27909 -2.356992,0.0424 -0.48252,-1.98689 1.95821,-3.67487 -5.23218,-6.2669 -2.460027,-9.98305 -3.829299,-0.15772 -3.786707,-6.69964 0.360775,-3.97694 1.990792,-1.12158 3.247092,-0.38496 3.282952,0.69919 1.818,-1.38194 4.50895,1.70042 5.69224,-0.34265 2.59999,2.51192 9.01744,4.3022 7.10738,8.67545 2.44301,-1.99832 8.10668,5.28681 2.90671,5.94998 -3.40454,3.49213 2.56882,-2.13151 2.85957,2.31147 0.77631,1.5212 2.74388,2.03538 1.18892,4.41586 4.21459,1.55412 -3.78886,3.93792 0.9357,4.38902 -0.72983,1.58407 -4.22508,2.95163 -0.91849,4.00983 -2.34522,1.37477 -0.1121,4.97042 -4.05693,3.93251 2.98397,2.50312 -1.03385,2.54869 -2.07971,2.86958 2.84265,3.83385 -1.2519,1.20007 -2.55359,1.69441 0.73303,3.1141 -3.06557,-0.60818 -3.85526,1.13756 -0.63935,-1.8737 -3.27848,-4.83727 -1.72451,-0.97778 0.20578,3.20043 -2.61952,1.72112 -2.83216,1.49077 -1.62493,1.61792 -5.932203,-3.57939 -4.466706,1.53529 0.688686,3.55168 -2.473061,11.92145 3.533296,11.05193 6.35453,0.006 12.71591,-0.18358 19.06399,0.1943 -1.76965,3.55446 -8.83389,0.42633 -12.59063,1.51681 -2.4381,0.27592 -7.65351,-0.55169 -8.35282,0.41513 4.48873,2.16165 9.85419,0.69586 14.73027,1.14691 2.65961,-0.35449 9.54373,0.53924 3.59948,1.85352 -4.34204,-0.22503 -8.67841,-0.10369 -13.02931,-0.11975 4.26587,3.8266 10.57642,0.0946 15.46591,1.84772 -0.0898,3.04759 -7.13041,0.71103 -9.90176,1.44984 -2.38655,-0.19979 -6.8918,-0.0827 -2.36698,1.34811 3.82636,1.25342 10.94328,-2.14306 12.57782,1.58963 -4.87558,0.34107 -9.96509,0.40807 -14.88531,-0.11251 1.10682,4.74422 7.56033,6.45123 12.0285,5.62556 3.40092,-0.83826 3.73939,2.27535 0.24805,1.89115 -2.68196,-0.65729 -6.58383,-0.39226 -3.75507,3.2923 0.25731,3.96303 -2.95937,-3.05508 -4.0971,-3.95116 -1.17795,-1.97467 -6.99541,-4.47772 -3.57991,-0.63834 2.12456,4.94807 6.65377,7.49318 11.5867,7.73212 2.90524,1.70887 1.46129,3.97052 -1.21088,1.50086 -2.50252,-1.13211 -2.38422,2.51945 -4.23574,1.19662 0.24614,2.48098 -1.65791,5.54068 -1.59731,1.36843 0.52641,-2.74024 -3.38791,-9.27382 -2.56853,-2.85518 0.26681,3.36555 -2.20623,3.52742 -1.86822,0.0609 0.95349,-1.92045 -1.09401,-10.58557 -1.49194,-5.00575 -1.52485,5.82213 -2.39503,-4.57662 -1.70985,-6.64308 0.4938,-2.22269 -0.42204,-9.64315 -2.50498,-4.86628 -0.32281,2.46468 1.4313,9.35503 -1.48617,8.47724 -1.01469,-3.00263 1.62238,-9.506 -1.64757,-9.97722 -0.0426,4.96047 -2.381408,12.76872 3.05739,15.54595 2.51096,0.51108 4.58077,5.97769 0.88478,2.90906 -1.29157,-2.39646 -6.456689,-3.55215 -3.1746,0.23931 2.30936,2.57314 10.0829,5.0065 8.73477,7.86629 -2.47889,-1.87652 -3.87991,-1.83608 -4.61806,0.3552 -0.22738,-1.32698 -2.40144,-7.46575 -3.12461,-3.49054 1.3152,2.0554 -1.431756,6.00724 -1.752674,1.92807 1.364004,-2.20962 -1.563295,-8.79208 -1.863528,-3.42433 0.597867,1.81055 -0.587613,7.56902 -1.652087,2.9643 -0.544357,-3.4035 0.385725,-7.18106 1.064254,-9.63436 -5.419801,0.61864 -2.354831,7.0786 -3.40227,10.64967 -1.41938,2.90568 -2.485011,-4.77749 -1.607875,-6.50935 -1.105844,-4.99176 6.373624,-5.20706 5.482686,-9.7346 -3.267854,3.10208 -5.68331,-4.01876 -6.164437,-2.88321 -4.190199,2.99706 -2.776385,-1.66663 0.105513,-2.74964 1.30099,-1.80374 1.257586,-5.42413 -0.460781,-1.72569 -1.600535,2.37851 -5.780706,1.04687 -1.931036,-0.63573 2.43823,-2.87138 -3.881113,-1.38872 -5.752402,-1.70451 -2.994204,-1.25878 -1.828763,5.26667 -4.304232,0.78607 -1.025057,-1.61227 -3.750673,-0.42021 -5.531563,-0.78607 -2.168792,4.2741 4.209472,6.38157 7.968523,5.14218 2.34456,-0.44724 9.184358,0.57655 3.742822,1.88466 -2.731069,-0.73351 -11.44205,0.10922 -4.505254,1.72485 1.852106,-1.21494 10.317135,-0.50539 5.192577,1.29154 -1.632613,0.0801 -6.089406,0.45394 -1.794615,1.10143 2.890324,1.36967 7.378257,-3.18548 9.411922,0.1125 -1.858532,1.47556 -6.589284,0.0736 -2.969277,2.96453 1.080103,2.99729 -8.155683,-3.35097 -4.870656,0.79771 2.776117,0.92702 5.005647,3.61724 2.538853,5.72402 0.982209,2.13859 -0.836627,9.20095 -1.714219,4.01478 0.301093,-2.11145 0.670738,-9.47274 -2.309623,-7.01095 1.447173,2.00853 -1.114376,8.37962 -1.546806,3.35434 -0.555286,-2.1746 1.40273,-10.40194 -2.179859,-8.45044 -1.039018,5.17659 -2.058426,0.26371 -2.26871,-2.00189 -3.172156,-5.21162 -2.77985,5.23874 1.061899,5.24239 2.820739,1.26697 -0.894628,7.47749 -0.736745,2.56615 -4.445691,-2.93688 -4.052406,-8.53978 -4.796135,-12.91408 -1.193947,1.2416 -1.151729,7.15244 0.186176,9.70612 2.36356,3.83906 7.348825,7.52114 8.874958,10.81872 -2.108851,-1.18371 -2.598119,0.16564 -3.552268,0.80169 -0.536809,-1.69587 -2.432397,-7.50923 -2.576283,-2.75063 1.195579,3.5761 -2.806883,3.60946 -1.705122,-0.0756 1.20369,-2.4641 -1.899534,-10.03602 -1.873966,-4.05548 0.336808,2.30463 -0.163675,10.7084 -1.859926,4.86234 0.37737,-2.24091 0.406297,-10.86377 -1.651203,-5.27868 0.291178,1.65448 0.526502,9.72895 -1.681922,6.42493 0.362032,-2.13358 -0.711859,-6.0326 -1.810535,-1.77242 -0.248657,3.61386 -1.723024,2.38519 -2.505689,1.30501 -5.492744,1.29393 0.67345,-2.85453 2.101813,-4.32128 2.547291,-3.79304 6.607945,-6.68173 5.659166,-11.70671 1.109588,-3.19356 -1.971901,-4.93033 -1.516953,-0.86032 1.379796,4.65466 -2.183574,7.01726 -4.157338,10.39712 -1.765082,3.81881 -2.144198,-3.28621 0.315886,-4.20104 4.238012,-0.57088 1.339613,-8.91237 -0.290448,-3.16386 1.398083,2.57423 -2.500409,4.90216 -1.725867,1.07998 -3.968338,-0.83443 -2.024254,7.10935 -2.503874,9.97753 -3.262027,2.37245 0.132226,-8.71503 -3.545266,-4.91896 -0.765677,2.25209 1.455,9.87684 -1.685636,8.59625 -0.613852,-2.90681 1.008739,-7.19767 -1.86233,-8.01295 0.901553,-1.75332 8.176996,-6.02 2.538295,-3.92498 -4.393765,1.92789 -1.957185,-1.10372 -1.806956,-2.45453 -2.324439,1.10063 -6.801206,-1.47938 -2.352429,-1.7602 3.002512,-0.50294 7.463299,3.33541 9.127443,-0.16931 -2.617682,1.215 -8.277501,-1.80417 -2.57776,-1.99074 2.056545,0.29967 7.936818,1.3425 7.043751,-1.21128 -2.508627,-0.36408 -9.908928,1.25448 -9.008384,-1.47099 4.380071,-1.45009 10.636244,2.02617 13.506155,-2.36849 2.513742,-4.47177 -7.038713,-4.10017 -6.805596,-0.18181 -0.624023,-3.11632 -3.057897,-3.0859 -5.632056,-2.86309 -1.90431,0.0231 -6.262011,-0.61143 -2.71309,2.09553 3.368431,3.60483 -3.503457,0.42825 -3.688345,-1.51065 -2.749285,3.39643 6.361276,6.33281 2.49193,7.3703 -1.589837,-2.61386 -3.309194,-1.46539 -3.201967,1.04173 -2.213972,0.91083 -7.218812,1.43559 -3.276683,4.33381 5.484312,1.5408 4.092536,7.35279 4.155427,11.661 -0.232755,0.81033 0.178123,3.27525 -1.355272,2.23837 z m -0.976905,-19.06606 c 0.557939,-2.90451 1.494892,-11.21384 -3.185014,-7.25837 -0.01418,2.40261 -1.061792,8.27655 3.185014,7.25837 z m 46.659155,-0.43004 c 2.249461,-2.52887 1.503769,-10.60494 -2.661046,-7.03477 0.786647,1.80102 -1.584057,9.44265 2.661046,7.03477 z"
       id="path27" /></g></svg>
