<?xml version="1.0" encoding="UTF-8" standalone="no"?>
<!-- Created with Inkscape (http://www.inkscape.org/) -->

<svg
   width="96.611351mm"
   height="100.00001mm"
   viewBox="0 0 96.611351 100.00001"
   version="1.1"
   id="svg1"
   xml:space="preserve"
   xmlns="http://www.w3.org/2000/svg"
   xmlns:svg="http://www.w3.org/2000/svg"><defs
     id="defs1" /><g
     id="layer1"
     transform="translate(-238.82634,-5.7356467)"><g
       id="g1"
       transform="matrix(0.52101004,0,0,0.52101004,238.11504,-22.684773)"><circle
         style="fill:#ffffff;fill-opacity:1;stroke-width:0.1;stroke-linecap:round;stroke-opacity:0.567861"
         id="path8"
         cx="344.50641"
         cy="141.1588"
         r="89.828316"
         transform="translate(-251.28085,4.8860165)" /><path
         style="fill:#e9f4f5"
         d="M 36.380207,200.13974 C 19.347846,199.64873 4.4091578,185.00935 3.2977927,168.04686 -5.8614819,125.63759 18.353082,78.67526 58.644017,62.18721 c 14.528808,-6.468485 31.079024,-9.77397 46.797773,-6.126347 6.42408,6.219845 13.28661,12.374767 18.4522,19.62409 12.11542,22.074049 10.49425,49.843097 0.11911,72.235227 -12.22664,23.31402 -34.507735,40.64364 -59.137883,49.25948 -9.157907,2.9103 -18.926193,4.22092 -28.49501,2.96008 z m 12.955259,-20.26683 c 7.433139,-0.0115 11.873933,-9.88896 10.132097,-16.05847 2.022881,11.87818 4.979063,-8.45049 1.188378,-11.77014 -4.554926,-10.89714 -21.570988,-15.07396 -28.973643,-4.76456 -8.150423,9.86746 -4.84884,26.82527 7.365201,31.77371 3.144732,1.57133 6.949832,2.14412 10.287967,0.81946 z M 14.446621,164.82619 c 6.583379,-10.76122 2.293496,-24.54002 8.74959,-35.41231 3.58253,-9.99417 8.979551,-20.13464 17.259099,-26.72853 5.506036,8.72518 20.483092,9.9752 27.453725,0.10202 2.897521,-2.866901 5.325755,-7.062741 3.532424,-10.356683 4.37254,4.94944 3.368462,-11.882745 -1.749491,-11.534462 6.129996,-5.51668 16.722701,-5.707269 24.530547,-3.887624 7.397935,3.028128 8.974245,-13.257009 7.237505,-2.222565 4.44757,9.261271 19.52977,0.705637 8.49342,-5.608617 C 96.994335,56.389334 76.017725,58.745433 60.884135,66.096924 30.143195,80.925062 6.8572155,113.2646 6.9383301,147.95981 c 0.8880548,5.41177 -0.079849,16.86264 7.5082909,16.86638 z m 70.624326,-1.05525 c 8.118488,-7.29265 -7.459921,-13.44662 -4.297008,-1.8362 0.512016,1.79143 2.609848,2.9878 4.297008,1.8362 z m 7.789297,-30.70628 c 8.496406,1.34274 9.131106,-12.92084 3.697286,-6.93606 1.591145,-3.35974 12.07575,-2.78828 6.55333,-4.96584 -4.439035,-0.69929 1.8875,-11.55265 -5.409466,-13.56597 -10.697676,-8.460279 -25.651791,6.93759 -17.80623,17.76657 0.901201,6.03204 13.732158,3.39885 7.089399,6.91868 1.56687,1.28694 4.009914,1.40711 5.875681,0.78262 z m -58.559449,-0.50841 c 10.193562,-4.69424 -4.527165,-19.14798 -6.617989,-5.8861 -2.646183,8.24321 9.917542,2.09474 9.136322,1.7054 0.205658,1.52124 -6.380877,3.91602 -2.518333,4.1807 z m 81.648925,-23.20746 c -11.46381,-4.85278 13.92052,-12.176724 1.0487,-16.803466 -12.06983,-2.447944 -13.53709,18.228946 -1.0487,16.803466 z m 4.79622,-2.44564 c 7.79069,-7.642211 -6.62496,-11.99668 -3.71918,-0.62768 0.12174,2.35384 2.70594,2.76965 3.71918,0.62768 z M 97.806036,93.016371 c -2.643544,-4.622087 11.706774,-2.329115 5.012164,-8.232358 -5.893294,1.446444 -2.77855,-1.896423 -4.040846,-4.377996 -3.548388,1.331105 -1.319039,3.755876 -6.260384,2.382609 -4.284745,1.11764 1.955907,9.573318 5.289066,10.227745 z"
         id="path7" /><path
         style="fill:#cfe4ea"
         d="m 57.672609,210.37659 c -11.854382,-3.72158 -27.669432,-3.05606 -35.440893,-13.53419 7.685374,3.06812 15.850608,4.34249 24.127328,3.7148 27.754377,-1.87012 52.562509,-18.85783 69.737556,-39.92888 16.63743,-21.54262 20.60018,-51.79533 11.55843,-77.260685 -2.79556,-9.457859 -9.93671,-15.705306 -16.94979,-21.917365 -2.42691,-2.867902 -7.70748,-8.276512 -0.73594,-4.483874 14.68609,6.365434 26.06135,18.7739 34.19075,32.247179 0.66157,10.291516 6.44256,18.884655 7.75414,28.901855 0.29008,11.96903 -2.95638,23.71531 -7.01665,34.85172 -3.49702,7.05856 -6.9681,3.71678 -8.19359,-1.91524 -12.30967,3.87904 -4.34394,19.1684 -7.83553,27.96093 -9.00748,9.03679 -20.49434,15.88008 -30.811977,23.50013 -12.330035,5.76198 -26.247948,9.61994 -39.866109,8.13813 l -0.471848,-0.25018 z m 6.272972,-2.26218 c 12.60256,-4.77434 -13.051319,-8.50098 -2.18306,0.57605 l 1.145678,-0.25031 z M 94.55231,128.12448 c -10.327517,-2.39459 3.92358,-22.09092 7.36363,-14.00722 0.33847,1.84934 -1.63941,10.58684 2.30124,5.66504 1.00057,6.28083 -7.600253,2.41478 -9.66487,8.34218 z M 72.355828,95.819217 c 0.283337,-4.060234 -4.075329,-7.189406 -2.46688,-11.237954 -6.797501,-9.706133 8.971346,2.302892 3.881468,7.844916 l -0.574176,1.79065 z"
         id="path6" /><path
         style="fill:#b5d3dd"
         d="m 90.090625,242.59491 c 5.528634,-2.45875 18.118275,-2.91797 25.793695,-6.76206 11.59953,-1.62075 19.95002,-8.84615 28.9095,-15.80704 21.19663,-17.03505 35.33093,-43.37519 35.72713,-70.80388 0.0178,-9.50578 0.40435,-19.31732 -1.38052,-28.60382 -2.57611,-7.99846 -6.11443,-19.94325 -8.9518,-25.321098 24.08278,32.895328 21.24021,81.003598 -3.77714,112.550848 -12.84792,16.24686 -31.37421,27.97425 -51.56233,32.63192 -8.12756,1.60512 -16.240178,2.99401 -24.758535,2.11513 z M 70.379166,228.68612 C 56.902994,228.09737 43.031613,225.18949 31.344117,218.36606 20.796335,209.00304 13.245852,196.69748 7.9504655,183.72465 c 9.1412185,10.25213 19.9337705,19.81921 33.2770585,24.00478 10.382546,-1.54114 20.052804,6.20807 30.537238,2.70559 12.494196,-1.85376 25.367307,-5.88714 35.278868,-13.77304 6.67125,-8.92429 21.74734,-10.50533 23.49664,-23.10206 -2.86742,-6.64076 -1.21997,-24.27716 6.97435,-20.88825 2.7892,11.58166 9.89959,-3.50173 10.54116,-8.60935 2.48347,-9.10274 3.83614,-18.60106 4.19543,-27.97621 -4.72092,-9.5309 -5.92694,-19.86133 -9.50254,-29.555846 -8.48343,-11.562794 -18.18991,-23.762004 -32.09105,-28.829821 -1.35459,-4.645781 13.5065,2.514763 17.68329,3.590724 13.19171,5.632438 25.94452,13.813303 34.69178,25.266279 5.87551,13.470094 7.24075,29.248084 2.32561,43.174024 -1.9752,11.97614 2.64561,24.75223 -3.19893,36.09601 -11.82658,31.70345 -40.74851,56.75416 -74.475702,61.84331 -5.715191,0.91195 -11.521554,1.26605 -17.304502,1.01533 z m 13.30504,-6.63707 c 6.751775,-8.38427 -12.428918,-5.77663 -1.996403,0.57995 l 1.069536,-0.007 z m 20.958504,-2.18923 c 10.78773,2.7269 10.63357,-16.96008 -0.18183,-9.50276 -7.076865,1.51455 -10.153728,10.94804 0.18183,9.50276 z M 155.6093,104.63458 c 9.65503,-9.355595 -15.1035,-6.375685 -1.1653,0.31141 z M 60.55825,208.55781 c -6.387098,-11.1882 17.094727,-2.36856 1.075803,0.13782 z m 1.229708,-45.38392 c -3.597572,-4.82313 -5.2901,-17.19051 -7.56633,-18.1388 6.049923,3.51284 9.083068,11.41057 7.56633,18.1388 z M 28.879384,131.14341 c -5.746507,-7.15685 11.041342,-14.44648 6.978701,-3.20168 -0.370385,3.71735 -4.651952,2.19467 -6.978701,3.20168 z m 56.10982,-1.78226 c -12.089786,-4.49983 -5.962847,-25.08134 6.246852,-23.84005 16.276804,1.36395 -3.913536,14.50907 0.500362,20.5576 6.433496,4.43972 -4.569383,3.8325 -6.747214,3.28245 z m 27.181336,-20.81584 c -14.176509,-4.33549 4.96866,-24.196465 7.85189,-12.363746 -6.98324,1.990631 -8.95619,10.232556 -7.85189,12.363746 z"
         id="path5" /><path
         style="fill:#83b1c9"
         d="m 69.05625,239.6129 c -13.287499,-4.41103 -26.206673,-10.76393 -36.501155,-20.40724 35.341381,18.50639 81.977865,9.42016 108.587775,-20.07522 12.72038,-13.35715 21.76496,-30.33678 25.0573,-48.53231 7.0225,8.40981 11.37149,-8.39721 7.27179,-13.58128 -2.20928,-7.26933 2.66848,-15.81673 -4.8937,-19.44001 -1.25836,-9.8925 -0.5151,-19.999993 -4.323,-29.562054 5.83688,5.484653 9.44176,15.604564 12.06208,23.866994 9.51423,31.38077 4.13607,67.41552 -16.56015,93.23867 -7.27608,9.55021 -17.26629,16.37769 -26.49205,23.79038 -10.33709,6.05314 -22.26326,8.71616 -33.824587,11.42148 -9.920111,1.30486 -20.843715,3.07941 -30.384303,-0.71941 z"
         id="path4" /><path
         style="fill:#6b9cb4"
         d="m 99.080628,218.13144 c -5.227264,-11.40069 24.316312,-9.56186 9.850482,-2.39021 -2.88855,1.65412 -6.425,4.63369 -9.850482,2.39021 z m 68.944132,-64.56935 c -2.97893,-5.09386 -5.29047,-13.93999 -1.70248,-18.59175 0.38198,4.62791 1.17722,-1.76912 1.6041,1.90919 2.01474,-4.00812 -4.15798,-15.46824 3.13743,-10.64828 3.40425,8.31231 5.03312,18.85628 0.65959,27.04899 -0.96402,1.01652 -2.55854,0.90486 -3.69864,0.28185 z"
         id="path3" /><path
         style="fill:#4a56df;fill-opacity:1"
         d="m 35.586457,246.45178 c -8.350922,-9.19316 13.485862,-2.81275 0.162315,0.0318 z m -6.849624,-83.55521 c -4.525495,-8.29472 5.565552,-24.56654 14.949083,-18.37839 7.107435,7.99789 -3.012969,19.96944 -12.365846,18.75848 l -1.300204,-0.12765 -1.283029,-0.25244 z M 45.481929,98.654211 C 38.754714,90.029813 59.2958,75.108057 61.022434,86.689803 c -1.66803,6.403862 -8.559641,13.057 -15.540505,11.964408 z M 91.810417,75.994206 c -8.181273,-6.175368 13.092883,-12.410708 5.481489,-3.04803 -1.4887,1.46261 -3.238124,3.077607 -5.481489,3.04803 z"
         id="path2" /><path
         style="fill:#6089cd;fill-opacity:1"
         d="m 38.607684,177.59618 c -7.121868,-0.42794 -17.120341,-16.91765 -4.096595,-14.54059 10.055593,-1.52795 16.36076,-14.252 6.949657,-20.61329 6.844989,-3.95731 15.854233,4.93042 16.668801,12.24649 2.840219,11.62153 -6.780153,25.49591 -19.521863,22.90739 z m 8.752732,-69.3503 c -8.508357,0.5408 -6.35684,-19.075142 0.621619,-9.381125 9.315126,-0.267957 16.063833,-13.875988 10.233881,-18.214356 13.00361,-5.594534 16.05003,14.193834 6.220895,19.689921 -4.394226,4.59136 -10.475229,8.44887 -17.076395,7.90556 z m 104.853994,-3.97362 c -7.35419,-10.872233 15.67778,-3.08395 1.09974,0.39792 z"
         id="path1" /></g></g></svg>
