<?xml version="1.0" encoding="UTF-8" standalone="no"?>
<!-- Created with Inkscape (http://www.inkscape.org/) -->

<svg
   width="110.23439mm"
   height="99.809982mm"
   viewBox="0 0 110.23439 99.809982"
   version="1.1"
   id="svg1"
   xml:space="preserve"
   xmlns="http://www.w3.org/2000/svg"
   xmlns:svg="http://www.w3.org/2000/svg"><defs
     id="defs1" /><g
     id="layer1"
     transform="translate(-234.54269,-247.81133)"><path
       style="fill:#25a200;stroke-width:0.624905"
       d="m 255.20951,347.25883 c -3.49943,-0.51736 -5.15331,-5.01916 -8.89368,-2.58652 -7.21787,0.98035 -13.35771,-6.71726 -11.40703,-13.58646 0.45157,-2.66662 3.70947,-0.83674 4.27818,-4.05884 2.36926,-0.60356 5.68512,2.58813 4.85319,-1.76067 0.91002,-17.57307 16.09955,-33.52143 33.94752,-33.86796 4.72171,-0.44859 10.35809,3.25972 11.57311,-3.41249 1.69191,-2.20343 4.11449,-4.16627 -0.17488,-5.13373 -10.475,-6.11181 -18.90396,-16.65708 -20.67099,-28.83246 3.61281,-1.40265 8.26986,-7e-5 12.1293,0.75828 11.12055,2.73936 19.60055,12.35755 22.14004,23.36079 1.38756,2.01882 5.64163,0.43313 7.96038,1.91267 7.78803,2.08669 13.19154,9.25939 14.50108,17.02843 1.06985,5.29377 1.82244,12.30868 -3.50028,15.64282 -2.3202,1.80325 0.7329,-4.92763 2.1373,-5.34863 3.09061,-2.83763 0.43058,-1.97092 -1.53715,-0.71139 -1.65042,-1.1079 -5.62772,-3.41594 -2.91598,0.27146 2.4587,2.07453 1.63013,7.70258 -2.19988,7.38855 -5.40882,1.62508 -12.56516,-1.33766 -16.30672,-2.69185 2.71009,4.02629 7.3407,6.22535 11.61584,7.88112 -2.81704,4.39788 -6.46513,9.44314 -11.38836,11.26078 -1.18393,-2.67595 -0.95952,-7.84532 -1.38487,-9.68534 -1.67619,5.86167 -1.39612,12.53663 1.26474,18.06061 3.62801,2.09167 12.49176,1.80898 11.37231,8.06967 -5.37873,0.52281 -10.85779,0.34035 -16.25616,0.0757 -2.86716,-3.7276 -5.50314,-10.00601 -11.74842,-10.0757 -5.58044,0.64885 0.11215,-6.42019 -1.76723,-9.74691 -0.98541,-10.15855 -11.30394,-18.73519 -21.53008,-16.42297 5.24273,1.70066 10.93168,4.42375 14.17201,9.32862 4.36032,5.7839 4.51714,14.17621 0.33769,20.10363 4.52642,0.47649 10.25568,-1.22359 13.41274,3.11502 5.1146,6.20715 -6.11027,3.18726 -9.54429,3.90996 -8.15532,-0.0257 -16.32084,0.0944 -24.46943,-0.2462 z m 57.83926,-49.65032 c 2.79476,-4.69702 -4.26659,-10.62529 -7.5684,-7.47679 3.45058,-0.0503 2.58878,1.67297 3.1492,3.73438 1.85165,-0.14457 3.66429,0.57787 1.39281,2.20128 -4.04402,1.69105 -5.5208,-9.03075 -5.22507,-2.09528 0.59822,3.58438 5.32321,4.83421 8.25146,3.63641 z m -13.65953,-13.85475 c -0.56613,-12.50903 -10.33411,-25.57171 -23.6294,-25.60522 -3.67407,0.18256 0.94426,6.4009 1.81098,8.40526 1.04818,2.17128 5.90354,8.02986 6.1944,7.03647 -2.81605,-3.7875 -5.33749,-8.36004 -5.82738,-13.0134 8.02875,1.86573 14.41159,8.42548 16.44737,16.36723 0.67862,2.60432 1.47978,7.80155 5.00403,6.80966 z m 34.94582,51.26089 c -4.4311,-3.99279 -11.85961,-4.0563 -14.50103,-10.12041 -1.84309,-2.54742 -1.50721,-10.12633 2.68909,-5.36165 2.17262,1.09978 6.47736,7.44758 6.35325,6.35377 -1.97646,-3.86168 -5.69536,-7.0147 -8.58869,-9.66732 5.52083,-1.41256 11.74809,1.66025 13.41178,7.24014 1.10553,3.44714 2.10335,8.80075 0.6356,11.55547 z m -2.39185,-19.32583 c -8.94951,-0.41672 -1.40646,-9.86154 3.98299,-9.3426 4.3943,-0.86479 13.88159,3.62817 5.51943,5.9317 -2.50651,2.40925 -5.91826,4.29039 -9.50242,3.4109 z m -20.44294,-39.44888 c -3.9,-0.33608 -6.45046,-0.85477 -6.85104,-5.29864 -2.58476,-5.77532 -6.59343,-10.92061 -11.64344,-14.74454 0.2553,-2.85771 -1.27899,-10.22154 3.33009,-7.96063 8.80151,5.21601 14.24695,14.83779 15.22996,24.90773 -0.28632,0.39341 1.22881,3.90229 -0.0656,3.09608 z"
       id="path16" /></g></svg>
