<?xml version="1.0" encoding="UTF-8" standalone="no"?>
<!-- Created with Inkscape (http://www.inkscape.org/) -->

<svg
   width="76.294502mm"
   height="100.00003mm"
   viewBox="0 0 76.294503 100.00003"
   version="1.1"
   id="svg1"
   xml:space="preserve"
   xmlns="http://www.w3.org/2000/svg"
   xmlns:svg="http://www.w3.org/2000/svg"><defs
     id="defs1" /><g
     id="layer1"
     transform="translate(-28.196951,-927.9568)"><g
       id="g35"
       transform="matrix(0.73485498,0,0,0.73485498,-422.68193,568.84313)"><path
         style="fill:#96c623"
         d="m 655.90211,538.17643 c -20.03262,-5.52164 -35.53875,-24.14087 -37.70458,-44.75602 -2.2773,-3.62834 3.1432,-7.41275 3.97056,-2.10473 4.09983,6.87982 12.34831,8.73385 19.58824,10.27548 9.76478,2.75372 19.12359,9.82035 21.17815,20.24555 1.31023,3.04697 2.15412,12.71895 -0.67223,11.59107 -6.95555,-11.81535 -19.58761,-19.91528 -33.10032,-21.86709 12.44316,4.90744 23.92443,13.69466 29.73006,25.99418 -0.4796,1.18835 -2.0519,0.51428 -2.98988,0.62156 z m 17.06463,-2.72936 c -7.78389,-2.07936 0.9745,-11.43744 4.25507,-14.65267 5.83834,-5.30185 13.79521,-7.38776 21.51459,-7.60369 6.56345,0.29436 10.10857,-5.49118 14.55289,-8.54313 2.6332,4.16618 -0.32931,12.63305 -4.76966,15.87055 -5.4267,3.00449 -12.01283,2.32593 -17.77047,4.73018 -6.70522,1.86965 -12.95252,5.14149 -17.78242,10.19876 z"
         id="path39" /><path
         style="fill:#84b825"
         d="m 668.59754,542.70051 c -0.72131,-3.83952 -0.14293,-9.32918 4.72337,-8.13461 5.4971,-3.84629 10.80242,-8.25325 17.65839,-9.26597 6.24355,-1.94432 12.59587,-3.5904 19.06775,-4.56739 -2.78412,5.34418 -6.92077,10.23769 -11.76999,13.76067 -2.56855,-0.32265 -11.83794,2.34149 -9.94509,-1.69341 5.74971,-4.71881 12.57069,-7.84771 19.34116,-10.79868 -11.03998,1.89082 -21.27062,7.15601 -30.05727,13.98578 -5.33029,-4.24809 -5.67073,10.50224 -9.01832,6.71361 z"
         id="path38" /><path
         style="fill:#61a025"
         d="m 675.21669,546.42363 c 3.49542,-5.89732 8.76719,-10.54758 14.19668,-14.62259 -4.77472,4.87433 6.75626,3.12369 9.39897,2.33831 3.03732,-1.47177 3.43027,-3.04167 0.63374,-0.0903 -6.92517,5.98106 -15.24016,10.47794 -24.22939,12.37455 z"
         id="path37" /><path
         style="fill:#146817"
         d="m 636.05836,624.31957 c 2.16337,-7.1867 10.50051,-10.5006 17.36648,-10.8289 7.61514,-1.95423 -0.0513,-10.44664 1.39653,-15.86262 -1.808,-21.70647 4.23759,-45.38427 21.17314,-60.08878 8.45755,-7.49416 18.94334,-12.5703 29.95503,-14.99314 -11.88514,5.14257 -23.41907,12.48709 -30.56606,23.56134 9.93474,-1.4089 18.49653,-7.55049 25.95692,-13.89059 6.95555,-6.41278 12.64274,-15.07832 12.94028,-24.79559 4.37758,-1.03412 2.78064,8.81332 2.97033,12.12737 -1.88481,17.74507 -17.87551,32.71499 -35.65804,33.64901 -7.46023,-3.69318 -14.01077,3.43266 -13.53738,10.70401 -3.60576,15.59734 -2.58274,32.59195 4.61623,47.0476 6.14046,4.37214 15.72934,2.48627 20.19448,9.48707 3.83026,7.1775 -8.45539,2.99442 -12.21361,4.13492 -14.86476,-0.005 -29.73451,0.26056 -44.59433,-0.2517 z m 10.98021,-79.77109 c -22.6853,-3.67641 -38.81539,-29.49831 -31.8322,-51.46651 0.31686,-5.7011 4.60502,-1.89837 3.11109,1.81952 2.29741,20.20044 17.98456,37.6936 37.26118,43.49612 7.17897,-1.98694 -2.20757,-9.17386 -4.43616,-12.4198 -5.75378,-5.99586 -12.83287,-10.61066 -20.38271,-14.02092 12.87053,2.71689 25.23987,10.301 31.58998,22.09393 3.26688,8.59439 -7.3856,13.52621 -14.31308,10.64853 z"
         id="path36" /></g></g></svg>
