<?xml version="1.0" encoding="UTF-8" standalone="no"?>
<!-- Created with Inkscape (http://www.inkscape.org/) -->

<svg
   width="115.45871mm"
   height="120mm"
   viewBox="0 0 115.45871 120"
   version="1.1"
   id="svg1"
   xml:space="preserve"
   xmlns="http://www.w3.org/2000/svg"
   xmlns:svg="http://www.w3.org/2000/svg"><defs
     id="defs1" /><g
     id="layer1"
     transform="translate(-353.59343,11.09355)"><g
       id="g8"
       transform="matrix(0.5913211,0,0,0.5913211,350.55495,-42.474686)"><path
         style="fill:#f8d587"
         d="m 140.48829,131.01432 -0.55688,-0.90106 -6.80689,0.11449 c -44.891919,0.75506 -45.099401,0.75151 -50.595424,-0.86721 -2.723431,-0.80212 -5.017336,-2.01731 -7.366957,-3.90261 -3.644953,-2.92465 -5.836118,-3.16054 -8.235141,-0.88657 -0.80494,0.76298 -0.332434,0.21684 1.050014,-1.21366 21.236926,-21.97502 57.804668,-17.86105 73.126568,8.22694 0.4525,0.77044 -0.10739,0.25147 -0.61529,-0.57032 z"
         id="path11" /><path
         style="fill:#ebaf2b"
         d="m 90.6948,149.37586 c -7.090622,-0.66707 -12.844846,-4.98744 -18.57417,-8.7551 -4.376768,-3.7082 -18.138187,1.03253 -11.237841,-7.3917 2.601275,-3.20805 4.39447,-9.03879 8.596892,-10.04494 6.134903,0.69908 10.28759,7.14425 16.960832,7.101 17.514187,1.01913 35.089237,-0.091 52.627217,-0.15734 3.59098,1.61177 4.48423,7.65798 6.23839,11.18561 2.02261,7.9701 -11.36063,2.70706 -15.18845,0.83998 -7.66587,-3.57386 -16.02892,-0.30661 -22.39672,4.31887 -5.16679,2.74702 -11.240265,3.79846 -17.02615,2.90362 z M 32.448136,121.92014 c -5.48211,-4.08861 -13.368246,-7.08417 -17.320378,-12.0265 2.156331,-3.53208 3.90859,-10.695412 8.537039,-5.34866 10.518406,6.57158 20.989258,13.22179 31.417986,19.93385 -2.161227,3.66714 -4.074332,11.82871 -8.964774,5.95055 -4.563056,-2.82606 -9.117578,-5.66588 -13.669873,-8.50924 z m 116.674394,5.59236 c -5.90525,-6.8027 6.72317,-8.28673 10.73981,-12.06399 7.72366,-4.37634 15.376,-8.89397 23.23888,-13.01427 3.10836,3.4755 7.47934,9.78647 0.11351,11.14596 -10.57387,5.9207 -20.93359,12.22641 -31.54899,18.06693 -0.97099,-1.29925 -1.73224,-2.73488 -2.54321,-4.13463 z m -17.64552,-19.2997 c -4.1321,-1.63015 -8.82553,-3.88586 -4.16313,-8.296821 6.31842,-11.770137 12.64672,-23.545779 19.1588,-35.204778 4.09249,2.151525 10.97155,4.163969 5.89613,9.339245 -6.32317,11.701404 -12.34811,23.590403 -18.99016,35.104744 L 132.74503,108.876 Z M 60.290327,96.395056 C 55.674849,87.840719 50.198553,79.540115 46.187774,70.784188 c 3.711123,-2.166098 8.605438,-7.087329 10.009938,-0.231914 6.334659,11.163668 12.649038,22.33912 18.94097,33.526626 -3.22304,1.20126 -7.775666,7.21311 -9.412999,1.74977 -1.836258,-3.13035 -3.639786,-6.279788 -5.435356,-9.433614 z m 35.183001,3.463697 c -0.0857,-15.590345 -0.463124,-31.22034 0.05278,-46.789219 3.252386,0 6.504762,0 9.757162,0 0.10169,15.56611 0.12605,31.132556 0.1323,46.698959 -3.31362,0.04015 -6.628798,0.17934 -9.942237,0.09026 z"
         id="path10" /><path
         style="fill:#dc9d22"
         d="m 93.772662,248.1336 c 0.202434,-11.80402 0.642327,-23.60506 0.662684,-35.41154 4.37916,0.59516 12.120444,-1.97227 9.896224,5.03743 -0.1828,12.74926 -0.3432,25.4995 -0.69622,38.24547 -3.34185,0 -6.683699,0 -10.025548,0 0.05429,-2.62379 0.108573,-5.24757 0.16286,-7.87136 z m 47.117648,-12.17083 c -5.11679,-9.28316 -10.49058,-18.42949 -15.49871,-27.76925 4.18496,-2.92328 9.85604,-7.62904 11.46701,0.14105 5.52429,9.98201 11.57469,19.77943 16.7414,29.88847 -6.74234,4.44309 -9.32351,7.09045 -12.7097,-2.26027 z m -89.052578,4.41227 c -7.574304,-3.58838 3.943377,-12.07546 5.424382,-17.93603 3.741802,-6.40264 7.432267,-12.83646 11.258026,-19.18924 6.003089,1.55878 10.202584,4.82418 4.502357,9.98381 -5.841608,9.72012 -11.211368,19.75516 -17.350359,29.27763 -1.329579,-0.61661 -2.57013,-1.40061 -3.834406,-2.13617 z M 181.74785,210.4973 c -11.5387,-7.54152 -23.21059,-14.90883 -34.58295,-22.68773 1.92015,-4.67287 4.55229,-10.82158 9.42588,-5.26685 10.87356,6.75374 21.76843,13.47458 32.57333,20.33799 -2.35799,2.16484 -3.86254,11.22336 -7.41626,7.61659 z M 18.016666,203.83305 c -5.472806,-7.307 9.524272,-8.58214 13.43273,-12.95093 6.62595,-3.56342 13.106069,-8.08888 19.849642,-11.03775 3.633584,4.16921 5.866712,8.95575 -1.115256,10.59467 -9.97838,5.70987 -19.916774,11.49024 -29.925261,17.14716 -0.787984,-1.22639 -1.502312,-2.49762 -2.241855,-3.75315 z m 77.477013,-2.62073 C 73.484017,198.9097 55.574967,178.65201 55.415241,156.62689 c 0.08489,-5.82751 0.462389,-13.29049 3.38261,-17.96334 6.495159,-0.37473 13.298133,0.61658 18.257694,5.21466 9.86897,7.21195 24.359055,8.02482 34.236755,0.37979 7.99074,-6.16352 17.95227,-2.97901 26.1458,0.70339 4.50443,1.37423 10.99701,-2.72828 9.74647,5.11462 3.67668,25.82612 -18.71604,51.20191 -44.64889,51.48551 -2.35166,0.0695 -4.708678,-0.0486 -7.042001,-0.3492 z M 31.596803,161.25338 c -8.818962,-0.20781 -17.638613,-0.38421 -26.4583345,-0.55613 0.051778,-3.15386 0.1035559,-6.30773 0.155334,-9.46159 13.6798775,0.70243 27.4392715,0.29883 41.0797325,1.35096 -1.458632,2.37852 2.35441,9.96702 -2.36953,8.92869 -4.136098,-0.067 -8.271728,-0.16731 -12.407202,-0.26193 z m 144.131777,-0.94742 c -6.28386,-0.0279 -12.56771,-0.0558 -18.85157,-0.0837 0,-3.11455 0,-6.2291 0,-9.34365 14.48174,0.14412 28.96329,0.36929 43.44606,0.35134 0.22057,5.32649 0.38659,11.51664 -7.02397,9.13528 -5.85688,-0.003 -11.7137,-0.0351 -17.57052,-0.0593 z"
         id="path9" /></g></g></svg>
