<?xml version="1.0" encoding="UTF-8" standalone="no"?>
<!-- Created with Inkscape (http://www.inkscape.org/) -->

<svg
   width="105.26542mm"
   height="99.993805mm"
   viewBox="0 0 105.26542 99.993805"
   version="1.1"
   id="svg1"
   xml:space="preserve"
   xmlns="http://www.w3.org/2000/svg"
   xmlns:svg="http://www.w3.org/2000/svg"><defs
     id="defs1" /><g
     id="layer1"
     transform="translate(-236.6103,-125.80965)"><path
       style="fill:#6eaa20;stroke-width:0.498104"
       d="m 285.5658,222.67348 c -0.12489,-6.11752 -0.95032,-14.09152 -7.18255,-17.07525 -5.4164,-1.17459 -11.14978,0.5771 -16.61,-0.90189 -11.20063,-2.21787 -17.99113,-12.88501 -21.58271,-22.9244 -1.81741,-5.20683 -3.28581,-10.65987 -3.58023,-16.16568 8.67136,4.73029 18.89422,3.11896 28.25753,5.03184 9.17229,1.73615 15.86319,10.02422 17.08741,19.05619 0.61571,2.51698 1.14463,6.84206 -1.71003,2.91273 -5.74789,-5.35687 -12.94828,-9.94631 -21.00753,-10.29407 11.46876,5.25345 21.42399,14.35165 27.26307,25.63299 1.07581,-18.22301 0.49892,-36.84198 5.77375,-54.50817 -5.21128,7.13652 -6.59984,16.19749 -7.97636,24.67488 -7.82999,-4.4639 -15.23282,-13.06182 -13.3657,-22.70515 2.2705,-9.53472 9.70113,-16.80899 17.14397,-22.70487 3.80655,-2.85306 7.95179,-5.3262 12.45904,-6.89298 -3.10325,7.47708 1.37198,14.97725 4.38977,21.65058 3.12967,6.34319 4.66921,14.38582 0.35136,20.58958 -3.15313,5.40012 -8.47834,8.95532 -12.32578,13.74983 -2.70343,5.72439 -1.07101,12.31542 -1.16038,18.4211 0.25003,2.32845 -0.22838,11.4562 1.89181,4.45321 4.77206,-10.42691 13.95908,-18.83922 24.93434,-22.29527 -8.61342,-0.53742 -16.30834,4.67697 -22.16569,10.49647 0.0617,-10.06993 7.05411,-20.48019 17.39616,-22.21511 9.22325,-2.0665 19.37638,-0.1243 27.89576,-4.99788 0.70326,4.12895 -1.55481,10.38262 -2.77636,15.07302 -3.27195,10.78594 -10.89656,21.51785 -22.53381,23.93192 -5.48867,1.67913 -11.29255,-0.32335 -16.75648,1.01735 -6.35839,4.4877 -6.73091,12.99592 -6.58548,20.119 -2.50696,0 -5.01391,0 -7.52087,0 -0.001,-1.04332 -0.003,-2.08665 -0.004,-3.12997 z"
       id="path12" /></g></svg>
