<?xml version="1.0" encoding="UTF-8" standalone="no"?>
<!-- Created with Inkscape (http://www.inkscape.org/) -->

<svg
   width="85.288681mm"
   height="100mm"
   viewBox="0 0 85.288681 100"
   version="1.1"
   id="svg1"
   xml:space="preserve"
   xmlns="http://www.w3.org/2000/svg"
   xmlns:svg="http://www.w3.org/2000/svg"><defs
     id="defs1" /><g
     id="layer1"
     transform="translate(-27.526323,-406.61433)"><path
       style="fill:#26a3d6;stroke-width:0.629127"
       d="M 64.174052,506.27595 C 47.97398,504.66 32.02014,493.43007 28.103657,477.11682 c -0.212793,-5.46218 -1.718378,-11.74543 1.197009,-16.65903 6.217873,-2.36351 3.635477,6.30218 4.318151,9.64077 1.023772,7.47816 5.568058,13.86372 10.625484,19.1674 4.138827,6.87172 12.716657,8.73895 20.063534,9.93256 18.353991,2.26908 37.723425,-10.66123 41.169115,-29.13671 1.3561,-6.4721 0.73791,-13.22815 -1.00493,-19.55159 -0.48864,-5.29509 5.98706,-5.80558 5.98776,-0.25242 5.85615,16.22139 0.52373,35.74941 -13.01965,46.5137 -9.169765,7.53866 -21.507351,10.99049 -33.266078,9.50445 z m 1.993552,-9.39896 c -15.771608,-1.386 -30.441969,-14.74443 -30.902173,-31.00302 -0.4242,-12.71252 9.19146,-24.1608 20.795528,-28.3035 4.382919,-1.28967 3.763074,2.93981 0.245921,3.59433 -9.471402,6.01821 -15.846591,17.81128 -12.973468,29.07716 2.626392,11.0561 13.564574,18.25462 24.491128,19.06318 10.727318,1.18921 22.438781,-3.9852 27.14188,-14.0442 2.98141,-5.8921 2.996049,-12.67662 2.768538,-19.10449 1.251039,-4.54253 6.566822,-1.58561 5.395752,2.35224 1.92852,10.45325 -1.35528,21.83487 -9.350485,29.01187 -7.272763,6.90098 -17.622508,10.53355 -27.612621,9.35643 z m 0.582598,-12.39089 c -11.275949,-1.33044 -20.689589,-13.17121 -17.492705,-24.50105 3.26073,-11.76872 14.557785,-18.48907 20.443462,-28.7336 2.315413,-6.22049 5.876547,3.05206 8.283057,5.2918 5.661854,8.00462 13.031522,15.85733 13.999453,26.06495 0.733135,13.12553 -12.392447,24.30289 -25.233267,21.8779 z m 5.401135,-7.83379 c 6.259429,-1.0817 8.424463,-8.76835 6.191066,-14.06113 -1.54793,-5.28791 -4.724449,-9.90759 -8.169817,-14.13526 -2.694,6.8279 -10.024815,12.12834 -9.218653,20.11274 0.07766,4.76606 4.296464,9.24371 9.251068,8.43103 0.657087,-0.0606 1.308165,-0.18037 1.946336,-0.34738 z M 34.103472,456.65586 c -1.916794,-1.53761 -6.485222,0.62213 -3.485638,-3.36195 2.413684,-4.52045 6.602222,-12.47465 12.398385,-10.9692 -1.105169,3.86931 -5.652987,5.93305 -6.702072,10.00911 -0.643761,1.47487 -1.04362,3.14673 -2.210675,4.32204 z M 91.873391,446.2273 c -6.612885,-1.56498 -3.999275,-10.09652 -6.3e-4,-13.10772 0.718514,-2.51298 3.154684,-4.20365 3.989379,-0.62973 3.260585,3.72651 5.84009,11.82698 -0.671342,13.70172 -1.077921,0.29448 -2.23405,0.31939 -3.317231,0.0357 z M 57.004238,432.0622 c -4.433231,-2.22244 3.008747,-10.05165 3.382672,-3.58086 1.427993,2.09661 -1.256839,4.70851 -3.382672,3.58086 z m 10.33686,-7.85658 c -6.568085,-1.14578 -5.516381,-10.24201 -1.111077,-13.38276 1.633039,-3.60985 4.505387,-6.61926 6.331098,-1.41742 2.518428,3.88344 4.656619,9.66473 1.39982,13.71092 -1.768074,1.61109 -4.425765,1.68088 -6.619841,1.08926 z"
       id="path22" /></g></svg>
