<?xml version="1.0" encoding="UTF-8" standalone="no"?>
<!-- Created with Inkscape (http://www.inkscape.org/) -->

<svg
   width="119.99999mm"
   height="85.165726mm"
   viewBox="0 0 119.99999 85.165725"
   version="1.1"
   id="svg1"
   xml:space="preserve"
   xmlns="http://www.w3.org/2000/svg"
   xmlns:svg="http://www.w3.org/2000/svg"><defs
     id="defs1" /><g
     id="layer1"
     transform="translate(-145.61822,-658.36093)"><g
       id="g53"
       transform="matrix(0.56484956,0,0,0.56484956,-87.372874,163.63943)"><path
         style="fill:#f4ab30"
         d="m 440.08703,1006.8071 c -0.29953,-0.2098 -0.61084,-0.3152 -0.6918,-0.2342 -0.29425,0.2942 -5.98438,-5.6388 -7.13721,-7.44193 -8.52841,-13.33897 -6.30966,-29.70483 5.19816,-38.34257 1.73828,-1.30475 1.81759,-1.02629 0.2347,0.82402 -5.8933,6.88893 -7.76873,15.10968 -5.29977,23.23105 0.30967,1.01865 0.53627,2.00091 0.50354,2.18282 -0.0327,0.1819 0.0718,0.33072 0.23229,0.33072 0.16049,0 0.22415,0.10947 0.14146,0.24326 -0.0827,0.13379 0.0237,0.41727 0.23637,0.62996 0.21269,0.21269 0.32454,0.44887 0.24856,0.52485 -0.076,0.076 0.0908,0.59618 0.37065,1.15598 0.27984,0.55981 0.6563,1.79174 0.83658,2.73762 0.28343,1.48711 1.2469,4.40987 2.18045,6.61458 0.15404,0.36381 0.69034,1.67354 1.19176,2.91044 0.50143,1.2369 1.27606,2.819 1.72141,3.5158 0.87742,1.3727 0.88751,1.7163 0.0329,1.1176 z m -15.82195,-61.40845 c -0.24988,-0.65429 -0.76569,-1.55966 -1.14626,-2.01194 -0.77402,-0.91987 -0.93393,-1.4511 -0.51478,-1.71015 0.1737,-0.10735 0.21165,-0.0316 0.0989,0.19739 -0.10067,0.20438 -0.0298,0.1413 0.15756,-0.14019 7.04588,-10.58768 30.84826,-22.70319 49.41387,-25.15187 4.6265,-0.6102 6.17823,-0.39468 2.62466,0.36455 -16.90277,3.61132 -39.02324,16.27291 -47.98916,27.46862 -0.57955,0.72368 -1.30948,1.5087 -1.62208,1.74449 l -0.56835,0.42871 z"
         id="path54" /><path
         style="fill:#027691"
         d="m 449.36408,1026.1065 c -37.00618,-5.401 -49.21197,-49.68746 -22.49307,-81.61198 9.90828,-11.83871 30.92616,-23.89423 48.02798,-27.54808 3.55357,-0.75923 2.00184,-0.97475 -2.62466,-0.36455 -17.65531,2.32861 -34.64282,10.46778 -47.19211,22.61099 -3.00549,2.90823 -3.05147,2.86968 -0.8876,-0.74409 14.5814,-24.35176 41.41713,-35.01473 74.72353,-29.69083 18.62989,2.97791 34.59157,0.89628 41.57322,-5.42175 4.30168,-3.8928 3.8601,-9.31566 -0.95094,-11.6782 l -1.51022,-0.74162 -2.38125,0.003 c -3.76412,0.005 -6.35618,1.65411 -7.52911,4.78906 -0.85131,2.27532 -0.74578,4.4388 0.41589,8.52668 l 0.17595,0.61915 -2.74907,-0.18064 c -10.36077,-0.6808 -12.05536,-5.62382 -4.64408,-13.5465 12.13671,-12.97418 32.58117,-10.39914 40.56098,5.10878 l 1.12187,2.18023 0.73644,-0.97196 c 15.47155,-20.41932 46.84008,-28.3294 59.81072,-15.08224 l 1.38085,1.41028 -5.48189,0.0104 c -12.43011,0.0237 -27.26294,5.11935 -29.86546,10.26 -4.90484,9.68831 -15.23792,18.25749 -25.2258,20.91965 -4.3291,1.15388 -13.56504,2.08124 -11.24479,1.12907 0.29104,-0.11943 0.98152,-0.40638 1.53439,-0.63766 3.55459,-1.48696 3.4216,-5.70184 -0.22384,-7.09404 -6.04096,-2.30706 -11.22591,6.65087 -7.77026,13.42451 0.39797,0.78008 0.44184,1.05304 0.1839,1.14412 -1.3772,0.48629 -8.11077,0.66369 -25.19096,0.66369 -45.40682,0 -64.99344,4.49736 -80.02589,18.37504 -2.8685,2.64815 -2.91722,2.79136 -0.44383,1.30473 14.31053,-8.60135 31.92106,-8.19626 58.3089,1.34123 27.89366,10.08175 55.67004,11.46116 72.44972,3.59794 l 2.21224,-1.03669 v 0.5887 c 0,3.05642 -2.25523,7.41945 -5.70371,11.03454 -4.45756,4.67293 -5.03777,7.19539 -2.11562,9.19767 4.10592,2.81343 11.25892,-0.13138 11.25892,-4.63517 0,-1.45408 0.21711,-1.43136 1.66018,0.17369 1.78906,1.98986 2.17676,2.95924 2.17344,5.43436 l -0.003,2.11667 -0.90586,1.8113 c -5.84728,11.69177 -30.85288,15.49062 -50.71829,7.70513 -5.69549,-2.23213 -9.69455,-4.49146 -19.4108,-10.96645 -16.43827,-10.9546 -24.75125,-14.0281 -37.94214,-14.0281 -26.65793,0 -43.44909,29.89534 -26.37776,46.96354 1.56231,1.562 1.31043,1.6591 -0.56916,0.2195 -15.12784,-11.5867 -18.38918,-28.80103 -7.80131,-41.17764 1.58289,-1.85031 1.50358,-2.12877 -0.2347,-0.82402 -16.83114,12.6334 -12.22101,40.90026 8.04665,49.33766 11.91476,4.9601 33.13762,0.3746 37.58126,-8.12 l 0.29528,-0.5645 -2.57249,1.1476 c -8.97658,4.0047 -18.19052,4.1705 -21.6128,0.389 l -0.40634,-0.4491 1.64645,0.2652 c 6.2282,1.003 15.16613,-3.44534 18.92743,-9.42013 7.2539,-11.52274 -2.53912,-24.26474 -14.15309,-18.41502 -9.7103,4.89089 -6.17509,17.87194 4.21568,15.47971 l 0.97942,-0.22549 -0.31239,0.82761 c -2.88597,7.64581 -18.22961,3.27642 -21.09722,-6.00782 -6.34656,-20.54777 27.34901,-30.01261 43.89358,-12.32938 21.44208,22.9178 -7.66824,58.63572 -43.52352,53.40272 z m 76.75988,-16.8267 c -7.2561,-0.9217 -15.52203,-5.8812 -19.34039,-11.60404 l -0.79439,-1.19062 0.19205,-1.19063 c 0.91025,-5.64309 -0.51971,-13.60996 -3.45142,-19.22924 l -0.99077,-1.89903 2.27059,1.94138 c 10.22088,8.73896 24.87643,14.07747 39.11211,14.24718 2.07274,0.0247 3.76938,0.13163 3.77031,0.23761 0.006,0.65823 -3.16647,3.23875 -5.2966,4.30856 -6.55405,3.29164 -5.49449,9.02633 1.72584,9.34093 l 2.64525,0.1153 -1.32233,1.1674 c -3.55845,3.1416 -11.18186,4.6874 -18.52025,3.7552 z m 28.70729,-8.0596 c -2.07498,-0.3847 -7.99502,-3.36099 -8.58542,-4.31629 -0.0755,-0.12214 1.03591,-0.23036 2.46978,-0.2405 3.88284,-0.0274 6.56728,-0.74703 8.67768,-2.32617 1.11112,-0.83142 1.13354,-0.82431 2.15656,0.68411 0.86983,1.28255 2.73693,3.17299 3.99669,4.04666 0.80905,0.56109 0.75051,0.61401 -1.57297,1.42199 -1.86624,0.6491 -5.54919,1.0256 -7.14232,0.7302 z m 20.853,-43.89005 c 2.06152,-2.25564 3.78436,-5.04016 4.97708,-8.04418 1.2929,-3.25632 0.57281,-2.79162 7.1687,-4.62629 6.44333,-1.79224 6.18339,-1.77896 4.52824,-0.23131 -1.75417,1.64025 -2.67222,3.00419 -3.92091,5.82529 -1.72072,3.88751 -3.53732,5.23002 -9.90458,7.31969 -4.56077,1.49679 -4.44762,1.50645 -2.84853,-0.2432 z m -32.89154,-14.07528 c -5.40016,-0.47125 -10.48001,-1.54234 -21.69583,-4.57459 -18.78524,-5.07866 -27.40841,-6.95838 -36.5125,-7.95915 -11.86762,-1.30454 10.68664,-2.23187 44.84687,-1.8439 l 10.98021,0.12471 3.70417,-0.46854 c 10.6836,-1.35137 19.27714,-4.04378 27.69648,-8.67749 3.28793,-1.80956 3.12747,-1.76806 3.12747,-0.80902 0,1.13664 1.53696,2.74079 3.48899,3.64154 l 1.67039,0.77078 3.04271,-0.0107 c 3.45357,-0.0122 4.75579,-0.40597 7.47148,-2.25938 1.88794,-1.28849 1.78893,-1.3086 1.78893,0.36336 0,12.84466 -25.13088,23.83856 -49.60937,21.7024 z m 48.38855,-9.54212 c 1.26927,-1.78239 2.3383,-4.03503 3.30973,-6.97417 1.57668,-4.7704 7.94906,-6.19604 15.2413,-3.40981 l 0.79375,0.30328 -1.72016,0.60272 c -3.47159,1.21638 -6.05253,2.80717 -8.94864,5.51559 -2.05703,1.92371 -4.18111,3.21874 -7.43463,4.53283 -2.24637,0.9073 -2.28201,0.89092 -1.24135,-0.57044 z m -5.35814,-22.72792 c 1.66799,-1.74522 3.82971,-4.6109 5.24414,-6.95185 3.11675,-5.1584 6.44616,-6.95552 14.9934,-8.09304 4.74165,-0.63105 17.81278,-0.25091 15.97475,0.46458 -0.21828,0.085 -1.4089,0.46694 -2.64583,0.84882 -6.10017,1.88332 -9.19887,4.07051 -12.99194,9.17024 -1.44929,1.94855 -3.19265,4.06151 -3.87413,4.69548 l -1.23906,1.15267 -1.20004,-0.17606 c -4.16649,-0.61125 -10.50921,-0.60852 -14.4292,0.006 l -1.05834,0.16596 z"
         id="path53" /></g></g></svg>
