<?xml version="1.0" encoding="UTF-8" standalone="no"?>
<!-- Created with Inkscape (http://www.inkscape.org/) -->

<svg
   width="95.989067mm"
   height="100mm"
   viewBox="0 0 95.989067 100"
   version="1.1"
   id="svg1"
   xml:space="preserve"
   xmlns="http://www.w3.org/2000/svg"
   xmlns:svg="http://www.w3.org/2000/svg"><defs
     id="defs1" /><g
     id="layer1"
     transform="translate(-369.76014,-252.0409)"><g
       id="g16"
       transform="matrix(0.40059621,0,0,0.40059621,218.66984,141.97917)"><path
         style="fill:#eae9e6"
         d="m 510.7234,435.04114 c 5.02816,-16.25285 -29.68792,-15.42436 -23.48504,0.26084 -15.49442,1.81005 -11.54538,-17.85292 -18.50837,-26.39074 0.4771,-2.51022 7.82331,1.84975 1.1067,-3.99643 -9.285,-9.06161 11.6804,4.54389 3.30703,-5.77155 3.4741,2.42337 14.47199,16.8316 8.91701,4.68212 -2.99545,-14.87762 -23.75256,-10.98617 -30.27236,-23.82731 -0.14173,5.27562 14.4062,14.64452 10.75392,15.10012 -7.64901,-0.27138 -25.62688,-19.22296 -10.35796,-18.23843 7.86612,8.39558 19.69903,14.48205 30.24672,15.74853 0.71818,-3.9278 7.1561,-7.48787 -1.67695,-7.30014 -13.54837,-3.00448 -28.10373,-13.28486 -35.33277,-25.87944 1.46892,-6.50287 -18.04893,-8.54475 -12.22168,-14.45703 3.63963,3.58736 16.88434,4.82195 8.59215,-2.11439 -12.25057,-6.76019 3.80444,-7.8369 7.69407,-1.64098 11.32201,-4.32842 -0.43321,-5.2696 -3.18394,-10.745 5.35162,1.01424 17.93503,2.77189 20.84686,-0.51998 -11.38182,-8.81024 -18.52092,-21.94031 -30.22392,-30.36691 -6.9996,-8.28797 -0.60575,-9.93366 5.02829,-3.31119 12.75224,8.79856 27.01475,15.50113 38.78076,25.60197 9.03964,10.04369 4.67088,24.97768 15.54672,34.41071 -3.50911,3.5125 -17.22122,-18.35834 -21.67456,-12.7756 -0.89434,14.45688 17.73699,18.74847 20.36122,30.7586 -6.42552,-7.65336 -16.17746,-11.82139 -23.37428,-17.46837 -2.11113,15.81443 24.799,16.72232 18.80058,31.86549 -8.30054,10.31832 2.65343,21.80368 9.17035,29.54042 0.30005,-3.52052 10.57534,-16.50197 5.14761,-6.63976 0.0644,12.42073 8.94559,4.33155 5.08531,-3.58627 -1.36776,-8.37776 3.16106,-17.87338 -3.75008,-23.22642 1.94481,-12.25118 22.32803,-14.47247 19.90279,-28.46664 -6.28521,6.08977 -18.96449,14.14183 -23.09512,16.12085 5.4366,-10.20765 23.10285,-16.87212 19.50676,-30.94621 -6.48243,1.34599 -17.09905,18.26878 -20.87895,14.53771 12.08563,-8.46934 5.77977,-26.28335 16.54165,-35.32077 10.25147,-6.4242 19.62353,-13.39195 30.01951,-19.25079 4.02904,-3.34247 21.39827,-15.43698 13.43792,-3.18828 -9.82193,9.33212 -18.27866,19.79357 -27.9717,29.15224 -9.33257,8.14482 10.78611,2.83596 14.82366,4.07496 14.0541,-3.8415 -15.75709,7.32445 -0.86335,9.37824 3.45683,0.0192 17.63167,-9.39094 11.88167,-0.46969 -8.031,3.48437 -7.23262,11.50543 1.75931,5.77295 14.99051,-2.26776 -7.11231,7.74729 -9.12197,12.08448 -4.58195,14.64741 -21.17726,21.13955 -33.78857,27.92528 -5.91916,-3.92388 -8.33447,2.94768 -2.66023,5.16677 0.33912,5.10774 12.36506,-4.10109 17.32816,-4.21836 4.02425,-3.95092 19.01143,-17.74202 19.59636,-5.49123 -2.04012,5.82804 -19.80623,15.54083 -17.71934,12.58832 5.45632,-3.3945 16.77827,-21.07914 5.80548,-8.8329 -9.04715,8.41131 -24.91045,6.15704 -25.79453,21.17435 -2.76975,8.69829 14.30163,-13.91318 11.68748,-7.60007 -7.28807,4.24444 -1.46765,5.28755 3.44835,3.32954 -9.83371,7.30318 0.45701,4.83569 0.59772,5.61209 -10.49207,7.67419 -1.8034,25.92435 -17.18801,27.91174 -0.43663,0.33466 -3.46979,1.10786 -2.57844,-0.75744 z m -19.23683,-15.07593 c 9.22597,-5.28677 -8.83311,-20.75002 -4.16646,-6.36424 0.97077,1.98866 0.92176,6.82301 4.16646,6.36424 z m -18.99365,-41.92854 c -6.68402,-7.45129 -20.46891,-20.91379 -22.32478,-24.45249 -1.26143,12.57435 9.75432,19.67261 19.70114,23.98848 z m 54.55708,-0.0389 c 10.60562,-1.7036 26.10556,-21.2852 19.16215,-24.20775 -2.86621,11.23331 -15.33887,14.64292 -20.43159,24.08914 z m -111.25729,15.17012 c 6.80291,-11.05357 32.33019,-8.15985 32.34123,-2.08185 -9.82887,-2.61567 -28.12896,4.10664 -32.34123,2.08185 z m 165.49687,1.0153 c -8.62006,-4.14143 -29.98197,-1.72311 -31.48444,-4.84134 8.89474,-8.04147 30.89096,-2.21629 31.48444,4.84134 z M 412.48542,380.89941 c 4.82633,-10.41063 27.67106,-13.56588 27.4059,-4.86317 -9.36918,-1.47215 -18.95669,0.8084 -27.4059,4.86317 z m 169.59791,-1.37979 c -6.04849,-5.83876 -22.94717,-1.22467 -23.48377,-5.8267 6.57057,-10.26049 27.99233,4.92257 24.35612,6.21321 l -0.6362,-0.28188 z"
         id="path19" /><path
         style="fill:#9a9995"
         d="m 496.09481,455.58619 c -9.74009,-2.52324 -20.51437,-19.2596 -19.21018,-23.84336 11.03274,3.20315 19.71084,17.3249 30.95263,7.76121 3.44752,-4.68145 21.28814,-12.17094 11.54052,-1.6561 -5.00025,8.39682 -11.72546,19.77401 -23.28297,17.73825 z m 8.60717,-5.76003 c 13.63844,-6.41401 -9.60022,-3.40142 -14.12997,-3.56091 -9.90812,-0.6999 12.23411,7.9101 14.12997,3.56091 z m -37.44781,-41.05428 c 0.13091,-6.45353 -10.73892,-6.30808 -3.59762,-2.56278 -9.46264,-8.89172 -22.00671,-8.54696 -34.09041,-9.79442 -6.52868,-0.1664 -20.21224,-0.51553 -13.77343,-2.05804 9.79034,-3.75268 29.4843,-2.34775 33.29498,-4.91245 -7.88441,-14.8613 -24.58492,-9.87497 -37.0385,-7.00634 5.48514,-6.94897 19.44598,-6.38112 28.87709,-7.06617 -3.81992,-5.45932 -12.13604,-15.95756 -13.32682,-17.54545 7.12326,5.96541 14.52783,-0.68332 6.01386,-6.56615 -5.02856,-5.33087 -2.9641,-7.91473 1.1485,-1.59693 12.20531,5.12095 14.53348,17.97234 20.84392,28.56352 1.27014,-1.60809 -15.72598,-4.31949 -9.40643,5.05383 5.33715,3.92669 16.81824,15.5491 16.17936,16.92986 -15.73574,-6.42124 10.41394,6.23129 4.8755,8.56152 z m 63.32591,-0.45462 c 3.13591,-3.47781 -4.24708,-0.22975 2.60826,-4.07026 5.70986,-3.3331 9.8373,-8.52702 0.44418,-3.26041 4.59169,-6.18644 15.49158,-11.95253 18.73875,-20.7917 -2.12092,-13.41891 -20.83121,11.1309 -19.38842,6.29431 11.83783,-7.46716 14.98295,-22.56464 23.05757,-32.51021 5.51782,-0.42634 17.50461,-14.66493 8.5328,-3.82971 -5.25823,4.33704 -6.7886,15.19676 2.63901,8.75013 11.56528,-5.67489 -6.19175,7.31124 -6.51143,11.84526 -9.16328,9.9156 10.71776,1.83511 16.28763,6.9028 5.61756,0.3092 13.82641,7.02337 3.31501,4.40799 -10.19371,-3.95899 -23.06458,-6.80578 -28.86879,5.51293 -7.41266,7.52977 11.75726,0.39982 16.71886,4.16979 5.01899,-0.29281 24.54309,5.48187 9.56587,4.55464 -9.54206,-0.75223 -19.22686,1.36733 -28.85073,2.02883 -6.71179,1.86265 -12.25297,6.67706 -18.28857,9.99561 z m -14.51207,-18.05973 c -9.98951,-3.71811 2.15382,-5.90424 6.37325,-5.66855 4.22706,-3.27596 20.24699,-12.32763 9.60379,-2.06452 -5.11728,3.00281 -12.34381,2.35882 -15.97704,7.73307 z m -35.51854,-1.28461 c -5.20267,-3.86997 -21.69548,-7.82591 -18.37062,-12.37051 5.39169,7.0508 21.80278,6.66739 22.80932,13.07769 -1.33226,0.99219 -3.49662,0.66799 -4.4387,-0.70718 z m 71.7752,-42.88665 c 8.11343,-1.33551 8.32552,-10.63292 8.28444,-11.97906 4.30854,-2.28625 10.30785,-14.45634 1.6575,-6.12149 -3.41411,5.90003 -16.64262,12.95331 -18.47061,8.78846 11.13546,-7.20498 19.50804,-19.40013 27.64545,-30.13151 2.27817,-5.56392 8.82606,-15.09822 4.96456,-3.05756 -5.0252,10.13602 -3.25886,22.03873 -9.15252,31.74082 -3.47763,5.38788 -9.25229,8.27476 -14.92882,10.76034 z m -110.3604,-1.82884 c -12.55165,-5.55913 -15.52353,-19.01817 -17.18111,-30.93341 -2.76303,-5.52914 -6.89833,-24.721 -0.19364,-10.01877 8.36199,12.60738 17.88595,25.34938 30.00003,34.23119 -10.58336,5.18962 -18.06873,-14.61629 -24.36587,-11.44134 3.21701,5.16007 13.87803,9.72955 6.92494,13.30175 1.39313,2.02192 12.75947,9.05237 4.81565,4.86058 z"
         id="path18" /><path
         style="fill:#454644"
         d="m 499.02979,524.37267 c -2.5761,-21.45232 -19.92996,-37.0014 -26.0606,-57.19928 -3.40793,-3.45608 1.31692,15.32169 -0.67565,20.32571 -0.18235,6.79372 -5.86883,13.9766 -6.41796,2.87217 -2.56605,-12.774 -20.34041,-23.94951 -12.26481,-37.40841 3.24564,-3.45743 13.74909,-19.08306 5.22358,-9.14738 -9.28485,6.78447 -15.27311,17.13634 -15.60554,27.8618 -10.64691,-6.58946 -15.51962,-22.21487 -11.2335,-34.09723 0.15153,-4.80489 18.28956,-20.31929 7.13123,-11.35354 -8.88996,10.34129 -23.41993,16.90703 -30.41398,27.71891 -5.25741,-10.40388 -4.42616,-25.4616 4.33098,-33.85242 2.40791,-3.85512 19.86915,-10.87898 15.57811,-10.42713 -12.08989,8.44698 -27.53306,10.56981 -39.41163,18.95492 -9.36076,6.67497 0.26816,-12.5721 2.42688,-15.83759 2.12385,-8.07427 18.88757,-21.57954 17.45974,-20.55809 -10.59335,1.27605 -21.28237,1.17099 -31.93307,1.18985 8.78385,-9.94033 28.88046,-18.88824 35.72437,-21.176 -6.90248,-2.31233 -25.12063,-1.54971 -24.64585,-4.63323 9.12051,-6.46202 26.60274,-12.42128 31.14366,-18.11346 -6.49293,0.15292 -30.96866,-1.82005 -15.37671,-7.59466 10.95474,-1.49029 25.61055,-15.67392 32.55664,-1.18798 4.17706,2.47049 13.2173,9.54724 2.49001,6.03253 -7.66643,-3.94308 -11.38432,-0.47332 -4.35254,5.57934 7.99425,10.22431 -5.6565,2.16554 -9.46871,3.94983 5.03523,5.27431 19.05573,17.19396 3.02287,14.15516 -5.73706,0.85683 -18.62417,10.20236 -15.12219,12.39475 9.77696,-2.38529 28.88668,-8.95127 31.68463,3.91551 -10.30182,-2.59573 -22.2762,-1.78576 -29.66658,6.73855 -3.17133,7.55158 13.35153,-0.46378 17.8272,3.2795 11.7602,0.5254 22.87858,2.35916 32.15497,10.31446 12.3041,7.67949 6.38528,25.00938 15.56942,35.19009 5.64115,2.71449 9.11695,15.46367 11.48063,15.74536 -1.21539,-7.89302 16.7864,-0.53221 15.17095,-0.12086 1.68386,-11.24884 13.70013,-16.84333 15.67464,-27.68425 -0.82086,-13.69643 7.20156,-24.43787 19.56379,-29.45579 10.10407,-4.73699 21.6769,-3.67774 32.61771,-4.58693 5.90096,0.56065 12.38368,-0.29289 4.43497,-5.34334 -7.83981,-6.12607 -19.27993,-7.41634 -28.18298,-2.87985 5.36671,-16.33266 25.16714,-4.49301 34.6498,-6.56177 -4.99193,-9.0416 -17.93903,-10.9141 -24.69916,-11.84585 2.47853,-5.37078 19.02712,-18.28924 3.31477,-12.24721 -12.78634,3.84628 13.21664,-17.81692 -2.5143,-11.49013 -4.82812,6.3597 -14.41258,-0.68993 -3.55402,-1.96046 5.64259,-9.21074 13.39898,-12.87604 23.03987,-6.11367 6.16023,1.51129 27.94699,8.51321 10.959,10.36928 -5.23798,-0.44142 -19.20479,1.6183 -7.47345,6.37064 6.0781,4.81446 24.4458,7.93733 22.75849,14.78364 -6.26823,1.24569 -19.38844,0.0634 -21.98413,3.6395 10.39574,2.87869 31.50605,12.47583 30.80057,20.37836 -8.74722,0.41599 -24.43769,-1.51886 -28.82848,-0.55998 12.4148,7.57169 21.28238,20.56277 24.23172,34.76186 -4.57974,4.28658 -13.00242,-9.2788 -20.98431,-7.36611 -4.58833,-1.47253 -18.59124,-10.3414 -16.09325,-8.3866 13.41454,6.59091 20.40798,22.78456 16.33434,37.00305 -4.68933,13.50176 -7.66412,-7.26224 -15.29312,-8.14112 -7.63457,-5.70309 -16.14226,-10.42103 -22.57422,-17.58338 10.16295,8.96144 19.46697,22.56626 11.09235,35.96363 -1.05038,5.67231 -12.20765,19.53366 -10.90698,5.9204 -0.71342,-10.38258 -13.63249,-20.35887 -17.97882,-23.90849 9.44025,8.97683 15.56164,25.14428 3.34737,35.02645 -5.87999,3.58787 -6.40486,29.41516 -13.11235,14.58707 -2.76017,-7.00258 2.13129,-22.34061 -1.24282,-24.52804 -5.82411,17.47781 -18.58316,31.78787 -23.33865,49.76565 -0.88861,2.82503 -1.79415,5.65694 -2.3849,8.56226 z m -8.02482,-82.98153 c -13.5952,-10.83876 8.29102,-25.49188 18.00811,-14.89237 8.09774,12.64884 -7.63812,19.42168 -18.00811,14.89237 z m -0.94533,-21.31465 c -5.4541,-3.88836 -2.49158,-20.26198 2.96939,-8.39379 0.92317,2.60312 0.54152,7.98355 -2.96939,8.39379 z m 8.30604,-2.22491 c -5.08806,-8.61384 -13.37783,-16.29438 -10.27016,-26.89386 13.89716,-12.15895 -10.5704,-15.55484 -13.59482,-26.22834 -2.48279,-4.46327 -3.93192,-12.71726 1.11604,-4.74547 5.70246,3.56657 19.45758,13.26413 19.33722,13.12303 -3.52744,-12.11066 -24.80879,-17.04664 -19.08659,-31.92392 7.22722,4.05163 13.42288,14.87691 21.21505,15.64876 -10.47149,-8.57565 -8.52287,-22.73021 -14.27961,-33.73753 -5.02317,-8.80784 -29.34344,-11.12409 -19.99681,-21.63937 3.61288,-5.43968 6.1686,-3.63364 8.59243,-11.46635 4.43196,-6.21966 8.35241,2.86897 9.45811,-6.52084 4.01854,-9.67488 3.93244,-1.87306 3.9671,3.07086 5.26445,-8.08586 16.61859,-18.79105 23.32539,-5.54411 3.67183,5.48903 6.47668,6.98037 5.0061,-0.85582 3.91645,-5.00803 6.15066,19.86375 9.43369,5.64054 4.518,5.54146 8.53406,16.07473 12.85232,16.06465 3.99412,14.22904 -19.25261,12.92678 -22.78599,25.37872 -1.57411,10.37943 -3.33735,20.40382 -11.0068,28.54503 -1.18259,5.18894 10.67407,-6.96375 14.29426,-9.47183 3.84804,-4.6565 8.26154,-8.28331 6.58652,0.70993 -0.35317,11.67199 -21.14645,18.70848 -18.64554,26.71939 6.02771,-7.56029 15.6494,-11.18152 22.41657,-16.97428 2.23526,15.82507 -26.23351,17.0723 -18.52296,32.10337 7.36585,10.93476 -3.86896,20.65853 -9.41152,28.99744 z m 15.32749,-7.87971 c 0.57607,-14.90664 16.84596,-17.89119 26.7858,-24.32423 10.38527,-10.37291 -2.75977,8.1529 -8.09783,9.2724 -6.7533,4.2659 -14.36946,7.99219 -18.68797,15.05183 z m -32.73758,-3.10885 c -6.72034,-11.11703 -23.38013,-11.94447 -27.90434,-24.95602 7.29792,10.67335 23.08869,7.13347 28.23073,19.56796 1.24732,2.26855 4.06527,11.26959 -0.32639,5.38806 z m -6.17403,-3.62143 c -7.20291,0.3154 -16.33091,-5.63822 -18.57969,-11.59979 5.30517,5.15003 15.73631,3.98682 18.57969,11.59979 z m 47.66027,0.0191 c 2.36208,-6.43214 26.71291,-14.94015 14.46183,-5.25002 -4.179,3.1128 -9.31705,4.73439 -14.46183,5.25002 z m -6.88173,-10.81743 c 7.42814,-9.63743 22.10314,-10.27867 27.86417,-21.87662 7.5602,-1.02033 -6.40051,15.04308 -11.71773,16.06036 -4.72325,2.17464 -13.0542,6.17515 -16.14644,5.81626 z m -34.80441,-0.20804 c -11.51757,-2.47231 -27.55726,-11.39257 -28.45898,-22.32333 8.88661,5.68035 14.73837,16.20417 26.18196,17.43657 0.83518,0.45521 6.98144,5.91519 2.27702,4.88676 z M 468.29096,376.548 c -10.13311,-5.00194 -20.52676,-12.32924 -18.00488,-25.21981 1.69539,10.13877 14.8443,16.54286 20.74069,25.50303 1.91589,3.06202 -2.00344,-0.20733 -2.73581,-0.28322 z m 57.08334,1.36519 c 6.84556,-7.43731 19.89234,-18.92451 22.16832,-24.53584 1.66725,14.5916 -11.16153,19.76721 -22.16832,24.53584 z m -77.93022,-37.97583 c -4.78231,-2.66918 -19.81081,-11.6738 -14.53479,-14.68284 6.4908,4.9638 12.03962,15.30956 21.56714,12.3081 -0.9604,1.29695 -5.9373,5.4804 -7.03235,2.37474 z m 100.24342,0.87135 c -9.79304,-5.17876 12.57125,-1.93297 12.29516,-11.24033 4.21466,-4.98209 11.60158,-5.63558 3.72888,1.15063 -4.52884,4.43983 -10.08709,7.87966 -16.02404,10.0897 z m -100.55633,-10.1717 c -13.6643,-12.39826 -24.37272,-28.09689 -31.84548,-44.83654 -1.42286,-14.38524 10.99455,3.18386 15.92835,5.76367 8.2301,10.34962 17.93573,19.29628 26.58,29.73982 4.17155,5.04825 16.75607,10.70723 2.84084,10.53877 -4.49944,0.0849 -9.17249,0.19304 -13.50371,-1.20572 z m 83.08298,0.38341 c 10.43878,-8.21734 16.88602,-20.64687 27.96991,-28.0197 3.27052,-7.1044 9.66388,-13.2835 14.04925,-15.8194 2.04817,-8.5959 16.69563,-9.62379 9.14085,1.18708 -7.38325,15.26937 -16.84958,29.77762 -29.06248,41.44624 -6.83963,3.89259 -14.82545,0.50655 -22.09753,1.20578 z"
         id="path17" /></g></g></svg>
