<?xml version="1.0" encoding="UTF-8" standalone="no"?>
<!-- Created with Inkscape (http://www.inkscape.org/) -->

<svg
   width="191.7643mm"
   height="98.922447mm"
   viewBox="0 0 191.76429 98.922448"
   version="1.1"
   id="svg1"
   inkscape:version="1.4.3 (0d15f75, 2025-12-25)"
   sodipodi:docname="Corner Panel BTM.svg"
   xml:space="preserve"
   inkscape:export-filename="UITopWedge.svg"
   inkscape:export-xdpi="31.998411"
   inkscape:export-ydpi="31.998411"
   xmlns:inkscape="http://www.inkscape.org/namespaces/inkscape"
   xmlns:sodipodi="http://sodipodi.sourceforge.net/DTD/sodipodi-0.dtd"
   xmlns:xlink="http://www.w3.org/1999/xlink"
   xmlns="http://www.w3.org/2000/svg"
   xmlns:svg="http://www.w3.org/2000/svg"><sodipodi:namedview
     id="namedview1"
     pagecolor="#ffffff"
     bordercolor="#000000"
     borderopacity="0.25"
     inkscape:showpageshadow="2"
     inkscape:pageopacity="0.0"
     inkscape:pagecheckerboard="0"
     inkscape:deskcolor="#d1d1d1"
     inkscape:document-units="mm"
     inkscape:zoom="0.35355339"
     inkscape:cx="914.99618"
     inkscape:cy="657.60931"
     inkscape:window-width="1920"
     inkscape:window-height="1009"
     inkscape:window-x="-8"
     inkscape:window-y="-8"
     inkscape:window-maximized="1"
     inkscape:current-layer="svg1"><inkscape:page
       x="0"
       y="0"
       width="191.7643"
       height="98.922447"
       id="page2"
       margin="0"
       bleed="0" /></sodipodi:namedview><defs
     id="defs1"><linearGradient
       id="linearGradient103"><stop
         style="stop-color:#d3bcb2;stop-opacity:1;"
         offset="0"
         id="stop101" /><stop
         style="stop-color:#8f7569;stop-opacity:1;"
         offset="0.13419913"
         id="stop102" /><stop
         style="stop-color:#654b40;stop-opacity:1;"
         offset="1"
         id="stop103" /></linearGradient><linearGradient
       id="linearGradient80"><stop
         style="stop-color:#d99a7d;stop-opacity:1;"
         offset="0"
         id="stop99" /><stop
         style="stop-color:#894a30;stop-opacity:1;"
         offset="1"
         id="stop100" /></linearGradient><linearGradient
       id="linearGradient80-2"><stop
         style="stop-color:#b7a89f;stop-opacity:1;"
         offset="0"
         id="stop91" /><stop
         style="stop-color:#506669;stop-opacity:1;"
         offset="1"
         id="stop92" /></linearGradient><linearGradient
       id="linearGradient73"><stop
         style="stop-color:#d99a7d;stop-opacity:1;"
         offset="0"
         id="stop86" /><stop
         style="stop-color:#894a30;stop-opacity:1;"
         offset="1"
         id="stop87" /></linearGradient><linearGradient
       id="linearGradient80-1"><stop
         style="stop-color:#386b8d;stop-opacity:1;"
         offset="0"
         id="stop79" /><stop
         style="stop-color:#1e3352;stop-opacity:1;"
         offset="1"
         id="stop80" /></linearGradient><linearGradient
       id="linearGradient73-1"><stop
         style="stop-color:#e9b49c;stop-opacity:1;"
         offset="0"
         id="stop73" /><stop
         style="stop-color:#be633a;stop-opacity:1;"
         offset="0.13419913"
         id="stop88" /><stop
         style="stop-color:#7a422b;stop-opacity:1;"
         offset="1"
         id="stop74" /></linearGradient><pattern
       inkscape:collect="always"
       xlink:href="#pattern11"
       preserveAspectRatio="xMidYMid"
       id="pattern61"
       patternTransform="matrix(0.39165394,0.07920096,-0.11736912,0.58039777,426.69292,291.95361)"
       x="0"
       y="0" /><pattern
       patternUnits="userSpaceOnUse"
       width="15"
       height="25"
       patternTransform="translate(570,215)"
       preserveAspectRatio="xMidYMid"
       style="fill:#ce9f75"
       id="pattern11"
       inkscape:label="Abstract 4"
       inkscape:collect="always"
       inkscape:isstock="true"><g
         id="g7"
         transform="translate(-570,-215)"><path
           style="stroke-width:4.8561;stroke-linecap:square;paint-order:stroke markers fill;stop-color:#000000"
           d="m 585,225 -10,10 v 5 h 10 z"
           id="path7"
           sodipodi:nodetypes="ccccc" /><path
           id="path8"
           style="stroke-width:4.8561;stroke-linecap:square;paint-order:stroke markers fill;stop-color:#000000"
           d="m 580,215 h -5 v 5 z m -10,10 v 5 h 5 l 10,-10 v -5 h -5 z" /></g></pattern><linearGradient
       id="linearGradient50"
       inkscape:collect="always"><stop
         style="stop-color:#e1cfc2;stop-opacity:1;"
         offset="0"
         id="stop50" /><stop
         style="stop-color:#806e64;stop-opacity:1;"
         offset="1"
         id="stop51" /></linearGradient><linearGradient
       inkscape:collect="always"
       xlink:href="#linearGradient50"
       id="linearGradient51"
       x1="-129.71667"
       y1="342.3667"
       x2="-89.922745"
       y2="367.2327"
       gradientUnits="userSpaceOnUse"
       spreadMethod="reflect" /><filter
       style="color-interpolation-filters:sRGB"
       inkscape:label="Blur"
       id="filter51"
       x="-0.0037352755"
       y="-0.0073680802"
       width="1.0074706"
       height="1.0147362"><feGaussianBlur
         stdDeviation="0.1 0.1"
         result="blur"
         id="feGaussianBlur51" /></filter><filter
       style="color-interpolation-filters:sRGB"
       inkscape:label="Blur"
       id="filter72"
       x="-0.021719991"
       y="-0.022694744"
       width="1.0434394"
       height="1.0453903"><feGaussianBlur
         stdDeviation="0.3 0.3"
         result="blur"
         id="feGaussianBlur72" /></filter><filter
       style="color-interpolation-filters:sRGB"
       inkscape:label="Blur"
       id="filter51-1"
       x="-0.005208793"
       y="-0.0082335093"
       width="1.0095401"
       height="1.0179944"><feGaussianBlur
         stdDeviation="0.1 0.1"
         result="blur"
         id="feGaussianBlur51-3" /></filter><radialGradient
       inkscape:collect="always"
       xlink:href="#linearGradient73"
       id="radialGradient74"
       cx="145.62628"
       cy="373.13791"
       fx="145.62628"
       fy="373.13791"
       r="94.528374"
       gradientTransform="matrix(0.9779209,-0.14484976,0.04094978,0.27646332,-12.064624,321.49266)"
       gradientUnits="userSpaceOnUse"
       spreadMethod="reflect" /><filter
       style="color-interpolation-filters:sRGB"
       inkscape:label="Blur"
       id="filter72-6"
       x="-0.023133099"
       y="-0.020644897"
       width="1.0462645"
       height="1.0412905"><feGaussianBlur
         stdDeviation="0.3 0.3"
         result="blur"
         id="feGaussianBlur72-1" /></filter><filter
       style="color-interpolation-filters:sRGB"
       inkscape:label="Blur"
       id="filter90"
       x="-0.0065997454"
       y="-0.014172988"
       width="1.0131995"
       height="1.028346"><feGaussianBlur
         stdDeviation="1 0.3"
         result="blur"
         id="feGaussianBlur90" /></filter></defs><g
     inkscape:groupmode="layer"
     id="layer5"
     inkscape:label="Corner Panel BTM"
     style="display:inline"
     inkscape:export-filename="Corner Panel BTM.svg"
     inkscape:export-xdpi="31.998411"
     inkscape:export-ydpi="31.998411"
     transform="translate(7.3661443,-387.53901)"><path
       style="display:inline;fill:#cb937b;fill-opacity:1;stroke:#a16a4d;stroke-width:1.2;stroke-linejoin:round;stroke-dasharray:none;stroke-opacity:1"
       d="m 121.63383,396.27601 11.2249,9.66078 10.94889,0.18402 -11.68494,-9.9368 z"
       id="path55"
       sodipodi:nodetypes="ccccc" /><path
       style="display:inline;fill:url(#linearGradient51);fill-opacity:1;stroke:#dfdcb6;stroke-width:1.8;stroke-linejoin:round;stroke-dasharray:none;stroke-opacity:1"
       d="m -214.56485,303.14278 h 116.976226 l 17.565951,15.22382 h 17.956307 l 23.941741,19.77797 -53.564032,53.80848 -123.006313,-0.0697 z"
       id="path50"
       transform="translate(212.48296,88.642994)"
       sodipodi:nodetypes="cccccccc" /><g
       inkscape:groupmode="layer"
       id="layer4"
       inkscape:label="Btm Circuits"
       style="display:inline"><g
         inkscape:groupmode="layer"
         id="layer3"
         inkscape:label="Outlines"
         style="display:inline;fill:none;stroke:#c17628;stroke-width:1.8;stroke-dasharray:none;stroke-opacity:1"><circle
           id="circle36"
           cx="-194.26642"
           cy="308.83545"
           r="1.6915362"
           transform="translate(212.48296,88.642994)"
           style="fill:none;stroke:#c17628;stroke-width:1.8;stroke-linejoin:round;stroke-dasharray:none;stroke-opacity:1" /><circle
           id="circle37"
           cx="-185.70316"
           cy="323.56964"
           r="1.6915362"
           transform="translate(212.48296,88.642994)"
           style="fill:none;stroke:#c17628;stroke-width:1.8;stroke-linejoin:round;stroke-dasharray:none;stroke-opacity:1" /><circle
           id="circle38"
           cx="-74.513092"
           cy="331.37271"
           r="1.6915362"
           transform="translate(212.48296,88.642994)"
           style="fill:none;stroke:#c17628;stroke-width:1.8;stroke-linejoin:round;stroke-dasharray:none;stroke-opacity:1" /><circle
           id="circle39"
           cx="-64.723511"
           cy="337.98727"
           r="1.6915362"
           transform="translate(212.48296,88.642994)"
           style="fill:none;stroke:#c17628;stroke-width:1.8;stroke-linejoin:round;stroke-dasharray:none;stroke-opacity:1" /><circle
           id="circle40"
           cx="-53.081837"
           cy="344.07269"
           r="1.6915362"
           transform="translate(212.48296,88.642994)"
           style="fill:none;stroke:#c17628;stroke-width:1.8;stroke-linejoin:round;stroke-dasharray:none;stroke-opacity:1" /><circle
           id="circle41"
           cx="-83.244339"
           cy="344.07269"
           r="1.6915362"
           transform="translate(212.48296,88.642994)"
           style="fill:none;stroke:#c17628;stroke-width:1.8;stroke-linejoin:round;stroke-dasharray:none;stroke-opacity:1" /><circle
           id="circle42"
           cx="-60.49017"
           cy="350.15811"
           r="1.6915362"
           transform="translate(212.48296,88.642994)"
           style="fill:none;stroke:#c17628;stroke-width:1.8;stroke-linejoin:round;stroke-dasharray:none;stroke-opacity:1" /><circle
           id="circle43"
           cx="-67.104759"
           cy="355.71436"
           r="1.6915362"
           transform="translate(212.48296,88.642994)"
           style="fill:none;stroke:#c17628;stroke-width:1.8;stroke-linejoin:round;stroke-dasharray:none;stroke-opacity:1" /><circle
           id="circle44"
           cx="-82.715172"
           cy="361.00604"
           r="1.6915362"
           transform="translate(212.48296,88.642994)"
           style="fill:none;stroke:#c17628;stroke-width:1.8;stroke-linejoin:round;stroke-dasharray:none;stroke-opacity:1" /><circle
           id="circle45"
           cx="-136.69017"
           cy="343.27896"
           r="1.6915362"
           transform="translate(212.48296,88.642994)"
           style="fill:none;stroke:#c17628;stroke-width:1.8;stroke-linejoin:round;stroke-dasharray:none;stroke-opacity:1" /><circle
           id="circle46"
           cx="-130.86934"
           cy="354.65604"
           r="1.6915362"
           transform="translate(212.48296,88.642994)"
           style="fill:none;stroke:#c17628;stroke-width:1.8;stroke-linejoin:round;stroke-dasharray:none;stroke-opacity:1" /><circle
           id="circle47"
           cx="-141.98184"
           cy="367.88519"
           r="1.6915362"
           transform="translate(212.48296,88.642994)"
           style="fill:none;stroke:#c17628;stroke-width:1.8;stroke-linejoin:round;stroke-dasharray:none;stroke-opacity:1" /><circle
           id="circle48"
           cx="-130.60475"
           cy="371.06021"
           r="1.6915362"
           transform="translate(212.48296,88.642994)"
           style="fill:none;stroke:#c17628;stroke-width:1.8;stroke-linejoin:round;stroke-dasharray:none;stroke-opacity:1" /><circle
           id="circle49"
           cx="-125.31309"
           cy="377.1456"
           r="1.6915362"
           transform="translate(212.48296,88.642994)"
           style="fill:none;stroke:#c17628;stroke-width:1.8;stroke-linejoin:round;stroke-dasharray:none;stroke-opacity:1" /><path
           id="path49"
           d="m -123.5472,377.18001 19.77796,-0.065 3.968608,3.31801 19.84302,-0.13012 m -49.054548,-9.23844 h 26.41399 l 4.228836,4.48907 h 22.705621 m -65.189197,-8.97813 6.11555,-5.39991 13.9877,-0.0651 5.79026,5.46497 24.332097,-0.13012 5.139669,4.81436 h 13.272053 m -56.926699,-16.65509 8.97816,0.13013 5.59508,6.31073 h 30.057292 m -108.127262,-52.15677 48.51757,-0.0595 19.50558,18.5855 h 19.04554 l 4.14033,-4.23233 10.580858,-0.18402 8.556691,8.09665 h 6.164498 m -29.723187,-3.68507 10.734753,10.47451 h 28.756113 m -118.212346,-15.48406 7.09144,-6.96132 30.96812,0.26023 19.51772,18.80208 10.08416,0.0651 16.19971,15.22382 38.449919,0.19518 m -19.387607,-5.92042 26.869401,-0.065 m -14.117821,11.64552 -34.416252,-0.0651 -13.01182,-12.42628 h -18.73701"
           transform="translate(212.48296,88.642994)"
           style="fill:none;stroke:#c17628;stroke-width:1.8;stroke-linejoin:round;stroke-dasharray:none;stroke-opacity:1" /></g><g
         inkscape:groupmode="layer"
         id="layer2"
         inkscape:label="Glow"
         style="fill:none;stroke:#ffeeaa;stroke-width:0.6;stroke-linejoin:round;stroke-dasharray:none;filter:url(#filter51)"><circle
           id="path17"
           cx="-194.26642"
           cy="308.83545"
           r="1.6915362"
           transform="translate(212.48296,88.642994)"
           style="stroke-width:0.6;stroke-linejoin:round;stroke-dasharray:none" /><circle
           id="path17-5"
           cx="-185.70316"
           cy="323.56964"
           r="1.6915362"
           transform="translate(212.48296,88.642994)"
           style="stroke-width:0.6;stroke-linejoin:round;stroke-dasharray:none" /><circle
           id="path17-1"
           cx="-74.513092"
           cy="331.37271"
           r="1.6915362"
           transform="translate(212.48296,88.642994)"
           style="stroke-width:0.6;stroke-linejoin:round;stroke-dasharray:none" /><circle
           id="path17-14"
           cx="-64.723511"
           cy="337.98727"
           r="1.6915362"
           transform="translate(212.48296,88.642994)"
           style="stroke-width:0.6;stroke-linejoin:round;stroke-dasharray:none" /><circle
           id="path17-16"
           cx="-53.081837"
           cy="344.07269"
           r="1.6915362"
           transform="translate(212.48296,88.642994)"
           style="stroke-width:0.6;stroke-linejoin:round;stroke-dasharray:none" /><circle
           id="path17-18"
           cx="-83.244339"
           cy="344.07269"
           r="1.6915362"
           transform="translate(212.48296,88.642994)"
           style="stroke-width:0.6;stroke-linejoin:round;stroke-dasharray:none" /><circle
           id="path17-54"
           cx="-60.49017"
           cy="350.15811"
           r="1.6915362"
           transform="translate(212.48296,88.642994)"
           style="stroke-width:0.6;stroke-linejoin:round;stroke-dasharray:none" /><circle
           id="path17-3"
           cx="-67.104759"
           cy="355.71436"
           r="1.6915362"
           transform="translate(212.48296,88.642994)"
           style="stroke-width:0.6;stroke-linejoin:round;stroke-dasharray:none" /><circle
           id="path17-8"
           cx="-82.715172"
           cy="361.00604"
           r="1.6915362"
           transform="translate(212.48296,88.642994)"
           style="stroke-width:0.6;stroke-linejoin:round;stroke-dasharray:none" /><circle
           id="path17-7"
           cx="-136.69017"
           cy="343.27896"
           r="1.6915362"
           transform="translate(212.48296,88.642994)"
           style="stroke-width:0.6;stroke-linejoin:round;stroke-dasharray:none" /><circle
           id="path17-86"
           cx="-130.86934"
           cy="354.65604"
           r="1.6915362"
           transform="translate(212.48296,88.642994)"
           style="stroke-width:0.6;stroke-linejoin:round;stroke-dasharray:none" /><circle
           id="path17-6"
           cx="-141.98184"
           cy="367.88519"
           r="1.6915362"
           transform="translate(212.48296,88.642994)"
           style="stroke-width:0.6;stroke-linejoin:round;stroke-dasharray:none" /><circle
           id="path17-65"
           cx="-130.60475"
           cy="371.06021"
           r="1.6915362"
           transform="translate(212.48296,88.642994)"
           style="stroke-width:0.6;stroke-linejoin:round;stroke-dasharray:none" /><circle
           id="path17-61"
           cx="-125.31309"
           cy="377.1456"
           r="1.6915362"
           transform="translate(212.48296,88.642994)"
           style="stroke-width:0.6;stroke-linejoin:round;stroke-dasharray:none" /><path
           id="path21"
           d="m -123.5472,377.18001 19.77796,-0.065 3.968608,3.31801 19.84302,-0.13012 m -49.054548,-9.23844 h 26.41399 l 4.228836,4.48907 h 22.705621 m -65.189197,-8.97813 6.11555,-5.39991 13.9877,-0.0651 5.79026,5.46497 24.332097,-0.13012 5.139669,4.81436 h 13.272053 m -56.926699,-16.65509 8.97816,0.13013 5.59508,6.31073 h 30.057292 m -108.127262,-52.15677 48.51757,-0.0595 19.50558,18.5855 h 19.04554 l 4.14033,-4.23233 10.580858,-0.18402 8.556691,8.09665 h 6.164498 m -29.723187,-3.68507 10.734753,10.47451 h 28.756113 m -118.212346,-15.48406 7.09144,-6.96132 30.96812,0.26023 19.51772,18.80208 10.08416,0.0651 16.19971,15.22382 38.449919,0.19518 m -19.387607,-5.92042 26.869401,-0.065 m -14.117821,11.64552 -34.416252,-0.0651 -13.01182,-12.42628 h -18.73701"
           transform="translate(212.48296,88.642994)"
           style="stroke-width:0.6;stroke-linejoin:round;stroke-dasharray:none" /></g></g><path
       id="path54"
       style="baseline-shift:baseline;display:inline;overflow:visible;opacity:1;fill:url(#radialGradient74);stroke:#563929;stroke-width:1.2;stroke-linejoin:round;stroke-dasharray:none;stroke-opacity:1;enable-background:accumulate;stop-color:#000000;stop-opacity:1"
       d="m -2.8625996,481.17718 119.8589396,-0.002 54.92163,-56.01113 -2.58278,-0.10681 c -2.63343,-0.10891 -4.44142,-1.12105 -6.11448,-2.55873 l -31.14844,-26.7661 -13.34393,-0.0913 -5.01636,-4.64544 c -39.256886,-0.0428 -77.32652,-0.0544 -116.5789124,-0.18409 z M 130.19966,388.53515 c 2.94893,0.008 6.28357,1.5437 8.50239,3.4473 l 30.14365,25.86129 11.48438,0.42969 c 3.12573,0.11697 4.62574,3.88986 2.43359,6.12109 l -60.44841,61.44065 -129.0814043,0.0263 0.00543,-97.72247 z"
       sodipodi:nodetypes="cccscccccccscsccccc" /><g
       inkscape:groupmode="layer"
       id="layer7"
       inkscape:label="Crystals"
       style="display:inline"><path
         style="display:inline;fill:#b77b70;fill-opacity:1;stroke:#a77956;stroke-width:1.8;stroke-linejoin:round;stroke-dasharray:none;stroke-opacity:1"
         d="m 16.785243,411.9541 6.766144,9.3685 0.130118,8.32758 -6.896262,-9.10829 z m 0.520473,14.313 0.780709,35.65238 3.643308,-13.27206 1.171064,-15.35394 z m 8.587798,15.48406 v -10.53957 l 5.464963,-14.18288 7.80709,-6.37579 1.691536,11.19016 -7.286617,13.01182 z m -1.040945,6.24567 23.811624,-26.15375 15.614179,-5.59508 -4.033663,16.52501 -24.462214,24.46221 -14.312998,4.42402 z m -2.472245,16.39489 26.674223,-5.33484 8.717917,5.98543 z m 31.488595,-5.7252 9.23839,7.02638 8.197444,-0.39035 -9.23839,-7.1565 z m -13.40217,-1.82165 8.717916,-9.88898 13.532289,-7.67697 11.580517,0.52047 -5.464963,10.40945 -12.491344,5.46496 z"
         id="path61"
         inkscape:label="CrystalBkgd" /><path
         style="display:inline;fill:url(#pattern61);stroke:#b6af57;stroke-width:1.43801;stroke-linejoin:round;stroke-dasharray:none;stroke-opacity:1"
         d="m 16.785243,411.9541 6.766144,9.3685 0.130118,8.32758 -6.896262,-9.10829 z m 0.520473,14.313 0.780709,35.65238 3.643308,-13.27206 1.171064,-15.35394 z m 8.587798,15.48406 v -10.53957 l 5.464963,-14.18288 7.80709,-6.37579 1.691536,11.19016 -7.286617,13.01182 z m -1.040945,6.24567 23.811624,-26.15375 15.614179,-5.59508 -4.033663,16.52501 -24.462214,24.46221 -14.312998,4.42402 z m -2.472245,16.39489 26.674223,-5.33484 8.717917,5.98543 z m 31.488595,-5.7252 9.23839,7.02638 8.197444,-0.39035 -9.23839,-7.1565 z m -13.40217,-1.82165 8.717916,-9.88898 13.532289,-7.67697 11.580517,0.52047 -5.464963,10.40945 -12.491344,5.46496 z"
         id="path56"
         inkscape:label="Crystal Pattern" /><path
         id="path77-7"
         style="display:inline;fill:#ffffff;fill-opacity:0.702875;stroke:none;stroke-width:2.49952;stroke-linejoin:round;stroke-dasharray:none;stroke-opacity:1"
         d="m 53.965128,458.64932 7.833712,-0.66908 3.77231,2.48421 -6.117149,2.3225 z m -17.053605,-12.65125 1.026747,-12.45323 7.094949,-7.6084 -5.622266,16.66684 z m -19.442894,-18.97895 -0.03652,9.93952 5.563514,-3.66339 z m 38.055405,-7.55162 -6.792767,2.16354 1.009837,3.68842 4.268215,-1.82819 z m -6.371363,26.90812 12.60152,0.94175 0.978927,-8.23761 z m -29.501357,-30.6396 -2.769473,-3.37494 -0.222118,8.40153 2.810293,-0.63368 z m 29.27546,43.37969 -3.364577,3.34879 -11.755283,-0.39913 z m -17.536618,-42.69911 2.734066,5.62936 6.150292,-6.13134 -1.205343,-5.07078 z"
         sodipodi:nodetypes="ccccccccccccccccccccccccccccccccccccc"
         inkscape:label="FacetHighlights" /><g
         inkscape:groupmode="layer"
         id="layer8"
         inkscape:label="Crystal Glow"
         style="display:inline;filter:url(#filter72)"><path
           id="path59"
           style="display:inline;fill:none;fill-opacity:1;stroke:#f4f0c8;stroke-width:1.05833;stroke-linejoin:round;stroke-dasharray:none;stroke-opacity:1"
           d="m 62.847071,439.27892 -0.763568,8.06866 7.00924,2.21067 m 4.944491,-9.49862 -11.95373,7.02773 -21.226401,9.62739 m 7.937207,-34.87166 0.813238,4.1475 14.540704,-9.48235 -9.628742,16.41115 5.59508,-0.14639 m -5.59508,0.13013 -7.80709,2.73248 2.8626,-9.75886 m -2.8626,9.62874 -24.982687,25.89351 m 3.513191,-13.79252 3.057777,6.92879 7.351676,2.43972 m -3.643311,-40.59687 1.905769,5.95385 -7.630966,18.63848 m 14.312998,-20.03819 -6.812149,1.52985 5.226434,-11.37289"
           inkscape:label="Crystal IntLines"
           sodipodi:nodetypes="ccccccccccccccccccccccccc" /><path
           style="display:inline;fill:none;fill-opacity:1;stroke:#f4f0c8;stroke-width:1.05833;stroke-linejoin:round;stroke-dasharray:none;stroke-opacity:1"
           d="m 16.785243,411.9541 6.766144,9.3685 0.130118,8.32758 -6.896262,-9.10829 z m 0.520473,14.313 0.780709,35.65238 3.643308,-13.27206 1.171064,-15.35394 z m 8.587798,15.48406 v -10.53957 l 5.464963,-14.18288 7.80709,-6.37579 1.691536,11.19016 -7.286617,13.01182 z m -1.040945,6.24567 23.811624,-26.15375 15.614179,-5.59508 -4.033663,16.52501 -24.462214,24.46221 -14.312998,4.42402 z m -2.472245,16.39489 26.674223,-5.33484 8.717917,5.98543 z m 31.488595,-5.7252 9.23839,7.02638 8.197444,-0.39035 -9.23839,-7.1565 z m -13.40217,-1.82165 8.717916,-9.88898 13.532289,-7.67697 11.580517,0.52047 -5.464963,10.40945 -12.491344,5.46496 z"
           id="path60"
           inkscape:label="Crystal Outline" /></g></g><g
       inkscape:groupmode="layer"
       id="layer6"
       inkscape:label="Screw"
       transform="rotate(-11.190559,8.9781532,400.3085)"><circle
         style="display:inline;fill:#9c6e57;fill-opacity:1;stroke:#ba886f;stroke-width:2.49952;stroke-linejoin:round;stroke-dasharray:none;stroke-opacity:1"
         id="path51"
         cx="8.9781532"
         cy="400.3085"
         r="4.2288399" /><path
         style="fill:#9c6e57;fill-opacity:1;stroke:#644130;stroke-width:1.4;stroke-linejoin:round;stroke-dasharray:none;stroke-opacity:1"
         d="m 5.9203764,403.041 6.3107306,-5.33484"
         id="path52" /><path
         style="fill:#fde2ad;fill-opacity:1;stroke:none;stroke-width:1.4;stroke-linejoin:round;stroke-dasharray:none;stroke-opacity:1"
         d="m 10.441982,396.60015 c -3.6758376,-1.07348 -5.8227873,0.78073 -5.2372556,4.45657 0.8132385,-2.6349 2.1469492,-4.06622 5.2372556,-4.45657 z"
         id="path53"
         sodipodi:nodetypes="ccc" /><circle
         style="display:inline;fill:none;fill-opacity:1;stroke:#644130;stroke-width:1.2;stroke-linejoin:round;stroke-dasharray:none;stroke-opacity:1"
         id="circle53"
         cx="8.9781532"
         cy="400.3085"
         r="4.2288399" /></g><use
       x="0"
       y="0"
       xlink:href="#layer6"
       id="use53"
       transform="rotate(8.8720367,-415.83592,434.15966)" /></g></svg>
