<?xml version="1.0" encoding="UTF-8" standalone="no"?>
<!-- Created with Inkscape (http://www.inkscape.org/) -->

<svg
   width="54.218109mm"
   height="43.297001mm"
   viewBox="0 0 54.218109 43.297001"
   version="1.1"
   id="svg1"
   inkscape:version="1.4.3 (0d15f75, 2025-12-25)"
   sodipodi:docname="UI.svg"
   xml:space="preserve"
   inkscape:export-filename="UI.jpg"
   inkscape:export-xdpi="31.998411"
   inkscape:export-ydpi="31.998411"
   xmlns:inkscape="http://www.inkscape.org/namespaces/inkscape"
   xmlns:sodipodi="http://sodipodi.sourceforge.net/DTD/sodipodi-0.dtd"
   xmlns:xlink="http://www.w3.org/1999/xlink"
   xmlns="http://www.w3.org/2000/svg"
   xmlns:svg="http://www.w3.org/2000/svg"><sodipodi:namedview
     id="namedview1"
     pagecolor="#ffffff"
     bordercolor="#000000"
     borderopacity="0.25"
     inkscape:showpageshadow="2"
     inkscape:pageopacity="0.0"
     inkscape:pagecheckerboard="0"
     inkscape:deskcolor="#d1d1d1"
     inkscape:document-units="mm"
     inkscape:zoom="0.25417602"
     inkscape:cx="804.56056"
     inkscape:cy="918.65472"
     inkscape:window-width="1920"
     inkscape:window-height="1009"
     inkscape:window-x="-8"
     inkscape:window-y="-8"
     inkscape:window-maximized="1"
     inkscape:current-layer="svg1"><inkscape:page
       x="-1.0435972e-31"
       y="0"
       width="54.218109"
       height="43.297001"
       id="page2"
       margin="0"
       bleed="0" /></sodipodi:namedview><defs
     id="defs1"><linearGradient
       id="linearGradient118"
       inkscape:collect="always"><stop
         style="stop-color:#d0a884;stop-opacity:1;"
         offset="0.17142858"
         id="stop117" /><stop
         style="stop-color:#f9dcb4;stop-opacity:1;"
         offset="1"
         id="stop118" /></linearGradient><linearGradient
       id="linearGradient115"
       inkscape:collect="always"><stop
         style="stop-color:#d9c1a7;stop-opacity:1;"
         offset="0"
         id="stop115" /><stop
         style="stop-color:#b69265;stop-opacity:1;"
         offset="1"
         id="stop116" /></linearGradient><linearGradient
       id="linearGradient111"
       inkscape:collect="always"><stop
         style="stop-color:#f8dfbf;stop-opacity:1;"
         offset="0"
         id="stop112" /><stop
         style="stop-color:#aa6656;stop-opacity:1;"
         offset="1"
         id="stop113" /></linearGradient><linearGradient
       id="linearGradient109"
       inkscape:collect="always"><stop
         style="stop-color:#8b5643;stop-opacity:1;"
         offset="0"
         id="stop110" /><stop
         style="stop-color:#a06650;stop-opacity:1;"
         offset="1"
         id="stop111" /></linearGradient><linearGradient
       id="linearGradient108"
       inkscape:collect="always"><stop
         style="stop-color:#814531;stop-opacity:1;"
         offset="0.17142858"
         id="stop108" /><stop
         style="stop-color:#4c2413;stop-opacity:1;"
         offset="1"
         id="stop109" /></linearGradient><radialGradient
       inkscape:collect="always"
       xlink:href="#linearGradient108"
       id="radialGradient109"
       cx="27.963703"
       cy="89.170364"
       fx="27.963703"
       fy="89.170364"
       r="24.510637"
       gradientTransform="matrix(1,0,0,0.88322892,0,12.504769)"
       gradientUnits="userSpaceOnUse" /><radialGradient
       inkscape:collect="always"
       xlink:href="#linearGradient109"
       id="radialGradient111"
       cx="47.753109"
       cy="122.34612"
       fx="47.753109"
       fy="122.34612"
       r="20.880945"
       gradientTransform="matrix(1,0,0,0.8825703,0,12.575196)"
       gradientUnits="userSpaceOnUse" /><radialGradient
       inkscape:collect="always"
       xlink:href="#linearGradient111"
       id="radialGradient113"
       cx="39.75182"
       cy="86.09465"
       fx="39.75182"
       fy="86.09465"
       r="24.510637"
       gradientTransform="matrix(0.84073191,0.00423052,-0.00631423,1.2548288,6.8748177,-19.656165)"
       gradientUnits="userSpaceOnUse" /><radialGradient
       inkscape:collect="always"
       xlink:href="#linearGradient118"
       id="radialGradient115"
       gradientUnits="userSpaceOnUse"
       gradientTransform="matrix(0.19032289,-0.01388402,0.03749352,0.5139636,12.141541,56.298591)"
       cx="122.6927"
       cy="102.59985"
       fx="122.6927"
       fy="102.59985"
       r="24.510637"
       spreadMethod="reflect" /><radialGradient
       inkscape:collect="always"
       xlink:href="#linearGradient115"
       id="radialGradient116"
       cx="29.344667"
       cy="118.59061"
       fx="29.344667"
       fy="118.59061"
       r="6.4147224"
       gradientTransform="matrix(0.70516308,0.03997347,-0.03864556,0.68173778,11.837329,25.744892)"
       gradientUnits="userSpaceOnUse"
       spreadMethod="reflect" /></defs><g
     inkscape:label="Layer 1"
     inkscape:groupmode="layer"
     id="layer1"
     transform="translate(202.63379,6.8839057)"
     style="display:none"><image
       width="635"
       height="474.13333"
       preserveAspectRatio="none"
       xlink:href="Gemini_Generated_Image_ko4beyko4beyko4b.png"
       id="image1"
       x="-212.46042"
       y="-88.635414"
       style="display:inline" /></g><g
     id="path103"
     style="display:inline;opacity:1;fill:none;stroke:#563929;stroke-width:1.00013;stroke-dasharray:none;stroke-opacity:1"
     inkscape:label="Button"
     transform="translate(-9.8491651,-85.439386)"><path
       style="baseline-shift:baseline;display:inline;overflow:visible;fill:url(#radialGradient113);stroke:url(#radialGradient109);stroke-width:1.00013;stroke-linejoin:round;stroke-dasharray:none;stroke-opacity:1;enable-background:accumulate;stop-color:#000000;stop-opacity:1"
       d="m 28.873047,85.939453 a 2.6460978,2.6460978 0 0 0 -2.291016,1.322266 l -10.68164,18.501951 a 2.6460978,2.6460978 0 0 0 0,2.64649 l 10.68164,18.50195 a 2.6460978,2.6460978 0 0 0 2.291016,1.32422 h 21.365234 a 2.6460978,2.6460978 0 0 0 2.291016,-1.32422 l 10.683594,-18.50195 a 2.6460978,2.6460978 0 0 0 0,-2.64649 L 52.529297,87.261719 a 2.6460978,2.6460978 0 0 0 -2.291016,-1.322266 z"
       id="path106" /><path
       style="baseline-shift:baseline;display:inline;overflow:visible;opacity:1;vector-effect:none;fill:url(#radialGradient111);stroke:#d9a18d;stroke-linejoin:round;stroke-opacity:1;enable-background:accumulate;stop-color:#000000;stop-opacity:1"
       d="m 30.410156,89.158203 c -0.737253,-0.0042 -1.426663,0.390906 -1.798828,1.027344 a 1.8628529,1.8628529 0 0 0 -0.0059,0.0078 L 19.45699,106.04296 c -0.375777,0.64304 -0.375777,1.4468 0,2.08984 l 9.148438,15.84766 a 1.8628529,1.8628529 0 0 0 0.0059,0.008 c 0.37218,0.63642 1.061587,1.03155 1.798828,1.02735 h 18.291016 c 0.737241,0.004 1.426648,-0.39093 1.798828,-1.02735 a 1.8628529,1.8628529 0 0 0 0.0059,-0.008 l 9.148438,-15.84961 c 0.375777,-0.64304 0.375777,-1.4468 0,-2.08984 L 50.505859,90.193359 A 1.8628529,1.8628529 0 0 0 50.5,90.185547 c -0.372165,-0.636438 -1.061575,-1.031532 -1.798828,-1.027344 z"
       id="path108" /><path
       style="baseline-shift:baseline;display:inline;overflow:visible;opacity:1;vector-effect:none;fill:#3e2c27;fill-opacity:1;stroke:#30130b;stroke-linejoin:round;stroke-opacity:1;enable-background:accumulate;stop-color:#000000;stop-opacity:1"
       d="m 30.521484,91.439453 h 18.06836 l 9.033203,15.646487 -9.033203,15.64844 h -18.06836 l -9.033203,-15.64649 z"
       id="path105"
       inkscape:label="Btn Inner" /><path
       style="baseline-shift:baseline;display:inline;overflow:visible;opacity:1;fill:url(#radialGradient115);stroke:url(#radialGradient116);stroke-width:0.4;stroke-linecap:round;stroke-linejoin:round;stroke-dasharray:none;enable-background:accumulate;stop-color:#000000;stop-opacity:1"
       d="M 21.75,86.394531 A 0.89693749,0.89693749 0 0 0 21.205078,86.8125 l -10.68164,18.50195 c -0.6323819,1.09511 -0.6323819,2.44982 0,3.54493 l 10.68164,18.50195 a 0.89693749,0.89693749 0 0 0 1.224609,0.32812 0.89693749,0.89693749 0 0 0 0.328125,-1.22656 l -10.68164,-18.50195 c -0.313281,-0.54252 -0.313281,-1.20554 0,-1.74805 L 22.757812,87.710937 A 0.89693749,0.89693749 0 0 0 22.429687,86.484375 0.89693749,0.89693749 0 0 0 21.75,86.394531 Z"
       id="path113" /></g></svg>
