<?xml version="1.0" encoding="UTF-8" standalone="no"?>
<!-- Created with Inkscape (http://www.inkscape.org/) -->

<svg
   width="6.8044453mm"
   height="23.978514mm"
   viewBox="0 0 6.8044452 23.978514"
   version="1.1"
   id="svg1"
   inkscape:version="1.4.3 (0d15f75, 2025-12-25)"
   sodipodi:docname="UI.svg"
   xml:space="preserve"
   inkscape:export-filename="UI.jpg"
   inkscape:export-xdpi="31.998411"
   inkscape:export-ydpi="31.998411"
   xmlns:inkscape="http://www.inkscape.org/namespaces/inkscape"
   xmlns:sodipodi="http://sodipodi.sourceforge.net/DTD/sodipodi-0.dtd"
   xmlns="http://www.w3.org/2000/svg"
   xmlns:svg="http://www.w3.org/2000/svg"><sodipodi:namedview
     id="namedview1"
     pagecolor="#ffffff"
     bordercolor="#000000"
     borderopacity="0.25"
     inkscape:showpageshadow="2"
     inkscape:pageopacity="0.0"
     inkscape:pagecheckerboard="0"
     inkscape:deskcolor="#d1d1d1"
     inkscape:document-units="mm"
     inkscape:zoom="0.25417602"
     inkscape:cx="804.56056"
     inkscape:cy="918.65472"
     inkscape:window-width="1920"
     inkscape:window-height="1009"
     inkscape:window-x="-8"
     inkscape:window-y="-8"
     inkscape:window-maximized="1"
     inkscape:current-layer="layer5"><inkscape:page
       x="0"
       y="0"
       width="6.8044453"
       height="23.978514"
       id="page2"
       margin="0"
       bleed="0" /></sodipodi:namedview><defs
     id="defs1" /><g
     inkscape:label="Layer 1"
     inkscape:groupmode="layer"
     id="layer1"
     transform="translate(15.048601,77.169922)"
     style="display:inline"><path
       style="baseline-shift:baseline;display:inline;overflow:visible;opacity:1;fill:#78d8e6;fill-opacity:1;stroke:none;stroke-width:0.1;stroke-linecap:round;stroke-linejoin:round;stroke-dasharray:none;stroke-opacity:1;enable-background:accumulate;stop-color:#000000;stop-opacity:1"
       d="m -10.435547,-77.169922 c -0.722114,0 -1.350621,0.507983 -1.851562,0.966797 -0.500942,0.458814 -0.861329,0.914062 -0.861329,0.914063 -0.04795,0.06136 -0.07407,0.136966 -0.07422,0.214843 l -0.03467,5.747321 c -0.01042,1.726697 -1.791265,1.770047 -1.791265,4.250961 0,2.480914 1.732184,2.374391 1.721925,4.055785 l -0.03467,5.682261 c -2.52e-4,0.08377 0.02955,0.164846 0.08398,0.228516 0,0 0.391708,0.46301 0.90625,0.929688 0.257271,0.233338 0.545806,0.468646 0.845703,0.654296 0.299897,0.185651 0.609357,0.333985 0.953125,0.333985 h 1.8867191 c 0.193759,-2.14e-4 0.3504748,-0.157806 0.3496094,-0.351563 -2.155e-4,-0.192995 -0.1566148,-0.349394 -0.3496094,-0.349609 H -10.57228 c -0.116268,0 -0.342415,-0.07581 -0.585937,-0.226563 -0.243523,-0.150751 -0.506871,-0.36488 -0.744141,-0.580078 -0.426161,-0.386518 -0.691002,-0.700088 -0.755859,-0.77539 l 0.134765,-19.458985 c 0.05473,-0.06794 0.298355,-0.377809 0.708985,-0.753906 0.453386,-0.415257 1.041937,-0.783203 1.378906,-0.783203 h 1.841797 c 0.1929946,-2.15e-4 0.3493939,-0.156614 0.3496094,-0.349609 -2.149e-4,-0.192995 -0.1566145,-0.349395 -0.3496094,-0.34961 z"
       id="path1"
       sodipodi:nodetypes="ssccszsccssscccsssccsscccs" /></g></svg>
