<?xml version="1.0" encoding="UTF-8" standalone="no"?>
<!-- Created with Inkscape (http://www.inkscape.org/) -->

<svg
   width="389.63083mm"
   height="63.799133mm"
   viewBox="0 0 389.63083 63.799134"
   version="1.1"
   id="svg1"
   inkscape:version="1.4.3 (0d15f75, 2025-12-25)"
   sodipodi:docname="UITopWedge.svg"
   xml:space="preserve"
   inkscape:export-filename="UITopWedge.svg"
   inkscape:export-xdpi="31.998411"
   inkscape:export-ydpi="31.998411"
   xmlns:inkscape="http://www.inkscape.org/namespaces/inkscape"
   xmlns:sodipodi="http://sodipodi.sourceforge.net/DTD/sodipodi-0.dtd"
   xmlns:xlink="http://www.w3.org/1999/xlink"
   xmlns="http://www.w3.org/2000/svg"
   xmlns:svg="http://www.w3.org/2000/svg"><sodipodi:namedview
     id="namedview1"
     pagecolor="#ffffff"
     bordercolor="#000000"
     borderopacity="0.25"
     inkscape:showpageshadow="2"
     inkscape:pageopacity="0.0"
     inkscape:pagecheckerboard="0"
     inkscape:deskcolor="#d1d1d1"
     inkscape:document-units="mm"
     inkscape:zoom="0.35355339"
     inkscape:cx="910.75354"
     inkscape:cy="657.60931"
     inkscape:window-width="1920"
     inkscape:window-height="1009"
     inkscape:window-x="-8"
     inkscape:window-y="-8"
     inkscape:window-maximized="1"
     inkscape:current-layer="layer10"><inkscape:page
       x="0"
       y="0"
       width="389.63083"
       height="63.799133"
       id="page2"
       margin="0"
       bleed="0" /></sodipodi:namedview><defs
     id="defs1"><linearGradient
       id="linearGradient12"
       inkscape:collect="always"><stop
         style="stop-color:#346797;stop-opacity:0;"
         offset="0"
         id="stop13" /><stop
         style="stop-color:#346797;stop-opacity:0.66751302;"
         offset="1"
         id="stop12" /></linearGradient><linearGradient
       id="linearGradient103"><stop
         style="stop-color:#d3bcb2;stop-opacity:1;"
         offset="0"
         id="stop101" /><stop
         style="stop-color:#8f7569;stop-opacity:1;"
         offset="0.13419913"
         id="stop102" /><stop
         style="stop-color:#654b40;stop-opacity:1;"
         offset="1"
         id="stop103" /></linearGradient><linearGradient
       id="linearGradient80"><stop
         style="stop-color:#d99a7d;stop-opacity:1;"
         offset="0"
         id="stop99" /><stop
         style="stop-color:#894a30;stop-opacity:1;"
         offset="1"
         id="stop100" /></linearGradient><linearGradient
       id="linearGradient80-2"><stop
         style="stop-color:#b7a89f;stop-opacity:1;"
         offset="0"
         id="stop91" /><stop
         style="stop-color:#506669;stop-opacity:1;"
         offset="1"
         id="stop92" /></linearGradient><linearGradient
       id="linearGradient73"><stop
         style="stop-color:#d99a7d;stop-opacity:1;"
         offset="0"
         id="stop86" /><stop
         style="stop-color:#894a30;stop-opacity:1;"
         offset="1"
         id="stop87" /></linearGradient><linearGradient
       id="linearGradient80-1"><stop
         style="stop-color:#386b8d;stop-opacity:1;"
         offset="0"
         id="stop79" /><stop
         style="stop-color:#1e3352;stop-opacity:1;"
         offset="1"
         id="stop80" /></linearGradient><linearGradient
       id="linearGradient73-1"><stop
         style="stop-color:#e9b49c;stop-opacity:1;"
         offset="0"
         id="stop73" /><stop
         style="stop-color:#be633a;stop-opacity:1;"
         offset="0.13419913"
         id="stop88" /><stop
         style="stop-color:#7a422b;stop-opacity:1;"
         offset="1"
         id="stop74" /></linearGradient><filter
       style="color-interpolation-filters:sRGB"
       inkscape:label="Blur"
       id="filter51"
       x="-0.0037352755"
       y="-0.0073680802"
       width="1.0074706"
       height="1.0147362"><feGaussianBlur
         stdDeviation="0.1 0.1"
         result="blur"
         id="feGaussianBlur51" /></filter><filter
       style="color-interpolation-filters:sRGB"
       inkscape:label="Blur"
       id="filter72"
       x="-0.021719991"
       y="-0.022694744"
       width="1.0434394"
       height="1.0453903"><feGaussianBlur
         stdDeviation="0.3 0.3"
         result="blur"
         id="feGaussianBlur72" /></filter><filter
       style="color-interpolation-filters:sRGB"
       inkscape:label="Blur"
       id="filter51-1"
       x="-0.005208793"
       y="-0.0082335093"
       width="1.0095401"
       height="1.0179944"><feGaussianBlur
         stdDeviation="0.1 0.1"
         result="blur"
         id="feGaussianBlur51-3" /></filter><filter
       style="color-interpolation-filters:sRGB"
       inkscape:label="Blur"
       id="filter72-6"
       x="-0.023133099"
       y="-0.020644897"
       width="1.0462645"
       height="1.0412905"><feGaussianBlur
         stdDeviation="0.3 0.3"
         result="blur"
         id="feGaussianBlur72-1" /></filter><radialGradient
       inkscape:collect="always"
       xlink:href="#linearGradient80"
       id="radialGradient74-38"
       cx="97.130272"
       cy="532.50958"
       fx="97.130272"
       fy="532.50958"
       r="94.528374"
       gradientTransform="matrix(0.90764957,-0.12587688,0.09519519,0.68641593,185.20627,-306.28132)"
       gradientUnits="userSpaceOnUse"
       spreadMethod="reflect" /><radialGradient
       inkscape:collect="always"
       xlink:href="#linearGradient73-1"
       id="radialGradient86"
       cx="265.24838"
       cy="309.98047"
       fx="265.24838"
       fy="309.98047"
       r="194.81543"
       gradientTransform="matrix(0.336919,0.13412751,-0.0605632,0.15213055,154.65266,-7.2026554)"
       gradientUnits="userSpaceOnUse"
       spreadMethod="reflect" /><filter
       style="color-interpolation-filters:sRGB"
       inkscape:label="Blur"
       id="filter90"
       x="-0.0065997454"
       y="-0.014172988"
       width="1.0131995"
       height="1.028346"><feGaussianBlur
         stdDeviation="1 0.3"
         result="blur"
         id="feGaussianBlur90" /></filter><radialGradient
       inkscape:collect="always"
       xlink:href="#linearGradient80-1"
       id="radialGradient92"
       gradientUnits="userSpaceOnUse"
       gradientTransform="matrix(0.94144975,-0.12444719,0.06435575,0.48685484,198.34556,-200.15199)"
       cx="81.943138"
       cy="531.65125"
       fx="81.943138"
       fy="531.65125"
       r="94.528374"
       spreadMethod="reflect" /><linearGradient
       inkscape:collect="always"
       xlink:href="#linearGradient12"
       id="linearGradient13"
       x1="318.42554"
       y1="24.606312"
       x2="318.34897"
       y2="38.09465"
       gradientUnits="userSpaceOnUse"
       spreadMethod="reflect" /></defs><g
     inkscape:groupmode="layer"
     id="layer10"
     inkscape:label="Top Wedge"
     style="display:inline"
     inkscape:export-filename="UITopWedge.svg"
     inkscape:export-xdpi="31.998411"
     inkscape:export-ydpi="31.998411"
     transform="translate(-122.43848,5.6835994)"><path
       style="baseline-shift:baseline;display:inline;overflow:visible;fill:url(#radialGradient92);stroke:none;stroke-width:1.19989;stroke-linejoin:round;stroke-dasharray:none;stroke-opacity:1;enable-background:accumulate;stop-color:#000000"
       d="m 168.13672,4.15625 c -0.73402,-2.686e-4 -1.33447,0.5845881 -1.35352,1.3183594 l -0.24804,9.6582036 c -0.009,0.363743 0.12913,0.715728 0.38281,0.976562 l 26.67578,27.462891 c 0.25487,0.262239 0.60501,0.410185 0.9707,0.410156 l 245.44141,0.33789 c 0.36252,5.09e-4 0.71009,-0.144429 0.96484,-0.402343 l 27.16797,-27.492188 c 0.25779,-0.261774 0.39809,-0.617098 0.38867,-0.984375 l -0.23632,-9.769531 c -0.018,-0.7337806 -0.61757,-1.3194969 -1.35157,-1.3203125 z"
       id="path90"
       inkscape:label="UI Blue Top" /><path
       style="baseline-shift:baseline;display:inline;overflow:visible;opacity:1;fill:url(#linearGradient13);stroke:#51d7e6;stroke-width:0.497417;stroke-linejoin:round;stroke-dasharray:none;stroke-opacity:1;enable-background:accumulate;stop-color:#000000;stop-opacity:1"
       d="m 172.64844,10.142578 289.76953,0.189453 0.0801,3.28711 -24.42188,24.714843 -241.55078,-0.332031 -23.95898,-24.664062 z"
       id="path89"
       inkscape:label="UIBlueOutline" /><path
       id="path80"
       style="baseline-shift:baseline;display:inline;overflow:visible;opacity:1;vector-effect:none;fill:url(#radialGradient86);stroke:#563929;stroke-linejoin:round;stroke-opacity:1;enable-background:accumulate;stop-color:#000000;stop-opacity:1"
       d="m 169.45508,6.8632812 296.16211,0.1933594 0.1914,7.8769534 -26.36523,26.679687 -244.30469,-0.33789 -25.88281,-26.642578 z M 124.29492,-5.1835937 A 1.3534804,1.3534804 0 0 0 123.33203,-2.875 l 57.07227,57.28125 c 2.15586,2.163734 5.48157,2.857207 9.9375,2.863281 l 254.57812,0.345703 c 1.94047,0.0026 3.72385,-0.0068 5.42774,-0.363281 1.70388,-0.3565 3.33408,-1.107259 4.70507,-2.488281 l 56.12305,-56.5312501 a 1.3534804,1.3534804 0 0 0 -0.95703,-2.3085938 z"
       inkscape:label="Top Wedge Rim" /><path
       id="path54-7"
       style="baseline-shift:baseline;display:inline;overflow:visible;fill:url(#radialGradient74-38);stroke:#563929;stroke-width:1.2;stroke-linejoin:round;stroke-dasharray:none;stroke-opacity:1;enable-background:accumulate;stop-color:#000000"
       d="m 168.13672,4.15625 c -0.73402,-2.686e-4 -1.33447,0.5845881 -1.35352,1.3183594 l -0.24804,9.6582036 c -0.009,0.363743 0.12913,0.715728 0.38281,0.976562 l 26.67578,27.462891 c 0.25487,0.262239 0.60501,0.410185 0.9707,0.410156 l 245.44141,0.33789 c 0.36252,5.09e-4 0.71009,-0.144429 0.96484,-0.402343 l 27.16797,-27.492188 c 0.25779,-0.261774 0.39809,-0.617098 0.38867,-0.984375 l -0.23632,-9.769531 c -0.018,-0.7337806 -0.61757,-1.3194969 -1.35157,-1.3203125 z m -40.57617,-6.6230469 379.41211,1.0878907 -53.83985,54.2363282 c -0.98324,0.990435 -2.00953,1.468164 -3.33789,1.746094 -1.32836,0.277929 -2.95355,0.309226 -4.87305,0.30664 L 190.3457,54.5625 c -4.16429,-0.0057 -6.67402,-0.714023 -8.02343,-2.068359 z"
       sodipodi:nodetypes="ccccccccccccccccscccc"
       inkscape:label="Top Wedge Panel" /><path
       style="baseline-shift:baseline;display:inline;overflow:visible;opacity:1;vector-effect:none;fill:#e6d4cb;fill-opacity:0.329949;stroke-linejoin:round;filter:url(#filter90);enable-background:accumulate;stop-color:#000000;stop-opacity:1"
       d="m 135.47461,0.83203125 32.54687,0.09375 A 4.6306715,4.6306715 0 0 0 163.50781,5.390625 l -0.24804,9.658203 a 4.6306715,4.6306715 0 0 0 1.30664,3.34375 l 26.67773,27.462891 a 4.6306715,4.6306715 0 0 0 3.31445,1.404297 l 245.44336,0.335937 a 4.6306715,4.6306715 0 0 0 3.29883,-1.375 l 27.16797,-27.492187 a 4.6306715,4.6306715 0 0 0 1.33594,-3.367188 L 471.56641,5.5917969 A 4.6306715,4.6306715 0 0 0 468.69336,1.7890625 L 499.125,1.8769531 450.80664,50.548828 c -0.51381,0.51757 -0.80986,0.664848 -1.68359,0.847656 -0.87374,0.182809 -2.30121,0.23888 -4.19532,0.236328 L 190.34961,51.285156 c -3.81123,-0.0052 -5.332,-0.729079 -5.70508,-1.103515 z"
       id="path88"
       inkscape:label="PanelGlow" /></g></svg>
