<?xml version="1.0" encoding="UTF-8" standalone="no"?>
<!-- Created with Inkscape (http://www.inkscape.org/) -->

<svg
   width="102.34212mm"
   height="106.96567mm"
   viewBox="0 0 102.34212 106.96567"
   version="1.1"
   id="svg1"
   xml:space="preserve"
   xmlns="http://www.w3.org/2000/svg"
   xmlns:svg="http://www.w3.org/2000/svg"><defs
     id="defs1" /><g
     id="layer1"
     transform="translate(-347.27016,-100.0137)"><g
       id="g329"
       transform="translate(-62.303188)"><path
         style="display:inline;fill:#137494"
         d="m 435.60651,206.68924 c -5.14749,-2.70314 -16.55366,-8.83803 -14.15589,-16.16101 3.84451,-3.33521 11.57279,9.17869 16.68754,7.73722 5.18439,-2.29369 9.79286,-5.90191 14.68646,-8.80027 4.6676,-1.50021 -1.12872,-11.80282 4.67853,-8.0475 5.41926,0.43033 4.07553,8.54 2.96959,11.71958 -4.25418,4.92023 -12.14461,6.84793 -17.01971,11.04158 -2.2328,1.63741 -4.96217,3.2819 -7.84652,2.5104 z m 0.17879,-16.4068 c -5.41509,-2.70824 -12.20095,-6.19992 -11.23608,-13.28088 -1.40226,-7.1743 6.95387,-11.07119 12.86685,-11.51282 6.87637,-0.27279 13.14079,5.82077 11.73998,12.86232 0.29864,6.92665 -7.77482,10.67167 -13.37075,11.93138 z m 2.68605,-6.4698 c 7.1976,-1.07058 6.45804,-13.26944 -0.80379,-13.42471 -4.8627,-0.59059 -9.44889,4.42174 -7.31062,9.16003 0.0132,-2.10481 1.87874,4.06408 4.36324,4.13401 1.13457,0.57605 2.62201,0.91216 3.75117,0.13067 z m 45.76092,6.12232 c -3.14225,-2.3633 -8.28236,-3.47045 -9.76175,-7.23055 4.82207,3.18367 10.92236,8.76423 16.50082,3.57849 1.54635,-1.00541 7.75682,-4.53832 3.3643,-1.17658 -2.88905,2.16563 -6.32108,5.09518 -10.10337,4.82864 z m 17.75339,-16.70029 c 1.63211,-7.26261 -7.47813,-9.37076 -12.09916,-12.46351 -6.50923,-4.89498 2.28521,-8.51661 6.79692,-5.66215 5.65737,2.57507 14.41087,5.56048 14.68104,12.71758 1.23854,5.03219 -0.64593,14.3785 -7.46261,10.65133 -1.37669,-0.54599 -1.46914,-1.37777 -1.91619,-5.24325 z m -41.38553,6.34872 c -3.43484,-0.71277 -10.04618,-4.24763 -6.96077,-8.57966 1.15832,-5.06328 12.85403,-8.39362 13.35201,-3.28794 2.4545,7.5018 -0.47501,12.42402 -6.39124,11.8676 z m 17.30527,-18.21642 c -5.195,-1.35713 -8.10268,-7.17093 -0.89589,-14.43638 1.4171,-1.42862 7.09131,0.53589 6.28506,1.11047 6.54797,2.47815 1.29637,15.17552 -5.38917,13.32591 z m -34.88382,-2.39543 c 4.52413,-1.6897 -4.84491,0.78051 -4.31592,-3.34709 -2.90916,-3.58839 3.99447,-7.57975 3.10088,-7.73946 3.56916,-0.48054 7.63496,2.256 7.58319,6.20751 -0.037,2.82609 -2.86932,7.27378 -6.36815,4.87904 z m -15.61443,-5.55125 c -6.36131,-0.90876 -11.0016,-5.75629 -16.31729,-8.87918 -1.58853,-4.87153 -1.951,-15.0951 -0.31361,-19.31678 3.86493,-0.59888 9.41598,0.77271 7.48121,5.88979 -1.26416,5.71739 2.58253,12.0779 7.42725,13.86548 3.44173,1.13646 16.10821,7.27307 10.50482,10.5743 -1.30225,0.29559 -7.49161,-2.32388 -8.78238,-2.13361 z m 34.01419,-11.89055 c -7.46606,1.80797 -11.6167,-10.19029 -3.6523,-12.22743 5.73424,-1.4667 7.02418,-3.33733 8.60334,0.84365 1.74352,4.61613 2.15221,8.65955 0.45167,9.26881 -0.7444,0.2667 -3.97841,1.77007 -5.40271,2.11497 z m 33.53263,-3.48439 c -2.09557,-1.85966 -6.42309,-1.73093 -2.68225,-5.02132 2.3048,-5.25371 -4.1938,-11.87464 -9.26067,-8.28766 -3.17942,1.0987 -4.23818,7.42433 -3.49257,8.131 -2.18731,-0.84857 -7.44392,3.57348 -6.49012,-3.50725 -0.43001,-6.87522 7.35058,-12.90836 13.21856,-11.95657 5.54312,0.8991 11.92279,5.15949 11.06339,11.90041 -0.16974,2.67797 0.45448,7.30036 -2.35634,8.74139 z"
         id="path333" /><path
         style="fill:#d71627"
         d="m 483.77542,206.95508 c -7.5182,-4.11207 -14.84283,-8.57473 -21.97696,-13.32101 -1.59475,-3.23876 -2.94393,-11.58853 1.38885,-11.91393 2.38287,-1.051 7.0112,-3.3425 5.64417,1.51181 1.33919,6.63957 9.3757,7.08179 13.36225,11.44318 5.08744,4.01489 12.49856,-9.51664 14.75026,-1.19363 2.08127,5.5891 -2.32629,9.00696 -6.76282,11.0768 -1.89534,1.26243 -4.02279,2.62004 -6.40575,2.39678 z m -73.7399,-35.96969 c -1.98609,-5.84849 2.7629,-11.22624 7.88314,-13.38494 4.91161,-3.47015 11.08744,-5.31561 17.06982,-3.58436 2.9961,4.98475 9.76753,8.74562 13.65968,2.30403 2.50144,-4.0155 0.74239,-10.83943 6.84666,-12.99881 5.49837,-2.6708 14.39803,-1.77799 16.12312,5.20216 0.49762,4.69019 1.21416,10.62394 -3.12981,13.92366 -5.05943,2.86426 -13.75943,3.27212 -16.90769,-2.79551 -4.63802,-2.01455 -6.80807,7.41493 -12.13352,3.48008 -4.06492,-2.81758 -8.95327,-4.29238 -12.49756,0.0891 -6.21715,1.96843 -7.90923,8.08091 -6.54574,13.74026 -1.66263,2.58428 -5.23147,0.76959 -7.8274,1.26113 -4.67912,1.28869 -1.78254,-4.59681 -2.5407,-7.23682 z m 52.82626,-14.43372 c 6.73525,-3.66682 -5.15323,-11.63602 -4.81064,-2.26369 -0.0865,2.46518 2.95833,3.52739 4.81064,2.26369 z m 29.74568,-3.10815 c -5.56134,1.78014 -6.05633,-8.55663 -0.70227,-8.92684 4.80278,-2.44724 11.42875,-5.22895 9.89736,-11.70333 0.36387,-4.69519 1.79012,-11.56805 -3.68816,-13.82519 -4.14894,-2.2923 -2.87618,-11.30072 -2.51222,-12.92072 2.34872,3.61652 8.44546,5.67446 11.98787,7.9603 5.48522,2.69401 3.65962,9.06119 3.85229,13.90916 -0.0231,4.9472 0.0251,9.89828 -0.24264,14.84035 -3.43364,5.29547 -9.83706,7.84591 -15.17898,10.63207 -1.12352,0.21731 -2.28519,0.21995 -3.41325,0.0342 z m -57.28615,-10.70839 c -5.06904,-2.71263 -12.32336,-6.21521 -10.60811,-13.1424 -1.11965,-6.64523 6.37514,-9.41067 11.17102,-11.7452 5.43294,0.59826 13.01751,4.26706 12.8198,10.4757 1.31928,5.25873 -0.73332,10.72904 -6.24366,12.28158 -2.1917,1.15533 -4.5862,2.35625 -7.13905,2.13032 z m 2.67371,-6.61484 c 7.23175,-1.46951 3.9263,-13.84771 -3.10964,-11.22794 -5.71192,1.80284 -4.43702,9.69757 0.9572,10.94071 0.57731,0.42626 1.49045,0.74534 2.15244,0.28723 z m 5.85584,-22.01402 c -4.89292,-4.76592 -11.52539,-3.15897 -15.53831,1.38778 -11.99013,2.29564 -4.18645,-9.34604 0.0179,-11.10822 5.14649,-3.74673 11.43,-6.200541 16.63175,-0.99596 4.90635,4.63028 13.65565,5.26593 15.68428,12.56463 1.13892,11.30889 -0.82554,13.27912 -7.03886,12.66678 -0.99403,-8.22351 -1.89214,-10.43112 -9.75676,-14.51501 z"
         id="path332" /><path
         style="fill:#1e5a71"
         d="m 427.46956,190.65224 c 4.78729,3.92843 11.10577,7.96383 16.12224,1.90207 4.23698,-2.28192 10.13651,-4.72103 9.99639,-10.42324 1.54666,-3.98435 3.05455,6.23998 0.68216,6.87404 -5.70619,3.1247 -11.9006,10.97964 -18.47324,10.48048 -4.94007,-2.23516 -12.09172,-8.14344 -8.32755,-8.83335 z m 56.63953,-2.08674 c -5.11799,-2.84126 -12.55883,-5.55363 -11.18325,-12.8116 -1.08611,-6.75657 5.68017,-9.6062 10.85862,-11.07318 6.29384,-0.37512 13.86223,4.28994 13.75238,11.18921 1.0032,6.62198 -4.79092,9.81374 -9.81883,12.19251 -1.13354,0.4692 -2.38758,0.69233 -3.60892,0.50306 z m 4.03241,-5.58125 c 7.34574,-1.85199 4.14342,-14.36138 -3.19126,-12.72201 -1.94799,2.57806 -5.2306,0.37511 -5.86254,4.76553 -1.53069,4.75699 3.82159,10.63091 8.56955,8.37036 z m -53.06776,1.13692 c -6.90507,-1.18083 -7.78552,-13.17838 1.23519,-13.78645 8.21854,-1.07385 10.90555,9.36809 4.88199,12.92119 -1.36654,1.06423 -4.45365,1.89479 -6.11718,0.86526 z m 2.37265,-1.2157 c 5.08319,-0.20154 6.75475,-9.21664 2.68568,-10.68235 -6.79826,-4.88023 -11.98174,6.28333 -5.64516,10.16749 0.85996,0.56936 1.9571,0.75637 2.95948,0.51486 z m 22.04521,-5.4139 c -6.29763,-0.36639 -5.54673,-10.97407 0.78118,-10.56033 3.46208,0.65993 -5.58985,1.28561 -3.72656,4.85206 -0.92718,3.58508 5.56894,6.10784 5.3539,5.59286 -0.79107,0.15808 -1.60594,0.19906 -2.40852,0.11541 z m 19.58373,-14.80893 c -7.04281,-1.11533 -7.8174,-11.8434 -1.9797,-14.93906 1.89496,-1.15529 6.20021,0.18344 1.8853,-0.17325 -2.95933,0.59261 3.03008,0.64773 -0.3205,0.85706 -5.82534,1.35951 -3.583,11.03431 2.18144,10.13805 -2.94204,-0.61091 -7.03858,-0.23591 -1.91273,1.08473 5.33544,-0.59295 7.26982,-8.45519 13.65327,-6.41407 2.26772,-0.23693 6.43116,2.0384 1.58714,1.5657 -3.59017,-0.99955 -6.04369,0.53372 -6.03342,4.07552 -2.04057,2.7502 -5.79612,3.71211 -9.0608,3.80532 z m -38.37909,-2.77268 c -4.35985,-1.2269 -6.59429,-6.79506 -2.73751,-10.40816 1.13107,-3.39658 1.613,-4.19057 7.28837,-2.93665 0.0714,3.13053 1.02842,1.56814 -3.66125,2.30435 -5.26823,2.20261 -0.31225,11.78916 5.10169,8.61497 -2.53535,0.82375 -0.50635,3.12292 -5.9913,2.42549 z m -7.72779,-8.81718 c -1.78621,-5.81721 -9.6102,-5.39371 -13.33411,-9.5431 -2.58513,-2.96703 -4.35067,-11.43681 -0.23788,-12.6834 -0.78872,9.27072 6.51085,12.52355 1.43631,11.42738 3.57057,4.29721 13.01119,4.40213 12.25227,11.45723 -0.002,2.16404 -0.15481,-0.18313 -0.11659,-0.65811 z m 51.26586,-8.82423 c -4.0012,-2.31148 -10.69086,-3.39248 -11.10276,-8.98532 1.72724,-1.2912 7.59029,0.44278 6.54166,-2.29055 -0.35947,7.01025 10.43806,7.36096 12.4998,1.61988 2.37015,-7.3124 -9.32699,-11.073 -12.5755,-3.19868 1.27131,-11.66596 18.18935,-5.07148 12.84122,4.1511 -3.96919,3.90896 5.89708,2.48473 1.45072,5.17494 -2.02337,0.83319 -3.74607,2.12681 -7.51135,3.74042 -0.99957,0.41548 -1.23924,0.34472 -2.14379,-0.21179 z m -24.82455,-1.80848 c -9.06191,-1.32172 -4.19068,-14.31088 1.69577,-11.24766 -3.04526,0.25769 2.93468,1.00306 -0.94423,1.03946 -6.13965,1.8239 -0.94018,12.80539 4.60639,9.08457 -0.97148,0.86633 -4.12183,2.11643 -5.35793,1.12363 z"
         id="path331" /><path
         style="fill:#30333b"
         d="m 496.99475,195.91359 c -0.30552,-3.47469 -1.75298,-8.62613 3.432,-8.87674 3.1919,-2.75448 -0.8515,-9.47806 6.06034,-9.24157 7.56753,0.25893 5.67732,9.31625 3.49039,13.48449 -3.04366,4.12406 -8.49568,6.44039 -12.90413,8.2089 -0.69704,-1.07625 0.11712,-2.38391 -0.0786,-3.57508 z m -74.50721,3.0978 c -4.56126,-3.52792 -13.81628,-5.15218 -12.22945,-12.75444 -0.51548,-3.06122 -1.69918,-9.13768 3.29236,-8.03474 h 6.70173 c -1.52054,4.94122 1.99677,9.08469 4.59579,11.98396 -0.53156,2.83428 0.29929,8.3608 -1.57365,9.44862 z m 59.2502,-16.23907 c -4.90606,-3.54318 -5.28089,-12.89937 0.0883,-11.04756 -6.69028,3.26573 1.42264,10.72584 4.09086,11.11273 2.07788,-0.33062 3.47705,-0.61092 4.18174,-2.12485 4.1869,-4.71645 -1.95907,-12.29525 -7.30326,-9.44648 -4.72062,2.39897 3.64406,-3.4881 5.48002,-1.12535 6.45019,1.67005 6.44019,11.45399 0.44334,13.25649 -2.51944,1.47474 -4.85824,0.90812 -6.98104,-0.62498 z m -22.60264,-1.13684 c -8.28611,-0.0199 -11.41873,-13.6681 -3.63597,-16.92037 5.36493,-1.51806 14.70168,-1.63694 15.27783,5.76513 1.13174,5.23899 -2.5197,11.1825 -8.17883,11.19658 -1.15184,0.10761 -2.31332,0.0758 -3.46303,-0.0413 z m 4.24994,-3.81667 c 7.03198,-2.20118 2.25638,-14.36039 -4.33464,-10.93662 -7.14468,1.90772 -2.92922,14.37193 3.90141,11.11571 l 0.27385,-0.1132 z m 16.10795,-14.14573 c -6.68783,-1.48941 -10.07355,-9.41525 -7.05423,-15.41456 3.13142,-6.5531 12.97872,-5.66342 15.92014,0.47217 4.52239,7.70513 -3.41398,10.62949 -3.3883,1.86112 -4.02762,-6.87214 -13.67172,-1.30797 -11.83152,5.73078 0.47079,5.30884 7.2486,8.29492 11.50505,5.08088 3.33815,-1.72299 -4.03485,3.61482 -5.15114,2.26961 z m -31.76441,-7.24138 c 3.49553,-5.94933 -6.70936,-13.08709 -10.06829,-6.28636 -0.39207,4.00016 -5.50414,5.42696 -4.28437,0.30354 -2.82416,-4.19166 -2.32869,-3.85218 1.47304,-3.26404 3.58138,-2.92374 8.68485,-5.80951 12.47864,-1.02641 2.79851,1.88998 4.45996,9.23562 0.40098,10.27327 z m 8.50906,-14.42984 c -6.89545,-1.64287 -7.16308,-14.61984 0.46936,-14.82016 6.88774,-1.30751 2.53452,-8.73697 4.3366,-13.03886 3.02824,-6.08609 10.75489,-6.83774 15.37973,-11.35837 5.22568,-5.196683 11.99602,-2.20207 16.8112,1.78505 3.49578,0.75397 3.40336,3.43218 3.15364,6.29953 -0.25857,2.04153 1.09298,6.08332 -2.56422,4.66691 -4.86275,-2.9991 -10.0967,-8.70907 -15.77553,-3.26369 -3.97576,3.35067 -11.664,4.92494 -10.94098,11.43482 -2.71115,4.6941 4.86983,5.40423 3.92866,10.88755 0.28755,6.48224 -7.0676,8.66022 -12.30166,7.64784 -0.8332,-0.0703 -1.66468,-0.15895 -2.4968,-0.24062 z m 7.30088,-1.70117 c 6.47001,-2.57875 2.62062,-13.53364 -4.12113,-11.12895 -6.62432,1.48654 -4.63024,12.68627 2.13332,11.58831 0.69657,-0.0364 1.34326,-0.19592 1.98781,-0.45936 z m 21.40674,-3.31975 c -8.4067,0.0934 -5.93551,-10.42632 -4.55879,-8.74514 -2.54803,4.53514 3.32107,7.50329 5.93503,7.6002 1.91857,-0.38832 2.92123,-0.98751 5.85146,-7.23728 2.26314,5.7106 -2.961,8.19219 -7.2277,8.38222 z m -71.41206,-8.48729 c -6.36658,0.64418 -3.10401,-8.69474 -2.66948,-12.04429 3.57127,-3.50065 9.48317,-7.08033 13.40455,-8.10063 0.61473,3.7649 1.69542,8.6299 -2.82692,9.66008 -3.29005,4.06681 1.40732,13.34324 -7.10955,10.37922 z"
         id="path330" /></g></g></svg>
