<?xml version="1.0" encoding="UTF-8" standalone="no"?>
<!-- Created with Inkscape (http://www.inkscape.org/) -->

<svg
   width="102.02446mm"
   height="127.95707mm"
   viewBox="0 0 102.02446 127.95708"
   version="1.1"
   id="svg1"
   xml:space="preserve"
   xmlns="http://www.w3.org/2000/svg"
   xmlns:svg="http://www.w3.org/2000/svg"><defs
     id="defs1" /><g
     id="layer1"
     transform="translate(-614.78899,-88.315921)"><g
       id="g318"
       transform="matrix(1.1083902,0,0,1.1083902,-96.125084,-23.441884)"><path
         style="fill:#7a1c3e;fill-opacity:1;stroke:none;stroke-width:4.50001;stroke-linecap:round;stroke-linejoin:round;stroke-dasharray:none;stroke-opacity:1"
         d="m 914.68882,156.90952 c -7.08552,-4.21593 -12.31178,-33.35084 -11.8018,-55.22537 3.36067,13.29912 14.13844,53.15065 11.8018,55.22537 z m 35.62381,59.25803 c -14.8374,1.02551 -21.13531,-10.47143 -15.24694,-24.2522 -1.98508,10.69929 8.59369,17.68803 15.24694,24.2522 z m 9.53499,-7.79997 c 5.14494,-7.16047 -1.7945,-20.2947 -9.53727,-21.78626 4.07477,-3.4855 19.86541,10.36287 9.53727,21.78626 z"
         id="path321"
         transform="translate(-235.53903)" /><path
         style="display:inline;fill:#3d748e"
         d="m 656.13563,216.13807 c -6.68323,-0.46888 -13.82417,-4.73635 -14.5234,-11.94942 -1.20582,-7.85383 2.62767,-16.7388 10.08829,-20.1299 4.9624,-2.45033 10.99469,-1.65457 15.58225,-5.10456 5.72569,-3.52433 9.75765,-9.29775 11.84347,-15.612 3.06514,-4.80818 4.60529,4.369 6.559,6.35856 -0.62004,4.08058 -5.37971,6.67428 -6.79741,10.81368 -2.20457,4.36698 -4.08342,9.38316 -2.62317,14.27789 2.3306,11.57061 -8.56175,22.84706 -20.12903,21.34575 z m 4.98119,-4.49362 c 6.92135,-0.71599 11.2287,-8.27939 9.29412,-14.73502 -1.61305,-7.51065 -10.44529,-11.96013 -17.48661,-9.15239 -8.26102,3.89418 -8.67756,17.05344 -0.80703,21.67687 2.60493,1.77199 5.85753,2.6843 8.99952,2.21054 z m 22.25624,-52.71159 c -0.53694,-3.23834 6.53856,-8.57504 4.90423,-3.08506 -1.48694,1.13527 -2.83105,3.1696 -4.90423,3.08506 z m 11.13486,-0.49741 c -2.80857,-3.63655 -4.89772,-8.09278 -4.63,-12.50089 -1.14867,-0.98943 -4.83704,-5.2445 -1.00349,-2.85766 0.4425,3.46427 4.72405,3.76638 2.89612,0.34407 -4.79841,-4.31704 0.46626,-9.89351 2.33572,-14.17211 4.58563,-9.34859 8.9688,-18.80821 14.0901,-27.88201 -0.78847,16.10214 -2.33012,32.5147 -8.82354,47.46453 -1.45229,3.1352 -2.40577,7.401 -4.86491,9.60407 z"
         id="path320" /><path
         style="display:inline;fill:#ce2930"
         d="m 714.95968,216.05512 c -7.14184,-0.6518 -14.26481,-5.08183 -15.91384,-12.4321 -2.35899,-5.94313 1.97306,-11.95818 -0.29212,-17.813 -1.8083,-6.48579 -6.96141,-11.27647 -9.84094,-17.19101 -3.47462,-3.10163 -5.11911,-8.15607 0.14484,-10.39508 4.14775,-3.68713 5.48269,5.52796 8.28171,7.84526 3.88116,7.0563 9.41033,14.45654 17.93916,15.7225 5.30738,0.8447 11.00013,2.17762 14.3977,6.75099 6.83136,7.90724 4.03094,21.74137 -5.6958,25.93773 -2.77714,1.35876 -5.9438,1.9628 -9.02071,1.57471 z m 3.89587,-5.02485 c 8.38146,-1.56172 10.98209,-12.90663 5.80409,-19.02127 -3.74563,-5.29811 -12.16316,-7.91352 -17.20776,-2.92687 -6.29245,5.03485 -5.49796,15.60854 1.05347,20.0883 2.92248,2.16967 6.85478,2.96548 10.3502,1.85984 z m -39.71007,-54.93044 c -4.1915,-6.59189 -10.30508,-30.81139 -11.86325,-55.27089 6.12085,12.15175 12.06945,24.39538 18.5914,36.34006 -3.44871,2.78568 -3.22136,6.40413 0.50971,8.54285 1.28193,4.21819 -5.08881,8.58392 -7.23786,10.38798 z"
         id="path319" /><path
         style="display:inline;fill:#3c5867"
         d="m 655.24332,215.94902 c -7.00082,-1.26463 -13.51374,-7.25841 -13.3634,-14.73148 0.13868,-2.83405 0.57204,-2.97412 1.70676,0.16657 2.07833,5.75242 6.888,13.08523 14.77082,12.47448 2.31023,0.36827 7.32123,-1.88991 2.15312,-1.38482 -2.15932,0.5664 -6.48303,-0.54196 -1.78512,-0.62605 7.75978,0.60272 14.21518,-7.37686 12.28632,-14.82669 -1.48045,-7.14278 -9.31119,-11.91228 -16.36247,-10.17554 0.8999,-2.66274 8.86838,-2.43382 11.90958,0.0609 6.45296,3.696 9.25086,12.54509 5.67241,19.14804 4.45779,-1.97703 -1.43966,6.285 -3.94212,6.92798 -3.75026,2.56563 -8.55033,3.71885 -13.0459,2.96658 z m 16.17705,-40.1286 c 3.05616,-4.10882 7.86183,-13.20451 9.36493,-14.75727 3.12798,2.70267 4.93997,7.39707 3.55375,9.25981 -2.33795,-1.65424 -3.98326,-10.29122 -5.41689,-3.16321 -1.81736,3.21684 -4.09026,6.85651 -7.50179,8.66067 z m 23.09068,-17.57628 c -1.67821,-3.64688 -7.14748,-8.90542 -2.88792,-12.12757 2.62955,-4.22051 -4.61593,-6.46058 -0.40165,-10.56764 5.89214,-11.13983 11.26152,-22.55129 16.87317,-33.83798 -1.90011,15.9247 -4.02165,32.07164 -10.16715,47.00406 -0.009,2.97216 -3.38244,6.69732 -3.93298,7.3773 0.0362,0.21654 1.81687,2.86819 0.51653,2.15183 z"
         id="path318" /><path
         d="m 656.00524,213.46075 c -4.54483,-2.70473 -9.83902,-6.15202 -9.86809,-12.10255 0.19269,-2.46303 -0.69459,-8.57872 -1.34417,-2.68727 -0.61956,6.73622 4.24385,13.99827 11.21226,14.78982 z"
         style="display:inline;fill:#bad6e2;fill-opacity:1"
         id="path1" /><path
         d="m 719.12267,212.71353 c -17.74055,-0.0719 -16.572,-12.89184 -17.52299,-17.58736 -3.85254,9.12583 4.01155,22.11541 17.52299,17.58736 z"
         style="display:inline;fill:#ec9a9d;fill-opacity:1"
         id="path322" /></g></g></svg>
