<?xml version="1.0" encoding="UTF-8" standalone="no"?>
<!-- Created with Inkscape (http://www.inkscape.org/) -->

<svg
   width="938.69891mm"
   height="298.47211mm"
   viewBox="0 0 938.69891 298.47211"
   version="1.1"
   id="svg1"
   xml:space="preserve"
   inkscape:version="1.4.3 (0d15f75, 2025-12-25)"
   sodipodi:docname="EntanglePack.svg"
   xmlns:inkscape="http://www.inkscape.org/namespaces/inkscape"
   xmlns:sodipodi="http://sodipodi.sourceforge.net/DTD/sodipodi-0.dtd"
   xmlns:xlink="http://www.w3.org/1999/xlink"
   xmlns="http://www.w3.org/2000/svg"
   xmlns:svg="http://www.w3.org/2000/svg"><sodipodi:namedview
     id="namedview1"
     pagecolor="#ffffff"
     bordercolor="#000000"
     borderopacity="0.25"
     inkscape:showpageshadow="2"
     inkscape:pageopacity="0.0"
     inkscape:pagecheckerboard="0"
     inkscape:deskcolor="#d1d1d1"
     inkscape:document-units="mm"
     inkscape:zoom="0.25417602"
     inkscape:cx="1799.9338"
     inkscape:cy="340.31534"
     inkscape:window-width="1904"
     inkscape:window-height="993"
     inkscape:window-x="-7"
     inkscape:window-y="0"
     inkscape:window-maximized="0"
     inkscape:current-layer="layer1" /><defs
     id="defs1" /><g
     inkscape:label="Layer 1"
     inkscape:groupmode="layer"
     id="layer1"
     transform="translate(0,1.472119)"><g
       id="g318"
       transform="matrix(1.1083902,0,0,1.1083902,-96.125084,-23.441884)"><path
         style="fill:#7a1c3e;fill-opacity:1;stroke:none;stroke-width:4.50001;stroke-linecap:round;stroke-linejoin:round;stroke-dasharray:none;stroke-opacity:1"
         d="m 914.68882,156.90952 c -7.08552,-4.21593 -12.31178,-33.35084 -11.8018,-55.22537 3.36067,13.29912 14.13844,53.15065 11.8018,55.22537 z m 35.62381,59.25803 c -14.8374,1.02551 -21.13531,-10.47143 -15.24694,-24.2522 -1.98508,10.69929 8.59369,17.68803 15.24694,24.2522 z m 9.53499,-7.79997 c 5.14494,-7.16047 -1.7945,-20.2947 -9.53727,-21.78626 4.07477,-3.4855 19.86541,10.36287 9.53727,21.78626 z"
         id="path321"
         sodipodi:nodetypes="ccccccccc"
         transform="translate(-235.53903)" /><path
         style="display:inline;fill:#3d748e"
         d="m 656.13563,216.13807 c -6.68323,-0.46888 -13.82417,-4.73635 -14.5234,-11.94942 -1.20582,-7.85383 2.62767,-16.7388 10.08829,-20.1299 4.9624,-2.45033 10.99469,-1.65457 15.58225,-5.10456 5.72569,-3.52433 9.75765,-9.29775 11.84347,-15.612 3.06514,-4.80818 4.60529,4.369 6.559,6.35856 -0.62004,4.08058 -5.37971,6.67428 -6.79741,10.81368 -2.20457,4.36698 -4.08342,9.38316 -2.62317,14.27789 2.3306,11.57061 -8.56175,22.84706 -20.12903,21.34575 z m 4.98119,-4.49362 c 6.92135,-0.71599 11.2287,-8.27939 9.29412,-14.73502 -1.61305,-7.51065 -10.44529,-11.96013 -17.48661,-9.15239 -8.26102,3.89418 -8.67756,17.05344 -0.80703,21.67687 2.60493,1.77199 5.85753,2.6843 8.99952,2.21054 z m 22.25624,-52.71159 c -0.53694,-3.23834 6.53856,-8.57504 4.90423,-3.08506 -1.48694,1.13527 -2.83105,3.1696 -4.90423,3.08506 z m 11.13486,-0.49741 c -2.80857,-3.63655 -4.89772,-8.09278 -4.63,-12.50089 -1.14867,-0.98943 -4.83704,-5.2445 -1.00349,-2.85766 0.4425,3.46427 4.72405,3.76638 2.89612,0.34407 -4.79841,-4.31704 0.46626,-9.89351 2.33572,-14.17211 4.58563,-9.34859 8.9688,-18.80821 14.0901,-27.88201 -0.78847,16.10214 -2.33012,32.5147 -8.82354,47.46453 -1.45229,3.1352 -2.40577,7.401 -4.86491,9.60407 z"
         id="path320"
         sodipodi:nodetypes="ccccccccccccccccccccccccc" /><path
         style="display:inline;fill:#ce2930"
         d="m 714.95968,216.05512 c -7.14184,-0.6518 -14.26481,-5.08183 -15.91384,-12.4321 -2.35899,-5.94313 1.97306,-11.95818 -0.29212,-17.813 -1.8083,-6.48579 -6.96141,-11.27647 -9.84094,-17.19101 -3.47462,-3.10163 -5.11911,-8.15607 0.14484,-10.39508 4.14775,-3.68713 5.48269,5.52796 8.28171,7.84526 3.88116,7.0563 9.41033,14.45654 17.93916,15.7225 5.30738,0.8447 11.00013,2.17762 14.3977,6.75099 6.83136,7.90724 4.03094,21.74137 -5.6958,25.93773 -2.77714,1.35876 -5.9438,1.9628 -9.02071,1.57471 z m 3.89587,-5.02485 c 8.38146,-1.56172 10.98209,-12.90663 5.80409,-19.02127 -3.74563,-5.29811 -12.16316,-7.91352 -17.20776,-2.92687 -6.29245,5.03485 -5.49796,15.60854 1.05347,20.0883 2.92248,2.16967 6.85478,2.96548 10.3502,1.85984 z m -39.71007,-54.93044 c -4.1915,-6.59189 -10.30508,-30.81139 -11.86325,-55.27089 6.12085,12.15175 12.06945,24.39538 18.5914,36.34006 -3.44871,2.78568 -3.22136,6.40413 0.50971,8.54285 1.28193,4.21819 -5.08881,8.58392 -7.23786,10.38798 z"
         id="path319"
         sodipodi:nodetypes="cccccccccccccccccccc" /><path
         style="display:inline;fill:#3c5867"
         d="m 655.24332,215.94902 c -7.00082,-1.26463 -13.51374,-7.25841 -13.3634,-14.73148 0.13868,-2.83405 0.57204,-2.97412 1.70676,0.16657 2.07833,5.75242 6.888,13.08523 14.77082,12.47448 2.31023,0.36827 7.32123,-1.88991 2.15312,-1.38482 -2.15932,0.5664 -6.48303,-0.54196 -1.78512,-0.62605 7.75978,0.60272 14.21518,-7.37686 12.28632,-14.82669 -1.48045,-7.14278 -9.31119,-11.91228 -16.36247,-10.17554 0.8999,-2.66274 8.86838,-2.43382 11.90958,0.0609 6.45296,3.696 9.25086,12.54509 5.67241,19.14804 4.45779,-1.97703 -1.43966,6.285 -3.94212,6.92798 -3.75026,2.56563 -8.55033,3.71885 -13.0459,2.96658 z m 16.17705,-40.1286 c 3.05616,-4.10882 7.86183,-13.20451 9.36493,-14.75727 3.12798,2.70267 4.93997,7.39707 3.55375,9.25981 -2.33795,-1.65424 -3.98326,-10.29122 -5.41689,-3.16321 -1.81736,3.21684 -4.09026,6.85651 -7.50179,8.66067 z m 23.09068,-17.57628 c -1.67821,-3.64688 -7.14748,-8.90542 -2.88792,-12.12757 2.62955,-4.22051 -4.61593,-6.46058 -0.40165,-10.56764 5.89214,-11.13983 11.26152,-22.55129 16.87317,-33.83798 -1.90011,15.9247 -4.02165,32.07164 -10.16715,47.00406 -0.009,2.97216 -3.38244,6.69732 -3.93298,7.3773 0.0362,0.21654 1.81687,2.86819 0.51653,2.15183 z"
         id="path318"
         sodipodi:nodetypes="scsccccccccsscccccccccccc" /><path
         d="m 656.00524,213.46075 c -4.54483,-2.70473 -9.83902,-6.15202 -9.86809,-12.10255 0.19269,-2.46303 -0.69459,-8.57872 -1.34417,-2.68727 -0.61956,6.73622 4.24385,13.99827 11.21226,14.78982 z"
         style="display:inline;fill:#bad6e2;fill-opacity:1"
         id="path1"
         sodipodi:nodetypes="cccc"
         inkscape:label="Highlight" /><path
         d="m 719.12267,212.71353 c -17.74055,-0.0719 -16.572,-12.89184 -17.52299,-17.58736 -3.85254,9.12583 4.01155,22.11541 17.52299,17.58736 z"
         style="display:inline;fill:#ec9a9d;fill-opacity:1"
         id="path322"
         sodipodi:nodetypes="ccc"
         inkscape:label="Highlight" /></g><g
       id="g326"
       transform="translate(-151.06181)"><path
         style="fill:#428ba5"
         d="m 686.6627,187.72644 19.27857,-26.35285 -46.92341,-0.21801 c 0,0 18.17998,-30.29503 29.80811,-50.57566 6.69329,-5.4358 0.30927,-15.772725 8.51611,-15.810589 4.58958,-1.109162 11.6152,-0.559633 6.73033,5.447639 -5.96034,20.46777 -19.18537,36.23366 -31.07249,53.60339 l 45.81275,0.23535 c 0,0 -26.7766,39.25329 -38.00073,54.60295 z"
         id="path329"
         sodipodi:nodetypes="cccccccccc" /><path
         style="fill:#f13d40"
         d="m 686.39945,210.64165 c 6.67253,-3.43305 11.93491,-12.02403 16.38811,-17.64144 11.61723,-16.75326 34.54331,-48.4702 34.54331,-48.4702 l -45.47077,-0.0325 17.24497,-25.96239 6.42691,-20.104689 c 1.96697,-2.455063 10.13297,-6.750205 7.61677,-0.144171 -2.44064,5.46338 -3.55425,11.39351 -5.46203,17.07705 -2.63585,6.98611 -4.58605,12.75934 -10.10545,20.75816 l 45.8605,0.10757 -52.0282,74.39067 z"
         id="path328"
         sodipodi:nodetypes="cccccccccccc" /><path
         style="fill:#d6212c"
         d="m 683.45714,210.67214 41.90399,-60.11038 -45.948,-0.163 21.96596,-32.82293 c 0,0 5.47856,-15.19682 8.48121,-22.695787 6.82412,1.284571 6.67751,3.012201 3.62832,12.987007 -3.11813,10.20033 -5.32004,12.7494 -9.166,18.47093 l -11.68181,17.37873 45.88616,0.35319 -44.17381,63.8415 c -3.20057,2.95929 -5.80129,2.73189 -10.89602,2.76074 z"
         id="path327"
         sodipodi:nodetypes="cccccsscccc" /><path
         style="fill:#225567"
         d="m 676.01774,210.23432 c 1.80274,-8.56747 5.17818,-25.78025 5.17818,-25.78025 l 10.89643,-16.2114 -46.33098,-0.19696 c 0,0 -4.42221,8.82382 48.02515,-72.219569 6.45989,-0.444304 5.64848,9.772149 2.0154,13.172499 l -36.78409,52.15651 46.92341,0.21801 c 0,0 -12.10922,17.66889 -17.96666,26.63591 -0.66248,4.22943 -3.33077,24.37026 -11.95684,22.22525 z"
         id="path326"
         sodipodi:nodetypes="cccccccccc" /></g><g
       id="g329"
       transform="translate(-62.303188)"><path
         style="display:inline;fill:#137494"
         d="m 435.60651,206.68924 c -5.14749,-2.70314 -16.55366,-8.83803 -14.15589,-16.16101 3.84451,-3.33521 11.57279,9.17869 16.68754,7.73722 5.18439,-2.29369 9.79286,-5.90191 14.68646,-8.80027 4.6676,-1.50021 -1.12872,-11.80282 4.67853,-8.0475 5.41926,0.43033 4.07553,8.54 2.96959,11.71958 -4.25418,4.92023 -12.14461,6.84793 -17.01971,11.04158 -2.2328,1.63741 -4.96217,3.2819 -7.84652,2.5104 z m 0.17879,-16.4068 c -5.41509,-2.70824 -12.20095,-6.19992 -11.23608,-13.28088 -1.40226,-7.1743 6.95387,-11.07119 12.86685,-11.51282 6.87637,-0.27279 13.14079,5.82077 11.73998,12.86232 0.29864,6.92665 -7.77482,10.67167 -13.37075,11.93138 z m 2.68605,-6.4698 c 7.1976,-1.07058 6.45804,-13.26944 -0.80379,-13.42471 -4.8627,-0.59059 -9.44889,4.42174 -7.31062,9.16003 0.0132,-2.10481 1.87874,4.06408 4.36324,4.13401 1.13457,0.57605 2.62201,0.91216 3.75117,0.13067 z m 45.76092,6.12232 c -3.14225,-2.3633 -8.28236,-3.47045 -9.76175,-7.23055 4.82207,3.18367 10.92236,8.76423 16.50082,3.57849 1.54635,-1.00541 7.75682,-4.53832 3.3643,-1.17658 -2.88905,2.16563 -6.32108,5.09518 -10.10337,4.82864 z m 17.75339,-16.70029 c 1.63211,-7.26261 -7.47813,-9.37076 -12.09916,-12.46351 -6.50923,-4.89498 2.28521,-8.51661 6.79692,-5.66215 5.65737,2.57507 14.41087,5.56048 14.68104,12.71758 1.23854,5.03219 -0.64593,14.3785 -7.46261,10.65133 -1.37669,-0.54599 -1.46914,-1.37777 -1.91619,-5.24325 z m -41.38553,6.34872 c -3.43484,-0.71277 -10.04618,-4.24763 -6.96077,-8.57966 1.15832,-5.06328 12.85403,-8.39362 13.35201,-3.28794 2.4545,7.5018 -0.47501,12.42402 -6.39124,11.8676 z m 17.30527,-18.21642 c -5.195,-1.35713 -8.10268,-7.17093 -0.89589,-14.43638 1.4171,-1.42862 7.09131,0.53589 6.28506,1.11047 6.54797,2.47815 1.29637,15.17552 -5.38917,13.32591 z m -34.88382,-2.39543 c 4.52413,-1.6897 -4.84491,0.78051 -4.31592,-3.34709 -2.90916,-3.58839 3.99447,-7.57975 3.10088,-7.73946 3.56916,-0.48054 7.63496,2.256 7.58319,6.20751 -0.037,2.82609 -2.86932,7.27378 -6.36815,4.87904 z m -15.61443,-5.55125 c -6.36131,-0.90876 -11.0016,-5.75629 -16.31729,-8.87918 -1.58853,-4.87153 -1.951,-15.0951 -0.31361,-19.31678 3.86493,-0.59888 9.41598,0.77271 7.48121,5.88979 -1.26416,5.71739 2.58253,12.0779 7.42725,13.86548 3.44173,1.13646 16.10821,7.27307 10.50482,10.5743 -1.30225,0.29559 -7.49161,-2.32388 -8.78238,-2.13361 z m 34.01419,-11.89055 c -7.46606,1.80797 -11.6167,-10.19029 -3.6523,-12.22743 5.73424,-1.4667 7.02418,-3.33733 8.60334,0.84365 1.74352,4.61613 2.15221,8.65955 0.45167,9.26881 -0.7444,0.2667 -3.97841,1.77007 -5.40271,2.11497 z m 33.53263,-3.48439 c -2.09557,-1.85966 -6.42309,-1.73093 -2.68225,-5.02132 2.3048,-5.25371 -4.1938,-11.87464 -9.26067,-8.28766 -3.17942,1.0987 -4.23818,7.42433 -3.49257,8.131 -2.18731,-0.84857 -7.44392,3.57348 -6.49012,-3.50725 -0.43001,-6.87522 7.35058,-12.90836 13.21856,-11.95657 5.54312,0.8991 11.92279,5.15949 11.06339,11.90041 -0.16974,2.67797 0.45448,7.30036 -2.35634,8.74139 z"
         id="path333"
         sodipodi:nodetypes="ccccccccccccccccccccccccccccccccccscccccsccccccccssssscccccscc" /><path
         style="fill:#d71627"
         d="m 483.77542,206.95508 c -7.5182,-4.11207 -14.84283,-8.57473 -21.97696,-13.32101 -1.59475,-3.23876 -2.94393,-11.58853 1.38885,-11.91393 2.38287,-1.051 7.0112,-3.3425 5.64417,1.51181 1.33919,6.63957 9.3757,7.08179 13.36225,11.44318 5.08744,4.01489 12.49856,-9.51664 14.75026,-1.19363 2.08127,5.5891 -2.32629,9.00696 -6.76282,11.0768 -1.89534,1.26243 -4.02279,2.62004 -6.40575,2.39678 z m -73.7399,-35.96969 c -1.98609,-5.84849 2.7629,-11.22624 7.88314,-13.38494 4.91161,-3.47015 11.08744,-5.31561 17.06982,-3.58436 2.9961,4.98475 9.76753,8.74562 13.65968,2.30403 2.50144,-4.0155 0.74239,-10.83943 6.84666,-12.99881 5.49837,-2.6708 14.39803,-1.77799 16.12312,5.20216 0.49762,4.69019 1.21416,10.62394 -3.12981,13.92366 -5.05943,2.86426 -13.75943,3.27212 -16.90769,-2.79551 -4.63802,-2.01455 -6.80807,7.41493 -12.13352,3.48008 -4.06492,-2.81758 -8.95327,-4.29238 -12.49756,0.0891 -6.21715,1.96843 -7.90923,8.08091 -6.54574,13.74026 -1.66263,2.58428 -5.23147,0.76959 -7.8274,1.26113 -4.67912,1.28869 -1.78254,-4.59681 -2.5407,-7.23682 z m 52.82626,-14.43372 c 6.73525,-3.66682 -5.15323,-11.63602 -4.81064,-2.26369 -0.0865,2.46518 2.95833,3.52739 4.81064,2.26369 z m 29.74568,-3.10815 c -5.56134,1.78014 -6.05633,-8.55663 -0.70227,-8.92684 4.80278,-2.44724 11.42875,-5.22895 9.89736,-11.70333 0.36387,-4.69519 1.79012,-11.56805 -3.68816,-13.82519 -4.14894,-2.2923 -2.87618,-11.30072 -2.51222,-12.92072 2.34872,3.61652 8.44546,5.67446 11.98787,7.9603 5.48522,2.69401 3.65962,9.06119 3.85229,13.90916 -0.0231,4.9472 0.0251,9.89828 -0.24264,14.84035 -3.43364,5.29547 -9.83706,7.84591 -15.17898,10.63207 -1.12352,0.21731 -2.28519,0.21995 -3.41325,0.0342 z m -57.28615,-10.70839 c -5.06904,-2.71263 -12.32336,-6.21521 -10.60811,-13.1424 -1.11965,-6.64523 6.37514,-9.41067 11.17102,-11.7452 5.43294,0.59826 13.01751,4.26706 12.8198,10.4757 1.31928,5.25873 -0.73332,10.72904 -6.24366,12.28158 -2.1917,1.15533 -4.5862,2.35625 -7.13905,2.13032 z m 2.67371,-6.61484 c 7.23175,-1.46951 3.9263,-13.84771 -3.10964,-11.22794 -5.71192,1.80284 -4.43702,9.69757 0.9572,10.94071 0.57731,0.42626 1.49045,0.74534 2.15244,0.28723 z m 5.85584,-22.01402 c -4.89292,-4.76592 -11.52539,-3.15897 -15.53831,1.38778 -11.99013,2.29564 -4.18645,-9.34604 0.0179,-11.10822 5.14649,-3.74673 11.43,-6.200541 16.63175,-0.99596 4.90635,4.63028 13.65565,5.26593 15.68428,12.56463 1.13892,11.30889 -0.82554,13.27912 -7.03886,12.66678 -0.99403,-8.22351 -1.89214,-10.43112 -9.75676,-14.51501 z"
         id="path332"
         sodipodi:nodetypes="ccccccccscccccccccccsscccccccccccccccccccccccccccccc" /><path
         style="fill:#1e5a71"
         d="m 427.46956,190.65224 c 4.78729,3.92843 11.10577,7.96383 16.12224,1.90207 4.23698,-2.28192 10.13651,-4.72103 9.99639,-10.42324 1.54666,-3.98435 3.05455,6.23998 0.68216,6.87404 -5.70619,3.1247 -11.9006,10.97964 -18.47324,10.48048 -4.94007,-2.23516 -12.09172,-8.14344 -8.32755,-8.83335 z m 56.63953,-2.08674 c -5.11799,-2.84126 -12.55883,-5.55363 -11.18325,-12.8116 -1.08611,-6.75657 5.68017,-9.6062 10.85862,-11.07318 6.29384,-0.37512 13.86223,4.28994 13.75238,11.18921 1.0032,6.62198 -4.79092,9.81374 -9.81883,12.19251 -1.13354,0.4692 -2.38758,0.69233 -3.60892,0.50306 z m 4.03241,-5.58125 c 7.34574,-1.85199 4.14342,-14.36138 -3.19126,-12.72201 -1.94799,2.57806 -5.2306,0.37511 -5.86254,4.76553 -1.53069,4.75699 3.82159,10.63091 8.56955,8.37036 z m -53.06776,1.13692 c -6.90507,-1.18083 -7.78552,-13.17838 1.23519,-13.78645 8.21854,-1.07385 10.90555,9.36809 4.88199,12.92119 -1.36654,1.06423 -4.45365,1.89479 -6.11718,0.86526 z m 2.37265,-1.2157 c 5.08319,-0.20154 6.75475,-9.21664 2.68568,-10.68235 -6.79826,-4.88023 -11.98174,6.28333 -5.64516,10.16749 0.85996,0.56936 1.9571,0.75637 2.95948,0.51486 z m 22.04521,-5.4139 c -6.29763,-0.36639 -5.54673,-10.97407 0.78118,-10.56033 3.46208,0.65993 -5.58985,1.28561 -3.72656,4.85206 -0.92718,3.58508 5.56894,6.10784 5.3539,5.59286 -0.79107,0.15808 -1.60594,0.19906 -2.40852,0.11541 z m 19.58373,-14.80893 c -7.04281,-1.11533 -7.8174,-11.8434 -1.9797,-14.93906 1.89496,-1.15529 6.20021,0.18344 1.8853,-0.17325 -2.95933,0.59261 3.03008,0.64773 -0.3205,0.85706 -5.82534,1.35951 -3.583,11.03431 2.18144,10.13805 -2.94204,-0.61091 -7.03858,-0.23591 -1.91273,1.08473 5.33544,-0.59295 7.26982,-8.45519 13.65327,-6.41407 2.26772,-0.23693 6.43116,2.0384 1.58714,1.5657 -3.59017,-0.99955 -6.04369,0.53372 -6.03342,4.07552 -2.04057,2.7502 -5.79612,3.71211 -9.0608,3.80532 z m -38.37909,-2.77268 c -4.35985,-1.2269 -6.59429,-6.79506 -2.73751,-10.40816 1.13107,-3.39658 1.613,-4.19057 7.28837,-2.93665 0.0714,3.13053 1.02842,1.56814 -3.66125,2.30435 -5.26823,2.20261 -0.31225,11.78916 5.10169,8.61497 -2.53535,0.82375 -0.50635,3.12292 -5.9913,2.42549 z m -7.72779,-8.81718 c -1.78621,-5.81721 -9.6102,-5.39371 -13.33411,-9.5431 -2.58513,-2.96703 -4.35067,-11.43681 -0.23788,-12.6834 -0.78872,9.27072 6.51085,12.52355 1.43631,11.42738 3.57057,4.29721 13.01119,4.40213 12.25227,11.45723 -0.002,2.16404 -0.15481,-0.18313 -0.11659,-0.65811 z m 51.26586,-8.82423 c -4.0012,-2.31148 -10.69086,-3.39248 -11.10276,-8.98532 1.72724,-1.2912 7.59029,0.44278 6.54166,-2.29055 -0.35947,7.01025 10.43806,7.36096 12.4998,1.61988 2.37015,-7.3124 -9.32699,-11.073 -12.5755,-3.19868 1.27131,-11.66596 18.18935,-5.07148 12.84122,4.1511 -3.96919,3.90896 5.89708,2.48473 1.45072,5.17494 -2.02337,0.83319 -3.74607,2.12681 -7.51135,3.74042 -0.99957,0.41548 -1.23924,0.34472 -2.14379,-0.21179 z m -24.82455,-1.80848 c -9.06191,-1.32172 -4.19068,-14.31088 1.69577,-11.24766 -3.04526,0.25769 2.93468,1.00306 -0.94423,1.03946 -6.13965,1.8239 -0.94018,12.80539 4.60639,9.08457 -0.97148,0.86633 -4.12183,2.11643 -5.35793,1.12363 z"
         id="path331"
         sodipodi:nodetypes="cccccccccccccccccccccccccccccccccccccccccccccccccccccccccccccccccc" /><path
         style="fill:#30333b"
         d="m 496.99475,195.91359 c -0.30552,-3.47469 -1.75298,-8.62613 3.432,-8.87674 3.1919,-2.75448 -0.8515,-9.47806 6.06034,-9.24157 7.56753,0.25893 5.67732,9.31625 3.49039,13.48449 -3.04366,4.12406 -8.49568,6.44039 -12.90413,8.2089 -0.69704,-1.07625 0.11712,-2.38391 -0.0786,-3.57508 z m -74.50721,3.0978 c -4.56126,-3.52792 -13.81628,-5.15218 -12.22945,-12.75444 -0.51548,-3.06122 -1.69918,-9.13768 3.29236,-8.03474 h 6.70173 c -1.52054,4.94122 1.99677,9.08469 4.59579,11.98396 -0.53156,2.83428 0.29929,8.3608 -1.57365,9.44862 z m 59.2502,-16.23907 c -4.90606,-3.54318 -5.28089,-12.89937 0.0883,-11.04756 -6.69028,3.26573 1.42264,10.72584 4.09086,11.11273 2.07788,-0.33062 3.47705,-0.61092 4.18174,-2.12485 4.1869,-4.71645 -1.95907,-12.29525 -7.30326,-9.44648 -4.72062,2.39897 3.64406,-3.4881 5.48002,-1.12535 6.45019,1.67005 6.44019,11.45399 0.44334,13.25649 -2.51944,1.47474 -4.85824,0.90812 -6.98104,-0.62498 z m -22.60264,-1.13684 c -8.28611,-0.0199 -11.41873,-13.6681 -3.63597,-16.92037 5.36493,-1.51806 14.70168,-1.63694 15.27783,5.76513 1.13174,5.23899 -2.5197,11.1825 -8.17883,11.19658 -1.15184,0.10761 -2.31332,0.0758 -3.46303,-0.0413 z m 4.24994,-3.81667 c 7.03198,-2.20118 2.25638,-14.36039 -4.33464,-10.93662 -7.14468,1.90772 -2.92922,14.37193 3.90141,11.11571 l 0.27385,-0.1132 z m 16.10795,-14.14573 c -6.68783,-1.48941 -10.07355,-9.41525 -7.05423,-15.41456 3.13142,-6.5531 12.97872,-5.66342 15.92014,0.47217 4.52239,7.70513 -3.41398,10.62949 -3.3883,1.86112 -4.02762,-6.87214 -13.67172,-1.30797 -11.83152,5.73078 0.47079,5.30884 7.2486,8.29492 11.50505,5.08088 3.33815,-1.72299 -4.03485,3.61482 -5.15114,2.26961 z m -31.76441,-7.24138 c 3.49553,-5.94933 -6.70936,-13.08709 -10.06829,-6.28636 -0.39207,4.00016 -5.50414,5.42696 -4.28437,0.30354 -2.82416,-4.19166 -2.32869,-3.85218 1.47304,-3.26404 3.58138,-2.92374 8.68485,-5.80951 12.47864,-1.02641 2.79851,1.88998 4.45996,9.23562 0.40098,10.27327 z m 8.50906,-14.42984 c -6.89545,-1.64287 -7.16308,-14.61984 0.46936,-14.82016 6.88774,-1.30751 2.53452,-8.73697 4.3366,-13.03886 3.02824,-6.08609 10.75489,-6.83774 15.37973,-11.35837 5.22568,-5.196683 11.99602,-2.20207 16.8112,1.78505 3.49578,0.75397 3.40336,3.43218 3.15364,6.29953 -0.25857,2.04153 1.09298,6.08332 -2.56422,4.66691 -4.86275,-2.9991 -10.0967,-8.70907 -15.77553,-3.26369 -3.97576,3.35067 -11.664,4.92494 -10.94098,11.43482 -2.71115,4.6941 4.86983,5.40423 3.92866,10.88755 0.28755,6.48224 -7.0676,8.66022 -12.30166,7.64784 -0.8332,-0.0703 -1.66468,-0.15895 -2.4968,-0.24062 z m 7.30088,-1.70117 c 6.47001,-2.57875 2.62062,-13.53364 -4.12113,-11.12895 -6.62432,1.48654 -4.63024,12.68627 2.13332,11.58831 0.69657,-0.0364 1.34326,-0.19592 1.98781,-0.45936 z m 21.40674,-3.31975 c -8.4067,0.0934 -5.93551,-10.42632 -4.55879,-8.74514 -2.54803,4.53514 3.32107,7.50329 5.93503,7.6002 1.91857,-0.38832 2.92123,-0.98751 5.85146,-7.23728 2.26314,5.7106 -2.961,8.19219 -7.2277,8.38222 z m -71.41206,-8.48729 c -6.36658,0.64418 -3.10401,-8.69474 -2.66948,-12.04429 3.57127,-3.50065 9.48317,-7.08033 13.40455,-8.10063 0.61473,3.7649 1.69542,8.6299 -2.82692,9.66008 -3.29005,4.06681 1.40732,13.34324 -7.10955,10.37922 z"
         id="path330"
         sodipodi:nodetypes="ccsccccccccccsccccccsscccsscccccccccccccccccccccccccccccccccccccccccccccc" /></g><g
       id="g333"
       transform="translate(-186.32921)"><path
         style="fill:#4594b2"
         d="m 411.91784,198.91865 c -6.00288,-0.4717 -10.8203,-4.54731 -14.37858,-10.12832 1.66251,0.15005 7.01798,-0.16835 9.17739,-3.00715 3.72094,4.61445 7.46375,5.34609 13.18431,1.71224 6.66826,8.12815 -2.59109,11.85817 -7.98312,11.42323 z m -16.6596,-18.14674 c -6.94574,-1.3325 -11.87263,-7.7646 -14.15487,-14.10839 -1.44387,-3.25281 2.7746,-10.44398 5.27792,-9.20841 4.31057,2.10361 -0.58306,5.41667 0.78809,8.92132 1.06206,4.71234 5.87306,7.40325 10.16652,8.76318 8.39004,-3.80803 24.14756,-21.66221 24.14756,-21.66221 l 3.67713,3.66433 c 0,0 -15.31465,15.10481 -23.00244,22.40734 -2.09129,1.11007 -4.56597,1.39219 -6.89991,1.22284 z m 37.52392,-6.1879 36.82826,-36.96098 c 2.83387,-2.84408 0.53184,-7.53055 -2.52118,-9.27708 -1.0329,-0.54638 -4.31762,-1.20417 -6.62814,0.8208 -2.96998,2.60292 -8.06845,2.5188 -11.21633,3.51778 -4.32434,4.29172 -12.97301,12.87517 -12.97301,12.87517 l -3.57065,-3.55897 c 0,0 14.97232,-15.44479 23.05339,-22.52323 6.89729,-4.75239 16.79264,-1.88154 21.38424,4.75601 4.02144,5.16889 6.3193,13.59331 -0.66745,20.90192 -0.90903,-3.33581 -2.30194,-7.74844 -3.92236,-3.59488 -11.95626,12.3682 -36.38741,36.59434 -36.38741,36.59434 z"
         id="path338"
         sodipodi:nodetypes="cccccccccccccccscsccccccccc" /><path
         style="fill:#f42537"
         d="m 445.93976,197.5053 c -6.08719,-1.43213 -8.95791,-6.63352 -13.46651,-10.50119 -4.35231,-4.33434 -12.59324,-13.46673 -12.59324,-13.46673 l 3.69843,-3.71878 c 0,0 13.5777,14.04737 20.97749,20.38378 4.22234,2.19174 8.0284,-1.28727 10.85543,-4.06946 2.1686,2.20984 6.06096,2.74152 8.95203,2.65856 -2.45795,6.86572 -7.93539,11.18137 -18.42363,8.71382 z m 17.7365,-16.27194 c -3.84656,-0.45023 -11.18827,-7.54821 -11.18827,-7.54821 l 3.57408,-3.82652 c 0,0 7.09433,6.68125 10.79471,4.59852 4.14695,-1.98326 4.36757,-5.81636 4.45027,-11.41399 0.70788,-1.95862 3.56131,-5.40387 5.2657,-5.44701 4.2884,4.49845 5.57345,11.69542 3.01601,17.36094 -4.1146,4.10731 -10.01114,6.90143 -15.9125,6.27627 z m -57.57586,-53.7246 c -3.83461,-1.77259 -8.83817,-2.82782 -12.46477,-0.1558 -2.7576,1.15326 -5.49247,4.10235 -3.00102,5.6493 -1.01352,4.10203 5.24614,9.44885 5.24614,9.44885 l -3.70128,3.72798 c -5.42827,-6.017 -6.60766,-6.55379 -9.49604,-3.28091 -7.21723,-11.6362 1.98705,-23.97156 11.72301,-25.43071 5.83634,-1.1308 11.70639,1.63654 15.40769,6.09826 11.77289,11.58535 35.12346,34.95621 35.12346,34.95621 l -3.73769,3.77436 c 0,0 -23.62428,-23.75295 -35.0995,-34.78754 z m 49.05119,-10.75703 c -2.81876,-3.68488 -4.53452,-4.28935 -7.76234,-4.29264 -4.0458,-0.004 -7.4736,3.58527 -7.4736,3.58527 l -6.7003,-6.31305 c 0,0 4.30813,-7.84931 15.41081,-7.11037 10.2213,0.68028 15.09554,11.2436 15.09554,11.2436 -4.83178,0.22174 -6.36742,1.67954 -8.57011,2.88719 z"
         id="path337"
         sodipodi:nodetypes="sccccccsccccccccccccccccccccsccscc" /><path
         style="fill:#30738b"
         d="m 411.09171,200.98277 c -6.32549,-1.46563 -11.76458,-6.5102 -13.7924,-12.64372 3.53139,5.73736 16.43451,12.0584 24.26596,5.49585 -1.49469,-2.66943 -4.8753,-4.51892 -0.29393,-7.32879 l 7.10246,6.7499 c -3.1103,5.49102 -10.4889,8.98884 -17.28209,7.72676 z m -16.50185,-15.90576 c -8.00343,-1.57565 -16.46037,-11.15165 -13.69614,-20.67572 1.46761,4.02734 2.91067,7.99471 5.07195,10.06152 4.54787,4.34907 10.78434,8.52818 16.46017,4.74664 7.74823,-7.1574 22.50112,-22.25753 22.50112,-22.25753 l 3.69381,3.6856 c 0,0 -14.81928,15.13732 -22.72092,22.14694 -3.33238,2.08133 -7.4323,2.88613 -11.30999,2.29255 z m 41.50284,-6.9743 c 0,0 25.26708,-25.49554 36.79812,-37.56171 1.88044,-5.3393 8.62368,-0.55244 3.28441,4.8063 l -36.32255,36.455 z m 0.13636,-32.51933 c 0,0 11.79187,-12.11194 16.45168,-16.73661 1.75447,3.25007 2.96644,0.68968 5.06884,-0.45201 2.68922,-2.46611 3.61405,-0.36956 1.88832,1.34007 l -19.71443,19.53054 z"
         id="path336"
         sodipodi:nodetypes="ccccccccscccccccscccccscc" /><path
         style="fill:#a81822"
         d="m 444.38781,201.05146 c -9.82337,-3.38174 -28.13479,-23.89752 -28.13479,-23.89752 l 3.72549,-3.59385 c 0,0 15.60515,16.12379 22.78372,22.28102 5.3702,3.33902 12.57821,1.86458 17.68327,-1.32507 3.76923,-3.34612 -2.34907,3.62187 -3.92916,4.01403 -3.55097,2.27767 -7.95465,3.32783 -12.12853,2.52139 z m 17.32742,-15.76501 c -5.46567,-0.42859 -12.77901,-8.42227 -12.77901,-8.42227 l 3.67795,-3.31872 c 0.0736,-0.10301 6.9244,6.55697 11.24325,7.49435 4.0756,1.06746 10.66433,-1.43373 14.25617,-4.76907 3.47481,-4.03708 -0.95604,3.58004 -2.54677,4.34593 -3.69935,3.35936 -8.84242,5.28523 -13.85159,4.66978 z m 8.39779,-14.10831 c 2.18521,-4.40742 -4.88957,-10.72061 -4.88957,-10.72061 l 7.06257,-6.68909 c 0,0 6.08462,3.80044 3.72212,5.19574 -3.63427,2.35557 -4.938,5.13379 -4.67262,9.12816 0.18706,0.73644 -2.01439,5.52981 -1.2225,3.0858 z M 400.2249,128.59953 c -3.666,-2.08426 -8.34026,0.84307 -9.66436,4.53692 -3.2618,-1.8146 1.31553,-6.68084 4.10654,-7.66502 3.37777,-1.6968 7.65716,-0.87447 11.71325,1.92737 11.62057,11.5705 34.85308,34.92706 34.85308,34.92706 l -3.65492,3.15019 c 0,0 -24.36425,-25.15637 -37.35359,-36.87652 z m -13.91694,18.59792 c -3.86937,-3.42573 -5.21785,-6.06852 -3.01808,-10.65806 1.54034,-1.68105 8.91854,9.61632 8.91854,9.61632 l -3.57123,3.4059 c 0,0 -1.55282,-1.57611 -2.32923,-2.36416 z m 53.61222,-31.2133 -3.39599,-3.09784 c 8.94248,-6.61516 15.93734,-6.80409 22.76164,1.67269 -1.52663,0.24377 -2.44952,1.26223 -4.21333,2.49378 -5.98472,-7.25777 -10.55676,-3.72819 -15.15232,-1.06863 z"
         id="path335"
         sodipodi:nodetypes="ccccccccccccccccccccccccccccccccccccc" /><path
         style="fill:#3f4851"
         d="m 390.26548,172.02796 c -4.22915,-2.24772 -4.11822,-7.82933 -2.54582,-11.87831 0.48199,-1.24114 -1.76111,-2.33341 -3.28588,-2.22216 6.36322,-6.31093 20.9113,-20.88457 20.9113,-20.88457 l 7.12661,7.3044 c 0,0 -14.37182,13.93409 -21.06143,21.36162 -2.016,1.07274 -1.93602,3.74967 -1.14478,6.31902 z m 27.76195,-58.58218 c -1.7296,-1.17734 -3.60355,-1.96875 -6.10402,-1.03258 -2.46935,0.92451 -3.05399,2.48967 -4.74716,4.82342 -3.03745,-1.9824 -6.12197,-3.08205 -9.39755,-3.25918 3.61823,-11.14523 15.48653,-14.574844 23.52612,-10.35145 5.93389,3.34905 23.20954,22.40182 23.20954,22.40182 l -6.76722,6.80765 c 0,0 -15.13286,-15.09158 -19.71971,-19.38968 z"
         id="path334"
         sodipodi:nodetypes="csccccccscccccc" /></g><g
       id="g339"
       transform="translate(-194.1363,-9.3685077)"><path
         style="fill:#f42537;fill-opacity:1"
         d="m 424.41983,135.32072 4.85813,-4.84743 3.54181,3.67637 -4.43307,5.06995 z"
         id="path1-7" /><path
         style="fill:#a81822"
         d="m 427.6689,138.56663 4.83999,-4.75082 3.49163,3.52413 -4.86317,4.79833 z"
         id="path339"
         sodipodi:nodetypes="ccccc" /></g><use
       x="0"
       y="0"
       xlink:href="#g339"
       id="use339"
       transform="rotate(90,212.26226,135.26483)" /><use
       x="0"
       y="0"
       xlink:href="#g339"
       id="use340"
       transform="rotate(90,244.21022,151.30026)" /></g><g
     inkscape:groupmode="layer"
     id="layer3"
     inkscape:label="Layer 2" /></svg>
