<?xml version="1.0" encoding="UTF-8" standalone="no"?>
<!-- Created with Inkscape (http://www.inkscape.org/) -->

<svg
   width="100.85408mm"
   height="99.441757mm"
   viewBox="0 0 100.85408 99.441759"
   version="1.1"
   id="svg1"
   xml:space="preserve"
   xmlns:xlink="http://www.w3.org/1999/xlink"
   xmlns="http://www.w3.org/2000/svg"
   xmlns:svg="http://www.w3.org/2000/svg"><defs
     id="defs1" /><g
     id="layer1"
     transform="translate(-193.77207,-101.87927)"><g
       id="g333"
       transform="translate(-186.32921)"><path
         style="fill:#4594b2"
         d="m 411.91784,198.91865 c -6.00288,-0.4717 -10.8203,-4.54731 -14.37858,-10.12832 1.66251,0.15005 7.01798,-0.16835 9.17739,-3.00715 3.72094,4.61445 7.46375,5.34609 13.18431,1.71224 6.66826,8.12815 -2.59109,11.85817 -7.98312,11.42323 z m -16.6596,-18.14674 c -6.94574,-1.3325 -11.87263,-7.7646 -14.15487,-14.10839 -1.44387,-3.25281 2.7746,-10.44398 5.27792,-9.20841 4.31057,2.10361 -0.58306,5.41667 0.78809,8.92132 1.06206,4.71234 5.87306,7.40325 10.16652,8.76318 8.39004,-3.80803 24.14756,-21.66221 24.14756,-21.66221 l 3.67713,3.66433 c 0,0 -15.31465,15.10481 -23.00244,22.40734 -2.09129,1.11007 -4.56597,1.39219 -6.89991,1.22284 z m 37.52392,-6.1879 36.82826,-36.96098 c 2.83387,-2.84408 0.53184,-7.53055 -2.52118,-9.27708 -1.0329,-0.54638 -4.31762,-1.20417 -6.62814,0.8208 -2.96998,2.60292 -8.06845,2.5188 -11.21633,3.51778 -4.32434,4.29172 -12.97301,12.87517 -12.97301,12.87517 l -3.57065,-3.55897 c 0,0 14.97232,-15.44479 23.05339,-22.52323 6.89729,-4.75239 16.79264,-1.88154 21.38424,4.75601 4.02144,5.16889 6.3193,13.59331 -0.66745,20.90192 -0.90903,-3.33581 -2.30194,-7.74844 -3.92236,-3.59488 -11.95626,12.3682 -36.38741,36.59434 -36.38741,36.59434 z"
         id="path338" /><path
         style="fill:#f42537"
         d="m 445.93976,197.5053 c -6.08719,-1.43213 -8.95791,-6.63352 -13.46651,-10.50119 -4.35231,-4.33434 -12.59324,-13.46673 -12.59324,-13.46673 l 3.69843,-3.71878 c 0,0 13.5777,14.04737 20.97749,20.38378 4.22234,2.19174 8.0284,-1.28727 10.85543,-4.06946 2.1686,2.20984 6.06096,2.74152 8.95203,2.65856 -2.45795,6.86572 -7.93539,11.18137 -18.42363,8.71382 z m 17.7365,-16.27194 c -3.84656,-0.45023 -11.18827,-7.54821 -11.18827,-7.54821 l 3.57408,-3.82652 c 0,0 7.09433,6.68125 10.79471,4.59852 4.14695,-1.98326 4.36757,-5.81636 4.45027,-11.41399 0.70788,-1.95862 3.56131,-5.40387 5.2657,-5.44701 4.2884,4.49845 5.57345,11.69542 3.01601,17.36094 -4.1146,4.10731 -10.01114,6.90143 -15.9125,6.27627 z m -57.57586,-53.7246 c -3.83461,-1.77259 -8.83817,-2.82782 -12.46477,-0.1558 -2.7576,1.15326 -5.49247,4.10235 -3.00102,5.6493 -1.01352,4.10203 5.24614,9.44885 5.24614,9.44885 l -3.70128,3.72798 c -5.42827,-6.017 -6.60766,-6.55379 -9.49604,-3.28091 -7.21723,-11.6362 1.98705,-23.97156 11.72301,-25.43071 5.83634,-1.1308 11.70639,1.63654 15.40769,6.09826 11.77289,11.58535 35.12346,34.95621 35.12346,34.95621 l -3.73769,3.77436 c 0,0 -23.62428,-23.75295 -35.0995,-34.78754 z m 49.05119,-10.75703 c -2.81876,-3.68488 -4.53452,-4.28935 -7.76234,-4.29264 -4.0458,-0.004 -7.4736,3.58527 -7.4736,3.58527 l -6.7003,-6.31305 c 0,0 4.30813,-7.84931 15.41081,-7.11037 10.2213,0.68028 15.09554,11.2436 15.09554,11.2436 -4.83178,0.22174 -6.36742,1.67954 -8.57011,2.88719 z"
         id="path337" /><path
         style="fill:#30738b"
         d="m 411.09171,200.98277 c -6.32549,-1.46563 -11.76458,-6.5102 -13.7924,-12.64372 3.53139,5.73736 16.43451,12.0584 24.26596,5.49585 -1.49469,-2.66943 -4.8753,-4.51892 -0.29393,-7.32879 l 7.10246,6.7499 c -3.1103,5.49102 -10.4889,8.98884 -17.28209,7.72676 z m -16.50185,-15.90576 c -8.00343,-1.57565 -16.46037,-11.15165 -13.69614,-20.67572 1.46761,4.02734 2.91067,7.99471 5.07195,10.06152 4.54787,4.34907 10.78434,8.52818 16.46017,4.74664 7.74823,-7.1574 22.50112,-22.25753 22.50112,-22.25753 l 3.69381,3.6856 c 0,0 -14.81928,15.13732 -22.72092,22.14694 -3.33238,2.08133 -7.4323,2.88613 -11.30999,2.29255 z m 41.50284,-6.9743 c 0,0 25.26708,-25.49554 36.79812,-37.56171 1.88044,-5.3393 8.62368,-0.55244 3.28441,4.8063 l -36.32255,36.455 z m 0.13636,-32.51933 c 0,0 11.79187,-12.11194 16.45168,-16.73661 1.75447,3.25007 2.96644,0.68968 5.06884,-0.45201 2.68922,-2.46611 3.61405,-0.36956 1.88832,1.34007 l -19.71443,19.53054 z"
         id="path336" /><path
         style="fill:#a81822"
         d="m 444.38781,201.05146 c -9.82337,-3.38174 -28.13479,-23.89752 -28.13479,-23.89752 l 3.72549,-3.59385 c 0,0 15.60515,16.12379 22.78372,22.28102 5.3702,3.33902 12.57821,1.86458 17.68327,-1.32507 3.76923,-3.34612 -2.34907,3.62187 -3.92916,4.01403 -3.55097,2.27767 -7.95465,3.32783 -12.12853,2.52139 z m 17.32742,-15.76501 c -5.46567,-0.42859 -12.77901,-8.42227 -12.77901,-8.42227 l 3.67795,-3.31872 c 0.0736,-0.10301 6.9244,6.55697 11.24325,7.49435 4.0756,1.06746 10.66433,-1.43373 14.25617,-4.76907 3.47481,-4.03708 -0.95604,3.58004 -2.54677,4.34593 -3.69935,3.35936 -8.84242,5.28523 -13.85159,4.66978 z m 8.39779,-14.10831 c 2.18521,-4.40742 -4.88957,-10.72061 -4.88957,-10.72061 l 7.06257,-6.68909 c 0,0 6.08462,3.80044 3.72212,5.19574 -3.63427,2.35557 -4.938,5.13379 -4.67262,9.12816 0.18706,0.73644 -2.01439,5.52981 -1.2225,3.0858 z M 400.2249,128.59953 c -3.666,-2.08426 -8.34026,0.84307 -9.66436,4.53692 -3.2618,-1.8146 1.31553,-6.68084 4.10654,-7.66502 3.37777,-1.6968 7.65716,-0.87447 11.71325,1.92737 11.62057,11.5705 34.85308,34.92706 34.85308,34.92706 l -3.65492,3.15019 c 0,0 -24.36425,-25.15637 -37.35359,-36.87652 z m -13.91694,18.59792 c -3.86937,-3.42573 -5.21785,-6.06852 -3.01808,-10.65806 1.54034,-1.68105 8.91854,9.61632 8.91854,9.61632 l -3.57123,3.4059 c 0,0 -1.55282,-1.57611 -2.32923,-2.36416 z m 53.61222,-31.2133 -3.39599,-3.09784 c 8.94248,-6.61516 15.93734,-6.80409 22.76164,1.67269 -1.52663,0.24377 -2.44952,1.26223 -4.21333,2.49378 -5.98472,-7.25777 -10.55676,-3.72819 -15.15232,-1.06863 z"
         id="path335" /><path
         style="fill:#3f4851"
         d="m 390.26548,172.02796 c -4.22915,-2.24772 -4.11822,-7.82933 -2.54582,-11.87831 0.48199,-1.24114 -1.76111,-2.33341 -3.28588,-2.22216 6.36322,-6.31093 20.9113,-20.88457 20.9113,-20.88457 l 7.12661,7.3044 c 0,0 -14.37182,13.93409 -21.06143,21.36162 -2.016,1.07274 -1.93602,3.74967 -1.14478,6.31902 z m 27.76195,-58.58218 c -1.7296,-1.17734 -3.60355,-1.96875 -6.10402,-1.03258 -2.46935,0.92451 -3.05399,2.48967 -4.74716,4.82342 -3.03745,-1.9824 -6.12197,-3.08205 -9.39755,-3.25918 3.61823,-11.14523 15.48653,-14.574844 23.52612,-10.35145 5.93389,3.34905 23.20954,22.40182 23.20954,22.40182 l -6.76722,6.80765 c 0,0 -15.13286,-15.09158 -19.71971,-19.38968 z"
         id="path334" /><g
         id="g339"
         transform="translate(-7.807091,-9.3685078)"><path
           style="fill:#f42537;fill-opacity:1"
           d="m 424.41983,135.32072 4.85813,-4.84743 3.54181,3.67637 -4.43307,5.06995 z"
           id="path1-7" /><path
           style="fill:#a81822"
           d="m 427.6689,138.56663 4.83999,-4.75082 3.49163,3.52413 -4.86317,4.79833 z"
           id="path339" /></g><use
         x="0"
         y="0"
         xlink:href="#g339"
         id="use339"
         transform="rotate(90,398.59147,135.26483)" /><use
         x="0"
         y="0"
         xlink:href="#g339"
         id="use340"
         transform="rotate(90,430.53942,151.30026)" /></g></g></svg>
