<?xml version="1.0" encoding="UTF-8" standalone="no"?>
<!-- Created with Inkscape (http://www.inkscape.org/) -->

<svg
   width="107.77249mm"
   height="116.36484mm"
   viewBox="0 0 107.77249 116.36484"
   version="1.1"
   id="svg1"
   xml:space="preserve"
   xmlns="http://www.w3.org/2000/svg"
   xmlns:svg="http://www.w3.org/2000/svg"><defs
     id="defs1" /><g
     id="layer1"
     transform="translate(-494.60749,-94.307314)"><g
       id="g326"
       transform="translate(-151.06181)"><path
         style="fill:#428ba5"
         d="m 686.6627,187.72644 19.27857,-26.35285 -46.92341,-0.21801 c 0,0 18.17998,-30.29503 29.80811,-50.57566 6.69329,-5.4358 0.30927,-15.772725 8.51611,-15.810589 4.58958,-1.109162 11.6152,-0.559633 6.73033,5.447639 -5.96034,20.46777 -19.18537,36.23366 -31.07249,53.60339 l 45.81275,0.23535 c 0,0 -26.7766,39.25329 -38.00073,54.60295 z"
         id="path329" /><path
         style="fill:#f13d40"
         d="m 686.39945,210.64165 c 6.67253,-3.43305 11.93491,-12.02403 16.38811,-17.64144 11.61723,-16.75326 34.54331,-48.4702 34.54331,-48.4702 l -45.47077,-0.0325 17.24497,-25.96239 6.42691,-20.104689 c 1.96697,-2.455063 10.13297,-6.750205 7.61677,-0.144171 -2.44064,5.46338 -3.55425,11.39351 -5.46203,17.07705 -2.63585,6.98611 -4.58605,12.75934 -10.10545,20.75816 l 45.8605,0.10757 -52.0282,74.39067 z"
         id="path328" /><path
         style="fill:#d6212c"
         d="m 683.45714,210.67214 41.90399,-60.11038 -45.948,-0.163 21.96596,-32.82293 c 0,0 5.47856,-15.19682 8.48121,-22.695787 6.82412,1.284571 6.67751,3.012201 3.62832,12.987007 -3.11813,10.20033 -5.32004,12.7494 -9.166,18.47093 l -11.68181,17.37873 45.88616,0.35319 -44.17381,63.8415 c -3.20057,2.95929 -5.80129,2.73189 -10.89602,2.76074 z"
         id="path327" /><path
         style="fill:#225567"
         d="m 676.01774,210.23432 c 1.80274,-8.56747 5.17818,-25.78025 5.17818,-25.78025 l 10.89643,-16.2114 -46.33098,-0.19696 c 0,0 -4.42221,8.82382 48.02515,-72.219569 6.45989,-0.444304 5.64848,9.772149 2.0154,13.172499 l -36.78409,52.15651 46.92341,0.21801 c 0,0 -12.10922,17.66889 -17.96666,26.63591 -0.66248,4.22943 -3.33077,24.37026 -11.95684,22.22525 z"
         id="path326" /></g></g></svg>
