<?xml version="1.0" encoding="UTF-8" standalone="no"?>
<!-- Created with Inkscape (http://www.inkscape.org/) -->

<svg
   width="97.440048mm"
   height="100mm"
   viewBox="0 0 97.440048 100"
   version="1.1"
   id="svg1"
   xml:space="preserve"
   xmlns="http://www.w3.org/2000/svg"
   xmlns:svg="http://www.w3.org/2000/svg"><defs
     id="defs1" /><g
     id="layer1"
     transform="translate(-470.29965,-104.92937)"><g
       id="g13"
       transform="matrix(0.42738649,0,0,0.42738649,248.3903,92.115755)"><path
         style="fill:#aca9b3"
         d="m 634.13741,245.61032 c -2.35954,-39.80637 -0.30556,-79.7012 -1.05809,-119.54502 1.0975,-9.1456 -4.77013,-24.03758 9.5644,-20.69509 10.10983,-2.7016 36.22992,-6.358277 32.22971,10.48796 -9.20923,1.22527 -19.75323,6.64302 -18.73236,18.39245 -0.7816,11.81655 9.98657,23.12484 21.97429,21.05476 6.13838,-2.74588 15.89818,-5.14848 13.66518,5.26006 4.64279,12.47724 -7.62941,18.25064 -16.97542,20.16731 -12.71509,10.56184 -2.14078,25.54512 4.0885,34.68014 -6.61501,3.31991 -18.36629,-3.23887 -19.0156,9.22558 3.26783,12.71662 -7.68467,18.64117 -18.79163,21.26104 -2.30242,0.38393 -4.68974,0.3182 -6.94898,-0.28919 z m 15.96831,-20.71937 c 11.53008,-7.02782 0.61936,-31.74649 -11.79667,-23.64274 -8.86829,7.8335 -1.20127,28.58432 11.79667,23.64274 z m 5.80182,-32.80478 c 10.97092,-8.13248 -13.74838,-13.2471 -5.82544,-0.67386 1.30857,1.70468 4.2775,2.44536 5.82544,0.67386 z m -15.42979,-9.38501 c 4.40894,-3.69667 19.78501,1.65519 14.30703,-11.89164 -8.79772,-14.6295 -25.99819,0.72861 -16.7404,12.602 0.80217,0.64678 1.8387,-0.312 2.43337,-0.71036 z m 24.37748,-16.95453 c 10.24306,-13.3078 -18.22601,-3.19318 -0.65374,0.24789 l 0.61161,-0.23191 z m -17.36522,-12.65749 c 5.63652,-15.65607 -18.27496,2.03886 -0.47177,0.25252 z m -0.52102,-27.76647 c 15.78786,-9.3581 -17.51322,-19.5386 -10.33652,-3.61859 1.53092,3.81909 6.75071,5.39764 10.33652,3.61859 z m -33.64641,98.57362 c -16.77229,-7.18204 14.01536,-21.80176 9.75978,-4.90816 -0.64192,4.43541 -5.90612,6.47324 -9.75978,4.90816 z m -69.63455,-9.32227 c -11.31738,-0.40922 -3.50498,-20.36938 5.0866,-15.51842 -13.91639,2.93042 12.29602,16.68807 -3.26224,15.60729 z m 176.02661,-6.0487 c -14.41166,-11.83098 18.41682,-10.5436 3.31502,0.859 l -1.73985,-0.2049 z m -15.62887,-63.38031 c -6.3555,-8.11352 -10.62884,-25.86026 -13.35322,-30.47583 7.96166,6.69186 13.20208,24.31571 13.35322,30.47583 z m 0.82697,-13.87906 c -11.37227,-8.94007 16.2881,-8.82675 4.11737,-0.0656 -1.37346,0.71153 -2.68679,0.38714 -4.11737,0.0656 z M 552.09076,115.10471 c -14.75424,-5.20159 13.02105,-17.602524 6.07316,-2.44342 -1.43355,1.76936 -3.79797,2.78476 -6.07316,2.44342 z m 37.873,-26.001345 c -13.28687,-7.864207 10.97932,-15.421616 8.71702,-4.155357 -1.97171,2.717346 -5.02267,5.681635 -8.71702,4.155357 z m 5.01461,-1.531273 c 11.42632,-10.28937 -16.82149,-8.458693 -4.48967,-0.155778 1.20328,1.372805 3.10183,0.698518 4.48967,0.155778 z m 75.80312,-0.09173 c -8.80569,-10.748053 15.84141,-6.649266 4.28196,-0.612924 -1.41973,0.500152 -2.80369,1.487808 -4.28196,0.612924 z M 601.1554,82.274634 c -8.68302,-11.27183 16.00323,-5.13288 4.22168,-0.19367 -1.42131,0.318888 -2.87387,1.177269 -4.22168,0.19367 z m 58.95566,-5.673974 c -13.85913,-13.401922 20.16099,-6.021224 1.95522,0.741807 z m 34.73724,-8.847178 c -4.3019,-9.205285 23.04048,-16.220305 10.0925,-5.962158 -3.36362,1.977601 -7.3704,3.012376 -10.0925,5.962158 z m -151.02789,-9.42078 c -8.8097,-10.015614 16.61637,-5.35184 4.06708,0.761592 -1.49709,0.433727 -2.72294,-0.151207 -4.06708,-0.761592 z"
         id="path16" /><path
         style="fill:#c13926"
         d="m 655.43565,263.3542 c -13.59954,-7.54153 14.85249,-17.74908 8.84474,-3.29723 -1.62154,2.98214 -5.60955,4.96398 -8.84474,3.29723 z m 49.59676,-7.71563 c -4.93029,-4.12971 -16.17349,-17.42817 -11.74099,-19.73416 2.70884,6.02057 15.99226,14.03699 11.74099,19.73416 z M 557.51284,255.3191 c -6.08547,-8.21497 -3.21744,-16.23888 7.8078,-14.06932 4.18047,-1.13755 8.82562,-11.58193 5.76051,-1.49737 -3.06518,6.17598 -7.52051,12.0985 -13.56831,15.56669 z m 118.16344,-4.79885 c -12.65521,-5.74849 12.60281,-13.33217 4.60847,-1.3078 -1.1483,1.22647 -2.99873,1.8604 -4.60847,1.3078 z m -144.57949,-4.03948 c -12.52102,-13.6276 21.16291,-6.1051 1.62106,0.28726 z m 54.62116,-7.22024 c -10.49301,-9.33583 13.40186,-7.3957 3.67428,-0.84838 -1.19546,0.45393 -2.34628,1.37399 -3.67428,0.84838 z m 78.97812,-5.09346 c -18.33883,-6.41619 10.69995,-30.04974 12.94824,-10.82945 0.77573,6.60484 -6.33685,13.5772 -12.94824,10.82945 z m -108.87604,-5.24378 c -9.97575,-10.0432 14.72987,-6.60429 4.06971,-0.55534 -1.3476,0.46675 -2.67209,1.39095 -4.06971,0.55534 z m 153.9875,-0.92191 c -15.95613,-1.33398 -7.52563,-31.81204 6.68373,-23.07803 16.32363,1.28355 9.07537,28.65217 -5.692,23.33679 l -0.63292,-0.16515 -0.35876,-0.0936 z M 584.04882,213.34912 c -5.84255,-8.31249 -13.27452,-20.19856 -6.93229,-30.08651 11.01935,-11.16009 30.26592,2.67249 26.99275,16.90552 -1.58461,8.80918 -11.23437,15.59054 -20.06046,13.18099 z m 93.07339,-1.9542 c -12.70805,-7.94837 -10.02314,-31.23733 5.18382,-34.50122 15.94966,1.31957 1.2673,21.8339 0.2382,31.2175 -0.46997,2.3167 -2.85939,6.94577 -5.42202,3.28372 z m -59.91885,-11.29423 c -13.24708,-5.8577 11.62931,-12.63591 4.59305,-1.87334 -1.14309,1.15738 -2.76828,2.70652 -4.59305,1.87334 z m 122.36979,-6.33264 c -11.72423,-11.73027 19.39237,-6.84383 2.4899,0.41608 z M 617.4439,183.74249 c -13.85661,-7.20674 9.95563,-15.28553 8.3022,-4.02558 -1.77909,2.84683 -4.63433,5.73455 -8.3022,4.02558 z m 26.48238,-2.36108 c -18.13264,-2.77022 1.86239,-29.07417 10.25148,-12.66498 5.00832,6.19189 -3.06494,16.48947 -10.25148,12.66498 z m 6.14014,-3.0922 c 12.51864,-10.9968 -20.56742,-13.91927 -8.68853,-1.36263 2.31471,1.99378 5.88583,2.95846 8.68853,1.36263 z m -121.4327,-0.10559 c -14.7446,-10.14134 18.73182,-17.69834 9.08707,-2.14291 -2.09876,2.58574 -6.04798,3.79339 -9.08707,2.14291 z m 56.15819,-5.95043 c -13.50882,6.5317 -16.97365,-23.1396 -1.90149,-12.03961 16.42181,2.821 34.11392,-10.92017 34.03284,-27.89083 -6.67445,-7.11294 1.3513,-28.96874 7.90099,-12.84096 10.57077,22.70803 -7.42625,53.45661 -33.16148,52.89941 -2.2889,0.13575 -4.58886,0.0988 -6.87086,-0.12801 z m 132.3164,-9.88429 c -11.88751,-8.0256 -21.75718,-19.50598 -23.58885,-34.08604 -0.55333,-7.0463 -14.69886,-14.45986 -9.65031,-2.57483 5.98183,8.95954 11.71179,28.59538 -4.52135,29.68464 -12.70419,1.4738 -26.28988,-10.56156 -23.20962,-23.74986 0.80951,-12.65261 17.5749,-15.30236 25.0399,-20.98084 15.53558,3.08796 14.53324,22.14396 21.28187,33.02305 3.97412,8.89504 18.71514,11.70569 21.08265,18.73769 -1.74254,1.27893 -4.91042,1.83999 -6.43429,-0.0538 z M 582.59503,151.20562 c -16.32402,-5.33751 -1.61316,-23.01451 0.9861,-33.19643 8.61993,-13.14186 27.12357,-0.0749 24.29049,13.18327 -0.4141,12.23284 -12.68485,24.20885 -25.27659,20.01316 z m -37.51561,-7.63601 c -8.60622,-5.04649 -16.21161,-22.16312 -10.07285,-29.28648 10.62951,-0.82855 27.59696,9.14801 25.22374,21.25771 -1.65523,6.3248 -8.84506,10.98422 -15.15089,8.02877 z m -5.65396,-19.82911 c 14.84743,-7.41906 -17.14865,-12.31631 -5.19908,0.98912 1.5695,1.24047 4.33883,0.92375 5.19908,-0.98912 z m 176.07061,6.61306 c -11.14566,-7.66896 13.84338,-16.49542 7.61248,-2.72656 -1.09524,2.94964 -4.92339,3.97088 -7.61248,2.72656 z m -74.6125,-4.75984 c -17.35433,-8.85957 17.37969,-21.98587 9.36075,-3.19665 -1.89099,3.03225 -6.01138,4.42689 -9.36075,3.19665 z m 4.71721,-2.91984 c 10.06023,-9.54912 -14.59909,-7.21152 -4.02366,-0.75172 1.32369,0.50996 2.59721,1.57689 4.02366,0.75172 z m 24.67315,-17.36618 c -6.72881,1.8971 -9.31695,-6.799719 -1.39335,-3.03842 14.04112,-0.33108 14.76335,-17.173158 14.94146,-27.767896 0.89932,-18.707077 27.9617,2.28631 10.7989,9.514758 -12.88271,1.787337 -5.73095,23.176928 -20.70659,22.209128 l -1.87508,-0.20151 z m -46.05911,-1.32721 c -9.50714,0.0609 -6.57386,-3.41449 0.73215,-2.52761 14.38178,-3.195929 -5.62738,-25.978328 9.15897,-25.517223 12.21002,-0.434084 24.89447,6.388156 29.82996,17.824748 -4.40081,12.717235 -21.18582,8.022395 -31.56687,10.421315 -2.71922,0.0469 -5.44143,-0.0212 -8.15421,-0.20123 z m 23.54792,-27.707722 c -6.17808,-3.46498 -29.67342,2.335407 -18.79671,-10.378611 7.43325,-3.041486 16.45539,3.35358 18.79671,10.378611 z M 620.24607,62.931851 c -7.33885,-10.602037 -16.37324,-19.977615 -25.83562,-28.690836 10.04019,7.714143 22.95919,15.382766 25.83562,28.690836 z m 21.22636,-0.194888 c 7.3146,-13.765779 18.11685,-27.277628 33.11877,-32.755669 3.50719,0.483774 -11.79534,4.955638 -13.22742,9.731336 -7.33434,7.060105 -11.57166,16.933434 -19.89135,23.024333 z"
         id="path15" /><path
         style="fill:#562c5d"
         d="m 687.6156,254.36244 c -13.54259,-7.83561 15.24533,-15.50945 7.54711,-1.93367 -1.61402,2.45599 -4.98417,2.72763 -7.54711,1.93367 z m 5.50164,-1.6665 c 8.13864,-11.68149 -16.23107,-4.75525 -4.38065,-0.0441 1.49643,0.37193 2.98475,1.03055 4.38065,0.0441 z m -30.80734,-5.41113 c -11.03882,-8.66577 15.7273,-9.14583 4.09515,-0.14521 -1.35225,0.75837 -2.66189,0.44668 -4.09515,0.14521 z m -37.6982,-1.20082 c -21.34066,-6.86139 -40.29086,-23.15598 -47.54315,-44.71216 0.46309,16.06438 26.91003,14.37686 27.00424,-1.06749 3.33714,-13.97849 -15.30402,-27.61403 -26.76205,-17.59668 -4.92483,1.30639 -7.30157,-9.12004 -9.11362,1.52766 -1.98336,14.86707 12.77265,26.85292 9.74533,41.81596 -3.86022,10.60123 -11.47576,2.73651 -9.35357,-5.26863 -1.37733,-14.19194 -8.19611,-27.68534 -7.3831,-42.04548 4.23989,-16.68076 21.02757,-5.53191 31.73957,-6.14412 19.55087,-1.4842 36.26453,-19.53098 34.70908,-39.39663 0.0969,-6.96492 -4.06939,-23.21646 -10.85453,-20.87399 -4.47933,11.66038 4.85337,25.80826 -5.4364,36.09786 -8.13131,11.17363 -25.24179,15.97738 -37.15782,8.02503 -6.8943,-12.14425 9.35016,-29.48593 4.79764,-37.18541 -11.58494,5.51322 -5.36538,23.31005 -16.11938,29.62119 -11.99261,2.01683 3.29949,-11.94973 2.18261,-17.5511 1.12597,-14.4815 13.79022,-18.3476 24.59521,-23.09131 -7.18867,-6.7429 -17.82577,-16.874293 -19.43405,-29.318191 -3.39038,-14.02711 12.18727,0.731483 11.14248,8.058488 2.58962,18.954853 23.79702,14.508573 37.42082,17.498093 9.1035,0.13481 15.26036,3.75969 12.44313,13.4696 -0.30241,41.01502 0.38801,82.03709 -0.54784,123.04688 -0.13321,2.84265 -2.60951,8.13926 -6.0746,5.09043 z m -4.89479,-22.43949 c 15.08865,-10.78456 -19.02367,-20.59489 -10.5682,-3.1017 2.06637,3.46552 6.95856,4.83536 10.5682,3.1017 z m 1.1575,-23.73114 c 8.83201,-14.46016 -18.76523,-1.51654 -0.28053,0.0784 z m 1.12891,-16.0669 c 14.48022,-7.11329 -14.36348,-19.00452 -8.64647,-3.64582 1.51243,3.08226 5.38965,4.68287 8.64647,3.64582 z m -30.60657,-32.63995 c 17.30783,-1.981 22.64048,-28.74719 7.49329,-37.3552 -11.87441,-5.76519 -18.51817,9.90117 -22.06979,18.68977 -6.36993,9.99951 2.67285,24.34962 14.5765,18.66543 z m 99.22849,81.4504 c -11.01176,-11.99148 1.37145,-27.96205 5.4941,-40.23446 2.11363,-6.94471 -10.1086,-21.96525 -0.76641,-23.11002 10.58238,6.13206 6.35533,20.31844 3.92302,29.90902 -7.21576,10.17181 1.71036,25.91655 -8.65071,33.43546 z m -46.88893,-7.63509 c -15.31079,-1.49761 -10.15916,-32.75386 4.78982,-23.79185 8.92834,5.5073 9.24294,26.40573 -4.78982,23.79185 z M 538.35582,190.78548 c -14.13145,-3.54428 9.1852,-18.29979 7.13055,-4.26424 -0.59432,3.07442 -4.09184,5.3718 -7.13055,4.26424 z m 12.73433,-9.00804 c -14.53191,-4.40831 10.88885,-18.35901 6.69712,-3.88203 -0.51814,2.9746 -3.95166,4.57546 -6.69712,3.88203 z m 110.6955,-15.59413 c -11.1944,-11.56314 16.888,-6.13118 0.46037,0.007 z m -119.68857,-4.3924 c -2.48337,-8.75714 26.0056,-12.16719 10.53334,-3.62789 -3.02519,2.22107 -6.68953,3.92775 -10.53334,3.62789 z m 99.69385,-8.53868 c -11.84688,-8.58929 14.3331,-9.3995 4.96178,-0.73876 -1.41664,0.82928 -3.36057,1.96486 -4.96178,0.73876 z M 524.5992,144.48319 c -18.22162,-8.12606 16.31166,-23.84618 9.24769,-4.08398 -1.69864,3.20192 -5.70531,5.16866 -9.24769,4.08398 z m 38.76146,-39.32699 c -10.3098,-12.700206 19.4851,-5.8949 1.31422,0.38462 z m 45.77291,-3.91787 c -14.11853,-4.652123 0.56392,-21.342499 9.53952,-23.420782 16.62037,-2.872109 15.55391,27.508722 -0.9883,24.956652 -2.84167,-0.56793 -5.73848,-0.80068 -8.55122,-1.53587 z M 590.93908,88.092126 c -11.30784,-12.481949 18.71876,-6.271894 1.33585,0.08906 z m -39.22501,-5.378144 c -10.11234,-13.869244 19.75448,-3.359713 0.79089,0.218065 l -0.63058,-0.173864 z m 64.03409,-5.981284 c 4.48131,-8.455953 13.87454,-26.703027 24.45449,-14.291834 -5.61403,5.633312 -18.30088,3.802861 -19.09965,13.330509 -1.77515,0.395311 -3.65138,0.226418 -5.35484,0.961325 z m -48.59341,-5.909505 c -3.58203,-3.59916 -18.3313,-15.108149 -5.15953,-9.175638 2.81527,1.409001 14.61411,8.086381 5.15953,9.175638 z m 54.94341,-18.036014 c -12.95416,-7.419918 14.73215,-16.09403 8.11386,-2.507368 -1.65166,2.65679 -5.27111,3.558622 -8.11386,2.507368 z"
         id="path14" /></g></g></svg>
