<?xml version="1.0" encoding="UTF-8" standalone="no"?>
<!-- Created with Inkscape (http://www.inkscape.org/) -->

<svg
   width="100.69973mm"
   height="100.00001mm"
   viewBox="0 0 100.69973 100.00001"
   version="1.1"
   id="svg1"
   xml:space="preserve"
   xmlns="http://www.w3.org/2000/svg"
   xmlns:svg="http://www.w3.org/2000/svg"><defs
     id="defs1" /><g
     id="layer1"
     transform="translate(-48.319115,-101.34109)"><g
       id="g3722"
       transform="matrix(0.41330247,0,0,0.41330247,-30.669041,90.48651)"><path
         style="fill:#bbb8c4"
         d="m 274.95671,253.94819 c -10.54871,-2.54635 -22.53682,-7.08749 -21.99368,-19.99486 -0.92627,-8.17478 -7.19015,-5.92785 -5.59845,0.93396 0.21642,-4.01831 -1.70028,-14.63251 4.46213,-8.64973 5.41085,-0.30648 11.64826,-0.86825 16.46936,-1.44648 -5.08249,0.25994 -12.69859,5.79059 -2.88165,9.3108 7.01811,11.73412 22.79465,11.25812 32.8705,3.80208 9.90815,-7.39289 20.20374,-15.07082 25.90003,-26.41801 4.07282,-3.07144 12.72778,-22.18934 9.9015,-7.63014 -1.5375,12.38034 -12.52591,17.23611 -18.39408,27.56458 -6.92443,6.33085 -14.03383,12.76591 -21.8179,17.83119 -5.56392,3.08402 -12.4744,5.6103 -18.91776,4.69661 z m -15.88216,-35.34436 c 1.32294,-3.44421 -10.83737,-0.22344 -14.67426,-0.3479 -8.23614,0.19378 -15.29388,-4.57234 -21.83108,-9.00488 6.51432,-6.31685 14.93522,3.22304 23.82958,1.65127 17.59802,0.33137 35.36512,-1.48564 52.216,-6.96532 4.51181,-3.1369 12.72671,-2.11837 4.90778,0.57175 -13.26723,2.2592 -25.65102,8.08205 -38.43049,12.16752 -1.69907,1.07182 -4.00807,2.46784 -6.01753,1.92756 z m 110.20611,-10.75441 c -17.19694,-2.10762 -13.74886,-27.40813 1.95349,-29.25132 13.65374,-4.74825 21.5723,14.94458 13.38793,24.23402 -3.64735,4.42834 -9.83648,6.00695 -15.34142,5.0173 z m -153.75889,-4.81977 c -14.62576,-7.10358 -17.75251,-27.63135 -9.63154,-40.82393 5.66434,-13.247 18.84773,-20.14327 30.15299,-27.73766 7.42983,-7.61629 17.80233,-11.45792 27.05985,-16.34292 5.75432,-6.88518 13.15264,3.15617 4.3475,3.50471 -12.31545,5.70569 -24.59005,13.17615 -33.87823,23.27514 -12.34006,15.88251 -22.86678,38.26398 -13.0686,57.89628 -1.53242,0.74469 -3.38155,1.00799 -4.98197,0.22838 z m 48.35866,-20.93042 c -3.71835,-10.40473 2.13541,-21.91919 4.18631,-32.48162 9.4706,-31.75991 21.35138,-63.312166 39.49895,-91.205944 10.42553,-11.395702 22.97662,-20.91092 35.73595,-29.587008 8.4911,-5.983226 20.00146,-0.67689 24.83679,7.593836 12.51858,19.39839 9.17656,43.916168 5.02121,65.280536 -5.09452,22.3129 -11.57003,45.3274 -25.96616,63.55827 -0.43887,-8.87538 3.80136,-19.00685 4.12129,-28.51968 1.44374,-4.15644 -0.96704,-26.2862 4.75745,-14.53897 1.23693,8.05682 -2.2565,15.78612 -2.50016,23.69274 9.23423,-6.48748 9.81503,-20.16644 12.47441,-30.60497 1.99236,-7.54879 5.91754,-29.438223 -7.71408,-19.16745 -3.92781,4.92313 -6.81235,10.59491 -6.93367,0.462455 2.07693,-15.275945 -15.29001,-22.052569 -25.51316,-11.408461 -8.30317,4.360223 -14.38426,16.117396 -22.049,18.276546 0.16886,-11.295078 11.51226,-20.27136 17.6536,-29.542443 9.24231,-8.992468 23.72502,-15.039933 36.20833,-9.201937 -1.15811,-13.121184 -17.53384,-11.173584 -26.27299,-6.958113 -14.12596,6.622571 -22.28756,20.827256 -33.78749,30.850008 -8.60774,11.061175 -14.74603,24.262545 -16.43521,38.275335 -5.74785,16.18552 -10.06769,33.37843 -12.8361,50.0439 -7.52661,-1.46699 1.58968,9.12584 -4.48627,5.18297 z m 115.92985,-11.2888 c -1.94727,-6.0512 14.52408,-7.59236 17.61897,-14.67922 7.51956,-6.76692 13.6893,-16.20459 12.1772,-26.67377 -2.3081,-9.31653 -9.54845,-17.87447 -17.66638,-22.73552 -6.84789,-2.06864 -15.64033,-0.9112 -11.51729,-11.141358 -0.99287,-8.192733 4.48773,-6.570049 7.03825,-1.534444 13.45021,-1.801396 29.60495,4.252167 32.88306,18.734352 5.35816,12.61326 -5.80572,25.26865 -3.05149,36.94268 -10.66922,8.23154 -21.98194,16.9026 -34.81154,21.21542 l -2.67063,-0.12814 z m -51.4913,-6.93771 c -5.96409,-5.43864 6.89091,-14.59761 -0.57624,-22.44376 8.17526,4.60151 7.88944,17.58265 1.123,23.07397 l -0.54675,-0.63021 z m -33.97822,-47.53606 c -1.57961,-9.0228 16.88036,-9.57858 23.96383,-13.93643 9.39346,0.0809 26.58658,-16.655303 29.70533,-0.87021 -9.49288,-4.356268 -24.1152,2.34085 -34.68914,6.10996 -7.85281,-1.98779 -10.18006,4.27936 -5.21789,5.66094 -4.0308,2.28612 -9.12517,3.67901 -13.76213,3.03574 z m -47.42988,-7.62924 c -14.87513,-1.42157 -21.35079,-22.386349 -9.17844,-31.431429 14.68612,-11.144938 37.20198,10.46683 25.91546,25.427979 -3.39604,5.13292 -10.93363,6.85925 -16.73702,6.00345 z"
         id="path3725" /><path
         style="fill:#e85214"
         d="m 362.42139,256.44409 c -17.86513,-3.15429 -23.40909,-30.57415 -7.34539,-39.73231 10.88053,-6.33665 27.54885,-2.64501 33.95566,8.3432 6.78275,15.77388 -9.87671,35.45369 -26.61027,31.38911 z m 44.11772,-39.03445 c -12.22538,-6.29738 9.28284,-18.81453 7.41871,-3.80074 -0.91122,2.99985 -4.46966,4.72895 -7.41871,3.80074 z m -99.30324,-36.2792 c 2.24248,-8.22136 17.94591,-6.08956 21.36432,-16.04919 5.53084,-6.3319 4.74107,-12.76561 8.8391,-16.87475 2.64359,-12.34194 -11.64042,-21.57995 -22.67668,-21.14071 -10.40831,1.24968 -25.82768,1.84459 -30.01776,13.24055 0.37047,7.3113 10.37785,-4.2109 15.17456,-3.03102 7.55176,-6.29271 3.60858,5.82025 1.1905,8.29772 -8.60994,1.26614 -17.70161,10.26532 -13.72425,18.72941 -11.60515,-8.96541 -7.25576,-26.29542 -0.49695,-36.93914 10.43422,-16.49596 36.39604,-14.12354 47.36074,0.66287 12.62172,13.3093 10.93647,37.82656 -5.59799,47.14758 -6.30511,3.73607 -13.90555,7.2989 -21.41559,5.95668 z m -92.78852,-49.38699 c -9.59457,-2.44675 -3.54603,-16.63417 4.86748,-14.59486 12.63746,2.59292 6.11547,18.12971 -4.86748,14.59486 z M 403.73739,75.065633 c -13.08589,-3.064226 -10.75282,-25.558763 2.38464,-25.915832 11.67925,-1.517782 17.82576,15.957873 8.87924,23.269063 -2.90884,2.888308 -7.37661,3.799721 -11.26388,2.646769 z"
         id="path3724" /><path
         style="fill:#b61536"
         d="m 281.04213,243.29221 c -8.85831,-0.07 -17.45381,-9.17169 -20.11024,-15.53126 9.42277,-6.41958 16.03176,8.56297 26.32241,4.80673 10.35165,-4.97893 20.06692,-12.32583 28.24562,-20.38622 2.20754,-3.92197 15.542,-19.14587 14.30625,-7.64413 -7.61692,9.16368 -13.05955,20.6519 -23.68674,27.04244 -6.79916,6.33605 -15.35506,12.20419 -25.0773,11.71244 z M 220.32025,208.6965 c -14.52173,-1.69943 -30.34584,-12.41653 -29.14081,-28.62455 2.12637,-22.65178 22.94478,-36.94054 41.26708,-46.85395 5.99089,-4.06462 9.57229,-2.73091 2.52927,2.03442 -12.23535,7.33263 -25.15901,15.74745 -30.33326,29.8006 -6.96055,12.75277 -2.62352,31.47784 10.82419,37.9655 6.0214,-2.37876 18.46423,7.18037 4.85353,5.67798 z m 64.55833,-21.07633 c -6.09082,-1.25774 -23.99918,-2.21194 -17.5675,-10.55334 5.74466,2.6324 13.01132,3.8127 19.55188,1.09054 5.03802,-0.29859 12.41967,-0.65388 9.5471,7.24081 -2.42024,3.66361 -7.90894,2.20047 -11.53148,2.22199 z m 10.29981,-17.58265 c -8.02264,-1.93163 -11.17804,-12.5522 -5.60158,-18.424 6.61613,-4.86419 16.86171,-6.57494 14.74865,-15.81268 1.24597,-2.97924 -0.738,6.10114 2.07526,4.82177 5.73966,-5.11042 16.46515,-4.53728 21.29568,1.35716 4.28373,6.54655 2.22199,19.89988 -7.29336,19.7246 -8.35287,2.39187 -18.03074,-4.6723 -25.32036,1.70118 -2.93897,1.43631 2.57826,8.33165 0.0957,6.63197 z m 106.75173,-23.25901 c -3.02376,-4.98087 1.70535,-10.87078 0.2898,-16.5111 -5.02024,-6.196 2.15241,-17.81666 5.71503,-6.10905 2.59776,6.17559 3.54642,24.14436 -6.00542,22.62015 z M 270.64554,84.588984 c -11.78317,-2.042832 -15.22595,-25.317467 0.14981,-23.615502 9.25732,-1.374653 17.94528,8.874583 12.78789,17.545068 -2.11855,4.897246 -7.7927,7.682961 -12.9377,6.070434 z M 231.10557,63.843659 c -15.4754,-2.204963 -17.07896,-26.607374 -2.43867,-31.361649 11.17245,-2.586121 27.0267,7.270868 22.52232,20.004376 -3.00593,7.746001 -11.87477,12.854085 -20.08365,11.357273 z m 44.57595,-23.730116 c -10.68271,-7.533059 9.8254,-15.289399 6.17385,-2.484835 -0.92147,2.347258 -3.8555,3.770948 -6.17385,2.484835 z"
         id="path3723" /><path
         style="fill:#63316a"
         d="m 270.42917,268.0913 c -16.80763,-1.75539 -23.63856,-20.30144 -22.68708,-35.07308 -0.45896,-11.79387 7.95925,3.11396 6.90894,8.30744 3.82268,9.75826 18.33619,13.64567 28.26724,12.20536 11.00464,-1.57545 18.19695,-10.13101 26.54077,-16.37071 7.86656,-3.97387 13.69968,-19.96972 19.5209,-19.78837 -4.05717,14.44221 -15.14468,25.84033 -25.60508,36.11383 -9.14829,7.74706 -20.36654,15.57417 -32.94569,14.60553 z m 142.0999,-0.35215 c -16.73759,-2.38562 -1.76727,-24.45732 8.35405,-13.68773 6.84173,6.13469 0.15683,16.51296 -8.35405,13.68773 z M 221.24215,253.27518 c -11.58519,-6.95028 9.12272,-16.93018 7.28999,-3.86551 -1.02874,2.81548 -4.36808,4.6524 -7.28999,3.86551 z m 181.8127,-5.03181 c -11.59824,-1.24331 -9.46047,-19.57565 1.68965,-18.59514 13.22455,0.0338 12.20301,21.60446 -1.68965,18.59514 z M 249.10524,211.0643 c -11.01828,-1.17541 -28.56295,-2.03938 -31.31075,-15.20276 -4.71096,-20.56335 6.66725,-41.19884 20.29856,-55.79469 10.12569,-6.51098 20.42325,-17.52613 32.42588,-18.28154 -0.89327,13.16901 -18.52978,14.11841 -22.47763,26.15042 -6.92513,9.87829 -8.81407,25.66708 2.87935,32.94923 11.76073,8.85848 26.58944,12.72137 41.22058,10.88842 13.95233,-1.18084 27.76866,-4.17545 40.85238,-9.14129 13.05815,-2.45697 24.67686,-10.67089 33.75958,-20.09806 7.32472,-7.99673 13.08395,-19.78576 6.57063,-30.0517 0.87161,-8.63961 4.78661,-20.96853 7.82446,-28.06228 9.19906,-0.51409 20.51052,6.88721 22.26476,14.27525 -7.26189,3.61089 0.87792,11.03162 -1.19697,17.06487 -0.55635,4.12231 -4.25156,12.03411 2.92522,11.72841 -7.56537,10.43567 -18.68574,18.40088 -30.83773,22.5313 -11.17621,10.96299 -24.48909,19.84939 -39.86246,23.62026 -11.32891,2.74341 -22.76773,5.09471 -33.46542,9.88911 -16.8247,5.09336 -34.37195,7.27488 -51.87044,7.53505 z m 53.63272,-34.22305 c -8.86055,-0.28221 -14.54284,-11.83136 -7.24685,-7.56719 -4.65357,-8.12843 7.30304,-9.924 12.89171,-7.94838 5.17998,2.88034 23.52561,-4.36512 18.51434,5.59574 -3.73652,7.3788 -12.31141,7.26937 -18.87058,10.41312 -1.77229,0.003 -3.56344,-0.0327 -5.28862,-0.49329 z m 32.84406,-24.24166 c -3.56126,-9.00159 -11.72962,-17.1079 -22.45886,-15.24719 -4.12262,0.44236 -9.85299,7.39922 -8.12598,-0.37754 -1.15596,-3.65206 -15.38218,5.1088 -20.18833,5.90358 0.46511,-12.9673 17.1767,-13.61646 26.9369,-15.67231 8.94838,-0.97002 18.43512,2.32516 23.26325,10.23531 3.80344,3.48514 2.96186,13.14394 0.57302,15.15815 z m 81.20978,-3.91878 c -0.44339,-12.55417 9.27954,-26.42756 2.30146,-39.48118 -4.89346,-12.40508 -19.46041,-16.48611 -31.63742,-15.153486 -7.47467,-5.15208 3.13869,-4.793783 6.87872,-3.977883 15.05521,3.44724 33.21456,8.631527 39.44305,24.354069 4.24604,13.87167 -6.00993,27.03033 -16.31031,35.1441 l -0.4164,-0.54592 z m -63.35094,-3.13521 c 0.17492,-8.50928 5.37173,-17.78777 1.41499,-25.97267 -3.55182,-6.12579 -3.46765,-17.37058 2.63191,-22.8589 13.86646,-11.471911 11.35739,11.24002 8.38098,19.27395 -2.67656,9.93047 -3.34935,24.62909 -12.42762,29.55762 z m -6.72508,-29.86991 c -12.40506,-3.09411 -25.94131,-6.61934 -38.55288,-2.90173 -9.91441,-6.38834 9.33622,-4.08301 13.22074,-8.13645 10.84336,-5.056039 32.52476,-9.874634 28.471,9.72023 0.71636,2.98518 -1.54875,1.85078 -3.13886,1.31795 z m -131.78647,-7.51563 c -12.45017,-6.36345 8.0073,-18.154261 6.55592,-3.99669 -0.37039,3.03848 -3.63721,5.24304 -6.55592,3.99669 z"
         id="path3722" /></g></g></svg>
