<?xml version="1.0" encoding="UTF-8" standalone="no"?>
<!-- Created with Inkscape (http://www.inkscape.org/) -->

<svg
   width="102.0417mm"
   height="100mm"
   viewBox="0 0 102.0417 100"
   version="1.1"
   id="svg1"
   xml:space="preserve"
   xmlns="http://www.w3.org/2000/svg"
   xmlns:svg="http://www.w3.org/2000/svg"><defs
     id="defs1" /><g
     id="layer1"
     transform="translate(-187.61227,-102.38541)"><g
       id="g5"
       transform="matrix(0.38868724,0,0,0.38868724,120.31931,94.810416)"><path
         style="fill:#aeabb0"
         d="m 339.32813,248.25014 c -10.73062,-7.24783 -0.19954,-17.97575 7.01455,-7.28253 1.35117,4.1584 -2.73439,8.65279 -7.01455,7.28253 z m 60.78715,-31.1641 c -17.15652,-6.79639 6.34574,-29.12605 11.77767,-10.49774 1.96465,6.87173 -5.29723,12.83625 -11.77767,10.49774 z M 244.85855,209.3549 c -8.87165,-8.38845 -17.50129,-19.23855 -19.02415,-31.66027 -0.22994,-6.82464 -0.063,-13.59871 2.10231,-20.15217 -2.11579,4.52568 -3.69721,17.66085 -3.543,5.17419 0.26723,-7.00277 2.59002,-14.04956 8.37186,-22.21868 -5.80947,4.26376 11.40878,-13.04792 15.85501,-13.77213 5.35471,-3.57227 21.78539,-9.48981 7.49937,-3.08899 -10.96775,4.66237 -22.48241,13.34762 -26.66116,23.93607 8.79178,-12.68556 22.06863,-21.31985 36.93714,-25.21864 1.11421,-1.11747 -15.68762,4.34529 -3.98433,-0.0207 9.89632,-6.02648 17.2061,-2.46776 22.67653,6.82662 0.97093,4.4603 -17.52188,5.79589 -21.94848,11.4265 -11.09491,5.84047 -16.39957,18.30822 -18.40063,30.07213 0.24246,1.87285 -0.0904,19.87846 0.48977,27.67322 -0.97001,1.53718 4.06101,15.75947 -0.37024,11.02285 z m 118.18747,-0.21854 c -15.58477,-6.73651 8.65607,-23.64541 9.73956,-6.56926 -0.46521,4.46839 -5.21256,8.47745 -9.73956,6.56926 z m -42.55523,-39.6261 c -0.95716,-5.24193 -9.86039,-12.63126 0.57682,-9.74032 5.88069,-0.53491 16.9256,-9.33536 5.07589,-3.04565 -5.24828,5.45482 -21.98506,-4.323 -7.75788,-0.51254 12.38096,-0.15908 23.5956,-7.41904 31.26126,-16.79324 -5.37092,4.43823 -17.31174,14.06757 -20.45944,13.10528 6.89834,-3.58303 18.61696,-10.40674 20.43335,-14.98029 -7.85392,8.37394 -11.69967,7.09816 -17.30412,11.73925 -3.58076,2.67812 -17.585,6.48076 -17.99128,3.74468 12.37677,-2.45571 23.18081,-10.24939 32.57946,-18.29603 8.19296,-9.23407 -22.81549,-1.58645 -8.069,-11.29253 6.77306,-5.68482 6.77622,-25.920911 15.40877,-11.45639 6.54303,12.73585 8.65323,-14.718148 6.64892,-20.255342 0.42656,-6.88799 -12.82172,-22.1395 -6.28904,-21.290611 5.44603,2.094958 15.39671,7.232452 4.80382,1.123174 -5.1938,-4.817298 11.29986,4.910902 12.85439,7.57308 4.74846,3.926093 10.31492,12.518155 2.48614,3.173356 3.00373,3.677125 3.28709,19.197753 2.58901,18.336453 -0.15528,-6.241965 -0.52205,-14.633767 -0.76717,-3.502999 0.24741,7.452179 -4.84817,22.246239 -4.73642,24.960019 1.28523,-4.83757 4.0456,-13.44512 1.82624,-3.00916 -1.0769,7.16872 -11.10207,23.32006 -9.76881,22.94354 6.26394,-7.53563 10.71177,-25.65756 12.0576,-29.32885 -5.61318,9.54515 -1.16764,22.02448 -7.00774,29.99756 -11.20292,0.75204 -14.96196,16.90411 -26.47355,19.98384 -6.55123,3.43718 -14.76992,7.0954 -21.97722,6.82372 z M 232.19302,83.2804 c -6.49511,-10.630237 11.56677,-17.091177 18.46958,-22.250822 2.57654,-2.461118 23.76802,-9.299309 12.67822,-6.241432 6.06142,-3.302308 25.10827,-6.000546 23.72448,-5.641887 -9.84996,-0.951514 11.97709,-1.907482 15.3512,-0.803044 6.28603,0.777258 24.37392,3.428391 23.1533,3.645241 -5.41622,0.806355 -12.9505,-2.318594 -4.20853,0.705448 -8.10505,6.874047 -17.07536,3.059983 -26.4157,3.065316 -8.98732,-0.685689 -32.69523,5.590873 -31.5873,6.986921 7.81697,-3.267908 15.34784,-4.695716 24.32416,-5.203291 4.97456,-0.815845 20.20443,0.693736 6.07355,0.512392 -11.63496,-0.04557 -22.89764,3.183538 -33.91594,6.340868 3.75741,1.144545 8.69031,14.462985 -2.4276,13.704525 -7.91264,-0.961103 -7.96124,-12.840175 -0.30214,-14.450223 -8.48309,5.023839 -17.278,16.047809 -24.91724,19.629989 z m 96.02261,-32.619801 c -6.92096,0.790523 -18.85514,-3.598088 -19.45213,-2.287522 -3.9895,-0.767155 2.71816,-0.450118 -5.23194,-1.211279 -4.4357,-1.135579 -20.73466,0.909135 -8.19031,-3.360299 14.47509,-6.795595 30.96758,-5.280179 45.9443,-1.203825 4.95768,8.955987 -5.31778,6.49786 -9.1599,6.932239 4.92276,-0.119189 15.83056,0.765541 4.93469,0.803406 -2.95289,0.0088 -5.89386,0.681612 -8.84471,0.32728 z M 290.97142,34.235916 c -15.74459,-4.729261 4.80196,-24.6413553 8.81637,-8.615942 1.17233,5.17327 -3.74888,9.779751 -8.81637,8.615942 z"
         id="path8" /><path
         style="fill:#e74713"
         d="m 323.05626,276.67577 c -16.36683,-1.40334 -9.9346,-27.41797 5.0076,-21.87362 12.72018,3.95115 7.8578,23.43773 -5.0076,21.87362 z m -92.27248,-34.0441 c -14.7435,-4.20976 -3.2468,-27.63533 9.20872,-18.27941 8.64146,6.63873 1.75605,21.68392 -9.20872,18.27941 z m 40.56413,-1.5133 c -1.41012,-11.0094 -14.26531,-8.81881 -18.83755,-2.72734 -12.39404,0.0323 -4.88281,-19.71976 -19.53412,-17.15502 -8.73367,3.6842 -12.77899,-10.1812 -17.38017,-15.59942 3.82184,-10.37496 -11.46664,-14.41597 -8.43555,-26.27526 -3.18114,-28.20324 5.09508,-59.86979 29.39191,-76.80583 9.69563,-12.104734 31.93826,-7.109307 37.92986,-20.325801 8.88926,-23.164864 42.36972,-29.821104 59.76678,-12.242734 17.31814,15.846342 14.94345,47.203695 -5.34381,59.592285 -19.33573,13.95548 -48.81403,2.34513 -55.5376,-19.9037 0.38899,-8.18977 19.37253,-6.13907 26.22673,-4.37024 4.86428,1.16894 8.63716,11.49096 8.51758,0.52224 -3.52456,-13.585324 -21.91578,-10.852259 -32.35022,-8.098398 -6.02659,0.733164 -20.93767,9.123588 -7.85675,3.034848 11.40356,-4.287052 27.0477,-7.871135 36.74862,1.62516 6.12772,12.44899 -9.94586,-5.804206 -16.30343,-0.46064 -11.83751,-0.37512 -28.30766,8.47575 -33.41381,10.86799 -7.80632,3.61037 13.70901,-10.61402 19.13923,-9.82415 7.54249,-3.751019 24.1156,-1.83911 26.13156,-2.41119 -11.16184,-5.793189 -25.17185,-0.19031 -32.63891,1.00427 -11.30755,4.40592 -20.72568,12.561 -28.84,21.38615 5.99722,-9.81388 20.57263,-18.76277 26.95533,-23.499969 -21.77495,9.115959 -36.39322,30.756139 -42.23641,53.019709 -2.80454,10.85584 -0.62225,20.01456 1.33188,31.82758 5.46088,21.60034 24.63709,37.95915 46.02195,42.79687 -2.78733,2.19231 21.16493,3.11065 22.48958,0.17003 4.3707,0.0159 12.42003,4.53949 13.98225,5.90374 -11.136,5.27435 -23.57643,8.50406 -35.92493,7.94882 z M 176.87397,226.318 c -12.45832,-6.86482 10.4741,-16.86045 6.71777,-2.89293 -1.16083,2.42736 -4.15087,3.72602 -6.71777,2.89293 z m 13.86658,-60.43934 c -16.14632,-7.61771 9.40724,-24.99041 10.23475,-7.2194 -0.17719,5.01135 -5.40633,9.04723 -10.23475,7.2194 z m -7.62119,-25.68824 c -18.26046,-4.35242 -2.2868,-32.06042 11.02858,-19.00579 8.25146,7.82608 -0.0582,22.49888 -11.02858,19.00579 z M 251.08959,56.727973 C 239.41362,54.98714 238.12607,36.607536 249.57275,33.39314 c 11.52721,-4.748172 21.9617,11.759515 12.22455,19.979109 -2.73903,2.76559 -6.87428,4.187515 -10.70771,3.355724 z"
         id="path7" /><path
         style="fill:#712c63"
         d="m 366.84479,256.47866 c -16.57689,-0.65989 -14.36143,-28.0721 2.02754,-25.88541 14.23149,0.38807 16.4803,23.13933 2.21008,25.65539 l -2.05083,0.2787 z m -42.14916,-6.28863 c -16.36801,-10.06943 14.83526,-22.62078 9.5038,-3.81689 -1.59766,3.46921 -5.94955,5.19208 -9.5038,3.81689 z m -5.74042,-16.45095 c -11.64707,-1.72181 -23.07676,-6.31279 -31.84273,-14.31461 -16.36637,1.43143 -33.26199,-8.33304 -38.07613,-24.45069 -7.1412,-19.01471 3.11619,-43.23831 23.38238,-48.62721 21.00155,-7.76387 45.19155,8.4936 47.78711,30.37394 2.08344,11.70464 -2.52588,23.86653 -11.0461,31.95938 -10.71525,-7.49023 -20.50649,-22.04765 -13.84437,-35.18282 -12.29855,5.50386 -9.1804,23.31401 -0.0635,30.16308 4.72203,5.18498 9.69095,7.57899 2.37563,0.64059 -13.76956,-15.24588 17.71086,17.03288 4.6092,3.16267 -4.99255,-3.9391 -11.22099,-16.22268 -10.25904,-18.56787 3.4312,12.76909 13.93823,21.92127 24.35809,29.15558 13.42886,4.77855 25.97882,7.62171 40.27521,2.32038 6.5256,-0.5831 22.24554,-13.09221 8.44793,-5.17537 -8.46667,4.26787 -23.20285,6.50943 -29.37274,4.95848 11.17212,0.67599 25.57997,-3.0145 32.93506,-9.47828 14.47201,-8.48375 23.59812,-24.33685 27.40106,-40.49801 0.80675,-4.92413 2.16186,-16.98854 1.35315,-4.91716 0.0643,7.62203 -5.22448,20.45991 -6.18269,23.75684 6.72786,-11.03122 8.5379,-24.55892 6.90237,-37.2229 -9.66094,-2.31083 2.25463,9.21308 -4.78067,13.84498 -10.06315,12.26036 -24.32421,20.88075 -40.02667,23.37359 5.76469,-1.64318 13.74739,-5.64784 3.02543,-1.91426 -5.73475,1.65959 -13.35993,2.09893 -2.86231,0.27187 10.30362,-3.21058 -4.1172,-1.60846 -3.80394,-0.7204 -7.66642,-0.18561 -25.04192,5.6279 -27.10923,-2.65878 20.7687,0.17677 43.28162,-8.25601 55.8246,-25.71647 5.94051,-2.91505 13.39158,-19.06506 5.94677,-7.90004 -3.02917,5.60298 -9.28496,10.27317 -2.38986,1.2496 4.54779,-5.8373 8.41691,-18.31485 3.86891,-21.68393 -3.42725,-5.8426 -14.70837,-17.65534 -3.72377,-6.3316 5.80669,5.08822 7.43579,17.74794 8.91108,3.87997 0.171,-12.67154 0.56862,-22.82514 -6.70309,-33.630399 -6.16532,-11.208736 -15.59079,-21.573648 -28.24599,-25.171943 6.54888,3.74664 -12.67364,-3.746484 -0.90082,0.919398 5.19841,1.903416 14.82811,8.346527 4.17473,2.759897 -8.47105,-3.70151 -16.52312,-5.396663 -25.1131,-4.772064 -5.888,-3.291805 8.93717,-3.424999 -1.65145,-2.629062 -6.32668,-1.212478 -12.40174,-6.64143 -19.55993,-6.815964 5.00652,-2.112079 12.12761,-5.502924 2.35913,-1.800759 -11.97138,3.755225 10.08911,-5.523709 13.01407,-5.262006 12.09331,-1.524492 15.90294,-0.307717 6.15766,-0.319946 6.49611,-1.166732 11.84111,2.810501 17.91466,2.286769 6.07593,-1.239151 21.66359,7.814671 8.29724,1.235101 -13.42566,-4.485821 2.4596,-0.01711 7.07098,2.254101 -5.12755,-2.317048 -13.62677,-5.766036 -3.13277,-2.068474 -3.29412,-3.238964 13.91548,5.822014 17.60305,9.168117 10.11685,1.978244 -1.26092,13.296604 -2.33336,13.471052 -4.02513,-4.959532 -17.82976,-14.863586 -18.50591,-13.565028 6.99833,3.77268 15.89399,10.324568 19.14675,16.212932 -7.38225,-7.415087 -22.65985,-15.26932 -7.13958,-4.341792 7.81434,7.594762 14.45661,16.452269 16.6813,26.06922 4.95082,9.5733 1.70465,28.16025 3.06152,33.42178 5.8538,-13.9854 3.72675,-30.68458 -2.84882,-44.175478 7.29423,0.514375 13.06022,-9.011595 14.66895,3.255213 4.33985,8.429505 6.37554,15.748845 -1.13857,22.202205 -4.3472,11.33819 11.84541,17.29754 2.68045,28.66946 -1.34297,5.28457 -3.54537,6.71108 -5.43145,5.13138 10.84099,35.88495 -18.05226,77.19574 -54.82264,81.63236 -10.1506,3.5844 -24.00377,0.2531 -31.82336,0.0182 -6.8013,-0.31686 17.88941,3.92956 4.50016,2.09518 z M 422.546,171.40581 c -12.74861,-2.78415 -7.89229,-24.08358 5.05577,-20.47314 13.80998,2.84095 8.37291,24.39997 -5.05577,20.47314 z m -10.17308,-39.95044 c -15.31511,-4.47508 -5.34876,-28.88461 8.49667,-21.56246 12.65222,5.64151 4.93806,26.02597 -8.49667,21.56246 z m -23.79914,-0.85836 c -1.11033,-5.03181 -17.91585,-16.83898 -8.27979,-15.57101 4.98272,3.52285 12.98573,11.63287 8.27979,15.57101 z m 21.91645,-31.610228 c -12.86825,-8.095392 10.72263,-19.092957 8.95585,-4.151436 -0.93215,3.74268 -5.45569,6.063184 -8.95585,4.151436 z m -19.91858,-9.976654 c -18.50624,-4.053785 -0.27182,-30.970014 10.21018,-15.192903 4.84379,6.891263 -1.99496,17.14469 -10.21018,15.192903 z m 34.37748,-4.096747 c -12.07241,-7.53443 7.25126,-16.205479 7.53452,-5.912509 0.0574,4.195752 -3.12423,7.336801 -7.53452,5.912509 z m -14.52615,-5.381859 c -15.16017,-6.999233 8.28934,-21.961346 8.91843,-6.06192 -0.19167,4.233697 -4.86203,7.567003 -8.91843,6.06192 z M 391.84621,63.384016 c -15.10038,-5.66461 5.28666,-23.240053 9.57371,-8.34663 1.10081,5.210548 -4.74832,9.624986 -9.57371,8.34663 z M 347.6625,52.904362 c -13.69741,-5.096281 -0.0215,-25.598461 8.63986,-12.2493 3.28505,5.421851 -2.48083,13.898038 -8.63986,12.2493 z m 13.28752,-0.933766 c -11.36864,-5.7385 10.29109,-14.666849 5.55572,-2.036831 -0.98497,2.013699 -3.56529,2.562238 -5.55572,2.036831 z m -87.10444,-3.086782 c -12.76845,-9.859143 13.90314,-14.768393 6.28105,-1.195372 -1.53293,1.707035 -4.22398,2.282824 -6.28105,1.195372 z m 108.54909,-2.080025 c -17.81632,-6.224833 4.2946,-29.535726 10.9369,-11.575864 1.96912,6.391524 -4.27436,13.64448 -10.9369,11.575864 z m -72.20906,-9.392686 c -17.66814,-4.5554 3.08462,-28.806324 9.78202,-11.071464 2.0387,5.887562 -3.65579,12.451377 -9.78202,11.071464 z"
         id="path6" /><path
         style="fill:#a60820"
         d="m 276.56892,269.24897 c -15.43366,-5.55111 1.6413,-26.33669 10.48317,-13.73692 4.95165,6.84961 -2.55587,16.72984 -10.48317,13.73692 z m 25.68453,-6.77428 c -13.60193,-9.28971 12.93501,-19.25826 8.75196,-3.21553 -1.32175,3.34204 -5.57039,4.89689 -8.75196,3.21553 z m -42.9092,-14.07121 c -16.2872,-13.78893 18.94859,-19.89028 8.36693,-1.66863 -1.98506,2.39872 -5.61121,3.15103 -8.36693,1.66863 z m -71.22549,-28.70534 c -12.78187,-7.14863 8.78074,-17.62581 7.74648,-6.40873 1.16422,4.70906 -2.97989,8.8369 -7.74648,6.40873 z m 18.78542,-12.17166 c -15.06888,-13.22341 18.67277,-16.10649 6.28236,-0.57173 -1.78094,1.33982 -4.28336,1.52553 -6.28236,0.57173 z m -14.23597,-19.18393 c -14.3033,-10.64893 14.94201,-19.74294 8.50844,-2.42069 -1.63999,2.89728 -5.5818,4.03444 -8.50844,2.42069 z m 11.92522,-65.63428 c -13.76344,-9.52889 13.74321,-17.81311 7.25678,-2.21818 -1.54476,2.29875 -4.69174,3.20125 -7.25678,2.21818 z m 8.66075,-17.43348 c -13.03086,-1.94908 -17.17223,-21.729483 -4.99244,-27.86808 12.69555,-8.556296 30.26675,7.234219 21.69598,20.489817 -3.199,5.773733 -10.27404,8.917333 -16.70354,7.378263 z"
         id="path5" /></g></g></svg>
