<?xml version="1.0" encoding="UTF-8" standalone="no"?>
<!-- Created with Inkscape (http://www.inkscape.org/) -->

<svg
   width="98.528786mm"
   height="100mm"
   viewBox="0 0 98.528783 100"
   version="1.1"
   id="svg1"
   xml:space="preserve"
   xmlns="http://www.w3.org/2000/svg"
   xmlns:svg="http://www.w3.org/2000/svg"><defs
     id="defs1" /><g
     id="layer1"
     transform="translate(-229.714,-464.60583)"><g
       id="g41"
       transform="matrix(0.42119122,0,0,0.42119122,144.86107,323.19964)"><path
         style="fill:#b7b3ba"
         d="m 315.03115,559.54077 c -0.63769,-7.57832 -22.12332,-1.33308 -15.08905,-8.11927 10.60766,0.59755 3.99337,-6.7111 -2.17781,-2.7791 -6.10383,0.85192 -12.56765,8.1388 -19.73021,0.43445 -7.75648,-7.6055 10.42478,-7.02148 -0.4355,-12.13232 -5.23651,-9.35399 10.53192,2.59103 14.5466,2.18276 17.98527,4.54507 37.43491,2.80632 54.94473,-2.84696 16.68699,-5.91415 31.86319,-18.28687 36.88357,-35.82494 2.86782,-5.82392 5.72298,-24.17652 0.95014,-22.74599 -1.88153,11.62454 -0.97971,24.21556 -9.06745,34.00625 -2.92276,5.81148 -15.90819,17.30116 -16.60156,16.74582 10.86611,-8.26952 -11.34659,4.98556 -15.33577,5.39424 -4.68974,2.70983 -20.19276,5.13593 -18.97259,3.79087 11.71169,-2.95983 25.40439,-6.37854 31.75738,-17.44363 10.86705,-6.97391 15.57446,-18.30475 18.31811,-30.37249 2.26874,-5.51077 4.47917,-18.3496 4.54539,-5.03737 0.43309,9.2376 -8.55671,23.46587 -9.78558,27.25558 9.6471,-10.42981 12.42906,-25.32964 11.79863,-39.11143 16.34159,3.24486 6.35679,24.60348 2.09017,34.64754 -7.46515,16.7052 -22.01196,30.3722 -40.05868,34.64624 -9.05551,4.46775 -29.85989,5.09337 -32.61313,6.0101 12.64217,3.97562 28.30225,-5.2147 37.65718,5.75691 9.70117,2.77271 15.518,-8.96038 9.35095,-12.745 6.00077,-5.60983 14.88511,-12.73933 21.62669,-5.40917 10.39848,1.27964 10.62899,-15.7961 0.27881,-15.10056 9.8648,-12.75555 14.29352,-28.73483 13.7707,-44.71602 3.36585,-12.70909 24.23054,2.9979 19.32983,13.36452 -4.27859,32.15717 -30.4459,58.79589 -61.16362,67.51337 -11.28003,2.98333 -27.06734,5.95953 -36.81793,2.6356 z m 86.66513,-53.96928 c 16.46177,-14.3874 -23.40553,-12.84134 -4.49513,0.34981 1.46367,0.46797 3.13314,0.40728 4.49513,-0.34981 z m -115.64331,-6.36982 c -8.09589,1.39355 -12.05121,-9.12636 -1.63796,-5.97857 2.55924,0.31806 6.12886,5.48904 1.63796,5.97857 z m -19.82935,-5.2634 c -10.65674,-3.76796 -3.08724,-23.81837 -17.47722,-22.77154 9.81455,0.9333 31.57496,13.00958 19.72297,22.91 z m -28.16089,-20.02488 c -11.13695,-17.78381 -17.58663,-40.26942 -10.89376,-60.84999 11.65099,-7.60604 1.52793,12.74165 6.77453,15.85739 7.06325,5.71471 3.85557,10.78134 -3.71626,12.26997 -3.73905,10.06086 10.37632,12.16354 12.26707,21.57455 5.37267,5.24184 3.43707,11.02203 -4.43158,11.14808 z m 168.33726,-8.10494 c -1.86252,-12.70268 -22.73412,-0.36105 -22.04665,-16.33446 -7.17314,-11.24963 -18.2199,-20.47356 -31.34454,-23.68347 9.97586,-8.43965 -15.41586,-7.76542 -1.67481,-12.41575 9.68401,1.84286 14.31002,10.48534 23.05383,7.08364 5.81572,4.27773 -0.15265,-6.87898 7.33793,-0.82876 9.80542,9.31629 16.54115,21.79769 23.80023,33.24993 1.39936,3.98982 3.6953,9.04364 0.87401,12.92887 z m 14.10621,-10.7741 c -4.33808,-6.0305 -6.78359,-26.79104 4.82262,-14.89601 3.09962,4.75257 3.65177,16.21188 -4.82262,14.89601 z M 246.93951,434.30923 c -0.47887,-12.79185 6.85511,-24.12821 11.36151,-35.65476 7.61716,-12.86462 22.89513,-17.15629 34.5892,-24.95435 -12.33072,1.57101 -22.23656,10.1671 -32.35596,16.54822 15.57992,-18.00317 39.61478,-27.77139 63.18344,-28.61455 -14.18913,-6.75256 -27.99708,6.40435 -42.22716,7.21594 -6.21687,4.95771 -14.89734,7.18245 -19.34399,-0.52632 -14.31575,0.11681 -0.86574,18.68423 -11.60426,22.33275 -1.66553,8.94337 -15.02445,16.03931 -16.45952,3.19457 2.13071,-12.58797 13.22809,-22.14598 22.23369,-30.41661 4.66025,-2.54868 12.40581,-8.74606 5.52167,-1.33053 5.25656,9.1871 18.16843,-0.62934 24.42338,-5.34239 5.58555,-11.65722 11.70318,11.48832 22.0955,3.57168 6.26132,-5.4673 10.19927,-17.918 20.96296,-10.32997 9.82168,5.45655 3.83678,24.26049 20.3994,20.79154 4.39056,0.608 10.5784,-4.7026 8.10785,2.70926 4.9599,6.92863 7.9546,-7.639 13.01229,1.65203 6.1426,14.76315 -12.59642,3.21168 -17.89474,-0.37397 -11.15545,-5.95884 -24.83564,-8.49013 -36.74489,-3.21961 -20.3618,3.20386 -41.84725,10.97972 -52.9882,29.5705 -10.75427,7.81553 -7.19523,26.01036 -15.82341,33.30158 l -0.44878,-0.12501 z m 7.47843,-10.32837 c -2.56898,-5.82429 9.04632,-22.92126 6.03054,-8.26231 -0.0381,1.82573 -5.29336,11.33584 -6.03054,8.26231 z m 111.50885,-6.29439 c 5.74828,-3.25489 -4.6769,-18.89103 6.40308,-11.06199 5.92995,1.03949 16.71612,9.48901 3.83167,4.87357 -4.22298,0.007 -8.01564,2.74094 -10.23475,6.18842 z"
         id="path45" /><path
         style="fill:#e84d10"
         d="m 279.00312,509.94699 c -10.3636,4.55137 -29.32333,-14.28611 -11.13665,-13.61827 5.41967,2.34193 20.75041,10.58676 18.69175,-1.60187 -7.02378,1.09526 -21.45493,-5.16221 -8.81996,-10.42128 2.88849,1.34105 15.25852,7.89226 9.82702,0.94184 -10.78681,-6.73696 -26.6277,-7.79805 -32.26162,-20.209 -6.17747,-5.05458 -15.70666,-29.20031 -0.83286,-22.82178 5.80353,10.61686 12.20325,21.11422 22.72887,27.9242 5.74025,3.43078 18.12546,14.71075 11.67863,1.71098 -1.9691,-11.50874 9.31283,-8.74018 12.84027,-1.36292 10.25076,8.6576 22.62674,15.74226 36.26822,16.67583 -16.91398,11.78886 -36.28816,22.82708 -57.43737,22.95089 z m -38.38097,-8.82358 c -9.37804,0.37857 -6.93823,-15.67123 0.72154,-5.29253 1.73217,1.44577 3.34868,5.99072 -0.72154,5.29253 z m -24.23256,-16.16297 c -5.22565,-1.9295 -5.02079,-20.01759 -2.8909,-7.40331 0.77145,1.63493 11.28067,10.68774 2.8909,7.40331 z m 9.11608,-5.35093 c -3.28929,-4.63293 -13.90625,-21.67914 -0.56038,-16.78187 5.06301,2.93609 10.30256,16.68666 0.56038,16.78187 z m -14.76709,-24.73355 c -12.28197,-11.50861 -9.4074,-30.05902 -7.76833,-45.0676 4.60306,-21.12978 18.6646,-41.27286 39.40274,-49.03483 16.54367,5.36837 -3.08152,19.90765 -9.31004,25.66175 -13.58114,17.44648 -17.2838,41.19377 -12.61573,62.5023 -0.0566,4.694 -5.5189,7.9324 -9.70864,5.93838 z M 254.5529,434.26 c -5.64227,-6.06265 7.36875,-16.01088 4.48703,-4.16048 0.0693,2.17294 -1.8539,6.05705 -4.48703,4.16048 z m -9.58163,-3.5057 c -0.61882,-23.40292 15.24183,-45.23193 36.84317,-53.57919 4.54619,-3.58321 16.96163,-4.21422 5.11935,-0.04 -19.67673,8.34586 -38.70236,25.70335 -38.53371,48.60859 -0.23738,2.07531 -1.27392,4.3295 -3.42881,5.01056 z m 15.29053,-20.0467 c -4.14868,-7.517 16.02816,-22.91778 5.63881,-8.98044 -1.69247,3.09818 -3.16688,6.39646 -5.63881,8.98044 z m 3.18402,-44.46127 c -3.14526,-11.83818 21.07818,-17.11459 23.8768,-10.04062 -6.11104,6.51563 -15.56805,8.10091 -23.8768,10.04062 z m -13.61438,-6.49307 c 1.36426,-12.21584 24.41342,-18.06825 28.4653,-13.47139 -8.06131,7.0522 -19.06641,8.88667 -28.4653,13.47139 z m -1.30641,-6.79879 c -0.3059,-7.7966 17.31551,-13.47798 16.94388,-9.47124 -6.44082,0.92732 -12.75889,4.53727 -16.94388,9.47124 z"
         id="path44" /><path
         style="fill:#c7042e"
         d="m 348.09478,553.63593 c -17.37604,-10.12542 20.26752,-19.30941 12.0798,-2.91473 -3.26969,2.76769 -7.90896,3.87694 -12.0798,2.91473 z m 30.48382,-18.0039 c -18.19887,-6.02846 11.21657,-23.83762 10.1923,-5.98136 -1.21049,4.11489 -5.90095,7.38217 -10.1923,5.98136 z m 19.22243,-29.47518 c -17.35038,-6.36077 12.34474,-23.17468 7.59738,-4.47924 -1.26449,2.84943 -4.37673,5.12064 -7.59738,4.47924 z m -152.55098,-10.686 c -16.59458,-4.4557 -7.13427,-32.89857 8.83134,-22.45843 11.4578,5.48435 6.17014,25.33493 -6.83703,22.86669 -0.66477,-0.13609 -1.32954,-0.27217 -1.99431,-0.40826 z m -32.08874,-13.41722 c -7.18559,-3.52458 -0.61061,-26.24602 -1.46115,-10.17378 -0.33207,2.31669 3.6628,10.55611 1.46115,10.17378 z m 183.71368,-10.5433 c -19.20319,-5.44757 12.3274,-23.51596 9.05217,-4.14723 -1.31394,3.4432 -5.58779,5.39405 -9.05217,4.14723 z M 231.0375,450.69481 c -12.19632,-11.73888 21.55442,-17.37816 10.8222,-3.16062 -2.36256,3.1686 -7.09579,5.04017 -10.8222,3.16062 z m 4.164,-37.77312 c -16.3257,-13.79272 22.601,-12.64238 4.44785,0.15915 -1.46209,0.35854 -3.01112,0.26086 -4.44785,-0.15915 z m 144.8341,-11.04398 c -16.46433,0.877 -10.91311,-30.19478 4.04901,-21.337 9.67406,4.16439 8.45768,23.45549 -4.04901,21.337 z m -108.30852,-8.33223 c 5.03643,-12.92022 21.19771,-14.85142 32.61049,-19.44454 17.86207,-3.91435 36.66473,-1.42973 53.68246,4.86561 -8.59202,1.6459 -20.64631,-5.08444 -30.9619,-4.07735 -18.02278,-1.09307 -36.67156,4.21296 -50.24286,16.39979 -1.54865,1.02838 -3.2349,1.9311 -5.08819,2.25649 z m -14.70309,-11.47271 c -14.13307,-11.46155 19.70053,-18.99165 9.66771,-2.65604 -2.31636,2.64751 -6.29301,4.04351 -9.66771,2.65604 z m 102.36825,-5.86672 c -10.12046,-12.34013 15.56519,-3.04996 0,0 z M 347.41038,371.437 c -15.6889,0.70899 -15.78312,-25.50556 -0.2932,-25.56401 16.06853,-2.60032 17.99302,26.44105 1.62376,25.72783 -0.44352,-0.0546 -0.88704,-0.10921 -1.33056,-0.16382 z m -47.79667,-11.32373 c -14.35243,-3.00514 -7.49668,-25.81921 5.58233,-24.31276 14.17475,1.25327 13.58414,23.88406 -0.31595,25.02834 -1.81849,0.28676 -3.5132,-0.42266 -5.26638,-0.71558 z"
         id="path43" /><path
         style="fill:#581954"
         d="m 330.0677,572.82739 c -7.94721,-14.75189 17.51457,-11.9414 25.9529,-15.40834 8.11541,-2.95405 26.6403,-17.29155 28.33546,-3.33525 -9.00144,10.7609 -24.24191,12.32598 -36.61721,17.33438 -5.753,1.43511 -11.75904,2.21324 -17.67115,1.40921 z m -30.03021,-2.21272 c -12.33861,2.34267 -15.93915,-29.35937 -2.905,-17.01854 11.43958,-1.8111 26.59716,10.444 10.24136,16.82014 -2.38719,0.63274 -4.91724,0.66763 -7.33636,0.1984 z m 96.11324,-22.26839 c -14.78941,-7.4672 4.68882,-19.70506 8.75355,-28.07162 8.64301,-15.27695 9.45335,-33.28139 8.76117,-50.4138 6.89648,-18.12284 26.37183,4.76213 20.70145,16.84589 0.49806,24.17777 -12.36333,47.99027 -32.3747,61.41512 -1.87126,0.63597 -3.92689,0.714 -5.84147,0.22441 z M 261.9375,543.85634 c -18.07662,-0.0464 -6.91268,-29.8405 6.73012,-18.48587 11.95895,4.87885 5.87027,22.70697 -6.73012,18.48587 z m 68.9901,-3.51943 c 20.23513,-3.91547 39.57411,-15.93409 48.48047,-35.04307 6.56095,-8.3987 1.78162,-21.83743 7.05185,-28.98416 3.19029,12.27576 -1.98783,25.36329 -8.02511,36.02984 -9.90593,16.52875 -29.10626,25.21188 -47.50721,27.99739 z m -17.79323,-0.50999 c -10.27671,-0.68704 -21.62881,-2.78449 -29.67676,-9.56987 13.51013,3.47379 26.63435,10.04843 41.00946,8.04585 11.39362,-0.85461 22.19909,-5.10345 32.35489,-10.10991 -12.418,8.91672 -28.70908,11.61256 -43.68759,11.63393 z m 61.3256,-52.52713 c -7.4954,-5.52598 7.31411,-16.5484 3.7203,-4.11787 -0.17331,1.74889 -1.28609,5.30345 -3.7203,4.11787 z m 4.55484,-21.23995 c -10.66825,-12.79495 -22.63211,-25.93993 -38.9664,-31.20111 -2.08165,5.26464 5.48335,23.96629 -7.20119,14.2249 -10.50223,-10.41786 -24.01072,-18.55459 -38.93987,-20.13551 18.13513,-16.99001 42.64797,-29.59391 68.07965,-26.69003 11.26007,5.93798 -3.96965,16.76335 -10.69295,8.51208 -5.84005,-3.40298 -22.56869,6.58285 -9.43088,6.98055 6.17352,-3.46559 19.98066,6.13626 7.71733,5.99532 -5.85234,-2.46899 -19.83226,4.6498 -6.05701,4.70233 18.95238,1.59147 36.73787,16.0576 40.44945,34.9938 0.34953,2.56691 -3.03059,4.49243 -4.95813,2.61767 z m 34.92235,-10.6553 c -16.12486,0.44498 -5.57174,-31.3934 2.50462,-11.83117 2.58277,4.16306 7.95587,15.94164 -2.50462,11.83117 z m -9.79245,-25.16669 c -10.4164,-3.76887 2.47873,-13.2341 3.54782,-2.4272 0.0846,1.72407 -1.92378,3.66182 -3.54782,2.4272 z m -14.41279,-2.38733 c -1.64032,-7.49596 -12.04403,-11.22791 -15.52787,-6.7843 -14.64796,3.43077 -4.70232,-12.99118 4.49247,-9.29643 6.92693,-0.89389 22.1912,11.81826 11.0354,16.08073 z"
         id="path42" /></g></g></svg>
