<?xml version="1.0" encoding="UTF-8" standalone="no"?>
<!-- Created with Inkscape (http://www.inkscape.org/) -->

<svg
   width="105.91525mm"
   height="100mm"
   viewBox="0 0 105.91524 100"
   version="1.1"
   id="svg1"
   xml:space="preserve"
   xmlns="http://www.w3.org/2000/svg"
   xmlns:svg="http://www.w3.org/2000/svg"><defs
     id="defs1" /><g
     id="layer1"
     transform="translate(-369.09789,-464.60583)"><g
       id="g49"
       transform="matrix(0.412981,0,0,0.412981,-41.312744,388.12694)"><path
         style="fill:#bab7c3"
         d="m 1112.1761,427.2868 c -18.0371,-0.41689 -35.2518,-7.34861 -50.5946,-16.43922 9.5066,14.98561 -14.6916,12.82673 -20.3092,4.23838 -17.4805,-11.08514 -30.8815,-28.92987 -35.4186,-49.24275 2.0325,6.34511 8.8874,20.45666 3.2042,6.22013 -8.0668,-24.22164 -4.4933,-54.35896 14.7283,-72.38384 8.7462,-6.64829 20.1572,3.99872 9.2748,11.24264 -2.799,4.43451 -0.2557,12.9067 1.4262,3.62606 4.1305,-6.01324 -2.1132,12.65244 0.4348,16.13941 -0.5984,5.09619 5.752,24.64311 2.3363,9.48068 -5.5258,-29.53585 9.0122,-58.24463 25.5458,-81.73923 7.1299,-2.3672 15.5817,-20.4985 1.565,-14.73039 -14.3613,4.97459 -26.911,14.14778 -39.4236,22.48963 -8.2579,5.63186 -23.99,15.33426 -30.44884,2.7513 -2.65573,-15.55986 8.50494,-29.64454 17.71954,-41.1136 24.5944,-25.68498 60.4322,-36.50977 94.7016,-41.45135 20.8283,-2.44965 43.6374,-1.93995 61.8708,9.63371 -0.1405,8.32261 18.8785,5.10451 25.5377,11.06423 17.3189,6.52679 31.9981,19.0918 41.7977,34.60214 3.1634,10.66519 9.1891,20.91423 7.8083,32.39758 -0.8562,15.49183 -10.0962,29.89624 -23.6984,37.27794 -9.788,7.87998 -7.2129,28.22259 -20.4666,31.04901 -3.9923,-18.30004 -14.4419,9.26572 -19.2841,14.52752 -3.9233,4.26874 -18.8216,18.44764 -4.2476,15.77628 12.9759,-4.59531 22.1093,-15.72048 34.33,-21.86268 9.0005,-4.73663 18.0165,-10.83412 28.2865,-11.93949 19.889,4.05016 9.2632,27.91577 0.5703,38.11256 -20.3544,28.37507 -55.5363,39.52625 -88.1302,46.73529 -12.8657,2.54119 -25.9977,3.83767 -39.1161,3.53806 z m 13.8906,-0.53717 c 32.6236,-3.16614 65.8522,-11.35468 92.8417,-30.73135 9.5307,-4.82258 19.9578,-17.75315 25.9692,-28.54694 9.5336,-11.26888 4.9262,-33.7513 -13.2071,-26.37776 -11.1964,4.15726 -21.9693,10.18615 -31.4103,17.35888 -2.3724,10.61445 -24.3632,16.93806 -34.7158,25.37479 -11.8852,7.4751 -24.4688,14.12982 -38.0468,17.93289 11.8854,-1.04748 -10.1036,3.88386 -13.933,4.97751 -20.7171,5.84908 -43.7441,8.03296 -63.8239,-1.2012 -9.2637,-0.58737 -24.225,-19.51899 -6.4582,-17.35736 15.5018,6.06262 29.2944,17.86416 47.0248,16.38898 10.5269,0.26426 21.1284,-1.78707 30.7323,-6.12734 -31.4972,6.94741 -65.9734,-10.77377 -78.7052,-40.41223 -6.3726,-12.06362 -8.8295,-25.92743 -7.8914,-39.3706 -1.8296,4.26832 -4.3529,25.74941 -6.2623,10.86846 -2.2764,-9.51683 17.0552,-29.76334 -0.5022,-30.26739 -15.0555,5.98499 -18.7659,24.10523 -21.4303,38.37855 -2.1112,15.63095 -0.081,32.67577 9.543,45.63497 1.2917,13.15109 13.3426,21.84531 22.8663,29.5507 6.9749,6.5001 30.4132,16.72773 23.1909,-2.00861 19.2281,11.03525 41.7175,18.46847 64.2183,15.93505 z m -40.4813,-15.3425 c 16.9422,-1.00724 33.0419,-6.44605 48.6312,-12.7051 9.5489,-4.09106 29.3346,-6.48509 27.3567,-19.43504 -13.9267,5.70537 -27.6674,16.50705 -43.2174,20.89586 -15.5228,11.26318 -35.6264,8.49887 -53.4297,6.62498 -11.6838,2.49022 9.3014,5.4069 13.014,4.77742 2.5494,0.0308 5.0986,-0.0461 7.6452,-0.15812 z m 11.7482,-20.38061 c 30.4015,-4.76111 56.433,-24.90549 73.9301,-49.52656 -12.8612,-11.36858 -31.8538,-9.61071 -46.1648,-18.58937 -19.7504,-7.63056 -39.3918,-15.77264 -59.9472,-21.03409 -5.5142,8.0033 -6.0053,27.81783 -9.4925,30.25119 1.5017,-6.09901 4.0435,-18.92199 0.2884,-5.58794 -3.6049,14.21492 -4.7657,29.68927 0.4925,43.65649 -3.8666,2.98702 11.0653,14.43597 16.413,17.28086 7.4902,3.79755 16.2247,4.93428 24.4805,3.54942 z m -8.3086,-5.43969 c -16.4331,-0.75527 -24.1183,-17.87223 -28.7171,-31.34224 -4.6948,-12.35071 -4.6632,-28.22435 5.063,-37.66901 9.394,-12.85345 25.758,-5.48334 36.5143,1.12719 16.6021,9.73767 30.0514,23.80926 43.3691,37.47879 7.2272,15.3855 -17.1923,20.82099 -27.2923,26.25182 -9.2486,3.24685 -19.1349,4.8563 -28.937,4.15345 z m 14.2011,-0.78463 c 17.3453,-2.71806 33.3237,-11.38156 46.4956,-22.78708 -18.0786,-22.52639 -40.0069,-44.26108 -68.5334,-52.38639 -17.8541,0.6973 -26.8118,21.85213 -22.6272,37.40126 2.2881,19.05876 17.067,39.71778 38.1437,38.33688 2.1835,-0.0359 4.3633,-0.23271 6.5213,-0.56467 z m 64.1668,-3.28302 c 4.6042,-1.43507 13.9771,-10.92381 3.1079,-7.8933 -5.4967,-3.5197 -11.8632,10.32062 -3.1079,7.8933 z m -112.6938,-14.88675 c -5.6964,-21.81946 0.6741,-44.52698 9.1905,-64.70474 -13.2421,-12.32834 -29.3506,6.68102 -23.5116,20.55202 -0.05,14.60862 3.751,29.66353 11.3376,42.07026 0.7887,0.96697 1.9629,1.41736 2.9835,2.08246 z m 146.6365,-25.63063 c 6.6706,-3.93862 16.2097,-20.49948 8.3886,-23.31648 -5.4531,6.37022 -3.5001,15.34834 -11.3103,20.71226 -1.3252,1.92291 1.3469,3.3611 2.9217,2.60422 z m 0.1956,-26.11944 c 5.5147,-21.52561 7.7703,-45.44011 -0.4992,-66.46963 -3.0323,-3.51107 -5.6624,-12.46816 0.2293,-5.0541 -2.3578,-15.02225 -10.9278,-31.23602 -28.0992,-31.78972 -25.5767,-4.98774 -51.5659,5.1033 -72.2898,19.64417 -10.4819,-0.46574 -19.5582,20.49942 -3.3035,15.28302 15.4273,-7.52416 28.1848,-20.60164 45.5653,-23.96051 11.98,-2.72777 25.1037,-1.23583 35.7239,5.12765 16.5241,3.17032 17.2069,23.2088 17.3843,36.66931 0.2792,16.48123 -3.4506,32.75116 -8.6284,48.30771 4.2396,2.23769 9.2013,2.82633 13.9173,2.2421 z m 4.4453,-0.75048 c 8.6496,-14.60486 9.1029,-32.25539 8.3199,-48.74928 -8.4495,-1.83467 -0.3399,15.44358 -3.7887,20.9528 -0.1551,8.43843 -13.3982,21.26269 -4.5312,27.79648 z m -18.9292,-2.19081 c 8.6445,-23.71445 12.4117,-50.45557 4.1398,-74.82245 -14.2812,-14.07803 -37.4321,-20.42301 -56.0207,-11.39351 4.6888,-1.59856 21.1172,-4.61521 18.8453,-2.19181 -23.5105,2.37213 -47.7206,12.80731 -60.9486,33.13009 -8.0896,6.07021 -21.5282,25.20778 -2.4949,24.33702 32.3918,7.46743 62.1068,23.67989 94.5887,30.71173 z m -13.9509,-5.61043 c -29.08,-7.50077 -54.0561,-26.95806 -71.8726,-50.71802 -0.5667,-11.76616 15.8845,-15.21903 23.8661,-21.31419 3.5557,-2.39654 19.1988,-5.91097 13.0258,-6.05725 14.3989,-4.651 31.0584,-0.92553 40.2641,11.68128 10.1398,12.91495 19.1052,31.33943 12.2638,47.70492 -3.8473,7.64457 -9.0135,15.82042 -17.5472,18.70326 z m -0.8599,-2.21648 c 17.4155,-2.96977 23.0553,-25.00677 18.4704,-39.91393 -4.0395,-13.71238 -12.541,-27.2156 -25.3407,-34.06639 -21.2787,-7.02856 -43.2443,4.25684 -59.9652,16.83037 -10.2342,13.49466 11.3378,23.58317 18.9313,32.60182 13.4797,11.17836 28.9488,21.88794 46.4857,24.67029 0.4728,-0.0407 0.9457,-0.0814 1.4185,-0.12216 z m -169.8556,-28.96437 c 21.3616,-4.34625 35.4733,-22.57954 54.0966,-32.35077 2.947,-3.91041 19.8341,-10.12109 8.1547,-3.03139 -6.6855,4.3099 -21.3051,12.4305 -23.0239,14.7852 14.461,-11.82989 35.8121,-11.32797 48.4371,-25.82875 21.3752,-20.2997 51.4897,-30.49324 80.7903,-28.22503 -8.2699,-0.10387 -0.6696,-4.32405 -1.3697,-3.76988 -26.5923,-16.29755 -59.4611,-11.61295 -88.3346,-5.18497 -17.5018,4.3714 -35.0493,10.45469 -49.4692,21.61095 7.1766,0.62658 -16.9498,14.47886 -4.952,4.26476 -6.1748,-0.12546 -15.8485,12.13093 -21.0483,19.13132 -6.90892,9.85177 -11.6593,21.54302 -11.8859,33.68557 0.85743,3.64136 5.03799,6.00808 8.6049,4.91299 z m 34.2509,-27.61314 c -3.2426,-11.19466 23.5415,-11.89432 9.4476,-2.42376 -2.7825,1.7254 -6.1081,3.08835 -9.4476,2.42376 z m 5.4297,-1.08549 c 10.5581,1.91672 8.8115,-17.56558 -0.1793,-6.24363 -3.3934,2.02198 -7.8331,9.97656 0.1793,6.24363 z m 20.8868,-13.92101 c 3.9087,-4.91562 19.0778,-14.42398 20.4224,-8.99021 -6.2784,3.98025 -12.8055,8.3324 -20.4224,8.99021 z m 24.8563,-0.72091 c 21.6234,-12.53228 44.8196,-26.65794 70.817,-24.94271 10.7672,6.50449 15.3528,-7.97597 2.3122,-6.22286 -21.0218,-0.75002 -41.4011,7.94348 -58.9361,18.84901 -4.8198,3.1939 -12.3237,9.24671 -14.1931,12.31656 z m -55.2956,59.63406 c -6.0663,-8.52717 12.3689,-28.38205 15.9996,-18.06888 -3.6691,7.16747 -7.9749,15.12193 -15.9996,18.06888 z m 3.8541,-1.14316 c 2.3224,-6.50983 17.1022,-16.02241 9.5479,-21.06364 -5.0294,3.03248 -22.4024,18.10114 -9.5479,21.06364 z"
         id="path53" /><path
         style="fill:#e44513"
         d="m 1091.989,385.20057 c -20.594,-1.68246 -32.1877,-23.14972 -33.9864,-41.76829 -2.7801,-14.41749 6.5554,-33.0133 22.7013,-33.22229 25.7482,4.72854 44.3379,25.21112 62.0697,42.82102 13.295,11.04552 -5.1556,18.02025 -13.5256,22.98205 -11.3816,6.08515 -24.2499,9.98243 -37.259,9.18751 z m -38.4181,-18.9315 c -12.4046,-15.99964 -14.5088,-37.96259 -11.9452,-57.46506 0.1399,-17.43518 28.634,-10.00386 18.5451,5.07566 -7.6911,13.10856 -7.979,28.60783 -7.1975,43.39395 0.1777,2.99991 0.4252,5.99522 0.5976,8.99545 z m -54.75689,-91.14078 c -9.94348,-9.83476 -2.01632,-24.19434 4.26929,-33.69254 6.1,-10.70584 14.5662,-21.03894 25.765,-26.40758 -4.4317,3.72254 -6.2582,8.91705 0.065,3.18841 10.1267,-14.25006 28.4776,-18.50517 43.9843,-24.2683 25.6914,-7.15031 53.6359,-12.24407 79.8595,-4.96549 4.8205,1.04479 18.764,7.85756 16.3111,8.45772 -7.6229,-0.26306 6.4436,5.53304 -1.2706,3.04034 -29.1444,-1.89947 -59.1289,9.59269 -79.6898,30.14276 -9.8811,13.39281 -29.5185,9.75136 -41.0575,21.00551 -4.8669,3.55474 -9.7386,4.83792 -2.2844,0.15379 6.658,-4.55296 23.3657,-12.33195 23.2418,-15.86937 -18.7864,9.36677 -34.3764,23.75466 -52.2756,34.45033 -5.1892,2.78163 -10.931,5.01893 -16.91809,4.76442 z m 42.98289,-28.21274 c 12.6749,2.01754 6.1512,-18.99781 -1.1358,-5.69386 -4.3354,1.8726 -6.9601,10.17369 1.1358,5.69386 z m 24.8581,-14.62093 c 4.9857,-3.4352 17.3349,-5.36537 16.9066,-11.4435 -5.4516,3.4759 -17.2005,2.76792 -16.9066,11.4435 z m 24.8836,15.02843 c -12.2109,-10.57406 13.6822,-16.15832 19.7794,-22.76396 20.1413,-11.65326 45.1557,-18.92932 67.9222,-10.86471 7.7494,2.55513 13.6705,24.83399 0.7215,14.40504 -16.7756,-10.39396 -38.5843,-8.17299 -54.991,1.85575 -11.7647,2.7932 -22.0659,20.15726 -33.4321,17.36788 z"
         id="path52" /><path
         style="fill:#6b246a"
         d="m 1055.0261,421.55112 c -17.1158,-6.67943 -31.8846,-19.45961 -40.5115,-35.72822 5.9782,-2.61166 -10.577,-15.00557 -7.4476,-22.89413 -4.0793,-21.58513 0.01,-46.3887 16.0382,-62.33265 8.5019,-6.88416 18.7075,5.26727 9.215,11.82243 -2.7644,6.20764 -5.711,20.41836 -1.7044,22.45886 1.2755,-6.15256 5.371,-26.31579 3.6229,-9.09378 -2.2259,16.0084 10.7808,29.19043 9.7781,44.03384 -0.6981,7.94452 10.3315,22.54916 -3.6731,17.47962 -12.5637,4.21244 -2.2355,15.37136 6.6518,15.48358 7.3658,2.93384 28.8114,17.70841 8.0306,18.77045 z m 142.8465,-80.38613 c -0.8431,-7.11499 13.1909,-10.94945 5.7188,-16.84147 6.6643,-11.02113 16.0476,-1.97059 5.3061,6.19896 -1.7291,4.94199 -4.0273,13.07389 -11.0249,10.64251 z m -0.5007,-26.0712 c -16.6266,-3.27324 -1.7347,-21.74094 -1.8705,-31.95448 2.5136,-23.87625 -0.8602,-49.3128 -14.6176,-69.57847 12.4365,0.42652 21.2267,24.23134 17.8541,27.90395 -3.8851,-0.65481 8.0244,11.95541 5.9128,17.76207 2.6102,18.51953 2.481,37.81596 -3.4285,55.7237 -1.2852,0.27831 -2.5472,0.31076 -3.8503,0.14323 z m -30.5594,-11.12148 c -26.9706,-8.51415 -49.1376,-27.77385 -66.4869,-49.5839 10.413,-16.16691 30.106,-22.90938 48.0436,-26.62566 15.0927,-1.82467 29.3719,7.90763 35.7782,21.21747 10.4217,15.50571 12.0155,39.72897 -3.749,52.31719 -3.8749,2.76592 -8.9484,3.96086 -13.5859,2.6749 z"
         id="path51" /><path
         style="fill:#aa0b2b"
         d="m 1112.3084,426.73352 c -18.7205,-0.38184 -36.4804,-7.8575 -52.3427,-17.32638 25.0293,7.18771 50.5362,-1.88987 74.6899,-8.22596 9.7,-4.4114 21.9189,-14.98384 29.765,-13.07763 9.5428,-2.40281 1.5605,-6.98967 9.449,-9.21325 9.3757,-6.04645 20.8501,-10.02475 27.5497,-19.33734 6.0115,-10.02864 21.1695,-11.60504 29.8918,-19.13574 16.0295,-5.10962 24.5773,12.90894 14.7507,24.46288 -15.1017,30.3623 -47.9619,47.24796 -79.7684,54.6028 -17.7198,4.11492 -35.6883,7.83306 -53.985,7.25062 z m -27.3844,-22.62734 c -15.5038,-2.33475 -35.0205,-7.4787 -39.8276,-24.61204 -3.0411,-7.14629 1.9267,-17.78491 6.6261,-5.76197 14.9445,18.16606 38.9162,28.9698 62.4911,25.86011 0.7738,3.37932 -17.3946,5.23656 -23.9022,4.56981 -1.7959,0.001 -3.5918,-0.023 -5.3874,-0.0559 z m 79.7676,-21.88415 c -8.9144,-10.65379 22.1387,-10.62964 6.3381,-3.38726 -1.8052,1.57704 -3.8524,3.16916 -6.3381,3.38726 z m -132.2247,-91.45805 c -3.7047,-8.16152 11.4142,-25.89703 15.638,-17.6581 -3.5221,7.03346 -7.6748,14.9576 -15.638,17.6581 z"
         id="path50" /></g></g></svg>
