<?xml version="1.0" encoding="UTF-8" standalone="no"?>
<!-- Created with Inkscape (http://www.inkscape.org/) -->

<svg
   width="95.016609mm"
   height="100mm"
   viewBox="0 0 95.016606 100"
   version="1.1"
   id="svg1"
   xml:space="preserve"
   xmlns="http://www.w3.org/2000/svg"
   xmlns:svg="http://www.w3.org/2000/svg"><defs
     id="defs1" /><g
     id="layer1"
     transform="translate(-517.62422,-464.60583)"><g
       id="g45"
       transform="matrix(0.40301204,0,0,0.40301204,184.39808,323.51056)"><path
         style="fill:#aa9ab1"
         d="m 927.63972,598.0283 c -11.97564,-1.05376 -8.7645,-14.96269 2.71593,-11.58567 18.8125,-2.8064 37.93372,-4.24789 56.27938,-9.55203 4.70718,-8.73692 23.74237,-0.85332 10.87768,6.03061 -16.85666,9.10464 -36.41908,11.19923 -55.10491,14.00614 -4.90835,0.53361 -9.83456,0.90573 -14.76808,1.10095 z m 7.65965,-0.63767 c 21.24711,-3.02673 43.70745,-4.27631 62.6307,-15.47401 3.86703,-15.64316 -17.74584,-1.17145 -25.35029,-0.99973 -16.39648,3.24677 -33.29905,3.85397 -49.53544,7.71105 -8.74814,5.15378 8.39796,12.01663 12.25503,8.76269 z m -26.45833,-1.07371 c -8.55695,-2.74162 -28.63969,0.4817 -27.38799,-11.37314 15.69149,-8.17281 34.01463,-5.46961 50.89023,-8.772 4.7257,0.31402 23.11826,-2.52787 16.56301,-6.96589 -14.54236,1.17497 -28.95971,3.7507 -43.45974,4.98883 -5.72057,3.35868 -21.92281,-1.28992 -8.90839,-5.75606 6.59235,-3.13252 21.43893,-1.18769 23.04032,-6.29636 -14.96964,-6.52055 -30.2116,-12.66611 -45.72091,-17.68629 -16.38207,-3.97497 -35.55529,-6.9899 -45.98405,-21.75077 -5.38099,-15.41316 12.69986,-7.84407 19.38885,-3.19942 15.02018,6.04635 31.12083,8.9028 46.9539,11.82737 10.75689,-0.54388 -9.7212,-3.43 -13.71661,-4.51913 -16.16291,-3.43986 -34.34081,-6.2083 -46.50827,-18.25847 -7.75909,-14.68218 11.58357,-18.11457 19.20429,-24.65323 13.72162,-6.50107 28.90126,-9.41245 43.51246,-13.41703 22.93533,-5.56766 46.15738,-9.83095 69.20456,-14.89222 5.78823,2.34916 12.34688,-2.81382 3.24971,-3.77056 -22.41731,-5.24739 -45.28406,-8.5232 -67.83386,-12.96044 18.89508,5.23048 38.07705,9.78878 57.54099,12.5097 3.5171,6.484 -12.76933,-0.31041 -17.01997,0.95532 -22.32994,-2.37116 -44.75375,-5.70654 -66.02667,-13.15064 -6.78301,-12.25601 -36.24568,-12.0713 -29.98188,-29.27114 11.87239,-2.08605 23.80911,5.57556 36.26934,4.47538 37.1764,4.25985 74.67521,5.76785 111.6803,11.39127 15.16764,2.98766 30.86724,6.86803 43.65384,15.87793 12.1954,8.3698 -1.4235,33.81888 -10.1288,27.75722 -3.8551,-13.92264 -22.7595,-11.64154 -33.74375,-16.92029 -14.834,-3.98419 -30.00255,-6.50042 -45.11555,-9.15309 16.73078,4.23192 34.4928,5.82961 49.90196,14.02794 11.31354,1.27157 28.05904,11.33968 14.75954,22.49883 -16.74702,16.19995 -40.65434,21.08268 -62.5462,26.36968 -15.14326,3.05911 -30.5215,4.79532 -45.91738,5.94823 1.38042,-11.90338 -7.97447,2.56731 -14.83736,-1.27835 -5.59667,-0.65134 -15.97273,-0.19186 -4.27269,1.22365 46.80145,7.66248 94.78107,1.60441 141.43173,10.35842 14.9288,-0.0343 23.7233,19.1286 8.678,26.32885 -13.0042,3.19485 -21.5571,-11.43177 -33.9683,-12.67384 -7.80139,-1.81793 -1.3352,2.21345 -8.31378,-0.50374 -17.67905,-4.39262 -36.1548,-6.64179 -53.76648,-10.00231 -3.95596,-2.68528 -16.36124,-4.9157 -5.7967,-1.15645 17.12237,6.3552 35.35183,8.5597 53.20496,11.904 4.87499,-2.00369 14.3287,4.2742 4.23481,1.78754 -10.72236,-1.0097 -31.33345,-3.54453 -35.93377,-2.81294 18.96579,4.36193 39.10488,3.65003 57.25276,11.37604 0.4141,8.11483 -25.855,-2.57133 -10.8946,4.14837 10.2956,-0.29661 32.9309,8.34778 18.9896,20.07826 -13.8708,7.49201 -27.51532,-6.94173 -42.00832,-5.6193 -4.19916,-1.10937 -14.89864,-2.99324 -4.65185,-0.29548 14.43661,4.13353 -7.78323,-1.07457 -11.83256,-2.26052 -18.31471,-4.48519 -36.64689,-8.90907 -54.86124,-13.79066 10.91309,3.34995 19.06608,7.93276 30.41401,9.88001 15.08051,3.91907 30.72884,5.65278 45.6682,9.92836 11.05676,9.32959 -11.83249,9.43958 -17.87739,11.04831 -18.21549,3.09263 -37.42109,2.91761 -54.76798,9.56954 -4.05207,2.72203 6.24134,9.30907 -1.90433,6.90071 z m 2.71449,-0.438 c -4.17014,-16.17953 21.18099,-9.62795 30.48131,-13.62369 14.26641,-1.73382 28.83121,-2.78582 42.43791,-7.76368 -9.06426,-11.90959 -26.70333,-6.79666 -38.97983,-13.30345 -11.9893,-2.77033 -24.17578,-4.54494 -35.8826,-8.36766 -14.68717,-0.61844 13.04427,8.31192 2.46254,3.3151 14.15638,2.62269 27.77777,7.47439 41.20471,12.56093 -7.81952,12.55009 -25.93792,5.70488 -38.16649,9.73221 -10.28458,1.91681 -26.85538,0.14297 -32.47302,8.36061 3.66208,11.79997 20.19441,5.68807 28.91547,9.08963 z m 99.59737,-21.26513 c 17.2234,2.20377 15.72,-27.07207 -1.7632,-20.52394 -15.07165,-1.56075 -26.32203,-14.64786 -41.78935,-14.85574 -21.88229,-3.6084 -44.34204,-4.04597 -65.74411,-10.29539 2.64809,-1.49886 18.6284,1.80987 8.96918,-0.63119 19.38389,1.58033 38.52341,5.51365 57.97559,6.35785 -16.24209,-2.66848 -32.46065,-6.46277 -47.46663,-13.38259 0.81209,-7.63054 -17.93818,-6.34881 -25.52663,-7.36618 -17.05565,-1.43178 -34.52293,-3.50672 -50.09495,-11.09858 -6.64938,-13.51916 -16.97856,7.48206 -3.97194,9.85511 16.34939,9.30547 35.08037,13.05408 53.40441,16.19253 5.80851,1.01301 9.63433,5.86863 1.11415,3.57107 -22.26345,-4.10799 -45.63144,-6.95722 -65.24639,-19.17092 -9.14483,15.70317 14.62692,23.31752 26.05672,26.50488 14.8571,2.5033 29.30801,9.61381 42.86352,11.26645 9.07446,-4.31983 -12.41464,-6.30173 -1.67972,-6.04202 -10.3292,-4.74999 9.43909,2.50329 12.68738,3.1647 29.68824,9.01751 60.20214,14.90939 90.71857,20.31917 3.5022,1.51669 5.247,6.23815 9.4934,6.13479 z m -96.49102,-63.61041 c 33.90718,-3.82698 69.08565,-9.64404 97.92382,-29.15565 11.1453,-5.66623 -3.2012,-30.38278 -7.2421,-16.89681 2.2921,15.28114 -17.59316,19.40729 -28.51592,23.42784 -21.97303,6.01758 -46.2325,6.45822 -65.76421,19.32018 -3.89425,3.38393 0.0979,5.71024 3.59841,3.30444 z m -8.06208,-7.20796 c 29.21215,-9.58025 61.54045,-11.34054 87.77912,-28.70705 -12.17826,4.03791 -23.43403,10.6496 -36.19893,12.93149 -16.46516,4.58076 -33.4246,7.29165 -49.6592,12.71439 l -1.20192,1.3637 z m -49.82583,-3.05439 c 9.1709,-7.6981 22.96196,-7.40271 31.79085,-15.0837 -10.15504,4.63988 -25.71419,4.70477 -31.79085,15.0837 z m -2.42321,-2.8818 c 15.37831,-10.9878 34.76758,-13.09014 51.95918,-20.03509 20.72655,-6.14557 42.52246,-9.26013 62.09503,-18.85793 -1.21004,-7.41954 -17.88273,2.31099 -24.85238,1.78564 -31.05927,6.54357 -62.73292,12.08144 -92.05866,24.62833 -5.94244,3.43009 -6.55,14.92801 2.85683,12.47905 z m 51.29722,-18.03701 c 17.8964,-5.17488 36.17798,-8.99731 53.85283,-14.93673 -15.78508,2.06775 -30.41222,9.12507 -46.21125,11.23495 -2.73566,0.76436 -5.43085,1.8795 -7.64158,3.70178 z m 122.41452,-8.26732 c 17.2435,-4.38783 17.7389,-31.84428 -0.3743,-35.39013 -25.4802,-12.08803 -54.32719,-12.11174 -81.79804,-15.52218 -14.52436,-1.24093 -29.06513,-2.36651 -43.53141,-4.19039 15.48105,11.39471 35.49957,12.21482 53.31513,17.72832 4.59962,0.0218 24.37347,6.8332 9.57749,3.92404 -19.84509,-3.76019 -39.73392,-7.7814 -58.83343,-14.47686 -10.80162,-11.06833 -27.77925,-7.378 -41.55849,-10.49929 -6.82728,-2.73742 -27.98658,-6.77367 -16.58734,6.2694 10.59254,10.95288 26.8036,12.55607 40.83585,16.2608 16.61372,3.26454 33.48134,4.98499 50.12879,8.05245 2.50819,-4.19406 17.15481,2.02937 11.67297,-1.60869 25.22436,4.67328 51.21688,8.19414 74.71928,18.94152 3.0845,2.50585 3.0845,6.94565 2.4335,10.51101 z m 23.0546,-23.67329 c -7.9142,-18.0237 -29.5778,-20.54465 -46.6595,-23.49571 -21.31294,-3.18859 -42.86918,-4.90377 -64.15102,-8.07934 -18.81826,-0.27524 -37.41464,-3.83817 -56.21383,-4.46431 -17.92541,-1.90982 -35.896,-4.67694 -53.01009,-10.51624 -10.4221,-5.4656 0.77242,-18.80696 7.75325,-9.04293 3.39314,1.82488 18.60909,4.8911 8.45645,-0.76394 8.01223,-11.13535 23.53233,-9.68089 35.3839,-13.47957 16.01048,-2.86914 32.26969,-4.29109 48.14614,-7.91222 -3.85114,-2.63173 -18.32131,-5.08366 -5.17362,-4.73651 19.27486,0.67504 39.02877,0.51744 57.50317,6.82491 -9.23224,11.03297 -25.3179,7.45774 -37.76257,11.40813 -18.77074,2.90751 -38.35359,3.37327 -55.87238,11.35538 -7.9689,3.74637 -26.83094,0.97571 -28.52204,2.33517 15.91482,6.65122 34.49986,-0.9842 49.71298,7.87905 3.84294,3.65704 21.42345,6.88531 8.49728,1.02172 -5.91926,-3.9655 -24.64466,-5.27831 -22.40988,-11.81685 12.89849,-6.88174 28.19997,-4.42184 42.10578,-7.64644 15.24145,-1.88721 30.48145,-3.78642 45.72826,-5.62999 -14.34309,5.38644 -30.09361,6.14024 -44.94257,8.84764 -8.4201,-0.44974 -16.3086,10.57881 -3.02373,10.33435 36.25862,4.75779 74.26982,-0.25976 109.09602,13.13097 14.0006,2.58173 22.7771,21.20454 12.1035,32.06817 -1.8703,1.57049 -4.3237,2.34568 -6.7455,2.37856 z m 3.5556,-1.22769 c 14.2237,-10.61195 2.9869,-31.52453 -12.1402,-33.90975 -23.061,-8.85806 -48.27893,-7.42148 -72.49016,-9.66322 -19.63847,-0.91797 -39.29331,-1.40519 -58.9444,-1.9602 7.85884,7.04807 20.42914,9.38231 26.11128,9.87779 3.2977,0.69945 7.73925,3.19204 1.63894,1.43678 20.09114,8.38179 42.46346,5.18385 63.36924,9.94458 16.5963,2.44085 34.2246,6.47978 46.6015,18.61721 1.5212,1.65295 2.2046,9.67789 5.8538,5.65681 z M 884.09494,396.32419 c 20.76134,-11.75821 45.56225,-8.88725 68.02293,-14.6467 7.25884,-0.7821 28.09184,-0.97258 23.25407,-11.14727 -16.26968,-4.4236 -33.37201,-4.02329 -50.06427,-4.69735 -5.23916,1.10267 16.181,2.61345 4.11727,5.45994 -26.37091,4.9916 -54.29735,4.89532 -78.87963,16.86711 2.39746,12.70866 21.99504,6.42914 31.75127,8.51401 z m -41.86842,-6.91413 c -18.36097,-1.06279 -2.76446,-22.641 9.10421,-19.88348 30.39459,-9.81218 62.66997,-11.21417 94.36889,-10.90634 4.67496,3.55779 21.03063,-2.15523 7.16821,-2.37337 -19.05254,-2.6894 -38.3061,-3.47335 -57.52081,-3.97957 25.59243,-3.54663 51.70949,-2.24045 77.34975,0.37191 10.70846,2.87009 26.08788,1.3554 32.49803,11.58183 1.5327,14.92694 -18.65459,12.89964 -25.56396,4.49569 -10.6778,-6.29013 -23.93729,-4.01959 -35.85129,-5.8429 -6.8575,-0.32928 -9.23843,-0.6648 -0.972,-1.84855 0.19464,-1.30522 -17.26951,2.28772 -22.96124,2.60634 -23.01182,3.24025 -46.76873,6.32213 -67.74361,16.8821 -3.67934,2.50136 -6.85378,5.65354 -9.87618,8.89634 z m 0.79945,-1.36134 c 8.50871,-14.21883 26.77951,-14.25136 40.78251,-19.19742 20.30245,-4.51985 41.13533,-5.79819 61.56882,-9.55729 -32.71899,-0.60136 -66.0149,1.29385 -97.32244,11.54605 -10.31149,-0.59276 -22.99683,17.95897 -5.02889,17.20866 z m 151.74736,-13.58461 c 15.92447,0.86514 8.65527,-22.18192 -4.58858,-17.9831 -29.10332,-7.34664 -59.55358,-6.60081 -89.26971,-4.8816 2.40072,1.95309 19.80389,0.48544 27.47007,1.56952 11.65568,0.61322 23.32447,1.79683 34.7114,4.43744 -4.84194,3.72133 -19.35061,1.51556 -19.25561,4.95246 14.45145,0.84809 29.51915,1.50978 42.66543,8.24291 -0.19135,4.58159 4.98512,6.226 8.267,3.66237 z"
         id="path49" /><path
         style="fill:#ef4211"
         d="m 927.88524,597.70496 c -14.32422,-3.63619 1.15544,-15.7088 9.42402,-11.62638 15.82166,-2.70785 32.48807,-3.09675 47.55073,-8.62949 6.62231,-6.69569 22.41341,-0.30103 9.62124,6.72909 -15.40151,7.50185 -32.80913,9.3648 -49.52859,12.07721 -5.67369,0.64708 -11.36693,1.1162 -17.0674,1.44957 z m 80.93516,-22.86042 c -10.17384,-11.37947 -27.42611,-8.98651 -40.57379,-14.67191 -19.01973,-4.13341 -38.65993,-8.26651 -55.22351,-19.0292 -7.18553,-12.13714 16.91914,0.64575 22.8781,-0.8907 20.63197,2.82981 41.34856,5.49905 61.48178,10.93484 8.83212,2.87292 32.21462,1.7352 27.28702,15.56887 -3.8392,4.78806 -10.2055,6.46633 -15.8496,8.0881 z m 17.8464,-103.60142 c 6.3194,-14.34614 -11.8073,-22.30356 -22.9767,-24.69923 -30.27157,-8.05041 -60.88614,-14.92676 -90.93801,-23.72947 -6.0154,-1.04539 -10.05591,-8.8073 -0.94835,-5.33771 39.91862,5.10841 81.80994,3.17119 119.31626,19.9108 13.9409,6.73111 14.0768,30.29825 -2.5692,33.59474 z m -146.53305,-74.2311 c -8.51478,-2.22912 -29.95502,2.13922 -29.09722,-8.41045 12.62017,-8.86991 28.83057,-9.10396 43.47982,-12.16606 14.2161,-2.09549 28.54214,-3.7372 42.50282,-7.24712 3.359,16.31113 -20.8901,12.04988 -30.10743,17.86776 -9.00612,3.10174 -17.75617,6.89771 -26.77799,9.95587 z m 108.86128,-21.5402 c -9.04689,-13.66039 -27.69555,-10.35051 -41.75114,-12.68519 -14.2725,-2.11681 26.10087,-3.1694 7.80612,-6.80825 -19.41571,-3.38259 -39.18776,-3.19634 -58.82029,-3.78769 33.48398,-3.43036 67.81217,-2.31137 100.5648,5.49702 12.48618,6.36242 9.84688,17.51546 -7.79949,17.78411 z"
         id="path48" /><path
         style="fill:#b20936"
         d="m 981.99833,564.57291 c -20.38443,-4.52108 -41.18506,-7.38081 -61.11875,-13.76969 4.52385,1.69836 25.81478,5.48379 11.71821,0.92152 -16.20515,-2.67239 -26.11563,-20.62476 -43.33659,-19.71106 -20.45769,-2.70158 -42.00279,-5.7732 -59.72595,-17.07873 12.30297,-0.0648 21.28937,11.18473 33.81035,11.13217 13.3518,3.35415 26.97708,5.44156 40.59643,7.3599 12.17626,-5.4423 24.95723,3.44862 37.59793,2.62907 15.22449,1.90633 30.85355,2.53125 45.3956,7.8785 9.7267,10.76041 -15.10986,-0.60306 -20.27773,0.72512 -18.37066,-2.71148 -36.8377,-4.95343 -54.99322,-8.93202 -1.19403,9.69055 16.72136,12.41594 24.22274,16.08839 17.04348,5.4819 34.65795,8.82951 52.06406,12.90818 -1.97073,0.46858 -3.98061,0.0295 -5.95308,-0.15135 z m -75.26784,-53.02003 c 22.27804,-19.8177 54.36423,-15.60886 80.39734,-26.86089 11.8451,-2.96034 19.18897,-11.11016 18.28677,-22.72136 12.714,-5.14338 15.1279,17.8776 3.1936,21.71777 -17.1672,12.42598 -38.34395,17.69116 -58.73211,22.28873 -14.22892,2.8675 -28.67246,4.56929 -43.1456,5.57575 z m -56.21545,-13.6253 c -8.98039,-14.51027 15.35682,-18.03429 24.98649,-21.35713 30.30389,-8.38023 61.11236,-14.77969 92.00235,-20.57175 -1.168,10.39084 -21.63005,9.03868 -30.18365,13.51751 -23.7285,6.56153 -47.71173,12.67895 -70.72911,21.41704 -5.1622,2.70575 -10.12761,6.30058 -16.07608,6.99433 z m 175.93326,-36.11392 c -22.052,-11.70176 -47.44175,-13.8114 -71.45609,-19.1144 -3.38893,1.18174 -10.65629,-1.56131 -15.13165,0.61721 -19.34449,-2.2595 -38.59567,-5.49632 -57.72283,-9.13058 -12.54848,-3.00954 -25.95,-6.61518 -35.64925,-15.48679 -4.57953,-16.09678 14.67235,-4.45541 22.89869,-5.16038 12.79405,1.27038 26.61354,1.80093 37.42916,9.63821 36.03852,15.15116 76.92922,13.39789 112.51517,29.80358 3.0995,1.9777 8.7759,4.07317 7.1168,8.83315 z M 902.50427,388.55768 c 10.88427,-6.49691 26.3847,-2.80007 34.99894,-13.29839 9.04774,-10.08108 -25.30207,-8.26124 -6.22257,-9.27736 16.35802,0.69926 33.13146,0.57218 48.79672,5.98911 -11.25048,12.13207 -29.67316,8.10122 -44.24641,12.43229 -11.06979,1.66956 -22.15768,3.30713 -33.32668,4.15435 z"
         id="path47" /><path
         style="fill:#44114b"
         d="m 908.31188,595.78474 c -7.39723,-1.46956 -30.64967,-0.64472 -22.514,-12.38789 16.41189,-5.5432 34.09791,-4.56801 51.01924,-7.09327 6.63664,1.72242 25.2817,-7.52805 10.34221,-10.28693 -9.27401,-2.06587 -30.58365,-10.81645 -32.37234,-8.77648 3.93966,4.68304 -18.74286,-6.91591 -4.71564,-4.00699 25.00595,6.59037 50.78126,10.25266 75.3713,18.41832 -11.51527,11.25277 -29.32671,6.60665 -43.66509,10.6464 -9.9995,3.26591 -29.17589,0.20443 -33.45076,9.20009 0.39338,1.33696 3.70438,5.49382 -0.0149,4.28675 z m 32.51349,-40.56058 c -16.65728,-3.34933 -33.199,-7.45233 -49.22546,-13.13598 2.30714,0.81823 10.0067,4.78351 2.66078,2.68293 11.52179,0.29602 7.60418,11.58083 -1.46722,4.75666 -20.15547,-7.42899 -43.74754,-7.74527 -60.79553,-22.05391 -6.504,-6.14134 -1.05888,-16.0145 6.3992,-7.57167 19.49339,8.93902 41.15927,10.51637 62.11937,13.42272 11.91078,6.94483 21.94451,18.01031 36.49148,19.25466 1.39487,0.3757 3.38623,0.99031 3.81738,2.64459 z m 29.24466,-19.97484 c -19.54036,-2.48278 -39.16217,-4.30952 -58.66039,-7.12523 12.05975,3.00091 -20.00079,-1.22418 -4.80786,2.12718 14.24515,3.40266 -8.07813,-0.51326 -12.01097,-1.43106 -19.66393,-3.95697 -40.85637,-7.76772 -56.89671,-20.4633 -6.54229,-9.19114 6.87816,-13.50687 10.60466,-4.48959 15.89368,8.20313 34.1954,7.95004 51.45258,10.73722 11.74886,-2.87324 20.79927,4.97126 28.47848,9.69713 13.51891,5.10922 27.7031,8.12547 41.84021,10.94765 z m 81.73797,-86.99294 c -5.5188,-16.38967 -24.4085,-20.51707 -39.2608,-24.08309 -21.58701,-4.57759 -43.8643,-4.94544 -65.51775,-8.57429 -3.78373,-0.91237 -9.64806,-3.81753 -2.27257,-2.01641 -10.06193,-4.49975 -22.14557,-2.20384 -30.30738,-11.20948 8.91369,-3.32071 22.23732,0.99418 32.8138,0.0424 33.2745,1.06336 67.4702,0.56828 99.323,11.59086 14.5239,5.28225 21.8347,26.29233 5.2217,34.25001 z M 841.38332,388.31874 c -16.8295,-7.43708 6.8085,-22.67599 17.15244,-20.66184 28.52178,-7.39558 58.17607,-8.87937 87.51958,-8.57197 -32.58036,6.07988 -67.19205,6.22164 -97.2222,21.80292 -2.95617,1.95898 -5.12389,4.81121 -7.44982,7.43089 z"
         id="path46" /></g></g></svg>
