<?xml version="1.0" encoding="UTF-8" standalone="no"?>
<!-- Created with Inkscape (http://www.inkscape.org/) -->

<svg
   width="90.183815mm"
   height="100mm"
   viewBox="0 0 90.183812 100"
   version="1.1"
   id="svg1"
   xml:space="preserve"
   xmlns="http://www.w3.org/2000/svg"
   xmlns:svg="http://www.w3.org/2000/svg"><defs
     id="defs1" /><g
     id="layer1"
     transform="translate(-240.24947,-194.82845)"><g
       id="g16"
       transform="matrix(0.37563753,0,0,0.37563753,163.27435,100.63022)"><path
         style="fill:#b3b2b7"
         d="m 369.13315,494.656 c -14.25669,3.16465 -10.16865,-21.57394 -4.85126,-22.57646 -6.93528,12.27536 6.44425,18.08548 14.88163,20.39432 -3.11804,1.49793 -6.53371,2.68466 -10.03037,2.18214 z M 283.1778,479.67004 c -9.91645,-1.4556 -21.39727,-0.97701 -30.00132,-5.9829 28.15127,2.38392 59.93491,-16.71924 63.12373,-46.42911 0.85427,-24.34664 -16.03014,-44.03709 -26.09577,-64.87043 -12.45459,-22.45904 -12.79876,-52.62769 4.3074,-72.85106 15.68431,-19.94658 41.4574,-29.74745 66.44254,-28.94568 5.91323,-0.53496 21.89852,0.84197 21.39236,2.91125 -17.28568,0.95 -37.33929,15.58922 -33.36148,34.7397 1.59287,5.66592 2.51469,17.72337 4.05781,4.62077 1.28083,-9.2179 3.97987,-19.05977 12.49747,-24.03039 -9.16832,10.53471 -12.52439,23.6111 -11.87334,37.26129 -0.22151,15.37255 2.54769,30.57029 5.37523,45.61863 12.86155,20.52029 13.81138,47.51408 3.38255,69.24168 -4.64441,24.2104 -25.81537,43.63304 -50.21839,46.66487 -9.53111,1.96425 -19.31972,2.52407 -29.02879,2.05138 z m 37.91263,-16.77853 c 18.51835,-14.01263 -24.59857,-14.98495 -6.03891,-0.23483 1.99617,0.94069 3.95684,0.6765 6.03891,0.23483 z m 17.26355,-52.26615 c 14.66977,-1.28892 11.2677,-22.94105 -0.65989,-25.92737 -14.22124,-3.12651 -20.0429,19.6534 -7.66967,25.6785 2.56799,1.32528 5.66921,1.25777 8.32956,0.24887 z m -18.39909,-51.84527 c 16.93541,6.76258 32.97503,-18.88972 19.42228,-31.03948 -8.52242,-8.33081 -23.75161,-7.10447 -29.68374,3.62703 -7.31417,10.25013 -1.82278,24.48106 10.26146,27.41245 z m 6.34999,-67.35724 c 14.45883,-9.23243 -17.80217,-14.72069 -6.4003,-1.50985 1.34428,2.22277 4.21785,2.25816 6.4003,1.50985 z m 100.8409,174.40505 c 17.7151,-23.86314 15.40986,-56.0114 7.68803,-83.0531 -1.27087,-5.46853 -15.53923,-20.46631 -10.72312,-19.8308 23.15037,25.10469 28.39758,65.95522 8.95486,94.76618 -1.78581,2.83607 -3.75932,5.55504 -5.91977,8.11772 z M 268.09655,411.47159 c -15.02254,2.75079 -6.7715,-28.0534 1.17146,-10.24901 9.48385,14.38505 16.54953,-9.55114 2.96429,-10.15421 -9.69541,-4.74512 10.00756,-0.32349 10.11135,5.92639 5.15955,8.26298 -6.20074,17.89261 -14.2471,14.47683 z m 144.72708,-58.61951 c -14.9138,-9.73594 -30.97211,-17.59496 -47.38219,-24.45977 -2.35364,-5.43344 4.17224,-7.39878 -3.28487,-4.04519 2.58463,-15.67161 22.11298,-18.01499 34.35635,-22.94339 11.46461,-2.04171 24.0676,-0.12487 34.43819,4.92922 -17.37362,-4.88246 -39.11573,-4.87383 -54.5265,6.89329 -11.75265,6.47269 -11.38293,16.07782 1.72751,19.38221 11.89159,6.08545 24.90504,10.78632 34.67151,20.24363 z m -164.17395,-2.78012 c -14.19861,-0.85393 -11.11082,-19.56495 -0.47597,-23.46362 12.47341,-6.72819 21.01418,14.41048 10.88504,21.43965 -2.81796,2.41863 -6.88729,3.28917 -10.40907,2.02397 z m 6.94846,-2.14559 c 18.58436,-8.19975 -15.10938,-25.38483 -11.1737,-7.0381 0.91846,5.02232 6.14772,8.68856 11.1737,7.0381 z"
         id="path21" /><path
         style="fill:#df857c"
         d="m 270.6083,464.19046 c 6.41684,-13.28176 29.19864,-7.28284 31.32015,-24.40148 8.79151,-12.60795 -1.7273,-27.01591 -5.78117,-39.33715 -4.8782,-7.15712 3.14703,-21.82627 6.92436,-8.04756 10.76605,19.30054 9.82648,45.99421 -7.20461,61.48122 -6.79663,5.76334 -15.85645,12.17958 -25.25873,10.30497 z m 129.64762,-47.05949 c 17.72648,-2.30769 13.32856,-27.98327 9.57145,-34.03821 15.80962,6.78079 7.54557,36.60967 -9.57145,34.03821 z M 256.4249,412.29853 c -19.6323,-24.32155 -36.37007,-55.96402 -29.11639,-88.09685 11.63236,-44.17464 57.41311,-72.90005 101.69965,-73.43271 6.50467,0.20092 18.33398,-0.079 21.26282,4.69773 -11.85528,1.68826 -23.33873,6.29726 -35.62172,5.90974 -19.49722,-0.15687 -39.68975,4.45611 -54.62184,17.67674 -23.85298,19.41996 -34.70913,53.22628 -25.50727,82.75189 4.34521,15.21485 13.79281,28.3142 24.00679,40.14611 -2.60982,4.15268 -8.85115,3.55079 -2.10183,9.47076 0.62931,0.94698 1.53332,2.17975 -2.1e-4,0.87659 z M 268.75801,297.3872 c -13.63999,6.92376 -8.74403,-21.75818 -0.62407,-8.47981 4.26497,9.91212 20.37106,-11.11956 23.17169,-4.7685 -5.22541,7.1123 -12.94122,14.56033 -22.54762,13.24831 z"
         id="path20" /><path
         style="fill:#d64d11"
         d="m 250.74632,497.81976 c -17.91899,-8.31711 14.92106,-23.37709 10.52375,-5.93998 -0.9611,4.65022 -5.95961,7.86628 -10.52375,5.93998 z m 65.5044,-34.62852 c -17.95177,-7.27579 15.8201,-23.49803 9.03037,-4.25179 -1.66269,3.15998 -5.50624,5.10119 -9.03037,4.25179 z m -34.87851,-7.92806 c 13.91476,-5.83392 23.23727,-28.20818 3.75597,-33.11065 -15.82041,-6.57401 4.33119,-21.1966 -6.26018,-29.54393 -10.90658,-5.75068 -29.74885,0.52247 -32.52117,-16.39803 -15.7352,-23.15073 -15.42755,-55.80309 1.85767,-78.0746 8.63716,-15.63659 20.1018,7.00162 31.94981,-3.2154 9.34248,-0.89397 -4.88289,12.98155 -2.45524,18.51431 -3.49113,21.4448 4.43925,43.00077 15.75991,60.92978 2.65226,15.5149 1.93014,32.38761 10.75117,46.12913 2.43853,12.81288 -3.51807,27.92377 -15.19811,34.27024 -2.38129,1.04247 -5.14431,1.30736 -7.63983,0.49915 z M 257.11635,349.69613 c 13.38643,-5.78436 3.68753,-25.37157 -8.6436,-24.23992 -13.91643,1.73315 -12.56109,24.02078 0.93683,25.60426 2.62542,0.49279 5.39994,-0.0314 7.70677,-1.36434 z m 143.53645,68.98571 c -17.61675,0.38987 -22.11019,-26.94882 -7.35441,-34.466 11.60491,-7.10986 23.85395,6.90677 20.98751,18.48829 2.05619,5.71171 -17.33092,17.9386 -4.84525,11.72574 11.98994,-5.76144 8.3914,-19.76548 7.24717,-28.44142 14.3908,9.40216 6.21008,32.27033 -10.34733,32.76762 -1.88897,0.23475 -3.80783,0.21461 -5.68769,-0.0742 z m -28.75643,-61.8323 c -20.18761,-11.32352 21.55094,-23.81576 10.12871,-3.11704 -2.34318,2.92828 -6.53129,4.33389 -10.12871,3.11704 z m -97.651,-70.06241 c -15.1603,5.62003 -13.56593,-18.3527 -5.8e-4,-16.62485 12.16475,-6.56259 26.75199,-10.15967 40.5166,-8.11145 2.835,3.64117 -12.53348,8.37028 -15.81141,14.07247 -6.82763,5.89953 -15.0763,12.24962 -24.70461,10.66383 z"
         id="path19" /><path
         style="fill:#5f3260"
         d="m 305.4486,516.84022 c -39.12174,-1.92586 -80.9158,-19.10263 -100.52998,-54.81048 0.89981,-16.82779 18.14541,0.16672 25.19556,4.13101 28.35105,13.37274 62.072,18.62997 92.40976,8.44147 18.10933,-5.91132 34.31368,-18.07852 43.99945,-34.57733 1.59125,10.49156 15.14674,16.23723 24.64916,8.89144 11.9031,-4.88092 11.59838,-20.25938 -0.4824,-24.42907 -8.56343,-12.33897 11.9855,-6.66507 16.54433,-5.80909 7.4272,-8.60388 28.53316,-10.14387 20.73573,5.99679 -9.25743,6.26604 -25.42827,18.08068 -6.81927,24.62694 12.0978,-1.3702 9.08798,-22.83989 11.91374,-32.48783 -0.3692,-13.96225 0.55746,-31.46158 -12.04768,-40.6393 -8.02182,9.00582 -22.0501,-0.18962 -25.04197,-11.30739 -2.72483,-8.01237 2.3191,-13.33772 -4.71965,-19.5524 -4.49579,-12.57404 14.54072,3.77845 19.48579,6.06853 17.87069,13.11967 26.53761,34.81509 29.23805,56.20748 4.44208,24.19782 -3.8268,49.44694 -20.55149,67.24734 -27.27568,29.35328 -68.65581,41.84548 -107.86139,42.14472 -2.03989,-0.0105 -4.07959,-0.0581 -6.11774,-0.14283 z m -12.7458,-7.69699 c 19.04521,-9.80178 -16.38188,-23.90491 -13.00212,-7.2556 2.76273,4.85715 6.64283,9.67124 13.00212,7.2556 z m -36.36119,-11.23692 c 17.57718,-7.70007 -15.29177,-25.13526 -10.44266,-6.09422 0.68637,4.54332 6.09772,8.06012 10.44266,6.09422 z m 119.15945,-3.52102 c 9.28545,-7.73363 17.71871,-23.99301 20.49241,-32.01904 -9.33143,1.1234 -16.76584,14.06566 -26.64487,6.03158 -17.8307,2.7261 -11.68091,32.3793 6.15246,25.98746 z m -43.81113,-83.53157 c -18.25402,-2.18156 -3.64405,-33.8799 8.91644,-20.36409 6.6428,7.56294 2.79401,22.23029 -8.91644,20.36409 z m -13.2564,-52.21376 c -16.41191,-4.8227 -15.9895,-35.48311 3.29875,-34.11205 16.54987,1.2226 21.29996,30.11006 3.93469,33.99245 -2.38029,0.52143 -4.83529,0.47284 -7.23344,0.1196 z m 53.58672,-26.99605 c -13.40115,1.36524 -21.79973,-13.14911 -19.28936,-25.14037 2.52175,-12.56425 7.60011,-26.39175 20.29805,-31.91271 19.32151,-9.53593 42.83088,0.0903 56.42742,15.10144 4.66377,5.56696 12.2941,17.5138 11.77757,21.03748 -15.53672,-8.4607 -34.45433,-14.10115 -51.68984,-7.40683 -10.11764,3.89918 -22.75953,8.26506 -27.62942,18.53895 2.23965,5.22181 7.77452,-5.08303 2.63934,3.7586 -1.30817,5.68575 6.34006,2.21857 7.46624,6.02344 z m 12.51963,-36.54264 c 16.32827,-10.1129 -19.59561,-13.23963 -2.91056,0.13074 l 1.45875,0.19736 z"
         id="path18" /><path
         style="fill:#9d0924"
         d="m 384.68242,476.32123 c -9.64929,-12.30651 23.10929,-19.73113 8.92077,-5.78024 -2.56217,2.4965 -5.67013,4.33194 -8.92077,5.78024 z M 276.94598,452.51954 c 5.89555,-12.29694 -5.74892,-22.7418 -13.44611,-30.75954 -6.68927,-4.16679 -13.93295,-22.98298 0.27179,-13.81639 9.64003,7.49249 24.20678,8.91369 30.14081,20.64905 8.35344,13.64866 -5.89001,24.77364 -18.52545,25.77141 z m 145.69476,-0.40022 c -7.98134,-4.25878 -17.07583,-20.27759 -1.58753,-20.33862 12.38213,-11.44276 6.14411,-30.79081 -2.63439,-42.45344 -14.73795,-6.73907 9.04932,-21.1642 9.65176,-7.21711 1.58032,11.07385 6.46092,22.40737 5.3444,34.14756 -0.47511,12.04235 -3.42387,24.40251 -9.58206,34.76634 z m -46.5822,0.17897 c -10.69225,-5.25127 -7.6888,-18.55416 -4.26332,-27.43134 5.11239,-11.33872 2.28655,-23.56264 -0.94177,-34.94208 -5.73853,-19.07606 -17.4335,-37.15459 -15.9262,-57.78414 9.92279,-9.56862 25.08349,2.60802 33.3878,9.47329 9.02924,5.34182 7.04636,17.37751 -3.52157,18.82929 -3.25551,16.03686 18.27178,1.98133 20.29791,15.88153 2.12458,12.08966 -25.96426,7.01381 -21.07633,23.41981 -1.29736,15.45082 13.62398,25.59903 16.2095,39.89321 -5.22757,7.9026 -14.60585,13.1465 -24.16602,12.66043 z m 2.43007,-95.83269 c 19.00775,-12.22008 -22.72368,-22.2683 -10.73154,-2.55663 2.46699,3.08092 7.14389,4.47143 10.73154,2.55663 z m -41.19413,53.41235 c 16.12126,-3.86878 -1.58189,-22.15086 -3.00784,-24.64961 15.3124,-1.86305 20.54533,24.74453 3.00784,24.64961 z m -80.74026,-11.07964 c -30.74944,-29.05005 -34.4783,-84.3331 -2.81684,-114.12156 12.99829,-8.83647 -1.60546,10.58218 -5.17929,14.56537 -20.27974,22.35313 -16.59634,57.94186 0.37432,81.11229 1.77931,4.80052 18.399,16.05443 7.62181,18.4439 z m 71.62929,-40.85781 c 13.1221,-5.10953 8.2382,-22.04873 1.0775,-30.27271 -13.21838,-10.34427 11.52928,-3.69146 12.58767,4.80778 6.71104,10.23501 -1.01871,26.97633 -13.66517,25.46493 z m -6.77342,-66.72939 c -13.80753,-9.85085 18.04083,-13.37317 6.29469,-1.24009 -1.44525,2.01587 -4.18839,1.89637 -6.29469,1.24009 z"
         id="path17" /></g></g></svg>
