<?xml version="1.0" encoding="UTF-8" standalone="no"?>
<!-- Created with Inkscape (http://www.inkscape.org/) -->

<svg
   width="96.242348mm"
   height="100mm"
   viewBox="0 0 96.242347 100"
   version="1.1"
   id="svg1"
   xml:space="preserve"
   xmlns="http://www.w3.org/2000/svg"
   xmlns:svg="http://www.w3.org/2000/svg"><defs
     id="defs1" /><g
     id="layer1"
     transform="translate(-327.8072,-108.37579)"><g
       id="g8"
       transform="matrix(0.39666881,0,0,0.39666881,174.65331,98.832244)"><path
         style="fill:#aaa9ad"
         d="m 489.83008,244.15156 c -2.19061,-0.46066 -13.21646,-0.66701 -5.36863,-0.87505 -15.26417,-0.39678 -30.60563,-0.99478 -45.80668,0.83091 -16.19283,-2.05102 -1.95895,-22.95435 -13.33956,-29.88256 -4.16322,-3.57774 -15.50204,-0.70257 -4.64001,-0.91444 4.60171,-4.18946 1.305,-16.984 4.09201,-15.59386 0.59205,-20.56706 -0.18943,-41.14604 -1.43677,-61.67507 -10.76832,1.57907 -5.47355,-20.94162 -9.92304,-19.16099 20.14262,2.74278 4.64552,-25.558572 16.22012,-29.949801 10.34537,1.116721 22.72386,-1.721339 17.94777,-14.837216 -0.17168,-7.561739 -0.12223,21.847726 1.69254,6.952663 -0.91075,14.821795 1.22639,30.015784 -1.79769,44.570654 -4.03005,12.9309 -2.12826,-18.62401 -6.12388,-6.18827 4.00077,10.90051 -1.96903,22.77767 -10.01603,28.22109 -1.13932,19.2498 0.28556,38.52453 -0.0926,57.7858 1.20793,-16.28715 0.65107,-32.66946 0.35466,-48.96955 -0.40621,-19.43107 25.49731,-8.38728 18.85872,6.82862 -3.16977,10.38764 -0.6806,21.79616 -1.33559,32.62737 2.2727,9.15536 -4.75553,23.90644 4.85715,28.94872 4.33978,1.06438 24.25706,0.10823 9.70588,1.17444 -6.39301,-0.0936 -10.40772,1.53108 -1.32073,1.14139 22.05818,-0.19655 44.06895,-2.90694 66.14081,-1.83501 7.34056,12.57811 -7.88654,24.1189 -19.84934,22.13122 -6.27459,-2.00965 -12.2946,-1.73197 -18.81915,-1.33106 z M 603.6009,190.10784 c -16.89565,5.72817 -11.53711,-25.29574 3.2537,-16.18536 10.19647,-10.17692 0.88041,-27.10743 3.55804,-40.08975 0.0325,-6.0222 -1.34547,-13.84312 -1.35889,-2.98064 -0.41049,5.53251 1.66216,25.15263 -0.94756,22.77662 3.85261,-11.76211 0.10593,-31.27774 -8.00035,-32.02141 -13.4754,3.17568 -13.12718,-19.1349 -1.01153,-18.86545 10.70628,0.9873 32.38844,-1.85124 28.63098,16.294 0.97827,16.32798 0.39774,32.66027 0.1475,48.95094 2.95648,11.14806 -1.60528,28.09971 -16.19278,21.61409 -2.6826,-0.38476 -5.49522,-0.42085 -8.07911,0.50696 z M 582.43019,88.360023 c -8.42933,-13.305655 -25.00842,-2.988257 -37.22871,-5.263161 -5.98248,-0.09471 -23.76023,-1.837114 -22.44678,0.132307 11.96433,0.889212 19.52555,-13.710965 32.38699,-9.55646 4.8179,-0.194554 16.23837,1.195089 4.79645,1.39748 -11.89713,1.028006 9.47771,-0.311725 13.29348,-0.352697 10.27887,-5.02408 21.31552,14.721103 10.44723,18.992705 L 582.9233,91.066679 Z M 511.57766,76.405732 c 10.44385,-6.787207 0.66167,-25.412705 -1.7429,-25.239016 8.31353,-1.493189 16.6781,-0.31872 13.62077,-2.829634 11.19461,-1.478825 28.59586,5.852546 28.05366,-12.320144 0.0331,-15.030874 -4.90608,8.404754 2.69677,10.636484 6.87244,7.338678 25.17828,-0.454683 19.93692,15.679922 -7.56179,15.7973 -24.58616,3.958383 -37.28309,5.721627 -8.06472,1.228669 -11.4985,9.002682 -20.66214,5.331117 -1.8934,0.08226 -4.0397,1.026328 -4.61999,3.019644 z"
         id="path13" /><path
         style="fill:#e95116"
         d="m 506.62707,275.99966 c 22.41162,-1.64235 44.90999,-0.44591 67.33645,-1.71238 -28.38283,-0.17073 -56.76038,0.54521 -85.14148,0.70426 -1.89733,-8.92283 -3.72051,-35.42273 11.2147,-26.85529 8.54334,11.29413 23.46188,4.32856 35.12864,4.91779 16.37439,2.13517 -6.7476,2.62569 -12.38216,1.71605 -6.45135,-1.12332 -26.11675,1.11488 -9.00426,1.76639 14.13403,-1.76343 30.21998,2.07784 43.08892,-0.99656 3.46388,-2.95544 1.84555,-19.17159 2.90371,-7.57279 3.37837,-9.59078 0.48843,-31.3563 18.18257,-23.23023 7.96861,2.20204 2.42415,23.92058 4.87233,19.76318 -0.16473,-4.27516 1.34898,-16.69306 0.90453,-5.96409 -1.64675,11.36098 4.14737,23.7005 -1.71016,34.32103 -10.4987,6.39258 -24.6378,1.19864 -36.61663,3.01657 -12.92545,0.0951 -25.85131,0.17089 -38.77716,0.12607 z m -88.98842,-64.51535 c -0.7372,-24.88029 -0.56743,-49.77547 -0.31104,-74.66185 2.02216,12.33538 -0.81333,25.14287 2.02549,37.30551 1.3021,-9.65302 -3.45668,-30.9477 3.02715,-32.96882 5.15916,14.01433 -0.10543,29.15271 2.64909,43.54888 -0.61153,7.73119 0.91088,18.24438 -2.26983,11.92397 -0.96018,4.57192 4.62074,17.94487 -5.12086,14.85231 z m 13.57727,-4.17598 c -0.42365,-22.48726 -0.19044,-44.97923 -0.26,-67.46875 17.18717,6.54589 5.72869,-25.93226 13.64978,-23.3414 0.0204,6.01814 -0.0744,11.10342 3.54295,9.15932 5.61012,10.98543 -4.94511,20.47993 -13.95203,21.65828 -6.43243,13.26314 0.11096,28.37394 -2.33513,42.43831 -0.0174,5.8561 -0.16095,11.7163 -0.64557,17.55424 z m 55.83198,-32.64355 c -7.31149,-8.16462 0.39463,-30.99138 -3.03031,-32.12954 0.13736,5.72302 -1.17372,26.26739 -0.87627,10.38496 0.2416,-13.38541 0.0786,-26.91527 2.92283,-40.07089 22.42063,-0.0438 44.84125,-0.0876 67.26188,-0.13147 0.18638,19.29673 -0.36849,38.58924 -0.77805,57.87958 -19.24591,2.55027 -13.80256,-23.4308 -11.19359,-34.74114 -2.77805,-8.84039 -27.64882,-5.17942 -9.15413,-6.76874 -8.1773,0.0769 -20.79006,-2.27174 -29.23643,1.56464 -11.37272,12.29737 3.344,30.91146 -7.31416,43.70089 -2.59255,1.85325 -5.79096,-0.65716 -8.60177,0.31171 z M 425.89113,74.818232 c 0.9805,-15.921524 -1.76863,-32.269815 2.8871,-47.815127 16.68463,-4.75602 34.07798,0.565346 51.01222,-1.907677 21.61697,-0.221055 43.24765,-0.007 64.84798,-1.036212 15.16205,6.57992 4.61761,31.537455 -10.73735,23.959563 -27.69863,0.387822 -55.38933,1.198707 -83.08769,1.601611 5.34921,3.156577 17.18852,0.884849 5.05088,1.53276 -15.95596,3.625337 -3.63856,23.036992 -10.11932,32.936739 -5.3514,6.595057 -21.68641,3.410673 -18.26069,-6.890037 0.11518,11.594469 -3.53604,3.534335 -1.59313,-2.38162 z"
         id="path12" /><path
         style="fill:#b71b57"
         d="m 562.47271,217.47626 c -8.84033,-2.24914 23.73105,-2.70112 4.90359,-3.29425 -26.70674,0.50481 -53.41958,0.48684 -80.12996,0.44265 13.38191,-1.73363 14.04702,-25.4815 31.01742,-18.0601 14.19173,2.25271 28.36895,0.35648 42.58365,0.44491 12.26356,0.6286 33.17972,4.49656 27.37249,-14.12061 -0.0558,-30.18084 0.2133,-60.3675 -0.55974,-90.541973 5.2834,0 10.56679,0 15.85019,0 6.13455,13.134413 -24.88152,10.542603 -12.73264,24.840463 5.6176,5.92487 18.72091,8.03582 12.53902,19.24037 -1.05263,11.22482 1.38338,22.63656 -0.40748,33.75236 -9.96232,4.00047 -16.98641,17.32135 -3.04277,21.84858 3.69872,4.67169 0.88926,17.65063 1.89533,5.21388 3.07423,-6.24716 4.81411,13.46002 0.28745,16.29591 -7.87125,9.70764 -20.62956,1.99484 -30.97085,3.79279 -2.86839,0.0566 -5.73646,0.14701 -8.6057,0.14502 z m -54.464,-48.13892 c -8.2276,-1.38457 -2.37809,-27.13278 -2.36718,-11.99042 -2.70075,-13.12046 6.90419,-26.84437 21.19875,-22.63807 9.09089,-2.07195 13.0084,16.2371 11.23698,12.92451 2.96465,7.13997 0.44611,22.19225 -7.05522,21.78542 -7.66722,0.42381 -15.34327,-0.0139 -23.01333,-0.0814 z M 464.42603,71.320241 c 4.89347,-17.428201 25.83537,-3.297616 37.11421,-10.478399 13.69945,-6.399711 20.85722,16.920253 4.51999,17.433519 -13.2658,2.312815 -30.93871,2.577293 -41.90403,-3.156834 L 464.018,73.1801 Z"
         id="path11" /><path
         style="fill:#603164"
         d="m 486.65103,212.44013 c -12.23589,-0.84599 -0.79851,0.21601 4.68703,-1.02743 -10.80022,-4.56988 -27.4638,7.92732 -33.06715,-6.37826 -2.61854,-13.58416 0.1986,-27.54723 -0.48058,-41.30222 0.17621,-14.4364 0.37952,-28.87277 0.43288,-43.31031 -1.62023,18.25082 -1.34749,36.60135 -2.63592,54.87184 0.46814,-28.73187 0.35392,-57.46896 0.68286,-86.202228 -2.00494,6.264852 2.72289,17.426438 0.54517,4.776067 -0.13642,-16.603759 21.38683,-11.063838 32.00788,-11.121869 -0.89097,-1.12164 -23.56859,0.365038 -24.96309,-0.862456 39.05057,-0.250627 78.10414,1.414705 117.14978,0.248236 3.37276,18.44859 -0.0285,37.27155 1.81554,55.85234 0.36936,18.57639 0.80371,37.15516 0.66282,55.73657 -10.31699,-0.12756 -31.24597,1.42242 -34.85914,-0.0274 16.29303,-2.78068 -10.70859,-1.5819 -15.5592,-1.80795 -15.06753,0.002 -30.13495,0.0686 -45.20247,0.0778 -5.13464,-18.55781 20.04332,-17.31653 31.65284,-15.40473 5.53952,-0.46493 24.65286,0.0105 8.63013,0.40416 -5.91068,-0.2556 -19.97576,0.8411 -6.66749,0.8525 12.62498,0.22463 25.25602,-10e-4 37.8691,-0.57887 0.64917,-23.39606 0.32678,-46.80298 0.456,-70.2043 -16.6175,-0.80609 -33.25741,0.0639 -49.88087,-0.43987 16.66559,-0.93296 33.36781,-0.64011 50.04374,-0.18298 -17.6022,-6.741252 -36.56031,-0.54698 -54.75217,-2.24495 -5.68986,0.37906 -22.97392,-0.90806 -21.59522,1.47229 14.1476,1.27046 -10.43152,-3.02638 -8.12705,7.41319 -2.66253,5.64625 1.08841,29.28315 0.90548,12.69073 -0.31389,-3.88443 1.20503,-15.58874 0.70551,-5.49727 -0.72777,24.71326 -2.00332,49.43764 -1.23421,74.1665 3.68319,-0.19379 14.73217,0.6974 5.38642,0.79156 14.34551,-8.33662 27.91005,17.73864 8.57117,18.30363 l -1.64103,-0.37816 -1.53876,-0.68617 z m 75.28449,-39.59378 c 0.16305,-17.31162 -0.0268,-34.6322 -0.90497,-51.92447 -0.87179,18.77272 -0.63862,37.57072 -0.90442,56.35624 2.75421,0.94724 1.33356,-3.14694 1.80939,-4.43177 z"
         id="path10" /><path
         style="fill:#ba181a"
         d="m 501.86457,244.74889 c 13.15948,1.73897 31.12659,-1.92712 27.85978,-18.16549 9.89452,-16.06033 36.86537,8.10727 16.70118,15.2656 -4.75109,1.21428 -13.24296,1.28023 -3.33197,1.53738 7.51858,2.33705 -10.70207,1.09949 -13.65293,1.53633 -9.19172,0.12729 -18.38781,0.14681 -27.57606,-0.17382 z m -115.3729,-35.12546 c 0.0587,-10.77842 -1.25924,-21.82079 0.63651,-32.44937 -0.99703,5.38432 1.82104,15.32597 1.53369,4.23476 0.89558,-21.80204 0.53981,-43.6265 0.6225,-65.44001 10.13986,-1.52582 30.55988,-5.26216 28.31621,11.34363 -7.29125,9.74809 -15.66541,18.81354 -11.18083,31.90692 0.15012,7.586 -2.26468,24.79517 0.33847,26.72575 1.66233,-6.5271 -0.41255,-26.0211 1.48649,-24.50316 -1.17581,12.65797 -3.58265,28.96154 8.45153,36.13627 2.03815,7.32133 3.79414,17.97885 -7.20928,14.32427 -7.64083,0.43244 -16.17417,2.33055 -22.99529,-2.27906 z M 526.86769,70.876283 c 2.99257,-10.907573 22.09303,5.145617 6.75126,2.561072 -2.20793,0.540202 -7.6038,1.463898 -6.75126,-2.561072 z"
         id="path9" /></g></g></svg>
