<?xml version="1.0" encoding="UTF-8" standalone="no"?>
<!-- Created with Inkscape (http://www.inkscape.org/) -->

<svg
   width="98.500633mm"
   height="100mm"
   viewBox="0 0 98.50063 100"
   version="1.1"
   id="svg1"
   xml:space="preserve"
   xmlns="http://www.w3.org/2000/svg"
   xmlns:svg="http://www.w3.org/2000/svg"><defs
     id="defs1" /><g
     id="layer1"
     transform="translate(-514.96016,-184.06846)"><g
       id="g38"
       transform="matrix(0.40372542,0,0,0.40372542,392.04711,42.595846)"><path
         style="fill:#a19da8"
         d="m 362.61147,570.5124 c -3.85716,-13.92697 25.96653,-11.23347 34.10933,-21.40516 24.00092,-14.69185 44.67298,-34.10582 66.35205,-51.84636 6.34114,-7.10704 20.50208,-20.8542 27.82354,-16.13218 -4.82621,18.51039 15.29614,-14.86663 18.91469,-21.48274 3.42232,-16.08063 11.3378,-29.57836 21.73521,-42.08653 7.30997,-7.76322 -7.12391,-25.47098 -6.98592,-8.01585 1.11092,8.43366 -10.82295,38.48579 -18.25927,20.80848 9.80986,-4.7424 21.96252,-34.29872 2.68289,-26.15152 -1.70337,10.56932 -13.10475,30.35061 -17.69715,10.86537 11.85932,-10.96578 33.9563,-17.41825 24.42116,-37.93429 2.27968,-5.00746 17.46501,16.77341 17.29563,26.2567 6.44386,15.48589 -7.49048,28.09577 -12.17204,41.91195 -2.64857,6.90297 -5.6325,-7.02579 -5.81989,6.47688 -8.31363,21.19827 -21.69804,40.50985 -35.54723,58.55374 -24.02504,22.89763 -47.95704,49.75441 -82.05434,56.70883 -11.34562,2.84697 -23.11027,4.1028 -34.79866,3.47268 z m 16.50938,-40.32283 c -11.1008,-1.37503 -11.54442,-10.28033 0.24699,-3.15212 6.2002,0.63225 9.06938,4.84503 0.0701,3.17212 z m 62.9989,-20.15295 c 3.85267,-7.9766 27.57883,-31.95975 9.07399,-22.29473 -1.39189,-8.97639 2.04515,-17.73161 10.25607,-7.98082 25.37995,0.54185 -2.90137,17.32707 -10.04666,24.96392 -2.86277,2.13557 -5.94228,4.02146 -9.2834,5.31163 z M 311.94617,476.10671 c 7.15215,-15.16016 21.6884,-24.99058 30.86622,-38.83413 22.07142,-27.41144 46.60626,-53.83056 78.06214,-70.51934 12.22318,-7.05818 32.03287,-22.2211 43.98917,-12.87202 -10.78865,12.39447 -30.00963,17.12702 -43.36629,28.10159 -7.49006,3.85749 -12.83456,13.12739 -14.38456,1.76784 -7.78975,-3.65319 -14.89273,9.16527 -4.16929,9.89055 -12.88349,14.82477 -29.53352,26.46132 -42.27652,41.78502 -14.58565,14.59046 -28.09664,31.90389 -46.80679,41.08991 z m 129.64342,-24.0128 c -14.45847,-14.31688 8.5789,-29.67465 13.60557,-43.29354 4.57869,-10.33454 20.92103,-17.21693 24.97236,-22.56126 -26.79282,5.10902 33.9477,-23.48492 14.42717,-5.65939 -9.80814,10.08177 -4.98679,23.40015 0.86608,29.55983 -14.01392,14.29219 -42.57529,6.2222 -49.32084,30.67556 -3.28523,1.11811 -0.96689,18.58971 -4.55034,11.2788 z"
         id="path41" /><path
         style="fill:#d1490b"
         d="m 455.67138,597.53255 c 8.91811,-13.72103 26.66215,-17.69156 36.56781,-30.74639 18.25182,-17.26349 32.73357,-37.91513 48.75702,-57.14626 17.6862,-3.66672 -6.90473,24.20489 -11.38671,30.5946 -18.69848,24.08813 -41.06691,47.98827 -70.68885,57.87649 z m -70.43803,-76.75867 c -24.2587,-1.78269 -39.68394,-31.14768 -27.77842,-52.29418 11.37539,-27.5023 52.35807,-40.80545 74.00037,-17.28664 17.1669,18.0536 8.85793,47.88918 -11.02306,60.21246 -10.09548,7.18416 -22.81778,10.96472 -35.19889,9.36836 z m -14.26919,-16.49146 c 5.39366,-20.22208 -22.44614,6.87053 0,0 z m 19.02573,-14.4945 c 11.49413,-12.41546 -19.5097,-5.30467 -2.89681,0.85755 l 1.52779,-0.0466 z m -25.33907,-6.6239 c 11.27605,-14.33826 -19.39115,-2.1526 0,0 z m 6.47624,-18.86514 c 14.81851,-5.3682 -13.49224,-15.32993 -2.70996,-0.38419 l 1.29856,0.49334 z m 14.93306,-0.72685 c 11.72665,-14.88408 -20.2311,-1.49666 0,0 z m -75.89708,-8.0868 c -3.04086,-17.77968 17.51411,-27.10215 22.59097,-42.65595 18.56257,-30.48288 48.67752,-54.53055 83.76934,-62.41139 18.68989,2.15514 -7.91627,15.62308 -14.29605,19.49732 -32.8373,20.96903 -53.90712,54.73689 -81.59483,81.28217 -2.96829,2.37019 -6.56457,4.28599 -10.46943,4.28785 z m 92.68872,-40.91575 c -16.1029,-9.17756 19.20337,-16.81795 5.17513,-0.76617 l -2.51244,0.91529 z"
         id="path40" /><path
         style="fill:#a91e3b"
         d="m 416.04926,592.02174 c -17.98819,-11.79799 6.8957,-24.76432 18.96421,-24.39008 31.91506,-12.63842 57.5911,-36.45103 79.50425,-62.20249 -12.75825,23.03239 -25.0254,46.65764 -41.70429,67.19903 -16.13641,12.15035 -36.44171,19.92523 -56.76417,19.39354 z m -34.36134,-14.29248 c 10.00637,-12.82229 29.39072,-7.26432 41.61258,-17.27994 24.717,-13.83052 44.7468,-34.64265 64.23784,-54.83553 14.60646,-16.00848 26.3369,-34.52349 32.11139,-55.50961 3.01349,-6.60066 10.21486,-36.71529 16.81155,-19.98419 -4.73565,39.26332 -29.7799,71.79361 -52.56946,102.6229 -25.22863,25.65439 -60.53458,39.47473 -95.64365,44.88852 -2.18129,0.17584 -4.37469,0.22191 -6.56025,0.0978 z m 105.30183,-17.75254 c 15.71142,-22.98709 27.16286,-48.65245 42.54424,-71.75947 16.70533,-14.0683 -6.53136,19.50522 -8.8644,26.33634 -9.26754,16.45212 -19.96091,32.32724 -33.67984,45.42313 z m 31.83553,-34.99115 c 11.27664,-14.07431 15.73715,-40.83375 29.60123,-47.77123 -3.14597,15.04996 -14.50489,27.88894 -23.03764,40.67918 -0.3179,0.66219 -10.29372,12.91895 -6.56359,7.09205 z M 481.72976,507.9861 c 11.35137,-13.31301 26.75824,-44.2088 32.06645,-48.7172 -5.25036,18.94965 -19.75151,33.98989 -32.06645,48.7172 z m 6.8538,-18.37924 c -4.67576,-9.42518 17.49845,-19.90615 5.53208,-5.75893 -0.80573,2.16162 -2.00728,7.4592 -5.53208,5.75893 z M 470.4802,475.15859 c -19.43114,-1.31067 -22.79784,-29.01548 -7.69933,-38.83162 12.97722,-15.33548 45.15431,-7.80606 39.76456,15.37056 -3.17544,13.84852 -17.51051,25.73513 -32.06523,23.46106 z m -9.57602,-7.85315 c 12.16107,-13.1851 -14.00182,-1.8428 0,0 z m 14.06944,-8.68819 c 12.7979,-16.13204 -16.65179,-0.48337 0,0 z m -14.15097,-7.05355 c 8.03893,-9.33279 -10.3596,-0.92997 -0.93791,0.16729 z m 14.37308,-13.15876 c 9.52874,-9.99561 -12.07663,0.0593 0,0 z m 37.4757,5.95024 c 2.7804,-14.86747 13.81018,-26.92119 14.04314,-42.66302 17.2389,8.13454 -4.40087,25.56997 -8.80933,36.53199 -1.49843,1.90066 -1.84553,6.85101 -5.23381,6.13103 z m -8.90944,-16.96469 c -10.49672,-21.41491 28.02398,-33.479 11.76591,-6.68007 -2.59304,3.7297 -6.73273,7.79746 -11.76591,6.68007 z m -11.24011,-25.93716 c -11.2499,-11.31698 13.15858,-39.61928 18.40239,-17.37797 -0.48541,9.41589 -8.33759,18.67929 -18.40239,17.37797 z m -92.36702,-9.73292 c -7.77519,-14.10882 17.68981,-0.1946 0,0 z"
         id="path39" /><path
         style="fill:#482357"
         d="m 326.37104,568.31219 c -19.65074,-8.57807 -8.36864,-34.1736 -1.84468,-48.31647 5.11755,-11.02882 20.00047,-35.78149 23.187,-35.53745 -3.01781,18.42817 14.02893,31.94805 16.80773,49.136 12.04441,14.75608 28.29778,-0.47668 41.56834,-4.27878 7.83746,-2.96074 19.52393,-4.2421 6.28259,2.23609 -25.4516,16.09805 -52.3837,32.09524 -82.5197,36.96989 z m -21.9238,-52.82957 c 6.82743,-16.63644 23.0035,-26.72592 33.43973,-40.92492 18.82024,-21.02229 37.25,-42.4619 57.68873,-61.95565 8.63963,10.68057 25.72083,-3.94199 13.45201,-12.94086 20.19689,-13.79474 40.61746,-28.49984 64.566,-34.95778 15.58353,12.45461 -11.42359,24.33964 -21.60382,28.93892 -19.99775,10.77759 -38.24873,24.45596 -55.32741,39.31172 -16.40075,7.02979 -34.15341,14.40912 -42.09668,31.95985 -12.87966,19.35111 -30.94494,37.65889 -50.01422,50.60326 l -0.10443,-0.0345 z m 128.28885,-72.04605 c -25.40731,-8.64968 7.05477,-24.8962 15.58076,-34.58663 6.72881,-5.36878 20.48369,-15.4144 8.65317,-1.79606 -9.64581,9.79522 -16.98972,31.42627 -24.23393,36.38269 z m -32.6518,-8.83081 c 14.98452,-14.10859 31.55444,-27.43391 50.26416,-36.09784 -12.48478,10.15575 -27.40952,21.54122 -39.23837,33.9236 -1.98003,3.84488 -7.59556,2.08195 -11.02579,2.17424 z"
         id="path38" /></g></g></svg>
