<?xml version="1.0" encoding="UTF-8" standalone="no"?>
<!-- Created with Inkscape (http://www.inkscape.org/) -->

<svg
   width="100.95461mm"
   height="100.00002mm"
   viewBox="0 0 100.9546 100.00003"
   version="1.1"
   id="svg1"
   xml:space="preserve"
   xmlns="http://www.w3.org/2000/svg"
   xmlns:svg="http://www.w3.org/2000/svg"><defs
     id="defs1" /><g
     id="layer1"
     transform="translate(-381.26408,-193.44548)"><g
       id="g21"
       transform="matrix(0.38171717,0,0,0.38171717,240.22451,84.202236)"><path
         style="fill:#b5b7bd"
         d="m 500.0474,533.71756 c -1.70491,-30.83865 12.81478,4.8227 1.87717,14.44548 -2.63663,-4.30212 -1.62717,-9.64893 -1.87717,-14.44548 z m -12.27157,5.16361 c -7.05612,-21.68811 10.24214,-55.71209 -14.82894,-67.36908 -16.31827,-2.26621 -35.23671,-38.44962 -10.02269,-16.11212 13.66765,14.20058 27.70543,6.17599 23.75844,-12.09995 7.30635,15.0891 0.45607,59.44265 2.34796,84.63529 -2.99957,0.81111 4.05865,12.75751 -1.25477,10.94586 z m 3.7704,-60.42361 c -4.18525,-18.52443 12.65119,-58.71077 -18.43371,-55.78122 -15.65758,2.65303 -43.33401,-4.41624 -51.67032,1.21314 6.91756,1.76585 52.14298,-1.64603 32.46348,6.54291 -22.23655,-2.82892 -54.5264,4.45595 -70.70011,-3.63977 8.8003,-5.51828 27.99521,-3.88742 6.99864,-6.48479 -13.37275,3.37455 -33.78101,-5.40572 -9.20669,-5.56523 19.46512,-1.57941 41.56039,4.24994 59.19152,-4.45841 -18.21101,0.85539 -34.97784,-1.24554 -53.34361,-4.32091 6.68118,0.12226 40.03822,-1.64602 18.18447,-3.85483 16.10567,-3.18798 47.8949,-3.41942 54.77912,0.59529 -9.60996,1.56457 -35.85387,-2.14447 -37.97366,2.30897 22.17651,-4.26249 67.81102,17.86913 71.08489,-13.6567 -3.10926,-22.59776 2.1135,-45.0101 -0.0855,-67.73912 4.34979,-31.5554 6.08473,11.47274 5.8763,20.22977 2.96576,-15.76528 -4.67132,-59.7641 4.78893,-57.57915 3.67211,19.81388 -4.73511,66.71423 3.87968,71.48253 -1.27991,-17.1304 4.91372,-34.40345 4.5942,-51.1381 4.89539,11.93657 0.0807,-31.82713 4.92373,-5.3284 5.74679,32.83081 1.4517,65.79007 -2.57436,98.54368 -1.7255,-11.502 -3.23986,-45.29558 -6.88031,-14.65516 -10.41325,32.48896 29.53617,32.84127 50.26059,25.83729 9.20802,-7.84556 50.56244,-0.47656 21.52284,0.85117 -25.82133,4.29619 23.17544,2.51118 30.74628,2.87352 10.52012,-0.79147 38.91635,-0.63838 14.07432,5.94431 -12.30303,-0.80139 -53.85986,-2.66997 -50.87794,-0.47838 26.94328,3.79503 -17.56651,3.58532 -24.33349,3.17313 -17.79515,2.09356 -48.32433,-9.42731 -39.05795,19.17501 -4.09009,17.52979 9.48452,54.17083 -7.34845,58.72679 -12.50596,-35.85556 -0.51165,34.65318 -10.90312,25.69117 0.0329,-16.16947 0.007,-32.33909 0.0203,-48.50851 z m 16.93325,-25.53042 c 2.18697,-9.86541 -3.1688,-33.05085 -2.08041,-9.48707 -2.29877,8.49841 1.30612,48.50001 2.08269,21.26103 l -0.0131,-5.88665 z m 6.61458,51.61793 c -5.1729,-20.29844 -1.70013,-41.8101 -2.09742,-62.37887 7.00097,-7.25446 2.55044,30.81458 3.59794,40.20801 -0.25744,7.40395 -0.7387,14.80126 -1.50052,22.17086 z m 15.34583,-75.30056 c -17.18808,-6.07423 24.4865,-3.94271 31.62787,-3.71182 13.66238,-2.4597 50.41682,5.19033 18.04456,4.00853 -16.55814,0.0632 -33.11492,-0.21103 -49.67243,-0.29671 z m 50.53542,-24.32456 c -9.05845,-0.8321 -45.2019,1.72741 -35.77061,-4.09851 11.15061,1.74826 28.08547,-5.9188 35.77061,4.09851 z m 7.33222,-0.0461 c 12.35246,-10.07324 46.24188,0.53885 14.98507,0.28122 -4.98784,-0.24862 -9.99192,-0.72891 -14.98507,-0.28122 z M 485.8691,387.13868 c 0.0389,-25.70867 -0.78909,-78.46598 2.79135,-87.05604 3.05412,24.38902 -0.48267,49.16979 1.75193,73.72631 1.62582,5.45528 -5.19087,30.59859 -4.54328,13.32973 z"
         id="path25" /><path
         style="fill:#e7591c"
         d="m 549.06768,527.07281 c -17.48165,-17.73359 29.06326,-8.66336 0,0 z m 28.65084,-7.05292 c -30.06051,-4.65161 -11.06079,-54.26326 15.00119,-35.6418 18.51451,13.1123 8.23306,40.67279 -15.00119,35.6418 z m -41.76567,-8.70401 c -23.08254,-21.97615 37.28073,-10.53021 0,0 z m 16.42876,-26.56133 c -18.89584,-14.38169 27.1522,-17.65452 5.67148,-0.12425 l -2.8249,0.54393 z m 50.6864,-9.28442 c -18.3592,-17.54407 28.41616,-8.51082 0,0 z M 580.5289,460.99749 c -15.41016,-21.58291 32.46624,-4.45117 0,0 z m -49.431,-0.17017 c -26.7461,-13.4596 25.44995,-37.70733 13.12342,-5.59222 -2.50215,4.40115 -8.06749,7.42738 -13.12342,5.59222 z m -60.88015,-18.98297 c -24.6913,-7.41418 14.87849,-35.4674 11.01073,-6.59926 -0.7366,4.87539 -6.29411,9.04195 -11.01073,6.59926 z M 598.83208,431.0225 c -11.58353,-19.28325 25.79186,-3.38377 0,0 z M 399.8165,402.55748 c -18.24688,-8.91446 18.6817,-16.72957 3.7858,-0.0869 z m 19.10901,-21.18591 c -24.56548,-10.12509 19.37634,-28.40307 7.68811,-2.41054 -1.75365,2.26879 -4.94644,3.30149 -7.68811,2.41054 z m 164.70066,-2.60438 c -13.80886,-22.7918 30.51695,-4.8669 0,0 z M 441.05948,363.90333 c -24.98249,-13.14269 25.89954,-30.27476 10.28755,-3.32184 -2.56349,2.72478 -6.5639,4.29573 -10.28755,3.32184 z m -48.07062,-2.37124 c -18.44003,-18.6704 29.72188,-8.6322 0,0 z m 155.34747,-0.14323 c -18.52451,-17.89362 29.78311,-9.35933 0,0 z m 49.23171,-5.91541 c -15.49194,-19.58028 31.50076,-8.60087 0,0 z m -22.94273,-3.09768 c -28.09671,-3.17268 9.43024,-40.29294 11.84347,-10.08308 0.14874,6.03831 -5.66585,12.07648 -11.84347,10.08308 z m -161.39583,-9.7678 c -28.01396,-0.90702 -22.15948,-46.32951 5.83737,-38.78716 26.0842,4.63283 22.55928,43.61279 -5.83737,38.78716 z m 53.66919,-2.32317 c -24.52627,-10.83168 22.01308,-32.24481 11.01531,-4.79019 -2.06769,3.68296 -6.71581,6.58011 -11.01531,4.79019 z m 88.96408,-13.69214 c -23.88529,-20.23325 30.9892,-15.44456 0,0 z M 449.17584,316.14627 c -19.45369,-18.37772 29.72787,-6.12021 0,0 z m 107.59009,-16.01742 c -17.61978,-19.40306 29.72488,-10.23111 0,0 z"
         id="path24" /><path
         style="fill:#6d326a"
         d="m 477.618,534.33341 c -20.47715,-17.69716 21.8125,-10.25543 0,0 z m -46.66144,-10.57428 c -16.97805,-12.52841 23.75591,-11.52721 2.4672,0.0743 l -1.51442,-0.0456 z m 72.86327,-3.58006 c -28.10883,-12.54442 26.4508,-31.84191 11.37981,-2.87884 -2.83569,2.98582 -7.44168,4.3619 -11.37981,2.87884 z m -38.19546,-11.03865 c -18.89076,-16.84711 29.86569,-10.59148 0,0 z m -20.63848,-1.69618 c -26.28927,-8.08371 16.48814,-34.92126 10.68525,-6.03746 -1.26649,4.33326 -6.23433,7.84224 -10.68525,6.03746 z m 64.98052,-45.03516 c -3.87062,-23.09461 -0.94111,-51.0087 30.03315,-37.75646 -13.88635,-2.41847 -24.41846,6.36444 -4.27751,5.53851 -4.13294,13.44926 -22.87958,35.21378 -21.66037,9.25068 -4.34508,9.55089 1.62187,49.90561 -3.99699,40.01928 -0.0821,-5.6839 0.056,-11.36876 -0.0983,-17.05201 z m 6.89733,15.73274 c -0.25823,-15.6436 38.32009,-5.58 11.35051,2.25266 -3.11733,3.53453 -13.02257,5.86245 -11.35051,-2.25266 z m -101.88126,6.15341 c -28.72598,-10.7003 18.77716,-45.93442 15.81132,-10.76905 -1.2186,7.04422 -8.40311,13.46132 -15.81132,10.76905 z m 68.097,-0.22992 c -19.58678,-6.14717 -40.2538,-26.0861 -48.97243,-40.73716 6.06714,-29.81609 15.26031,8.11615 21.7168,18.66874 6.42373,6.67075 34.11871,11.36244 27.25563,22.06842 z m -93.1572,-8.5704 c -20.86841,-20.55365 34.91349,-8.26973 0,0 z m 6.18497,-26.49685 c -24.04168,-17.25244 33.06487,-25.05982 10.45102,-1.40773 -3.11605,1.81292 -6.96382,2.39247 -10.45102,1.40773 z m 93.68584,-42.39649 c -6.08505,-14.22344 -26.39554,4.40975 -32.48077,-10.77501 -12.85357,17.83952 -3.56918,-23.95749 -13.87184,1.10988 -15.78245,2.80515 10.31532,-39.29944 26.43919,-36.72687 24.94805,-9.72478 13.03013,54.42014 19.7355,18.67973 2.59332,-31.90812 2.77054,10.7433 2.47764,21.52202 l -0.7974,3.52625 z m -31.791,-24.03005 c 25.22469,-24.40203 -27.54048,0.44659 0,0 z m 52.21996,23.98474 c -0.48525,-10.48354 0.87515,-52.46288 2.23021,-20.31932 4.74225,34.8108 -2.74723,-32.0993 16.83227,-7.78276 15.93336,13.89892 21.11835,36.80403 -7.06544,28.20505 -3.99378,-0.13208 -8.01465,-0.71705 -11.99704,-0.10297 z m 74.8543,-1.95306 c -26.01462,-17.912 34.5842,-26.64933 10.06279,-1.57234 -2.98957,1.76741 -6.67072,2.43138 -10.06279,1.57234 z m -63.52056,-82.332 c -16.99504,-13.92359 25.43566,-18.01454 5.37747,-0.1941 l -2.65289,0.64325 z"
         id="path23" /><path
         style="fill:#b1102e"
         d="m 523.03156,471.70303 c -16.22177,-2.41016 0.54553,-30.91128 8.97657,-11.26025 26.77168,1.43253 -5.91909,-41.68819 27.67497,-31.70653 11.47326,12.06001 -10.77869,43.22609 -29.11187,42.99523 l -3.76984,-0.003 -3.76983,-0.0252 z m -33.40047,-19.44289 c -4.48891,-30.76321 1.66507,26.32449 -18.22223,6.92803 -16.68854,-4.67294 -23.00742,-43.93285 -1.06258,-18.50965 13.0265,7.73165 13.88229,-14.87403 11.83576,-17.93745 20.48474,-5.14671 4.28193,62.21323 7.44905,29.51907 z m 55.62547,-52.01211 c 6.76551,-19.68828 -48.80227,-40.36354 -15.54451,-46.21404 14.96938,5.28342 53.49758,49.46428 19.11188,46.31736 -1.18963,-0.0154 -2.37825,-0.0689 -3.56737,-0.10332 z m -62.30937,-36.4996 c -39.75511,-1.80184 18.23355,-28.1909 0,0 z m 49.8425,-20.28751 c -18.1363,-16.66616 27.57429,-7.70551 0,0 z"
         id="path22" /></g></g></svg>
