<?xml version="1.0" encoding="UTF-8" standalone="no"?>
<!-- Created with Inkscape (http://www.inkscape.org/) -->

<svg
   width="669.33112mm"
   height="152.60947mm"
   viewBox="0 0 669.33112 152.60947"
   version="1.1"
   id="svg1"
   xml:space="preserve"
   xmlns:inkscape="http://www.inkscape.org/namespaces/inkscape"
   xmlns:sodipodi="http://sodipodi.sourceforge.net/DTD/sodipodi-0.dtd"
   xmlns="http://www.w3.org/2000/svg"
   xmlns:svg="http://www.w3.org/2000/svg"><sodipodi:namedview
     id="namedview1"
     pagecolor="#ffffff"
     bordercolor="#000000"
     borderopacity="0.25"
     inkscape:showpageshadow="2"
     inkscape:pageopacity="0.0"
     inkscape:pagecheckerboard="0"
     inkscape:deskcolor="#d1d1d1"
     inkscape:document-units="mm"><inkscape:page
       x="0"
       y="0"
       width="669.33112"
       height="152.60947"
       id="page2"
       margin="0"
       bleed="0" /></sodipodi:namedview><defs
     id="defs1" /><g
     inkscape:label="Layer 1"
     inkscape:groupmode="layer"
     id="layer1"
     transform="translate(-242.21752,-75.694297)"><g
       id="g10"
       transform="translate(721.77998,8.8913695)"
       inkscape:export-filename="Kitchen.svg"
       inkscape:export-xdpi="96"
       inkscape:export-ydpi="96"><path
         style="fill:#eaa41a"
         d="M 78.896724,183.43002 C 61.485032,181.749 49.756369,174.17756 49.369087,164.36844 c -0.160679,-4.06969 -0.390014,-4.87741 -1.670896,-5.88496 l -0.667342,-0.52493 8.64326,0.002 8.64326,0.002 1.287433,0.59946 c 0.934526,0.43514 1.670306,1.07183 2.684184,2.3227 13.051917,16.1028 59.626594,16.33077 70.117014,0.34321 1.42941,-2.17844 3.39999,-3.27028 5.90232,-3.27028 h 1.64583 l -0.66735,0.52493 c -1.23098,0.9683 -1.49581,1.84763 -1.68447,5.59301 l -0.17522,3.47858 -0.89498,1.81088 c -2.95771,5.98452 -12.19113,11.28518 -23.54218,13.51492 l -2.89073,0.56784 -18.098513,0.0392 c -9.95418,0.0216 -18.550973,-0.004 -19.103983,-0.0579 z m 18.349879,-18.08008 c -0.414758,-0.0578 -1.998377,-0.27623 -3.519155,-0.48531 -9.52973,-1.31015 -15.502523,-4.24104 -11.965301,-5.87145 9.783818,-4.50965 27.403793,-2.68593 37.768873,3.90921 l 1.1695,0.74413 -1.42086,0.31692 c -5.34855,1.19299 -6.60643,1.31942 -13.98928,1.4061 -4.00932,0.0471 -7.62902,0.0383 -8.043777,-0.0196 z M 109.50635,129.6452 c -6.15609,-3.0351 -5.76125,-10.28882 0.94357,-17.33457 4.00039,-4.20379 4.75425,-5.43257 4.95755,-8.08068 0.41561,-5.413479 5.10659,-4.944721 7.84041,0.78347 2.33558,4.89377 1.20347,8.48812 -4.56027,14.47855 -3.4835,3.6205 -4.05732,4.53693 -4.5873,7.32623 -0.54923,2.89064 -2.29094,3.96244 -4.59396,2.827 z M 94.906908,119.56023 c -7.733138,-4.14733 -7.440212,-13.13266 0.723123,-22.181412 5.072359,-5.622513 6.266879,-7.669899 6.266879,-10.741255 0,-6.085349 6.68559,-5.07533 9.91406,1.497756 2.74884,5.596567 1.61546,9.285335 -5.06535,16.486021 -5.01145,5.40143 -5.63981,6.47537 -6.22386,10.63719 -0.578934,4.1254 -2.787944,5.81779 -5.614852,4.3017 z"
         id="path12" /><path
         style="fill:#1e2a30"
         d="m 91.590818,219.28504 c -33.688464,-1.83971 -59.588671,-23.91606 -61.627088,-52.5286 -0.387505,-5.43927 -0.101966,-6.6751 1.882215,-8.14635 l 0.709177,-0.52585 7.224313,-0.0735 7.224313,-0.0735 0.680893,0.53559 c 1.29545,1.019 1.523409,1.81686 1.684446,5.89561 0.243792,6.1748 2.95041,9.53468 11.303443,14.03161 8.536016,4.59544 11.951309,5.07237 36.322704,5.07237 h 18.852616 l 3.01174,-0.5781 c 11.37984,-2.18436 20.6978,-7.50939 23.67254,-13.52837 l 0.89498,-1.81088 0.17522,-3.47858 c 0.18866,-3.74538 0.45349,-4.62471 1.68447,-5.59301 l 0.66735,-0.52493 6.94156,0.004 6.94157,0.004 0.98184,0.56145 c 2.12323,1.21411 2.65258,4.14488 1.91326,10.59272 -3.47904,30.34165 -34.43361,52.16865 -71.141562,50.16405 z m 28.027552,-56.30866 c -9.27469,-6.52721 -28.349235,-8.48948 -37.995048,-3.90871 l -1.802308,0.85592 -0.524987,-0.55883 c -1.644059,-1.75002 3.620667,-9.36166 9.443569,-13.65333 6.632598,-4.88844 13.795094,-6.9979 25.851414,-7.61363 12.83845,-0.65567 10.80741,0.5789 45.45516,-27.63008 16.54925,-13.473825 14.92422,-12.496844 20.43139,-12.283443 7.06408,0.273731 11.42092,7.235913 8.22625,13.145473 -1.11474,2.06208 0.93102,0.68686 -26.7299,17.96864 -26.69556,16.67865 -27.94889,17.72249 -32.21098,26.82685 -2.21195,4.72501 -7.80163,8.50001 -10.14456,6.85114 z"
         id="path11" /></g><g
       id="g9"
       transform="translate(542.37398,5.9116795)"
       inkscape:export-filename="Market.svg"
       inkscape:export-xdpi="96"
       inkscape:export-ydpi="96"><rect
         style="fill:#ffffff;stroke:none;stroke-width:1.5;stroke-linecap:round;stroke-linejoin:round"
         id="rect10"
         width="102.31228"
         height="91.639404"
         x="57.41264"
         y="118.8736" /><path
         style="fill:#e49c1a"
         d="m 40.215778,218.28576 c -5.678984,-2.02972 -6.047085,-9.20798 -0.617948,-12.05047 l 1.028893,-0.53868 7.488056,-0.0713 7.488055,-0.0713 v -26.62274 c 0,-14.6425 -0.03901,-26.62273 -0.08669,-26.62273 -0.04768,0 -0.639294,0.25123 -1.314696,0.55829 -10.549815,4.79628 -18.090947,-6.24088 -11.473082,-16.79194 6.250264,-9.96499 7.664038,-11.92402 8.020619,-12.21898 39.505494,-32.678374 60.213625,-35.612461 115.513965,-0.31868 0.25581,0.16326 1.46191,2.06137 2.76048,4.11557 1.29858,2.0542 3.43813,5.43258 4.75455,7.50752 3.07073,4.84007 3.27719,5.31902 3.41311,7.91748 0.39074,7.47016 -6.42545,12.57091 -13.44016,10.05765 -0.94315,-0.33791 -1.81771,-0.63648 -1.94346,-0.66349 -0.15114,-0.0325 -0.24835,8.96086 -0.28676,26.53064 l -0.0581,26.57974 h 5.78984 c 4.52406,0 6.04665,0.0763 6.96448,0.34882 5.669,1.68351 6.19338,9.3772 0.81944,12.02267 l -1.11082,0.54683 -66.42077,0.0477 c -55.445811,0.0399 -66.56422,-0.004 -67.28899,-0.26258 z m 65.482892,-32.39834 c 3.06063,-1.02474 3.17796,-1.45833 3.17796,-11.74354 0,-13.0664 2.14337,-11.7751 -19.544956,-11.7751 -22.014161,0 -19.997365,-1.1971 -20.005244,11.8744 l -0.005,8.33044 0.476909,0.98516 c 0.516481,1.06691 1.396272,1.8083 2.697814,2.27342 1.121535,0.40079 32.016937,0.45217 33.202537,0.0552 z M 73.561838,152.77765 c 4.025743,-1.98187 5.551394,-5.03565 5.575446,-11.15994 l 0.01178,-2.99977 1.716816,-6.66602 c 0.944249,-3.6663 1.716816,-6.75929 1.716816,-6.8733 0,-0.11968 -3.068008,-0.20564 -7.259412,-0.2034 l -7.259412,0.004 -2.629394,5.18968 c -1.446166,2.85432 -3.221254,6.25479 -3.944638,7.55659 -5.247054,9.44256 2.899556,19.66785 12.071997,15.15228 z m 38.131032,0.44169 c 2.73585,-0.84502 4.95535,-2.99006 6.15908,-5.95247 l 0.50632,-1.24606 0.0781,-8.57411 c 0.0682,-7.49668 0.0273,-8.82551 -0.32593,-10.57474 l -0.40399,-2.00062 h -9.05843 -9.058436 l -0.403904,2.00062 c -0.353646,1.75169 -0.394066,3.08174 -0.324841,10.68906 l 0.07906,8.68843 0.508215,1.25754 c 1.937536,4.79425 7.227426,7.26206 12.244786,5.71235 z m 39.29947,-0.0116 c 5.37375,-1.81028 8.28769,-8.88091 5.68123,-13.78541 -0.34356,-0.64647 -1.39671,-2.61585 -2.34033,-4.3764 -0.94362,-1.76055 -2.46743,-4.64145 -3.38625,-6.402 -0.91881,-1.76055 -1.77031,-3.32962 -1.89221,-3.48681 -0.16889,-0.2178 -1.91851,-0.2858 -7.35286,-0.2858 h -7.13122 l 1.77936,7.03077 1.77935,7.03077 0.007,3.33098 c 0.0173,8.54138 5.67967,13.36149 12.85617,10.9439 z"
         id="path10"
         sodipodi:nodetypes="sscccsssssssssssscscsccsssssscsssscscssccsscccsccscccsscscccssssscccccc" /><path
         style="display:inline;fill:#233239"
         d="m 40.323386,218.27642 c -5.679308,-1.77696 -6.166795,-9.29029 -0.774586,-11.93821 l 1.306566,-0.6416 7.373734,-0.0715 7.373734,-0.0715 V 178.89331 152.233 l 1.374466,-1.43136 c 1.282048,-1.33512 2.50509,-3.39524 2.51023,-4.22828 0.0054,-0.87474 0.334159,-0.54843 0.778885,0.77308 2.963645,8.80646 16.194352,8.26564 18.503246,-0.75635 l 0.319584,-1.24877 0.367748,1.26501 c 2.70046,9.28926 15.965596,9.439 19.022314,0.21473 l 0.416719,-1.25754 0.271124,1.05348 c 2.36571,9.1922 15.73706,9.44138 18.80614,0.35046 l 0.44468,-1.31721 0.39253,1.21417 c 2.94267,9.10244 16.02791,8.98409 18.86042,-0.17058 l 0.39138,-1.26496 0.36873,1.32486 c 2.47726,8.9008 18.68926,8.96058 18.68926,0.0689 0,-0.83284 0.32416,-0.6301 0.70031,0.43801 0.50484,1.43356 1.55583,2.96143 2.72623,3.96325 l 0.91767,0.78549 v 26.77009 26.77009 l 6.23052,0.0745 6.23052,0.0745 1.11919,0.55418 c 4.949,2.45056 4.97855,9.0311 0.0522,11.62983 l -1.17142,0.61795 -66.30644,0.0427 c -55.204987,0.0355 -66.472077,-0.009 -67.295714,-0.26686 z M 148.20321,185.91165 c 0,-21.51058 0.0571,-20.56229 -1.32682,-22.02048 -0.33915,-0.35733 -1.0282,-0.87178 -1.53121,-1.14321 l -0.91458,-0.49351 h -9.14571 -9.14572 l -0.94297,0.50442 c -1.06657,0.57054 -2.06549,1.65863 -2.52132,2.7464 -0.25057,0.59794 -0.30832,4.42002 -0.30832,20.40638 v 19.67064 h 12.91833 12.91832 z m -49.273892,16.013 c 2.926872,-1.41687 2.977922,-6.14085 0.08048,-7.44742 l -0.978885,-0.44141 H 85.105177 72.179445 l -0.799473,0.46965 c -2.895073,1.7007 -2.566095,6.60356 0.509247,7.58949 0.480348,0.15399 5.277494,0.24798 13.422166,0.26298 l 12.674654,0.0233 z m 7.319882,-16.20343 c 2.61107,-1.18618 2.85608,-2.19634 2.85608,-11.77573 0,-12.7975 1.66338,-11.84796 -20.593629,-11.75581 l -15.646277,0.0648 -0.914572,0.49351 c -2.594542,1.40003 -2.629393,1.55183 -2.629393,11.45294 v 8.37272 l 0.480691,0.99297 c 0.510417,1.05438 1.479139,1.91129 2.605988,2.30518 1.376245,0.48107 32.758082,0.34146 33.841112,-0.15055 z M 51.297132,122.07046 c 0.119945,-4.4316 1.147037,-6.14138 4.958886,-8.25498 49.636622,-27.522538 49.194882,-27.295831 52.734932,-27.064563 2.9066,0.189885 2.51828,0.0012 20.80651,10.111337 14.45139,7.989076 27.67895,15.265466 29.95222,16.476526 4.72161,2.51538 5.85092,4.15495 6.01427,8.73168 l 0.1,2.80088 h -57.3213 -57.321296 z m 61.068798,-3.76893 c 7.66501,-3.59527 5.86651,-13.8652 -2.66027,-15.19083 -8.1837,-1.27229 -13.547892,7.87996 -7.90707,13.49086 2.63973,2.62573 7.07311,3.33893 10.56734,1.69997 z"
         id="path9" /></g><g
       id="g5"
       inkscape:label="Industry"
       inkscape:export-filename="Industry.svg"
       inkscape:export-xdpi="96"
       inkscape:export-ydpi="96"
       transform="translate(217.87361,11.040889)"><path
         style="fill:#eda925"
         d="m 26.868522,208.61582 c 0.05482,-0.0548 -0.282521,-0.35484 -0.749639,-0.66674 -1.37965,-0.92119 -1.774463,-2.03267 -1.774934,-4.9968 -8.73e-4,-5.49183 -0.02662,-5.47934 11.30186,-5.48062 l 8.78873,-9.8e-4 c 0.164609,-6.27826 0.162609,-6.27893 0.28192,0 h 43.656248 43.656253 v -3.8491 -3.84909 l 0.70009,-0.64882 0.7001,-0.64883 8.36188,0.008 c 10.4621,0.0105 9.81709,-0.34363 9.81709,5.3903 v 3.58143 l 11.92677,0.074 11.92676,0.074 0.90553,0.9883 0.90553,0.9883 -0.002,3.24503 c -0.002,3.4939 -0.21889,4.19018 -1.61383,5.17783 -0.58263,0.41252 -149.200476,1.0252 -148.788602,0.61339 z m 35.02551,-29.38104 -0.773397,-0.7734 v -5.82088 -5.82089 l 0.684978,-0.81405 0.684978,-0.81405 h 3.304124 3.304125 l 0.787513,0.78751 0.787514,0.78752 -0.08026,5.98273 -0.08026,5.98273 -0.742358,0.63809 c -0.695532,0.59784 -0.942987,0.63809 -3.922957,0.63809 h -3.180598 z m 17.991666,0 -0.773397,-0.7734 v -5.86154 -5.86153 l 0.773397,-0.7734 0.773398,-0.7734 h 3.159671 c 2.795923,0 3.239927,0.0631 3.85681,0.54837 l 0.69714,0.54837 v 6.04457 c 0,7.9691 0.182544,7.67536 -4.769713,7.67536 H 80.65908 Z m 18.032319,0.0884 -0.814051,-0.68498 v -6.07392 -6.07393 l 0.649432,-0.64943 0.649432,-0.64943 h 3.28364 c 2.92134,0 3.36056,0.0605 3.98078,0.54837 l 0.69714,0.54837 v 6.21114 6.21114 l -0.7001,0.64882 c -0.66074,0.61236 -0.87525,0.64883 -3.81615,0.64883 h -3.116073 z m 51.044213,-31.74851 c -3e-5,-0.14336 -4.81942,-0.24253 -11.78597,-0.24253 h -11.78591 l 0.13346,-0.92604 c 0.0734,-0.50933 0.20946,-2.47386 0.30234,-4.36563 l 0.16888,-3.43958 11.20093,0.0717 11.20093,0.0717 c 0.18514,-1.7542 0.26614,0.34417 0.28768,1.0472 0.0364,1.38245 0.15025,3.70417 0.25304,5.15938 0.10279,1.45521 0.15039,2.69544 0.10578,2.75607 -0.0446,0.0606 -0.0811,0.001 -0.0812,-0.13229 z m -48.1176,-7.45238 -12.002031,-0.0716 0.150907,-1.12176 c 0.083,-0.61697 0.221488,-1.9552 0.307752,-2.97385 0.08626,-1.01864 0.212553,-2.11997 0.280642,-2.44739 l 0.123799,-0.59531 h 11.239751 c 8.80597,0 11.24358,0.0716 11.25744,0.33072 0.01,0.18191 0.16293,1.84878 0.34045,3.70417 0.17751,1.85539 0.31837,3.34492 0.31303,3.31006 -0.005,-0.0349 -5.41063,-0.0956 -12.01174,-0.13501 z m 25.72147,-11.24484 c 0.0853,-0.9095 0.23147,-2.91956 0.32489,-4.46678 l 0.16984,-2.81314 10.28068,-0.0453 10.28068,-0.0453 0.12448,0.60944 c 0.0685,0.33518 0.19537,2.3656 0.28202,4.51203 l 0.15754,3.90261 H 137.29864 126.41105 Z M 90.071981,127.3561 c 0.06322,-0.36381 0.19794,-1.91162 0.299377,-3.43959 0.274584,-4.13611 -0.970782,-3.70416 10.679562,-3.70416 h 10.01378 l 0.16866,2.05052 c 0.0928,1.12778 0.23751,2.73513 0.32165,3.57187 l 0.15298,1.52136 h -10.71955 c -8.3161,0 -10.754519,0.0742 -10.875482,0.33073 -0.08576,0.1819 -0.104197,0.0331 -0.04098,-0.33073 z m 10.821499,-25.06927 c -2.466696,-5.024937 -0.0426,-11.714179 5.13347,-14.165984 l 1.79262,-0.849123 h 3.38114 3.38114 l 0.2837,-1.053902 c 1.3256,-4.924449 5.01551,-7.677347 10.29051,-7.677347 h 3.04899 l 1.75118,0.862458 c 8.4639,4.168463 6.10758,19.376005 -3.00249,19.377957 -0.80159,1.72e-4 -1.07866,0.152549 -1.56393,0.860104 -2.90673,4.238207 -6.63274,4.902257 -11.38739,2.029457 l -1.93569,-1.16956 -2.52045,0.001 c -2.7904,10e-4 -4.20858,0.52478 -6.53373,2.41124 -1.38502,1.1237 -1.23863,1.16699 -2.11907,-0.62657 z M 67.328269,87.602452 c -3.487753,-7.754309 2.149772,-15.308677 11.166692,-14.963535 2.015342,0.07714 2.998642,0.02244 2.998782,-0.166833 0.004,-5.371597 9.470723,-9.730484 15.113991,-6.95912 8.472936,4.160993 6.510126,17.918948 -2.731351,19.144873 -1.131758,0.150133 -1.393092,0.303836 -1.920012,1.129253 -2.371325,3.714666 -6.836802,4.278489 -10.891254,1.375159 -3.319067,-2.376731 -7.349303,-2.004175 -11.400334,1.053849 -1.697089,1.281092 -1.45579,1.344466 -2.336514,-0.613646 z"
         id="path6"
         sodipodi:nodetypes="cssscccccccccsccccccsccccccccccccccssccccccccsscssccccccccsscccsscccscsscccsssccccssscscscscssccccscccssssccscsssscscccsscssssccsccsscssssss"
         inkscape:label="Yellow" /><path
         style="fill:#1c2830"
         d="m 26.894796,216.24935 c -3.070771,-0.92316 -3.470186,-5.41008 -0.635448,-7.13844 l 0.862314,-0.52576 73.646468,-9.9e-4 c 81.96304,-0.001 74.80807,-0.16998 76.02211,1.79439 1.16432,1.8839 0.68559,4.05133 -1.20693,5.46432 l -0.73065,0.54551 -73.60091,0.0441 c -40.480508,0.0243 -73.941136,-0.0582 -74.356954,-0.18316 z m 17.821657,-42.0794 c 0,-28.06442 -0.739042,-25.11802 6.300323,-25.11802 h 4.209935 l 0.179739,-1.75436 c 0.09886,-0.9649 0.647727,-7.30497 1.219711,-14.08906 1.672369,-19.83531 2.106829,-24.87603 2.382508,-27.64243 0.142927,-1.43424 0.259867,-3.01182 0.259867,-3.50572 v -0.89801 h -1.409088 c -2.438393,0 -3.777976,-3.993075 -2.053872,-6.122253 l 0.50579,-0.624624 h 10.200385 c 12.037543,0 11.09489,-0.265886 11.238025,3.169813 0.119933,2.878774 -0.405972,3.577064 -2.694006,3.577064 h -1.434734 l 0.108476,1.12448 c 0.05966,0.61846 0.521759,6.42276 1.026883,12.89843 0.505124,6.47568 1.159102,14.81005 1.453284,18.52084 0.294182,3.71078 0.680896,8.65187 0.859364,10.9802 l 0.324488,4.23334 5.357293,0.0716 c 4.974897,0.0665 5.357686,0.0382 5.36279,-0.39687 0.003,-0.25768 0.178093,-2.13538 0.389043,-4.17267 0.210951,-2.03729 0.387071,-3.85421 0.391379,-4.03759 0.0062,-0.26419 2.493567,-0.31913 11.978444,-0.26458 l 11.97062,0.0688 0.32588,3.83646 c 0.17924,2.11005 0.39067,4.10434 0.46985,4.43177 l 0.14395,0.59531 3.3684,9.9e-4 c 5.5127,0.002 5.61735,0.1424 5.61735,7.55686 v 5.14215 h 0.90701 0.907 l 0.14909,-1.38906 c 0.082,-0.76399 0.29893,-4.00844 0.48206,-7.2099 l 0.33297,-5.82083 h 11.7193 11.71931 l 0.10696,0.52916 c 0.0976,0.48297 0.66923,11.90366 0.66543,13.29532 l -0.002,0.59531 h 7.1313 c 10.44149,0 9.27287,-2.38247 9.27287,18.90457 v 16.81418 h -7.27604 -7.27605 v -3.58927 c 0,-5.74305 0.64638,-5.38762 -9.81709,-5.39815 l -8.36188,-0.008 -0.7001,0.64883 -0.70009,0.64882 v 3.84909 3.8491 H 88.372701 44.716453 Z m 25.054516,5.20014 0.742358,-0.63809 0.08026,-5.98273 0.08026,-5.98273 -0.787514,-0.78752 -0.787513,-0.78751 h -3.304125 -3.304124 l -0.684978,0.81405 -0.684978,0.81405 v 5.82089 5.82088 l 0.773397,0.7734 0.773398,0.7734 h 3.180598 c 2.97997,0 3.227425,-0.0403 3.922957,-0.63809 z m 17.524475,0.251 c 1.067594,-0.55208 1.077257,-0.61745 1.077257,-7.28827 v -6.04457 l -0.69714,-0.54837 c -0.616883,-0.48524 -1.060887,-0.54837 -3.85681,-0.54837 H 80.65908 l -0.773398,0.7734 -0.773397,0.7734 v 5.86153 5.86154 l 0.773397,0.7734 0.773398,0.7734 h 2.943908 c 2.066243,0 3.167072,-0.11541 3.692456,-0.38709 z m 18.368826,-0.26174 0.7001,-0.64882 v -6.21114 -6.21114 l -0.69714,-0.54837 c -0.62022,-0.48786 -1.05944,-0.54837 -3.98078,-0.54837 h -3.283636 l -0.649432,0.64943 -0.649432,0.64943 v 6.07393 6.07392 l 0.814051,0.68498 0.81405,0.68498 h 3.116069 c 2.9409,0 3.15541,-0.0365 3.81615,-0.64883 z m 20.46402,-40.82461 c -0.0611,-0.10914 -0.0161,-1.50812 0.0999,-3.10885 0.11605,-1.60073 0.21853,-3.3569 0.22773,-3.90261 l 0.0167,-0.99218 h 10.8087 10.8087 l 0.16992,2.18281 c 0.0935,1.20055 0.17064,3.04601 0.17151,4.10104 l 0.002,1.91823 h -11.09688 c -6.10329,0 -11.14686,-0.0893 -11.20794,-0.19844 z m -36.314882,-7.9375 c 0.09921,-1.27331 0.240377,-2.52346 0.313708,-2.77812 0.124141,-0.43112 0.868744,-0.46302 10.806294,-0.46302 h 10.67297 l 0.1513,1.25677 c 0.0832,0.69122 0.22716,1.94138 0.31989,2.77812 l 0.1686,1.52136 H 100.9396 89.633029 Z m 37.312432,-9.07508 c -0.0493,-0.08 0.0181,-1.62778 0.14967,-3.43958 0.13162,-1.81181 0.24296,-3.56208 0.24742,-3.8895 l 0.008,-0.59532 h 9.88629 9.88629 l 0.19106,3.85737 c 0.10509,2.12156 0.14814,3.9003 0.0957,3.95277 -0.15827,0.15827 -20.3678,0.27111 -20.4645,0.11426 z m -36.329348,-2.99391 0.08975,-1.81639 -0.901259,-0.30028 c -1.49202,-0.4971 -2.009157,-1.47028 -2.009157,-3.78096 v -1.98668 l 0.86407,-0.77205 0.86407,-0.77204 h 10.989174 c 8.99362,0 11.12157,0.0685 11.71827,0.37703 2.34797,1.21418 1.5615,7.0313 -0.95063,7.0313 h -0.6696 l 0.13208,1.84604 0.13209,1.84605 -10.1743,0.0722 -10.174308,0.0722 z"
         id="path5"
         inkscape:label="Black" /></g><g
       id="g7"
       inkscape:export-filename="Mill.svg"
       inkscape:export-xdpi="96"
       inkscape:export-ydpi="96"
       transform="matrix(0.76754429,0,0,0.76754429,409.99905,43.245619)"><path
         style="fill:#e49f27"
         d="m 157.75616,209.54073 c -1.28043,-0.57203 -7.68814,-7.43134 -18.80459,-20.12989 -11.53561,-13.17737 -21.31695,-25.55427 -25.78797,-32.63102 l -1.39242,-2.20393 2.48728,-2.54656 c 1.36801,-1.40061 2.7995,-2.86588 3.18109,-3.25617 l 0.69379,-0.7096 -5.45629,-5.40598 -5.4563,-5.40598 -1.98438,0.0243 -1.98437,0.0243 -5.353128,5.42677 -5.353127,5.42677 3.038023,3.02941 c 1.670913,1.66617 3.038023,3.10139 3.038023,3.18937 0,2.63831 -26.065731,34.64381 -41.354712,50.77848 -6.373839,6.72639 -4.192749,7.74988 -22.578849,-10.59521 -18.881618,-18.83949 -18.678984,-15.06871 -1.550811,-28.85882 15.9162,-12.81432 42.730832,-32.51016 44.260525,-32.51016 0.100797,0 2.000483,1.81438 4.221526,4.03195 l 4.038258,4.03196 4.856286,-4.85097 4.856285,-4.85096 0.167861,-2.55443 0.167862,-2.55442 -4.95565,-4.96094 c -5.914609,-5.92092 -4.781317,-5.8007 -9.35274,-0.99219 -2.075189,2.18281 -3.877299,3.96875 -4.004689,3.96875 -1.440702,0 -17.562371,-11.79439 -36.847191,-26.956896 C 22.814959,83.558066 19.515283,80.564748 19.512771,78.418552 l -0.0014,-1.190206 15.154423,-15.147814 15.154422,-15.147814 h 1.228104 c 1.778519,0 1.694927,-0.06377 5.83996,4.455021 16.474447,17.959941 36.04399,42.129866 40.807947,50.401021 l 0.736049,1.27793 -1.691184,1.75603 c -0.93015,0.96581 -1.755118,1.8195 -1.83326,1.89707 -0.07814,0.0776 -0.702331,0.74776 -1.387085,1.48929 l -1.245007,1.34824 5.513121,5.55468 5.513119,5.55469 2.21293,0.17065 2.21294,0.17064 5.25569,-5.22148 5.2557,-5.22149 -3.52487,-3.35601 -3.52488,-3.356 0.43156,-0.72067 c 1.15879,-1.93507 6.10712,-8.887024 8.92823,-12.543364 l 3.16423,-4.101041 -0.43416,-0.529167 c -0.23878,-0.291042 -0.26467,-0.380338 -0.0575,-0.198437 0.60703,0.533056 0.6022,0.537701 4.53952,-4.365625 11.77895,-14.668895 27.06818,-32.228021 28.76152,-33.031563 2.31917,-1.100518 -0.0701,-3.141588 25.69274,21.948559 8.30883,8.09188 8.51213,8.389995 7.30873,10.717114 -0.84709,1.638088 -22.67935,19.649904 -36.08262,29.768504 -2.411,1.82014 -2.6869,2.10987 -2.38125,2.50068 0.3081,0.39395 0.29639,0.4034 -0.1077,0.0869 -0.39979,-0.31315 -0.85985,-0.0528 -3.89194,2.20215 -5.09398,3.78845 -9.28127,6.72465 -11.62761,8.15349 l -2.08351,1.26878 -3.1426,-3.21425 c -1.72844,-1.76784 -3.59092,-3.57074 -4.13885,-4.00644 l -0.99624,-0.79218 -2.33684,2.34054 c -1.28527,1.2873 -3.61788,3.6737 -5.18359,5.30312 l -2.84673,2.96257 0.1866,1.85812 0.1866,1.85811 4.90404,4.94781 4.90404,4.9478 3.81911,-3.86767 3.81911,-3.86768 1.75391,1.07352 c 9.77427,5.98251 33.69296,23.81121 50.75545,37.83249 7.99324,6.56853 8.96153,4.19378 -9.08024,22.26935 -15.94112,15.97098 -15.88039,15.9213 -18.19732,14.88623 z m -49.43761,-73.43418 c 2.3733,-1.04864 4.07482,-3.50331 4.27563,-6.16815 0.50278,-6.67233 -7.16336,-10.44485 -12.21386,-6.01045 -6.298983,5.53057 0.2489,15.57614 7.93823,12.1786 z"
         id="path8" /><path
         style="fill:#1f2a30"
         d="m 62.109293,216.68424 v -16.77971 l 3.610462,-4.05622 c 15.337421,-17.23103 32.902036,-39.37267 32.902036,-41.47572 0,-0.088 -1.36711,-1.5232 -3.038023,-3.18937 l -3.038023,-3.02941 5.353127,-5.42677 5.353128,-5.42677 1.98437,-0.0243 1.98438,-0.0243 5.4563,5.40598 5.45629,5.40598 -0.69379,0.7096 c -0.38159,0.39029 -1.81308,1.85556 -3.18109,3.25617 l -2.48728,2.54656 1.39242,2.20393 c 5.43502,8.60257 17.21219,23.15178 33.01704,40.78837 l 3.77031,4.20728 v 2.10147 c 0,1.15581 0.23512,7.48205 0.52248,14.05831 0.28735,6.57626 0.55525,12.76076 0.59531,13.74333 l 0.0728,1.78649 -18.1901,-5.6e-4 -18.19011,-5.5e-4 V 216.5307 199.59736 h -9.3927 -9.392712 v 16.93334 16.93333 H 79.042625 62.109293 Z m 84.518027,-73.76066 c -3.57313,-2.57311 -10.17629,-7.05234 -12.33498,-8.36739 l -1.76798,-1.07705 -3.81911,3.86768 -3.81911,3.86767 -4.90404,-4.9478 -4.90404,-4.94781 -0.1866,-1.85811 -0.1866,-1.85812 2.84673,-2.96257 c 1.56571,-1.62942 3.89832,-4.01582 5.18359,-5.30312 l 2.33684,-2.34054 0.99624,0.79218 c 0.54793,0.4357 2.41041,2.2386 4.13885,4.00644 l 3.1426,3.21425 2.08351,-1.26878 c 2.3454,-1.42827 6.53338,-4.36486 11.62126,-8.14876 l 3.4322,-2.55256 0.62539,0.4827 c 1.59624,1.23203 12.82449,11.59531 13.57307,12.52745 3.17325,3.95141 -2.17742,11.32533 -6.91179,9.52533 -0.37329,-0.14193 -2.51674,-1.92787 -4.76323,-3.96875 -2.24648,-2.04089 -4.14479,-3.71071 -4.21847,-3.71071 -0.13495,0 -0.10874,0.77082 0.37689,11.08382 0.31741,6.74084 0.64206,6.23692 -2.54122,3.94455 z m -84.580177,-7.4046 -0.07014,-7.72207 -3.932939,3.68717 c -6.290067,5.89701 -7.200521,6.11886 -10.932307,2.66388 -2.449861,-2.26814 -3.127613,-4.57168 -1.978874,-6.72579 0.854891,-1.60308 15.18517,-14.62706 15.691471,-14.26108 0.239168,0.17288 2.203699,1.60782 4.365625,3.18876 3.698235,2.70437 9.468006,6.61171 11.421237,7.73456 l 0.87588,0.50351 3.844516,-4.03489 c 4.65361,-4.88406 3.501727,-4.99731 9.418762,0.92604 l 4.95565,4.96094 -0.167862,2.55442 -0.167861,2.55443 -4.856285,4.85096 -4.856286,4.85097 -4.038258,-4.03196 c -4.880643,-4.87302 -3.105564,-5.21009 -14.530824,2.75926 -2.572865,1.79463 -4.743957,3.26296 -4.824649,3.26296 -0.08069,0 -0.178275,-3.47493 -0.216854,-7.72207 z m 42.845947,-14.69883 -1.53391,-0.0958 -5.541716,-5.58349 -5.541717,-5.5835 1.245007,-1.34824 c 0.684754,-0.74153 1.308942,-1.41171 1.387085,-1.48929 0.07814,-0.0776 0.90311,-0.93126 1.83326,-1.89707 l 1.691184,-1.75603 -0.736719,-1.27793 c -1.031182,-1.7887 -5.454045,-8.108869 -8.18636,-11.698111 L 87.216423,87.07879 91.13317,83.353581 c 2.15421,-2.048864 5.762215,-5.532374 8.017788,-7.741132 6.695582,-6.556612 5.796932,-6.769485 17.501902,4.145872 l 7.11858,6.638357 -0.47014,0.618715 c -0.25857,0.340293 -1.91014,2.503948 -3.67015,4.808123 -3.24648,4.250256 -8.30409,11.488484 -8.31573,11.901104 -0.004,0.12419 1.55293,1.71408 3.45873,3.5331 l 3.4651,3.30729 -5.25975,5.22552 c -4.18914,4.16188 -5.39131,5.21533 -5.90612,5.17549 -0.35551,-0.0275 -1.33664,-0.0932 -2.18029,-0.14587 z"
         id="path7" /></g></g></svg>
