<?xml version="1.0" encoding="UTF-8" standalone="no"?>
<!-- Created with Inkscape (http://www.inkscape.org/) -->

<svg
   width="153.07571mm"
   height="151.78331mm"
   viewBox="0 0 153.07571 151.78331"
   version="1.1"
   id="svg1"
   xml:space="preserve"
   xmlns="http://www.w3.org/2000/svg"
   xmlns:svg="http://www.w3.org/2000/svg"><defs
     id="defs1" /><g
     id="layer1"
     transform="translate(-253.99451,-230.26679)"><g
       id="g5"
       transform="translate(229.65056,165.61338)"><path
         style="fill:#eda925"
         d="m 26.868522,208.61582 c 0.05482,-0.0548 -0.282521,-0.35484 -0.749639,-0.66674 -1.37965,-0.92119 -1.774463,-2.03267 -1.774934,-4.9968 -8.73e-4,-5.49183 -0.02662,-5.47934 11.30186,-5.48062 l 8.78873,-9.8e-4 c 0.164609,-6.27826 0.162609,-6.27893 0.28192,0 h 43.656248 43.656253 v -3.8491 -3.84909 l 0.70009,-0.64882 0.7001,-0.64883 8.36188,0.008 c 10.4621,0.0105 9.81709,-0.34363 9.81709,5.3903 v 3.58143 l 11.92677,0.074 11.92676,0.074 0.90553,0.9883 0.90553,0.9883 -0.002,3.24503 c -0.002,3.4939 -0.21889,4.19018 -1.61383,5.17783 -0.58263,0.41252 -149.200476,1.0252 -148.788602,0.61339 z m 35.02551,-29.38104 -0.773397,-0.7734 v -5.82088 -5.82089 l 0.684978,-0.81405 0.684978,-0.81405 h 3.304124 3.304125 l 0.787513,0.78751 0.787514,0.78752 -0.08026,5.98273 -0.08026,5.98273 -0.742358,0.63809 c -0.695532,0.59784 -0.942987,0.63809 -3.922957,0.63809 h -3.180598 z m 17.991666,0 -0.773397,-0.7734 v -5.86154 -5.86153 l 0.773397,-0.7734 0.773398,-0.7734 h 3.159671 c 2.795923,0 3.239927,0.0631 3.85681,0.54837 l 0.69714,0.54837 v 6.04457 c 0,7.9691 0.182544,7.67536 -4.769713,7.67536 H 80.65908 Z m 18.032319,0.0884 -0.814051,-0.68498 v -6.07392 -6.07393 l 0.649432,-0.64943 0.649432,-0.64943 h 3.28364 c 2.92134,0 3.36056,0.0605 3.98078,0.54837 l 0.69714,0.54837 v 6.21114 6.21114 l -0.7001,0.64882 c -0.66074,0.61236 -0.87525,0.64883 -3.81615,0.64883 h -3.116073 z m 51.044213,-31.74851 c -3e-5,-0.14336 -4.81942,-0.24253 -11.78597,-0.24253 h -11.78591 l 0.13346,-0.92604 c 0.0734,-0.50933 0.20946,-2.47386 0.30234,-4.36563 l 0.16888,-3.43958 11.20093,0.0717 11.20093,0.0717 c 0.18514,-1.7542 0.26614,0.34417 0.28768,1.0472 0.0364,1.38245 0.15025,3.70417 0.25304,5.15938 0.10279,1.45521 0.15039,2.69544 0.10578,2.75607 -0.0446,0.0606 -0.0811,0.001 -0.0812,-0.13229 z m -48.1176,-7.45238 -12.002031,-0.0716 0.150907,-1.12176 c 0.083,-0.61697 0.221488,-1.9552 0.307752,-2.97385 0.08626,-1.01864 0.212553,-2.11997 0.280642,-2.44739 l 0.123799,-0.59531 h 11.239751 c 8.80597,0 11.24358,0.0716 11.25744,0.33072 0.01,0.18191 0.16293,1.84878 0.34045,3.70417 0.17751,1.85539 0.31837,3.34492 0.31303,3.31006 -0.005,-0.0349 -5.41063,-0.0956 -12.01174,-0.13501 z m 25.72147,-11.24484 c 0.0853,-0.9095 0.23147,-2.91956 0.32489,-4.46678 l 0.16984,-2.81314 10.28068,-0.0453 10.28068,-0.0453 0.12448,0.60944 c 0.0685,0.33518 0.19537,2.3656 0.28202,4.51203 l 0.15754,3.90261 H 137.29864 126.41105 Z M 90.071981,127.3561 c 0.06322,-0.36381 0.19794,-1.91162 0.299377,-3.43959 0.274584,-4.13611 -0.970782,-3.70416 10.679562,-3.70416 h 10.01378 l 0.16866,2.05052 c 0.0928,1.12778 0.23751,2.73513 0.32165,3.57187 l 0.15298,1.52136 h -10.71955 c -8.3161,0 -10.754519,0.0742 -10.875482,0.33073 -0.08576,0.1819 -0.104197,0.0331 -0.04098,-0.33073 z m 10.821499,-25.06927 c -2.466696,-5.024937 -0.0426,-11.714179 5.13347,-14.165984 l 1.79262,-0.849123 h 3.38114 3.38114 l 0.2837,-1.053902 c 1.3256,-4.924449 5.01551,-7.677347 10.29051,-7.677347 h 3.04899 l 1.75118,0.862458 c 8.4639,4.168463 6.10758,19.376005 -3.00249,19.377957 -0.80159,1.72e-4 -1.07866,0.152549 -1.56393,0.860104 -2.90673,4.238207 -6.63274,4.902257 -11.38739,2.029457 l -1.93569,-1.16956 -2.52045,0.001 c -2.7904,10e-4 -4.20858,0.52478 -6.53373,2.41124 -1.38502,1.1237 -1.23863,1.16699 -2.11907,-0.62657 z M 67.328269,87.602452 c -3.487753,-7.754309 2.149772,-15.308677 11.166692,-14.963535 2.015342,0.07714 2.998642,0.02244 2.998782,-0.166833 0.004,-5.371597 9.470723,-9.730484 15.113991,-6.95912 8.472936,4.160993 6.510126,17.918948 -2.731351,19.144873 -1.131758,0.150133 -1.393092,0.303836 -1.920012,1.129253 -2.371325,3.714666 -6.836802,4.278489 -10.891254,1.375159 -3.319067,-2.376731 -7.349303,-2.004175 -11.400334,1.053849 -1.697089,1.281092 -1.45579,1.344466 -2.336514,-0.613646 z"
         id="path6" /><path
         style="fill:#1c2830"
         d="m 26.894796,216.24935 c -3.070771,-0.92316 -3.470186,-5.41008 -0.635448,-7.13844 l 0.862314,-0.52576 73.646468,-9.9e-4 c 81.96304,-0.001 74.80807,-0.16998 76.02211,1.79439 1.16432,1.8839 0.68559,4.05133 -1.20693,5.46432 l -0.73065,0.54551 -73.60091,0.0441 c -40.480508,0.0243 -73.941136,-0.0582 -74.356954,-0.18316 z m 17.821657,-42.0794 c 0,-28.06442 -0.739042,-25.11802 6.300323,-25.11802 h 4.209935 l 0.179739,-1.75436 c 0.09886,-0.9649 0.647727,-7.30497 1.219711,-14.08906 1.672369,-19.83531 2.106829,-24.87603 2.382508,-27.64243 0.142927,-1.43424 0.259867,-3.01182 0.259867,-3.50572 v -0.89801 h -1.409088 c -2.438393,0 -3.777976,-3.993075 -2.053872,-6.122253 l 0.50579,-0.624624 h 10.200385 c 12.037543,0 11.09489,-0.265886 11.238025,3.169813 0.119933,2.878774 -0.405972,3.577064 -2.694006,3.577064 h -1.434734 l 0.108476,1.12448 c 0.05966,0.61846 0.521759,6.42276 1.026883,12.89843 0.505124,6.47568 1.159102,14.81005 1.453284,18.52084 0.294182,3.71078 0.680896,8.65187 0.859364,10.9802 l 0.324488,4.23334 5.357293,0.0716 c 4.974897,0.0665 5.357686,0.0382 5.36279,-0.39687 0.003,-0.25768 0.178093,-2.13538 0.389043,-4.17267 0.210951,-2.03729 0.387071,-3.85421 0.391379,-4.03759 0.0062,-0.26419 2.493567,-0.31913 11.978444,-0.26458 l 11.97062,0.0688 0.32588,3.83646 c 0.17924,2.11005 0.39067,4.10434 0.46985,4.43177 l 0.14395,0.59531 3.3684,9.9e-4 c 5.5127,0.002 5.61735,0.1424 5.61735,7.55686 v 5.14215 h 0.90701 0.907 l 0.14909,-1.38906 c 0.082,-0.76399 0.29893,-4.00844 0.48206,-7.2099 l 0.33297,-5.82083 h 11.7193 11.71931 l 0.10696,0.52916 c 0.0976,0.48297 0.66923,11.90366 0.66543,13.29532 l -0.002,0.59531 h 7.1313 c 10.44149,0 9.27287,-2.38247 9.27287,18.90457 v 16.81418 h -7.27604 -7.27605 v -3.58927 c 0,-5.74305 0.64638,-5.38762 -9.81709,-5.39815 l -8.36188,-0.008 -0.7001,0.64883 -0.70009,0.64882 v 3.84909 3.8491 H 88.372701 44.716453 Z m 25.054516,5.20014 0.742358,-0.63809 0.08026,-5.98273 0.08026,-5.98273 -0.787514,-0.78752 -0.787513,-0.78751 h -3.304125 -3.304124 l -0.684978,0.81405 -0.684978,0.81405 v 5.82089 5.82088 l 0.773397,0.7734 0.773398,0.7734 h 3.180598 c 2.97997,0 3.227425,-0.0403 3.922957,-0.63809 z m 17.524475,0.251 c 1.067594,-0.55208 1.077257,-0.61745 1.077257,-7.28827 v -6.04457 l -0.69714,-0.54837 c -0.616883,-0.48524 -1.060887,-0.54837 -3.85681,-0.54837 H 80.65908 l -0.773398,0.7734 -0.773397,0.7734 v 5.86153 5.86154 l 0.773397,0.7734 0.773398,0.7734 h 2.943908 c 2.066243,0 3.167072,-0.11541 3.692456,-0.38709 z m 18.368826,-0.26174 0.7001,-0.64882 v -6.21114 -6.21114 l -0.69714,-0.54837 c -0.62022,-0.48786 -1.05944,-0.54837 -3.98078,-0.54837 h -3.283636 l -0.649432,0.64943 -0.649432,0.64943 v 6.07393 6.07392 l 0.814051,0.68498 0.81405,0.68498 h 3.116069 c 2.9409,0 3.15541,-0.0365 3.81615,-0.64883 z m 20.46402,-40.82461 c -0.0611,-0.10914 -0.0161,-1.50812 0.0999,-3.10885 0.11605,-1.60073 0.21853,-3.3569 0.22773,-3.90261 l 0.0167,-0.99218 h 10.8087 10.8087 l 0.16992,2.18281 c 0.0935,1.20055 0.17064,3.04601 0.17151,4.10104 l 0.002,1.91823 h -11.09688 c -6.10329,0 -11.14686,-0.0893 -11.20794,-0.19844 z m -36.314882,-7.9375 c 0.09921,-1.27331 0.240377,-2.52346 0.313708,-2.77812 0.124141,-0.43112 0.868744,-0.46302 10.806294,-0.46302 h 10.67297 l 0.1513,1.25677 c 0.0832,0.69122 0.22716,1.94138 0.31989,2.77812 l 0.1686,1.52136 H 100.9396 89.633029 Z m 37.312432,-9.07508 c -0.0493,-0.08 0.0181,-1.62778 0.14967,-3.43958 0.13162,-1.81181 0.24296,-3.56208 0.24742,-3.8895 l 0.008,-0.59532 h 9.88629 9.88629 l 0.19106,3.85737 c 0.10509,2.12156 0.14814,3.9003 0.0957,3.95277 -0.15827,0.15827 -20.3678,0.27111 -20.4645,0.11426 z m -36.329348,-2.99391 0.08975,-1.81639 -0.901259,-0.30028 c -1.49202,-0.4971 -2.009157,-1.47028 -2.009157,-3.78096 v -1.98668 l 0.86407,-0.77205 0.86407,-0.77204 h 10.989174 c 8.99362,0 11.12157,0.0685 11.71827,0.37703 2.34797,1.21418 1.5615,7.0313 -0.95063,7.0313 h -0.6696 l 0.13208,1.84604 0.13209,1.84605 -10.1743,0.0722 -10.174308,0.0722 z"
         id="path5" /></g></g></svg>
