<?xml version="1.0" encoding="UTF-8" standalone="no"?>
<!-- Created with Inkscape (http://www.inkscape.org/) -->

<svg
   width="159.95348mm"
   height="136.81924mm"
   viewBox="0 0 159.95348 136.81924"
   version="1.1"
   id="svg1"
   xml:space="preserve"
   xmlns="http://www.w3.org/2000/svg"
   xmlns:svg="http://www.w3.org/2000/svg"><defs
     id="defs1" /><g
     id="layer1"
     transform="translate(-763.37213,-246.05702)"><g
       id="g10"
       transform="translate(733.55693,163.46386)"><path
         style="fill:#eaa41a"
         d="M 78.896724,183.43002 C 61.485032,181.749 49.756369,174.17756 49.369087,164.36844 c -0.160679,-4.06969 -0.390014,-4.87741 -1.670896,-5.88496 l -0.667342,-0.52493 8.64326,0.002 8.64326,0.002 1.287433,0.59946 c 0.934526,0.43514 1.670306,1.07183 2.684184,2.3227 13.051917,16.1028 59.626594,16.33077 70.117014,0.34321 1.42941,-2.17844 3.39999,-3.27028 5.90232,-3.27028 h 1.64583 l -0.66735,0.52493 c -1.23098,0.9683 -1.49581,1.84763 -1.68447,5.59301 l -0.17522,3.47858 -0.89498,1.81088 c -2.95771,5.98452 -12.19113,11.28518 -23.54218,13.51492 l -2.89073,0.56784 -18.098513,0.0392 c -9.95418,0.0216 -18.550973,-0.004 -19.103983,-0.0579 z m 18.349879,-18.08008 c -0.414758,-0.0578 -1.998377,-0.27623 -3.519155,-0.48531 -9.52973,-1.31015 -15.502523,-4.24104 -11.965301,-5.87145 9.783818,-4.50965 27.403793,-2.68593 37.768873,3.90921 l 1.1695,0.74413 -1.42086,0.31692 c -5.34855,1.19299 -6.60643,1.31942 -13.98928,1.4061 -4.00932,0.0471 -7.62902,0.0383 -8.043777,-0.0196 z M 109.50635,129.6452 c -6.15609,-3.0351 -5.76125,-10.28882 0.94357,-17.33457 4.00039,-4.20379 4.75425,-5.43257 4.95755,-8.08068 0.41561,-5.413479 5.10659,-4.944721 7.84041,0.78347 2.33558,4.89377 1.20347,8.48812 -4.56027,14.47855 -3.4835,3.6205 -4.05732,4.53693 -4.5873,7.32623 -0.54923,2.89064 -2.29094,3.96244 -4.59396,2.827 z M 94.906908,119.56023 c -7.733138,-4.14733 -7.440212,-13.13266 0.723123,-22.181412 5.072359,-5.622513 6.266879,-7.669899 6.266879,-10.741255 0,-6.085349 6.68559,-5.07533 9.91406,1.497756 2.74884,5.596567 1.61546,9.285335 -5.06535,16.486021 -5.01145,5.40143 -5.63981,6.47537 -6.22386,10.63719 -0.578934,4.1254 -2.787944,5.81779 -5.614852,4.3017 z"
         id="path12" /><path
         style="fill:#1e2a30"
         d="m 91.590818,219.28504 c -33.688464,-1.83971 -59.588671,-23.91606 -61.627088,-52.5286 -0.387505,-5.43927 -0.101966,-6.6751 1.882215,-8.14635 l 0.709177,-0.52585 7.224313,-0.0735 7.224313,-0.0735 0.680893,0.53559 c 1.29545,1.019 1.523409,1.81686 1.684446,5.89561 0.243792,6.1748 2.95041,9.53468 11.303443,14.03161 8.536016,4.59544 11.951309,5.07237 36.322704,5.07237 h 18.852616 l 3.01174,-0.5781 c 11.37984,-2.18436 20.6978,-7.50939 23.67254,-13.52837 l 0.89498,-1.81088 0.17522,-3.47858 c 0.18866,-3.74538 0.45349,-4.62471 1.68447,-5.59301 l 0.66735,-0.52493 6.94156,0.004 6.94157,0.004 0.98184,0.56145 c 2.12323,1.21411 2.65258,4.14488 1.91326,10.59272 -3.47904,30.34165 -34.43361,52.16865 -71.141562,50.16405 z m 28.027552,-56.30866 c -9.27469,-6.52721 -28.349235,-8.48948 -37.995048,-3.90871 l -1.802308,0.85592 -0.524987,-0.55883 c -1.644059,-1.75002 3.620667,-9.36166 9.443569,-13.65333 6.632598,-4.88844 13.795094,-6.9979 25.851414,-7.61363 12.83845,-0.65567 10.80741,0.5789 45.45516,-27.63008 16.54925,-13.473825 14.92422,-12.496844 20.43139,-12.283443 7.06408,0.273731 11.42092,7.235913 8.22625,13.145473 -1.11474,2.06208 0.93102,0.68686 -26.7299,17.96864 -26.69556,16.67865 -27.94889,17.72249 -32.21098,26.82685 -2.21195,4.72501 -7.80163,8.50001 -10.14456,6.85114 z"
         id="path11" /></g></g></svg>
