<?xml version="1.0" encoding="UTF-8" standalone="no"?>
<!-- Created with Inkscape (http://www.inkscape.org/) -->

<svg
   width="143.04999mm"
   height="131.8524mm"
   viewBox="0 0 143.04999 131.8524"
   version="1.1"
   id="svg1"
   xml:space="preserve"
   xmlns="http://www.w3.org/2000/svg"
   xmlns:svg="http://www.w3.org/2000/svg"><defs
     id="defs1" /><g
     id="layer1"
     transform="translate(-589.88403,-247.19298)"><g
       id="g9"
       transform="translate(554.15093,160.48417)"><rect
         style="fill:#ffffff;stroke:none;stroke-width:1.5;stroke-linecap:round;stroke-linejoin:round"
         id="rect10"
         width="102.31228"
         height="91.639404"
         x="57.41264"
         y="118.8736" /><path
         style="fill:#e49c1a"
         d="m 40.215778,218.28576 c -5.678984,-2.02972 -6.047085,-9.20798 -0.617948,-12.05047 l 1.028893,-0.53868 7.488056,-0.0713 7.488055,-0.0713 v -26.62274 c 0,-14.6425 -0.03901,-26.62273 -0.08669,-26.62273 -0.04768,0 -0.639294,0.25123 -1.314696,0.55829 -10.549815,4.79628 -18.090947,-6.24088 -11.473082,-16.79194 6.250264,-9.96499 7.664038,-11.92402 8.020619,-12.21898 39.505494,-32.678374 60.213625,-35.612461 115.513965,-0.31868 0.25581,0.16326 1.46191,2.06137 2.76048,4.11557 1.29858,2.0542 3.43813,5.43258 4.75455,7.50752 3.07073,4.84007 3.27719,5.31902 3.41311,7.91748 0.39074,7.47016 -6.42545,12.57091 -13.44016,10.05765 -0.94315,-0.33791 -1.81771,-0.63648 -1.94346,-0.66349 -0.15114,-0.0325 -0.24835,8.96086 -0.28676,26.53064 l -0.0581,26.57974 h 5.78984 c 4.52406,0 6.04665,0.0763 6.96448,0.34882 5.669,1.68351 6.19338,9.3772 0.81944,12.02267 l -1.11082,0.54683 -66.42077,0.0477 c -55.445811,0.0399 -66.56422,-0.004 -67.28899,-0.26258 z m 65.482892,-32.39834 c 3.06063,-1.02474 3.17796,-1.45833 3.17796,-11.74354 0,-13.0664 2.14337,-11.7751 -19.544956,-11.7751 -22.014161,0 -19.997365,-1.1971 -20.005244,11.8744 l -0.005,8.33044 0.476909,0.98516 c 0.516481,1.06691 1.396272,1.8083 2.697814,2.27342 1.121535,0.40079 32.016937,0.45217 33.202537,0.0552 z M 73.561838,152.77765 c 4.025743,-1.98187 5.551394,-5.03565 5.575446,-11.15994 l 0.01178,-2.99977 1.716816,-6.66602 c 0.944249,-3.6663 1.716816,-6.75929 1.716816,-6.8733 0,-0.11968 -3.068008,-0.20564 -7.259412,-0.2034 l -7.259412,0.004 -2.629394,5.18968 c -1.446166,2.85432 -3.221254,6.25479 -3.944638,7.55659 -5.247054,9.44256 2.899556,19.66785 12.071997,15.15228 z m 38.131032,0.44169 c 2.73585,-0.84502 4.95535,-2.99006 6.15908,-5.95247 l 0.50632,-1.24606 0.0781,-8.57411 c 0.0682,-7.49668 0.0273,-8.82551 -0.32593,-10.57474 l -0.40399,-2.00062 h -9.05843 -9.058436 l -0.403904,2.00062 c -0.353646,1.75169 -0.394066,3.08174 -0.324841,10.68906 l 0.07906,8.68843 0.508215,1.25754 c 1.937536,4.79425 7.227426,7.26206 12.244786,5.71235 z m 39.29947,-0.0116 c 5.37375,-1.81028 8.28769,-8.88091 5.68123,-13.78541 -0.34356,-0.64647 -1.39671,-2.61585 -2.34033,-4.3764 -0.94362,-1.76055 -2.46743,-4.64145 -3.38625,-6.402 -0.91881,-1.76055 -1.77031,-3.32962 -1.89221,-3.48681 -0.16889,-0.2178 -1.91851,-0.2858 -7.35286,-0.2858 h -7.13122 l 1.77936,7.03077 1.77935,7.03077 0.007,3.33098 c 0.0173,8.54138 5.67967,13.36149 12.85617,10.9439 z"
         id="path10" /><path
         style="display:inline;fill:#233239"
         d="m 40.323386,218.27642 c -5.679308,-1.77696 -6.166795,-9.29029 -0.774586,-11.93821 l 1.306566,-0.6416 7.373734,-0.0715 7.373734,-0.0715 V 178.89331 152.233 l 1.374466,-1.43136 c 1.282048,-1.33512 2.50509,-3.39524 2.51023,-4.22828 0.0054,-0.87474 0.334159,-0.54843 0.778885,0.77308 2.963645,8.80646 16.194352,8.26564 18.503246,-0.75635 l 0.319584,-1.24877 0.367748,1.26501 c 2.70046,9.28926 15.965596,9.439 19.022314,0.21473 l 0.416719,-1.25754 0.271124,1.05348 c 2.36571,9.1922 15.73706,9.44138 18.80614,0.35046 l 0.44468,-1.31721 0.39253,1.21417 c 2.94267,9.10244 16.02791,8.98409 18.86042,-0.17058 l 0.39138,-1.26496 0.36873,1.32486 c 2.47726,8.9008 18.68926,8.96058 18.68926,0.0689 0,-0.83284 0.32416,-0.6301 0.70031,0.43801 0.50484,1.43356 1.55583,2.96143 2.72623,3.96325 l 0.91767,0.78549 v 26.77009 26.77009 l 6.23052,0.0745 6.23052,0.0745 1.11919,0.55418 c 4.949,2.45056 4.97855,9.0311 0.0522,11.62983 l -1.17142,0.61795 -66.30644,0.0427 c -55.204987,0.0355 -66.472077,-0.009 -67.295714,-0.26686 z M 148.20321,185.91165 c 0,-21.51058 0.0571,-20.56229 -1.32682,-22.02048 -0.33915,-0.35733 -1.0282,-0.87178 -1.53121,-1.14321 l -0.91458,-0.49351 h -9.14571 -9.14572 l -0.94297,0.50442 c -1.06657,0.57054 -2.06549,1.65863 -2.52132,2.7464 -0.25057,0.59794 -0.30832,4.42002 -0.30832,20.40638 v 19.67064 h 12.91833 12.91832 z m -49.273892,16.013 c 2.926872,-1.41687 2.977922,-6.14085 0.08048,-7.44742 l -0.978885,-0.44141 H 85.105177 72.179445 l -0.799473,0.46965 c -2.895073,1.7007 -2.566095,6.60356 0.509247,7.58949 0.480348,0.15399 5.277494,0.24798 13.422166,0.26298 l 12.674654,0.0233 z m 7.319882,-16.20343 c 2.61107,-1.18618 2.85608,-2.19634 2.85608,-11.77573 0,-12.7975 1.66338,-11.84796 -20.593629,-11.75581 l -15.646277,0.0648 -0.914572,0.49351 c -2.594542,1.40003 -2.629393,1.55183 -2.629393,11.45294 v 8.37272 l 0.480691,0.99297 c 0.510417,1.05438 1.479139,1.91129 2.605988,2.30518 1.376245,0.48107 32.758082,0.34146 33.841112,-0.15055 z M 51.297132,122.07046 c 0.119945,-4.4316 1.147037,-6.14138 4.958886,-8.25498 49.636622,-27.522538 49.194882,-27.295831 52.734932,-27.064563 2.9066,0.189885 2.51828,0.0012 20.80651,10.111337 14.45139,7.989076 27.67895,15.265466 29.95222,16.476526 4.72161,2.51538 5.85092,4.15495 6.01427,8.73168 l 0.1,2.80088 h -57.3213 -57.321296 z m 61.068798,-3.76893 c 7.66501,-3.59527 5.86651,-13.8652 -2.66027,-15.19083 -8.1837,-1.27229 -13.547892,7.87996 -7.90707,13.49086 2.63973,2.62573 7.07311,3.33893 10.56734,1.69997 z"
         id="path9" /></g></g></svg>
