<?xml version="1.0" encoding="UTF-8" standalone="no"?>
<!-- Created with Inkscape (http://www.inkscape.org/) -->

<svg
   width="131.24115mm"
   height="143.17194mm"
   viewBox="0 0 131.24115 143.17194"
   version="1.1"
   id="svg1"
   xml:space="preserve"
   xmlns="http://www.w3.org/2000/svg"
   xmlns:svg="http://www.w3.org/2000/svg"><defs
     id="defs1" /><g
     id="layer1"
     transform="translate(-436.75183,-233.84099)"><g
       id="g7"
       transform="matrix(0.76754429,0,0,0.76754429,421.776,197.81811)"><path
         style="fill:#e49f27"
         d="m 157.75616,209.54073 c -1.28043,-0.57203 -7.68814,-7.43134 -18.80459,-20.12989 -11.53561,-13.17737 -21.31695,-25.55427 -25.78797,-32.63102 l -1.39242,-2.20393 2.48728,-2.54656 c 1.36801,-1.40061 2.7995,-2.86588 3.18109,-3.25617 l 0.69379,-0.7096 -5.45629,-5.40598 -5.4563,-5.40598 -1.98438,0.0243 -1.98437,0.0243 -5.353128,5.42677 -5.353127,5.42677 3.038023,3.02941 c 1.670913,1.66617 3.038023,3.10139 3.038023,3.18937 0,2.63831 -26.065731,34.64381 -41.354712,50.77848 -6.373839,6.72639 -4.192749,7.74988 -22.578849,-10.59521 -18.881618,-18.83949 -18.678984,-15.06871 -1.550811,-28.85882 15.9162,-12.81432 42.730832,-32.51016 44.260525,-32.51016 0.100797,0 2.000483,1.81438 4.221526,4.03195 l 4.038258,4.03196 4.856286,-4.85097 4.856285,-4.85096 0.167861,-2.55443 0.167862,-2.55442 -4.95565,-4.96094 c -5.914609,-5.92092 -4.781317,-5.8007 -9.35274,-0.99219 -2.075189,2.18281 -3.877299,3.96875 -4.004689,3.96875 -1.440702,0 -17.562371,-11.79439 -36.847191,-26.956896 C 22.814959,83.558066 19.515283,80.564748 19.512771,78.418552 l -0.0014,-1.190206 15.154423,-15.147814 15.154422,-15.147814 h 1.228104 c 1.778519,0 1.694927,-0.06377 5.83996,4.455021 16.474447,17.959941 36.04399,42.129866 40.807947,50.401021 l 0.736049,1.27793 -1.691184,1.75603 c -0.93015,0.96581 -1.755118,1.8195 -1.83326,1.89707 -0.07814,0.0776 -0.702331,0.74776 -1.387085,1.48929 l -1.245007,1.34824 5.513121,5.55468 5.513119,5.55469 2.21293,0.17065 2.21294,0.17064 5.25569,-5.22148 5.2557,-5.22149 -3.52487,-3.35601 -3.52488,-3.356 0.43156,-0.72067 c 1.15879,-1.93507 6.10712,-8.887024 8.92823,-12.543364 l 3.16423,-4.101041 -0.43416,-0.529167 c -0.23878,-0.291042 -0.26467,-0.380338 -0.0575,-0.198437 0.60703,0.533056 0.6022,0.537701 4.53952,-4.365625 11.77895,-14.668895 27.06818,-32.228021 28.76152,-33.031563 2.31917,-1.100518 -0.0701,-3.141588 25.69274,21.948559 8.30883,8.09188 8.51213,8.389995 7.30873,10.717114 -0.84709,1.638088 -22.67935,19.649904 -36.08262,29.768504 -2.411,1.82014 -2.6869,2.10987 -2.38125,2.50068 0.3081,0.39395 0.29639,0.4034 -0.1077,0.0869 -0.39979,-0.31315 -0.85985,-0.0528 -3.89194,2.20215 -5.09398,3.78845 -9.28127,6.72465 -11.62761,8.15349 l -2.08351,1.26878 -3.1426,-3.21425 c -1.72844,-1.76784 -3.59092,-3.57074 -4.13885,-4.00644 l -0.99624,-0.79218 -2.33684,2.34054 c -1.28527,1.2873 -3.61788,3.6737 -5.18359,5.30312 l -2.84673,2.96257 0.1866,1.85812 0.1866,1.85811 4.90404,4.94781 4.90404,4.9478 3.81911,-3.86767 3.81911,-3.86768 1.75391,1.07352 c 9.77427,5.98251 33.69296,23.81121 50.75545,37.83249 7.99324,6.56853 8.96153,4.19378 -9.08024,22.26935 -15.94112,15.97098 -15.88039,15.9213 -18.19732,14.88623 z m -49.43761,-73.43418 c 2.3733,-1.04864 4.07482,-3.50331 4.27563,-6.16815 0.50278,-6.67233 -7.16336,-10.44485 -12.21386,-6.01045 -6.298983,5.53057 0.2489,15.57614 7.93823,12.1786 z"
         id="path8" /><path
         style="fill:#1f2a30"
         d="m 62.109293,216.68424 v -16.77971 l 3.610462,-4.05622 c 15.337421,-17.23103 32.902036,-39.37267 32.902036,-41.47572 0,-0.088 -1.36711,-1.5232 -3.038023,-3.18937 l -3.038023,-3.02941 5.353127,-5.42677 5.353128,-5.42677 1.98437,-0.0243 1.98438,-0.0243 5.4563,5.40598 5.45629,5.40598 -0.69379,0.7096 c -0.38159,0.39029 -1.81308,1.85556 -3.18109,3.25617 l -2.48728,2.54656 1.39242,2.20393 c 5.43502,8.60257 17.21219,23.15178 33.01704,40.78837 l 3.77031,4.20728 v 2.10147 c 0,1.15581 0.23512,7.48205 0.52248,14.05831 0.28735,6.57626 0.55525,12.76076 0.59531,13.74333 l 0.0728,1.78649 -18.1901,-5.6e-4 -18.19011,-5.5e-4 V 216.5307 199.59736 h -9.3927 -9.392712 v 16.93334 16.93333 H 79.042625 62.109293 Z m 84.518027,-73.76066 c -3.57313,-2.57311 -10.17629,-7.05234 -12.33498,-8.36739 l -1.76798,-1.07705 -3.81911,3.86768 -3.81911,3.86767 -4.90404,-4.9478 -4.90404,-4.94781 -0.1866,-1.85811 -0.1866,-1.85812 2.84673,-2.96257 c 1.56571,-1.62942 3.89832,-4.01582 5.18359,-5.30312 l 2.33684,-2.34054 0.99624,0.79218 c 0.54793,0.4357 2.41041,2.2386 4.13885,4.00644 l 3.1426,3.21425 2.08351,-1.26878 c 2.3454,-1.42827 6.53338,-4.36486 11.62126,-8.14876 l 3.4322,-2.55256 0.62539,0.4827 c 1.59624,1.23203 12.82449,11.59531 13.57307,12.52745 3.17325,3.95141 -2.17742,11.32533 -6.91179,9.52533 -0.37329,-0.14193 -2.51674,-1.92787 -4.76323,-3.96875 -2.24648,-2.04089 -4.14479,-3.71071 -4.21847,-3.71071 -0.13495,0 -0.10874,0.77082 0.37689,11.08382 0.31741,6.74084 0.64206,6.23692 -2.54122,3.94455 z m -84.580177,-7.4046 -0.07014,-7.72207 -3.932939,3.68717 c -6.290067,5.89701 -7.200521,6.11886 -10.932307,2.66388 -2.449861,-2.26814 -3.127613,-4.57168 -1.978874,-6.72579 0.854891,-1.60308 15.18517,-14.62706 15.691471,-14.26108 0.239168,0.17288 2.203699,1.60782 4.365625,3.18876 3.698235,2.70437 9.468006,6.61171 11.421237,7.73456 l 0.87588,0.50351 3.844516,-4.03489 c 4.65361,-4.88406 3.501727,-4.99731 9.418762,0.92604 l 4.95565,4.96094 -0.167862,2.55442 -0.167861,2.55443 -4.856285,4.85096 -4.856286,4.85097 -4.038258,-4.03196 c -4.880643,-4.87302 -3.105564,-5.21009 -14.530824,2.75926 -2.572865,1.79463 -4.743957,3.26296 -4.824649,3.26296 -0.08069,0 -0.178275,-3.47493 -0.216854,-7.72207 z m 42.845947,-14.69883 -1.53391,-0.0958 -5.541716,-5.58349 -5.541717,-5.5835 1.245007,-1.34824 c 0.684754,-0.74153 1.308942,-1.41171 1.387085,-1.48929 0.07814,-0.0776 0.90311,-0.93126 1.83326,-1.89707 l 1.691184,-1.75603 -0.736719,-1.27793 c -1.031182,-1.7887 -5.454045,-8.108869 -8.18636,-11.698111 L 87.216423,87.07879 91.13317,83.353581 c 2.15421,-2.048864 5.762215,-5.532374 8.017788,-7.741132 6.695582,-6.556612 5.796932,-6.769485 17.501902,4.145872 l 7.11858,6.638357 -0.47014,0.618715 c -0.25857,0.340293 -1.91014,2.503948 -3.67015,4.808123 -3.24648,4.250256 -8.30409,11.488484 -8.31573,11.901104 -0.004,0.12419 1.55293,1.71408 3.45873,3.5331 l 3.4651,3.30729 -5.25975,5.22552 c -4.18914,4.16188 -5.39131,5.21533 -5.90612,5.17549 -0.35551,-0.0275 -1.33664,-0.0932 -2.18029,-0.14587 z"
         id="path7" /></g></g></svg>
