<?xml version="1.0" encoding="UTF-8" standalone="no"?>
<!-- Created with Inkscape (http://www.inkscape.org/) -->

<svg
   width="79.944893mm"
   height="100.05989mm"
   viewBox="0 0 79.944893 100.05989"
   version="1.1"
   id="svg1"
   xml:space="preserve"
   xmlns="http://www.w3.org/2000/svg"
   xmlns:svg="http://www.w3.org/2000/svg"><defs
     id="defs1" /><g
     id="layer1"
     transform="translate(-328.3061,-94.908879)"><g
       id="g3715"
       transform="matrix(0.56478797,0,0,0.56478797,127.27774,62.417122)"><path
         style="fill:#ffffff;fill-opacity:1;fill-rule:nonzero;stroke:none;stroke-width:20;stroke-linecap:round;stroke-linejoin:round;stroke-dasharray:none;stroke-dashoffset:994.847;stroke-opacity:1"
         d="m 371.26816,154.50683 c 2.65291,18.77899 16.9597,34.37044 33.58217,42.51173 15.82012,7.99347 35.782,5.71343 49.56168,-5.38191 16.51437,-12.96907 27.27647,-32.03151 34.18088,-51.56713 3.35028,-10.00264 4.47162,-23.58593 -5.30328,-30.46666 -12.94226,-8.17157 -29.28001,-5.70411 -43.56439,-3.4046 -7.65615,2.11805 -14.8591,3.85729 -22.34646,0.22179 -13.45432,-3.14302 -30.31159,-2.18041 -39.09419,10.00284 -7.80221,10.91211 -8.02684,25.25163 -7.01641,38.08394 z"
         id="path3718" /><path
         style="fill:#efac33"
         d="m 417.29561,234.23687 c -9.14999,-0.35822 -20.48559,-4.29356 -22.31786,-14.49837 -3.12088,-11.15554 -5.15109,-23.60915 -14.42133,-31.60868 -13.34229,-13.07316 -22.69708,-30.4804 -24.00837,-49.30175 -2.41934,-22.90535 1.96159,-48.594013 19.838,-64.634075 13.88516,-12.484223 33.13026,-17.478723 51.50727,-16.55817 21.98869,-0.917846 45.49957,7.690519 57.97473,26.572406 13.00479,19.812609 13.70749,45.200829 8.83731,67.740729 -3.49274,15.98276 -14.25079,28.79911 -25.49039,40.08223 -9.70792,10.16379 -6.92072,26.59034 -16.68637,36.58597 -9.6264,7.96776 -23.64531,5.92132 -35.23299,5.61971 z m 20.80366,-6.97703 c 8.03428,-0.32136 15.55238,-5.36402 16.10181,-13.94443 2.38286,-11.21231 6.46837,-22.47483 14.9912,-30.53013 9.40794,-10.18067 20.13592,-22.46953 18.49764,-37.33698 -1.78837,-13.35619 -14.2881,-24.95561 -28.13815,-23.33895 -12.34559,0.62556 -22.56815,10.53733 -35.30005,8.82993 -12.00615,-0.56638 -21.70843,-10.27499 -34.00305,-8.95999 -12.29091,0.56711 -22.84067,11.62946 -24.3743,23.59806 -0.16656,5.38664 -0.18209,10.86794 2.57835,15.73103 5.22387,12.92405 17.53472,20.85653 24.2206,32.76499 4.43775,8.29417 5.16859,17.92958 8.83971,26.47802 4.85485,6.82476 14.38534,6.46236 21.92709,7.2258 4.88392,0.2058 9.81909,0.25485 14.65915,-0.51735 z"
         id="path3717" /><path
         style="fill:#283037"
         d="m 418.28634,227.60555 c -8.20991,-0.2933 -17.84772,-3.68531 -18.95023,-13.10065 -2.66041,-11.77985 -6.41516,-23.96232 -15.68969,-32.32383 -7.77197,-8.35895 -15.95462,-17.78836 -17.7625,-29.42142 -0.24318,-5.61824 -0.1404,-11.38405 2.98679,-16.33032 4.87319,-9.37808 15.48671,-15.88226 26.13966,-14.36339 10.99523,1.05018 20.08299,9.39197 31.43803,8.97936 13.61772,0.52608 24.65021,-11.11022 38.4979,-8.80976 16.78863,1.6803 27.89019,21.9159 20.81534,37.12535 -4.88798,13.20908 -16.69196,21.71427 -24.21236,33.16195 -5.68335,8.83994 -5.75338,19.9033 -10.51738,29.06029 -5.94044,6.63705 -16.02771,5.81775 -24.16126,6.20035 -2.8613,0.0116 -5.7306,0.0589 -8.5843,-0.17793 z m 16.62551,-38.11706 c 7.06092,-5.01353 -2.31429,-13.45743 -4.33539,-19.4349 -2.10843,-6.82545 -5.82913,-6.7295 -7.89774,-0.0102 -1.81564,5.88807 -11.89187,15.23562 -3.94455,19.43204 5.31349,0.99046 7.59176,-6.29501 11.52358,-0.31319 1.44827,0.66258 3.12673,0.76364 4.6541,0.32627 z m -34.11883,-25.23091 c 9.24614,-2.02176 16.17197,-12.96101 11.60877,-21.84835 -3.79563,-9.10072 -13.9763,-15.13669 -23.76959,-13.61163 -9.52239,0.93292 -17.49346,11.02774 -14.23877,20.60291 2.82043,11.33733 15.26676,18.39241 26.39959,14.85707 z m 63.46739,0.13258 c 12.22172,-2.72928 20.54645,-19.34826 11.65959,-29.57255 -9.78607,-11.47685 -29.81139,-5.63603 -34.99145,7.59254 -4.86823,10.13373 4.1676,21.72101 14.63722,22.51786 2.89667,0.39928 5.86572,0.18824 8.69464,-0.53785 z"
         id="path3716" /></g></g></svg>
