<?xml version="1.0" encoding="UTF-8" standalone="no"?>
<!-- Created with Inkscape (http://www.inkscape.org/) -->

<svg
   width="103.94834mm"
   height="100.00001mm"
   viewBox="0 0 103.94834 100.00001"
   version="1.1"
   id="svg1"
   xml:space="preserve"
   xmlns="http://www.w3.org/2000/svg"
   xmlns:svg="http://www.w3.org/2000/svg"><defs
     id="defs1" /><g
     id="layer1"
     transform="translate(-184.63309,-94.938817)"><g
       id="g3720"
       transform="matrix(0.71137259,0,0,0.71137259,51.597545,28.203889)"><path
         style="fill:#f3ad1f"
         d="m 207.03646,233.77155 c -4.5753,-2.2276 -2.63748,-8.1827 -3.04271,-12.34276 1.18114,-2.38686 3.95399,-4.11522 5.73633,-6.25336 7.40956,-7.17827 14.28327,-14.93693 22.089,-21.68004 6.54047,-4.1488 10.61951,5.52767 15.17231,8.77307 2.39468,2.39084 4.78937,4.78167 7.18405,7.17251 3.03233,-0.15905 4.4958,-3.63108 6.81353,-5.29914 6.40159,-6.30255 12.80319,-12.60509 19.20478,-18.90764 0,-15.84513 0,-31.69027 0,-47.5354 -7.13798,-0.26017 -14.44842,0.67973 -21.44319,-0.75019 -7.39073,-5.88077 3.21897,-11.76791 6.89592,-16.29469 8.97202,-8.96834 17.84643,-18.04283 27.03832,-26.7855 6.52815,-0.822913 9.85421,7.49472 14.76849,10.80674 8.43037,8.42276 17.04435,16.6837 25.11358,25.45333 2.29714,4.4889 -2.82333,8.60519 -7.06987,7.56063 -5.57608,0.003 -11.15217,0.007 -16.72826,0.0101 -0.004,30.82396 -0.008,61.64791 -0.012,92.47187 -0.97145,3.80376 -4.94502,4.54049 -8.26443,4.10053 -30.7993,-0.004 -61.5986,-0.008 -92.3979,-0.0115 -0.35265,-0.16284 -0.7053,-0.32568 -1.05795,-0.48852 z"
         id="path3722" /><path
         style="fill:#1d272e"
         d="m 196.59667,208.27722 c -3.02035,-0.92732 -4.74775,-4.34164 -7.1653,-6.29064 -6.7151,-5.98404 2.27474,-11.66944 6.1484,-15.99903 12.33673,-12.35284 24.49603,-24.91236 37.31121,-36.76801 6.79303,-0.83133 10.56157,7.95246 15.64927,11.46967 3.30929,3.30595 6.61857,6.6119 9.92786,9.91785 3.24264,-2.81384 6.57963,-7.97782 11.45373,-6.02876 8.64577,3.95302 2.93215,12.41289 -2.44384,16.41059 -4.82531,3.75073 -10.99533,15.42147 -17.55977,7.77533 -4.80013,-4.71907 -9.50291,-9.5375 -14.27217,-14.28842 -2.82847,-0.30761 -4.10682,3.13268 -6.20606,4.58822 -9.73094,9.63497 -19.27355,19.47051 -29.28271,28.81599 -1.08972,0.56545 -2.37318,0.67987 -3.56062,0.39721 z"
         id="path3721" /></g></g></svg>
