<?xml version="1.0" encoding="UTF-8" standalone="no"?>
<!-- Created with Inkscape (http://www.inkscape.org/) -->

<svg
   width="74.696243mm"
   height="100.00001mm"
   viewBox="0 0 74.696243 100.00001"
   version="1.1"
   id="svg1"
   xml:space="preserve"
   xmlns="http://www.w3.org/2000/svg"
   xmlns:svg="http://www.w3.org/2000/svg"><defs
     id="defs1" /><g
     id="layer1"
     transform="translate(-70.212163,-94.938817)"><g
       id="g3714"
       transform="matrix(0.53376549,0,0,0.53376549,-59.985084,71.163842)"><path
         style="fill:#f5a921"
         d="m 266.43542,187.81305 c -10.82033,-2.1456 -13.96837,-17.86726 -5.16166,-24.26685 7.55036,-6.64451 21.06362,-1.62344 22.40223,8.39688 2.05443,9.65183 -7.76517,18.53915 -17.24057,15.86997 z m 101.70244,-20.21611 c -10.68166,-0.93155 -15.70256,-15.62044 -8.15805,-23.06515 5.10434,-6.21187 15.28587,-5.59439 20.4824,0.24305 7.49162,7.80638 1.81089,22.7383 -9.2529,22.94988 -1.02452,0.0678 -2.05587,0.0213 -3.07145,-0.12778 z M 309.5625,151.42965 c -13.16638,-1.31627 -22.23244,-15.11897 -19.78002,-27.78679 1.29944,-10.13276 9.60577,-18.78591 19.73522,-20.33402 5.56368,-6.305508 13.51411,1.71788 20.27329,4.09585 -0.75214,3.87773 5.12834,6.82989 5.91357,11.25921 6.50357,15.44819 -7.28784,34.77262 -24.08877,32.99606 l -1.02077,-0.0933 -1.03255,-0.13703 z m -54.90608,-34.77744 c -10.65373,-1.65153 -14.46219,-16.754589 -6.42311,-23.639642 7.54279,-7.701286 22.54727,-2.416479 23.21419,8.472642 1.30363,9.1749 -7.75879,17.42879 -16.79108,15.167 z M 360.29989,90.858787 C 349.74514,89.62835 344.77512,75.74551 351.79895,67.928228 c 8.01506,-8.884698 24.74972,-2.89018 24.08976,9.420885 0.17826,8.027286 -7.55661,15.08758 -15.58882,13.509674 z M 343.56146,60.914299 c -7.009,-1.176612 -11.06898,-4.054656 -6.50579,-10.749678 -0.15371,-8.905685 8.82259,-5.490826 12.36571,-1.60333 -1.86639,3.516151 -2.33024,11.145283 -5.85992,12.353008 z"
         id="path3715" /><path
         style="fill:#1d2a37"
         d="m 256.95657,228.25236 c -0.86298,-5.97238 4.42704,-11.47412 10.47458,-11.18332 7.03945,-1.05266 14.77918,1.453 21.11628,-2.8231 9.15609,-4.98954 14.99671,-15.22503 14.73817,-25.63602 -7.19345,-1.49131 -14.84133,-3.97057 -20.51554,-8.46611 4.47899,-8.946 -3.84424,-20.84933 -13.70062,-19.52231 -6.00871,2.47759 -8.39156,-2.96998 -10.33391,-8.27271 -4.67606,-11.18814 -5.4298,-23.8956 -2.29996,-35.59629 11.03637,2.75228 18.6542,-12.47393 12.96582,-21.110383 -1.39869,-5.434693 9.14564,-4.178615 11.2448,-0.711864 5.84328,8.190707 -5.10534,14.806697 -6.90406,22.399267 -7.87353,19.14999 2.53574,42.4444 21.01776,50.97919 6.42957,3.29687 13.5705,5.04893 20.77921,4.41854 11.55949,-0.0269 22.49769,-7.45469 28.59493,-17.01854 6.15733,-7.01897 3.42306,-18.0411 9.65886,-24.52723 4.95072,-3.94931 13.64061,0.35286 11.85802,7.23059 -4.05766,5.64005 -13.33354,12.45252 -7.98476,21.43994 4.07568,5.15499 -4.21774,10.12679 -6.92363,14.05109 -6.44455,6.16753 -14.17253,11.06191 -22.65923,13.87252 0.3384,13.23562 10.77579,25.44329 23.33907,29.03329 7.1746,0.45408 15.42014,-1.6127 21.45914,3.12071 3.5469,3.14908 3.04854,7.73867 3.15267,11.96054 -39.72126,0 -79.44253,0 -119.16379,0 0.0287,-1.2126 0.0575,-2.4252 0.0862,-3.6378 z m 80.78405,-117.51727 c -10.96109,-4.60188 -21.46541,-10.42174 -32.99197,-13.578362 0.50823,-7.34371 5.67668,-14.89653 8.21692,-22.184104 2.41309,-4.610584 3.78974,-9.936348 6.64351,-14.248565 4.8971,-6.254039 13.42608,-4.074452 19.60106,-1.356682 7.56378,1.169786 15.77251,7.126954 9.65014,14.807463 -2.64509,4.976486 3.68947,9.336501 1.51105,13.616519 -3.81561,7.749547 -6.09385,16.396151 -11.15604,23.440391 z"
         id="path3714" /></g></g></svg>
