<?xml version="1.0" encoding="UTF-8" standalone="no"?>
<!-- Created with Inkscape (http://www.inkscape.org/) -->

<svg
   width="938.69891mm"
   height="298.47211mm"
   viewBox="0 0 938.69891 298.47211"
   version="1.1"
   id="svg1"
   xml:space="preserve"
   inkscape:version="1.4.3 (0d15f75, 2025-12-25)"
   sodipodi:docname="LindbladPack.svg"
   xmlns:inkscape="http://www.inkscape.org/namespaces/inkscape"
   xmlns:sodipodi="http://sodipodi.sourceforge.net/DTD/sodipodi-0.dtd"
   xmlns="http://www.w3.org/2000/svg"
   xmlns:svg="http://www.w3.org/2000/svg"><sodipodi:namedview
     id="namedview1"
     pagecolor="#ffffff"
     bordercolor="#000000"
     borderopacity="0.25"
     inkscape:showpageshadow="2"
     inkscape:pageopacity="0.0"
     inkscape:pagecheckerboard="0"
     inkscape:deskcolor="#d1d1d1"
     inkscape:document-units="mm"
     inkscape:zoom="0.17972959"
     inkscape:cx="1271.3544"
     inkscape:cy="881.88038"
     inkscape:window-width="1904"
     inkscape:window-height="993"
     inkscape:window-x="0"
     inkscape:window-y="0"
     inkscape:window-maximized="0"
     inkscape:current-layer="layer1" /><defs
     id="defs1" /><g
     inkscape:label="Layer 1"
     inkscape:groupmode="layer"
     id="layer1"
     transform="translate(0,1.472119)"><g
       id="g3714"
       transform="matrix(0.53376549,0,0,0.53376549,-59.985084,71.163842)"><path
         style="fill:#f5a921"
         d="m 266.43542,187.81305 c -10.82033,-2.1456 -13.96837,-17.86726 -5.16166,-24.26685 7.55036,-6.64451 21.06362,-1.62344 22.40223,8.39688 2.05443,9.65183 -7.76517,18.53915 -17.24057,15.86997 z m 101.70244,-20.21611 c -10.68166,-0.93155 -15.70256,-15.62044 -8.15805,-23.06515 5.10434,-6.21187 15.28587,-5.59439 20.4824,0.24305 7.49162,7.80638 1.81089,22.7383 -9.2529,22.94988 -1.02452,0.0678 -2.05587,0.0213 -3.07145,-0.12778 z M 309.5625,151.42965 c -13.16638,-1.31627 -22.23244,-15.11897 -19.78002,-27.78679 1.29944,-10.13276 9.60577,-18.78591 19.73522,-20.33402 5.56368,-6.305508 13.51411,1.71788 20.27329,4.09585 -0.75214,3.87773 5.12834,6.82989 5.91357,11.25921 6.50357,15.44819 -7.28784,34.77262 -24.08877,32.99606 l -1.02077,-0.0933 -1.03255,-0.13703 z m -54.90608,-34.77744 c -10.65373,-1.65153 -14.46219,-16.754589 -6.42311,-23.639642 7.54279,-7.701286 22.54727,-2.416479 23.21419,8.472642 1.30363,9.1749 -7.75879,17.42879 -16.79108,15.167 z M 360.29989,90.858787 C 349.74514,89.62835 344.77512,75.74551 351.79895,67.928228 c 8.01506,-8.884698 24.74972,-2.89018 24.08976,9.420885 0.17826,8.027286 -7.55661,15.08758 -15.58882,13.509674 z M 343.56146,60.914299 c -7.009,-1.176612 -11.06898,-4.054656 -6.50579,-10.749678 -0.15371,-8.905685 8.82259,-5.490826 12.36571,-1.60333 -1.86639,3.516151 -2.33024,11.145283 -5.85992,12.353008 z"
         id="path3715" /><path
         style="fill:#1d2a37"
         d="m 256.95657,228.25236 c -0.86298,-5.97238 4.42704,-11.47412 10.47458,-11.18332 7.03945,-1.05266 14.77918,1.453 21.11628,-2.8231 9.15609,-4.98954 14.99671,-15.22503 14.73817,-25.63602 -7.19345,-1.49131 -14.84133,-3.97057 -20.51554,-8.46611 4.47899,-8.946 -3.84424,-20.84933 -13.70062,-19.52231 -6.00871,2.47759 -8.39156,-2.96998 -10.33391,-8.27271 -4.67606,-11.18814 -5.4298,-23.8956 -2.29996,-35.59629 11.03637,2.75228 18.6542,-12.47393 12.96582,-21.110383 -1.39869,-5.434693 9.14564,-4.178615 11.2448,-0.711864 5.84328,8.190707 -5.10534,14.806697 -6.90406,22.399267 -7.87353,19.14999 2.53574,42.4444 21.01776,50.97919 6.42957,3.29687 13.5705,5.04893 20.77921,4.41854 11.55949,-0.0269 22.49769,-7.45469 28.59493,-17.01854 6.15733,-7.01897 3.42306,-18.0411 9.65886,-24.52723 4.95072,-3.94931 13.64061,0.35286 11.85802,7.23059 -4.05766,5.64005 -13.33354,12.45252 -7.98476,21.43994 4.07568,5.15499 -4.21774,10.12679 -6.92363,14.05109 -6.44455,6.16753 -14.17253,11.06191 -22.65923,13.87252 0.3384,13.23562 10.77579,25.44329 23.33907,29.03329 7.1746,0.45408 15.42014,-1.6127 21.45914,3.12071 3.5469,3.14908 3.04854,7.73867 3.15267,11.96054 -39.72126,0 -79.44253,0 -119.16379,0 0.0287,-1.2126 0.0575,-2.4252 0.0862,-3.6378 z m 80.78405,-117.51727 c -10.96109,-4.60188 -21.46541,-10.42174 -32.99197,-13.578362 0.50823,-7.34371 5.67668,-14.89653 8.21692,-22.184104 2.41309,-4.610584 3.78974,-9.936348 6.64351,-14.248565 4.8971,-6.254039 13.42608,-4.074452 19.60106,-1.356682 7.56378,1.169786 15.77251,7.126954 9.65014,14.807463 -2.64509,4.976486 3.68947,9.336501 1.51105,13.616519 -3.81561,7.749547 -6.09385,16.396151 -11.15604,23.440391 z"
         id="path3714" /></g><g
       id="g3715"
       transform="matrix(0.56478797,0,0,0.56478797,127.27774,62.417122)"><path
         style="fill:#ffffff;fill-opacity:1;fill-rule:nonzero;stroke:none;stroke-width:20;stroke-linecap:round;stroke-linejoin:round;stroke-dasharray:none;stroke-dashoffset:994.847;stroke-opacity:1"
         d="m 371.26816,154.50683 c 2.65291,18.77899 16.9597,34.37044 33.58217,42.51173 15.82012,7.99347 35.782,5.71343 49.56168,-5.38191 16.51437,-12.96907 27.27647,-32.03151 34.18088,-51.56713 3.35028,-10.00264 4.47162,-23.58593 -5.30328,-30.46666 -12.94226,-8.17157 -29.28001,-5.70411 -43.56439,-3.4046 -7.65615,2.11805 -14.8591,3.85729 -22.34646,0.22179 -13.45432,-3.14302 -30.31159,-2.18041 -39.09419,10.00284 -7.80221,10.91211 -8.02684,25.25163 -7.01641,38.08394 z"
         id="path3718" /><path
         style="fill:#efac33"
         d="m 417.29561,234.23687 c -9.14999,-0.35822 -20.48559,-4.29356 -22.31786,-14.49837 -3.12088,-11.15554 -5.15109,-23.60915 -14.42133,-31.60868 -13.34229,-13.07316 -22.69708,-30.4804 -24.00837,-49.30175 -2.41934,-22.90535 1.96159,-48.594013 19.838,-64.634075 13.88516,-12.484223 33.13026,-17.478723 51.50727,-16.55817 21.98869,-0.917846 45.49957,7.690519 57.97473,26.572406 13.00479,19.812609 13.70749,45.200829 8.83731,67.740729 -3.49274,15.98276 -14.25079,28.79911 -25.49039,40.08223 -9.70792,10.16379 -6.92072,26.59034 -16.68637,36.58597 -9.6264,7.96776 -23.64531,5.92132 -35.23299,5.61971 z m 20.80366,-6.97703 c 8.03428,-0.32136 15.55238,-5.36402 16.10181,-13.94443 2.38286,-11.21231 6.46837,-22.47483 14.9912,-30.53013 9.40794,-10.18067 20.13592,-22.46953 18.49764,-37.33698 -1.78837,-13.35619 -14.2881,-24.95561 -28.13815,-23.33895 -12.34559,0.62556 -22.56815,10.53733 -35.30005,8.82993 -12.00615,-0.56638 -21.70843,-10.27499 -34.00305,-8.95999 -12.29091,0.56711 -22.84067,11.62946 -24.3743,23.59806 -0.16656,5.38664 -0.18209,10.86794 2.57835,15.73103 5.22387,12.92405 17.53472,20.85653 24.2206,32.76499 4.43775,8.29417 5.16859,17.92958 8.83971,26.47802 4.85485,6.82476 14.38534,6.46236 21.92709,7.2258 4.88392,0.2058 9.81909,0.25485 14.65915,-0.51735 z"
         id="path3717" /><path
         style="fill:#283037"
         d="m 418.28634,227.60555 c -8.20991,-0.2933 -17.84772,-3.68531 -18.95023,-13.10065 -2.66041,-11.77985 -6.41516,-23.96232 -15.68969,-32.32383 -7.77197,-8.35895 -15.95462,-17.78836 -17.7625,-29.42142 -0.24318,-5.61824 -0.1404,-11.38405 2.98679,-16.33032 4.87319,-9.37808 15.48671,-15.88226 26.13966,-14.36339 10.99523,1.05018 20.08299,9.39197 31.43803,8.97936 13.61772,0.52608 24.65021,-11.11022 38.4979,-8.80976 16.78863,1.6803 27.89019,21.9159 20.81534,37.12535 -4.88798,13.20908 -16.69196,21.71427 -24.21236,33.16195 -5.68335,8.83994 -5.75338,19.9033 -10.51738,29.06029 -5.94044,6.63705 -16.02771,5.81775 -24.16126,6.20035 -2.8613,0.0116 -5.7306,0.0589 -8.5843,-0.17793 z m 16.62551,-38.11706 c 7.06092,-5.01353 -2.31429,-13.45743 -4.33539,-19.4349 -2.10843,-6.82545 -5.82913,-6.7295 -7.89774,-0.0102 -1.81564,5.88807 -11.89187,15.23562 -3.94455,19.43204 5.31349,0.99046 7.59176,-6.29501 11.52358,-0.31319 1.44827,0.66258 3.12673,0.76364 4.6541,0.32627 z m -34.11883,-25.23091 c 9.24614,-2.02176 16.17197,-12.96101 11.60877,-21.84835 -3.79563,-9.10072 -13.9763,-15.13669 -23.76959,-13.61163 -9.52239,0.93292 -17.49346,11.02774 -14.23877,20.60291 2.82043,11.33733 15.26676,18.39241 26.39959,14.85707 z m 63.46739,0.13258 c 12.22172,-2.72928 20.54645,-19.34826 11.65959,-29.57255 -9.78607,-11.47685 -29.81139,-5.63603 -34.99145,7.59254 -4.86823,10.13373 4.1676,21.72101 14.63722,22.51786 2.89667,0.39928 5.86572,0.18824 8.69464,-0.53785 z"
         id="path3716" /></g><g
       id="g3718"
       transform="matrix(0.66573662,0,0,0.66573662,84.364135,36.416018)"><path
         style="fill:#f1ab17"
         d="m 587.56934,205.68588 c -3.98904,-1.35013 -6.54211,-5.07065 -9.63437,-7.74096 -9.83539,-9.82977 -19.89162,-19.44628 -29.55056,-29.44832 -2.9643,-2.64363 -2.92904,-7.67316 0.0395,-10.2947 10.04056,-10.78547 20.67666,-21.00179 31.01278,-31.50392 1.85903,-1.71523 3.47115,-3.7894 5.48691,-5.27678 1.43301,-0.78849 2.93389,-1.25833 4.58265,-1.0339 3.99657,0.14277 8.17625,-0.51868 11.99138,0.87158 4.00925,2.80826 1.45588,7.75834 -1.55571,10.19136 -4.50239,5.0178 -9.90881,9.26272 -13.8328,14.76988 -1.30867,2.10033 1.44625,4.70637 3.5042,4.58599 9.08758,0.0847 18.17517,0.16935 27.26276,0.25403 3.52096,1.09806 3.70916,5.01037 3.5038,8.12207 -0.0654,4.45161 -0.21837,8.90139 -0.33005,13.35201 -1.07719,1.47519 -2.40671,3.33377 -4.46928,2.88267 -8.74038,0.0832 -17.48075,0.16633 -26.22113,0.2495 -3.57019,1.01444 -3.92849,4.96878 -1.06893,7.10649 4.89912,5.52599 11.10831,9.8687 15.47059,15.8609 1.67809,2.93377 -0.43472,6.46139 -3.55375,7.17285 -4.2111,10e-4 -8.43782,0.23561 -12.63796,-0.12075 z"
         id="path3720" /><path
         style="fill:#1c2529"
         d="m 662.25209,205.53549 c -2.62086,0.11741 -5.29533,-2.45016 -4.95651,-5.03623 0.89127,-4.25403 5.07111,-6.62621 7.75892,-9.70848 3.32819,-3.43198 7.23907,-6.40535 9.94243,-10.37252 0.8013,-2.22169 -1.64657,-4.96323 -3.92682,-4.76202 -9.523,-0.0848 -19.046,-0.1696 -28.569,-0.2544 -2.15237,-1.07997 -3.71094,-3.3084 -3.2576,-5.76227 -0.004,-4.96797 -0.007,-9.93595 -0.0105,-14.90392 1.05312,-2.13252 3.18067,-3.90858 5.66576,-3.50815 9.0913,-0.19711 18.20418,0.0342 27.27681,-0.57769 5.90141,-1.41444 1.71596,-7.87936 -1.65133,-9.7344 -4.56946,-4.33402 -9.58445,-8.43922 -12.9139,-13.85663 -2.29435,-4.37881 2.87545,-7.20055 6.67386,-6.73497 3.94421,0.17045 8.53366,-1.20427 11.84577,1.6522 7.88303,6.6207 14.80851,14.29466 22.23282,21.41453 5.09166,5.10862 10.34296,10.10126 15.33502,15.28225 0.70162,1.50527 1.82255,2.91175 1.46461,4.66662 0.045,3.87726 -3.82729,6.15218 -6.03922,8.88393 -10.68368,10.66463 -21.263,21.44399 -32.1916,31.85717 -3.0687,2.37474 -7.40556,1.12924 -11.04428,1.57178 -1.21117,-0.007 -2.43234,0.0269 -3.6352,-0.1168 z"
         id="path3719" /></g><g
       id="g3720"
       transform="matrix(0.71137259,0,0,0.71137259,51.597545,28.203889)"><path
         style="fill:#f3ad1f"
         d="m 207.03646,233.77155 c -4.5753,-2.2276 -2.63748,-8.1827 -3.04271,-12.34276 1.18114,-2.38686 3.95399,-4.11522 5.73633,-6.25336 7.40956,-7.17827 14.28327,-14.93693 22.089,-21.68004 6.54047,-4.1488 10.61951,5.52767 15.17231,8.77307 2.39468,2.39084 4.78937,4.78167 7.18405,7.17251 3.03233,-0.15905 4.4958,-3.63108 6.81353,-5.29914 6.40159,-6.30255 12.80319,-12.60509 19.20478,-18.90764 0,-15.84513 0,-31.69027 0,-47.5354 -7.13798,-0.26017 -14.44842,0.67973 -21.44319,-0.75019 -7.39073,-5.88077 3.21897,-11.76791 6.89592,-16.29469 8.97202,-8.96834 17.84643,-18.04283 27.03832,-26.7855 6.52815,-0.822913 9.85421,7.49472 14.76849,10.80674 8.43037,8.42276 17.04435,16.6837 25.11358,25.45333 2.29714,4.4889 -2.82333,8.60519 -7.06987,7.56063 -5.57608,0.003 -11.15217,0.007 -16.72826,0.0101 -0.004,30.82396 -0.008,61.64791 -0.012,92.47187 -0.97145,3.80376 -4.94502,4.54049 -8.26443,4.10053 -30.7993,-0.004 -61.5986,-0.008 -92.3979,-0.0115 -0.35265,-0.16284 -0.7053,-0.32568 -1.05795,-0.48852 z"
         id="path3722" /><path
         style="fill:#1d272e"
         d="m 196.59667,208.27722 c -3.02035,-0.92732 -4.74775,-4.34164 -7.1653,-6.29064 -6.7151,-5.98404 2.27474,-11.66944 6.1484,-15.99903 12.33673,-12.35284 24.49603,-24.91236 37.31121,-36.76801 6.79303,-0.83133 10.56157,7.95246 15.64927,11.46967 3.30929,3.30595 6.61857,6.6119 9.92786,9.91785 3.24264,-2.81384 6.57963,-7.97782 11.45373,-6.02876 8.64577,3.95302 2.93215,12.41289 -2.44384,16.41059 -4.82531,3.75073 -10.99533,15.42147 -17.55977,7.77533 -4.80013,-4.71907 -9.50291,-9.5375 -14.27217,-14.28842 -2.82847,-0.30761 -4.10682,3.13268 -6.20606,4.58822 -9.73094,9.63497 -19.27355,19.47051 -29.28271,28.81599 -1.08972,0.56545 -2.37318,0.67987 -3.56062,0.39721 z"
         id="path3721" /></g></g></svg>
