<?xml version="1.0" encoding="UTF-8" standalone="no"?>
<!-- Created with Inkscape (http://www.inkscape.org/) -->

<svg
   width="112.54413mm"
   height="57.082573mm"
   viewBox="0 0 112.54413 57.082574"
   version="1.1"
   id="svg1"
   xml:space="preserve"
   xmlns="http://www.w3.org/2000/svg"
   xmlns:svg="http://www.w3.org/2000/svg"><defs
     id="defs1" /><g
     id="layer1"
     transform="translate(-447.97565,-116.39754)"><g
       id="g3718"
       transform="matrix(0.66573662,0,0,0.66573662,84.364135,36.416018)"><path
         style="fill:#f1ab17"
         d="m 587.56934,205.68588 c -3.98904,-1.35013 -6.54211,-5.07065 -9.63437,-7.74096 -9.83539,-9.82977 -19.89162,-19.44628 -29.55056,-29.44832 -2.9643,-2.64363 -2.92904,-7.67316 0.0395,-10.2947 10.04056,-10.78547 20.67666,-21.00179 31.01278,-31.50392 1.85903,-1.71523 3.47115,-3.7894 5.48691,-5.27678 1.43301,-0.78849 2.93389,-1.25833 4.58265,-1.0339 3.99657,0.14277 8.17625,-0.51868 11.99138,0.87158 4.00925,2.80826 1.45588,7.75834 -1.55571,10.19136 -4.50239,5.0178 -9.90881,9.26272 -13.8328,14.76988 -1.30867,2.10033 1.44625,4.70637 3.5042,4.58599 9.08758,0.0847 18.17517,0.16935 27.26276,0.25403 3.52096,1.09806 3.70916,5.01037 3.5038,8.12207 -0.0654,4.45161 -0.21837,8.90139 -0.33005,13.35201 -1.07719,1.47519 -2.40671,3.33377 -4.46928,2.88267 -8.74038,0.0832 -17.48075,0.16633 -26.22113,0.2495 -3.57019,1.01444 -3.92849,4.96878 -1.06893,7.10649 4.89912,5.52599 11.10831,9.8687 15.47059,15.8609 1.67809,2.93377 -0.43472,6.46139 -3.55375,7.17285 -4.2111,10e-4 -8.43782,0.23561 -12.63796,-0.12075 z"
         id="path3720" /><path
         style="fill:#1c2529"
         d="m 662.25209,205.53549 c -2.62086,0.11741 -5.29533,-2.45016 -4.95651,-5.03623 0.89127,-4.25403 5.07111,-6.62621 7.75892,-9.70848 3.32819,-3.43198 7.23907,-6.40535 9.94243,-10.37252 0.8013,-2.22169 -1.64657,-4.96323 -3.92682,-4.76202 -9.523,-0.0848 -19.046,-0.1696 -28.569,-0.2544 -2.15237,-1.07997 -3.71094,-3.3084 -3.2576,-5.76227 -0.004,-4.96797 -0.007,-9.93595 -0.0105,-14.90392 1.05312,-2.13252 3.18067,-3.90858 5.66576,-3.50815 9.0913,-0.19711 18.20418,0.0342 27.27681,-0.57769 5.90141,-1.41444 1.71596,-7.87936 -1.65133,-9.7344 -4.56946,-4.33402 -9.58445,-8.43922 -12.9139,-13.85663 -2.29435,-4.37881 2.87545,-7.20055 6.67386,-6.73497 3.94421,0.17045 8.53366,-1.20427 11.84577,1.6522 7.88303,6.6207 14.80851,14.29466 22.23282,21.41453 5.09166,5.10862 10.34296,10.10126 15.33502,15.28225 0.70162,1.50527 1.82255,2.91175 1.46461,4.66662 0.045,3.87726 -3.82729,6.15218 -6.03922,8.88393 -10.68368,10.66463 -21.263,21.44399 -32.1916,31.85717 -3.0687,2.37474 -7.40556,1.12924 -11.04428,1.57178 -1.21117,-0.007 -2.43234,0.0269 -3.6352,-0.1168 z"
         id="path3719" /></g></g></svg>
