<?xml version="1.0" encoding="UTF-8" standalone="no"?>
<!-- Created with Inkscape (http://www.inkscape.org/) -->

<svg
   width="129.06438mm"
   height="128.55502mm"
   viewBox="0 0 129.06438 128.55502"
   version="1.1"
   id="svg1"
   xml:space="preserve"
   xmlns="http://www.w3.org/2000/svg"
   xmlns:svg="http://www.w3.org/2000/svg"><defs
     id="defs1" /><g
     id="layer1"
     transform="translate(-401.28438,-84.576815)"><g
       id="g24"
       transform="translate(357.72491)"><circle
         style="fill:#ffffff;stroke:none;stroke-width:1.52123;stroke-linecap:round;stroke-linejoin:round"
         id="path30"
         cx="457.2352"
         cy="140.52762"
         r="55.950809"
         transform="translate(-357.72491)" /><path
         style="fill:#dee7ee"
         d="m 94.743714,192.12398 c -12.235977,-1.25049 -23.606853,-6.63082 -32.196818,-15.23448 -5.680627,-5.68969 -7.17084,-8.6191 -11.288854,-22.19129 -1.416614,-4.66889 -2.195824,-6.40062 -4.053462,-9.0085 -2.017446,-2.83222 -2.482174,-5.15933 -2.526192,-12.64977 l -0.02333,-3.96925 0.614024,-2.32977 c 1.353175,-5.13432 3.85158,-11.08115 6.571897,-15.64276 1.347747,-2.25999 1.754239,-2.57773 0.520428,-0.4068 -2.296563,4.04087 -3.791613,7.71243 -4.47722,10.99518 -0.295172,1.41332 -0.264065,2.15834 0.178614,4.27778 0.138774,0.66442 0.375042,1.80838 0.52504,2.54213 0.470423,2.30118 1.876485,1.45054 2.947589,-1.78323 12.625423,-38.117446 62.48388,-47.296061 89.603,-16.49533 0.87711,0.99619 2.0002,2.0905 2.49576,2.4318 0.60522,0.41683 1.55197,1.45124 2.88396,3.15101 1.09062,1.39175 2.42665,3.02723 2.96894,3.6344 1.54151,1.72591 3.62323,5.07359 4.36858,7.02529 0.7846,2.05442 0.13388,-1.11158 -0.89774,-4.36789 -0.0768,-0.24232 -0.0637,-0.24516 0.0974,-0.0211 0.47623,0.66253 1.56814,4.76459 2.01795,7.58096 0.14509,0.90852 0.29951,1.846 0.34315,2.08329 0.0664,0.36094 0.0551,0.37568 -0.0688,0.0902 -0.0949,-0.21873 -0.18459,0.64854 -0.24976,2.41606 -0.27699,7.51226 -3.44108,19.47978 -7.55028,28.55737 -1.71567,3.79006 -2.22704,4.7034 -2.55055,4.55539 -1.93645,-0.88593 -3.43503,-0.12961 -6.43233,3.24638 -7.19952,8.1091 -12.75841,14.14401 -13.80835,14.9908 -5.64896,4.55594 -19.59562,7.58673 -30.01266,6.52213 z m 8.748826,-7.58336 c 18.78544,-1.57946 37.37506,-17.12521 39.77516,-33.26234 0.10396,-0.69898 0.24614,-1.17844 0.31596,-1.06548 0.34585,0.55961 1.38,-6.78073 1.37905,-9.78844 -0.0101,-31.7887 -32.32176,-53.330756 -62.171729,-41.449612 -20.878137,8.310092 -32.144374,30.415922 -26.489905,51.976652 0.361823,1.37965 0.584326,1.96289 0.691285,1.81205 0.102314,-0.14429 0.120077,-0.0506 0.05056,0.26661 -0.05894,0.26897 -0.0407,0.44796 0.04054,0.39775 0.08124,-0.0502 0.316871,0.48371 0.523631,1.18649 5.379687,18.28551 25.815654,31.61378 45.885448,29.92632 z m -7.109355,-3.0911 c -24.741409,-2.10777 -41.618311,-24.40139 -37.235328,-49.18618 0.243386,-1.37629 0.450202,-2.66966 0.459592,-2.87416 0.0094,-0.2045 0.08851,-0.32766 0.175831,-0.2737 0.08732,0.054 0.109169,-0.0311 0.04856,-0.18905 -0.06061,-0.15795 -0.04792,-0.28718 0.0282,-0.28718 0.07612,0 0.144389,-0.0971 0.151712,-0.21572 0.04625,-0.7493 3.011528,-6.89261 4.362703,-9.03843 18.433239,-29.274041 62.385745,-25.010062 74.846725,7.26113 0.33164,0.85887 0.78855,1.92788 1.01535,2.37558 0.42453,0.838 0.54635,1.28325 0.22585,0.82547 -0.147,-0.20996 -0.16351,-0.19366 -0.0874,0.0863 1.07319,3.94741 1.40124,11.64971 0.6946,16.30842 -3.27161,21.56895 -22.93411,37.06065 -44.686393,35.20753 z m 6.717795,-7.0544 c 2.29751,-0.81701 10.95113,-9.24588 16.08718,-15.66936 11.13812,-13.93007 13.17466,-28.57353 5.58605,-40.16571 -16.56328,-25.301643 -55.874947,-12.6005 -54.164642,17.49996 0.566985,9.97865 6.334475,19.70285 19.396925,32.70391 6.334798,6.30503 8.536748,7.25197 13.094487,5.6312 z"
         id="path29" /><path
         style="fill:#b9c4ce"
         d="m 94.571138,196.78127 c -30.735063,-2.83295 -54.124663,-31.39291 -50.660986,-61.8598 0.555487,-4.88612 0.715918,-5.15718 0.756119,-1.27752 0.07155,6.90491 0.573641,9.28763 2.538309,12.04576 1.857638,2.60788 2.636848,4.33961 4.053462,9.0085 4.118014,13.57219 5.608227,16.5016 11.288854,22.19129 15.043904,15.06789 37.231148,19.50752 57.361164,11.47786 0.50913,-0.20309 0.86135,-0.27522 0.79142,-0.16208 -0.0865,0.13992 -0.0315,0.16761 0.17529,0.0883 0.1657,-0.0636 0.35318,-0.11681 0.4166,-0.11826 0.0634,-0.001 0.0188,-0.0639 -0.0991,-0.13882 -0.14384,-0.0914 0.0386,-0.25907 0.55411,-0.50955 0.46874,-0.22773 0.80983,-0.30655 0.87441,-0.20206 0.0582,0.0942 0.0419,0.1602 -0.0364,0.14661 -0.36766,-0.0639 -0.58273,0.0345 -0.47093,0.2154 0.0726,0.11741 0.0477,0.15262 -0.0605,0.0857 -0.23223,-0.14353 -0.7597,0.0492 -0.64455,0.23551 0.15353,0.24841 -2.32314,1.53972 -5.86106,3.05589 -4.21512,1.80638 -7.51527,4.06287 -7.51527,5.1386 0,0.63863 -8.735977,1.01418 -13.460922,0.57867 z m 52.159022,-27.29413 c -0.28004,-0.59843 -0.73539,-1.27541 -1.0119,-1.5044 l -0.50273,-0.41635 0.57178,-1.0768 c 4.76802,-8.97929 8.99217,-23.60305 9.31037,-32.23199 0.11276,-3.05779 0.23134,-3.05532 0.62944,0.0131 1.49324,11.50937 -1.21612,24.32104 -7.30342,34.53556 -1.24728,2.09294 -1.06672,2.02035 -1.69354,0.68085 z"
         id="path28" /><path
         style="fill:#acb8c3"
         d="m 160.04022,208.29749 c -1.7731,-0.43019 -1.48741,-0.16775 -17.32376,-15.91365 -9.74979,-9.69411 -10.19718,-9.90603 -15.39508,-7.29257 -0.74589,0.37502 -1.44992,0.62805 -1.56452,0.56228 -0.11459,-0.0658 -0.14985,-0.0551 -0.0783,0.0237 0.0715,0.0788 -0.47211,0.46503 -1.20804,0.85826 -0.73592,0.39323 -1.55159,0.85492 -1.81262,1.02597 -0.26102,0.17105 -0.47458,0.26324 -0.47458,0.20486 0,-0.0584 -0.15356,0.0474 -0.34124,0.2351 -0.2088,0.20881 -0.4542,0.29789 -0.63232,0.22954 -0.19051,-0.0731 -0.24982,-0.0449 -0.17166,0.0815 0.16605,0.26868 -0.42082,0.53908 -0.8394,0.38675 -0.28567,-0.10396 -0.16669,-0.20702 0.6903,-0.598 2.91756,-1.33106 4.20298,-2.38294 7.80589,-6.38769 1.54065,-1.71248 3.78455,-4.20084 4.98644,-5.52967 1.20189,-1.32884 3.3519,-3.72188 4.77779,-5.31788 4.69359,-5.25355 8.19382,-4.97077 8.77134,0.70864 0.26151,2.57167 -0.15496,2.06685 10.42975,12.64236 11.20289,11.19315 12.73547,12.75961 12.82386,13.10743 1.60846,6.32896 -4.24341,12.47736 -10.44381,10.97303 z M 55.744205,148.44608 c -0.0015,-0.0691 -0.172041,-1.11752 -0.379084,-2.32977 -5.226355,-30.60063 25.134287,-56.948136 56.232239,-48.799335 21.70553,5.687645 36.5505,27.959715 32.74491,49.127565 l -0.33116,1.84201 -0.021,-2.6186 c -0.045,-5.60608 -1.1587,-10.90058 -3.32272,-15.79592 -0.46313,-1.04768 -0.79912,-1.94779 -0.74666,-2.00026 0.0525,-0.0525 0.007,-0.0954 -0.10052,-0.0954 -0.10776,0 -0.15122,-0.11649 -0.0966,-0.25886 0.0546,-0.14238 0.0158,-0.25887 -0.0863,-0.25887 -0.1021,0 -0.14093,-0.11648 -0.0863,-0.25886 0.0546,-0.14238 0.009,-0.25886 -0.10189,-0.25886 -0.11067,0 -0.15323,-0.0777 -0.0946,-0.17258 0.0587,-0.0949 0.0161,-0.17258 -0.0946,-0.17258 -0.11068,0 -0.15653,-0.11648 -0.10189,-0.25886 0.0546,-0.14237 0.0265,-0.25886 -0.0624,-0.25886 -0.089,0 -0.11216,-0.12923 -0.0515,-0.28718 0.0736,-0.19178 0.0438,-0.24613 -0.0897,-0.16361 -0.12673,0.0783 -0.16543,0.0336 -0.10569,-0.12201 0.0518,-0.13507 -0.007,-0.35267 -0.13141,-0.48355 -0.12411,-0.13089 -0.23341,-0.33505 -0.24291,-0.45369 -0.0401,-0.50096 -0.0778,-0.57583 -0.23962,-0.47581 -0.10134,0.0626 -0.12447,-0.0148 -0.057,-0.1907 0.0766,-0.19957 0.0485,-0.25584 -0.0863,-0.17257 -0.13474,0.0833 -0.16287,0.027 -0.0863,-0.17258 0.0766,-0.19957 0.0484,-0.25585 -0.0863,-0.17258 -0.13473,0.0833 -0.16287,0.027 -0.0863,-0.17257 0.0766,-0.19957 0.0485,-0.25585 -0.0863,-0.17258 -0.13474,0.0833 -0.16287,0.027 -0.0863,-0.17257 0.0766,-0.19957 0.0484,-0.25585 -0.0863,-0.17258 -0.13473,0.0833 -0.16287,0.027 -0.0863,-0.17258 0.0766,-0.19957 0.0485,-0.25584 -0.0863,-0.17257 -0.13473,0.0833 -0.16287,0.027 -0.0863,-0.17258 0.0715,-0.18635 0.046,-0.25434 -0.0688,-0.18339 -0.10374,0.0641 -0.17222,-0.0167 -0.15876,-0.18741 0.013,-0.16509 -0.0706,-0.28167 -0.18585,-0.25908 -0.12918,0.0253 -0.16756,-0.0682 -0.10011,-0.24403 0.0729,-0.18999 0.0427,-0.24388 -0.0905,-0.16154 -0.13473,0.0833 -0.16287,0.027 -0.0863,-0.17258 0.0715,-0.18636 0.046,-0.25434 -0.0688,-0.1834 -0.10374,0.0641 -0.17221,-0.0167 -0.15876,-0.18741 0.0131,-0.166 -0.0785,-0.27895 -0.20489,-0.25273 -0.1257,0.0261 -0.17944,-0.032 -0.11943,-0.12912 0.13819,-0.2236 -0.32884,-0.90971 -0.50161,-0.73693 -0.0706,0.0706 -0.11267,0.0507 -0.0935,-0.0442 0.0708,-0.35082 -0.0106,-0.6216 -0.15915,-0.52976 -0.0842,0.052 -0.14244,-0.0405 -0.12943,-0.20554 0.013,-0.16508 -0.0643,-0.28378 -0.17176,-0.26377 -0.10748,0.02 -0.18513,-0.0965 -0.17257,-0.25887 0.0126,-0.16238 -0.0714,-0.27675 -0.18667,-0.25416 -0.11523,0.0226 -0.17507,-0.0551 -0.13298,-0.17258 0.0958,-0.26749 -1.08378,-1.8986 -1.28369,-1.77505 -0.0807,0.0499 -0.25263,-0.0443 -0.38203,-0.2094 -0.21719,-0.27703 -0.2099,-0.2802 0.0948,-0.0412 1.1608,0.91037 -1.50416,-2.41233 -3.73732,-4.65972 -4.70579,-4.73582 -11.2274,-8.67878 -17.01683,-10.28839 -0.58389,-0.16233 -1.06162,-0.36466 -1.06162,-0.44962 0,-0.085 -0.0694,-0.11155 -0.1543,-0.0591 -0.0849,0.0525 -0.99741,-0.09496 -2.02789,-0.32758 -13.972594,-3.154126 -28.738931,1.24014 -38.632004,11.49638 -1.977425,2.05002 -3.413314,3.79863 -3.328418,4.05332 0.02721,0.0816 0.0032,0.14843 -0.05343,0.14843 -0.178792,0 -0.673684,0.46671 -0.673684,0.63533 0,0.0889 0.09707,0.10576 0.21572,0.0375 0.125332,-0.0721 0.155462,-0.0583 0.07191,0.0329 -0.0791,0.0864 -0.234416,0.15731 -0.345152,0.15755 -0.110736,2.5e-4 -0.201441,0.15556 -0.201566,0.34515 -1.26e-4,0.18959 -0.116614,0.34658 -0.258864,0.34887 -0.14225,0.002 -0.24799,0.13736 -0.234977,0.30015 0.01301,0.1628 -0.04523,0.25341 -0.129432,0.20137 -0.141776,-0.0876 -0.227362,0.16494 -0.169252,0.49946 0.01359,0.0782 -0.05487,0.0931 -0.152139,0.033 -0.168699,-0.10427 -0.257443,0.14565 -0.182907,0.51508 0.01915,0.0949 -0.02293,0.11483 -0.09352,0.0442 -0.172778,-0.17277 -0.639803,0.51334 -0.501615,0.73693 0.06001,0.0971 0.0063,0.15521 -0.119434,0.12913 -0.125701,-0.0261 -0.218269,0.0854 -0.205706,0.24782 0.01256,0.16238 -0.0651,0.27887 -0.172576,0.25886 -0.10748,-0.02 -0.18477,0.0987 -0.171758,0.26378 0.01346,0.17069 -0.05502,0.25152 -0.158759,0.18741 -0.114794,-0.071 -0.140292,-0.003 -0.06878,0.1834 0.07658,0.19956 0.04844,0.25584 -0.08629,0.17257 -0.133227,-0.0823 -0.163427,-0.0284 -0.09052,0.16154 0.06746,0.17579 0.02907,0.26936 -0.100104,0.24403 -0.115231,-0.0226 -0.198863,0.094 -0.18585,0.25908 0.01345,0.17069 -0.05502,0.25152 -0.15876,0.18741 -0.114794,-0.0709 -0.140291,-0.003 -0.06878,0.1834 0.07658,0.19957 0.04845,0.25584 -0.08629,0.17257 -0.134732,-0.0833 -0.16287,-0.027 -0.08629,0.17258 0.0625,0.16287 0.04501,0.25372 -0.03888,0.20188 -0.184001,-0.11372 -0.402354,0.38795 -0.265345,0.60963 0.05337,0.0864 0.01021,0.157 -0.09591,0.157 -0.10612,0 -0.148819,0.0714 -0.09489,0.15867 0.05393,0.0873 -0.01544,0.27216 -0.154173,0.41089 -0.138728,0.13873 -0.204157,0.30031 -0.145399,0.35907 0.05876,0.0588 0.01165,0.10683 -0.104691,0.10683 -0.116338,0 -0.163528,0.0777 -0.104866,0.17257 0.05866,0.0949 0.01611,0.17258 -0.09457,0.17258 -0.110673,0 -0.156523,0.11649 -0.101889,0.25886 0.05463,0.14238 0.01953,0.25887 -0.07801,0.25887 -0.09754,0 -0.129348,0.0777 -0.07069,0.17257 0.05866,0.0949 0.02685,0.17258 -0.07069,0.17258 -0.09754,0 -0.132644,0.11649 -0.07801,0.25886 0.05463,0.14238 0.0088,0.25887 -0.101889,0.25887 -0.110673,0 -0.153228,0.0777 -0.09457,0.17257 0.05866,0.0949 0.01983,0.17258 -0.08629,0.17258 -0.10612,0 -0.146999,0.0743 -0.09084,0.16521 0.05616,0.0909 -0.209159,0.78427 -0.58959,1.54091 -2.723306,5.41639 -4.009753,11.14808 -3.993979,17.79495 0.003,1.28138 -0.06884,2.44627 -0.159738,2.58864 -0.0909,0.14238 -0.166456,0.20231 -0.16791,0.13318 z"
         id="path27" /><path
         style="fill:#70abd0"
         d="M 97.036564,174.46665 C 93.921119,173.493 82.476048,161.51565 77.375376,153.89108 57.897008,124.77447 87.791354,91.117257 116.3157,110.04924 c 19.79745,13.13983 16.91753,36.21946 -7.44544,59.66781 -5.14621,4.95301 -7.78891,6.01369 -11.833696,4.7496 z m 4.744976,-4.02161 c 2.98839,-1.36911 14.91265,-14.66623 18.27445,-20.37843 16.23097,-27.57876 -14.68936,-55.953936 -37.536417,-34.44667 -12.521359,11.78708 -10.306159,28.09703 6.240192,45.94494 8.012317,8.64258 10.233751,10.15748 13.021775,8.88016 z"
         id="path26" /><path
         style="fill:#8c99a6"
         d="m 160.49513,213.00827 c -2.52114,-0.40589 -2.37903,-0.28433 -14.99928,-12.83083 -14.62755,-14.54205 -12.40528,-13.56591 -20.72393,-9.10316 -4.08328,2.19058 -11.13392,4.48405 -15.74755,5.12244 -2.61735,0.36217 1.49782,-2.92709 5.96062,-4.76432 3.34767,-1.37816 4.33575,-1.86589 6.93943,-3.42539 10.30266,-6.17086 10.15183,-6.20261 20.79204,4.37683 17.56625,17.46592 16.47618,16.60756 20.33405,16.01187 5.04144,-0.77844 9.38349,-7.10523 7.47972,-10.89868 -0.39697,-0.79101 0.59828,0.49665 1.10865,1.43438 3.60886,6.63066 -3.28717,15.34176 -11.14375,14.07686 z M 137.54178,122.62926 C 121.9579,92.380447 79.664004,91.767169 62.959365,121.54779 c -0.457438,0.81551 -0.831883,1.41171 -0.8321,1.32489 -0.0029,-1.15009 5.194922,-8.53083 8.196961,-11.63949 17.45176,-18.071584 47.022834,-16.296422 62.509594,3.75247 2.05767,2.66383 5.99372,9.14717 5.71964,9.42125 -0.0348,0.0348 -0.49005,-0.76515 -1.01168,-1.77765 z"
         id="path25" /><path
         style="fill:#85c65a"
         d="m 98.172241,149.33535 c -13.288908,-1.40901 -19.05244,-17.29795 -9.618116,-26.51527 12.729765,-12.43696 33.716235,2.38647 25.585755,18.07206 -2.59153,4.99966 -9.96598,9.37219 -14.514095,8.60584 -0.07493,-0.0126 -0.729023,-0.0858 -1.453544,-0.16263 z M 89.09972,130.03327 c 0.239993,-0.0912 0.647568,-0.56482 0.955138,-1.1098 1.598052,-2.83159 4.540323,-4.91048 7.847741,-5.54488 2.554371,-0.48996 2.554561,-2.741 2.06e-4,-2.42249 -5.412805,0.67495 -12.55506,7.37181 -9.630687,9.03012 0.424207,0.24055 0.332397,0.23533 0.827602,0.047 z"
         id="path24" /></g></g></svg>
