<?xml version="1.0" encoding="UTF-8" standalone="no"?>
<!-- Created with Inkscape (http://www.inkscape.org/) -->

<svg
   width="123.00974mm"
   height="114.04363mm"
   viewBox="0 0 123.00974 114.04363"
   version="1.1"
   id="svg1"
   xml:space="preserve"
   xmlns="http://www.w3.org/2000/svg"
   xmlns:svg="http://www.w3.org/2000/svg"><defs
     id="defs1" /><g
     id="layer1"
     transform="translate(-561.95288,-95.372762)"><g
       id="g31"
       transform="translate(521.13011)"><circle
         style="fill:#ffffff;stroke:none;stroke-width:1.5;stroke-linecap:round;stroke-linejoin:round"
         id="path41"
         cx="102.31226"
         cy="154.94052"
         r="52.260223"
         transform="translate(-3.3333333e-6)" /><path
         id="path64"
         style="display:inline;fill:#ced8e0"
         transform="translate(-3.3333333e-6)"
         d="m 105.09472,105.36879 c 6.54691,1.45989 13.50012,3.75134 19.6112,4.94069 2.13784,1.05444 5.1863,6.02249 6.88487,1.69968 6.45789,3.13945 10.79788,9.26981 15.11719,14.77983 5.38281,7.73999 8.98501,16.95523 8.60514,26.4924 1.56544,13.92758 -4.15877,27.97727 -13.12169,38.46792 -9.21446,1.64761 -18.61508,0.33137 -27.90797,0.90501 -15.470937,0.0198 -31.021953,-0.24399 -46.438067,-0.28581 -6.361846,-3.09403 -9.175972,-10.56035 -12.138163,-16.59254 -2.078571,-2.94411 -3.235912,-12.1378 -3.995243,-11.98089 1.317292,2.42467 -4.781035,-2.17524 -1.21199,-2.46334 -1.39232,-6.17029 3.673393,-11.67575 3.179763,-17.91625 -0.08788,-5.86735 3.780155,-9.8068 6.290356,-14.62369 5.163376,-6.15257 10.395622,-12.5517 17.708561,-16.2621 6.833486,-3.96053 14.704428,-6.152 22.586123,-6.33753 1.41444,-0.0741 4.12652,1.00038 4.82992,-0.82338 z m -4.27106,-7.697232 c -3.107107,0.57843 -8.481618,0.927032 -9.866504,2.189883 -4.167766,-1.984616 -9.228704,2.352649 -13.511018,3.494309 -10.432817,4.68889 -18.815561,13.02158 -25.261681,22.30969 -11.151475,17.50367 -11.80168,40.95966 -1.897997,59.1554 5.345802,5.30546 -1.273271,16.28578 7.058436,19.27842 5.975528,1.5211 12.254028,0.62226 18.363652,0.73323 6.480794,-0.26171 13.025555,0.2338 19.276851,1.96427 -2.672173,0.75524 -7.280109,-3.7583 -2.662766,-3.02701 5.61011,4.45744 13.189847,4.42319 19.787457,2.57874 11.75323,-2.94305 23.95394,-0.43587 35.86749,-2.06562 7.58888,-2.89722 -2.07718,-12.37604 4.75264,-15.95299 2.72341,-5.83243 6.60995,-12.24054 5.54793,-18.57715 3.13035,-6.31282 4.20746,-13.18367 2.49542,-20.12466 -1.89859,-4.72302 0.23702,-12.21309 -6.17859,-13.35972 3.15648,-6.02732 -3.46082,-11.11456 -6.1915,-16.00413 -4.47459,-6.06226 -10.61694,-10.42257 -16.73672,-14.48988 -9.0941,-5.77603 -20.18651,-7.976553 -30.8431,-8.102782 z" /><path
         style="fill:#dce5ed"
         d="m 149.07097,204.51001 c 2.40682,-2.65535 2.7405,-3.77837 2.86184,-9.63157 l 0.0952,-4.59222 0.69697,-1.16325 c 0.38334,-0.63979 0.82527,-1.61368 0.98207,-2.16421 0.1568,-0.55052 0.97897,-2.50238 1.82705,-4.33746 3.67322,-7.94815 5.25726,-13.77472 5.9187,-21.77071 0.18743,-2.26578 0.25318,-6.77059 0.10469,-7.1735 -0.0507,-0.13763 -0.2083,-1.39133 -0.35019,-2.786 -2.4824,-24.40141 -20.80813,-45.64423 -44.37945,-51.443761 -49.1258,-12.087002 -89.767131,38.727091 -67.246048,84.078131 0.838954,1.68941 1.304695,2.81559 1.764837,4.26743 0.116321,0.36702 0.464695,1.08168 0.774165,1.58813 l 0.562673,0.92083 v 4.25411 c 0,5.37357 0.478564,7.21614 2.554678,9.83606 0.181773,0.22938 -0.480806,-0.40743 -1.472397,-1.41515 -0.991591,-1.00771 -1.711296,-1.64582 -1.599345,-1.41801 0.183425,0.37324 0.158365,0.36472 -0.253506,-0.0863 -0.251379,-0.27526 -0.515957,-0.4826 -0.587952,-0.46077 -0.07199,0.0218 -0.08331,-0.0843 -0.02514,-0.23589 0.06345,-0.16536 0.03811,-0.2338 -0.06335,-0.17109 -0.386298,0.23874 -0.592621,-1.25201 -0.722645,-5.22137 -0.172592,-5.26885 -0.356373,-6.00916 -2.56769,-10.34318 -4.209325,-8.24997 -6.525685,-16.50046 -6.86161,-24.43992 -0.05047,-1.1928 -0.123255,-2.6567 -0.161748,-3.2531 -2.124757,-32.92039 29.963883,-63.769755 64.379388,-61.893029 44.65597,2.435153 71.83902,48.963349 51.87704,88.795959 -0.77085,1.53816 -1.58616,3.34664 -1.81181,4.01884 -0.90475,2.6952 -0.95244,3.02299 -1.06642,7.33066 -0.0632,2.3898 -0.1788,4.18621 -0.27367,4.25405 -0.0903,0.0646 -0.44254,0.53031 -0.78272,1.03496 -0.78995,1.17186 -2.23231,2.56745 -3.71895,3.59832 l -1.16778,0.80976 z m -72.698284,-6.45736 c -0.432309,-0.43231 -0.424964,-1.03343 0.01752,-1.43386 l 0.35117,-0.3178 h 26.073144 26.07315 l 0.35116,0.3178 c 0.46782,0.42337 0.45807,1.17324 -0.0196,1.50782 -0.33173,0.23235 -3.11548,0.25969 -26.44183,0.25969 H 76.706337 Z m 63.343194,-5.79504 -0.80118,-0.0628 0.98189,-1.11658 c 5.71604,-6.50008 10.12879,-14.84403 11.96486,-22.62405 1.07637,-4.56091 1.14482,-5.23442 1.19672,-11.77419 0.0529,-6.6723 0.084,-6.94261 0.84783,-7.38873 l 0.52086,-0.3042 0.30201,0.45996 c 0.88488,1.34769 0.91204,10.81954 0.0456,15.90789 -1.61309,9.47336 -6.51638,19.85831 -12.25715,25.96009 -1.07611,1.14379 -0.9175,1.09042 -2.80146,0.94265 z m -75.135971,-4.44774 c -18.266093,-28.20652 -11.165882,-60.32418 16.38912,-74.13584 34.268921,-17.176951 74.804161,12.02459 69.076111,49.76235 -0.48106,3.16931 -0.5537,3.13083 -0.4725,-0.25024 0.2307,-9.60549 -2.02509,-17.62655 -7.16321,-25.47071 -1.23414,-1.88412 -1.33856,-2.10702 -1.16523,-2.48744 0.53996,-1.18508 -0.46077,-2.59922 -1.54494,-2.18318 -0.15004,0.0576 -0.84018,-0.59377 -1.91367,-1.80606 -2.85402,-3.22307 -6.81538,-6.57517 -10.69798,-9.05263 -0.87166,-0.5562 -1.56138,-1.10688 -1.53271,-1.22373 0.23305,-0.94975 0.21149,-1.10935 -0.219,-1.62097 -0.57782,-0.68669 -1.43716,-0.73471 -2.08258,-0.11636 l -0.43262,0.41448 -1.91247,-0.81048 c -4.63156,-1.9628 -10.29464,-3.31257 -15.20185,-3.62329 l -1.77924,-0.11266 -0.10421,-0.55544 c -0.27918,-1.48818 -2.76008,-1.37779 -2.76008,0.12282 v 0.4161 l -2.460678,0.28351 c -5.036346,0.58027 -9.951612,1.87587 -14.055041,3.70473 -2.209221,0.98463 -2.439754,1.04001 -2.573634,0.61819 -0.308772,-0.97285 -1.710795,-1.24503 -2.383684,-0.46275 -0.434883,0.50558 -0.503083,1.36162 -0.147249,1.84825 0.218374,0.29864 0.105238,0.40381 -1.709961,1.58953 -3.883103,2.5365 -7.833963,6.01839 -10.606441,9.34745 l -1.194026,1.43373 -0.378367,-0.25122 c -0.970269,-0.64424 -2.473406,0.58387 -2.048827,1.67395 0.158416,0.40672 1.235035,1.34023 1.742964,1.51128 0.125334,0.0422 -0.240654,0.91626 -0.999728,2.38756 -2.654233,5.14464 -3.808702,8.81324 -4.693632,14.91515 l -0.302259,2.08418 -0.618826,0.10059 c -1.826067,0.29682 -1.951951,2.82106 -0.140692,2.82117 l 0.613487,4e-5 0.0076,7.21516 0.0076,7.21516 0.435599,2.18549 c 0.701856,3.52134 2.046207,6.33129 4.46218,9.32679 0.950412,1.17838 1.17764,1.57725 1.264184,2.21907 0.05803,0.43036 0.213416,1.22532 0.345302,1.76659 0.320927,1.31711 0.32381,1.31931 -1.048827,-0.80032 z m 89.450011,-38.97071 c -0.27527,-0.07 -0.85367,-0.13623 -1.28534,-0.14709 l -0.78486,-0.0197 -0.10748,-0.62559 c -2.18952,-12.74488 -8.94238,-23.88188 -19.21768,-31.69436 -1.03224,-0.78482 -1.87679,-1.49561 -1.87679,-1.57953 0,-0.0839 -0.0699,-0.1094 -0.1553,-0.0566 -0.24046,0.14861 -0.36673,-0.18257 -0.24878,-0.65251 0.0586,-0.2336 0.21107,-0.42474 0.33875,-0.42474 0.17603,0 0.23216,-0.27996 0.23216,-1.15793 0,-1.10125 0.22137,-1.66433 0.43522,-1.10703 0.0546,0.14221 0.8845,0.83084 1.84428,1.53029 11.25747,8.20402 20.88759,23.20477 21.98618,34.24768 0.0375,0.37722 0.11389,0.8297 0.16968,1.0055 0.0909,0.28649 -0.45234,0.89362 -0.74157,0.82874 -0.0484,-0.0109 -0.31321,-0.077 -0.58847,-0.14708 z"
         id="path40" /><path
         style="display:inline;fill:#abb8c3"
         d="m 99.227768,209.2911 c -0.229385,-0.0331 -1.092707,-0.14292 -1.918493,-0.24397 -0.825785,-0.10105 -2.477357,-0.37892 -3.670159,-0.61748 l -2.16873,-0.43375 -16.098652,-0.0969 c -17.964529,-0.10814 -16.606118,-0.0151 -19.10151,-1.30823 -1.508405,-0.78167 -3.456713,-2.71593 -4.235099,-4.20458 -0.656766,-1.25605 -0.547259,-1.18413 0.67344,0.4423 1.161117,1.54704 2.689958,2.84974 3.561659,3.03484 0.944022,0.20045 1.025851,0.0735 0.298117,-0.46253 -1.803061,-1.32805 -1.882638,-1.7481 -0.252291,-1.3317 3.350696,0.85577 3.784078,0.87958 17.887906,0.98279 l 13.26262,0.0971 2.919445,0.78219 c 8.879765,2.37913 16.443839,2.33247 24.856989,-0.15333 l 2.08532,-0.61614 13.51285,-0.11145 c 7.43208,-0.0613 13.70054,-0.15681 13.92993,-0.21224 0.22938,-0.0554 1.16777,-0.22668 2.08531,-0.38056 0.91754,-0.15388 1.83717,-0.34229 2.04361,-0.4187 0.59002,-0.21835 0.44461,0.076 -0.45162,0.91437 -1.07532,1.00584 -0.86356,0.97764 0.75552,-0.10061 1.5167,-1.01007 3.14854,-2.48712 3.823,-3.46037 0.62359,-0.89985 0.71949,-0.73437 0.18783,0.32413 -1.35121,2.69021 -3.52654,4.6359 -6.31953,5.65241 l -1.20658,0.43914 -16.01524,0.093 -16.01524,0.093 -1.74,0.37257 c -3.86169,0.82686 -10.18067,1.28736 -12.690402,0.92483 z M 66.231504,191.92182 c -4.122339,-3.58774 -9.820743,-13.24902 -11.930611,-20.22758 -11.953049,-39.5357 25.34038,-75.947186 64.278627,-62.75851 4.25399,1.44086 12.07183,5.36841 11.74346,5.89973 -0.0498,0.0805 -0.0168,0.12578 0.0733,0.10056 0.27768,-0.0777 3.5442,2.44009 5.63768,4.3455 17.36223,15.80244 21.41814,41.18024 9.731,60.8869 -1.00318,1.69154 -0.98816,1.68089 -1.67708,1.19033 -0.54562,-0.38852 -0.57139,-0.53001 -0.22581,-1.23983 l 0.24366,-0.50047 -0.0875,0.45877 c -0.13726,0.71933 0.13986,0.5401 0.64482,-0.41707 0.25413,-0.48171 0.69202,-1.25119 0.97309,-1.70996 4.43398,-7.23724 6.07831,-20.34805 3.86827,-30.843 -8.84041,-41.98097 -63.418262,-52.628598 -87.27588,-17.0267 -11.347572,16.93359 -10.579274,38.00638 2.095028,57.46216 1.51586,2.32694 2.713551,4.67111 2.38657,4.67111 -0.07871,0 -0.294059,-0.13137 -0.478554,-0.29194 z"
         id="path37" /><path
         style="display:inline;fill:#93a3b1"
         d="m 100.07935,167.76008 c -5.535523,-1.48859 -8.066443,-8.40059 -4.843327,-13.22725 4.703944,-7.04421 15.826707,-3.73024 15.885187,4.73292 0.0403,5.83145 -5.39511,10.01282 -11.04186,8.49433 z m 7.0924,-9.1822 c 1.57837,-0.74899 1.8656,-2.97352 0.53826,-4.16867 -1.8534,-1.66882 -4.88642,0.22503 -4.13108,2.57948 0.50478,1.57344 2.12022,2.28798 3.59282,1.58919 z"
         id="path36" /><path
         style="fill:#44aff1"
         d="m 73.44429,157.76221 c -2.243409,-1.13959 -2.217221,-2.86365 0.115267,-7.58845 11.818293,-23.93969 45.589503,-24.16372 57.526683,-0.38161 2.50716,4.99494 2.54109,7.12503 0.12955,8.13263 -1.85404,0.77467 -3.76926,-0.26073 -4.53337,-2.45082 -7.72227,-22.13354 -39.094509,-22.49158 -48.204027,-0.55013 -1.25318,3.01845 -2.877118,3.93407 -5.034103,2.83838 z"
         id="path35" /><path
         style="display:inline;fill:#74d259"
         d="m 100.32627,175.52474 c -14.301553,-2.24969 -19.013013,-20.17282 -7.604693,-28.92946 9.860103,-7.56828 24.339873,-1.26864 25.732703,11.1954 1.14708,10.26501 -8.10032,19.31145 -18.12801,17.73406 z m 4.17879,-5.41438 c 5.15335,-0.986 8.73111,-5.39563 8.73111,-10.7612 0,-9.66196 -11.37327,-14.55868 -18.345863,-7.89874 -7.906027,7.55152 -1.123628,20.71453 9.614753,18.65994 z"
         id="path34" /><path
         style="fill:#58a84c"
         d="m 100.14531,170.10951 c -8.655395,-1.93353 -11.646512,-12.55418 -5.255003,-18.65909 7.870293,-7.51739 20.602763,-0.0911 18.093733,10.55323 -1.3278,5.63305 -7.22921,9.35897 -12.83873,8.10586 z m 5.02014,-2.50235 c 9.10112,-3.05515 7.32485,-16.28193 -2.26752,-16.88489 -5.616185,-0.35303 -10.090099,4.79941 -8.939372,10.29514 1.092064,5.21557 6.255682,8.25182 11.206892,6.58975 z"
         id="path33" /><path
         style="fill:#445562"
         d="m 102.1515,121.27554 c -0.87046,-0.26441 -0.99615,-0.75726 -0.97865,-3.83743 0.022,-3.88042 0.24275,-4.42984 1.61236,-4.01381 1.05171,0.31947 1.02151,0.16514 1.01116,5.16757 -0.005,2.37731 -0.42063,3.05555 -1.64487,2.68367 z"
         id="path228" /><path
         style="fill:#445562"
         d="m 120.82408,125.90825 c -0.64328,-0.64328 -0.52198,-1.13723 0.94441,-3.846 1.84737,-3.41253 2.30087,-3.79321 3.31302,-2.78106 0.77722,0.77723 0.82328,0.62687 -1.54231,5.03463 -1.1242,2.09471 -1.81039,2.49716 -2.71512,1.59243 z"
         id="path227" /><path
         style="fill:#445562"
         d="m 82.406902,126.01258 c -0.610835,-0.61084 -3.081483,-5.38978 -3.066115,-5.93074 0.05423,-1.90899 1.842008,-1.61963 2.968183,0.48041 0.34443,0.64228 0.958077,1.76835 1.363659,2.50238 1.298165,2.34945 0.348229,4.5619 -1.265727,2.94795 z"
         id="path226" /><path
         style="fill:#445562"
         d="m 134.35398,138.29204 c -0.76849,-1.09718 -0.43082,-1.51781 2.90305,-3.61626 2.86915,-1.80594 3.51396,-1.9073 4.00005,-0.62878 0.25675,0.67528 -0.034,1.19656 -1.02558,1.83885 -4.67319,3.02697 -5.27122,3.2718 -5.87752,2.40619 z"
         id="path225" /><path
         style="fill:#445562"
         d="m 69.013186,138.61358 c -2.244046,-1.03399 -5.486057,-3.51347 -5.486057,-4.19572 0,-1.97245 6.21368,0.29083 7.188631,2.6184 0.454246,1.08445 -0.617452,2.0773 -1.702574,1.57732 z"
         id="path224" /><path
         style="fill:#445562"
         d="m 139.4853,158.50536 c -0.81855,-0.31073 -0.98586,-1.592 -0.28035,-2.14696 2.12961,-1.67515 9.56019,0.022 8.08335,1.84619 l -0.31884,0.39384 -3.55985,0.0226 c -1.95792,0.0125 -3.72386,-0.0396 -3.92431,-0.11571 z"
         id="path223" /><path
         style="fill:#445562"
         d="m 58.188716,158.56556 c -0.941873,-0.35405 -1.164833,-1.60126 -0.394566,-2.20715 0.412863,-0.32476 0.651447,-0.34576 3.92798,-0.34576 h 3.488419 l 0.409481,0.40948 c 0.608066,0.60807 0.535024,1.59104 -0.145281,1.95513 -0.364671,0.19516 -6.823695,0.36209 -7.286033,0.1883 z"
         id="path32" /></g></g></svg>
