<?xml version="1.0" encoding="UTF-8" standalone="no"?>
<!-- Created with Inkscape (http://www.inkscape.org/) -->

<svg
   width="120.56344mm"
   height="133.81142mm"
   viewBox="0 0 120.56344 133.81142"
   version="1.1"
   id="svg1"
   xml:space="preserve"
   xmlns="http://www.w3.org/2000/svg"
   xmlns:svg="http://www.w3.org/2000/svg"><defs
     id="defs1" /><g
     id="layer1"
     transform="translate(-734.73952,-86.516858)"><g
       id="g245"
       transform="translate(688.06484)"><path
         style="baseline-shift:baseline;display:inline;overflow:visible;opacity:1;vector-effect:none;fill:#8f9eaa;stroke-linecap:round;stroke-linejoin:round;enable-background:accumulate;stop-color:#000000;stop-opacity:1"
         d="m 112.14063,98.267578 c -0.5787,0.143565 -1.07676,0.510959 -1.38477,1.021484 -10.49817,17.411598 -21.859767,27.555898 -32.664063,38.556638 -10.804296,11.00074 -21.004483,22.89856 -28.419922,43.29102 -0.424229,1.16766 0.178188,2.45818 1.345703,2.88281 1.168234,0.42552 2.687853,0.0506 3.112473,-1.11799 7.157795,-19.68394 17.027955,-30.65403 27.693156,-41.51314 10.665201,-10.85912 22.205203,-21.46928 33.046413,-39.44982 0.64236,-1.06458 0.0392,-2.773658 -1.02587,-3.415143 -0.51131,-0.307781 -1.12395,-0.399818 -1.70312,-0.255859 z m 33.82617,47.054692 c -0.59176,0.0758 -1.1292,0.38349 -1.49414,0.85546 -21.52662,27.84035 -39.26373,38.01419 -54.933598,44.98047 -15.66987,6.96629 -29.691595,10.73407 -42.322265,25.45508 -0.808664,0.94288 -0.700254,2.3627 0.242187,3.17188 0.943166,0.80998 2.364484,0.70152 3.173828,-0.24219 11.809349,-13.76377 24.586378,-16.63002 40.604257,-23.75102 16.017881,-7.12099 35.247361,-18.09807 57.186481,-46.47191 0.75996,-0.98321 0.1886,-2.78668 -0.79464,-3.5466 -0.47227,-0.36487 -1.07016,-0.52717 -1.66211,-0.45117 z"
         id="path312" /><path
         id="path314"
         style="baseline-shift:baseline;display:inline;overflow:visible;opacity:1;vector-effect:none;fill:#81919d;fill-opacity:1;stroke-linecap:round;stroke-linejoin:round;enable-background:accumulate;stop-color:#000000;stop-opacity:1"
         d="m 114.0256,100.02335 c -0.19668,-0.004 -0.39301,0.0183 -0.58395,0.0656 -0.5786,0.14369 -1.07651,0.51113 -1.38441,1.02164 -10.05148,17.85828 -20.866281,28.54945 -32.664153,38.55682 -11.797662,10.00719 -22.82956,23.81095 -28.419971,43.2909 -0.113375,0.31659 -0.154342,0.65458 -0.119889,0.98909 0.05379,0.0263 0.108613,0.0504 0.164331,0.0724 1.168315,0.42535 2.460153,-0.17753 2.884578,-1.34618 7.157795,-19.68394 16.735194,-30.81638 27.400395,-41.67549 10.665201,-10.85912 22.465799,-21.40413 33.307009,-39.38467 0.2503,-0.41584 0.35943,-0.90147 0.31109,-1.38442 -0.28103,-0.12936 -0.58572,-0.19938 -0.89503,-0.20567 z m 33.53594,47.10204 c -0.0981,-2.1e-4 -0.1962,0.006 -0.29353,0.0186 -0.59167,0.0758 -1.12903,0.3834 -1.49396,0.85525 -21.34319,29.30781 -39.0706,38.70775 -54.9336,44.98071 -17.006804,6.72527 -32.812148,10.9738 -42.322481,25.45478 -0.398885,0.46679 -0.589678,1.07632 -0.528133,1.68723 0.91148,0.41735 1.989123,0.18134 2.642732,-0.57877 11.809349,-13.76377 24.716586,-17.15091 40.734465,-24.27191 16.017887,-7.12099 34.727187,-17.96751 56.666307,-46.34135 0.3501,-0.45482 0.51315,-1.02623 0.45579,-1.59732 -0.29091,-0.13434 -0.60717,-0.20499 -0.92759,-0.20722 z" /><path
         id="ellipse270"
         style="fill:#edf5fd;stroke-width:0.2;stroke-linecap:round;stroke-linejoin:round"
         d="m 130.64535,180.57877 c -3.07975,1.94896 -10.52563,-0.65581 -6.44307,-4.73537 2.62786,-2.88841 11.18612,-5.11317 11.90781,0.27993 -0.67179,2.43219 -3.2497,3.72607 -5.46474,4.45544 z m -15.47366,-19.22836 c -1.38613,3.23163 -7.21701,6.1745 -6.61403,0.17512 0.21316,-3.95464 4.9216,-11.37466 8.39499,-6.62158 0.58646,2.29133 -0.52802,4.60917 -1.78096,6.44646 z M 80.430134,121.01378 c -1.386125,3.23162 -8.727236,7.86603 -7.994139,0.17511 0.670255,-3.89384 4.388824,-9.38883 8.912325,-7.8772 2.235518,2.1283 0.435809,5.65889 -0.918186,7.70209 z m 16.514618,16.49588 c -3.101043,1.68713 -10.523835,-0.29753 -6.443073,-4.73537 2.580169,-3.00455 11.930171,-5.17348 11.785221,0.71167 -0.93223,2.17372 -3.228816,3.33138 -5.342148,4.0237 z" /><path
         id="path267"
         style="display:inline;fill:#cbe1f7;fill-opacity:1;stroke:none;stroke-width:0.2;stroke-linecap:round;stroke-linejoin:round;stroke-dasharray:none;stroke-opacity:1"
         d="m 101.25517,139.63477 c 6.19078,-0.89424 9.87183,-8.2815 6.65293,-9.59693 -9.027595,-3.68924 -16.262059,0.36659 -17.809664,1.61769 -7.53273,6.08952 -0.326143,9.63791 11.156734,7.97924 z m -6.914849,-5.56311 c -2.513486,1.67201 -2.900553,0.74982 -2.292265,-1.02163 0.351268,-1.02295 2.287848,-2.65399 4.420888,-2.57977 1.80314,0.0627 1.436426,1.15473 1.093406,2.44304 -0.35278,1.32499 -2.091492,0.40631 -3.222029,1.15836 z M 84.52511,114.52422 c -2.137521,-9.68323 -4.758554,-8.70868 -9.972529,-1.1572 -4.710283,6.82197 -3.297351,10.0343 -0.78263,17.45872 1.811579,5.34847 13.041301,-5.94503 10.755159,-16.30152 z m -5.144775,3.71952 c -2.246319,1.00143 -2.68828,5.971 -4.363019,5.67904 -2.5166,-0.43872 -0.936784,-2.59274 -0.375523,-4.60939 0.293712,-1.05533 2.710639,-4.88249 3.902982,-5.07771 2.644355,-0.43296 3.547683,2.79898 0.83556,4.00806 z m 57.067675,67.16473 c 7.06488,-0.894 8.67204,-6.89109 5.31883,-9.41292 -6.62552,-4.98281 -14.51369,-4.56796 -16.84359,-2.66065 -8.42374,6.89584 0.0177,13.52969 11.52476,12.07357 z m -7.53426,-7.79959 c -2.02604,0.11218 -3.02321,0.78349 -2.47628,-0.79161 0.35479,-1.02174 1.32177,-2.19396 3.45481,-2.11974 1.80314,0.0627 2.3565,0.87871 2.01348,2.16702 -0.35278,1.32499 -1.63626,0.66926 -2.99201,0.74433 z m -10.11587,-21.72732 c -0.49505,-7.10399 -3.83848,-9.62875 -8.13238,-2.53731 -4.2939,7.09144 -4.42402,12.29617 -1.88672,19.7129 2.31762,6.77459 10.82542,-5.60487 10.0191,-17.17559 z m -4.96076,3.90354 c -1.00841,1.07348 -1.17106,2.50478 -2.01683,2.50478 -0.84578,0 -2.21162,-1.80871 -1.20359,-3.64331 0.6254,-1.13825 0.9653,-2.02926 2.01683,-2.17948 1.22888,-0.17555 2.21201,2.24454 1.20359,3.31801 z" /><path
         style="display:inline;fill:#8bb3d7"
         d="m 131.29149,186.19248 c -4.99935,-0.68311 -9.6426,-4.21949 -9.6426,-7.34398 0,-1.32443 1.75122,-1.31439 4.11549,0.0236 6.79915,3.84776 12.66317,2.7474 14.96428,-2.80797 0.53837,-1.29975 3.8357,1.9311 4.00064,3.91999 0.29182,3.51898 -7.33437,7.04234 -13.43781,6.20837 z m -18.85885,-11.41997 c -0.002,-1.90379 -0.0869,-3.01325 -0.29666,-3.86366 2.91702,-1.37196 4.4796,-4.37627 4.51018,-12.61447 l 0.0116,-3.1247 0.57257,1.20989 c 0.31492,0.66545 0.96145,2.66562 1.43676,4.44484 0.4753,1.77922 1.02368,3.58656 1.21863,4.01633 1.08071,2.38239 0.0122,7.50428 -3.07977,10.04631 -2.51321,2.06619 -4.04642,2.52705 -4.24885,2.55623 -0.67703,0.0976 -0.12314,-1.20181 -0.12449,-2.67069 z m -17.490627,-33.5935 c -1.18851,-0.50093 -3.936345,-1.15386 -5.420649,-1.28802 -1.366818,-0.12355 -1.665492,-0.31483 -2.192961,-1.40444 -0.509394,-1.05227 -0.526538,-3.58365 0.06075,-3.2764 4.451052,2.32865 7.209377,5.29539 16.325077,-0.23764 2.52652,-1.53354 4.22805,-4.08976 3.19202,-5.1258 -0.67602,-0.67601 2.12705,0.61697 2.89382,1.33485 4.63671,4.34106 -8.04033,12.87098 -14.858061,9.99745 z m -17.23466,-6.41917 c -0.29248,-0.23683 -1.488005,-0.51448 -1.787925,-1.70714 -0.228847,-0.91003 -1.909863,-2.56012 -1.641614,-3.60748 l 0.476609,-1.86089 c 4.263094,2.11498 2.717622,6.24349 8.733733,-4.2332 1.724537,-3.00318 0.508414,-6.66357 0.508414,-9.06606 0,-1.09474 0.186867,-0.85724 0.846247,1.07556 3.216787,9.42914 1.442384,18.05101 -4.006938,19.46983 -1.140004,0.29682 -2.718759,0.26117 -3.128526,-0.0706 z"
         id="path249" /><path
         id="path291"
         style="display:inline;fill:#a3cc97"
         d="m 92.490601,197.74533 c -1.748457,-1.64399 -10.334814,-3.39506 -4.317786,-3.91708 4.475748,0.71899 7.449673,-3.48971 10.271739,-6.27369 4.440296,-0.14274 8.551446,1.71672 12.308626,3.8613 1.93798,5.89739 -3.6266,12.58926 -9.84807,11.11361 -2.86137,-1.48511 -5.77661,-2.91703 -8.414509,-4.78414 z m 25.131569,-5.7011 c -3.07812,-2.67037 -4.32871,-7.11314 -9.37025,-6.4304 -0.17655,-3.23512 5.67889,-6.25792 9.54044,-4.74999 4.29405,1.09811 11.80757,5.57597 11.37986,9.46373 -3.70342,1.12346 -7.6626,2.04938 -11.55005,1.71666 z m -31.759509,-4.87438 c -2.885439,-1.43497 -2.644494,-6.29614 -1.622526,-9.28481 2.347047,-4.73907 6.741269,-8.68569 11.931661,-10.33188 2.573006,-0.81606 1.91803,-0.002 3.144862,2.35187 0.950812,-7.8126 6.874182,-13.13449 9.243462,-6.80478 2.61048,3.28852 0.64955,11.34986 -0.59801,15.83616 -6.87406,0.0853 -8.865999,6.3718 -15.043956,8.81315 -0.99643,0.20124 -6.100357,-0.21952 -7.055493,-0.57971 z m 54.340989,-18.063 c -2.87021,-1.3737 -10.29163,-3.47659 -6.86139,-7.36036 3.80706,-5.67748 10.89647,-9.80154 17.86729,-7.77384 8.77045,2.55118 7.81577,5.50219 3.95406,9.34865 -2.78495,3.83928 -10.11954,6.6145 -14.95996,5.78555 z m -18.09106,-6.58592 c -3.64335,-0.53458 -6.23318,-8.74646 -4.48616,-13.15203 1.41752,-4.19578 5.40388,-13.02876 10.77311,-9.47407 1.94485,3.1832 4.2742,6.59154 3.70288,10.52453 -0.82393,4.28449 -1.38092,10.67786 -5.98946,12.13394 -2.42203,0.14521 -1.11201,0.39142 -4.00037,-0.0324 z m -51.416791,-1.73454 c -3.283389,0.0385 -9.650918,-0.27373 -9.16706,-3.15661 0.669496,-3.98893 7.354979,-4.3222 8.462412,-9.25409 2.525573,-2.95796 6.841239,-1.87075 9.060296,-5.49117 3.488902,-3.66903 10.524784,-4.93181 17.367453,-0.90543 4.27332,2.51452 -7.471174,7.93025 -10.638202,12.13409 -3.674221,4.5053 -9.669322,5.68927 -15.084899,6.67321 z m -13.046968,-8.79012 c -6.072169,-2.1706 -3.080332,-11.06436 -1.522257,-15.40276 1.173216,-3.56469 4.608806,-7.98767 8.14173,-5.93399 -0.422369,-4.1303 6.332938,-11.20682 7.673175,-4.50666 1.400219,4.68435 2.913448,12.14494 -0.413111,16.24715 -0.991508,-2.52492 -6.348956,-11.48045 -4.349225,-4.69288 1.485546,4.88929 1.100399,12.85919 -4.832456,14.11753 -1.449696,0.43668 -3.227987,0.66652 -4.697856,0.17161 z m 77.217619,-3.16118 c -3.08282,-2.64796 -6.87874,-9.02638 -2.75398,-12.40633 1.04954,-4.02679 11.19361,-9.40253 8.82923,-1.97028 -0.98582,3.92743 -0.30746,15.09297 -6.07525,14.37661 z m 13.99248,-0.0362 c -2.06287,-1.05631 -6.54984,-3.0821 -6.14488,-6.23979 -1.21451,-4.61735 1.47065,-8.74118 5.37425,-11.10237 4.57169,-3.00935 10.93327,-3.34957 15.50358,-0.15229 3.26986,8.29571 -6.03087,19.13565 -14.73295,17.49445 z M 97.602357,124.87195 c 0.432421,-5.31769 5.273213,-9.56152 10.010953,-11.49733 3.38943,-0.98128 9.25688,-2.26251 11.60127,0.43239 2.15587,5.94165 -4.02826,11.19128 -9.5102,11.75402 -3.9838,0.53111 -8.26921,0.57696 -12.102023,-0.68908 z m -7.705039,-7.79581 c -6.968307,-1.7226 -4.954033,-10.5389 -3.05327,-15.42412 1.470574,-3.729771 6.463541,-13.777663 10.66558,-8.280871 2.976742,5.876955 4.553142,13.384921 0.419951,19.143561 -1.773167,2.43672 -4.686644,5.51442 -8.032261,4.56143 z m 21.208152,-9.71698 c -5.85604,0.64219 -10.46911,-4.74342 -7.75668,-10.307261 2.44841,-7.896204 12.44024,-13.601534 19.98226,-8.73607 3.11253,4.112367 2.0582,11.008067 -1.13354,15.019651 -2.70685,3.17986 -7.09625,4.11972 -11.09204,4.02368 z" /><path
         id="path263"
         style="fill:#c7ecb4"
         d="m 88.313836,141.12129 c 3.160194,0.10799 5.922023,3.08238 3.349791,3.98266 -1.840148,0.64405 -2.891771,-0.83555 -2.891771,-0.83555 -1.434662,-0.35362 -3.276482,1.02685 -4.005453,-0.20303 -1.385535,-2.33762 1.459571,-3.01543 3.547433,-2.94408 z m 15.627364,22.75669 c 1.92504,-1.51491 3.55189,-1.44011 3.27318,3.56608 -0.17576,3.15715 -1.16341,-0.002 -2.60031,-0.21929 -1.10668,-0.16773 -1.60174,1.95772 -2.30011,1.39522 -1.30148,-1.04827 0.82856,-4.0388 1.62724,-4.74201 z m -10.853961,31.27536 c -1.903748,-1.54156 1.22023,-3.98634 6.163767,-4.82368 3.117634,-0.52807 4.815244,1.36282 3.182434,3.54475 l -0.35063,0.46855 h -2.782326 -2.782328 l -1.08955,0.56917 c -1.24718,0.6515 -1.768371,0.7052 -2.341367,0.24121 z m -6.88928,-13.14324 c -1.156763,-1.27821 -0.0049,-3.43212 3.315114,-6.19907 0.577919,-0.48165 1.141474,-1.09002 1.252345,-1.35194 0.715252,-1.68974 4.047565,-1.07804 4.107588,0.754 0.07218,2.20295 -0.350011,2.75206 -2.652892,3.45042 -1.482742,0.44964 -2.626254,1.21789 -3.417794,2.29619 -1.035395,1.41049 -1.94608,1.77779 -2.604361,1.0504 z m 51.225081,-18.68825 c -1.70989,-2.17378 1.55778,-5.04274 6.49176,-5.69966 2.3614,-0.3144 2.99467,0.13976 2.97921,2.13655 -0.0115,1.48428 -0.71135,1.92302 -3.06747,1.92302 -1.95461,0 -3.51024,0.47742 -4.58411,1.40684 -0.94087,0.81432 -1.32371,0.8634 -1.81939,0.23325 z m -18.14632,-7.67401 c -0.94303,-0.94303 -0.0147,-4.21786 2.04761,-7.22351 0.27769,-0.40472 0.66003,-1.09776 0.84963,-1.54008 0.79163,-1.8468 3.40836,-1.70384 4.04359,0.22092 0.4843,1.46744 -0.0861,2.68838 -1.69714,3.63249 -1.08904,0.63822 -2.23792,2.0218 -2.79352,3.36421 -0.82244,1.98713 -1.54997,2.44617 -2.45017,1.54597 z m -51.724266,-0.42795 c -0.816973,-0.81697 -0.604426,-1.73767 0.660608,-2.86156 0.296851,-0.26373 0.586846,-0.66724 0.644434,-0.89668 0.326367,-1.30036 5.989425,-2.92911 6.881756,-1.97926 1.522437,1.62056 0.689239,3.54317 -1.64914,3.80541 -1.750264,0.19629 -2.887661,0.58268 -3.827975,1.30044 -1.404925,1.0724 -2.105597,1.23574 -2.709683,0.63165 z m -10.087638,-9.15154 c -2.070071,-1.13224 0.918336,-9.17896 3.488042,-9.39206 2.692125,-0.22325 3.418297,3.66765 0.892944,4.78448 -1.281386,0.56669 -1.608282,0.97813 -2.126189,2.67608 -0.606829,1.98948 -1.207715,2.50421 -2.254797,1.9315 z m 75.420124,-3.93093 c -1.51712,-1.06264 0.2362,-4.68747 2.57147,-5.31629 2.93983,-0.79162 3.64381,2.1395 0.94144,3.91983 -0.65009,0.42828 -1.37183,0.98077 -1.60386,1.22776 -0.49222,0.52395 -1.29996,0.59532 -1.90905,0.1687 z m 12.59907,-1.27795 c -1.13029,-1.13029 -0.22846,-3.91904 1.73294,-5.35884 3.17722,-2.33229 7.4635,-3.11432 8.03792,-1.46651 0.77396,2.22017 -0.0881,3.22059 -2.89213,3.35626 -2.44161,0.11813 -3.88207,0.89129 -5.34174,2.86717 -0.74527,1.00884 -1.02178,1.11713 -1.53699,0.60192 z m -42.16094,-18.23956 c -2.90563,-1.09528 1.76448,-6.80856 5.63424,-6.89277 2.68451,-0.0584 2.30587,3.17559 -0.46127,3.93971 -1.49249,0.41214 -2.77984,1.17412 -3.43513,2.03325 -0.57695,0.75642 -1.24012,1.10743 -1.73784,0.91981 z M 88.104096,109.41429 c -0.973015,-0.97302 -0.04414,-4.51989 2.020069,-7.71356 0.373536,-0.57792 0.732382,-1.26771 0.797437,-1.53287 0.422529,-1.72224 3.358681,-2.004277 4.034207,-0.387517 0.690603,1.652847 0.224194,2.866757 -1.580919,4.114637 -1.504154,1.03982 -2.203669,1.99683 -2.898564,3.96556 -0.716576,2.03015 -1.429124,2.49685 -2.37223,1.55375 z m 25.089244,74.31043 c -0.63985,-2.36459 2.54208,-2.88397 7.0391,-0.66667 2.83605,1.39834 3.99444,3.9528 1.97482,3.49504 -2.01962,-0.45775 -3.15233,-1.49438 -5.54894,-1.92831 -1.39243,-0.20259 -3.2724,-0.18836 -3.46498,-0.90006 z m -5.73774,-83.20609 c 0.88833,-2.9706 2.77369,-4.376188 6.26505,-4.670768 2.20112,-0.185717 2.75663,-0.776393 2.41962,-2.572795 -0.22112,-1.178706 -0.79721,-1.535106 -2.27889,-1.409858 -4.71063,0.398194 -7.95642,3.149426 -7.96977,6.755415 -0.007,2.012236 1.1205,3.381066 1.56399,1.898006 z m -41.164243,31.46604 c 0.747489,-2.37493 1.74492,-2.54556 2.668216,-2.4382 1.343957,0.15627 1.337165,2.46582 0.414033,4.04833 -1.61013,2.76022 -3.717218,0.40731 -3.082249,-1.61013 z" /><path
         style="display:inline;fill:#77b255"
         d="m 99.2563,205.97501 c -5.26071,-0.72423 -14.394167,-4.28962 -13.428098,-10.46088 5.740465,-0.6275 9.302382,5.89609 15.131378,5.79374 4.78681,0.97162 9.64481,-2.32804 10.10849,-7.82406 0.20444,-2.42329 -3.73314,-3.18159 -6.18412,-5.00917 1.0453,-4.08176 7.1937,-3.48775 8.87687,-1.46029 3.78104,4.55444 10.78909,4.2549 15.45089,3.27211 -1.23407,6.30444 -11.87868,5.82268 -15.03035,4.3645 0.58122,7.8956 -8.65106,12.23621 -14.92506,11.32405 z M 86.909604,193.79117 c -4.892494,-2.2395 -4.940802,-10.98834 -3.020654,-14.0093 -0.171617,7.00003 8.648074,9.9255 12.411363,3.77853 2.270017,-2.57605 3.458824,-5.8651 3.00638,-9.25838 0.199897,-1.13152 -0.526647,-6.33 0.541074,-3.65193 0.07878,3.7225 3.161513,10.11927 7.246943,5.68179 2.94596,-3.59669 0.55069,-11.18901 1.46126,-13.21606 4.09649,5.69172 5.3507,14.06067 1.22391,20.02222 -3.26376,2.35057 -7.54052,3.03758 -8.71112,-0.98066 -0.84475,5.34107 -4.971583,8.18322 -9.203091,11.17806 -1.56223,0.62843 -3.307355,0.5467 -4.956065,0.45573 z M 141.52582,172.9003 c -3.94337,-0.41625 -11.81743,-4.78001 -8.84392,-8.88702 4.97966,3.55909 12.1367,5.57593 17.55103,1.70438 3.81678,-1.50596 4.95753,-6.88517 6.85368,-8.88917 6.45758,2.70756 2.21325,9.86172 -2.11583,12.27943 -3.77995,2.85917 -8.69245,4.52982 -13.44496,3.79238 z m -17.51271,-4.50787 c -3.93463,-0.0316 -5.93125,-8.65901 -5.3794,-9.37725 4.16424,5.43734 10.57968,0.44542 11.65159,-4.72902 1.23436,-3.26212 1.74592,-7.58446 0.10349,-10.65008 -1.22405,-1.81822 -2.47565,-3.55973 -0.69888,-2.65206 1.60254,-0.14294 3.5813,8.66211 7.5814,5.47418 3.41131,-3.26022 2.78884,-11.65008 4.35905,-13.5764 0.99986,3.61832 0.63161,8.05657 1.41886,11.40704 5.7861,3.28172 14.48322,3.36043 18.28343,-2.92647 2.62989,-1.87003 1.41081,-9.50397 2.96669,-9.27028 6.04188,5.94447 1.96893,16.40692 -4.99622,19.66825 -5.52839,2.89356 -13.91376,1.99785 -17.21091,-3.68824 -0.77341,4.45164 -5.45226,5.94682 -8.05322,7.88274 -0.35587,5.54378 -3.57108,12.60886 -10.02588,12.43759 z m -54.026708,-4.20069 c -3.192075,0.29666 -10.415547,-3.11201 -8.034175,-5.97872 5.516216,-0.11665 11.150619,2.84222 16.564823,0.18319 4.261066,-1.40683 7.365079,-5.94781 6.009732,-10.4282 3.451071,2.07886 7.376708,1.28951 9.846755,-2.3921 -0.224188,-5.02425 4.180422,-4.24935 6.191493,-0.69153 0.21116,5.17178 -6.299167,6.98029 -10.15674,8.80274 -3.389415,5.69703 -9.387415,10.19387 -16.215065,10.65113 -1.401412,0.11722 -2.817432,0.0733 -4.206823,-0.14651 z m -10.110913,-7.93642 c -2.728153,-1.08575 -7.861224,-9.32063 -2.367746,-5.5197 6.459421,1.20538 11.671967,-6.15962 9.698904,-12.14782 -0.633307,-2.36115 -2.143932,-8.43955 0.94444,-3.10091 1.457724,2.31056 2.844103,7.86235 4.314951,2.13941 1.410724,-3.96002 0.40852,-8.0255 -0.626049,-11.91269 -0.135271,-3.71113 4.41534,4.54375 4.617,6.17775 1.623768,5.31885 0.976022,13.21626 -5.171554,15.18142 -3.113176,3.28365 -4.449195,8.46721 -9.274556,9.37124 -0.228475,1.4599 -1.6027,0.1021 -2.13539,-0.1887 z m 46.739631,-26.79747 c -2.64687,-2.18117 -8.019088,0.95101 -8.844925,-3.39726 -0.256105,-3.54548 7.332685,-0.4939 9.997545,-1.43742 6.88563,0.43635 11.06735,-6.48174 11.81935,-11.57577 7.674,1.14645 3.31979,10.20594 -1.19281,12.59169 -3.28899,2.35619 -7.66589,4.51843 -11.77916,3.81876 z m -15.43834,-6.89386 c -4.052626,-1.22686 -5.736438,-7.17619 -5.787719,-10.1805 2.908723,6.87012 12.270138,2.46422 13.549221,-3.31979 1.978008,-5.4407 -1.977944,-10.680836 -1.742573,-16.15474 2.462609,5.40432 6.433911,10.67122 6.321371,16.84683 -0.55929,5.98932 -5.568036,13.74593 -12.3403,12.8082 z m 20.30084,-10.45978 c -3.85894,-0.47244 -8.32225,-4.94578 -7.96394,-8.03641 7.69668,5.73406 19.78951,0.0325 20.83562,-9.333648 0.61353,-2.643148 -1.74224,-8.594326 1.96342,-3.849579 7.11332,9.298887 -3.86219,24.185907 -14.8351,21.219637 z"
         id="path245" /></g></g></svg>
