<?xml version="1.0" encoding="UTF-8" standalone="no"?>
<!-- Created with Inkscape (http://www.inkscape.org/) -->

<svg
   width="112.07634mm"
   height="131.3203mm"
   viewBox="0 0 112.07634 131.3203"
   version="1.1"
   id="svg1"
   xml:space="preserve"
   xmlns="http://www.w3.org/2000/svg"
   xmlns:svg="http://www.w3.org/2000/svg"><defs
     id="defs1" /><g
     id="layer1"
     transform="translate(-249.42324,-86.742276)"><g
       id="g12"
       transform="translate(203.50481)"><circle
         style="fill:#ffffff;stroke:none;stroke-width:1.5;stroke-linecap:round;stroke-linejoin:round"
         id="path31"
         cx="271.60593"
         cy="112.43308"
         r="19.68959"
         transform="translate(-203.50481)" /><path
         style="display:inline;fill:#e8ecf2"
         d="m 90.342107,167.95616 c -5.465806,-2.0327 -6.89503,-3.71519 -5.857989,-6.89605 0.170282,-0.5223 0.154588,-0.85571 -0.06964,-1.47955 -0.69641,-1.93751 -0.313036,-3.36837 1.995872,-7.44914 l 1.708679,-3.01993 -1.351524,-0.6755 c -3.533344,-1.76602 -4.140861,-4.15978 -2.066408,-8.14213 2.472752,-4.74697 5.750244,-11.0103 6.447798,-12.32183 0.412255,-0.77511 1.366253,-2.58706 2.119996,-4.02656 0.753742,-1.4395 2.56664,-4.88221 4.028662,-7.65047 1.462021,-2.76826 3.527157,-6.70926 4.589187,-8.75778 7.9448,-15.324459 7.68902,-14.967459 10.74013,-14.989853 l 1.23955,-0.0091 1.17639,-2.385058 c 1.38286,-2.803683 2.08755,-3.410374 3.96108,-3.410249 1.09423,7.3e-5 0.73332,-0.147995 9.42901,3.868259 5.73926,2.650773 6.33242,3.733258 4.30704,7.860094 l -1.09546,2.232087 0.64248,1.03443 c 0.58412,0.94048 0.64247,1.18225 0.64247,2.66193 v 1.6275 l -2.84601,5.43586 c -1.5653,2.98972 -3.30733,6.35891 -3.87118,7.48708 l -1.02517,2.05122 -1.16203,-0.77475 c -6.29348,-4.19607 -15.07553,-0.77302 -16.98385,6.61993 -1.60435,6.21533 2.36008,12.73399 8.47335,13.93264 0.71975,0.14112 1.33366,0.27158 1.36424,0.2899 0.0306,0.0183 -0.25228,0.61229 -0.62859,1.31991 -0.3763,0.70762 -1.93232,3.64212 -3.45781,6.52112 -4.38552,8.27658 -5.11352,8.91976 -8.65288,7.64466 -1.10582,-0.39838 -1.02835,-0.44132 -1.73571,0.96212 -0.89067,1.76715 -2.580613,4.27571 -3.785438,5.61912 -0.717648,0.80019 -1.022015,1.30871 -1.022015,1.70753 0,0.43519 -0.299684,0.85467 -1.281996,1.79444 -2.166204,2.0724 -3.281885,2.31864 -5.972232,1.31812 z"
         id="path18" /><path
         style="display:inline;fill:#c7cdd2"
         d="m 57.55962,217.79076 c -4.205338,-1.52185 -4.470527,-11.87695 -0.360448,-14.07483 l 0.836171,-0.44715 20.485144,-0.0549 20.485145,-0.0549 v -4.89881 -4.89882 l -1.358965,-0.12834 c -0.747431,-0.0706 -2.225849,-0.12899 -3.285374,-0.12978 -2.780634,-0.002 -1.690069,0.40205 -17.82154,-6.60385 -6.702815,-2.91103 -6.699522,-2.90474 -6.721596,-12.82575 l -0.0072,-3.22126 -1.928793,-0.79995 c -3.693032,-1.53165 -4.762984,-4.17664 -2.512133,-6.21015 1.821017,-1.64518 0.521067,-2.06135 19.542594,6.25641 8.360154,3.65574 16.103285,7.0299 17.206965,7.49813 l 2.00668,0.85134 1.11391,-0.35495 c 3.05139,-0.97234 7.05236,-0.34722 9.65949,1.50922 l 0.58475,0.41638 1.05299,-0.41505 c 15.12731,-5.96263 18.86027,-27.51122 6.63074,-38.27609 -1.45718,-1.28266 -1.44438,-1.14727 -0.17582,-1.85977 4.74566,-2.66547 7.19388,-8.602 5.54386,-13.44295 l -0.45692,-1.34054 1.11643,0.79709 c 24.91293,17.78682 19.99375,58.43028 -8.24532,68.12489 l -1.30864,0.44926 -0.054,4.75628 -0.054,4.75629 h 16.87867 c 22.27152,0 21.40148,-0.3053 21.55053,7.56218 0.0886,4.67633 -0.33843,5.77018 -2.67793,6.85959 l -1.01487,0.47258 -48.01677,-0.0134 c -37.185723,-0.0103 -48.169503,-0.0686 -48.693833,-0.25836 z m 33.493548,-49.62999 c -5.841617,-2.15383 -7.067728,-3.29263 -6.636879,-6.16427 0.170798,-1.13838 0.168291,-1.61428 -0.01931,-3.66469 -0.171233,-1.87158 0.06309,-2.55478 2.126992,-6.20162 1.924808,-3.40105 1.89271,-2.96178 0.275115,-3.7651 -1.742505,-0.86536 -2.796695,-2.04744 -3.091244,-3.46627 -0.411637,-1.98285 -1.356953,0.0134 12.115359,-25.5839 3.263652,-6.20091 7.466159,-14.2188 9.338889,-17.81755 4.24063,-8.149004 4.83018,-8.841933 7.53385,-8.854906 l 1.10731,-0.0053 1.17196,-2.315064 c 1.51363,-2.989978 2.0265,-3.422944 4.0469,-3.41637 l 1.42497,0.0046 5.43586,2.571292 c 8.91839,4.218611 9.52226,5.448122 5.59538,11.392408 -0.0657,0.0995 -1.68152,-0.63604 -10.86657,-4.946775 -5.438,-2.552168 -4.4238,-3.513645 -12.35281,11.710615 -6.88303,13.21588 -13.761607,26.31877 -17.174721,32.71583 -1.536551,2.87989 -2.231418,4.37257 -2.076242,4.46007 0.273704,0.15435 17.316053,8.09168 19.309073,8.99304 1.58227,0.7156 1.60096,0.77182 0.60399,1.81722 -1.97668,2.07271 -2.87996,1.86968 -13.122738,-2.94952 -2.359205,-1.11 -4.144451,-1.84185 -4.186345,-1.71617 -0.04017,0.12052 -0.790247,1.47564 -1.666829,3.01137 -1.985182,3.47795 -2.495046,5.30884 -1.478397,5.30884 0.413231,0 5.699383,2.36811 7.442164,3.33397 1.992425,1.10422 2.177874,2.23337 0.620005,3.77504 -2.054264,2.03291 -3.500824,2.50135 -5.475737,1.77319 z M 116.59823,137.5569 c -7.5896,-1.95083 -7.88805,-13.02698 -0.41354,-15.34741 4.70779,-1.46152 9.12209,1.2375 10.02329,6.12852 1.01331,5.49938 -4.28941,10.58642 -9.60975,9.21889 z"
         id="path17" /><path
         style="display:inline;fill:#5fadf7"
         d="m 105.35362,193.53014 c -7.248034,-2.70227 -6.291856,-11.48676 1.39776,-12.84126 4.97491,-0.87631 9.03097,4.07983 7.35773,8.99051 -1.00568,2.95151 -5.66776,5.00194 -8.75549,3.85075 z m 11.65435,-56.10204 c -3.94137,-0.69703 -6.77299,-4.72296 -6.19457,-8.80732 1.08575,-7.66681 11.2909,-9.42746 14.56637,-2.51308 2.74583,5.79632 -2.15277,12.42023 -8.3718,11.3204 z"
         id="path15" /><path
         style="display:inline;fill:#939ba1"
         d="m 57.840955,217.81485 c -2.191223,-0.58083 -3.328856,-2.69264 -3.328856,-6.17944 v -2.02479 h 51.741351 51.74135 v 2.02479 c 0,3.30263 -0.69161,4.81592 -2.68924,5.88429 l -0.83401,0.44604 -47.91611,0.0304 c -32.950906,0.0209 -48.165461,-0.0357 -48.714485,-0.18126 z m 41.164677,-19.46847 v -4.82174 l 1.263188,1.24816 c 5.68572,5.6181 11.03989,5.73682 16.41279,0.36392 0.85386,-0.85386 1.93409,-1.42415 2.7085,-1.42991 0.083,-6.1e-4 0.151,2.12793 0.151,4.73009 v 4.73122 H 109.27337 99.005632 Z M 93.06645,185.06356 c -4.423657,-1.89652 -9.23827,-3.98578 -15.099615,-6.55236 -2.436071,-1.06672 -5.22195,-2.26739 -6.190842,-2.66817 l -1.761622,-0.72869 v -2.28587 -2.28586 l 0.613354,0.31718 c 0.701005,0.3625 9.042011,4.01586 18.915482,8.28499 3.709472,1.60391 7.217178,3.12906 7.794902,3.38921 l 1.050408,0.47302 -0.698083,1.51091 c -0.383946,0.831 -0.698084,1.6021 -0.698084,1.71355 0,0.45532 -0.456332,0.31956 -3.9259,-1.16791 z m 25.60881,-2.72155 c -0.16158,-0.16158 -0.24938,-0.50639 -0.19774,-0.77655 0.0772,-0.40369 -0.004,-0.50549 -0.47873,-0.60153 -0.3144,-0.0636 -0.75388,-0.28643 -0.97664,-0.49523 -0.22276,-0.20879 -0.57948,-0.47726 -0.79271,-0.59659 -0.33966,-0.19008 -0.17725,-0.32222 1.31099,-1.0666 14.79547,-7.40033 17.72562,-27.62709 5.5172,-38.08517 l -1.09967,-0.94201 1.20669,-0.73302 c 0.66368,-0.40317 1.69683,-1.18098 2.29588,-1.72848 l 1.08918,-0.99545 1.34341,1.46252 c 10.15326,11.05342 9.90793,28.28622 -0.55747,39.15808 -3.49317,3.62884 -7.76682,6.2936 -8.66039,5.40003 z M 90.85184,167.95656 c -5.577645,-2.00882 -6.342593,-2.66005 -6.341086,-5.39839 0.002,-3.66301 2.028191,-4.19217 7.165788,-1.87144 6.536904,2.95281 7.052155,3.68553 4.290505,6.10136 -2.005977,1.75478 -2.912385,1.96183 -5.115207,1.16847 z m 11.27438,-12.47125 c -10.237683,-4.58536 -16.678947,-7.76997 -17.367811,-8.58679 -0.952328,-1.12922 -1.316945,-2.8235 -0.923654,-4.29199 l 0.124569,-0.46512 0.526999,0.50282 c 0.289849,0.27656 1.251781,0.8168 2.137625,1.20055 0.885844,0.38374 2.360935,1.06891 3.27798,1.52259 0.917045,0.45367 1.700154,0.82487 1.740242,0.82487 0.04009,0 3.773234,1.72913 8.29588,3.84251 4.52265,2.11338 8.51857,3.96601 8.87982,4.11696 0.79417,0.33182 0.80954,0.48526 0.12953,1.29341 -1.40722,1.67238 -3.15401,1.68268 -6.82118,0.0402 z M 66.289799,134.39982 c -14.081385,-1.8975 -22.641844,-13.44388 -19.842493,-26.76363 4.620978,-21.987324 35.807762,-23.387515 42.581135,-1.91176 4.659861,14.77462 -7.943876,30.66902 -22.738642,28.67539 z m 4.845233,-4.12278 c 12.044866,-2.1334 18.57632,-15.0473 13.154733,-26.00935 -7.467482,-15.098698 -29.77341,-12.735168 -33.915563,3.59368 -3.215047,12.67409 7.914709,24.691 20.76083,22.41567 z M 125.37963,98.041044 c -3.04509,-1.439093 -6.84537,-3.200717 -8.44507,-3.914717 -1.5997,-0.714001 -2.94161,-1.331252 -2.98203,-1.371668 -0.14976,-0.14976 1.97811,-4.143581 2.56193,-4.808516 1.54811,-1.763208 2.35839,-1.613355 9.61869,1.778872 8.18109,3.822453 8.52617,4.287477 6.44986,8.691751 -1.29339,2.743554 -0.51742,2.784034 -7.20338,-0.375722 z"
         id="path14" /><path
         style="display:inline;fill:#5aba4b"
         d="m 64.893884,125.14472 c -9.847064,-2.47889 -13.31023,-14.65526 -6.236645,-21.92782 5.913055,-6.079388 16.249415,-4.799597 20.582109,2.54836 5.825091,9.87896 -3.271224,22.16729 -14.345464,19.37946 z m 8.949752,-17.30759 c 2.59141,-1.34007 0.280573,-4.48066 -3.791696,-5.15318 -4.349528,-0.71831 -8.558059,2.19058 -6.500675,4.49319 0.788638,0.88264 1.846853,0.90542 2.950656,0.0635 1.452697,-1.10803 2.855331,-0.97918 5.525732,0.50761 0.848411,0.47236 1.054853,0.48247 1.815983,0.0889 z"
         id="path12" /></g></g></svg>
