<?xml version="1.0" encoding="UTF-8" standalone="no"?>
<!-- Created with Inkscape (http://www.inkscape.org/) -->

<svg
   width="210mm"
   height="297mm"
   viewBox="0 0 210 297"
   version="1.1"
   id="svg1"
   xml:space="preserve"
   inkscape:version="1.4.3 (0d15f75, 2025-12-25)"
   sodipodi:docname="SciencePack.svg"
   xmlns:inkscape="http://www.inkscape.org/namespaces/inkscape"
   xmlns:sodipodi="http://sodipodi.sourceforge.net/DTD/sodipodi-0.dtd"
   xmlns="http://www.w3.org/2000/svg"
   xmlns:svg="http://www.w3.org/2000/svg"><sodipodi:namedview
     id="namedview1"
     pagecolor="#ffffff"
     bordercolor="#000000"
     borderopacity="0.25"
     inkscape:showpageshadow="2"
     inkscape:pageopacity="0.0"
     inkscape:pagecheckerboard="0"
     inkscape:deskcolor="#d1d1d1"
     inkscape:document-units="mm"
     inkscape:zoom="0.17972959"
     inkscape:cx="1705.3397"
     inkscape:cy="703.83514"
     inkscape:window-width="1904"
     inkscape:window-height="993"
     inkscape:window-x="-7"
     inkscape:window-y="0"
     inkscape:window-maximized="0"
     inkscape:current-layer="layer1" /><defs
     id="defs1" /><g
     inkscape:label="Layer 1"
     inkscape:groupmode="layer"
     id="layer1"><g
       id="g12"
       transform="translate(203.50481)"
       inkscape:export-filename="Probe.svg"
       inkscape:export-xdpi="96"
       inkscape:export-ydpi="96"
       inkscape:label="Probe"><circle
         style="fill:#ffffff;stroke:none;stroke-width:1.5;stroke-linecap:round;stroke-linejoin:round"
         id="path31"
         cx="271.60593"
         cy="112.43308"
         r="19.68959"
         transform="translate(-203.50481)" /><path
         style="display:inline;fill:#e8ecf2"
         d="m 90.342107,167.95616 c -5.465806,-2.0327 -6.89503,-3.71519 -5.857989,-6.89605 0.170282,-0.5223 0.154588,-0.85571 -0.06964,-1.47955 -0.69641,-1.93751 -0.313036,-3.36837 1.995872,-7.44914 l 1.708679,-3.01993 -1.351524,-0.6755 c -3.533344,-1.76602 -4.140861,-4.15978 -2.066408,-8.14213 2.472752,-4.74697 5.750244,-11.0103 6.447798,-12.32183 0.412255,-0.77511 1.366253,-2.58706 2.119996,-4.02656 0.753742,-1.4395 2.56664,-4.88221 4.028662,-7.65047 1.462021,-2.76826 3.527157,-6.70926 4.589187,-8.75778 7.9448,-15.324459 7.68902,-14.967459 10.74013,-14.989853 l 1.23955,-0.0091 1.17639,-2.385058 c 1.38286,-2.803683 2.08755,-3.410374 3.96108,-3.410249 1.09423,7.3e-5 0.73332,-0.147995 9.42901,3.868259 5.73926,2.650773 6.33242,3.733258 4.30704,7.860094 l -1.09546,2.232087 0.64248,1.03443 c 0.58412,0.94048 0.64247,1.18225 0.64247,2.66193 v 1.6275 l -2.84601,5.43586 c -1.5653,2.98972 -3.30733,6.35891 -3.87118,7.48708 l -1.02517,2.05122 -1.16203,-0.77475 c -6.29348,-4.19607 -15.07553,-0.77302 -16.98385,6.61993 -1.60435,6.21533 2.36008,12.73399 8.47335,13.93264 0.71975,0.14112 1.33366,0.27158 1.36424,0.2899 0.0306,0.0183 -0.25228,0.61229 -0.62859,1.31991 -0.3763,0.70762 -1.93232,3.64212 -3.45781,6.52112 -4.38552,8.27658 -5.11352,8.91976 -8.65288,7.64466 -1.10582,-0.39838 -1.02835,-0.44132 -1.73571,0.96212 -0.89067,1.76715 -2.580613,4.27571 -3.785438,5.61912 -0.717648,0.80019 -1.022015,1.30871 -1.022015,1.70753 0,0.43519 -0.299684,0.85467 -1.281996,1.79444 -2.166204,2.0724 -3.281885,2.31864 -5.972232,1.31812 z"
         id="path18"
         sodipodi:nodetypes="sssscssssssscsssscsscsscsssssssssssss" /><path
         style="display:inline;fill:#c7cdd2"
         d="m 57.55962,217.79076 c -4.205338,-1.52185 -4.470527,-11.87695 -0.360448,-14.07483 l 0.836171,-0.44715 20.485144,-0.0549 20.485145,-0.0549 v -4.89881 -4.89882 l -1.358965,-0.12834 c -0.747431,-0.0706 -2.225849,-0.12899 -3.285374,-0.12978 -2.780634,-0.002 -1.690069,0.40205 -17.82154,-6.60385 -6.702815,-2.91103 -6.699522,-2.90474 -6.721596,-12.82575 l -0.0072,-3.22126 -1.928793,-0.79995 c -3.693032,-1.53165 -4.762984,-4.17664 -2.512133,-6.21015 1.821017,-1.64518 0.521067,-2.06135 19.542594,6.25641 8.360154,3.65574 16.103285,7.0299 17.206965,7.49813 l 2.00668,0.85134 1.11391,-0.35495 c 3.05139,-0.97234 7.05236,-0.34722 9.65949,1.50922 l 0.58475,0.41638 1.05299,-0.41505 c 15.12731,-5.96263 18.86027,-27.51122 6.63074,-38.27609 -1.45718,-1.28266 -1.44438,-1.14727 -0.17582,-1.85977 4.74566,-2.66547 7.19388,-8.602 5.54386,-13.44295 l -0.45692,-1.34054 1.11643,0.79709 c 24.91293,17.78682 19.99375,58.43028 -8.24532,68.12489 l -1.30864,0.44926 -0.054,4.75628 -0.054,4.75629 h 16.87867 c 22.27152,0 21.40148,-0.3053 21.55053,7.56218 0.0886,4.67633 -0.33843,5.77018 -2.67793,6.85959 l -1.01487,0.47258 -48.01677,-0.0134 c -37.185723,-0.0103 -48.169503,-0.0686 -48.693833,-0.25836 z m 33.493548,-49.62999 c -5.841617,-2.15383 -7.067728,-3.29263 -6.636879,-6.16427 0.170798,-1.13838 0.168291,-1.61428 -0.01931,-3.66469 -0.171233,-1.87158 0.06309,-2.55478 2.126992,-6.20162 1.924808,-3.40105 1.89271,-2.96178 0.275115,-3.7651 -1.742505,-0.86536 -2.796695,-2.04744 -3.091244,-3.46627 -0.411637,-1.98285 -1.356953,0.0134 12.115359,-25.5839 3.263652,-6.20091 7.466159,-14.2188 9.338889,-17.81755 4.24063,-8.149004 4.83018,-8.841933 7.53385,-8.854906 l 1.10731,-0.0053 1.17196,-2.315064 c 1.51363,-2.989978 2.0265,-3.422944 4.0469,-3.41637 l 1.42497,0.0046 5.43586,2.571292 c 8.91839,4.218611 9.52226,5.448122 5.59538,11.392408 -0.0657,0.0995 -1.68152,-0.63604 -10.86657,-4.946775 -5.438,-2.552168 -4.4238,-3.513645 -12.35281,11.710615 -6.88303,13.21588 -13.761607,26.31877 -17.174721,32.71583 -1.536551,2.87989 -2.231418,4.37257 -2.076242,4.46007 0.273704,0.15435 17.316053,8.09168 19.309073,8.99304 1.58227,0.7156 1.60096,0.77182 0.60399,1.81722 -1.97668,2.07271 -2.87996,1.86968 -13.122738,-2.94952 -2.359205,-1.11 -4.144451,-1.84185 -4.186345,-1.71617 -0.04017,0.12052 -0.790247,1.47564 -1.666829,3.01137 -1.985182,3.47795 -2.495046,5.30884 -1.478397,5.30884 0.413231,0 5.699383,2.36811 7.442164,3.33397 1.992425,1.10422 2.177874,2.23337 0.620005,3.77504 -2.054264,2.03291 -3.500824,2.50135 -5.475737,1.77319 z M 116.59823,137.5569 c -7.5896,-1.95083 -7.88805,-13.02698 -0.41354,-15.34741 4.70779,-1.46152 9.12209,1.2375 10.02329,6.12852 1.01331,5.49938 -4.28941,10.58642 -9.60975,9.21889 z"
         id="path17"
         sodipodi:nodetypes="cscccccscsscsssscsscsssscsscccsssccccssssssssscsscssssssssssssssssssss" /><path
         style="display:inline;fill:#5fadf7"
         d="m 105.35362,193.53014 c -7.248034,-2.70227 -6.291856,-11.48676 1.39776,-12.84126 4.97491,-0.87631 9.03097,4.07983 7.35773,8.99051 -1.00568,2.95151 -5.66776,5.00194 -8.75549,3.85075 z m 11.65435,-56.10204 c -3.94137,-0.69703 -6.77299,-4.72296 -6.19457,-8.80732 1.08575,-7.66681 11.2909,-9.42746 14.56637,-2.51308 2.74583,5.79632 -2.15277,12.42023 -8.3718,11.3204 z"
         id="path15"
         sodipodi:nodetypes="ssssssss" /><path
         style="display:inline;fill:#939ba1"
         d="m 57.840955,217.81485 c -2.191223,-0.58083 -3.328856,-2.69264 -3.328856,-6.17944 v -2.02479 h 51.741351 51.74135 v 2.02479 c 0,3.30263 -0.69161,4.81592 -2.68924,5.88429 l -0.83401,0.44604 -47.91611,0.0304 c -32.950906,0.0209 -48.165461,-0.0357 -48.714485,-0.18126 z m 41.164677,-19.46847 v -4.82174 l 1.263188,1.24816 c 5.68572,5.6181 11.03989,5.73682 16.41279,0.36392 0.85386,-0.85386 1.93409,-1.42415 2.7085,-1.42991 0.083,-6.1e-4 0.151,2.12793 0.151,4.73009 v 4.73122 H 109.27337 99.005632 Z M 93.06645,185.06356 c -4.423657,-1.89652 -9.23827,-3.98578 -15.099615,-6.55236 -2.436071,-1.06672 -5.22195,-2.26739 -6.190842,-2.66817 l -1.761622,-0.72869 v -2.28587 -2.28586 l 0.613354,0.31718 c 0.701005,0.3625 9.042011,4.01586 18.915482,8.28499 3.709472,1.60391 7.217178,3.12906 7.794902,3.38921 l 1.050408,0.47302 -0.698083,1.51091 c -0.383946,0.831 -0.698084,1.6021 -0.698084,1.71355 0,0.45532 -0.456332,0.31956 -3.9259,-1.16791 z m 25.60881,-2.72155 c -0.16158,-0.16158 -0.24938,-0.50639 -0.19774,-0.77655 0.0772,-0.40369 -0.004,-0.50549 -0.47873,-0.60153 -0.3144,-0.0636 -0.75388,-0.28643 -0.97664,-0.49523 -0.22276,-0.20879 -0.57948,-0.47726 -0.79271,-0.59659 -0.33966,-0.19008 -0.17725,-0.32222 1.31099,-1.0666 14.79547,-7.40033 17.72562,-27.62709 5.5172,-38.08517 l -1.09967,-0.94201 1.20669,-0.73302 c 0.66368,-0.40317 1.69683,-1.18098 2.29588,-1.72848 l 1.08918,-0.99545 1.34341,1.46252 c 10.15326,11.05342 9.90793,28.28622 -0.55747,39.15808 -3.49317,3.62884 -7.76682,6.2936 -8.66039,5.40003 z M 90.85184,167.95656 c -5.577645,-2.00882 -6.342593,-2.66005 -6.341086,-5.39839 0.002,-3.66301 2.028191,-4.19217 7.165788,-1.87144 6.536904,2.95281 7.052155,3.68553 4.290505,6.10136 -2.005977,1.75478 -2.912385,1.96183 -5.115207,1.16847 z m 11.27438,-12.47125 c -10.237683,-4.58536 -16.678947,-7.76997 -17.367811,-8.58679 -0.952328,-1.12922 -1.316945,-2.8235 -0.923654,-4.29199 l 0.124569,-0.46512 0.526999,0.50282 c 0.289849,0.27656 1.251781,0.8168 2.137625,1.20055 0.885844,0.38374 2.360935,1.06891 3.27798,1.52259 0.917045,0.45367 1.700154,0.82487 1.740242,0.82487 0.04009,0 3.773234,1.72913 8.29588,3.84251 4.52265,2.11338 8.51857,3.96601 8.87982,4.11696 0.79417,0.33182 0.80954,0.48526 0.12953,1.29341 -1.40722,1.67238 -3.15401,1.68268 -6.82118,0.0402 z M 66.289799,134.39982 c -14.081385,-1.8975 -22.641844,-13.44388 -19.842493,-26.76363 4.620978,-21.987324 35.807762,-23.387515 42.581135,-1.91176 4.659861,14.77462 -7.943876,30.66902 -22.738642,28.67539 z m 4.845233,-4.12278 c 12.044866,-2.1334 18.57632,-15.0473 13.154733,-26.00935 -7.467482,-15.098698 -29.77341,-12.735168 -33.915563,3.59368 -3.215047,12.67409 7.914709,24.691 20.76083,22.41567 z M 125.37963,98.041044 c -3.04509,-1.439093 -6.84537,-3.200717 -8.44507,-3.914717 -1.5997,-0.714001 -2.94161,-1.331252 -2.98203,-1.371668 -0.14976,-0.14976 1.97811,-4.143581 2.56193,-4.808516 1.54811,-1.763208 2.35839,-1.613355 9.61869,1.778872 8.18109,3.822453 8.52617,4.287477 6.44986,8.691751 -1.29339,2.743554 -0.51742,2.784034 -7.20338,-0.375722 z"
         id="path14"
         sodipodi:nodetypes="sscccsscsssccssssccccssscccssscsssssssssscsscssssssssssscssssssssssssssssssssssss" /><path
         style="display:inline;fill:#5aba4b"
         d="m 64.893884,125.14472 c -9.847064,-2.47889 -13.31023,-14.65526 -6.236645,-21.92782 5.913055,-6.079388 16.249415,-4.799597 20.582109,2.54836 5.825091,9.87896 -3.271224,22.16729 -14.345464,19.37946 z m 8.949752,-17.30759 c 2.59141,-1.34007 0.280573,-4.48066 -3.791696,-5.15318 -4.349528,-0.71831 -8.558059,2.19058 -6.500675,4.49319 0.788638,0.88264 1.846853,0.90542 2.950656,0.0635 1.452697,-1.10803 2.855331,-0.97918 5.525732,0.50761 0.848411,0.47236 1.054853,0.48247 1.815983,0.0889 z"
         id="path12" /></g><g
       id="g24"
       transform="translate(357.72491)"
       inkscape:label="Explore"
       inkscape:export-filename="Explore.svg"
       inkscape:export-xdpi="96"
       inkscape:export-ydpi="96"><circle
         style="fill:#ffffff;stroke:none;stroke-width:1.52123;stroke-linecap:round;stroke-linejoin:round"
         id="path30"
         cx="457.2352"
         cy="140.52762"
         r="55.950809"
         transform="translate(-357.72491)" /><path
         style="fill:#dee7ee"
         d="m 94.743714,192.12398 c -12.235977,-1.25049 -23.606853,-6.63082 -32.196818,-15.23448 -5.680627,-5.68969 -7.17084,-8.6191 -11.288854,-22.19129 -1.416614,-4.66889 -2.195824,-6.40062 -4.053462,-9.0085 -2.017446,-2.83222 -2.482174,-5.15933 -2.526192,-12.64977 l -0.02333,-3.96925 0.614024,-2.32977 c 1.353175,-5.13432 3.85158,-11.08115 6.571897,-15.64276 1.347747,-2.25999 1.754239,-2.57773 0.520428,-0.4068 -2.296563,4.04087 -3.791613,7.71243 -4.47722,10.99518 -0.295172,1.41332 -0.264065,2.15834 0.178614,4.27778 0.138774,0.66442 0.375042,1.80838 0.52504,2.54213 0.470423,2.30118 1.876485,1.45054 2.947589,-1.78323 12.625423,-38.117446 62.48388,-47.296061 89.603,-16.49533 0.87711,0.99619 2.0002,2.0905 2.49576,2.4318 0.60522,0.41683 1.55197,1.45124 2.88396,3.15101 1.09062,1.39175 2.42665,3.02723 2.96894,3.6344 1.54151,1.72591 3.62323,5.07359 4.36858,7.02529 0.7846,2.05442 0.13388,-1.11158 -0.89774,-4.36789 -0.0768,-0.24232 -0.0637,-0.24516 0.0974,-0.0211 0.47623,0.66253 1.56814,4.76459 2.01795,7.58096 0.14509,0.90852 0.29951,1.846 0.34315,2.08329 0.0664,0.36094 0.0551,0.37568 -0.0688,0.0902 -0.0949,-0.21873 -0.18459,0.64854 -0.24976,2.41606 -0.27699,7.51226 -3.44108,19.47978 -7.55028,28.55737 -1.71567,3.79006 -2.22704,4.7034 -2.55055,4.55539 -1.93645,-0.88593 -3.43503,-0.12961 -6.43233,3.24638 -7.19952,8.1091 -12.75841,14.14401 -13.80835,14.9908 -5.64896,4.55594 -19.59562,7.58673 -30.01266,6.52213 z m 8.748826,-7.58336 c 18.78544,-1.57946 37.37506,-17.12521 39.77516,-33.26234 0.10396,-0.69898 0.24614,-1.17844 0.31596,-1.06548 0.34585,0.55961 1.38,-6.78073 1.37905,-9.78844 -0.0101,-31.7887 -32.32176,-53.330756 -62.171729,-41.449612 -20.878137,8.310092 -32.144374,30.415922 -26.489905,51.976652 0.361823,1.37965 0.584326,1.96289 0.691285,1.81205 0.102314,-0.14429 0.120077,-0.0506 0.05056,0.26661 -0.05894,0.26897 -0.0407,0.44796 0.04054,0.39775 0.08124,-0.0502 0.316871,0.48371 0.523631,1.18649 5.379687,18.28551 25.815654,31.61378 45.885448,29.92632 z m -7.109355,-3.0911 c -24.741409,-2.10777 -41.618311,-24.40139 -37.235328,-49.18618 0.243386,-1.37629 0.450202,-2.66966 0.459592,-2.87416 0.0094,-0.2045 0.08851,-0.32766 0.175831,-0.2737 0.08732,0.054 0.109169,-0.0311 0.04856,-0.18905 -0.06061,-0.15795 -0.04792,-0.28718 0.0282,-0.28718 0.07612,0 0.144389,-0.0971 0.151712,-0.21572 0.04625,-0.7493 3.011528,-6.89261 4.362703,-9.03843 18.433239,-29.274041 62.385745,-25.010062 74.846725,7.26113 0.33164,0.85887 0.78855,1.92788 1.01535,2.37558 0.42453,0.838 0.54635,1.28325 0.22585,0.82547 -0.147,-0.20996 -0.16351,-0.19366 -0.0874,0.0863 1.07319,3.94741 1.40124,11.64971 0.6946,16.30842 -3.27161,21.56895 -22.93411,37.06065 -44.686393,35.20753 z m 6.717795,-7.0544 c 2.29751,-0.81701 10.95113,-9.24588 16.08718,-15.66936 11.13812,-13.93007 13.17466,-28.57353 5.58605,-40.16571 -16.56328,-25.301643 -55.874947,-12.6005 -54.164642,17.49996 0.566985,9.97865 6.334475,19.70285 19.396925,32.70391 6.334798,6.30503 8.536748,7.25197 13.094487,5.6312 z"
         id="path29" /><path
         style="fill:#b9c4ce"
         d="m 94.571138,196.78127 c -30.735063,-2.83295 -54.124663,-31.39291 -50.660986,-61.8598 0.555487,-4.88612 0.715918,-5.15718 0.756119,-1.27752 0.07155,6.90491 0.573641,9.28763 2.538309,12.04576 1.857638,2.60788 2.636848,4.33961 4.053462,9.0085 4.118014,13.57219 5.608227,16.5016 11.288854,22.19129 15.043904,15.06789 37.231148,19.50752 57.361164,11.47786 0.50913,-0.20309 0.86135,-0.27522 0.79142,-0.16208 -0.0865,0.13992 -0.0315,0.16761 0.17529,0.0883 0.1657,-0.0636 0.35318,-0.11681 0.4166,-0.11826 0.0634,-0.001 0.0188,-0.0639 -0.0991,-0.13882 -0.14384,-0.0914 0.0386,-0.25907 0.55411,-0.50955 0.46874,-0.22773 0.80983,-0.30655 0.87441,-0.20206 0.0582,0.0942 0.0419,0.1602 -0.0364,0.14661 -0.36766,-0.0639 -0.58273,0.0345 -0.47093,0.2154 0.0726,0.11741 0.0477,0.15262 -0.0605,0.0857 -0.23223,-0.14353 -0.7597,0.0492 -0.64455,0.23551 0.15353,0.24841 -2.32314,1.53972 -5.86106,3.05589 -4.21512,1.80638 -7.51527,4.06287 -7.51527,5.1386 0,0.63863 -8.735977,1.01418 -13.460922,0.57867 z m 52.159022,-27.29413 c -0.28004,-0.59843 -0.73539,-1.27541 -1.0119,-1.5044 l -0.50273,-0.41635 0.57178,-1.0768 c 4.76802,-8.97929 8.99217,-23.60305 9.31037,-32.23199 0.11276,-3.05779 0.23134,-3.05532 0.62944,0.0131 1.49324,11.50937 -1.21612,24.32104 -7.30342,34.53556 -1.24728,2.09294 -1.06672,2.02035 -1.69354,0.68085 z"
         id="path28" /><path
         style="fill:#acb8c3"
         d="m 160.04022,208.29749 c -1.7731,-0.43019 -1.48741,-0.16775 -17.32376,-15.91365 -9.74979,-9.69411 -10.19718,-9.90603 -15.39508,-7.29257 -0.74589,0.37502 -1.44992,0.62805 -1.56452,0.56228 -0.11459,-0.0658 -0.14985,-0.0551 -0.0783,0.0237 0.0715,0.0788 -0.47211,0.46503 -1.20804,0.85826 -0.73592,0.39323 -1.55159,0.85492 -1.81262,1.02597 -0.26102,0.17105 -0.47458,0.26324 -0.47458,0.20486 0,-0.0584 -0.15356,0.0474 -0.34124,0.2351 -0.2088,0.20881 -0.4542,0.29789 -0.63232,0.22954 -0.19051,-0.0731 -0.24982,-0.0449 -0.17166,0.0815 0.16605,0.26868 -0.42082,0.53908 -0.8394,0.38675 -0.28567,-0.10396 -0.16669,-0.20702 0.6903,-0.598 2.91756,-1.33106 4.20298,-2.38294 7.80589,-6.38769 1.54065,-1.71248 3.78455,-4.20084 4.98644,-5.52967 1.20189,-1.32884 3.3519,-3.72188 4.77779,-5.31788 4.69359,-5.25355 8.19382,-4.97077 8.77134,0.70864 0.26151,2.57167 -0.15496,2.06685 10.42975,12.64236 11.20289,11.19315 12.73547,12.75961 12.82386,13.10743 1.60846,6.32896 -4.24341,12.47736 -10.44381,10.97303 z M 55.744205,148.44608 c -0.0015,-0.0691 -0.172041,-1.11752 -0.379084,-2.32977 -5.226355,-30.60063 25.134287,-56.948136 56.232239,-48.799335 21.70553,5.687645 36.5505,27.959715 32.74491,49.127565 l -0.33116,1.84201 -0.021,-2.6186 c -0.045,-5.60608 -1.1587,-10.90058 -3.32272,-15.79592 -0.46313,-1.04768 -0.79912,-1.94779 -0.74666,-2.00026 0.0525,-0.0525 0.007,-0.0954 -0.10052,-0.0954 -0.10776,0 -0.15122,-0.11649 -0.0966,-0.25886 0.0546,-0.14238 0.0158,-0.25887 -0.0863,-0.25887 -0.1021,0 -0.14093,-0.11648 -0.0863,-0.25886 0.0546,-0.14238 0.009,-0.25886 -0.10189,-0.25886 -0.11067,0 -0.15323,-0.0777 -0.0946,-0.17258 0.0587,-0.0949 0.0161,-0.17258 -0.0946,-0.17258 -0.11068,0 -0.15653,-0.11648 -0.10189,-0.25886 0.0546,-0.14237 0.0265,-0.25886 -0.0624,-0.25886 -0.089,0 -0.11216,-0.12923 -0.0515,-0.28718 0.0736,-0.19178 0.0438,-0.24613 -0.0897,-0.16361 -0.12673,0.0783 -0.16543,0.0336 -0.10569,-0.12201 0.0518,-0.13507 -0.007,-0.35267 -0.13141,-0.48355 -0.12411,-0.13089 -0.23341,-0.33505 -0.24291,-0.45369 -0.0401,-0.50096 -0.0778,-0.57583 -0.23962,-0.47581 -0.10134,0.0626 -0.12447,-0.0148 -0.057,-0.1907 0.0766,-0.19957 0.0485,-0.25584 -0.0863,-0.17257 -0.13474,0.0833 -0.16287,0.027 -0.0863,-0.17258 0.0766,-0.19957 0.0484,-0.25585 -0.0863,-0.17258 -0.13473,0.0833 -0.16287,0.027 -0.0863,-0.17257 0.0766,-0.19957 0.0485,-0.25585 -0.0863,-0.17258 -0.13474,0.0833 -0.16287,0.027 -0.0863,-0.17257 0.0766,-0.19957 0.0484,-0.25585 -0.0863,-0.17258 -0.13473,0.0833 -0.16287,0.027 -0.0863,-0.17258 0.0766,-0.19957 0.0485,-0.25584 -0.0863,-0.17257 -0.13473,0.0833 -0.16287,0.027 -0.0863,-0.17258 0.0715,-0.18635 0.046,-0.25434 -0.0688,-0.18339 -0.10374,0.0641 -0.17222,-0.0167 -0.15876,-0.18741 0.013,-0.16509 -0.0706,-0.28167 -0.18585,-0.25908 -0.12918,0.0253 -0.16756,-0.0682 -0.10011,-0.24403 0.0729,-0.18999 0.0427,-0.24388 -0.0905,-0.16154 -0.13473,0.0833 -0.16287,0.027 -0.0863,-0.17258 0.0715,-0.18636 0.046,-0.25434 -0.0688,-0.1834 -0.10374,0.0641 -0.17221,-0.0167 -0.15876,-0.18741 0.0131,-0.166 -0.0785,-0.27895 -0.20489,-0.25273 -0.1257,0.0261 -0.17944,-0.032 -0.11943,-0.12912 0.13819,-0.2236 -0.32884,-0.90971 -0.50161,-0.73693 -0.0706,0.0706 -0.11267,0.0507 -0.0935,-0.0442 0.0708,-0.35082 -0.0106,-0.6216 -0.15915,-0.52976 -0.0842,0.052 -0.14244,-0.0405 -0.12943,-0.20554 0.013,-0.16508 -0.0643,-0.28378 -0.17176,-0.26377 -0.10748,0.02 -0.18513,-0.0965 -0.17257,-0.25887 0.0126,-0.16238 -0.0714,-0.27675 -0.18667,-0.25416 -0.11523,0.0226 -0.17507,-0.0551 -0.13298,-0.17258 0.0958,-0.26749 -1.08378,-1.8986 -1.28369,-1.77505 -0.0807,0.0499 -0.25263,-0.0443 -0.38203,-0.2094 -0.21719,-0.27703 -0.2099,-0.2802 0.0948,-0.0412 1.1608,0.91037 -1.50416,-2.41233 -3.73732,-4.65972 -4.70579,-4.73582 -11.2274,-8.67878 -17.01683,-10.28839 -0.58389,-0.16233 -1.06162,-0.36466 -1.06162,-0.44962 0,-0.085 -0.0694,-0.11155 -0.1543,-0.0591 -0.0849,0.0525 -0.99741,-0.09496 -2.02789,-0.32758 -13.972594,-3.154126 -28.738931,1.24014 -38.632004,11.49638 -1.977425,2.05002 -3.413314,3.79863 -3.328418,4.05332 0.02721,0.0816 0.0032,0.14843 -0.05343,0.14843 -0.178792,0 -0.673684,0.46671 -0.673684,0.63533 0,0.0889 0.09707,0.10576 0.21572,0.0375 0.125332,-0.0721 0.155462,-0.0583 0.07191,0.0329 -0.0791,0.0864 -0.234416,0.15731 -0.345152,0.15755 -0.110736,2.5e-4 -0.201441,0.15556 -0.201566,0.34515 -1.26e-4,0.18959 -0.116614,0.34658 -0.258864,0.34887 -0.14225,0.002 -0.24799,0.13736 -0.234977,0.30015 0.01301,0.1628 -0.04523,0.25341 -0.129432,0.20137 -0.141776,-0.0876 -0.227362,0.16494 -0.169252,0.49946 0.01359,0.0782 -0.05487,0.0931 -0.152139,0.033 -0.168699,-0.10427 -0.257443,0.14565 -0.182907,0.51508 0.01915,0.0949 -0.02293,0.11483 -0.09352,0.0442 -0.172778,-0.17277 -0.639803,0.51334 -0.501615,0.73693 0.06001,0.0971 0.0063,0.15521 -0.119434,0.12913 -0.125701,-0.0261 -0.218269,0.0854 -0.205706,0.24782 0.01256,0.16238 -0.0651,0.27887 -0.172576,0.25886 -0.10748,-0.02 -0.18477,0.0987 -0.171758,0.26378 0.01346,0.17069 -0.05502,0.25152 -0.158759,0.18741 -0.114794,-0.071 -0.140292,-0.003 -0.06878,0.1834 0.07658,0.19956 0.04844,0.25584 -0.08629,0.17257 -0.133227,-0.0823 -0.163427,-0.0284 -0.09052,0.16154 0.06746,0.17579 0.02907,0.26936 -0.100104,0.24403 -0.115231,-0.0226 -0.198863,0.094 -0.18585,0.25908 0.01345,0.17069 -0.05502,0.25152 -0.15876,0.18741 -0.114794,-0.0709 -0.140291,-0.003 -0.06878,0.1834 0.07658,0.19957 0.04845,0.25584 -0.08629,0.17257 -0.134732,-0.0833 -0.16287,-0.027 -0.08629,0.17258 0.0625,0.16287 0.04501,0.25372 -0.03888,0.20188 -0.184001,-0.11372 -0.402354,0.38795 -0.265345,0.60963 0.05337,0.0864 0.01021,0.157 -0.09591,0.157 -0.10612,0 -0.148819,0.0714 -0.09489,0.15867 0.05393,0.0873 -0.01544,0.27216 -0.154173,0.41089 -0.138728,0.13873 -0.204157,0.30031 -0.145399,0.35907 0.05876,0.0588 0.01165,0.10683 -0.104691,0.10683 -0.116338,0 -0.163528,0.0777 -0.104866,0.17257 0.05866,0.0949 0.01611,0.17258 -0.09457,0.17258 -0.110673,0 -0.156523,0.11649 -0.101889,0.25886 0.05463,0.14238 0.01953,0.25887 -0.07801,0.25887 -0.09754,0 -0.129348,0.0777 -0.07069,0.17257 0.05866,0.0949 0.02685,0.17258 -0.07069,0.17258 -0.09754,0 -0.132644,0.11649 -0.07801,0.25886 0.05463,0.14238 0.0088,0.25887 -0.101889,0.25887 -0.110673,0 -0.153228,0.0777 -0.09457,0.17257 0.05866,0.0949 0.01983,0.17258 -0.08629,0.17258 -0.10612,0 -0.146999,0.0743 -0.09084,0.16521 0.05616,0.0909 -0.209159,0.78427 -0.58959,1.54091 -2.723306,5.41639 -4.009753,11.14808 -3.993979,17.79495 0.003,1.28138 -0.06884,2.44627 -0.159738,2.58864 -0.0909,0.14238 -0.166456,0.20231 -0.16791,0.13318 z"
         id="path27" /><path
         style="fill:#70abd0"
         d="M 97.036564,174.46665 C 93.921119,173.493 82.476048,161.51565 77.375376,153.89108 57.897008,124.77447 87.791354,91.117257 116.3157,110.04924 c 19.79745,13.13983 16.91753,36.21946 -7.44544,59.66781 -5.14621,4.95301 -7.78891,6.01369 -11.833696,4.7496 z m 4.744976,-4.02161 c 2.98839,-1.36911 14.91265,-14.66623 18.27445,-20.37843 16.23097,-27.57876 -14.68936,-55.953936 -37.536417,-34.44667 -12.521359,11.78708 -10.306159,28.09703 6.240192,45.94494 8.012317,8.64258 10.233751,10.15748 13.021775,8.88016 z"
         id="path26" /><path
         style="fill:#8c99a6"
         d="m 160.49513,213.00827 c -2.52114,-0.40589 -2.37903,-0.28433 -14.99928,-12.83083 -14.62755,-14.54205 -12.40528,-13.56591 -20.72393,-9.10316 -4.08328,2.19058 -11.13392,4.48405 -15.74755,5.12244 -2.61735,0.36217 1.49782,-2.92709 5.96062,-4.76432 3.34767,-1.37816 4.33575,-1.86589 6.93943,-3.42539 10.30266,-6.17086 10.15183,-6.20261 20.79204,4.37683 17.56625,17.46592 16.47618,16.60756 20.33405,16.01187 5.04144,-0.77844 9.38349,-7.10523 7.47972,-10.89868 -0.39697,-0.79101 0.59828,0.49665 1.10865,1.43438 3.60886,6.63066 -3.28717,15.34176 -11.14375,14.07686 z M 137.54178,122.62926 C 121.9579,92.380447 79.664004,91.767169 62.959365,121.54779 c -0.457438,0.81551 -0.831883,1.41171 -0.8321,1.32489 -0.0029,-1.15009 5.194922,-8.53083 8.196961,-11.63949 17.45176,-18.071584 47.022834,-16.296422 62.509594,3.75247 2.05767,2.66383 5.99372,9.14717 5.71964,9.42125 -0.0348,0.0348 -0.49005,-0.76515 -1.01168,-1.77765 z"
         id="path25" /><path
         style="fill:#85c65a"
         d="m 98.172241,149.33535 c -13.288908,-1.40901 -19.05244,-17.29795 -9.618116,-26.51527 12.729765,-12.43696 33.716235,2.38647 25.585755,18.07206 -2.59153,4.99966 -9.96598,9.37219 -14.514095,8.60584 -0.07493,-0.0126 -0.729023,-0.0858 -1.453544,-0.16263 z M 89.09972,130.03327 c 0.239993,-0.0912 0.647568,-0.56482 0.955138,-1.1098 1.598052,-2.83159 4.540323,-4.91048 7.847741,-5.54488 2.554371,-0.48996 2.554561,-2.741 2.06e-4,-2.42249 -5.412805,0.67495 -12.55506,7.37181 -9.630687,9.03012 0.424207,0.24055 0.332397,0.23533 0.827602,0.047 z"
         id="path24" /></g><g
       id="g31"
       transform="translate(521.13011)"
       inkscape:label="Measure"
       inkscape:export-filename="Measure.svg"
       inkscape:export-xdpi="96"
       inkscape:export-ydpi="96"><circle
         style="fill:#ffffff;stroke:none;stroke-width:1.5;stroke-linecap:round;stroke-linejoin:round"
         id="path41"
         cx="102.31226"
         cy="154.94052"
         r="52.260223"
         transform="translate(-3.3333333e-6)" /><path
         id="path64"
         style="display:inline;fill:#ced8e0"
         transform="translate(-3.3333333e-6)"
         d="m 105.09472,105.36879 c 6.54691,1.45989 13.50012,3.75134 19.6112,4.94069 2.13784,1.05444 5.1863,6.02249 6.88487,1.69968 6.45789,3.13945 10.79788,9.26981 15.11719,14.77983 5.38281,7.73999 8.98501,16.95523 8.60514,26.4924 1.56544,13.92758 -4.15877,27.97727 -13.12169,38.46792 -9.21446,1.64761 -18.61508,0.33137 -27.90797,0.90501 -15.470937,0.0198 -31.021953,-0.24399 -46.438067,-0.28581 -6.361846,-3.09403 -9.175972,-10.56035 -12.138163,-16.59254 -2.078571,-2.94411 -3.235912,-12.1378 -3.995243,-11.98089 1.317292,2.42467 -4.781035,-2.17524 -1.21199,-2.46334 -1.39232,-6.17029 3.673393,-11.67575 3.179763,-17.91625 -0.08788,-5.86735 3.780155,-9.8068 6.290356,-14.62369 5.163376,-6.15257 10.395622,-12.5517 17.708561,-16.2621 6.833486,-3.96053 14.704428,-6.152 22.586123,-6.33753 1.41444,-0.0741 4.12652,1.00038 4.82992,-0.82338 z m -4.27106,-7.697232 c -3.107107,0.57843 -8.481618,0.927032 -9.866504,2.189883 -4.167766,-1.984616 -9.228704,2.352649 -13.511018,3.494309 -10.432817,4.68889 -18.815561,13.02158 -25.261681,22.30969 -11.151475,17.50367 -11.80168,40.95966 -1.897997,59.1554 5.345802,5.30546 -1.273271,16.28578 7.058436,19.27842 5.975528,1.5211 12.254028,0.62226 18.363652,0.73323 6.480794,-0.26171 13.025555,0.2338 19.276851,1.96427 -2.672173,0.75524 -7.280109,-3.7583 -2.662766,-3.02701 5.61011,4.45744 13.189847,4.42319 19.787457,2.57874 11.75323,-2.94305 23.95394,-0.43587 35.86749,-2.06562 7.58888,-2.89722 -2.07718,-12.37604 4.75264,-15.95299 2.72341,-5.83243 6.60995,-12.24054 5.54793,-18.57715 3.13035,-6.31282 4.20746,-13.18367 2.49542,-20.12466 -1.89859,-4.72302 0.23702,-12.21309 -6.17859,-13.35972 3.15648,-6.02732 -3.46082,-11.11456 -6.1915,-16.00413 -4.47459,-6.06226 -10.61694,-10.42257 -16.73672,-14.48988 -9.0941,-5.77603 -20.18651,-7.976553 -30.8431,-8.102782 z" /><path
         style="fill:#dce5ed"
         d="m 149.07097,204.51001 c 2.40682,-2.65535 2.7405,-3.77837 2.86184,-9.63157 l 0.0952,-4.59222 0.69697,-1.16325 c 0.38334,-0.63979 0.82527,-1.61368 0.98207,-2.16421 0.1568,-0.55052 0.97897,-2.50238 1.82705,-4.33746 3.67322,-7.94815 5.25726,-13.77472 5.9187,-21.77071 0.18743,-2.26578 0.25318,-6.77059 0.10469,-7.1735 -0.0507,-0.13763 -0.2083,-1.39133 -0.35019,-2.786 -2.4824,-24.40141 -20.80813,-45.64423 -44.37945,-51.443761 -49.1258,-12.087002 -89.767131,38.727091 -67.246048,84.078131 0.838954,1.68941 1.304695,2.81559 1.764837,4.26743 0.116321,0.36702 0.464695,1.08168 0.774165,1.58813 l 0.562673,0.92083 v 4.25411 c 0,5.37357 0.478564,7.21614 2.554678,9.83606 0.181773,0.22938 -0.480806,-0.40743 -1.472397,-1.41515 -0.991591,-1.00771 -1.711296,-1.64582 -1.599345,-1.41801 0.183425,0.37324 0.158365,0.36472 -0.253506,-0.0863 -0.251379,-0.27526 -0.515957,-0.4826 -0.587952,-0.46077 -0.07199,0.0218 -0.08331,-0.0843 -0.02514,-0.23589 0.06345,-0.16536 0.03811,-0.2338 -0.06335,-0.17109 -0.386298,0.23874 -0.592621,-1.25201 -0.722645,-5.22137 -0.172592,-5.26885 -0.356373,-6.00916 -2.56769,-10.34318 -4.209325,-8.24997 -6.525685,-16.50046 -6.86161,-24.43992 -0.05047,-1.1928 -0.123255,-2.6567 -0.161748,-3.2531 -2.124757,-32.92039 29.963883,-63.769755 64.379388,-61.893029 44.65597,2.435153 71.83902,48.963349 51.87704,88.795959 -0.77085,1.53816 -1.58616,3.34664 -1.81181,4.01884 -0.90475,2.6952 -0.95244,3.02299 -1.06642,7.33066 -0.0632,2.3898 -0.1788,4.18621 -0.27367,4.25405 -0.0903,0.0646 -0.44254,0.53031 -0.78272,1.03496 -0.78995,1.17186 -2.23231,2.56745 -3.71895,3.59832 l -1.16778,0.80976 z m -72.698284,-6.45736 c -0.432309,-0.43231 -0.424964,-1.03343 0.01752,-1.43386 l 0.35117,-0.3178 h 26.073144 26.07315 l 0.35116,0.3178 c 0.46782,0.42337 0.45807,1.17324 -0.0196,1.50782 -0.33173,0.23235 -3.11548,0.25969 -26.44183,0.25969 H 76.706337 Z m 63.343194,-5.79504 -0.80118,-0.0628 0.98189,-1.11658 c 5.71604,-6.50008 10.12879,-14.84403 11.96486,-22.62405 1.07637,-4.56091 1.14482,-5.23442 1.19672,-11.77419 0.0529,-6.6723 0.084,-6.94261 0.84783,-7.38873 l 0.52086,-0.3042 0.30201,0.45996 c 0.88488,1.34769 0.91204,10.81954 0.0456,15.90789 -1.61309,9.47336 -6.51638,19.85831 -12.25715,25.96009 -1.07611,1.14379 -0.9175,1.09042 -2.80146,0.94265 z m -75.135971,-4.44774 c -18.266093,-28.20652 -11.165882,-60.32418 16.38912,-74.13584 34.268921,-17.176951 74.804161,12.02459 69.076111,49.76235 -0.48106,3.16931 -0.5537,3.13083 -0.4725,-0.25024 0.2307,-9.60549 -2.02509,-17.62655 -7.16321,-25.47071 -1.23414,-1.88412 -1.33856,-2.10702 -1.16523,-2.48744 0.53996,-1.18508 -0.46077,-2.59922 -1.54494,-2.18318 -0.15004,0.0576 -0.84018,-0.59377 -1.91367,-1.80606 -2.85402,-3.22307 -6.81538,-6.57517 -10.69798,-9.05263 -0.87166,-0.5562 -1.56138,-1.10688 -1.53271,-1.22373 0.23305,-0.94975 0.21149,-1.10935 -0.219,-1.62097 -0.57782,-0.68669 -1.43716,-0.73471 -2.08258,-0.11636 l -0.43262,0.41448 -1.91247,-0.81048 c -4.63156,-1.9628 -10.29464,-3.31257 -15.20185,-3.62329 l -1.77924,-0.11266 -0.10421,-0.55544 c -0.27918,-1.48818 -2.76008,-1.37779 -2.76008,0.12282 v 0.4161 l -2.460678,0.28351 c -5.036346,0.58027 -9.951612,1.87587 -14.055041,3.70473 -2.209221,0.98463 -2.439754,1.04001 -2.573634,0.61819 -0.308772,-0.97285 -1.710795,-1.24503 -2.383684,-0.46275 -0.434883,0.50558 -0.503083,1.36162 -0.147249,1.84825 0.218374,0.29864 0.105238,0.40381 -1.709961,1.58953 -3.883103,2.5365 -7.833963,6.01839 -10.606441,9.34745 l -1.194026,1.43373 -0.378367,-0.25122 c -0.970269,-0.64424 -2.473406,0.58387 -2.048827,1.67395 0.158416,0.40672 1.235035,1.34023 1.742964,1.51128 0.125334,0.0422 -0.240654,0.91626 -0.999728,2.38756 -2.654233,5.14464 -3.808702,8.81324 -4.693632,14.91515 l -0.302259,2.08418 -0.618826,0.10059 c -1.826067,0.29682 -1.951951,2.82106 -0.140692,2.82117 l 0.613487,4e-5 0.0076,7.21516 0.0076,7.21516 0.435599,2.18549 c 0.701856,3.52134 2.046207,6.33129 4.46218,9.32679 0.950412,1.17838 1.17764,1.57725 1.264184,2.21907 0.05803,0.43036 0.213416,1.22532 0.345302,1.76659 0.320927,1.31711 0.32381,1.31931 -1.048827,-0.80032 z m 89.450011,-38.97071 c -0.27527,-0.07 -0.85367,-0.13623 -1.28534,-0.14709 l -0.78486,-0.0197 -0.10748,-0.62559 c -2.18952,-12.74488 -8.94238,-23.88188 -19.21768,-31.69436 -1.03224,-0.78482 -1.87679,-1.49561 -1.87679,-1.57953 0,-0.0839 -0.0699,-0.1094 -0.1553,-0.0566 -0.24046,0.14861 -0.36673,-0.18257 -0.24878,-0.65251 0.0586,-0.2336 0.21107,-0.42474 0.33875,-0.42474 0.17603,0 0.23216,-0.27996 0.23216,-1.15793 0,-1.10125 0.22137,-1.66433 0.43522,-1.10703 0.0546,0.14221 0.8845,0.83084 1.84428,1.53029 11.25747,8.20402 20.88759,23.20477 21.98618,34.24768 0.0375,0.37722 0.11389,0.8297 0.16968,1.0055 0.0909,0.28649 -0.45234,0.89362 -0.74157,0.82874 -0.0484,-0.0109 -0.31321,-0.077 -0.58847,-0.14708 z"
         id="path40" /><path
         style="display:inline;fill:#abb8c3"
         d="m 99.227768,209.2911 c -0.229385,-0.0331 -1.092707,-0.14292 -1.918493,-0.24397 -0.825785,-0.10105 -2.477357,-0.37892 -3.670159,-0.61748 l -2.16873,-0.43375 -16.098652,-0.0969 c -17.964529,-0.10814 -16.606118,-0.0151 -19.10151,-1.30823 -1.508405,-0.78167 -3.456713,-2.71593 -4.235099,-4.20458 -0.656766,-1.25605 -0.547259,-1.18413 0.67344,0.4423 1.161117,1.54704 2.689958,2.84974 3.561659,3.03484 0.944022,0.20045 1.025851,0.0735 0.298117,-0.46253 -1.803061,-1.32805 -1.882638,-1.7481 -0.252291,-1.3317 3.350696,0.85577 3.784078,0.87958 17.887906,0.98279 l 13.26262,0.0971 2.919445,0.78219 c 8.879765,2.37913 16.443839,2.33247 24.856989,-0.15333 l 2.08532,-0.61614 13.51285,-0.11145 c 7.43208,-0.0613 13.70054,-0.15681 13.92993,-0.21224 0.22938,-0.0554 1.16777,-0.22668 2.08531,-0.38056 0.91754,-0.15388 1.83717,-0.34229 2.04361,-0.4187 0.59002,-0.21835 0.44461,0.076 -0.45162,0.91437 -1.07532,1.00584 -0.86356,0.97764 0.75552,-0.10061 1.5167,-1.01007 3.14854,-2.48712 3.823,-3.46037 0.62359,-0.89985 0.71949,-0.73437 0.18783,0.32413 -1.35121,2.69021 -3.52654,4.6359 -6.31953,5.65241 l -1.20658,0.43914 -16.01524,0.093 -16.01524,0.093 -1.74,0.37257 c -3.86169,0.82686 -10.18067,1.28736 -12.690402,0.92483 z M 66.231504,191.92182 c -4.122339,-3.58774 -9.820743,-13.24902 -11.930611,-20.22758 -11.953049,-39.5357 25.34038,-75.947186 64.278627,-62.75851 4.25399,1.44086 12.07183,5.36841 11.74346,5.89973 -0.0498,0.0805 -0.0168,0.12578 0.0733,0.10056 0.27768,-0.0777 3.5442,2.44009 5.63768,4.3455 17.36223,15.80244 21.41814,41.18024 9.731,60.8869 -1.00318,1.69154 -0.98816,1.68089 -1.67708,1.19033 -0.54562,-0.38852 -0.57139,-0.53001 -0.22581,-1.23983 l 0.24366,-0.50047 -0.0875,0.45877 c -0.13726,0.71933 0.13986,0.5401 0.64482,-0.41707 0.25413,-0.48171 0.69202,-1.25119 0.97309,-1.70996 4.43398,-7.23724 6.07831,-20.34805 3.86827,-30.843 -8.84041,-41.98097 -63.418262,-52.628598 -87.27588,-17.0267 -11.347572,16.93359 -10.579274,38.00638 2.095028,57.46216 1.51586,2.32694 2.713551,4.67111 2.38657,4.67111 -0.07871,0 -0.294059,-0.13137 -0.478554,-0.29194 z"
         id="path37" /><path
         style="display:inline;fill:#93a3b1"
         d="m 100.07935,167.76008 c -5.535523,-1.48859 -8.066443,-8.40059 -4.843327,-13.22725 4.703944,-7.04421 15.826707,-3.73024 15.885187,4.73292 0.0403,5.83145 -5.39511,10.01282 -11.04186,8.49433 z m 7.0924,-9.1822 c 1.57837,-0.74899 1.8656,-2.97352 0.53826,-4.16867 -1.8534,-1.66882 -4.88642,0.22503 -4.13108,2.57948 0.50478,1.57344 2.12022,2.28798 3.59282,1.58919 z"
         id="path36" /><path
         style="fill:#44aff1"
         d="m 73.44429,157.76221 c -2.243409,-1.13959 -2.217221,-2.86365 0.115267,-7.58845 11.818293,-23.93969 45.589503,-24.16372 57.526683,-0.38161 2.50716,4.99494 2.54109,7.12503 0.12955,8.13263 -1.85404,0.77467 -3.76926,-0.26073 -4.53337,-2.45082 -7.72227,-22.13354 -39.094509,-22.49158 -48.204027,-0.55013 -1.25318,3.01845 -2.877118,3.93407 -5.034103,2.83838 z"
         id="path35" /><path
         style="display:inline;fill:#74d259"
         d="m 100.32627,175.52474 c -14.301553,-2.24969 -19.013013,-20.17282 -7.604693,-28.92946 9.860103,-7.56828 24.339873,-1.26864 25.732703,11.1954 1.14708,10.26501 -8.10032,19.31145 -18.12801,17.73406 z m 4.17879,-5.41438 c 5.15335,-0.986 8.73111,-5.39563 8.73111,-10.7612 0,-9.66196 -11.37327,-14.55868 -18.345863,-7.89874 -7.906027,7.55152 -1.123628,20.71453 9.614753,18.65994 z"
         id="path34" /><path
         style="fill:#58a84c"
         d="m 100.14531,170.10951 c -8.655395,-1.93353 -11.646512,-12.55418 -5.255003,-18.65909 7.870293,-7.51739 20.602763,-0.0911 18.093733,10.55323 -1.3278,5.63305 -7.22921,9.35897 -12.83873,8.10586 z m 5.02014,-2.50235 c 9.10112,-3.05515 7.32485,-16.28193 -2.26752,-16.88489 -5.616185,-0.35303 -10.090099,4.79941 -8.939372,10.29514 1.092064,5.21557 6.255682,8.25182 11.206892,6.58975 z"
         id="path33" /><path
         style="fill:#445562"
         d="m 102.1515,121.27554 c -0.87046,-0.26441 -0.99615,-0.75726 -0.97865,-3.83743 0.022,-3.88042 0.24275,-4.42984 1.61236,-4.01381 1.05171,0.31947 1.02151,0.16514 1.01116,5.16757 -0.005,2.37731 -0.42063,3.05555 -1.64487,2.68367 z"
         id="path228" /><path
         style="fill:#445562"
         d="m 120.82408,125.90825 c -0.64328,-0.64328 -0.52198,-1.13723 0.94441,-3.846 1.84737,-3.41253 2.30087,-3.79321 3.31302,-2.78106 0.77722,0.77723 0.82328,0.62687 -1.54231,5.03463 -1.1242,2.09471 -1.81039,2.49716 -2.71512,1.59243 z"
         id="path227" /><path
         style="fill:#445562"
         d="m 82.406902,126.01258 c -0.610835,-0.61084 -3.081483,-5.38978 -3.066115,-5.93074 0.05423,-1.90899 1.842008,-1.61963 2.968183,0.48041 0.34443,0.64228 0.958077,1.76835 1.363659,2.50238 1.298165,2.34945 0.348229,4.5619 -1.265727,2.94795 z"
         id="path226" /><path
         style="fill:#445562"
         d="m 134.35398,138.29204 c -0.76849,-1.09718 -0.43082,-1.51781 2.90305,-3.61626 2.86915,-1.80594 3.51396,-1.9073 4.00005,-0.62878 0.25675,0.67528 -0.034,1.19656 -1.02558,1.83885 -4.67319,3.02697 -5.27122,3.2718 -5.87752,2.40619 z"
         id="path225" /><path
         style="fill:#445562"
         d="m 69.013186,138.61358 c -2.244046,-1.03399 -5.486057,-3.51347 -5.486057,-4.19572 0,-1.97245 6.21368,0.29083 7.188631,2.6184 0.454246,1.08445 -0.617452,2.0773 -1.702574,1.57732 z"
         id="path224" /><path
         style="fill:#445562"
         d="m 139.4853,158.50536 c -0.81855,-0.31073 -0.98586,-1.592 -0.28035,-2.14696 2.12961,-1.67515 9.56019,0.022 8.08335,1.84619 l -0.31884,0.39384 -3.55985,0.0226 c -1.95792,0.0125 -3.72386,-0.0396 -3.92431,-0.11571 z"
         id="path223" /><path
         style="fill:#445562"
         d="m 58.188716,158.56556 c -0.941873,-0.35405 -1.164833,-1.60126 -0.394566,-2.20715 0.412863,-0.32476 0.651447,-0.34576 3.92798,-0.34576 h 3.488419 l 0.409481,0.40948 c 0.608066,0.60807 0.535024,1.59104 -0.145281,1.95513 -0.364671,0.19516 -6.823695,0.36209 -7.286033,0.1883 z"
         id="path32" /></g><g
       id="g245"
       transform="translate(688.06484)"
       inkscape:label="Pop-Harvest"
       inkscape:export-filename="Pop-Harvest.svg"
       inkscape:export-xdpi="96"
       inkscape:export-ydpi="96"><path
         style="baseline-shift:baseline;display:inline;overflow:visible;opacity:1;vector-effect:none;fill:#8f9eaa;stroke-linecap:round;stroke-linejoin:round;enable-background:accumulate;stop-color:#000000;stop-opacity:1"
         d="m 112.14063,98.267578 c -0.5787,0.143565 -1.07676,0.510959 -1.38477,1.021484 -10.49817,17.411598 -21.859767,27.555898 -32.664063,38.556638 -10.804296,11.00074 -21.004483,22.89856 -28.419922,43.29102 -0.424229,1.16766 0.178188,2.45818 1.345703,2.88281 1.168234,0.42552 2.687853,0.0506 3.112473,-1.11799 7.157795,-19.68394 17.027955,-30.65403 27.693156,-41.51314 10.665201,-10.85912 22.205203,-21.46928 33.046413,-39.44982 0.64236,-1.06458 0.0392,-2.773658 -1.02587,-3.415143 -0.51131,-0.307781 -1.12395,-0.399818 -1.70312,-0.255859 z m 33.82617,47.054692 c -0.59176,0.0758 -1.1292,0.38349 -1.49414,0.85546 -21.52662,27.84035 -39.26373,38.01419 -54.933598,44.98047 -15.66987,6.96629 -29.691595,10.73407 -42.322265,25.45508 -0.808664,0.94288 -0.700254,2.3627 0.242187,3.17188 0.943166,0.80998 2.364484,0.70152 3.173828,-0.24219 11.809349,-13.76377 24.586378,-16.63002 40.604257,-23.75102 16.017881,-7.12099 35.247361,-18.09807 57.186481,-46.47191 0.75996,-0.98321 0.1886,-2.78668 -0.79464,-3.5466 -0.47227,-0.36487 -1.07016,-0.52717 -1.66211,-0.45117 z"
         id="path312"
         inkscape:label="GreyStem"
         sodipodi:nodetypes="ccscccscccccscccsccc" /><path
         id="path314"
         style="baseline-shift:baseline;display:inline;overflow:visible;opacity:1;vector-effect:none;fill:#81919d;fill-opacity:1;stroke-linecap:round;stroke-linejoin:round;enable-background:accumulate;stop-color:#000000;stop-opacity:1"
         d="m 114.0256,100.02335 c -0.19668,-0.004 -0.39301,0.0183 -0.58395,0.0656 -0.5786,0.14369 -1.07651,0.51113 -1.38441,1.02164 -10.05148,17.85828 -20.866281,28.54945 -32.664153,38.55682 -11.797662,10.00719 -22.82956,23.81095 -28.419971,43.2909 -0.113375,0.31659 -0.154342,0.65458 -0.119889,0.98909 0.05379,0.0263 0.108613,0.0504 0.164331,0.0724 1.168315,0.42535 2.460153,-0.17753 2.884578,-1.34618 7.157795,-19.68394 16.735194,-30.81638 27.400395,-41.67549 10.665201,-10.85912 22.465799,-21.40413 33.307009,-39.38467 0.2503,-0.41584 0.35943,-0.90147 0.31109,-1.38442 -0.28103,-0.12936 -0.58572,-0.19938 -0.89503,-0.20567 z m 33.53594,47.10204 c -0.0981,-2.1e-4 -0.1962,0.006 -0.29353,0.0186 -0.59167,0.0758 -1.12903,0.3834 -1.49396,0.85525 -21.34319,29.30781 -39.0706,38.70775 -54.9336,44.98071 -17.006804,6.72527 -32.812148,10.9738 -42.322481,25.45478 -0.398885,0.46679 -0.589678,1.07632 -0.528133,1.68723 0.91148,0.41735 1.989123,0.18134 2.642732,-0.57877 11.809349,-13.76377 24.716586,-17.15091 40.734465,-24.27191 16.017887,-7.12099 34.727187,-17.96751 56.666307,-46.34135 0.3501,-0.45482 0.51315,-1.02623 0.45579,-1.59732 -0.29091,-0.13434 -0.60717,-0.20499 -0.92759,-0.20722 z"
         sodipodi:nodetypes="cccsccccsccccccscccsccc"
         inkscape:label="GreyShadow" /><path
         id="ellipse270"
         style="fill:#edf5fd;stroke-width:0.2;stroke-linecap:round;stroke-linejoin:round"
         d="m 130.64535,180.57877 c -3.07975,1.94896 -10.52563,-0.65581 -6.44307,-4.73537 2.62786,-2.88841 11.18612,-5.11317 11.90781,0.27993 -0.67179,2.43219 -3.2497,3.72607 -5.46474,4.45544 z m -15.47366,-19.22836 c -1.38613,3.23163 -7.21701,6.1745 -6.61403,0.17512 0.21316,-3.95464 4.9216,-11.37466 8.39499,-6.62158 0.58646,2.29133 -0.52802,4.60917 -1.78096,6.44646 z M 80.430134,121.01378 c -1.386125,3.23162 -8.727236,7.86603 -7.994139,0.17511 0.670255,-3.89384 4.388824,-9.38883 8.912325,-7.8772 2.235518,2.1283 0.435809,5.65889 -0.918186,7.70209 z m 16.514618,16.49588 c -3.101043,1.68713 -10.523835,-0.29753 -6.443073,-4.73537 2.580169,-3.00455 11.930171,-5.17348 11.785221,0.71167 -0.93223,2.17372 -3.228816,3.33138 -5.342148,4.0237 z"
         sodipodi:nodetypes="cccccccccccccccc"
         inkscape:label="BlueHighlights" /><path
         id="path267"
         style="display:inline;fill:#cbe1f7;fill-opacity:1;stroke:none;stroke-width:0.2;stroke-linecap:round;stroke-linejoin:round;stroke-dasharray:none;stroke-opacity:1"
         d="m 101.25517,139.63477 c 6.19078,-0.89424 9.87183,-8.2815 6.65293,-9.59693 -9.027595,-3.68924 -16.262059,0.36659 -17.809664,1.61769 -7.53273,6.08952 -0.326143,9.63791 11.156734,7.97924 z m -6.914849,-5.56311 c -2.513486,1.67201 -2.900553,0.74982 -2.292265,-1.02163 0.351268,-1.02295 2.287848,-2.65399 4.420888,-2.57977 1.80314,0.0627 1.436426,1.15473 1.093406,2.44304 -0.35278,1.32499 -2.091492,0.40631 -3.222029,1.15836 z M 84.52511,114.52422 c -2.137521,-9.68323 -4.758554,-8.70868 -9.972529,-1.1572 -4.710283,6.82197 -3.297351,10.0343 -0.78263,17.45872 1.811579,5.34847 13.041301,-5.94503 10.755159,-16.30152 z m -5.144775,3.71952 c -2.246319,1.00143 -2.68828,5.971 -4.363019,5.67904 -2.5166,-0.43872 -0.936784,-2.59274 -0.375523,-4.60939 0.293712,-1.05533 2.710639,-4.88249 3.902982,-5.07771 2.644355,-0.43296 3.547683,2.79898 0.83556,4.00806 z m 57.067675,67.16473 c 7.06488,-0.894 8.67204,-6.89109 5.31883,-9.41292 -6.62552,-4.98281 -14.51369,-4.56796 -16.84359,-2.66065 -8.42374,6.89584 0.0177,13.52969 11.52476,12.07357 z m -7.53426,-7.79959 c -2.02604,0.11218 -3.02321,0.78349 -2.47628,-0.79161 0.35479,-1.02174 1.32177,-2.19396 3.45481,-2.11974 1.80314,0.0627 2.3565,0.87871 2.01348,2.16702 -0.35278,1.32499 -1.63626,0.66926 -2.99201,0.74433 z m -10.11587,-21.72732 c -0.49505,-7.10399 -3.83848,-9.62875 -8.13238,-2.53731 -4.2939,7.09144 -4.42402,12.29617 -1.88672,19.7129 2.31762,6.77459 10.82542,-5.60487 10.0191,-17.17559 z m -4.96076,3.90354 c -1.00841,1.07348 -1.17106,2.50478 -2.01683,2.50478 -0.84578,0 -2.21162,-1.80871 -1.20359,-3.64331 0.6254,-1.13825 0.9653,-2.02926 2.01683,-2.17948 1.22888,-0.17555 2.21201,2.24454 1.20359,3.31801 z"
         inkscape:label="BlueLight"
         sodipodi:nodetypes="scsssscsssssssssssssssssssssssssssss" /><path
         style="display:inline;fill:#8bb3d7"
         d="m 131.29149,186.19248 c -4.99935,-0.68311 -9.6426,-4.21949 -9.6426,-7.34398 0,-1.32443 1.75122,-1.31439 4.11549,0.0236 6.79915,3.84776 12.66317,2.7474 14.96428,-2.80797 0.53837,-1.29975 3.8357,1.9311 4.00064,3.91999 0.29182,3.51898 -7.33437,7.04234 -13.43781,6.20837 z m -18.85885,-11.41997 c -0.002,-1.90379 -0.0869,-3.01325 -0.29666,-3.86366 2.91702,-1.37196 4.4796,-4.37627 4.51018,-12.61447 l 0.0116,-3.1247 0.57257,1.20989 c 0.31492,0.66545 0.96145,2.66562 1.43676,4.44484 0.4753,1.77922 1.02368,3.58656 1.21863,4.01633 1.08071,2.38239 0.0122,7.50428 -3.07977,10.04631 -2.51321,2.06619 -4.04642,2.52705 -4.24885,2.55623 -0.67703,0.0976 -0.12314,-1.20181 -0.12449,-2.67069 z m -17.490627,-33.5935 c -1.18851,-0.50093 -3.936345,-1.15386 -5.420649,-1.28802 -1.366818,-0.12355 -1.665492,-0.31483 -2.192961,-1.40444 -0.509394,-1.05227 -0.526538,-3.58365 0.06075,-3.2764 4.451052,2.32865 7.209377,5.29539 16.325077,-0.23764 2.52652,-1.53354 4.22805,-4.08976 3.19202,-5.1258 -0.67602,-0.67601 2.12705,0.61697 2.89382,1.33485 4.63671,4.34106 -8.04033,12.87098 -14.858061,9.99745 z m -17.23466,-6.41917 c -0.29248,-0.23683 -1.488005,-0.51448 -1.787925,-1.70714 -0.228847,-0.91003 -1.909863,-2.56012 -1.641614,-3.60748 l 0.476609,-1.86089 c 4.263094,2.11498 2.717622,6.24349 8.733733,-4.2332 1.724537,-3.00318 0.508414,-6.66357 0.508414,-9.06606 0,-1.09474 0.186867,-0.85724 0.846247,1.07556 3.216787,9.42914 1.442384,18.05101 -4.006938,19.46983 -1.140004,0.29682 -2.718759,0.26117 -3.128526,-0.0706 z"
         id="path249"
         sodipodi:nodetypes="sssssssscscssssssssssssssssssscssssss"
         inkscape:label="BlueDark" /><path
         id="path291"
         style="display:inline;fill:#a3cc97"
         d="m 92.490601,197.74533 c -1.748457,-1.64399 -10.334814,-3.39506 -4.317786,-3.91708 4.475748,0.71899 7.449673,-3.48971 10.271739,-6.27369 4.440296,-0.14274 8.551446,1.71672 12.308626,3.8613 1.93798,5.89739 -3.6266,12.58926 -9.84807,11.11361 -2.86137,-1.48511 -5.77661,-2.91703 -8.414509,-4.78414 z m 25.131569,-5.7011 c -3.07812,-2.67037 -4.32871,-7.11314 -9.37025,-6.4304 -0.17655,-3.23512 5.67889,-6.25792 9.54044,-4.74999 4.29405,1.09811 11.80757,5.57597 11.37986,9.46373 -3.70342,1.12346 -7.6626,2.04938 -11.55005,1.71666 z m -31.759509,-4.87438 c -2.885439,-1.43497 -2.644494,-6.29614 -1.622526,-9.28481 2.347047,-4.73907 6.741269,-8.68569 11.931661,-10.33188 2.573006,-0.81606 1.91803,-0.002 3.144862,2.35187 0.950812,-7.8126 6.874182,-13.13449 9.243462,-6.80478 2.61048,3.28852 0.64955,11.34986 -0.59801,15.83616 -6.87406,0.0853 -8.865999,6.3718 -15.043956,8.81315 -0.99643,0.20124 -6.100357,-0.21952 -7.055493,-0.57971 z m 54.340989,-18.063 c -2.87021,-1.3737 -10.29163,-3.47659 -6.86139,-7.36036 3.80706,-5.67748 10.89647,-9.80154 17.86729,-7.77384 8.77045,2.55118 7.81577,5.50219 3.95406,9.34865 -2.78495,3.83928 -10.11954,6.6145 -14.95996,5.78555 z m -18.09106,-6.58592 c -3.64335,-0.53458 -6.23318,-8.74646 -4.48616,-13.15203 1.41752,-4.19578 5.40388,-13.02876 10.77311,-9.47407 1.94485,3.1832 4.2742,6.59154 3.70288,10.52453 -0.82393,4.28449 -1.38092,10.67786 -5.98946,12.13394 -2.42203,0.14521 -1.11201,0.39142 -4.00037,-0.0324 z m -51.416791,-1.73454 c -3.283389,0.0385 -9.650918,-0.27373 -9.16706,-3.15661 0.669496,-3.98893 7.354979,-4.3222 8.462412,-9.25409 2.525573,-2.95796 6.841239,-1.87075 9.060296,-5.49117 3.488902,-3.66903 10.524784,-4.93181 17.367453,-0.90543 4.27332,2.51452 -7.471174,7.93025 -10.638202,12.13409 -3.674221,4.5053 -9.669322,5.68927 -15.084899,6.67321 z m -13.046968,-8.79012 c -6.072169,-2.1706 -3.080332,-11.06436 -1.522257,-15.40276 1.173216,-3.56469 4.608806,-7.98767 8.14173,-5.93399 -0.422369,-4.1303 6.332938,-11.20682 7.673175,-4.50666 1.400219,4.68435 2.913448,12.14494 -0.413111,16.24715 -0.991508,-2.52492 -6.348956,-11.48045 -4.349225,-4.69288 1.485546,4.88929 1.100399,12.85919 -4.832456,14.11753 -1.449696,0.43668 -3.227987,0.66652 -4.697856,0.17161 z m 77.217619,-3.16118 c -3.08282,-2.64796 -6.87874,-9.02638 -2.75398,-12.40633 1.04954,-4.02679 11.19361,-9.40253 8.82923,-1.97028 -0.98582,3.92743 -0.30746,15.09297 -6.07525,14.37661 z m 13.99248,-0.0362 c -2.06287,-1.05631 -6.54984,-3.0821 -6.14488,-6.23979 -1.21451,-4.61735 1.47065,-8.74118 5.37425,-11.10237 4.57169,-3.00935 10.93327,-3.34957 15.50358,-0.15229 3.26986,8.29571 -6.03087,19.13565 -14.73295,17.49445 z M 97.602357,124.87195 c 0.432421,-5.31769 5.273213,-9.56152 10.010953,-11.49733 3.38943,-0.98128 9.25688,-2.26251 11.60127,0.43239 2.15587,5.94165 -4.02826,11.19128 -9.5102,11.75402 -3.9838,0.53111 -8.26921,0.57696 -12.102023,-0.68908 z m -7.705039,-7.79581 c -6.968307,-1.7226 -4.954033,-10.5389 -3.05327,-15.42412 1.470574,-3.729771 6.463541,-13.777663 10.66558,-8.280871 2.976742,5.876955 4.553142,13.384921 0.419951,19.143561 -1.773167,2.43672 -4.686644,5.51442 -8.032261,4.56143 z m 21.208152,-9.71698 c -5.85604,0.64219 -10.46911,-4.74342 -7.75668,-10.307261 2.44841,-7.896204 12.44024,-13.601534 19.98226,-8.73607 3.11253,4.112367 2.0582,11.008067 -1.13354,15.019651 -2.70685,3.17986 -7.09625,4.11972 -11.09204,4.02368 z"
         inkscape:label="GreenLight"
         sodipodi:nodetypes="cccccccccccccscccccccsccsccccscsccscccccccccccccccccccccccccccccccccc" /><path
         id="path263"
         style="fill:#c7ecb4"
         d="m 88.313836,141.12129 c 3.160194,0.10799 5.922023,3.08238 3.349791,3.98266 -1.840148,0.64405 -2.891771,-0.83555 -2.891771,-0.83555 -1.434662,-0.35362 -3.276482,1.02685 -4.005453,-0.20303 -1.385535,-2.33762 1.459571,-3.01543 3.547433,-2.94408 z m 15.627364,22.75669 c 1.92504,-1.51491 3.55189,-1.44011 3.27318,3.56608 -0.17576,3.15715 -1.16341,-0.002 -2.60031,-0.21929 -1.10668,-0.16773 -1.60174,1.95772 -2.30011,1.39522 -1.30148,-1.04827 0.82856,-4.0388 1.62724,-4.74201 z m -10.853961,31.27536 c -1.903748,-1.54156 1.22023,-3.98634 6.163767,-4.82368 3.117634,-0.52807 4.815244,1.36282 3.182434,3.54475 l -0.35063,0.46855 h -2.782326 -2.782328 l -1.08955,0.56917 c -1.24718,0.6515 -1.768371,0.7052 -2.341367,0.24121 z m -6.88928,-13.14324 c -1.156763,-1.27821 -0.0049,-3.43212 3.315114,-6.19907 0.577919,-0.48165 1.141474,-1.09002 1.252345,-1.35194 0.715252,-1.68974 4.047565,-1.07804 4.107588,0.754 0.07218,2.20295 -0.350011,2.75206 -2.652892,3.45042 -1.482742,0.44964 -2.626254,1.21789 -3.417794,2.29619 -1.035395,1.41049 -1.94608,1.77779 -2.604361,1.0504 z m 51.225081,-18.68825 c -1.70989,-2.17378 1.55778,-5.04274 6.49176,-5.69966 2.3614,-0.3144 2.99467,0.13976 2.97921,2.13655 -0.0115,1.48428 -0.71135,1.92302 -3.06747,1.92302 -1.95461,0 -3.51024,0.47742 -4.58411,1.40684 -0.94087,0.81432 -1.32371,0.8634 -1.81939,0.23325 z m -18.14632,-7.67401 c -0.94303,-0.94303 -0.0147,-4.21786 2.04761,-7.22351 0.27769,-0.40472 0.66003,-1.09776 0.84963,-1.54008 0.79163,-1.8468 3.40836,-1.70384 4.04359,0.22092 0.4843,1.46744 -0.0861,2.68838 -1.69714,3.63249 -1.08904,0.63822 -2.23792,2.0218 -2.79352,3.36421 -0.82244,1.98713 -1.54997,2.44617 -2.45017,1.54597 z m -51.724266,-0.42795 c -0.816973,-0.81697 -0.604426,-1.73767 0.660608,-2.86156 0.296851,-0.26373 0.586846,-0.66724 0.644434,-0.89668 0.326367,-1.30036 5.989425,-2.92911 6.881756,-1.97926 1.522437,1.62056 0.689239,3.54317 -1.64914,3.80541 -1.750264,0.19629 -2.887661,0.58268 -3.827975,1.30044 -1.404925,1.0724 -2.105597,1.23574 -2.709683,0.63165 z m -10.087638,-9.15154 c -2.070071,-1.13224 0.918336,-9.17896 3.488042,-9.39206 2.692125,-0.22325 3.418297,3.66765 0.892944,4.78448 -1.281386,0.56669 -1.608282,0.97813 -2.126189,2.67608 -0.606829,1.98948 -1.207715,2.50421 -2.254797,1.9315 z m 75.420124,-3.93093 c -1.51712,-1.06264 0.2362,-4.68747 2.57147,-5.31629 2.93983,-0.79162 3.64381,2.1395 0.94144,3.91983 -0.65009,0.42828 -1.37183,0.98077 -1.60386,1.22776 -0.49222,0.52395 -1.29996,0.59532 -1.90905,0.1687 z m 12.59907,-1.27795 c -1.13029,-1.13029 -0.22846,-3.91904 1.73294,-5.35884 3.17722,-2.33229 7.4635,-3.11432 8.03792,-1.46651 0.77396,2.22017 -0.0881,3.22059 -2.89213,3.35626 -2.44161,0.11813 -3.88207,0.89129 -5.34174,2.86717 -0.74527,1.00884 -1.02178,1.11713 -1.53699,0.60192 z m -42.16094,-18.23956 c -2.90563,-1.09528 1.76448,-6.80856 5.63424,-6.89277 2.68451,-0.0584 2.30587,3.17559 -0.46127,3.93971 -1.49249,0.41214 -2.77984,1.17412 -3.43513,2.03325 -0.57695,0.75642 -1.24012,1.10743 -1.73784,0.91981 z M 88.104096,109.41429 c -0.973015,-0.97302 -0.04414,-4.51989 2.020069,-7.71356 0.373536,-0.57792 0.732382,-1.26771 0.797437,-1.53287 0.422529,-1.72224 3.358681,-2.004277 4.034207,-0.387517 0.690603,1.652847 0.224194,2.866757 -1.580919,4.114637 -1.504154,1.03982 -2.203669,1.99683 -2.898564,3.96556 -0.716576,2.03015 -1.429124,2.49685 -2.37223,1.55375 z m 25.089244,74.31043 c -0.63985,-2.36459 2.54208,-2.88397 7.0391,-0.66667 2.83605,1.39834 3.99444,3.9528 1.97482,3.49504 -2.01962,-0.45775 -3.15233,-1.49438 -5.54894,-1.92831 -1.39243,-0.20259 -3.2724,-0.18836 -3.46498,-0.90006 z m -5.73774,-83.20609 c 0.88833,-2.9706 2.77369,-4.376188 6.26505,-4.670768 2.20112,-0.185717 2.75663,-0.776393 2.41962,-2.572795 -0.22112,-1.178706 -0.79721,-1.535106 -2.27889,-1.409858 -4.71063,0.398194 -7.95642,3.149426 -7.96977,6.755415 -0.007,2.012236 1.1205,3.381066 1.56399,1.898006 z m -41.164243,31.46604 c 0.747489,-2.37493 1.74492,-2.54556 2.668216,-2.4382 1.343957,0.15627 1.337165,2.46582 0.414033,4.04833 -1.61013,2.76022 -3.717218,0.40731 -3.082249,-1.61013 z"
         inkscape:label="GreenHighlights"
         sodipodi:nodetypes="sscsscscscssscccsssssssssssssssssssssssssssssssssssssssssssssssssssssssssssscssssscsssss" /><path
         style="display:inline;fill:#77b255"
         d="m 99.2563,205.97501 c -5.26071,-0.72423 -14.394167,-4.28962 -13.428098,-10.46088 5.740465,-0.6275 9.302382,5.89609 15.131378,5.79374 4.78681,0.97162 9.64481,-2.32804 10.10849,-7.82406 0.20444,-2.42329 -3.73314,-3.18159 -6.18412,-5.00917 1.0453,-4.08176 7.1937,-3.48775 8.87687,-1.46029 3.78104,4.55444 10.78909,4.2549 15.45089,3.27211 -1.23407,6.30444 -11.87868,5.82268 -15.03035,4.3645 0.58122,7.8956 -8.65106,12.23621 -14.92506,11.32405 z M 86.909604,193.79117 c -4.892494,-2.2395 -4.940802,-10.98834 -3.020654,-14.0093 -0.171617,7.00003 8.648074,9.9255 12.411363,3.77853 2.270017,-2.57605 3.458824,-5.8651 3.00638,-9.25838 0.199897,-1.13152 -0.526647,-6.33 0.541074,-3.65193 0.07878,3.7225 3.161513,10.11927 7.246943,5.68179 2.94596,-3.59669 0.55069,-11.18901 1.46126,-13.21606 4.09649,5.69172 5.3507,14.06067 1.22391,20.02222 -3.26376,2.35057 -7.54052,3.03758 -8.71112,-0.98066 -0.84475,5.34107 -4.971583,8.18322 -9.203091,11.17806 -1.56223,0.62843 -3.307355,0.5467 -4.956065,0.45573 z M 141.52582,172.9003 c -3.94337,-0.41625 -11.81743,-4.78001 -8.84392,-8.88702 4.97966,3.55909 12.1367,5.57593 17.55103,1.70438 3.81678,-1.50596 4.95753,-6.88517 6.85368,-8.88917 6.45758,2.70756 2.21325,9.86172 -2.11583,12.27943 -3.77995,2.85917 -8.69245,4.52982 -13.44496,3.79238 z m -17.51271,-4.50787 c -3.93463,-0.0316 -5.93125,-8.65901 -5.3794,-9.37725 4.16424,5.43734 10.57968,0.44542 11.65159,-4.72902 1.23436,-3.26212 1.74592,-7.58446 0.10349,-10.65008 -1.22405,-1.81822 -2.47565,-3.55973 -0.69888,-2.65206 1.60254,-0.14294 3.5813,8.66211 7.5814,5.47418 3.41131,-3.26022 2.78884,-11.65008 4.35905,-13.5764 0.99986,3.61832 0.63161,8.05657 1.41886,11.40704 5.7861,3.28172 14.48322,3.36043 18.28343,-2.92647 2.62989,-1.87003 1.41081,-9.50397 2.96669,-9.27028 6.04188,5.94447 1.96893,16.40692 -4.99622,19.66825 -5.52839,2.89356 -13.91376,1.99785 -17.21091,-3.68824 -0.77341,4.45164 -5.45226,5.94682 -8.05322,7.88274 -0.35587,5.54378 -3.57108,12.60886 -10.02588,12.43759 z m -54.026708,-4.20069 c -3.192075,0.29666 -10.415547,-3.11201 -8.034175,-5.97872 5.516216,-0.11665 11.150619,2.84222 16.564823,0.18319 4.261066,-1.40683 7.365079,-5.94781 6.009732,-10.4282 3.451071,2.07886 7.376708,1.28951 9.846755,-2.3921 -0.224188,-5.02425 4.180422,-4.24935 6.191493,-0.69153 0.21116,5.17178 -6.299167,6.98029 -10.15674,8.80274 -3.389415,5.69703 -9.387415,10.19387 -16.215065,10.65113 -1.401412,0.11722 -2.817432,0.0733 -4.206823,-0.14651 z m -10.110913,-7.93642 c -2.728153,-1.08575 -7.861224,-9.32063 -2.367746,-5.5197 6.459421,1.20538 11.671967,-6.15962 9.698904,-12.14782 -0.633307,-2.36115 -2.143932,-8.43955 0.94444,-3.10091 1.457724,2.31056 2.844103,7.86235 4.314951,2.13941 1.410724,-3.96002 0.40852,-8.0255 -0.626049,-11.91269 -0.135271,-3.71113 4.41534,4.54375 4.617,6.17775 1.623768,5.31885 0.976022,13.21626 -5.171554,15.18142 -3.113176,3.28365 -4.449195,8.46721 -9.274556,9.37124 -0.228475,1.4599 -1.6027,0.1021 -2.13539,-0.1887 z m 46.739631,-26.79747 c -2.64687,-2.18117 -8.019088,0.95101 -8.844925,-3.39726 -0.256105,-3.54548 7.332685,-0.4939 9.997545,-1.43742 6.88563,0.43635 11.06735,-6.48174 11.81935,-11.57577 7.674,1.14645 3.31979,10.20594 -1.19281,12.59169 -3.28899,2.35619 -7.66589,4.51843 -11.77916,3.81876 z m -15.43834,-6.89386 c -4.052626,-1.22686 -5.736438,-7.17619 -5.787719,-10.1805 2.908723,6.87012 12.270138,2.46422 13.549221,-3.31979 1.978008,-5.4407 -1.977944,-10.680836 -1.742573,-16.15474 2.462609,5.40432 6.433911,10.67122 6.321371,16.84683 -0.55929,5.98932 -5.568036,13.74593 -12.3403,12.8082 z m 20.30084,-10.45978 c -3.85894,-0.47244 -8.32225,-4.94578 -7.96394,-8.03641 7.69668,5.73406 19.78951,0.0325 20.83562,-9.333648 0.61353,-2.643148 -1.74224,-8.594326 1.96342,-3.849579 7.11332,9.298887 -3.86219,24.185907 -14.8351,21.219637 z"
         id="path245"
         inkscape:label="GreenDark"
         sodipodi:nodetypes="cccscscccccccccccccccccccccccccccccccccccccccccccccccccccccccccccccccccccccc" /></g></g></svg>
