<?xml version="1.0" encoding="UTF-8" standalone="no"?>
<!-- Created with Inkscape (http://www.inkscape.org/) -->

<svg
   width="103.07523mm"
   height="100.00001mm"
   viewBox="0 0 103.07523 100.00001"
   version="1.1"
   id="svg1"
   xml:space="preserve"
   xmlns="http://www.w3.org/2000/svg"
   xmlns:svg="http://www.w3.org/2000/svg"><defs
     id="defs1" /><g
     id="layer1"
     transform="translate(-571.69496,-97.753292)"><g
       id="g3676"
       transform="matrix(0.48252894,0,0,0.48252894,344.95507,75.042849)"><path
         style="display:inline;fill:#f9fbfc"
         d="m 497.54897,253.6854 c 7.02018,-1.97515 10.75138,-8.93965 16.10938,-13.40844 10.83055,-11.27085 22.61248,-21.76197 32.29165,-34.05238 4.06538,-5.15132 -1.80927,-12.6706 4.49363,-16.11361 4.50525,-4.50294 9.0105,-9.00588 13.51575,-13.50882 6.06377,2.80783 11.16469,-3.10796 16.50677,1.63714 29.33357,13.12154 65.97987,3.6753 86.37651,-20.83391 17.02987,-19.00295 21.97975,-48.34192 9.80331,-71.165658 -7.43188,-14.143848 -17.47812,-27.873099 -32.29203,-34.907142 -8.35409,2.547209 -17.31695,-5.100981 -26.4126,-4.079713 -28.64624,-2.054117 -59.22508,12.878323 -71.29461,39.717558 -3.9557,1.420951 -5.0606,11.968352 -5.96515,17.341375 0.52665,6.62041 -3.58974,10.51658 -1.61709,17.20135 1.16202,10.70379 5.02769,21.00927 10.70682,30.12322 -1.46445,5.0224 2.44756,10.48684 -4.03977,13.4266 -4.98036,4.18147 -9.47099,10.05698 -14.76317,13.35274 -10.24699,-2.95732 -18.76468,3.83315 -25.04918,11.07321 -11.07625,11.19516 -23.40018,21.29408 -33.55746,33.32037 -9.12595,15.27351 8.86951,35.28968 25.18724,30.87611 z"
         id="path3686" /><path
         style="display:inline;fill:#b1d6e7"
         d="m 490.93438,254.21776 c -14.08189,-1.22891 -26.41939,-18.32309 -18.57265,-31.40847 11.76864,-13.62257 25.7477,-25.27596 38.48101,-38.0216 4.9047,-8.15414 15.25135,-5.49632 22.01406,-7.51164 5.77167,-5.74052 12.29498,-10.87277 17.38838,-17.19858 -2.31222,-3.59443 0.92807,-7.8133 -1.94265,-10.93677 -6.37376,-10.77764 -9.68083,-23.25257 -9.69156,-35.75822 3.76512,-5.16158 1.12418,-14.095263 4.34279,-20.329098 2.51489,-6.224679 6.64159,-10.432373 10.56926,-17.666419 19.22078,-25.538005 56.29435,-35.083336 85.79463,-23.262318 8.14911,-2.397121 15.09211,5.62377 21.08647,10.846555 15.53205,16.485284 26.77342,39.49783 22.0002,62.57284 -7.084,38.54902 -49.09468,65.49352 -87.15823,57.23647 -7.21319,-0.52428 -14.61208,-5.71391 -20.90982,-6.50725 -4.72446,3.24999 -11.14946,-2.41203 -14.16598,4.11603 -4.36491,4.36268 -8.72983,8.72535 -13.09474,13.08803 2.86301,8.65231 -2.77188,16.45986 -8.94909,21.90211 -11.9931,12.27463 -23.9393,24.75085 -36.34532,36.54962 -3.278,1.79868 -7.11979,2.62249 -10.84676,2.28871 z m 6.46469,-0.7957 c 6.95477,-1.65966 10.45646,-8.59146 15.67848,-12.86453 10.79163,-11.3648 22.54357,-21.93981 32.39559,-34.12242 4.31911,-5.42172 -1.83276,-13.50371 5.17636,-17.08983 4.38472,-4.37439 8.76943,-8.74877 13.15415,-13.12316 6.55875,2.74591 11.87419,-3.4412 17.69375,2.03481 12.55394,5.28693 26.5845,6.41206 39.98594,4.73917 32.60401,-4.56291 60.62636,-33.66469 60.96895,-67.08689 0.53672,-10.60134 -3.20429,-24.836703 -8.00557,-31.916718 11.67818,27.203208 -0.26315,60.220778 -23.94057,76.839148 -27.91573,21.32905 -71.32374,18.41539 -95.30788,-7.57161 -9.09574,-9.49154 -14.5858,-22.1737 -15.62259,-35.23328 -0.63242,12.0234 5.30664,23.34471 10.4869,33.84468 -3.51046,8.43818 8.32033,14.89314 7.17759,20.25814 -4.6008,4.85567 -9.33341,9.58466 -13.99652,14.38039 -7.87627,-8.91947 -23.67039,-12.06608 -31.82712,-1.78987 -12.69407,12.57635 -26.23398,24.37266 -38.24368,37.59312 -9.8527,15.12175 7.7209,35.58668 24.22622,31.10885 z m -16.30604,-25.48879 c -5.40087,-9.57415 11.87885,-16.11726 16.31982,-23.49755 8.48176,-7.00597 15.42937,-16.93228 25.23056,-21.73812 12.1309,5.6687 -8.09739,15.52718 -11.64947,21.54106 -8.85577,8.03326 -16.73294,17.31186 -26.49831,24.23847 -1.12828,0.63757 -2.45006,0.12797 -3.4026,-0.54386 z m 134.4601,-63.776 c 10.51775,-2.00768 -8.81944,0.86013 -12.2111,-1.38234 -22.18739,-3.95909 -43.15246,-21.2791 -45.45778,-44.65479 -3.49266,-25.26337 15.53426,-49.579846 39.74157,-55.484396 12.54011,-3.110992 26.51769,-3.320697 38.30023,2.568918 -8.97673,-0.807729 -18.54005,-0.453457 -26.54121,4.095339 -8.4009,-3.306053 -19.15668,1.640745 -26.16165,7.638528 -8.52391,6.676819 -17.4379,19.234236 -10.3989,29.928581 6.28657,4.45053 5.68465,1.01523 4.27341,7.94732 -1.58505,22.74773 17.71726,44.33491 40.61225,44.78142 5.59453,1.10485 11.98519,-2.5364 16.77133,-0.98575 23.29509,-10.17885 38.21649,-37.49747 31.71705,-62.476378 -7.85273,-32.181335 -46.4709,-50.323471 -77.00718,-39.483793 -25.1341,7.716418 -41.30115,34.547005 -39.62189,60.232131 1.30822,9.59019 5.63485,19.49658 12.27753,26.36953 7.20899,7.58158 15.70296,14.95116 26.08519,18.11195 8.87607,3.24348 18.28124,3.82646 27.62115,2.79373 z m -38.47652,-1.83195 c -2.62702,-7.91398 -16.73805,-11.67546 -20.16447,-21.54184 -0.73019,-4.92252 -10.29091,-12.2793 -6.34863,-2.4863 5.42339,10.09409 13.54798,19.79093 24.19147,24.47572 l 1.33826,0.049 z m -27.18241,-35.5385 c 0.43302,-5.2646 -2.45284,-11.44959 -1.52151,-17.19794 0.25869,-10.475467 3.0792,-20.980681 9.01559,-29.691846 -0.26476,-6.953021 -9.23145,6.546924 -9.49436,9.973148 -4.23741,11.670258 -6.34556,25.756828 -0.60234,37.244658 0.68851,0.98858 2.0972,0.64804 2.60262,-0.32802 z"
         id="path3681" /><path
         style="display:inline;fill:#aee073"
         d="m 614.49479,159.47723 c -23.14189,-2.31077 -40.84792,-26.13375 -36.87868,-48.90674 16.03154,0.68493 32.07143,-10.13215 37.78975,-25.135949 2.57446,-6.069561 0.37802,-13.741632 -6.40551,-15.830405 8.41386,-4.872481 19.15587,-5.846291 28.54389,-3.861043 19.35007,7.196282 32.92181,27.85278 29.93553,48.582487 -2.30914,19.02147 -15.36228,36.55494 -32.99865,44.0078 -6.35772,-0.88168 -13.25758,2.6616 -19.98633,1.14385 z m 24.13136,-68.388208 c 10.74744,-4.560465 3.12587,-22.42767 -7.33018,-20.461571 -5.02095,0.04978 -8.63315,5.472575 -7.54076,10.251793 1.17977,6.285091 8.12044,12.863766 14.87094,10.209778 z"
         id="path3680" /><path
         style="display:inline;fill:#6e93ad"
         d="m 499.66563,252.43779 c 10.49486,-7.48435 18.42098,-18.06888 27.82554,-26.85505 6.68409,-7.512 15.28325,-13.87055 19.57711,-23.1365 2.44939,-7.72534 -4.08525,-21.03772 -8.91708,-7.79299 -11.12535,16.41727 -25.11654,30.71488 -39.33473,44.44146 -7.75384,8.77322 -22.43988,7.51508 -26.62979,-4.0938 -3.965,-7.2025 1.1597,11.26251 5.4342,12.22699 2.87564,2.93844 11.76311,7.64434 3.3722,3.22815 -10.01727,-6.43709 -15.3513,-22.45107 -5.16916,-31.20643 13.20522,-13.0356 26.40315,-26.152 40.2223,-38.52057 8.92843,-5.49728 20.47313,-1.30326 27.19743,5.78088 5.05796,-5.50798 10.97552,-10.39439 15.32885,-16.42325 -10.95022,-6.49048 -6.45082,-20.3872 -13.86462,-29.30005 -2.78204,-4.44775 -6.50176,-21.86659 -4.85852,-21.07958 2.47272,30.59001 31.58245,53.18869 60.99993,55.13139 35.41613,3.69923 71.76335,-22.38341 77.30792,-57.99164 2.02883,-11.25946 0.19866,-22.866651 -3.79539,-33.469011 15.51839,26.521271 7.70239,62.560891 -15.47597,82.072651 -14.03601,12.30136 -32.89321,19.38405 -51.6112,18.13534 -11.29628,0.0944 -22.36753,-3.3514 -32.40545,-8.34783 -3.89207,5.0534 -11.0691,-2.24617 -14.01533,3.92697 -4.66565,4.65466 -9.3313,9.30932 -13.99695,13.96397 3.17278,9.19909 -3.36664,16.86451 -9.61172,22.74702 -12.41099,12.19957 -23.74654,25.68667 -37.23811,36.67224 l -1.00291,0.35116 0.66145,-0.46155 z m -13.9769,-24.53844 c 13.78502,-11.84457 26.55432,-24.95337 39.52933,-37.70436 6.55391,-8.41644 -8.47631,-9.10876 -11.00773,-1.61073 -11.35898,10.80665 -23.15422,21.27689 -33.72752,32.83468 -3.01119,3.77168 0.5914,9.41498 5.20592,6.48041 z m 116.50294,-63.36619 c -15.40406,-1.4679 -30.14332,-8.99722 -39.80166,-21.17771 -7.08553,-5.84915 -10.87175,-16.22794 -12.68165,-25.27264 -2.26172,-24.9167 12.5632,-51.310599 36.38138,-60.255174 25.30746,-10.41374 56.53453,-1.130584 72.38257,21.112646 4.01672,4.217792 8.91389,19.189881 3.27426,6.857991 -18.31087,-28.903322 -64.47743,-34.662557 -88.37284,-9.469835 -18.2136,17.48694 -21.67944,49.593332 -3.54761,68.399682 12.73623,13.23574 31.81568,20.84455 50.16601,18.56053 -5.76463,1.52209 -11.88817,1.24574 -17.80046,1.24451 z m -28.56719,-13.35983 c -3.15617,-7.54274 -11.1437,-12.66051 -13.30812,-21.09715 -9.38469,-23.0646 2.29965,-51.084647 24.0314,-62.458793 23.57128,-13.96537 55.83374,-7.931337 73.78318,12.440682 4.5777,2.532884 -5.72296,-8.919077 -9.0395,-10.341671 -6.81181,-5.110374 -17.01194,-11.190955 -23.65868,-11.818728 4.77937,1.231555 8.79119,3.434826 1.74455,1.205354 -14.62737,-4.669663 -30.87052,-3.438724 -44.32959,4.166791 -18.11805,9.544156 -31.47968,29.715322 -29.73097,50.549915 0.51624,14.6857 7.93119,29.26651 19.30932,38.52452 2.89971,3.82501 1.52713,-0.56519 1.19841,-1.17092 z"
         id="path3679" /><path
         style="display:inline;fill:#567a9a"
         d="m 572.42605,152.34425 c -12.99547,-10.56278 -20.52753,-27.74297 -19.30887,-44.47696 0.93052,-23.481679 20.17783,-43.885894 42.4537,-49.658083 12.06106,-3.985769 24.61966,-1.081653 36.44793,2.12557 -3.41349,-1.621859 -11.10125,-3.822777 -2.63381,-1.649229 11.15722,4.437063 21.98629,11.059438 29.5546,20.511753 1.88432,5.390592 -7.14632,-6.684498 -10.56573,-7.764715 -22.04196,-16.607322 -55.59018,-14.900576 -75.35818,4.561086 -18.2736,16.57036 -21.6179,47.378978 -5.4708,66.525858 1.63641,0.66921 10.81488,13.42604 4.88116,9.82472 z"
         id="path3678" /><path
         style="display:inline;fill:#596b72"
         d="m 490.49552,253.56153 c -9.996,-0.95183 -19.06523,-10.45865 -19.46878,-19.98023 3.85452,8.69927 14.79598,15.50883 23.7202,9.61854 14.84564,-13.23797 28.42255,-28.07951 40.55702,-43.86381 3.5895,-4.71578 8.80419,-17.66165 11.25525,-4.96011 3.33962,10.55361 -6.35629,17.96455 -12.70838,24.65272 -11.15468,11.07127 -21.57438,23.11015 -33.69346,33.06857 -2.96298,1.49224 -6.40299,1.78995 -9.66185,1.46432 z"
         id="path3677" /></g></g></svg>
