<?xml version="1.0" encoding="UTF-8" standalone="no"?>
<!-- Created with Inkscape (http://www.inkscape.org/) -->

<svg
   width="98.454666mm"
   height="100.00001mm"
   viewBox="0 0 98.454666 100.00001"
   version="1.1"
   id="svg1"
   xml:space="preserve"
   xmlns="http://www.w3.org/2000/svg"
   xmlns:svg="http://www.w3.org/2000/svg"><defs
     id="defs1" /><g
     id="layer1"
     transform="translate(-251.01903,-97.753292)"><g
       id="g3672"
       transform="matrix(0.52242645,0,0,0.52242645,127.30059,66.165224)"><rect
         style="fill:#e9eff3;fill-opacity:1;stroke:none;stroke-width:4.10001;stroke-linejoin:round;stroke-dasharray:12.3, 4.10001;stroke-dashoffset:263.22"
         id="rect3674"
         width="188"
         height="188"
         x="236.81505"
         y="60.464123"
         ry="35.980328"
         rx="35.980328" /><rect
         style="fill:#ffffff;fill-opacity:1;stroke:none;stroke-width:4.10001;stroke-linejoin:round;stroke-dasharray:12.3, 4.10001;stroke-dashoffset:263.22"
         id="rect3675"
         width="146.77328"
         height="145.21187"
         x="255.0316"
         y="82.844444"
         rx="18.804718"
         ry="18.804718" /><path
         style="fill:#9ec7e1"
         d="m 271.20832,229.19972 c -10.98772,-1.43932 -19.32196,-12.58171 -17.92337,-23.50778 -0.22349,-35.18651 -0.44796,-70.3796 -0.0492,-105.56406 1.11543,-11.364822 12.53651,-20.453995 23.81315,-19.128676 9.11727,0.125983 18.25345,-0.119525 27.35369,0.475554 1.33965,4.93184 0.27276,11.539401 6.19327,13.71227 7.21587,5.173822 18.46001,8.714412 19.21967,19.079462 1.2328,7.65898 -1.243,15.49831 -7.14571,20.66335 -12.18206,11.39863 -29.19984,15.45229 -45.30284,17.44583 -10.06252,2.46253 -14.72164,13.98253 -14.8435,23.48745 -0.33564,10.92674 5.05736,21.305 13.2759,28.30465 6.88466,6.8492 15.02761,14.20515 16.37403,24.29135 -6.92471,0.76272 -13.93892,1.4839 -20.96505,0.7406 z m 14.14069,-0.47769 c -3.85411,-12.39814 -12.96674,-22.48706 -23.02015,-30.42711 -3.23678,-1.86929 -10.2924,-12.28356 -9.0903,-2.83511 0.33422,5.4217 -0.36703,10.99718 0.50343,16.34103 2.10594,9.96949 11.45141,18.14901 21.89176,17.12252 3.23126,-0.001 6.50805,0.23386 9.71526,-0.20133 z m -8.74577,-87.72661 c 7.90695,-6.48227 -8.80131,-9.87309 -4.44314,-0.81194 0.98879,1.38133 3.02066,1.45495 4.44314,0.81194 z m 40.89738,-17.98935 c 7.91779,-5.02412 -6.1916,-13.20311 -6.37347,-3.62118 -0.12802,3.23828 3.70941,5.10819 6.37347,3.62118 z m -4.36625,106.20285 c -3.85008,-1.34447 -12.68323,2.54106 -13.30029,-2.61955 -2.25881,-15.58999 -17.27074,-24.01454 -25.50897,-36.15258 -6.59489,-8.43961 -5.51184,-20.95845 1.26358,-28.91021 7.54977,-3.72029 16.96686,-2.6386 24.85561,-6.26205 14.0888,-4.85287 29.702,-12.06524 35.74021,-26.69627 1.98877,-5.60199 2.44172,-11.90812 1.49809,-17.7074 -1.16254,-5.0128 -6.13413,-7.36467 -9.79861,-10.43495 -4.79572,-2.678851 -14.32,-9.648586 -13.58941,-11.937924 8.57725,6.046917 -9.30229,-7.046204 -2.24471,-7.498747 23.90411,-0.395017 47.8193,0.0435 71.72822,0.03258 7.68322,1.540422 15.89185,6.742522 17.24916,14.963951 -17.26737,10.68314 -26.19611,30.28927 -29.92328,49.57009 -4.85809,21.12008 -4.73898,44.31454 -16.91735,63.03543 -8.9819,13.69402 -25.3911,19.40253 -41.05225,20.61763 z m 56.77889,-100.44409 c -5.13392,14.614 -11.34594,30.82291 -26.11304,38.22992 -9.83662,5.32862 -21.32155,8.11987 -29.22439,16.53229 -5.49002,-5.76167 -16.61261,-2.52455 -17.40064,5.63881 -1.37117,9.38549 9.23458,10.70916 15.68008,10.27199 5.40989,2.08823 6.26123,7.01437 6.45865,11.91194 0.601,3.58699 5.71928,4.73248 4.86961,8.52797 0.13174,4.02181 -3.7622,10.56235 2.93532,8.74082 7.79475,-0.25114 16.60597,1.70971 23.03384,-4.00222 12.02461,-10.39017 16.73975,-26.46455 20.9811,-41.21497 4.57273,-18.70265 7.86362,-38.04382 6.76022,-57.35504 0.8534,-4.9239 -3.96274,-9.38887 -5.80362,-2.64096 -0.83856,1.73845 -1.53133,3.54216 -2.17713,5.35945 z m -66.18292,62.09047 c -5.38798,-3.05983 3.69316,-9.96849 5.87099,-4.6752 0.32412,3.11951 -2.795,5.84223 -5.87099,4.6752 z m 7.41346,32.09349 c 6.19833,-5.51507 -6.50453,-9.97181 -4.89337,-1.65331 0.51637,2.09639 3.20766,3.0081 4.89337,1.65331 z m -21.96465,-43.07573 c 7.0415,-4.02006 -5.08771,-10.70427 -4.74094,-2.63033 0.20096,1.99302 2.90712,3.7769 4.74094,2.63033 z m 54.64689,-21.82113 c 10.57757,-4.19032 -2.69937,-18.32092 -8.13506,-8.69818 -2.99789,5.04288 2.816,11.47107 8.13506,8.69818 z m 20.44148,-33.58095 c 7.10411,-5.12062 -6.52842,-11.14108 -5.31435,-2.23559 0.55508,2.1382 3.40421,3.52079 5.31435,2.23559 z m -15.9182,-23.29799 c -6.02568,-5.74581 7.98586,-10.647402 5.82832,-1.961344 -0.58289,2.462074 -3.89073,3.809514 -5.82832,1.961344 z m 3.79478,0.0589 c 6.93948,-5.270294 -6.44146,-10.048093 -4.56806,-1.71631 0.68337,1.76182 2.87442,2.85593 4.56806,1.71631 z m 28.08916,-5.942355 c 6.09551,-5.632372 -7.72199,-9.990789 -5.14312,-1.583585 0.82073,1.899487 3.39625,2.850751 5.14312,1.583585 z"
         id="path3674" /><path
         d="m 265.32687,251.59211 c -10.97968,-0.94952 -23.47315,-8.55764 -27.40351,-17.75553 5.40769,4.47244 12.34583,6.48072 19.26571,5.7416 41.77815,0 83.55631,0 125.33446,0 12.75411,-2.08717 22.94116,-12.73548 24.85423,-25.46379 1.40461,-3.25173 0.72155,-16.3429 1.80875,-14.28044 1.58797,6.57294 -1.60315,18.02589 2.5466,21.82484 4.90954,-6.21605 2.46647,-14.59899 3.07359,-21.93016 -0.10151,-37.25414 0.52226,-74.53407 -0.28479,-111.767755 -1.42928,-12.187828 -10.52502,-22.235624 -21.80242,-26.467537 4.98581,-1.373081 14.269,3.527228 18.75373,8.059885 8.90561,8.110512 14.82861,20.06653 13.64896,32.261077 -0.0804,38.38741 0.45993,76.78343 -0.20633,115.16398 -1.43304,20.10565 -21.12879,36.66747 -41.15337,34.74879 -39.47832,-0.0196 -78.95891,0.20827 -118.43561,-0.13496 z"
         style="fill:#b7c2c8;fill-opacity:1"
         id="path1" /><path
         style="fill:#6aa2c3"
         d="m 338.93125,228.71848 c -5.33576,-0.0451 -10.67153,-0.0903 -16.00729,-0.1354 0.4166,-3.64949 1.91547,-7.73689 1.03598,-11.28634 -2.81895,-2.40464 -5.66668,-5.66791 -5.0057,-9.61574 0.11681,-6.48018 -7.89599,-10.3752 -13.60727,-8.4674 -2.77866,0.53461 -9.3111,-5.58506 -4.05318,-1.58158 6.35942,4.04456 16.19637,-1.512 14.92113,-9.25548 -0.3844,-4.28038 -4.74555,-7.96724 -9.0332,-7.41845 -2.94448,-0.64863 -6.24725,1.9103 -7.70676,3.175 3.5578,-4.7344 11.01805,-4.56999 15.10134,-0.60605 7.8406,-8.26952 19.10367,-11.25623 28.96437,-16.25807 10.3824,-4.85001 16.39781,-15.18097 21.18501,-25.08064 5.89365,-12.70758 8.1771,-27.64955 18.32533,-37.97685 3.65669,-3.66748 11.13928,-7.008108 14.53584,-7.173035 -7.10933,3.634765 -14.18366,8.729535 -16.64105,16.727485 -5.03617,15.1637 -6.8744,32.15045 -17.71611,44.70329 -6.92061,8.35984 -17.01522,15.34817 -18.74482,26.82332 -1.59162,11.30352 6.00133,20.7534 11.44322,29.84134 2.66771,3.68473 4.37311,14.76264 -2.62763,13.73664 -4.78955,-0.0666 -9.57939,-0.1103 -14.36921,-0.15204 z m -6.02207,-11.46442 c 3.58659,-1.86267 6.48807,-5.94188 5.2972,-10.07785 -0.71582,-4.49362 -4.99518,-8.74102 -9.7262,-7.96187 -5.68666,-0.94364 -10.36614,5.51384 -8.9506,10.84807 0.77446,5.77841 7.45297,9.58522 12.75159,7.50002 0.20934,-0.10279 0.41867,-0.20558 0.62801,-0.30837 z"
         id="path3673" /><path
         style="fill:#69b855"
         d="m 269.97166,228.58489 c -10.47078,-2.09925 -17.62657,-13.0549 -16.63519,-23.45047 0.19544,-4.74396 -0.75332,-9.77763 0.45629,-14.29622 10.00246,9.03911 21.81933,17.11483 27.98198,29.60638 1.68229,3.29623 6.69283,10.3991 -0.88406,8.52567 -3.63868,-0.0289 -7.29978,0.0431 -10.91902,-0.38536 z m 94.99415,0.0859 c 2.73252,-7.80976 -1.01284,-15.66077 -5.49785,-21.97253 -4.92418,-7.27173 -10.61385,-16.91756 -5.63438,-25.61403 6.17498,-10.51242 16.99604,-17.52566 22.31276,-28.69401 6.28351,-11.12679 8.06166,-23.91086 11.39464,-36.03664 1.73361,-6.2313 10.9341,-13.91212 14.70471,-13.69648 0.26982,36.07013 0.34687,72.14855 -0.0924,108.21642 -1.73048,10.50403 -11.90515,19.13985 -22.70524,17.91464 -4.82281,0.0275 -9.67271,0.26863 -14.48223,-0.11737 z M 388.132,164.163 c 8.34967,-5.1491 -6.0503,-14.11162 -6.8217,-4.03941 0.033,3.24284 3.95249,5.60247 6.8217,4.03941 z m -62.2565,53.57125 c -8.07112,-2.56617 -8.789,-15.5207 -0.56421,-18.38365 3.76242,-0.41002 8.1805,-0.57427 10.6731,3.02654 3.12297,3.68351 3.51807,9.60139 -0.361,12.89808 -2.53261,2.9511 -6.20922,3.27398 -9.74789,2.45903 z M 304.53542,198.8176 c -9.44394,-1.18114 -9.14936,-15.70961 -0.33011,-17.76642 3.39621,-0.29599 7.176,-0.45921 9.64059,2.4908 6.6003,6.67266 -0.91887,17.07979 -9.31048,15.27562 z m 2.51354,-8.17317 c 3.52431,-0.7813 3.22587,-6.73381 -0.38816,-6.37909 -5.98844,-0.66322 -5.86443,9.24663 0.38816,6.37909 z m -52.43443,-50.72912 c -2.44386,-5.96417 -0.48259,-13.93557 -1.08013,-20.64741 0.18697,-6.85786 -0.24882,-13.80546 0.32213,-20.607997 2.06534,-10.054129 11.84718,-17.862875 22.10394,-17.242511 7.82698,-1.451755 10.80315,7.869458 16.274,11.696988 3.39108,3.680744 7.47232,6.865924 10.48623,10.81301 3.20911,5.57553 4.09845,12.70823 0.16674,18.23533 -5.41229,8.05674 -14.94736,11.71511 -23.76762,14.7355 -2.6832,-6.61115 -7.75375,-0.96246 -9.75724,1.86845 -4.83258,0.94899 -9.82998,1.38089 -14.74805,1.14864 z m 90.13755,-30.39011 c -11.68447,-2.37367 -18.44797,-13.245162 -27.20529,-20.313734 -2.84667,-2.521662 -11.50459,-9.481124 -2.47325,-7.78135 16.76623,0.02192 33.56675,-0.423768 50.3129,0.243041 -2.36048,9.166958 -1.52118,20.905753 -10.01173,27.037753 -3.21769,1.87901 -7.1314,1.59871 -10.62263,0.81429 z m 7.80521,-8.04431 c 3.26418,-1.554723 2.11073,-7.738968 -1.50102,-7.306171 -6.55005,-0.0575 -4.54717,10.466041 1.50102,7.306171 z"
         id="path3672" /><circle
         style="fill:#f3a955;fill-opacity:1;stroke:none;stroke-width:4.10001;stroke-linejoin:round;stroke-dasharray:12.3, 4.10001;stroke-dashoffset:263.22"
         id="path3675"
         cx="378.09763"
         cy="192.11153"
         r="13.98513" /><path
         d="m 380.58367,193.1357 c 6.84827,-2.63954 3.15122,-14.35269 -3.86733,-10.03165 -5.26517,1.53314 -5.46427,10.63175 0.48646,10.68111 1.14826,-0.0675 2.30872,-0.20343 3.38087,-0.64946 z"
         style="fill:#fdcf8f;fill-opacity:1"
         id="path1-1" /><path
         d="m 480.36527,114.46929 c 7.60321,-2.71496 2.36194,-15.607683 -5.01248,-10.44261 -6.66879,3.52491 -2.25198,14.01699 5.01248,10.44261 z"
         style="fill:#c5e9b7;fill-opacity:1"
         id="path1-3"
         transform="translate(-199.34102)" /><path
         style="fill:#df954e;fill-opacity:1;stroke:none;stroke-width:4.10001;stroke-linejoin:round;stroke-dasharray:12.3, 4.10001;stroke-dashoffset:263.22"
         d="m 368.23438,201.77244 c 12.9816,-0.89431 19.80812,-7.25981 20.29844,-19.25748 0,0 9.36852,12.49134 -1.30117,20.8189 -10.66969,8.32757 -18.99727,-1.56142 -18.99727,-1.56142 z"
         id="path3676" /></g></g></svg>
