<?xml version="1.0" encoding="UTF-8" standalone="no"?>
<!-- Created with Inkscape (http://www.inkscape.org/) -->

<svg
   width="90.799141mm"
   height="100.00001mm"
   viewBox="0 0 90.799141 100.00001"
   version="1.1"
   id="svg1"
   xml:space="preserve"
   xmlns="http://www.w3.org/2000/svg"
   xmlns:svg="http://www.w3.org/2000/svg"><defs
     id="defs1" /><g
     id="layer1"
     transform="translate(-415.18475,-97.753292)"><g
       id="g3687"
       transform="matrix(0.54551469,0,0,0.54551469,165.65497,65.310479)"><ellipse
         style="fill:#ffffff;fill-opacity:1;fill-rule:nonzero;stroke:none;stroke-width:2.84818;stroke-linecap:round;stroke-linejoin:round;stroke-dasharray:none;stroke-dashoffset:994.847;stroke-opacity:1"
         id="path3700"
         cx="766.89893"
         cy="737.56769"
         rx="10.731334"
         ry="15.641263"
         transform="rotate(-39.628272,-292.21562,811.0322)" /><rect
         style="fill:#dfedf9;fill-opacity:1;fill-rule:nonzero;stroke:none;stroke-width:4.10001;stroke-linecap:round;stroke-linejoin:round;stroke-dasharray:none;stroke-dashoffset:994.847;stroke-opacity:1"
         id="rect3700"
         width="57.780666"
         height="26.49814"
         x="1087.3813"
         y="226.46182"
         transform="rotate(-4.4506814,-292.21543,7519.883)" /><path
         id="path3698"
         style="fill:#a5db6f"
         d="m 483.87907,90.047423 c 4.10032,-1.549814 2.84501,-7.956027 -1.20373,-8.605197 -5.65773,-1.489155 -7.55549,7.715683 -1.96421,8.885201 1.04499,0.297142 2.18666,0.174698 3.16794,-0.280004 z m -11.61961,-8.250256 c 3.53199,-2.482466 6.83824,-5.914156 8.36369,-10.002215 0.26524,-5.217617 -6.53739,-5.101619 -9.38446,-2.349062 -3.48796,2.470418 -7.11557,7.939211 -3.77246,11.881056 1.25561,1.268593 3.2871,1.260014 4.79323,0.470221 z m -2.95326,53.089853 c -4.17183,-0.51488 -9.51463,-3.6512 -7.29549,-8.60048 1.88628,-4.68746 5.95377,-8.08752 9.18956,-11.86026 3.47898,-3.83172 7.41861,-7.23172 10.98416,-10.95574 -0.29226,-3.960984 -4.84104,-6.31352 -7.16164,-9.32849 -4.29742,-4.717326 -9.63455,-8.755409 -12.59553,-14.505045 -2.48243,-6.099837 0.79627,-14.014307 7.40915,-15.630795 4.93434,-1.52024 10.01309,0.928673 13.20352,4.686897 5.47719,4.990765 10.31485,10.729596 16.18786,15.254249 4.17759,0.571478 6.42709,-4.910021 9.56869,-6.988963 4.7368,-4.333755 8.79322,-9.661186 14.48104,-12.795092 4.04936,-1.175183 10.40221,-1.011308 12.15754,3.636721 1.08296,5.783516 -2.94942,10.919173 -6.14124,15.325693 -4.52654,5.28603 -9.27496,10.766455 -11.83172,17.293675 -0.38253,4.30206 1.21954,8.47726 4.08597,11.67352 3.94833,5.18323 9.60472,9.58009 11.25628,16.14648 1.26852,4.32961 -4.89308,8.63252 -6.36208,2.92331 -3.48209,-5.13446 -8.59799,-10.02578 -15.21698,-10.00107 -2.04715,-0.16622 -3.26783,-2.39717 -5.10364,-3.18217 -2.99106,-2.31852 -7.46979,-3.14202 -10.53345,-0.47986 -6.14002,4.75927 -9.61784,12.33355 -16.18227,16.58302 -3.10259,1.39858 -6.79543,1.29205 -10.09973,0.8044 z" /><path
         style="fill:#74bf54"
         d="m 469.43849,145.43007 c -6.10891,-1.41453 -10.54515,-6.78046 -11.86853,-12.75758 -0.17783,-4.41751 0.12427,-9.34671 3.33879,-12.76624 4.57046,-5.66581 10.32557,-10.26374 14.95731,-15.84894 1.40301,-4.393812 -4.37752,-6.805886 -6.6443,-9.919579 -3.9989,-4.380445 -9.04937,-8.265473 -11.20368,-13.961565 -2.02049,-7.39188 1.14663,-16.370957 8.5727,-19.397808 5.35114,-2.427355 11.79504,-1.28298 16.55442,1.873735 5.6963,5.605107 11.26437,11.34772 17.12069,16.784568 6.06969,-5.540195 11.6984,-11.595107 17.67545,-17.210803 5.70496,-3.611308 13.61111,-3.863158 18.99977,0.496117 7.23378,5.425042 8.17849,17.365312 1.67387,23.717221 -4.3692,5.168044 -9.66445,9.49469 -13.972,14.694374 -1.39459,4.52954 4.65484,6.94635 6.97874,10.17891 4.5289,4.93033 10.55306,9.68299 11.44258,16.74234 0.25789,4.09281 0.0598,8.94021 -5.09029,8.84809 -2.12805,0.20754 -4.39838,2.63857 -6.25777,2.27657 -0.3135,-1.39227 -3.70309,-3.96709 -2.29034,-4.95414 4.83108,-1.48291 3.78755,-7.42654 1.38679,-10.59248 -3.78304,-6.72809 -11.21599,-11.1939 -13.14042,-18.94075 -0.22385,-2.19835 -0.63958,-4.58104 0.75938,-6.4816 3.04151,-6.598497 8.33456,-11.651762 12.59027,-17.411946 2.56274,-3.927264 5.82304,-8.721843 4.18726,-13.601468 -2.39213,-4.219146 -8.69454,-4.354617 -12.69805,-2.668693 -6.16388,4.108154 -10.89603,9.97238 -16.30014,14.981527 -2.47631,2.847174 -6.5242,7.10361 -9.62137,2.35022 -6.07583,-5.495032 -11.43369,-11.817617 -17.90254,-16.851137 -6.09589,-3.557477 -14.93461,-0.228387 -16.61653,6.766317 -1.50058,4.972543 0.72261,10.126571 4.38205,13.52647 4.99556,5.635205 10.87246,10.487929 15.50777,16.42627 0.60812,4.10072 -5.53479,6.07216 -7.59524,9.31959 -4.74551,5.00105 -10.30002,9.88381 -12.55576,16.58874 -0.96983,2.44236 0.39201,4.81622 2.89374,5.62739 2.4492,1.16079 5.03525,2.16566 7.78783,1.84446 3.81833,0.36496 7.82129,-0.61907 10.31975,-3.71194 4.84606,-4.63752 8.19715,-10.8236 13.83612,-14.59394 4.44827,-2.73209 9.27383,0.79946 12.73176,3.52779 3.4497,1.93434 -3.98394,1.32028 -4.67226,3.58518 -1.59021,2.01581 -3.12791,2.74373 -4.93694,2.33886 -5.74673,5.62272 -11.36326,11.43345 -17.1906,16.93977 -4.03795,2.02393 -8.62952,3.45831 -13.14028,2.2361 z"
         id="path3688" /><path
         style="fill:#dfedf9;fill-opacity:1;fill-rule:nonzero;stroke:#717e8d;stroke-width:4.1;stroke-linecap:round;stroke-linejoin:round;stroke-dasharray:none;stroke-dashoffset:263.22;stroke-opacity:1"
         d="m 1115.6331,142.6988 c 0,0 14.5732,-15.35394 30.7079,7.80709 m -9.1083,-10.66969 c 6.7662,-11.19016 21.3394,-8.84803 31.4886,8.32757 m -7.0264,-8.5878 c 18.7371,-10.40946 23.1611,3.38307 32.2693,19.51772 9.1083,16.13465 4.1638,32.78978 9.889,42.41852 5.7252,9.62875 1.8217,17.1756 -15.6142,29.66694 -17.4358,12.49135 -33.8375,11.78032 -37.474,3.38307 -14.046,-2.15158 -33.6183,-8.2707 -52.5677,-27.84528 -12.1771,-12.57891 -17.6458,-24.04754 -14.3131,-30.96812 5.2507,-10.90315 19.6047,-1.04245 26.0237,8.84803 5.979,9.21234 8.0673,12.49134 8.0673,12.49134 0,0 -21.5996,-32.52954 -30.4476,-58.55317 -6.5588,-19.29052 13.272,-18.47678 19.2575,-9.36851 5.9854,9.10827 17.4358,26.28387 17.4358,26.28387"
         id="path3696"
         transform="translate(-584.43122)" /></g></g></svg>
