<?xml version="1.0" encoding="UTF-8" standalone="no"?>
<!-- Created with Inkscape (http://www.inkscape.org/) -->

<svg
   width="111.11608mm"
   height="99.967628mm"
   viewBox="0 0 111.11608 99.96763"
   version="1.1"
   id="svg1"
   xml:space="preserve"
   xmlns="http://www.w3.org/2000/svg"
   xmlns:svg="http://www.w3.org/2000/svg"><defs
     id="defs1" /><g
     id="layer1"
     transform="translate(-74.191924,-97.769473)"><g
       id="g3650"
       transform="matrix(0.48458424,0,0,0.48458424,-32.550008,72.597326)"><path
         style="fill:#ffffff;fill-opacity:1"
         d="m 308.64867,251.50105 c 11.20485,0.332 18.95739,-10.15115 29.62795,-10.82893 15.88476,-1.23507 33.01136,0.64531 47.4843,-7.24976 8.67956,-0.54218 16.27228,14.43266 25.40863,5.89305 7.76952,-8.52304 20.65314,-1.58285 29.50618,-8.32491 12.65755,-7.97778 -4.54436,-18.63504 -11.95873,-19.14047 -8.19942,4.46918 -16.74736,4.40877 -22.8639,-3.0899 -3.3145,-2.66364 -7.36236,-2.13617 -7.55711,-0.37423 -8.06002,-4.36209 -16.43442,2.53183 -21.48946,5.17138 -0.7584,1.1534 -9.93534,0.39285 -14.39848,-1.72292 -8.64045,8.09483 -18.29669,-1.0774 -26.62407,-5.48101 -13.31891,-5.77641 -29.25299,-0.43066 -40.08126,7.81481 -10.06908,4.30505 -4.41529,-6.65314 -6.22979,-10.97449 -7.65565,-10.15222 -22.59615,-15.31272 -34.91983,-11.03782 -10.94854,4.43793 -23.39108,15.20396 -21.57672,28.1739 4.76378,14.45147 22.04396,3.23264 29.66675,4.18898 6.14342,2.77113 14.59301,4.88378 10.01133,12.25213 4.38521,14.97231 23.03358,16.53305 35.99421,14.73019 z"
         id="path3654"
         transform="translate(1.2467733e-6)" /><path
         style="fill:#d2e1ec"
         d="m 302.42934,257.94951 c -13.4323,-1.09858 -30.01482,-7.03443 -32.93193,-21.94061 -8.35,-10.19313 -23.45192,-0.7948 -33.77236,-7.54989 -8.96401,-4.54778 -7.70606,-17.20868 -1.41698,-23.3761 5.71636,-3.46627 7.57516,-13.88305 -2.06574,-9.6158 -14.78143,1.61469 -16.31177,-19.34458 -2.11365,-21.11745 8.31564,-4.45749 18.38167,-10.39599 14.96885,-21.16222 -1.7303,-11.00943 0.0589,-21.48838 3.4439,-32.23055 12.33741,-43.755248 60.24304,-74.22015 105.11872,-65.267403 44.58564,7.401633 79.75953,51.167413 76.42583,96.417883 -0.51737,8.78161 -2.29081,17.46267 -4.94175,25.84127 8.62688,5.09908 23.67439,13.35735 11.68851,24.18249 -8.33713,9.23508 14.32308,9.95409 12.10111,21.50657 1.25453,14.07698 -13.8924,21.04202 -25.87962,21.08185 -10.69962,1.88066 -19.9721,8.42655 -31.02214,9.01672 -13.52136,2.23757 -27.0817,-1.25764 -39.23007,-7.08181 -9.28099,-1.79027 -15.81198,7.75446 -25.1083,8.64215 -8.16207,2.41116 -16.77194,3.51773 -25.26438,2.6529 z m 6.21933,-6.44846 c 11.20485,0.332 18.95739,-10.15115 29.62795,-10.82893 15.88476,-1.23507 33.01136,0.64531 47.4843,-7.24976 8.67956,-0.54218 16.27228,14.43266 25.40863,5.89305 7.76952,-8.52304 20.65314,-1.58285 29.50618,-8.32491 12.65755,-7.97778 -4.54436,-18.63504 -11.95873,-19.14047 -8.19942,4.46918 -16.74736,4.40877 -22.8639,-3.0899 -3.3145,-2.66364 -7.36236,-2.13617 -7.55711,-0.37423 -8.06002,-4.36209 -16.43442,2.53183 -21.48946,5.17138 -0.7584,1.1534 -9.93534,0.39285 -14.39848,-1.72292 -8.64045,8.09483 -18.29669,-1.0774 -26.62407,-5.48101 -13.31891,-5.77641 -29.25299,-0.43066 -40.08126,7.81481 -10.06908,4.30505 -4.41529,-6.65314 -6.22979,-10.97449 -7.65565,-10.15222 -22.59615,-15.31272 -34.91983,-11.03782 -10.94854,4.43793 -23.39108,15.20396 -21.57672,28.1739 4.76378,14.45147 22.04396,3.23264 29.66675,4.18898 6.14342,2.77113 14.59301,4.88378 10.01133,12.25213 4.38521,14.97231 23.03358,16.53305 35.99421,14.73019 z m 66.9075,-38.0435 c 5.83776,-13.54149 23.06299,-6.65584 32.16014,-6.92414 30.64862,-33.61908 28.4018,-90.10201 -2.79,-122.635439 C 379.09398,55.627604 334.8191,46.143186 300.03455,62.675048 c -28.37969,12.753209 -49.72059,40.495542 -53.85846,71.441992 6.08059,-9.46744 26.34023,-6.46083 19.62158,7.12589 -2.98667,9.90878 -17.61602,5.01784 -20.31999,7.49134 0.26732,13.14583 0.64551,31.04294 11.80842,39.38948 11.45912,-0.24347 26.16034,-0.50293 30.81259,12.63065 4.71612,12.08074 12.69625,-3.7723 20.95653,-2.18908 12.24418,-0.96585 24.76382,2.97831 35.17497,9.20878 8.63717,8.93112 20.1988,0.0201 29.9075,6.45542 z m -8.83309,-18.89558 c -11.16319,-7.57787 13.35266,-9.48893 2.27543,-0.0653 l -1.13017,0.20542 z m 2.80297,-0.76023 c 8.55393,-7.40723 -11.4186,-7.43519 -3.60501,-0.11739 l 1.78662,0.53644 z m -68.02276,-0.78967 c -12.64172,-0.75744 -24.86562,-7.45444 -29.69321,-19.55754 -0.88363,-7.09239 -9.63619,-14.62949 -8.74203,-19.15124 8.9748,-6.84369 8.53123,-21.95914 19.75372,-25.3454 8.75771,1.93067 18.86594,0.79037 25.20551,-6.35748 7.25786,-6.54589 8.91593,-21.66708 -1.50479,-25.932795 -12.75832,-3.323872 2.0388,-17.402125 8.85511,-19.262266 9.72626,-1.748564 23.69881,-0.617263 23.94131,-14.222667 5.2191,-8.770644 18.68409,-0.702301 26.75881,0.491122 7.06883,2.674666 21.45376,8.735561 21.90421,13.137559 -12.43586,3.580373 -6.28758,19.372589 -3.1924,27.714937 8.55685,12.14745 -5.82114,15.1636 -14.52591,17.58191 -9.05226,5.87658 0.61382,19.09614 -6.61441,26.87954 -8.36234,7.78638 -19.59974,11.75116 -28.13334,17.79361 -5.4005,10.54992 -18.47263,11.34288 -27.53793,14.56608 -2.97996,3.42161 -3.03195,8.60053 -6.47465,11.66463 z m -9.54441,-36.88966 c 15.20833,-6.99496 -8.68891,-25.23689 -11.32078,-8.60906 -0.34568,5.41433 5.83312,12.17662 11.32078,8.60906 z M 340.446,108.22188 c 7.64788,-8.490563 -15.13878,-1.38259 -1.93026,0.12519 0.64339,-0.0417 1.28693,-0.0836 1.93026,-0.12519 z m 11.74162,-7.00135 c 10.29228,-9.890575 -14.43129,-3.883439 0,0 z m 5.4107,-22.814568 c 12.55734,-7.091747 -7.56814,-19.844333 -13.00822,-8.237805 -2.90119,6.764448 8.06266,11.058076 13.00822,8.237805 z m 38.03192,44.434148 c -4.46349,-7.09703 6.20674,-24.407855 10.6989,-11.72959 -0.60435,4.28905 -8.0663,13.03618 -10.6989,11.72959 z m -165.75606,63.06543 c 8.4143,0.50239 11.77227,-13.25969 0.6959,-7.78895 -5.64143,1.90223 -13.09851,13.84315 -0.6959,7.78895 z m 26.19599,-41.05836 c 15.2257,-1.70764 1.91079,-21.63915 -6.42951,-9.90036 -6.92662,5.11735 -0.87496,12.82687 6.42951,9.90036 z m 179.05266,21.5627 c -10.91056,-8.06442 5.20688,-27.34669 14.31728,-16.34784 1.29513,7.32945 -6.82656,16.85353 -14.31728,16.34784 z M 230.62047,152.33724 c -8.17465,-6.70122 10.8756,-8.03759 2.99971,-0.31909 l -1.45657,0.59773 z M 225.2686,138.8568 c -10.48184,-11.30251 17.49797,-8.86238 1.64842,0.0803 z M 417.19656,74.862409 c -16.34327,-3.619862 9.22627,-24.010796 6.84047,-4.715912 -0.74182,2.9503 -3.70151,5.379626 -6.84047,4.715912 z M 249.8784,67.653405 c -17.10432,-6.398712 9.36588,-26.241019 11.00285,-7.993429 -0.0166,5.281146 -5.93571,9.753392 -11.00285,7.993429 z m 5.1678,-0.456165 c 14.46399,-4.917168 -4.40745,-24.404444 -10.20229,-10.092273 -2.23224,5.8407 4.19433,12.934701 10.20229,10.092273 z"
         id="path3653" /><path
         style="fill:#a7c8e2"
         d="m 349.76308,211.23198 c -13.01647,-9.22578 -29.87002,-15.07143 -45.7633,-11.88311 -6.45018,5.32006 -16.19614,10.09846 -17.32477,-2.2648 -3.06935,-5.93463 -16.32184,-8.03204 -17.09276,-9.66629 3.83832,-9.18926 -20.18139,-11.48102 -10.94737,0.17015 -8.10746,2.11721 -8.92681,-12.69164 -11.31861,-18.75629 -0.32051,-6.418 -5.45807,-20.53149 0.31658,-22.03715 1.20054,7.8983 5.61671,14.22316 13.90879,7.77921 3.96702,-2.06717 13.15871,-15.37209 6.46239,-5.77142 -12.58345,6.36005 0.90866,13.85407 3.03326,22.6699 4.17139,9.93889 12.25578,18.30643 23.097,20.48719 13.29162,5.6312 10.31521,-15.68971 23.83151,-13.46334 11.35999,-0.0719 15.57925,-12.52114 24.89014,-16.05909 6.60357,-5.52181 21.88867,-8.36947 23.45745,-20.26477 0.80453,-8.95641 -3.49231,-21.82186 10.27611,-21.81732 11.00542,-1.05536 13.09554,-11.24355 7.12706,-18.89163 -2.7973,-8.976951 -6.5428,-21.183107 4.61384,-25.010217 -5.63969,-7.521138 -17.10431,-10.652238 -26.10426,-14.022143 -31.67321,-9.622334 -68.32383,0.45348 -89.97007,25.702726 -10.66897,11.879674 -18.32273,26.582284 -21.29049,42.311834 -9.65666,6.93974 -0.0657,-13.54417 1.07404,-18.02672 15.3887,-39.125359 59.70232,-64.478339 101.23627,-56.596248 39.32204,6.491685 71.99464,40.957186 75.76666,80.743028 2.97859,25.51785 -4.78664,52.63648 -22.66161,71.39745 -10.13695,-2.41747 7.4136,-10.46551 7.17334,-16.40831 10.20835,-17.25393 14.38698,-38.17007 10.81843,-57.95958 -7.98053,-4.10606 -17.93893,-11.02717 -25.09626,-0.87268 -3.58709,7.6673 -18.65108,9.58061 -13.25169,21.01822 3.70005,12.61815 -17.2926,-1.93429 -22.53108,7.09185 -4.05972,7.23383 -7.95071,17.43194 -17.34807,10.52017 -15.13687,2.28289 -8.7168,27.09261 5.01405,26.70025 7.02566,-2.22829 10.28993,1.56556 8.67173,7.89814 3.46523,7.08151 -5.92337,7.3947 -10.06831,5.28099 z m -20.74366,-17.41712 c 9.17255,-7.01134 -11.84294,-9.89054 -4.28618,-0.43627 1.19035,0.92891 2.93555,1.18946 4.28618,0.43627 z m 68.74001,-71.10705 c 5.84721,-3.06156 13.84365,-17.73261 1.93685,-15.60626 -4.71287,0.84453 -7.14869,18.82288 -1.93685,15.60626 z m 0.67358,-18.6798 c 13.95799,-8.67002 -16.17542,-16.524048 -8.15877,-2.22437 1.43611,2.91718 5.43996,4.06089 8.15877,2.22437 z"
         id="path3652" /><path
         style="fill:#98cb51"
         d="m 371.88246,213.61295 c -9.39421,-0.68013 -15.00767,-5.69913 -12.96027,-15.22766 -13.17621,3.44755 -29.18499,-13.45497 -17.82803,-25.34418 6.38793,-5.26175 19.24285,7.04713 18.47056,-7.44978 4.13608,-12.41585 24.07916,-3.22246 27.47743,-9.51935 -7.89211,-13.94608 10.15503,-16.15975 15.16392,-26.08458 7.19555,-6.88291 16.97116,0.64638 20.76928,3.72799 -16.31306,0.34502 -8.00731,19.98616 -12.0877,29.59205 -6.52616,10.62236 -23.78254,9.82594 -27.02019,23.36616 0.51525,11.75448 -15.61085,15.38213 -12.71919,26.60825 6.39046,-0.40163 12.26657,-11.73756 20.97504,-8.94942 -8.71647,-2.69418 -14.04248,8.86223 -20.24062,9.28048 z m -2.09595,-19.47394 c 9.16666,-9.31981 -14.85522,-7.49267 -3.04384,0.41634 l 1.56931,0.13479 z m -44.67157,-0.45529 c -8.40211,-7.40693 12.40344,-9.2582 4.49853,-0.28238 -1.27029,0.94249 -3.12898,1.16856 -4.49853,0.28238 z m -74.94081,-37.12008 c -5.26914,-12.684 18.08389,-5.72684 16.85111,-19.08719 1.53097,-10.11888 -9.87983,-9.89881 -16.11726,-8.29123 8.10347,-38.000361 43.39414,-69.374934 82.78377,-70.359672 13.76537,-1.54838 1.52895,20.116446 -7.73654,16.656529 -11.95487,-0.93895 -23.02238,7.567931 -25.33808,18.77878 14.21699,2.104518 17.44321,22.321573 5.64449,30.180693 -7.87325,7.91024 -19.76599,2.39827 -27.9479,6.10916 -8.04666,8.64962 -9.46895,24.54547 -23.47003,26.61649 -1.56919,0.24079 -3.22298,0.0796 -4.66956,-0.60356 z m 35.85104,-0.0556 c -15.2055,-7.11458 8.31855,-25.556 10.79534,-8.2483 0.55517,5.47447 -5.86404,9.51945 -10.79534,8.2483 z m 63.74264,-78.138864 c -17.55091,-7.486702 16.32251,-21.197223 11.28824,-3.465374 -2.00103,4.016675 -7.42342,4.585262 -11.28824,3.465374 z M 250.0144,67.365398 c -16.09105,-5.696448 7.78066,-25.357415 10.52303,-8.296627 0.50742,5.319301 -5.46065,10.054323 -10.52303,8.296627 z"
         id="path3651" /><path
         style="fill:#60a244"
         d="m 371.8848,213.35758 c -5.95968,-10.6667 12.47629,-13.29188 11.18947,-24.41846 2.28879,-14.58619 19.35235,-14.35352 26.71745,-24.61668 7.48285,-9.40669 -5.52648,-28.56143 12.3059,-30.38059 7.472,10.5422 2.23183,27.0244 -0.53327,39.1823 -4.88778,11.09427 -10.51262,30.69982 -22.78576,32.01238 -10.33147,-4.85956 -20.89911,4.16706 -25.94448,8.58911 z M 267.63663,187.56503 c -11.067,4.33887 -14.54215,-11.97198 -1.78238,-7.19144 3.36647,0.37668 8.5784,9.71628 1.78238,7.19144 z m 125.46944,-83.22314 c -14.36545,-8.390256 12.00755,-17.562876 8.47387,-2.97548 -1.84457,2.44271 -5.4489,4.35135 -8.47387,2.97548 z"
         id="path3650" /></g></g></svg>
