<?xml version="1.0" encoding="UTF-8" standalone="no"?>
<!-- Created with Inkscape (http://www.inkscape.org/) -->

<svg
   width="938.69891mm"
   height="298.47211mm"
   viewBox="0 0 938.69891 298.47211"
   version="1.1"
   id="svg1"
   xml:space="preserve"
   inkscape:version="1.4.3 (0d15f75, 2025-12-25)"
   sodipodi:docname="BiomePack.svg"
   xmlns:inkscape="http://www.inkscape.org/namespaces/inkscape"
   xmlns:sodipodi="http://sodipodi.sourceforge.net/DTD/sodipodi-0.dtd"
   xmlns="http://www.w3.org/2000/svg"
   xmlns:svg="http://www.w3.org/2000/svg"><sodipodi:namedview
     id="namedview1"
     pagecolor="#ffffff"
     bordercolor="#000000"
     borderopacity="0.25"
     inkscape:showpageshadow="2"
     inkscape:pageopacity="0.0"
     inkscape:pagecheckerboard="0"
     inkscape:deskcolor="#d1d1d1"
     inkscape:document-units="mm"
     inkscape:zoom="0.25417602"
     inkscape:cx="1520.5998"
     inkscape:cy="485.88375"
     inkscape:window-width="1904"
     inkscape:window-height="993"
     inkscape:window-x="0"
     inkscape:window-y="0"
     inkscape:window-maximized="0"
     inkscape:current-layer="layer1" /><defs
     id="defs1" /><g
     inkscape:label="Layer 1"
     inkscape:groupmode="layer"
     id="layer1"
     transform="translate(0,1.472119)"><g
       id="g3650"
       transform="matrix(0.48458424,0,0,0.48458424,-32.550008,72.597326)"
       inkscape:export-filename="Biome.svg"
       inkscape:export-xdpi="96"
       inkscape:export-ydpi="96"><path
         style="fill:#ffffff;fill-opacity:1"
         d="m 308.64867,251.50105 c 11.20485,0.332 18.95739,-10.15115 29.62795,-10.82893 15.88476,-1.23507 33.01136,0.64531 47.4843,-7.24976 8.67956,-0.54218 16.27228,14.43266 25.40863,5.89305 7.76952,-8.52304 20.65314,-1.58285 29.50618,-8.32491 12.65755,-7.97778 -4.54436,-18.63504 -11.95873,-19.14047 -8.19942,4.46918 -16.74736,4.40877 -22.8639,-3.0899 -3.3145,-2.66364 -7.36236,-2.13617 -7.55711,-0.37423 -8.06002,-4.36209 -16.43442,2.53183 -21.48946,5.17138 -0.7584,1.1534 -9.93534,0.39285 -14.39848,-1.72292 -8.64045,8.09483 -18.29669,-1.0774 -26.62407,-5.48101 -13.31891,-5.77641 -29.25299,-0.43066 -40.08126,7.81481 -10.06908,4.30505 -4.41529,-6.65314 -6.22979,-10.97449 -7.65565,-10.15222 -22.59615,-15.31272 -34.91983,-11.03782 -10.94854,4.43793 -23.39108,15.20396 -21.57672,28.1739 4.76378,14.45147 22.04396,3.23264 29.66675,4.18898 6.14342,2.77113 14.59301,4.88378 10.01133,12.25213 4.38521,14.97231 23.03358,16.53305 35.99421,14.73019 z"
         id="path3654"
         transform="translate(1.2467733e-6)" /><path
         style="fill:#d2e1ec"
         d="m 302.42934,257.94951 c -13.4323,-1.09858 -30.01482,-7.03443 -32.93193,-21.94061 -8.35,-10.19313 -23.45192,-0.7948 -33.77236,-7.54989 -8.96401,-4.54778 -7.70606,-17.20868 -1.41698,-23.3761 5.71636,-3.46627 7.57516,-13.88305 -2.06574,-9.6158 -14.78143,1.61469 -16.31177,-19.34458 -2.11365,-21.11745 8.31564,-4.45749 18.38167,-10.39599 14.96885,-21.16222 -1.7303,-11.00943 0.0589,-21.48838 3.4439,-32.23055 12.33741,-43.755248 60.24304,-74.22015 105.11872,-65.267403 44.58564,7.401633 79.75953,51.167413 76.42583,96.417883 -0.51737,8.78161 -2.29081,17.46267 -4.94175,25.84127 8.62688,5.09908 23.67439,13.35735 11.68851,24.18249 -8.33713,9.23508 14.32308,9.95409 12.10111,21.50657 1.25453,14.07698 -13.8924,21.04202 -25.87962,21.08185 -10.69962,1.88066 -19.9721,8.42655 -31.02214,9.01672 -13.52136,2.23757 -27.0817,-1.25764 -39.23007,-7.08181 -9.28099,-1.79027 -15.81198,7.75446 -25.1083,8.64215 -8.16207,2.41116 -16.77194,3.51773 -25.26438,2.6529 z m 6.21933,-6.44846 c 11.20485,0.332 18.95739,-10.15115 29.62795,-10.82893 15.88476,-1.23507 33.01136,0.64531 47.4843,-7.24976 8.67956,-0.54218 16.27228,14.43266 25.40863,5.89305 7.76952,-8.52304 20.65314,-1.58285 29.50618,-8.32491 12.65755,-7.97778 -4.54436,-18.63504 -11.95873,-19.14047 -8.19942,4.46918 -16.74736,4.40877 -22.8639,-3.0899 -3.3145,-2.66364 -7.36236,-2.13617 -7.55711,-0.37423 -8.06002,-4.36209 -16.43442,2.53183 -21.48946,5.17138 -0.7584,1.1534 -9.93534,0.39285 -14.39848,-1.72292 -8.64045,8.09483 -18.29669,-1.0774 -26.62407,-5.48101 -13.31891,-5.77641 -29.25299,-0.43066 -40.08126,7.81481 -10.06908,4.30505 -4.41529,-6.65314 -6.22979,-10.97449 -7.65565,-10.15222 -22.59615,-15.31272 -34.91983,-11.03782 -10.94854,4.43793 -23.39108,15.20396 -21.57672,28.1739 4.76378,14.45147 22.04396,3.23264 29.66675,4.18898 6.14342,2.77113 14.59301,4.88378 10.01133,12.25213 4.38521,14.97231 23.03358,16.53305 35.99421,14.73019 z m 66.9075,-38.0435 c 5.83776,-13.54149 23.06299,-6.65584 32.16014,-6.92414 30.64862,-33.61908 28.4018,-90.10201 -2.79,-122.635439 C 379.09398,55.627604 334.8191,46.143186 300.03455,62.675048 c -28.37969,12.753209 -49.72059,40.495542 -53.85846,71.441992 6.08059,-9.46744 26.34023,-6.46083 19.62158,7.12589 -2.98667,9.90878 -17.61602,5.01784 -20.31999,7.49134 0.26732,13.14583 0.64551,31.04294 11.80842,39.38948 11.45912,-0.24347 26.16034,-0.50293 30.81259,12.63065 4.71612,12.08074 12.69625,-3.7723 20.95653,-2.18908 12.24418,-0.96585 24.76382,2.97831 35.17497,9.20878 8.63717,8.93112 20.1988,0.0201 29.9075,6.45542 z m -8.83309,-18.89558 c -11.16319,-7.57787 13.35266,-9.48893 2.27543,-0.0653 l -1.13017,0.20542 z m 2.80297,-0.76023 c 8.55393,-7.40723 -11.4186,-7.43519 -3.60501,-0.11739 l 1.78662,0.53644 z m -68.02276,-0.78967 c -12.64172,-0.75744 -24.86562,-7.45444 -29.69321,-19.55754 -0.88363,-7.09239 -9.63619,-14.62949 -8.74203,-19.15124 8.9748,-6.84369 8.53123,-21.95914 19.75372,-25.3454 8.75771,1.93067 18.86594,0.79037 25.20551,-6.35748 7.25786,-6.54589 8.91593,-21.66708 -1.50479,-25.932795 -12.75832,-3.323872 2.0388,-17.402125 8.85511,-19.262266 9.72626,-1.748564 23.69881,-0.617263 23.94131,-14.222667 5.2191,-8.770644 18.68409,-0.702301 26.75881,0.491122 7.06883,2.674666 21.45376,8.735561 21.90421,13.137559 -12.43586,3.580373 -6.28758,19.372589 -3.1924,27.714937 8.55685,12.14745 -5.82114,15.1636 -14.52591,17.58191 -9.05226,5.87658 0.61382,19.09614 -6.61441,26.87954 -8.36234,7.78638 -19.59974,11.75116 -28.13334,17.79361 -5.4005,10.54992 -18.47263,11.34288 -27.53793,14.56608 -2.97996,3.42161 -3.03195,8.60053 -6.47465,11.66463 z m -9.54441,-36.88966 c 15.20833,-6.99496 -8.68891,-25.23689 -11.32078,-8.60906 -0.34568,5.41433 5.83312,12.17662 11.32078,8.60906 z M 340.446,108.22188 c 7.64788,-8.490563 -15.13878,-1.38259 -1.93026,0.12519 0.64339,-0.0417 1.28693,-0.0836 1.93026,-0.12519 z m 11.74162,-7.00135 c 10.29228,-9.890575 -14.43129,-3.883439 0,0 z m 5.4107,-22.814568 c 12.55734,-7.091747 -7.56814,-19.844333 -13.00822,-8.237805 -2.90119,6.764448 8.06266,11.058076 13.00822,8.237805 z m 38.03192,44.434148 c -4.46349,-7.09703 6.20674,-24.407855 10.6989,-11.72959 -0.60435,4.28905 -8.0663,13.03618 -10.6989,11.72959 z m -165.75606,63.06543 c 8.4143,0.50239 11.77227,-13.25969 0.6959,-7.78895 -5.64143,1.90223 -13.09851,13.84315 -0.6959,7.78895 z m 26.19599,-41.05836 c 15.2257,-1.70764 1.91079,-21.63915 -6.42951,-9.90036 -6.92662,5.11735 -0.87496,12.82687 6.42951,9.90036 z m 179.05266,21.5627 c -10.91056,-8.06442 5.20688,-27.34669 14.31728,-16.34784 1.29513,7.32945 -6.82656,16.85353 -14.31728,16.34784 z M 230.62047,152.33724 c -8.17465,-6.70122 10.8756,-8.03759 2.99971,-0.31909 l -1.45657,0.59773 z M 225.2686,138.8568 c -10.48184,-11.30251 17.49797,-8.86238 1.64842,0.0803 z M 417.19656,74.862409 c -16.34327,-3.619862 9.22627,-24.010796 6.84047,-4.715912 -0.74182,2.9503 -3.70151,5.379626 -6.84047,4.715912 z M 249.8784,67.653405 c -17.10432,-6.398712 9.36588,-26.241019 11.00285,-7.993429 -0.0166,5.281146 -5.93571,9.753392 -11.00285,7.993429 z m 5.1678,-0.456165 c 14.46399,-4.917168 -4.40745,-24.404444 -10.20229,-10.092273 -2.23224,5.8407 4.19433,12.934701 10.20229,10.092273 z"
         id="path3653" /><path
         style="fill:#a7c8e2"
         d="m 349.76308,211.23198 c -13.01647,-9.22578 -29.87002,-15.07143 -45.7633,-11.88311 -6.45018,5.32006 -16.19614,10.09846 -17.32477,-2.2648 -3.06935,-5.93463 -16.32184,-8.03204 -17.09276,-9.66629 3.83832,-9.18926 -20.18139,-11.48102 -10.94737,0.17015 -8.10746,2.11721 -8.92681,-12.69164 -11.31861,-18.75629 -0.32051,-6.418 -5.45807,-20.53149 0.31658,-22.03715 1.20054,7.8983 5.61671,14.22316 13.90879,7.77921 3.96702,-2.06717 13.15871,-15.37209 6.46239,-5.77142 -12.58345,6.36005 0.90866,13.85407 3.03326,22.6699 4.17139,9.93889 12.25578,18.30643 23.097,20.48719 13.29162,5.6312 10.31521,-15.68971 23.83151,-13.46334 11.35999,-0.0719 15.57925,-12.52114 24.89014,-16.05909 6.60357,-5.52181 21.88867,-8.36947 23.45745,-20.26477 0.80453,-8.95641 -3.49231,-21.82186 10.27611,-21.81732 11.00542,-1.05536 13.09554,-11.24355 7.12706,-18.89163 -2.7973,-8.976951 -6.5428,-21.183107 4.61384,-25.010217 -5.63969,-7.521138 -17.10431,-10.652238 -26.10426,-14.022143 -31.67321,-9.622334 -68.32383,0.45348 -89.97007,25.702726 -10.66897,11.879674 -18.32273,26.582284 -21.29049,42.311834 -9.65666,6.93974 -0.0657,-13.54417 1.07404,-18.02672 15.3887,-39.125359 59.70232,-64.478339 101.23627,-56.596248 39.32204,6.491685 71.99464,40.957186 75.76666,80.743028 2.97859,25.51785 -4.78664,52.63648 -22.66161,71.39745 -10.13695,-2.41747 7.4136,-10.46551 7.17334,-16.40831 10.20835,-17.25393 14.38698,-38.17007 10.81843,-57.95958 -7.98053,-4.10606 -17.93893,-11.02717 -25.09626,-0.87268 -3.58709,7.6673 -18.65108,9.58061 -13.25169,21.01822 3.70005,12.61815 -17.2926,-1.93429 -22.53108,7.09185 -4.05972,7.23383 -7.95071,17.43194 -17.34807,10.52017 -15.13687,2.28289 -8.7168,27.09261 5.01405,26.70025 7.02566,-2.22829 10.28993,1.56556 8.67173,7.89814 3.46523,7.08151 -5.92337,7.3947 -10.06831,5.28099 z m -20.74366,-17.41712 c 9.17255,-7.01134 -11.84294,-9.89054 -4.28618,-0.43627 1.19035,0.92891 2.93555,1.18946 4.28618,0.43627 z m 68.74001,-71.10705 c 5.84721,-3.06156 13.84365,-17.73261 1.93685,-15.60626 -4.71287,0.84453 -7.14869,18.82288 -1.93685,15.60626 z m 0.67358,-18.6798 c 13.95799,-8.67002 -16.17542,-16.524048 -8.15877,-2.22437 1.43611,2.91718 5.43996,4.06089 8.15877,2.22437 z"
         id="path3652" /><path
         style="fill:#98cb51"
         d="m 371.88246,213.61295 c -9.39421,-0.68013 -15.00767,-5.69913 -12.96027,-15.22766 -13.17621,3.44755 -29.18499,-13.45497 -17.82803,-25.34418 6.38793,-5.26175 19.24285,7.04713 18.47056,-7.44978 4.13608,-12.41585 24.07916,-3.22246 27.47743,-9.51935 -7.89211,-13.94608 10.15503,-16.15975 15.16392,-26.08458 7.19555,-6.88291 16.97116,0.64638 20.76928,3.72799 -16.31306,0.34502 -8.00731,19.98616 -12.0877,29.59205 -6.52616,10.62236 -23.78254,9.82594 -27.02019,23.36616 0.51525,11.75448 -15.61085,15.38213 -12.71919,26.60825 6.39046,-0.40163 12.26657,-11.73756 20.97504,-8.94942 -8.71647,-2.69418 -14.04248,8.86223 -20.24062,9.28048 z m -2.09595,-19.47394 c 9.16666,-9.31981 -14.85522,-7.49267 -3.04384,0.41634 l 1.56931,0.13479 z m -44.67157,-0.45529 c -8.40211,-7.40693 12.40344,-9.2582 4.49853,-0.28238 -1.27029,0.94249 -3.12898,1.16856 -4.49853,0.28238 z m -74.94081,-37.12008 c -5.26914,-12.684 18.08389,-5.72684 16.85111,-19.08719 1.53097,-10.11888 -9.87983,-9.89881 -16.11726,-8.29123 8.10347,-38.000361 43.39414,-69.374934 82.78377,-70.359672 13.76537,-1.54838 1.52895,20.116446 -7.73654,16.656529 -11.95487,-0.93895 -23.02238,7.567931 -25.33808,18.77878 14.21699,2.104518 17.44321,22.321573 5.64449,30.180693 -7.87325,7.91024 -19.76599,2.39827 -27.9479,6.10916 -8.04666,8.64962 -9.46895,24.54547 -23.47003,26.61649 -1.56919,0.24079 -3.22298,0.0796 -4.66956,-0.60356 z m 35.85104,-0.0556 c -15.2055,-7.11458 8.31855,-25.556 10.79534,-8.2483 0.55517,5.47447 -5.86404,9.51945 -10.79534,8.2483 z m 63.74264,-78.138864 c -17.55091,-7.486702 16.32251,-21.197223 11.28824,-3.465374 -2.00103,4.016675 -7.42342,4.585262 -11.28824,3.465374 z M 250.0144,67.365398 c -16.09105,-5.696448 7.78066,-25.357415 10.52303,-8.296627 0.50742,5.319301 -5.46065,10.054323 -10.52303,8.296627 z"
         id="path3651" /><path
         style="fill:#60a244"
         d="m 371.8848,213.35758 c -5.95968,-10.6667 12.47629,-13.29188 11.18947,-24.41846 2.28879,-14.58619 19.35235,-14.35352 26.71745,-24.61668 7.48285,-9.40669 -5.52648,-28.56143 12.3059,-30.38059 7.472,10.5422 2.23183,27.0244 -0.53327,39.1823 -4.88778,11.09427 -10.51262,30.69982 -22.78576,32.01238 -10.33147,-4.85956 -20.89911,4.16706 -25.94448,8.58911 z M 267.63663,187.56503 c -11.067,4.33887 -14.54215,-11.97198 -1.78238,-7.19144 3.36647,0.37668 8.5784,9.71628 1.78238,7.19144 z m 125.46944,-83.22314 c -14.36545,-8.390256 12.00755,-17.562876 8.47387,-2.97548 -1.84457,2.44271 -5.4489,4.35135 -8.47387,2.97548 z"
         id="path3650" /></g><g
       id="g3672"
       transform="matrix(0.52242645,0,0,0.52242645,127.30059,66.165224)"
       inkscape:export-filename="BiomeAssign.svg"
       inkscape:export-xdpi="96"
       inkscape:export-ydpi="96"><rect
         style="fill:#e9eff3;fill-opacity:1;stroke:none;stroke-width:4.10001;stroke-linejoin:round;stroke-dasharray:12.3, 4.10001;stroke-dashoffset:263.22"
         id="rect3674"
         width="188"
         height="188"
         x="236.81505"
         y="60.464123"
         ry="35.980328"
         rx="35.980328" /><rect
         style="fill:#ffffff;fill-opacity:1;stroke:none;stroke-width:4.10001;stroke-linejoin:round;stroke-dasharray:12.3, 4.10001;stroke-dashoffset:263.22"
         id="rect3675"
         width="146.77328"
         height="145.21187"
         x="255.0316"
         y="82.844444"
         rx="18.804718"
         ry="18.804718" /><path
         style="fill:#9ec7e1"
         d="m 271.20832,229.19972 c -10.98772,-1.43932 -19.32196,-12.58171 -17.92337,-23.50778 -0.22349,-35.18651 -0.44796,-70.3796 -0.0492,-105.56406 1.11543,-11.364822 12.53651,-20.453995 23.81315,-19.128676 9.11727,0.125983 18.25345,-0.119525 27.35369,0.475554 1.33965,4.93184 0.27276,11.539401 6.19327,13.71227 7.21587,5.173822 18.46001,8.714412 19.21967,19.079462 1.2328,7.65898 -1.243,15.49831 -7.14571,20.66335 -12.18206,11.39863 -29.19984,15.45229 -45.30284,17.44583 -10.06252,2.46253 -14.72164,13.98253 -14.8435,23.48745 -0.33564,10.92674 5.05736,21.305 13.2759,28.30465 6.88466,6.8492 15.02761,14.20515 16.37403,24.29135 -6.92471,0.76272 -13.93892,1.4839 -20.96505,0.7406 z m 14.14069,-0.47769 c -3.85411,-12.39814 -12.96674,-22.48706 -23.02015,-30.42711 -3.23678,-1.86929 -10.2924,-12.28356 -9.0903,-2.83511 0.33422,5.4217 -0.36703,10.99718 0.50343,16.34103 2.10594,9.96949 11.45141,18.14901 21.89176,17.12252 3.23126,-0.001 6.50805,0.23386 9.71526,-0.20133 z m -8.74577,-87.72661 c 7.90695,-6.48227 -8.80131,-9.87309 -4.44314,-0.81194 0.98879,1.38133 3.02066,1.45495 4.44314,0.81194 z m 40.89738,-17.98935 c 7.91779,-5.02412 -6.1916,-13.20311 -6.37347,-3.62118 -0.12802,3.23828 3.70941,5.10819 6.37347,3.62118 z m -4.36625,106.20285 c -3.85008,-1.34447 -12.68323,2.54106 -13.30029,-2.61955 -2.25881,-15.58999 -17.27074,-24.01454 -25.50897,-36.15258 -6.59489,-8.43961 -5.51184,-20.95845 1.26358,-28.91021 7.54977,-3.72029 16.96686,-2.6386 24.85561,-6.26205 14.0888,-4.85287 29.702,-12.06524 35.74021,-26.69627 1.98877,-5.60199 2.44172,-11.90812 1.49809,-17.7074 -1.16254,-5.0128 -6.13413,-7.36467 -9.79861,-10.43495 -4.79572,-2.678851 -14.32,-9.648586 -13.58941,-11.937924 8.57725,6.046917 -9.30229,-7.046204 -2.24471,-7.498747 23.90411,-0.395017 47.8193,0.0435 71.72822,0.03258 7.68322,1.540422 15.89185,6.742522 17.24916,14.963951 -17.26737,10.68314 -26.19611,30.28927 -29.92328,49.57009 -4.85809,21.12008 -4.73898,44.31454 -16.91735,63.03543 -8.9819,13.69402 -25.3911,19.40253 -41.05225,20.61763 z m 56.77889,-100.44409 c -5.13392,14.614 -11.34594,30.82291 -26.11304,38.22992 -9.83662,5.32862 -21.32155,8.11987 -29.22439,16.53229 -5.49002,-5.76167 -16.61261,-2.52455 -17.40064,5.63881 -1.37117,9.38549 9.23458,10.70916 15.68008,10.27199 5.40989,2.08823 6.26123,7.01437 6.45865,11.91194 0.601,3.58699 5.71928,4.73248 4.86961,8.52797 0.13174,4.02181 -3.7622,10.56235 2.93532,8.74082 7.79475,-0.25114 16.60597,1.70971 23.03384,-4.00222 12.02461,-10.39017 16.73975,-26.46455 20.9811,-41.21497 4.57273,-18.70265 7.86362,-38.04382 6.76022,-57.35504 0.8534,-4.9239 -3.96274,-9.38887 -5.80362,-2.64096 -0.83856,1.73845 -1.53133,3.54216 -2.17713,5.35945 z m -66.18292,62.09047 c -5.38798,-3.05983 3.69316,-9.96849 5.87099,-4.6752 0.32412,3.11951 -2.795,5.84223 -5.87099,4.6752 z m 7.41346,32.09349 c 6.19833,-5.51507 -6.50453,-9.97181 -4.89337,-1.65331 0.51637,2.09639 3.20766,3.0081 4.89337,1.65331 z m -21.96465,-43.07573 c 7.0415,-4.02006 -5.08771,-10.70427 -4.74094,-2.63033 0.20096,1.99302 2.90712,3.7769 4.74094,2.63033 z m 54.64689,-21.82113 c 10.57757,-4.19032 -2.69937,-18.32092 -8.13506,-8.69818 -2.99789,5.04288 2.816,11.47107 8.13506,8.69818 z m 20.44148,-33.58095 c 7.10411,-5.12062 -6.52842,-11.14108 -5.31435,-2.23559 0.55508,2.1382 3.40421,3.52079 5.31435,2.23559 z m -15.9182,-23.29799 c -6.02568,-5.74581 7.98586,-10.647402 5.82832,-1.961344 -0.58289,2.462074 -3.89073,3.809514 -5.82832,1.961344 z m 3.79478,0.0589 c 6.93948,-5.270294 -6.44146,-10.048093 -4.56806,-1.71631 0.68337,1.76182 2.87442,2.85593 4.56806,1.71631 z m 28.08916,-5.942355 c 6.09551,-5.632372 -7.72199,-9.990789 -5.14312,-1.583585 0.82073,1.899487 3.39625,2.850751 5.14312,1.583585 z"
         id="path3674"
         sodipodi:nodetypes="scccccccccccssccccccccccccscccccccccccccsccccccccccccccccccccccccccccccccccccc" /><path
         d="m 265.32687,251.59211 c -10.97968,-0.94952 -23.47315,-8.55764 -27.40351,-17.75553 5.40769,4.47244 12.34583,6.48072 19.26571,5.7416 41.77815,0 83.55631,0 125.33446,0 12.75411,-2.08717 22.94116,-12.73548 24.85423,-25.46379 1.40461,-3.25173 0.72155,-16.3429 1.80875,-14.28044 1.58797,6.57294 -1.60315,18.02589 2.5466,21.82484 4.90954,-6.21605 2.46647,-14.59899 3.07359,-21.93016 -0.10151,-37.25414 0.52226,-74.53407 -0.28479,-111.767755 -1.42928,-12.187828 -10.52502,-22.235624 -21.80242,-26.467537 4.98581,-1.373081 14.269,3.527228 18.75373,8.059885 8.90561,8.110512 14.82861,20.06653 13.64896,32.261077 -0.0804,38.38741 0.45993,76.78343 -0.20633,115.16398 -1.43304,20.10565 -21.12879,36.66747 -41.15337,34.74879 -39.47832,-0.0196 -78.95891,0.20827 -118.43561,-0.13496 z"
         style="fill:#b7c2c8;fill-opacity:1"
         id="path1" /><path
         style="fill:#6aa2c3"
         d="m 338.93125,228.71848 c -5.33576,-0.0451 -10.67153,-0.0903 -16.00729,-0.1354 0.4166,-3.64949 1.91547,-7.73689 1.03598,-11.28634 -2.81895,-2.40464 -5.66668,-5.66791 -5.0057,-9.61574 0.11681,-6.48018 -7.89599,-10.3752 -13.60727,-8.4674 -2.77866,0.53461 -9.3111,-5.58506 -4.05318,-1.58158 6.35942,4.04456 16.19637,-1.512 14.92113,-9.25548 -0.3844,-4.28038 -4.74555,-7.96724 -9.0332,-7.41845 -2.94448,-0.64863 -6.24725,1.9103 -7.70676,3.175 3.5578,-4.7344 11.01805,-4.56999 15.10134,-0.60605 7.8406,-8.26952 19.10367,-11.25623 28.96437,-16.25807 10.3824,-4.85001 16.39781,-15.18097 21.18501,-25.08064 5.89365,-12.70758 8.1771,-27.64955 18.32533,-37.97685 3.65669,-3.66748 11.13928,-7.008108 14.53584,-7.173035 -7.10933,3.634765 -14.18366,8.729535 -16.64105,16.727485 -5.03617,15.1637 -6.8744,32.15045 -17.71611,44.70329 -6.92061,8.35984 -17.01522,15.34817 -18.74482,26.82332 -1.59162,11.30352 6.00133,20.7534 11.44322,29.84134 2.66771,3.68473 4.37311,14.76264 -2.62763,13.73664 -4.78955,-0.0666 -9.57939,-0.1103 -14.36921,-0.15204 z m -6.02207,-11.46442 c 3.58659,-1.86267 6.48807,-5.94188 5.2972,-10.07785 -0.71582,-4.49362 -4.99518,-8.74102 -9.7262,-7.96187 -5.68666,-0.94364 -10.36614,5.51384 -8.9506,10.84807 0.77446,5.77841 7.45297,9.58522 12.75159,7.50002 0.20934,-0.10279 0.41867,-0.20558 0.62801,-0.30837 z"
         id="path3673" /><path
         style="fill:#69b855"
         d="m 269.97166,228.58489 c -10.47078,-2.09925 -17.62657,-13.0549 -16.63519,-23.45047 0.19544,-4.74396 -0.75332,-9.77763 0.45629,-14.29622 10.00246,9.03911 21.81933,17.11483 27.98198,29.60638 1.68229,3.29623 6.69283,10.3991 -0.88406,8.52567 -3.63868,-0.0289 -7.29978,0.0431 -10.91902,-0.38536 z m 94.99415,0.0859 c 2.73252,-7.80976 -1.01284,-15.66077 -5.49785,-21.97253 -4.92418,-7.27173 -10.61385,-16.91756 -5.63438,-25.61403 6.17498,-10.51242 16.99604,-17.52566 22.31276,-28.69401 6.28351,-11.12679 8.06166,-23.91086 11.39464,-36.03664 1.73361,-6.2313 10.9341,-13.91212 14.70471,-13.69648 0.26982,36.07013 0.34687,72.14855 -0.0924,108.21642 -1.73048,10.50403 -11.90515,19.13985 -22.70524,17.91464 -4.82281,0.0275 -9.67271,0.26863 -14.48223,-0.11737 z M 388.132,164.163 c 8.34967,-5.1491 -6.0503,-14.11162 -6.8217,-4.03941 0.033,3.24284 3.95249,5.60247 6.8217,4.03941 z m -62.2565,53.57125 c -8.07112,-2.56617 -8.789,-15.5207 -0.56421,-18.38365 3.76242,-0.41002 8.1805,-0.57427 10.6731,3.02654 3.12297,3.68351 3.51807,9.60139 -0.361,12.89808 -2.53261,2.9511 -6.20922,3.27398 -9.74789,2.45903 z M 304.53542,198.8176 c -9.44394,-1.18114 -9.14936,-15.70961 -0.33011,-17.76642 3.39621,-0.29599 7.176,-0.45921 9.64059,2.4908 6.6003,6.67266 -0.91887,17.07979 -9.31048,15.27562 z m 2.51354,-8.17317 c 3.52431,-0.7813 3.22587,-6.73381 -0.38816,-6.37909 -5.98844,-0.66322 -5.86443,9.24663 0.38816,6.37909 z m -52.43443,-50.72912 c -2.44386,-5.96417 -0.48259,-13.93557 -1.08013,-20.64741 0.18697,-6.85786 -0.24882,-13.80546 0.32213,-20.607997 2.06534,-10.054129 11.84718,-17.862875 22.10394,-17.242511 7.82698,-1.451755 10.80315,7.869458 16.274,11.696988 3.39108,3.680744 7.47232,6.865924 10.48623,10.81301 3.20911,5.57553 4.09845,12.70823 0.16674,18.23533 -5.41229,8.05674 -14.94736,11.71511 -23.76762,14.7355 -2.6832,-6.61115 -7.75375,-0.96246 -9.75724,1.86845 -4.83258,0.94899 -9.82998,1.38089 -14.74805,1.14864 z m 90.13755,-30.39011 c -11.68447,-2.37367 -18.44797,-13.245162 -27.20529,-20.313734 -2.84667,-2.521662 -11.50459,-9.481124 -2.47325,-7.78135 16.76623,0.02192 33.56675,-0.423768 50.3129,0.243041 -2.36048,9.166958 -1.52118,20.905753 -10.01173,27.037753 -3.21769,1.87901 -7.1314,1.59871 -10.62263,0.81429 z m 7.80521,-8.04431 c 3.26418,-1.554723 2.11073,-7.738968 -1.50102,-7.306171 -6.55005,-0.0575 -4.54717,10.466041 1.50102,7.306171 z"
         id="path3672"
         sodipodi:nodetypes="ccccccscccccccsscccccccccccccccccccccccccccccccccc" /><circle
         style="fill:#f3a955;fill-opacity:1;stroke:none;stroke-width:4.10001;stroke-linejoin:round;stroke-dasharray:12.3, 4.10001;stroke-dashoffset:263.22"
         id="path3675"
         cx="378.09763"
         cy="192.11153"
         r="13.98513" /><path
         d="m 380.58367,193.1357 c 6.84827,-2.63954 3.15122,-14.35269 -3.86733,-10.03165 -5.26517,1.53314 -5.46427,10.63175 0.48646,10.68111 1.14826,-0.0675 2.30872,-0.20343 3.38087,-0.64946 z"
         style="fill:#fdcf8f;fill-opacity:1"
         id="path1-1" /><path
         d="m 480.36527,114.46929 c 7.60321,-2.71496 2.36194,-15.607683 -5.01248,-10.44261 -6.66879,3.52491 -2.25198,14.01699 5.01248,10.44261 z"
         style="fill:#c5e9b7;fill-opacity:1"
         id="path1-3"
         transform="translate(-199.34102)" /><path
         style="fill:#df954e;fill-opacity:1;stroke:none;stroke-width:4.10001;stroke-linejoin:round;stroke-dasharray:12.3, 4.10001;stroke-dashoffset:263.22"
         d="m 368.23438,201.77244 c 12.9816,-0.89431 19.80812,-7.25981 20.29844,-19.25748 0,0 9.36852,12.49134 -1.30117,20.8189 -10.66969,8.32757 -18.99727,-1.56142 -18.99727,-1.56142 z"
         id="path3676"
         sodipodi:nodetypes="ccsc" /></g><g
       id="g3676"
       transform="matrix(0.48252894,0,0,0.48252894,344.95507,75.042849)"
       inkscape:export-filename="BiomeInspect.svg"
       inkscape:export-xdpi="96"
       inkscape:export-ydpi="96"><path
         style="display:inline;fill:#f9fbfc"
         d="m 497.54897,253.6854 c 7.02018,-1.97515 10.75138,-8.93965 16.10938,-13.40844 10.83055,-11.27085 22.61248,-21.76197 32.29165,-34.05238 4.06538,-5.15132 -1.80927,-12.6706 4.49363,-16.11361 4.50525,-4.50294 9.0105,-9.00588 13.51575,-13.50882 6.06377,2.80783 11.16469,-3.10796 16.50677,1.63714 29.33357,13.12154 65.97987,3.6753 86.37651,-20.83391 17.02987,-19.00295 21.97975,-48.34192 9.80331,-71.165658 -7.43188,-14.143848 -17.47812,-27.873099 -32.29203,-34.907142 -8.35409,2.547209 -17.31695,-5.100981 -26.4126,-4.079713 -28.64624,-2.054117 -59.22508,12.878323 -71.29461,39.717558 -3.9557,1.420951 -5.0606,11.968352 -5.96515,17.341375 0.52665,6.62041 -3.58974,10.51658 -1.61709,17.20135 1.16202,10.70379 5.02769,21.00927 10.70682,30.12322 -1.46445,5.0224 2.44756,10.48684 -4.03977,13.4266 -4.98036,4.18147 -9.47099,10.05698 -14.76317,13.35274 -10.24699,-2.95732 -18.76468,3.83315 -25.04918,11.07321 -11.07625,11.19516 -23.40018,21.29408 -33.55746,33.32037 -9.12595,15.27351 8.86951,35.28968 25.18724,30.87611 z"
         id="path3686" /><path
         style="display:inline;fill:#b1d6e7"
         d="m 490.93438,254.21776 c -14.08189,-1.22891 -26.41939,-18.32309 -18.57265,-31.40847 11.76864,-13.62257 25.7477,-25.27596 38.48101,-38.0216 4.9047,-8.15414 15.25135,-5.49632 22.01406,-7.51164 5.77167,-5.74052 12.29498,-10.87277 17.38838,-17.19858 -2.31222,-3.59443 0.92807,-7.8133 -1.94265,-10.93677 -6.37376,-10.77764 -9.68083,-23.25257 -9.69156,-35.75822 3.76512,-5.16158 1.12418,-14.095263 4.34279,-20.329098 2.51489,-6.224679 6.64159,-10.432373 10.56926,-17.666419 19.22078,-25.538005 56.29435,-35.083336 85.79463,-23.262318 8.14911,-2.397121 15.09211,5.62377 21.08647,10.846555 15.53205,16.485284 26.77342,39.49783 22.0002,62.57284 -7.084,38.54902 -49.09468,65.49352 -87.15823,57.23647 -7.21319,-0.52428 -14.61208,-5.71391 -20.90982,-6.50725 -4.72446,3.24999 -11.14946,-2.41203 -14.16598,4.11603 -4.36491,4.36268 -8.72983,8.72535 -13.09474,13.08803 2.86301,8.65231 -2.77188,16.45986 -8.94909,21.90211 -11.9931,12.27463 -23.9393,24.75085 -36.34532,36.54962 -3.278,1.79868 -7.11979,2.62249 -10.84676,2.28871 z m 6.46469,-0.7957 c 6.95477,-1.65966 10.45646,-8.59146 15.67848,-12.86453 10.79163,-11.3648 22.54357,-21.93981 32.39559,-34.12242 4.31911,-5.42172 -1.83276,-13.50371 5.17636,-17.08983 4.38472,-4.37439 8.76943,-8.74877 13.15415,-13.12316 6.55875,2.74591 11.87419,-3.4412 17.69375,2.03481 12.55394,5.28693 26.5845,6.41206 39.98594,4.73917 32.60401,-4.56291 60.62636,-33.66469 60.96895,-67.08689 0.53672,-10.60134 -3.20429,-24.836703 -8.00557,-31.916718 11.67818,27.203208 -0.26315,60.220778 -23.94057,76.839148 -27.91573,21.32905 -71.32374,18.41539 -95.30788,-7.57161 -9.09574,-9.49154 -14.5858,-22.1737 -15.62259,-35.23328 -0.63242,12.0234 5.30664,23.34471 10.4869,33.84468 -3.51046,8.43818 8.32033,14.89314 7.17759,20.25814 -4.6008,4.85567 -9.33341,9.58466 -13.99652,14.38039 -7.87627,-8.91947 -23.67039,-12.06608 -31.82712,-1.78987 -12.69407,12.57635 -26.23398,24.37266 -38.24368,37.59312 -9.8527,15.12175 7.7209,35.58668 24.22622,31.10885 z m -16.30604,-25.48879 c -5.40087,-9.57415 11.87885,-16.11726 16.31982,-23.49755 8.48176,-7.00597 15.42937,-16.93228 25.23056,-21.73812 12.1309,5.6687 -8.09739,15.52718 -11.64947,21.54106 -8.85577,8.03326 -16.73294,17.31186 -26.49831,24.23847 -1.12828,0.63757 -2.45006,0.12797 -3.4026,-0.54386 z m 134.4601,-63.776 c 10.51775,-2.00768 -8.81944,0.86013 -12.2111,-1.38234 -22.18739,-3.95909 -43.15246,-21.2791 -45.45778,-44.65479 -3.49266,-25.26337 15.53426,-49.579846 39.74157,-55.484396 12.54011,-3.110992 26.51769,-3.320697 38.30023,2.568918 -8.97673,-0.807729 -18.54005,-0.453457 -26.54121,4.095339 -8.4009,-3.306053 -19.15668,1.640745 -26.16165,7.638528 -8.52391,6.676819 -17.4379,19.234236 -10.3989,29.928581 6.28657,4.45053 5.68465,1.01523 4.27341,7.94732 -1.58505,22.74773 17.71726,44.33491 40.61225,44.78142 5.59453,1.10485 11.98519,-2.5364 16.77133,-0.98575 23.29509,-10.17885 38.21649,-37.49747 31.71705,-62.476378 -7.85273,-32.181335 -46.4709,-50.323471 -77.00718,-39.483793 -25.1341,7.716418 -41.30115,34.547005 -39.62189,60.232131 1.30822,9.59019 5.63485,19.49658 12.27753,26.36953 7.20899,7.58158 15.70296,14.95116 26.08519,18.11195 8.87607,3.24348 18.28124,3.82646 27.62115,2.79373 z m -38.47652,-1.83195 c -2.62702,-7.91398 -16.73805,-11.67546 -20.16447,-21.54184 -0.73019,-4.92252 -10.29091,-12.2793 -6.34863,-2.4863 5.42339,10.09409 13.54798,19.79093 24.19147,24.47572 l 1.33826,0.049 z m -27.18241,-35.5385 c 0.43302,-5.2646 -2.45284,-11.44959 -1.52151,-17.19794 0.25869,-10.475467 3.0792,-20.980681 9.01559,-29.691846 -0.26476,-6.953021 -9.23145,6.546924 -9.49436,9.973148 -4.23741,11.670258 -6.34556,25.756828 -0.60234,37.244658 0.68851,0.98858 2.0972,0.64804 2.60262,-0.32802 z"
         id="path3681" /><path
         style="display:inline;fill:#aee073"
         d="m 614.49479,159.47723 c -23.14189,-2.31077 -40.84792,-26.13375 -36.87868,-48.90674 16.03154,0.68493 32.07143,-10.13215 37.78975,-25.135949 2.57446,-6.069561 0.37802,-13.741632 -6.40551,-15.830405 8.41386,-4.872481 19.15587,-5.846291 28.54389,-3.861043 19.35007,7.196282 32.92181,27.85278 29.93553,48.582487 -2.30914,19.02147 -15.36228,36.55494 -32.99865,44.0078 -6.35772,-0.88168 -13.25758,2.6616 -19.98633,1.14385 z m 24.13136,-68.388208 c 10.74744,-4.560465 3.12587,-22.42767 -7.33018,-20.461571 -5.02095,0.04978 -8.63315,5.472575 -7.54076,10.251793 1.17977,6.285091 8.12044,12.863766 14.87094,10.209778 z"
         id="path3680" /><path
         style="display:inline;fill:#6e93ad"
         d="m 499.66563,252.43779 c 10.49486,-7.48435 18.42098,-18.06888 27.82554,-26.85505 6.68409,-7.512 15.28325,-13.87055 19.57711,-23.1365 2.44939,-7.72534 -4.08525,-21.03772 -8.91708,-7.79299 -11.12535,16.41727 -25.11654,30.71488 -39.33473,44.44146 -7.75384,8.77322 -22.43988,7.51508 -26.62979,-4.0938 -3.965,-7.2025 1.1597,11.26251 5.4342,12.22699 2.87564,2.93844 11.76311,7.64434 3.3722,3.22815 -10.01727,-6.43709 -15.3513,-22.45107 -5.16916,-31.20643 13.20522,-13.0356 26.40315,-26.152 40.2223,-38.52057 8.92843,-5.49728 20.47313,-1.30326 27.19743,5.78088 5.05796,-5.50798 10.97552,-10.39439 15.32885,-16.42325 -10.95022,-6.49048 -6.45082,-20.3872 -13.86462,-29.30005 -2.78204,-4.44775 -6.50176,-21.86659 -4.85852,-21.07958 2.47272,30.59001 31.58245,53.18869 60.99993,55.13139 35.41613,3.69923 71.76335,-22.38341 77.30792,-57.99164 2.02883,-11.25946 0.19866,-22.866651 -3.79539,-33.469011 15.51839,26.521271 7.70239,62.560891 -15.47597,82.072651 -14.03601,12.30136 -32.89321,19.38405 -51.6112,18.13534 -11.29628,0.0944 -22.36753,-3.3514 -32.40545,-8.34783 -3.89207,5.0534 -11.0691,-2.24617 -14.01533,3.92697 -4.66565,4.65466 -9.3313,9.30932 -13.99695,13.96397 3.17278,9.19909 -3.36664,16.86451 -9.61172,22.74702 -12.41099,12.19957 -23.74654,25.68667 -37.23811,36.67224 l -1.00291,0.35116 0.66145,-0.46155 z m -13.9769,-24.53844 c 13.78502,-11.84457 26.55432,-24.95337 39.52933,-37.70436 6.55391,-8.41644 -8.47631,-9.10876 -11.00773,-1.61073 -11.35898,10.80665 -23.15422,21.27689 -33.72752,32.83468 -3.01119,3.77168 0.5914,9.41498 5.20592,6.48041 z m 116.50294,-63.36619 c -15.40406,-1.4679 -30.14332,-8.99722 -39.80166,-21.17771 -7.08553,-5.84915 -10.87175,-16.22794 -12.68165,-25.27264 -2.26172,-24.9167 12.5632,-51.310599 36.38138,-60.255174 25.30746,-10.41374 56.53453,-1.130584 72.38257,21.112646 4.01672,4.217792 8.91389,19.189881 3.27426,6.857991 -18.31087,-28.903322 -64.47743,-34.662557 -88.37284,-9.469835 -18.2136,17.48694 -21.67944,49.593332 -3.54761,68.399682 12.73623,13.23574 31.81568,20.84455 50.16601,18.56053 -5.76463,1.52209 -11.88817,1.24574 -17.80046,1.24451 z m -28.56719,-13.35983 c -3.15617,-7.54274 -11.1437,-12.66051 -13.30812,-21.09715 -9.38469,-23.0646 2.29965,-51.084647 24.0314,-62.458793 23.57128,-13.96537 55.83374,-7.931337 73.78318,12.440682 4.5777,2.532884 -5.72296,-8.919077 -9.0395,-10.341671 -6.81181,-5.110374 -17.01194,-11.190955 -23.65868,-11.818728 4.77937,1.231555 8.79119,3.434826 1.74455,1.205354 -14.62737,-4.669663 -30.87052,-3.438724 -44.32959,4.166791 -18.11805,9.544156 -31.47968,29.715322 -29.73097,50.549915 0.51624,14.6857 7.93119,29.26651 19.30932,38.52452 2.89971,3.82501 1.52713,-0.56519 1.19841,-1.17092 z"
         id="path3679" /><path
         style="display:inline;fill:#567a9a"
         d="m 572.42605,152.34425 c -12.99547,-10.56278 -20.52753,-27.74297 -19.30887,-44.47696 0.93052,-23.481679 20.17783,-43.885894 42.4537,-49.658083 12.06106,-3.985769 24.61966,-1.081653 36.44793,2.12557 -3.41349,-1.621859 -11.10125,-3.822777 -2.63381,-1.649229 11.15722,4.437063 21.98629,11.059438 29.5546,20.511753 1.88432,5.390592 -7.14632,-6.684498 -10.56573,-7.764715 -22.04196,-16.607322 -55.59018,-14.900576 -75.35818,4.561086 -18.2736,16.57036 -21.6179,47.378978 -5.4708,66.525858 1.63641,0.66921 10.81488,13.42604 4.88116,9.82472 z"
         id="path3678" /><path
         style="display:inline;fill:#596b72"
         d="m 490.49552,253.56153 c -9.996,-0.95183 -19.06523,-10.45865 -19.46878,-19.98023 3.85452,8.69927 14.79598,15.50883 23.7202,9.61854 14.84564,-13.23797 28.42255,-28.07951 40.55702,-43.86381 3.5895,-4.71578 8.80419,-17.66165 11.25525,-4.96011 3.33962,10.55361 -6.35629,17.96455 -12.70838,24.65272 -11.15468,11.07127 -21.57438,23.11015 -33.69346,33.06857 -2.96298,1.49224 -6.40299,1.78995 -9.66185,1.46432 z"
         id="path3677" /></g><g
       id="g3687"
       transform="matrix(0.54551469,0,0,0.54551469,165.65497,65.310479)"
       inkscape:export-filename="BiomeClear.svg"
       inkscape:export-xdpi="96"
       inkscape:export-ydpi="96"><ellipse
         style="fill:#ffffff;fill-opacity:1;fill-rule:nonzero;stroke:none;stroke-width:2.84818;stroke-linecap:round;stroke-linejoin:round;stroke-dasharray:none;stroke-dashoffset:994.847;stroke-opacity:1"
         id="path3700"
         cx="766.89893"
         cy="737.56769"
         rx="10.731334"
         ry="15.641263"
         transform="rotate(-39.628272,-292.21562,811.0322)" /><rect
         style="fill:#dfedf9;fill-opacity:1;fill-rule:nonzero;stroke:none;stroke-width:4.10001;stroke-linecap:round;stroke-linejoin:round;stroke-dasharray:none;stroke-dashoffset:994.847;stroke-opacity:1"
         id="rect3700"
         width="57.780666"
         height="26.49814"
         x="1087.3813"
         y="226.46182"
         transform="rotate(-4.4506814,-292.21543,7519.883)" /><path
         id="path3698"
         style="fill:#a5db6f"
         d="m 483.87907,90.047423 c 4.10032,-1.549814 2.84501,-7.956027 -1.20373,-8.605197 -5.65773,-1.489155 -7.55549,7.715683 -1.96421,8.885201 1.04499,0.297142 2.18666,0.174698 3.16794,-0.280004 z m -11.61961,-8.250256 c 3.53199,-2.482466 6.83824,-5.914156 8.36369,-10.002215 0.26524,-5.217617 -6.53739,-5.101619 -9.38446,-2.349062 -3.48796,2.470418 -7.11557,7.939211 -3.77246,11.881056 1.25561,1.268593 3.2871,1.260014 4.79323,0.470221 z m -2.95326,53.089853 c -4.17183,-0.51488 -9.51463,-3.6512 -7.29549,-8.60048 1.88628,-4.68746 5.95377,-8.08752 9.18956,-11.86026 3.47898,-3.83172 7.41861,-7.23172 10.98416,-10.95574 -0.29226,-3.960984 -4.84104,-6.31352 -7.16164,-9.32849 -4.29742,-4.717326 -9.63455,-8.755409 -12.59553,-14.505045 -2.48243,-6.099837 0.79627,-14.014307 7.40915,-15.630795 4.93434,-1.52024 10.01309,0.928673 13.20352,4.686897 5.47719,4.990765 10.31485,10.729596 16.18786,15.254249 4.17759,0.571478 6.42709,-4.910021 9.56869,-6.988963 4.7368,-4.333755 8.79322,-9.661186 14.48104,-12.795092 4.04936,-1.175183 10.40221,-1.011308 12.15754,3.636721 1.08296,5.783516 -2.94942,10.919173 -6.14124,15.325693 -4.52654,5.28603 -9.27496,10.766455 -11.83172,17.293675 -0.38253,4.30206 1.21954,8.47726 4.08597,11.67352 3.94833,5.18323 9.60472,9.58009 11.25628,16.14648 1.26852,4.32961 -4.89308,8.63252 -6.36208,2.92331 -3.48209,-5.13446 -8.59799,-10.02578 -15.21698,-10.00107 -2.04715,-0.16622 -3.26783,-2.39717 -5.10364,-3.18217 -2.99106,-2.31852 -7.46979,-3.14202 -10.53345,-0.47986 -6.14002,4.75927 -9.61784,12.33355 -16.18227,16.58302 -3.10259,1.39858 -6.79543,1.29205 -10.09973,0.8044 z" /><path
         style="fill:#74bf54"
         d="m 469.43849,145.43007 c -6.10891,-1.41453 -10.54515,-6.78046 -11.86853,-12.75758 -0.17783,-4.41751 0.12427,-9.34671 3.33879,-12.76624 4.57046,-5.66581 10.32557,-10.26374 14.95731,-15.84894 1.40301,-4.393812 -4.37752,-6.805886 -6.6443,-9.919579 -3.9989,-4.380445 -9.04937,-8.265473 -11.20368,-13.961565 -2.02049,-7.39188 1.14663,-16.370957 8.5727,-19.397808 5.35114,-2.427355 11.79504,-1.28298 16.55442,1.873735 5.6963,5.605107 11.26437,11.34772 17.12069,16.784568 6.06969,-5.540195 11.6984,-11.595107 17.67545,-17.210803 5.70496,-3.611308 13.61111,-3.863158 18.99977,0.496117 7.23378,5.425042 8.17849,17.365312 1.67387,23.717221 -4.3692,5.168044 -9.66445,9.49469 -13.972,14.694374 -1.39459,4.52954 4.65484,6.94635 6.97874,10.17891 4.5289,4.93033 10.55306,9.68299 11.44258,16.74234 0.25789,4.09281 0.0598,8.94021 -5.09029,8.84809 -2.12805,0.20754 -4.39838,2.63857 -6.25777,2.27657 -0.3135,-1.39227 -3.70309,-3.96709 -2.29034,-4.95414 4.83108,-1.48291 3.78755,-7.42654 1.38679,-10.59248 -3.78304,-6.72809 -11.21599,-11.1939 -13.14042,-18.94075 -0.22385,-2.19835 -0.63958,-4.58104 0.75938,-6.4816 3.04151,-6.598497 8.33456,-11.651762 12.59027,-17.411946 2.56274,-3.927264 5.82304,-8.721843 4.18726,-13.601468 -2.39213,-4.219146 -8.69454,-4.354617 -12.69805,-2.668693 -6.16388,4.108154 -10.89603,9.97238 -16.30014,14.981527 -2.47631,2.847174 -6.5242,7.10361 -9.62137,2.35022 -6.07583,-5.495032 -11.43369,-11.817617 -17.90254,-16.851137 -6.09589,-3.557477 -14.93461,-0.228387 -16.61653,6.766317 -1.50058,4.972543 0.72261,10.126571 4.38205,13.52647 4.99556,5.635205 10.87246,10.487929 15.50777,16.42627 0.60812,4.10072 -5.53479,6.07216 -7.59524,9.31959 -4.74551,5.00105 -10.30002,9.88381 -12.55576,16.58874 -0.96983,2.44236 0.39201,4.81622 2.89374,5.62739 2.4492,1.16079 5.03525,2.16566 7.78783,1.84446 3.81833,0.36496 7.82129,-0.61907 10.31975,-3.71194 4.84606,-4.63752 8.19715,-10.8236 13.83612,-14.59394 4.44827,-2.73209 9.27383,0.79946 12.73176,3.52779 3.4497,1.93434 -3.98394,1.32028 -4.67226,3.58518 -1.59021,2.01581 -3.12791,2.74373 -4.93694,2.33886 -5.74673,5.62272 -11.36326,11.43345 -17.1906,16.93977 -4.03795,2.02393 -8.62952,3.45831 -13.14028,2.2361 z"
         id="path3688" /><path
         style="fill:#dfedf9;fill-opacity:1;fill-rule:nonzero;stroke:#717e8d;stroke-width:4.1;stroke-linecap:round;stroke-linejoin:round;stroke-dasharray:none;stroke-dashoffset:263.22;stroke-opacity:1"
         d="m 1115.6331,142.6988 c 0,0 14.5732,-15.35394 30.7079,7.80709 m -9.1083,-10.66969 c 6.7662,-11.19016 21.3394,-8.84803 31.4886,8.32757 m -7.0264,-8.5878 c 18.7371,-10.40946 23.1611,3.38307 32.2693,19.51772 9.1083,16.13465 4.1638,32.78978 9.889,42.41852 5.7252,9.62875 1.8217,17.1756 -15.6142,29.66694 -17.4358,12.49135 -33.8375,11.78032 -37.474,3.38307 -14.046,-2.15158 -33.6183,-8.2707 -52.5677,-27.84528 -12.1771,-12.57891 -17.6458,-24.04754 -14.3131,-30.96812 5.2507,-10.90315 19.6047,-1.04245 26.0237,8.84803 5.979,9.21234 8.0673,12.49134 8.0673,12.49134 0,0 -21.5996,-32.52954 -30.4476,-58.55317 -6.5588,-19.29052 13.272,-18.47678 19.2575,-9.36851 5.9854,9.10827 17.4358,26.28387 17.4358,26.28387"
         id="path3696"
         sodipodi:nodetypes="cccccssscssscssc"
         transform="translate(-584.43122)" /></g></g></svg>
