<?xml version="1.0" encoding="UTF-8" standalone="no"?>
<!-- Created with Inkscape (http://www.inkscape.org/) -->

<svg
   width="102.98981mm"
   height="102.98624mm"
   viewBox="0 0 102.98981 102.98625"
   version="1.1"
   id="svg1"
   xml:space="preserve"
   xmlns="http://www.w3.org/2000/svg"
   xmlns:svg="http://www.w3.org/2000/svg"><defs
     id="defs1" /><g
     id="layer1"
     transform="translate(-361.23989,-103.43473)"><g
       id="g366"
       transform="translate(6.6245386)"><circle
         style="fill:none;fill-opacity:1;stroke:#9fa7ae;stroke-width:4.1;stroke-linecap:butt;stroke-linejoin:round;stroke-dasharray:12.3, 4.1;stroke-dashoffset:263.22;stroke-opacity:1"
         id="path374"
         cx="412.7348"
         cy="154.92992"
         r="49.444901"
         transform="translate(-6.6245386)" /><path
         style="fill:#7a2b7a;fill-opacity:1"
         d="m 409.88775,203.9509 c -5.54442,0.76519 -29.02878,-1.09498 -18.15349,-4.35474 11.12296,-3.76455 22.21437,-11.21984 25.86794,-22.93826 3.15865,-9.19207 1.65608,-20.0362 -4.50293,-27.66134 10.54242,-1.80168 21.27408,5.83258 23.76875,16.09813 7.22039,23.67698 -8.51738,36.30811 -26.98027,38.85621 z m -16.59911,-41.96219 c -11.88064,-1.31064 -20.75627,-13.09621 -20.23381,-24.7741 -0.005,-14.3497 11.01561,-27.35886 24.74081,-30.87171 6.93501,-1.9094 14.4588,-1.90031 21.39629,-0.0109 1.59495,0.4253 8.32686,3.81444 5.29884,5.15378 -5.94417,0.27092 -11.66088,2.84464 -16.82634,5.70033 -8.35331,4.67977 -14.74611,13.11614 -15.67869,22.79101 -0.93104,7.69313 1.07363,15.79773 5.87715,21.92981 -1.49664,0.38653 -3.05668,0.22052 -4.57425,0.0818 z"
         id="path369" /><path
         style="fill:#f2460c"
         d="m 451.39857,174.86141 c -1.52732,-11.18083 -7.72336,-21.93491 -17.2811,-28.10077 -10.48563,-6.05334 -25.14113,-5.49192 -34.07337,3.13805 0,0 -0.55317,-4.33016 -0.66324,-5.69322 0.17631,-9.7308 7.26373,-17.33006 16.55107,-19.66547 11.23111,-2.98559 22.63898,1.6206 31.60562,8.77895 5.54506,4.42679 8.22605,16.89706 8.35966,25.99956 0.0792,5.39303 -1.30019,14.26219 -4.49864,15.5429 z"
         id="path368" /><path
         style="fill:#d71925;fill-opacity:1"
         d="m 385.83158,189.59057 c -37.65716,-1.82677 -30.61426,-51.65615 -24.72269,-47.25465 0.50156,2.09472 0.91932,4.23148 1.92333,6.18935 4.33135,9.85019 13.13228,18.3053 24.00852,20.08735 8.85063,1.38622 18.76739,-1.52657 24.36856,-8.78075 3.09493,9.36575 -1.1554,20.34889 -9.47701,25.52666 -4.6592,3.21623 -10.44916,4.83834 -16.10066,4.23204 z"
         id="path367" /></g></g></svg>
