<?xml version="1.0" encoding="UTF-8" standalone="no"?>
<!-- Created with Inkscape (http://www.inkscape.org/) -->

<svg
   width="86.095039mm"
   height="108.15152mm"
   viewBox="0 0 86.095039 108.15152"
   version="1.1"
   id="svg1"
   xml:space="preserve"
   xmlns="http://www.w3.org/2000/svg"
   xmlns:svg="http://www.w3.org/2000/svg"><defs
     id="defs1" /><g
     id="layer1"
     transform="translate(-511.06101,-103.0879)"><g
       id="g369"
       transform="translate(8.8491219)"><path
         style="fill:#9fa7ae;fill-opacity:1;stroke:#9199a4;stroke-width:10;stroke-linecap:butt;stroke-linejoin:round;stroke-dasharray:none;stroke-opacity:1"
         d="m 676.89869,116.2974 v 67.53345 m -14.44516,11.86897 v -64.40521"
         id="path373"
         transform="translate(-124.39405)" /><path
         style="fill:#d82e0b;fill-opacity:1"
         d="m 517.68696,151.86245 -14.27538,-13.73259 41.85226,-35.04198 43.04308,34.33335 -13.62528,14.38439 -9.2409,-6.86234 6.52384,-7.23362 -26.21993,-20.76017 -2.58003,2.52194 -0.096,20.6869 -10.06204,0.008 0.0822,-14.02564 -14.44389,11.86022 6.83066,8.02172 -7.78856,5.83991 z"
         id="path371" /><path
         style="fill:#7a2b7a;fill-opacity:1"
         d="m 502.21189,172.95021 30.92642,-25.30746 0.0174,12.93227 -14.35796,12.36865 26.38203,22.44211 1.91981,-1.61532 0.3526,-25.20762 10.10842,0.0944 -0.0248,17.43257 13.23494,-11.51063 -13.27725,-12.57281 -0.0575,-14.33536 29.80812,25.85846 -42.60424,37.70993 z"
         id="path370" /></g></g></svg>
