<?xml version="1.0" encoding="UTF-8" standalone="no"?>
<!-- Created with Inkscape (http://www.inkscape.org/) -->

<svg
   width="119.13459mm"
   height="103.8605mm"
   viewBox="0 0 119.13459 103.86051"
   version="1.1"
   id="svg1"
   xml:space="preserve"
   xmlns:xlink="http://www.w3.org/1999/xlink"
   xmlns="http://www.w3.org/2000/svg"
   xmlns:svg="http://www.w3.org/2000/svg"><defs
     id="defs1" /><g
     id="layer1"
     transform="translate(-213.66669,-103.97981)"><g
       id="g344"
       transform="matrix(0.63074911,0,0,1.1943706,71.674283,-29.017734)"><path
         id="path352"
         style="fill:#9fa7ae;fill-opacity:1;stroke:none;stroke-width:2.72825;stroke-dasharray:none;stroke-opacity:1"
         d="m 362.42779,183.1316 20.34499,-20.56205 H 346.3615 v -15.87106 l 36.38878,-0.1362 -20.36648,-21.09785 10.56146,-10.02021 41.04973,39.18784 -40.24102,39.02376 z m -137.31071,-28.49955 40.93032,-39.66967 10.32845,10.46756 -19.94956,21.13232 36.03682,0.1362 v 15.87108 l -35.99428,0.2145 18.85104,19.08196 -10.09385,12.03306 z" /><path
         style="fill:#d82e0b;fill-opacity:1;stroke-width:1.15233"
         d="m 333.72744,195.49487 c -6.47025,-1.11064 -11.80587,-5.78374 -11.33168,-10.8973 -0.29087,-21.40842 3.2e-4,-42.81949 -0.003,-64.22906 1.67987,-3.67574 5.15916,-7.19525 10.48224,-8.02172 3.05827,-0.53283 6.31127,-0.51153 9.40177,-0.37149 4.68657,1.3536 8.74858,3.99173 10.51518,7.59567 0.38739,2.18174 0.0567,4.48388 0.1667,6.71215 0,20.42969 0,40.85939 0,61.28909 -1.82514,3.54308 -5.3573,6.72933 -10.39289,7.7535 -2.85417,0.66211 -5.94313,0.70057 -8.839,0.16916 z"
         id="path360" /><path
         style="fill:#d82e0b;fill-opacity:1"
         d="m 269.5679,127.69456 c -3.23798,-1.05854 -5.86497,-6.3978 -6.69725,-9.40218 -0.41676,-1.50444 0.75834,-3.15199 1.9261,-4.33831 6.75278,-6.86015 18.83948,1.07123 14.98137,9.67403 -2.61761,5.83679 -5.63881,5.56092 -10.21022,4.06646 z"
         id="path359" /><path
         style="fill:#d82e0b;fill-opacity:1"
         d="m 267.71912,197.33939 c -6.39569,-2.18278 -10.29444,-7.56319 -4.78998,-12.90448 3.10573,-3.01367 10.37012,-4.26206 12.9696,-3.50531 10.76536,3.13394 7.63077,21.80571 -8.17962,16.40979 z"
         id="path347" /><path
         style="fill:#7a2b7a;fill-opacity:1"
         d="m 362.01827,126.97953 c -3.33971,-2.12014 -4.7743,-6.65736 -3.15637,-10.15195 2.59235,-5.59924 11.80731,-6.98333 15.64899,-2.28527 1.0357,1.26657 1.12341,2.04957 1.09035,3.30334 -0.12184,4.62412 -6.16071,10.47241 -10.25805,9.92122 0,0 -2.67797,-0.37664 -3.32492,-0.78734 z"
         id="path362" /><path
         style="fill:#7a2b7a;fill-opacity:1"
         d="m 363.16303,197.36776 c -11.51395,-3.24194 -6.34899,-16.34681 1.51315,-16.54878 4.35975,-0.112 11.01754,6.80414 11.33757,10.4933 0.43072,4.96524 -7.30672,7.61647 -12.85072,6.05548 z"
         id="path361" /><path
         style="fill:#7a2b7a;fill-opacity:1;stroke-width:1.15265"
         d="m 299.4264,195.73586 c -5.93974,-0.53846 -10.74788,-3.93803 -12.77892,-8.06616 -0.52782,-1.55421 -0.0785,-3.27381 -0.22759,-4.89212 0,-20.80302 0,-41.60605 0,-62.40907 1.8135,-3.50278 5.08922,-6.79 10.06648,-7.91394 7.63082,-2.08428 16.90212,1.00402 19.78745,6.75565 1.32137,1.53949 0.50507,3.4408 0.72897,5.16605 0,20.88907 0,41.77815 0,62.66723 -1.87177,4.76699 -7.70961,8.45333 -14.35215,8.77751 -1.07445,0.0614 -2.15837,0.0354 -3.22424,-0.0851 z"
         id="path346" /><path
         style="baseline-shift:baseline;display:inline;overflow:visible;opacity:1;fill:#9fa7ae;fill-opacity:1;stroke:none;stroke-width:2.37915;stroke-linecap:round;stroke-linejoin:round;stroke-dasharray:none;stroke-opacity:1;enable-background:accumulate;stop-color:#000000;stop-opacity:1"
         d="m 337.63477,167.85937 a 7.3795919,4.9000001 0 0 0 -7.38019,4.9004 v 10.92968 a 7.3795919,4.9000001 0 0 0 7.38019,4.90039 7.3795919,4.9000001 0 0 0 7.38018,-4.90039 v -10.92968 a 7.3795919,4.9000001 0 0 0 -7.38018,-4.9004 z"
         id="path357" /><use
         x="0"
         y="0"
         xlink:href="#path357"
         id="use357"
         transform="translate(0,-48.924428)" /><use
         x="0"
         y="0"
         xlink:href="#path357"
         id="use358"
         transform="translate(-35.95409)" /><use
         x="0"
         y="0"
         xlink:href="#use357"
         id="use359"
         transform="translate(-35.95409)" /></g></g></svg>
