<?xml version="1.0" encoding="UTF-8" standalone="no"?>
<!-- Created with Inkscape (http://www.inkscape.org/) -->

<svg
   width="938.69891mm"
   height="298.47211mm"
   viewBox="0 0 938.69891 298.47211"
   version="1.1"
   id="svg1"
   xml:space="preserve"
   inkscape:version="1.4.3 (0d15f75, 2025-12-25)"
   sodipodi:docname="Q-bitPack.svg"
   xmlns:inkscape="http://www.inkscape.org/namespaces/inkscape"
   xmlns:sodipodi="http://sodipodi.sourceforge.net/DTD/sodipodi-0.dtd"
   xmlns:xlink="http://www.w3.org/1999/xlink"
   xmlns="http://www.w3.org/2000/svg"
   xmlns:svg="http://www.w3.org/2000/svg"><sodipodi:namedview
     id="namedview1"
     pagecolor="#ffffff"
     bordercolor="#000000"
     borderopacity="0.25"
     inkscape:showpageshadow="2"
     inkscape:pageopacity="0.0"
     inkscape:pagecheckerboard="0"
     inkscape:deskcolor="#d1d1d1"
     inkscape:document-units="mm"
     inkscape:zoom="0.17972959"
     inkscape:cx="929.17367"
     inkscape:cy="80.676755"
     inkscape:window-width="1904"
     inkscape:window-height="993"
     inkscape:window-x="-7"
     inkscape:window-y="0"
     inkscape:window-maximized="0"
     inkscape:current-layer="layer1" /><defs
     id="defs1" /><g
     inkscape:label="Layer 1"
     inkscape:groupmode="layer"
     id="layer1"
     transform="translate(0,1.472119)"><g
       id="g344"
       transform="matrix(0.63074911,0,0,1.1943706,71.674283,-29.017734)"
       inkscape:export-filename="Pauli-X.svg"
       inkscape:export-xdpi="96"
       inkscape:export-ydpi="96"><path
         id="path352"
         style="fill:#9fa7ae;fill-opacity:1;stroke:none;stroke-width:2.72825;stroke-dasharray:none;stroke-opacity:1"
         d="m 362.42779,183.1316 20.34499,-20.56205 H 346.3615 v -15.87106 l 36.38878,-0.1362 -20.36648,-21.09785 10.56146,-10.02021 41.04973,39.18784 -40.24102,39.02376 z m -137.31071,-28.49955 40.93032,-39.66967 10.32845,10.46756 -19.94956,21.13232 36.03682,0.1362 v 15.87108 l -35.99428,0.2145 18.85104,19.08196 -10.09385,12.03306 z"
         sodipodi:nodetypes="cccccccccccccccccccc" /><path
         style="fill:#d82e0b;fill-opacity:1;stroke-width:1.15233"
         d="m 333.72744,195.49487 c -6.47025,-1.11064 -11.80587,-5.78374 -11.33168,-10.8973 -0.29087,-21.40842 3.2e-4,-42.81949 -0.003,-64.22906 1.67987,-3.67574 5.15916,-7.19525 10.48224,-8.02172 3.05827,-0.53283 6.31127,-0.51153 9.40177,-0.37149 4.68657,1.3536 8.74858,3.99173 10.51518,7.59567 0.38739,2.18174 0.0567,4.48388 0.1667,6.71215 0,20.42969 0,40.85939 0,61.28909 -1.82514,3.54308 -5.3573,6.72933 -10.39289,7.7535 -2.85417,0.66211 -5.94313,0.70057 -8.839,0.16916 z"
         id="path360" /><path
         style="fill:#d82e0b;fill-opacity:1"
         d="m 269.5679,127.69456 c -3.23798,-1.05854 -5.86497,-6.3978 -6.69725,-9.40218 -0.41676,-1.50444 0.75834,-3.15199 1.9261,-4.33831 6.75278,-6.86015 18.83948,1.07123 14.98137,9.67403 -2.61761,5.83679 -5.63881,5.56092 -10.21022,4.06646 z"
         id="path359"
         sodipodi:nodetypes="sssss" /><path
         style="fill:#d82e0b;fill-opacity:1"
         d="m 267.71912,197.33939 c -6.39569,-2.18278 -10.29444,-7.56319 -4.78998,-12.90448 3.10573,-3.01367 10.37012,-4.26206 12.9696,-3.50531 10.76536,3.13394 7.63077,21.80571 -8.17962,16.40979 z"
         id="path347"
         sodipodi:nodetypes="ssss" /><path
         style="fill:#7a2b7a;fill-opacity:1"
         d="m 362.01827,126.97953 c -3.33971,-2.12014 -4.7743,-6.65736 -3.15637,-10.15195 2.59235,-5.59924 11.80731,-6.98333 15.64899,-2.28527 1.0357,1.26657 1.12341,2.04957 1.09035,3.30334 -0.12184,4.62412 -6.16071,10.47241 -10.25805,9.92122 0,0 -2.67797,-0.37664 -3.32492,-0.78734 z"
         id="path362"
         sodipodi:nodetypes="ssssss" /><path
         style="fill:#7a2b7a;fill-opacity:1"
         d="m 363.16303,197.36776 c -11.51395,-3.24194 -6.34899,-16.34681 1.51315,-16.54878 4.35975,-0.112 11.01754,6.80414 11.33757,10.4933 0.43072,4.96524 -7.30672,7.61647 -12.85072,6.05548 z"
         id="path361"
         sodipodi:nodetypes="ssss" /><path
         style="fill:#7a2b7a;fill-opacity:1;stroke-width:1.15265"
         d="m 299.4264,195.73586 c -5.93974,-0.53846 -10.74788,-3.93803 -12.77892,-8.06616 -0.52782,-1.55421 -0.0785,-3.27381 -0.22759,-4.89212 0,-20.80302 0,-41.60605 0,-62.40907 1.8135,-3.50278 5.08922,-6.79 10.06648,-7.91394 7.63082,-2.08428 16.90212,1.00402 19.78745,6.75565 1.32137,1.53949 0.50507,3.4408 0.72897,5.16605 0,20.88907 0,41.77815 0,62.66723 -1.87177,4.76699 -7.70961,8.45333 -14.35215,8.77751 -1.07445,0.0614 -2.15837,0.0354 -3.22424,-0.0851 z"
         id="path346" /><path
         style="baseline-shift:baseline;display:inline;overflow:visible;opacity:1;fill:#9fa7ae;stroke-width:2.37915195;stroke-linecap:round;stroke-linejoin:round;enable-background:accumulate;stop-color:#000000;stop-opacity:1;fill-opacity:1;stroke:none;stroke-opacity:1;stroke-dasharray:none"
         d="m 337.63477,167.85937 a 7.3795919,4.9000001 0 0 0 -7.38019,4.9004 v 10.92968 a 7.3795919,4.9000001 0 0 0 7.38019,4.90039 7.3795919,4.9000001 0 0 0 7.38018,-4.90039 v -10.92968 a 7.3795919,4.9000001 0 0 0 -7.38018,-4.9004 z"
         id="path357" /><use
         x="0"
         y="0"
         xlink:href="#path357"
         id="use357"
         transform="translate(0,-48.924428)" /><use
         x="0"
         y="0"
         xlink:href="#path357"
         id="use358"
         transform="translate(-35.95409)" /><use
         x="0"
         y="0"
         xlink:href="#use357"
         id="use359"
         transform="translate(-35.95409)" /></g><g
       id="g343"
       transform="translate(21.309825)"
       inkscape:export-filename="Unitary.svg"
       inkscape:export-xdpi="96"
       inkscape:export-ydpi="96"><path
         style="fill:#7a2b7a;fill-opacity:1"
         d="m 65.879887,138.38119 c -5.41738,-10.19164 -11.136819,-20.24177 -16.402262,-30.50134 2.34083,-3.83804 8.403995,-3.04013 12.432617,-3.8656 10.41445,-0.58326 21.130339,-0.96055 31.304571,1.69088 5.615729,2.23552 -1.709874,8.30524 -2.657489,12.02928 -3.824833,7.08063 -7.702119,14.13284 -11.502197,21.22681 -4.282693,-2.5e-4 -8.565385,-4.9e-4 -12.848078,-7.4e-4 -0.109054,-0.1931 -0.218108,-0.38619 -0.327162,-0.57929 z"
         id="path364" /><path
         style="fill:#7a2b7a;fill-opacity:1"
         d="m 125.64876,165.18694 c -4.03123,-0.8319 -7.69618,-3.74091 -8.78697,-7.80198 -11.31225,-0.0263 -22.624507,-0.0525 -33.93676,-0.0788 0.958374,-1.48272 17.58584,-5.6972 20.3673,-5.16835 10.8109,-0.009 2.75571,-0.0346 13.56576,-0.18652 1.42976,-7.55956 11.57961,-10.57439 17.28484,-5.75947 5.91884,4.39207 4.6589,14.11031 -1.4529,17.69033 -2.058,1.33235 -4.63873,1.89455 -7.04127,1.30474 z"
         id="path363" /><path
         style="fill:#7a2b7a;fill-opacity:1"
         d="m 65.974855,205.44526 c -5.130553,-0.48872 -10.619011,-0.2441 -15.310768,-2.62394 -2.442176,-3.42483 2.632535,-7.14891 3.624765,-10.60152 3.975307,-7.36302 7.99878,-14.6999 11.969308,-22.06551 h 12.749833 c 5.462601,10.18083 10.948153,20.35236 16.507852,30.47956 -0.952934,4.87122 -9.019671,3.54222 -13.000183,4.60042 -5.499585,0.4466 -11.031657,0.51745 -16.540807,0.21099 z"
         id="path343" /><path
         id="path344"
         style="fill:#d82e0b;fill-opacity:1"
         d="m 121.06938,205.46873 c -5.65328,-0.57029 -11.9459,-0.15137 -16.89172,-3.3389 0.77333,-4.13756 3.84605,-7.85356 5.63685,-11.76301 3.65591,-6.72913 7.32194,-13.45294 10.92138,-20.21253 4.27923,0.0426 8.58486,-0.23268 12.84283,0.11439 5.47388,10.11058 11.07674,20.16044 16.43543,30.33077 -0.98452,5.03709 -8.91194,3.59138 -13.02495,4.50157 -5.2891,0.25106 -10.63829,0.8699 -15.91982,0.36771 z M 71.011259,165.26485 c -6.655293,-0.58672 -10.989948,-8.10883 -8.672902,-14.26511 2.18097,-8.30732 14.914046,-9.69306 19.143341,-2.44598 3.015686,5.01006 1.999366,12.62481 -3.713612,15.27514 -2.033227,1.13893 -4.423741,1.77766 -6.756827,1.43595 z m 49.826401,-26.26467 c -5.78024,-10.30794 -11.30015,-20.76854 -16.93945,-31.15722 2.2385,-3.43836 7.38004,-2.89266 10.99483,-3.6769 10.68126,-0.82435 21.64529,-1.16394 32.14451,1.28298 6.95223,1.64947 -0.8542,8.36225 -1.84776,12.10909 -3.89534,7.15928 -7.75166,14.3399 -11.67821,21.48213 -4.22387,-0.003 -8.45338,0.12943 -12.67392,-0.0401 z m -37.922837,13.32737 20.298437,-0.13012 c -9.493962,1.12543 -15.544602,3.04548 -20.558673,5.20473 z m 54.649617,5.59508 c 3.57607,-10.39776 -8.8602,-18.5515 -8.19744,-8.19744 0.37312,5.829 5.20472,-0.65059 8.19744,8.19744 z"
         sodipodi:nodetypes="cccccccccccccscccccsscccccsc" /><path
         style="fill:#7a2b7a;fill-opacity:1"
         d="m 65.522717,146.16374 c -8.523435,6.94642 -1.695993,20.01869 3.203445,10.87313 2.758217,-5.14866 -5.329019,-1.77775 -3.203445,-10.87313 z"
         id="path365" /></g><g
       id="g366"
       transform="translate(6.6245386)"
       inkscape:export-filename="Hadamard.svg"
       inkscape:export-xdpi="96"
       inkscape:export-ydpi="96"><circle
         style="fill:none;fill-opacity:1;stroke:#9fa7ae;stroke-width:4.1;stroke-linecap:butt;stroke-linejoin:round;stroke-dasharray:12.29999972, 4.0999999;stroke-opacity:1;stroke-dashoffset:263.22000122"
         id="path374"
         cx="412.7348"
         cy="154.92992"
         r="49.444901"
         transform="translate(-6.6245386)" /><path
         style="fill:#7a2b7a;fill-opacity:1"
         d="m 409.88775,203.9509 c -5.54442,0.76519 -29.02878,-1.09498 -18.15349,-4.35474 11.12296,-3.76455 22.21437,-11.21984 25.86794,-22.93826 3.15865,-9.19207 1.65608,-20.0362 -4.50293,-27.66134 10.54242,-1.80168 21.27408,5.83258 23.76875,16.09813 7.22039,23.67698 -8.51738,36.30811 -26.98027,38.85621 z m -16.59911,-41.96219 c -11.88064,-1.31064 -20.75627,-13.09621 -20.23381,-24.7741 -0.005,-14.3497 11.01561,-27.35886 24.74081,-30.87171 6.93501,-1.9094 14.4588,-1.90031 21.39629,-0.0109 1.59495,0.4253 8.32686,3.81444 5.29884,5.15378 -5.94417,0.27092 -11.66088,2.84464 -16.82634,5.70033 -8.35331,4.67977 -14.74611,13.11614 -15.67869,22.79101 -0.93104,7.69313 1.07363,15.79773 5.87715,21.92981 -1.49664,0.38653 -3.05668,0.22052 -4.57425,0.0818 z"
         id="path369"
         sodipodi:nodetypes="sccccsscccccccss" /><path
         style="fill:#f2460c"
         d="m 451.39857,174.86141 c -1.52732,-11.18083 -7.72336,-21.93491 -17.2811,-28.10077 -10.48563,-6.05334 -25.14113,-5.49192 -34.07337,3.13805 0,0 -0.55317,-4.33016 -0.66324,-5.69322 0.17631,-9.7308 7.26373,-17.33006 16.55107,-19.66547 11.23111,-2.98559 22.63898,1.6206 31.60562,8.77895 5.54506,4.42679 8.22605,16.89706 8.35966,25.99956 0.0792,5.39303 -1.30019,14.26219 -4.49864,15.5429 z"
         id="path368"
         sodipodi:nodetypes="cccccsac" /><path
         style="fill:#d71925;fill-opacity:1"
         d="m 385.83158,189.59057 c -37.65716,-1.82677 -30.61426,-51.65615 -24.72269,-47.25465 0.50156,2.09472 0.91932,4.23148 1.92333,6.18935 4.33135,9.85019 13.13228,18.3053 24.00852,20.08735 8.85063,1.38622 18.76739,-1.52657 24.36856,-8.78075 3.09493,9.36575 -1.1554,20.34889 -9.47701,25.52666 -4.6592,3.21623 -10.44916,4.83834 -16.10066,4.23204 z"
         id="path367"
         sodipodi:nodetypes="scccccss" /></g><g
       id="g369"
       transform="translate(8.8491219)"
       inkscape:export-filename="Pauli-Z.svg"
       inkscape:export-xdpi="96"
       inkscape:export-ydpi="96"><path
         style="fill:#9fa7ae;fill-opacity:1;stroke:#9199a4;stroke-width:10;stroke-linecap:butt;stroke-linejoin:round;stroke-dasharray:none;stroke-opacity:1"
         d="m 676.89869,116.2974 v 67.53345 m -14.44516,11.86897 v -64.40521"
         id="path373"
         sodipodi:nodetypes="cccc"
         transform="translate(-124.39405)" /><path
         style="fill:#d82e0b;fill-opacity:1"
         d="m 517.68696,151.86245 -14.27538,-13.73259 41.85226,-35.04198 43.04308,34.33335 -13.62528,14.38439 -9.2409,-6.86234 6.52384,-7.23362 -26.21993,-20.76017 -2.58003,2.52194 -0.096,20.6869 -10.06204,0.008 0.0822,-14.02564 -14.44389,11.86022 6.83066,8.02172 -7.78856,5.83991 z"
         id="path371"
         sodipodi:nodetypes="cccccccccccccccc" /><path
         style="fill:#7a2b7a;fill-opacity:1"
         d="m 502.21189,172.95021 30.92642,-25.30746 0.0174,12.93227 -14.35796,12.36865 26.38203,22.44211 1.91981,-1.61532 0.3526,-25.20762 10.10842,0.0944 -0.0248,17.43257 13.23494,-11.51063 -13.27725,-12.57281 -0.0575,-14.33536 29.80812,25.85846 -42.60424,37.70993 z"
         id="path370"
         sodipodi:nodetypes="ccccccccccccccc" /></g></g></svg>
