<?xml version="1.0" encoding="UTF-8" standalone="no"?>
<!-- Created with Inkscape (http://www.inkscape.org/) -->

<svg
   width="100.53652mm"
   height="102.10529mm"
   viewBox="0 0 100.53652 102.10529"
   version="1.1"
   id="svg1"
   xml:space="preserve"
   xmlns="http://www.w3.org/2000/svg"
   xmlns:svg="http://www.w3.org/2000/svg"><defs
     id="defs1" /><g
     id="layer1"
     transform="translate(-70.787455,-103.5544)"><g
       id="g343"
       transform="translate(21.309825)"><path
         style="fill:#7a2b7a;fill-opacity:1"
         d="m 65.879887,138.38119 c -5.41738,-10.19164 -11.136819,-20.24177 -16.402262,-30.50134 2.34083,-3.83804 8.403995,-3.04013 12.432617,-3.8656 10.41445,-0.58326 21.130339,-0.96055 31.304571,1.69088 5.615729,2.23552 -1.709874,8.30524 -2.657489,12.02928 -3.824833,7.08063 -7.702119,14.13284 -11.502197,21.22681 -4.282693,-2.5e-4 -8.565385,-4.9e-4 -12.848078,-7.4e-4 -0.109054,-0.1931 -0.218108,-0.38619 -0.327162,-0.57929 z"
         id="path364" /><path
         style="fill:#7a2b7a;fill-opacity:1"
         d="m 125.64876,165.18694 c -4.03123,-0.8319 -7.69618,-3.74091 -8.78697,-7.80198 -11.31225,-0.0263 -22.624507,-0.0525 -33.93676,-0.0788 0.958374,-1.48272 17.58584,-5.6972 20.3673,-5.16835 10.8109,-0.009 2.75571,-0.0346 13.56576,-0.18652 1.42976,-7.55956 11.57961,-10.57439 17.28484,-5.75947 5.91884,4.39207 4.6589,14.11031 -1.4529,17.69033 -2.058,1.33235 -4.63873,1.89455 -7.04127,1.30474 z"
         id="path363" /><path
         style="fill:#7a2b7a;fill-opacity:1"
         d="m 65.974855,205.44526 c -5.130553,-0.48872 -10.619011,-0.2441 -15.310768,-2.62394 -2.442176,-3.42483 2.632535,-7.14891 3.624765,-10.60152 3.975307,-7.36302 7.99878,-14.6999 11.969308,-22.06551 h 12.749833 c 5.462601,10.18083 10.948153,20.35236 16.507852,30.47956 -0.952934,4.87122 -9.019671,3.54222 -13.000183,4.60042 -5.499585,0.4466 -11.031657,0.51745 -16.540807,0.21099 z"
         id="path343" /><path
         id="path344"
         style="fill:#d82e0b;fill-opacity:1"
         d="m 121.06938,205.46873 c -5.65328,-0.57029 -11.9459,-0.15137 -16.89172,-3.3389 0.77333,-4.13756 3.84605,-7.85356 5.63685,-11.76301 3.65591,-6.72913 7.32194,-13.45294 10.92138,-20.21253 4.27923,0.0426 8.58486,-0.23268 12.84283,0.11439 5.47388,10.11058 11.07674,20.16044 16.43543,30.33077 -0.98452,5.03709 -8.91194,3.59138 -13.02495,4.50157 -5.2891,0.25106 -10.63829,0.8699 -15.91982,0.36771 z M 71.011259,165.26485 c -6.655293,-0.58672 -10.989948,-8.10883 -8.672902,-14.26511 2.18097,-8.30732 14.914046,-9.69306 19.143341,-2.44598 3.015686,5.01006 1.999366,12.62481 -3.713612,15.27514 -2.033227,1.13893 -4.423741,1.77766 -6.756827,1.43595 z m 49.826401,-26.26467 c -5.78024,-10.30794 -11.30015,-20.76854 -16.93945,-31.15722 2.2385,-3.43836 7.38004,-2.89266 10.99483,-3.6769 10.68126,-0.82435 21.64529,-1.16394 32.14451,1.28298 6.95223,1.64947 -0.8542,8.36225 -1.84776,12.10909 -3.89534,7.15928 -7.75166,14.3399 -11.67821,21.48213 -4.22387,-0.003 -8.45338,0.12943 -12.67392,-0.0401 z m -37.922837,13.32737 20.298437,-0.13012 c -9.493962,1.12543 -15.544602,3.04548 -20.558673,5.20473 z m 54.649617,5.59508 c 3.57607,-10.39776 -8.8602,-18.5515 -8.19744,-8.19744 0.37312,5.829 5.20472,-0.65059 8.19744,8.19744 z" /><path
         style="fill:#7a2b7a;fill-opacity:1"
         d="m 65.522717,146.16374 c -8.523435,6.94642 -1.695993,20.01869 3.203445,10.87313 2.758217,-5.14866 -5.329019,-1.77775 -3.203445,-10.87313 z"
         id="path365" /></g></g></svg>
